<svg width="240" height="70" viewBox="0 0 240 70" fill="none" xmlns="http://www.w3.org/2000/svg">
<g id="Property 1=4">
<g id="Group">
<path id="Vector" d="M7.35426 35.6009C7.80452 36.8028 8.55495 37.8545 9.45547 38.7559C10.356 39.6573 11.4066 40.4084 12.6073 40.8591C13.808 41.3099 15.0087 41.6103 16.3595 41.6103V48.0704C14.1082 48.0704 12.0069 47.6197 9.90573 46.8685C7.9546 45.9671 6.15356 44.9155 4.65269 43.4131C3.15182 41.9108 1.95113 40.2582 1.20069 38.1549C0.300174 36.2019 0 33.9484 0 31.6948V22.3803V15.77V3H6.60382V15.77H16.3595V22.3803H6.45373V31.6948C6.45373 33.0469 6.75391 34.3991 7.35426 35.6009Z" fill="#BBBDBF"/>
<path id="Vector_2" d="M36.3225 15.3193C38.5738 15.3193 40.675 15.77 42.6261 16.6714C44.5773 17.5729 46.3783 18.7747 47.8792 20.2771C49.38 21.7794 50.5807 23.5822 51.4813 25.5353C52.3818 27.4884 52.832 29.7419 52.832 31.8452C52.832 34.0987 52.3818 36.202 51.4813 38.3053C50.5807 40.2583 49.38 42.0611 47.8792 43.5635C46.3783 45.0658 44.5773 46.2677 42.6261 47.1691C40.675 48.0705 38.4237 48.5212 36.3225 48.5212C34.0712 48.5212 31.97 48.0705 29.8687 47.1691C27.9176 46.2677 26.1166 45.0658 24.6157 43.5635C23.1148 42.0611 21.9141 40.4085 21.0136 38.3053C20.1131 36.3522 19.6628 34.0987 19.6628 31.8452C19.6628 29.5916 20.1131 27.4884 21.0136 25.5353C21.9141 23.5822 23.1148 21.7794 24.6157 20.2771C26.1166 18.7747 27.7675 17.5729 29.8687 16.6714C31.8199 15.77 33.9211 15.3193 36.3225 15.3193ZM36.3225 41.6104C37.6733 41.6104 39.024 41.3099 40.2247 40.8592C41.4254 40.4085 42.476 39.6574 43.3766 38.756C44.2771 37.8545 45.0275 36.8029 45.4778 35.601C45.928 34.3991 46.2282 33.1973 46.2282 31.8452C46.2282 30.493 45.928 29.1409 45.4778 27.9391C45.0275 26.7372 44.2771 25.6855 43.3766 24.7841C42.476 23.8827 41.4254 23.1315 40.2247 22.6808C39.024 22.2301 37.6733 21.9297 36.3225 21.9297C34.9717 21.9297 33.6209 22.2301 32.5703 22.6808C31.3696 23.1315 30.319 23.8827 29.4185 24.7841C28.518 25.6855 27.7675 26.7372 27.3173 27.9391C26.867 29.1409 26.5668 30.493 26.5668 31.8452C26.5668 33.1973 26.867 34.5494 27.3173 35.601C27.7675 36.8029 28.518 37.8545 29.4185 38.756C30.319 39.6574 31.3696 40.4085 32.5703 40.8592C33.6209 41.4602 34.8216 41.6104 36.3225 41.6104Z" fill="#BBBDBF"/>
<path id="Vector_3" d="M72.3403 15.9202C74.5916 15.9202 76.6928 16.3709 78.644 17.122C80.5951 18.0235 82.246 19.0751 83.7469 20.5774C85.2478 22.0798 86.2984 23.7324 87.1989 25.6854C88.0994 27.6385 88.3996 29.7418 88.3996 31.845C88.3996 34.0986 87.9493 36.2019 87.1989 38.1549C86.2984 40.108 85.2478 41.7605 83.7469 43.2629C82.246 44.7652 80.5951 45.8169 78.644 46.7183C76.6928 47.6197 74.5916 47.9202 72.3403 47.9202C70.5393 47.9202 68.8883 47.6197 67.2374 47.0188C65.5864 46.4178 64.0855 45.6666 62.7347 44.615V67H56.281V15.9202H62.7347V19.0751C64.0855 18.1737 65.5864 17.2723 67.2374 16.6713C68.8883 16.0704 70.5393 15.9202 72.3403 15.9202ZM72.3403 41.6103C73.6911 41.6103 74.8918 41.3098 76.0925 40.8591C77.2932 40.4084 78.3438 39.6573 79.0942 38.7558C79.9947 37.8544 80.5951 36.8028 81.1954 35.7512C81.6457 34.5493 81.9459 33.3474 81.9459 31.9953C81.9459 30.6432 81.6457 29.4413 81.1954 28.2394C80.7452 27.0375 79.9947 26.1361 79.0942 25.2347C78.1937 24.3333 77.1431 23.7324 76.0925 23.1314C74.8918 22.6807 73.6911 22.3803 72.3403 22.3803C70.9895 22.3803 69.7888 22.6807 68.5881 23.1314C67.3874 23.5821 66.4869 24.3333 65.5864 25.2347C64.6859 26.1361 64.0855 27.0375 63.4852 28.2394C63.0349 29.4413 62.7347 30.6432 62.7347 31.9953C62.7347 33.3474 63.0349 34.5493 63.4852 35.7512C63.9354 36.953 64.6859 38.0047 65.5864 38.7558C66.4869 39.6573 67.3874 40.2582 68.5881 40.8591C69.7888 41.3098 70.9895 41.6103 72.3403 41.6103Z" fill="#BBBDBF"/>
<path id="Vector_4" d="M166.298 15.0188C168.549 15.0188 170.5 15.4695 172.451 16.2207C174.402 17.1221 176.053 18.1737 177.554 19.6761C178.905 21.1784 180.106 22.831 180.856 24.7841C181.757 26.7371 182.057 28.8404 182.057 30.9437V47.6197H175.903V31.0939C175.903 29.7418 175.603 28.5399 175.153 27.338C174.702 26.1362 173.952 25.0845 173.052 24.3334C172.151 23.4319 171.1 22.831 170.05 22.2301C168.849 21.7794 167.648 21.4789 166.298 21.4789C164.947 21.4789 163.746 21.7794 162.545 22.2301C161.345 22.6808 160.294 23.4319 159.544 24.3334C158.793 25.2348 158.043 26.2864 157.443 27.338C156.992 28.5399 156.692 29.7418 156.692 31.0939V47.77H150.388V31.0939C150.388 29.7418 150.088 28.5399 149.638 27.338C149.188 26.1362 148.437 25.0845 147.537 24.3334C146.636 23.4319 145.586 22.831 144.535 22.2301C143.484 21.6291 142.284 21.4789 140.933 21.4789C139.582 21.4789 138.381 21.7794 137.181 22.2301C135.98 22.6808 134.929 23.4319 134.179 24.3334C133.429 25.2348 132.678 26.2864 132.078 27.338C131.628 28.5399 131.327 29.7418 131.327 31.0939V47.77H125.174V15.77H131.327V18.324C132.678 17.2723 134.329 16.5211 135.83 15.9202C137.481 15.3193 139.132 15.0188 140.933 15.0188C143.484 15.0188 145.886 15.6197 148.137 16.8216C150.238 18.0235 152.189 19.5258 153.69 21.3287C155.191 19.5258 156.992 18.0235 159.093 16.8216C161.195 15.6197 163.596 15.0188 166.298 15.0188Z" fill="#BBBDBF"/>
<path id="Vector_5" d="M218.527 15.9202V47.7699H211.923V44.9155C210.722 45.8169 209.221 46.7183 207.42 47.3192C205.769 47.9202 203.968 48.2206 202.167 48.2206C199.916 48.2206 197.965 47.7699 196.014 47.0188C194.063 46.1173 192.412 45.0657 190.911 43.5634C189.41 42.061 188.359 40.4084 187.459 38.3051C186.558 36.3521 186.258 34.2488 186.258 31.9953C186.258 29.7418 186.708 27.6385 187.459 25.6854C188.359 23.7324 189.41 22.0798 190.911 20.5774C192.412 19.0751 194.063 18.0235 196.014 17.122C197.965 16.2206 200.066 15.9202 202.167 15.9202C203.968 15.9202 205.769 16.2206 207.42 16.6713C209.071 17.122 210.572 18.0235 211.923 19.0751V16.0704H218.527V15.9202ZM202.167 41.6103C203.518 41.6103 204.869 41.3098 205.919 40.8591C207.12 40.4084 208.171 39.6573 209.071 38.7558C209.972 37.8544 210.572 36.8028 211.172 35.6009C211.623 34.399 211.923 33.0469 211.923 31.6948C211.923 30.3427 211.623 29.1408 211.172 27.9389C210.722 26.7371 209.972 25.6854 209.071 24.9342C208.171 24.0328 207.12 23.4319 205.919 22.831C204.719 22.3803 203.518 22.0798 202.167 22.0798C200.816 22.0798 199.616 22.3803 198.415 22.831C197.214 23.2817 196.164 24.0328 195.413 24.9342C194.513 25.8357 193.912 26.8873 193.312 27.9389C192.862 29.1408 192.562 30.3427 192.562 31.6948C192.562 33.0469 192.862 34.399 193.312 35.6009C193.762 36.8028 194.513 37.8544 195.413 38.7558C196.314 39.6573 197.364 40.2582 198.415 40.8591C199.616 41.3098 200.967 41.6103 202.167 41.6103Z" fill="#BBBDBF"/>
<path id="Vector_6" d="M230.834 35.6009C231.284 36.8028 232.035 37.8545 232.935 38.7559C233.836 39.6573 234.887 40.4084 236.087 40.8591C237.288 41.3099 238.489 41.6103 239.839 41.6103V48.0704C237.588 48.0704 235.487 47.6197 233.386 46.8685C231.435 45.9671 229.634 44.9155 228.133 43.4131C226.632 41.9108 225.431 40.2582 224.681 38.1549C223.78 36.2019 223.48 33.9484 223.48 31.6948V22.3803V15.77V3H230.084V15.77H239.99V22.3803H230.084V31.6948C230.084 33.0469 230.384 34.3991 230.834 35.6009Z" fill="#BBBDBF"/>
</g>
</g>
</svg>
