<svg width="240" height="70" viewBox="0 0 240 70" fill="none" xmlns="http://www.w3.org/2000/svg">
<g id="Property 1=2">
<g id="Group">
<path id="Vector" d="M30.3277 41.334C29.6021 42.7901 28.8766 44.1006 27.8608 45.1199C26.8451 46.2848 25.8293 47.304 24.5233 48.1777C23.2174 49.0514 21.9114 49.6338 20.4603 50.2162C19.0092 50.6531 17.413 50.9443 15.8168 50.9443C13.6402 50.9443 11.6087 50.5075 9.72227 49.7794C7.83586 48.9058 6.09456 47.7409 4.64347 46.2848C3.19239 44.8287 2.03152 43.0813 1.16087 41.1884C0.290216 39.2955 0 37.1113 0 34.9272C0 32.743 0.435325 30.7045 1.16087 28.6659C2.03152 26.773 3.19239 25.0257 4.64347 23.5696C6.09456 22.1135 7.83586 20.9486 9.72227 20.2205C11.6087 19.3469 13.6402 19.0557 15.8168 19.0557C17.413 19.0557 19.0092 19.3469 20.4603 19.7837C21.9114 20.2205 23.3625 20.9486 24.5233 21.8223C25.8293 22.6959 26.8451 23.7152 27.8608 24.8801C28.8766 26.045 29.6021 27.3554 30.3277 28.8115H22.9271C22.0565 27.9379 21.0407 27.0642 19.7348 26.4818C18.5739 25.8993 17.2679 25.4625 15.8168 25.4625C14.5109 25.4625 13.35 25.7537 12.1891 26.1906C11.0282 26.6274 10.0125 27.3554 9.14184 28.2291C8.27119 29.1028 7.54564 30.122 7.11032 31.2869C6.67499 32.4518 6.38478 33.7623 6.38478 35.0728C6.38478 36.3833 6.67499 37.6938 7.11032 38.713C7.54564 39.8779 8.27119 40.8972 9.14184 41.7709C10.0125 42.6445 11.0282 43.3726 12.1891 43.8094C13.35 44.2462 14.5109 44.5374 15.8168 44.5374C18.719 44.5374 21.0407 43.5182 22.9271 41.4796H30.3277V41.334Z" fill="#8787B3"/>
<path id="Vector_2" d="M59.0613 38.2762H41.2129C41.9385 40.1691 42.9542 41.6252 44.5504 42.7901C46.1466 43.955 48.033 44.5374 50.0645 44.5374C53.1118 44.5374 55.4336 43.5182 57.32 41.4796H64.7205C63.5596 44.2462 61.6732 46.576 59.0613 48.3233C56.4493 50.0706 53.5471 50.9443 50.2096 50.9443C48.033 50.9443 46.0015 50.5075 44.1151 49.7794C42.2287 48.9058 40.4874 47.7409 39.0363 46.2848C37.5852 44.8287 36.2792 43.227 35.5537 41.1884C34.683 39.2955 34.3928 37.1113 34.3928 34.9272C34.3928 32.743 34.8281 30.7045 35.5537 28.8115C36.4243 26.9186 37.5852 25.1713 39.0363 23.7152C40.4874 22.2591 42.2287 21.0942 44.1151 20.2205C46.0015 19.3469 48.033 19.0557 50.2096 19.0557C52.3863 19.0557 54.4178 19.4925 56.4493 20.2205C58.3357 21.0942 60.077 22.2591 61.5281 23.7152C62.9792 25.1713 64.1401 26.9186 65.0107 28.8115C65.8814 30.7045 66.1716 32.743 66.1716 34.9272C66.1716 35.5096 66.1716 36.0921 66.1716 36.6745C66.1716 37.2569 66.0265 37.6938 65.8814 38.2762H59.7868H59.0613ZM59.0613 31.8694C58.3357 29.9764 57.32 28.3747 55.5787 27.2098C53.9825 26.045 52.0961 25.4625 49.9194 25.4625C47.7428 25.4625 46.0015 26.045 44.4053 27.2098C42.8091 28.3747 41.6482 29.9764 41.0678 31.8694H59.0613Z" fill="#8787B3"/>
<path id="Vector_3" d="M70.0841 6.96997H76.1786V13.2312H69.939V6.96997H70.0841ZM70.0841 50.5074V19.4924H76.1786V50.5074H70.0841Z" fill="#8787B3"/>
<path id="Vector_4" d="M80.2473 50.5075V1H86.487V50.5075H80.2473Z" fill="#8787B3"/>
<path id="Vector_5" d="M90.8381 6.96997H97.0778V13.2312H90.8381V6.96997ZM90.8381 50.5074V19.4924H97.0778V50.5074H90.8381Z" fill="#8787B3"/>
<path id="Vector_6" d="M116.665 18.9102C118.697 18.9102 120.728 19.347 122.615 20.075C124.501 20.9487 126.097 21.968 127.549 23.4241C129 24.8802 130.015 26.4819 130.886 28.3748C131.757 30.2678 132.047 32.1607 132.047 34.3448V50.6532H125.807V34.6361C125.807 33.3256 125.517 32.1607 125.082 30.9958C124.646 29.8309 123.921 28.9573 123.195 28.0836C122.325 27.2099 121.454 26.6275 120.293 26.0451C119.132 25.6082 117.971 25.317 116.81 25.317C115.504 25.317 114.344 25.6082 113.183 26.0451C112.022 26.4819 111.006 27.2099 110.281 28.0836C109.41 28.9573 108.829 29.8309 108.249 30.9958C107.814 32.1607 107.524 33.3256 107.524 34.6361V50.5076H101.429V19.4926H107.524V21.8224C108.829 20.9487 110.281 20.075 111.732 19.6382C113.183 19.0558 114.779 18.9102 116.665 18.9102Z" fill="#8787B3"/>
<path id="Vector_7" d="M166.727 34.9273C166.727 38.4219 165.711 41.4797 163.825 44.2463C165.856 46.8673 166.727 49.9251 166.727 53.4198C166.727 55.6039 166.292 57.6424 165.566 59.5354C164.695 61.4283 163.68 63.03 162.228 64.4861C160.777 65.9422 159.181 66.9615 157.295 67.8352C155.408 68.7088 153.377 69 151.2 69C148.008 69 145.106 68.1264 142.639 66.3791C140.172 64.6317 138.286 62.4476 136.98 59.681H144.235C145.106 60.5546 146.267 61.4283 147.427 62.0107C148.588 62.5932 149.894 62.8844 151.2 62.8844C152.506 62.8844 153.667 62.5932 154.828 62.1564C155.989 61.7195 157.005 60.9915 157.73 60.1178C158.601 59.2442 159.181 58.2249 159.762 57.2056C160.197 56.0407 160.487 54.8759 160.487 53.5654C160.487 51.6724 159.907 50.0707 158.891 48.6146C156.714 49.9251 154.102 50.6532 151.2 50.6532C149.024 50.6532 146.992 50.2163 145.106 49.4883C143.219 48.6146 141.623 47.5953 140.172 46.1392C138.721 44.6831 137.705 43.0814 136.834 41.1885C135.964 39.2956 135.674 37.257 135.674 35.0729C135.674 32.8887 136.109 30.9958 136.834 29.1028C137.705 27.2099 138.721 25.6082 140.172 24.1521C141.623 22.696 143.219 21.6767 145.106 20.8031C146.992 19.9294 149.024 19.6382 151.2 19.6382C152.942 19.6382 154.683 19.9294 156.134 20.5118C157.73 21.0943 159.036 21.8223 160.487 22.8416V19.7838H166.582V34.9273H166.727ZM151.345 44.2463C152.651 44.2463 153.812 43.9551 154.973 43.5183C156.134 43.0814 157.15 42.3534 157.875 41.4797C158.746 40.6061 159.326 39.5868 159.907 38.5675C160.342 37.4026 160.632 36.2377 160.632 34.9273C160.632 33.6168 160.342 32.4519 159.907 31.287C159.471 30.1221 158.746 29.2485 157.875 28.3748C157.005 27.5011 155.989 26.9187 154.973 26.3363C153.812 25.8994 152.651 25.6082 151.345 25.6082C150.039 25.6082 148.878 25.8994 147.718 26.3363C146.557 26.7731 145.541 27.5011 144.815 28.3748C143.945 29.2485 143.364 30.1221 142.784 31.287C142.349 32.4519 142.058 33.6168 142.058 34.9273C142.058 36.2377 142.349 37.4026 142.784 38.5675C143.219 39.7324 143.945 40.7517 144.815 41.4797C145.686 42.3534 146.702 42.9358 147.718 43.5183C148.878 44.1007 150.039 44.2463 151.345 44.2463Z" fill="#8787B3"/>
</g>
</g>
</svg>
