<svg width="240" height="70" viewBox="0 0 240 70" fill="none" xmlns="http://www.w3.org/2000/svg">
<g id="Property 1=1">
<g id="Group">
<path id="Vector" d="M16.0197 15.9202C18.2655 15.9202 20.3615 16.3709 22.3078 17.122C24.2542 18.0235 25.9011 19.0751 27.3982 20.5774C28.8954 22.0798 29.9434 23.7324 30.8417 25.6854C31.74 27.6385 32.0395 29.7418 32.0395 31.845C32.0395 34.0986 31.5903 36.2018 30.8417 38.1549C29.9434 40.1079 28.8954 41.7605 27.3982 43.2629C25.9011 44.7652 24.2542 45.8169 22.3078 46.7183C20.3615 47.6197 18.2655 47.9201 16.0197 47.9201C14.2231 47.9201 12.5762 47.6197 10.9293 47.0187C9.28246 46.4178 7.78529 45.6666 6.43784 44.615V66.9999H0V15.9202H6.43784V19.0751C7.78529 18.1737 9.28246 17.2723 10.9293 16.6713C12.5762 16.2206 14.3728 15.9202 16.0197 15.9202ZM16.0197 41.6103C17.3672 41.6103 18.5649 41.3098 19.7627 40.8591C20.9604 40.4084 22.0084 39.6572 22.757 38.7558C23.6553 37.8544 24.2542 36.8028 24.853 35.7511C25.3022 34.5493 25.6016 33.3474 25.6016 31.9953C25.6016 30.6432 25.3022 29.4413 24.853 28.2394C24.4039 27.0375 23.6553 26.1361 22.757 25.2347C21.8587 24.3333 20.8107 23.7324 19.7627 23.1314C18.5649 22.6807 17.3672 22.3803 16.0197 22.3803C14.6723 22.3803 13.4745 22.6807 12.2768 23.1314C11.0791 23.5821 10.1808 24.3333 9.28246 25.2347C8.38416 26.1361 7.78529 27.0375 7.18642 28.2394C6.73727 29.4413 6.43784 30.6432 6.43784 31.9953C6.43784 33.3474 6.73727 34.5493 7.18642 35.7511C7.63557 36.953 8.38416 38.0047 9.28246 38.7558C10.1808 39.6572 11.0791 40.2582 12.2768 40.8591C13.4745 41.4601 14.822 41.6103 16.0197 41.6103Z" fill="#929497"/>
<path id="Vector_2" d="M54.7981 15.77V22.2301H51.5043C50.1568 22.2301 48.9591 22.5306 47.7614 22.9813C46.5636 23.432 45.5156 24.1832 44.767 25.0846C43.8687 25.986 43.2699 26.8874 42.671 28.0893C42.2218 29.2911 41.9224 30.493 41.9224 31.8451V47.9202H35.6343V15.77H41.9224V19.0752C43.2699 18.0235 44.9167 17.2724 46.4139 16.6714C48.0608 16.0705 49.7077 15.77 51.5043 15.77H54.7981Z" fill="#929497"/>
<path id="Vector_3" d="M59.2888 3H65.7267V9.46009H59.2888V3ZM59.2888 47.9202V15.9202H65.7267V47.9202H59.2888Z" fill="#929497"/>
<path id="Vector_4" d="M111.091 15.1689C113.336 15.1689 115.283 15.6196 117.229 16.3708C119.175 17.2722 120.822 18.3239 122.319 19.8262C123.667 21.3286 124.865 22.9811 125.613 24.9342C126.512 26.8872 126.811 28.9905 126.811 31.0938V47.7699H120.673V31.0938C120.673 29.7417 120.373 28.5398 119.924 27.338C119.475 26.1361 118.726 25.0844 117.828 24.3333C116.93 23.4319 115.882 22.8309 114.834 22.23C113.636 21.7793 112.438 21.4788 111.091 21.4788C109.743 21.4788 108.545 21.7793 107.348 22.23C106.15 22.6807 105.102 23.4319 104.353 24.3333C103.455 25.2347 102.856 26.2863 102.257 27.338C101.808 28.5398 101.509 29.7417 101.509 31.0938V47.7699H95.2206V31.0938C95.2206 29.7417 94.9212 28.5398 94.4721 27.338C94.0229 26.1361 93.2743 25.0844 92.376 24.3333C91.4777 23.4319 90.4297 22.8309 89.3817 22.23C88.1839 21.7793 86.9862 21.4788 85.6388 21.4788C84.2913 21.4788 83.0936 21.7793 81.8958 22.23C80.6981 22.6807 79.6501 23.4319 78.9015 24.3333C78.0032 25.2347 77.4043 26.2863 76.8054 27.338C76.3563 28.5398 76.0569 29.7417 76.0569 31.0938V47.7699H69.9185V15.9201H76.0569V18.4741C77.4043 17.4225 79.0512 16.6713 80.5484 16.0704C82.1953 15.4694 83.8421 15.1689 85.6388 15.1689C88.1839 15.1689 90.5794 15.7699 92.8252 16.9718C94.9212 18.1736 96.8675 19.676 98.3647 21.4788C99.8619 19.676 101.658 18.1736 103.755 16.9718C106 15.7699 108.396 15.1689 111.091 15.1689Z" fill="#929497"/>
<path id="Vector_5" d="M156.754 35.3005H138.19C138.938 37.2535 139.986 38.7559 141.633 39.9577C143.28 41.1596 145.226 41.7605 147.322 41.7605C150.466 41.7605 152.862 40.7089 154.808 38.6056H162.444C161.246 41.4601 159.3 43.8638 156.605 45.6666C153.91 47.4695 150.915 48.3709 147.472 48.3709C145.226 48.3709 143.13 47.9202 141.184 47.169C139.238 46.2676 137.441 45.0657 135.944 43.5634C134.447 42.061 133.249 40.2582 132.351 38.3051C131.452 36.3521 131.153 34.0986 131.153 31.8451C131.153 29.5915 131.602 27.4883 132.351 25.5352C133.249 23.5822 134.447 21.7793 135.944 20.277C137.441 18.7746 139.238 17.5728 141.184 16.6714C143.13 15.77 145.226 15.4695 147.472 15.4695C149.718 15.4695 151.814 15.9202 153.91 16.6714C155.856 17.5728 157.653 18.7746 159.15 20.277C160.647 21.7793 161.845 23.5822 162.743 25.5352C163.641 27.4883 163.941 29.5915 163.941 31.8451C163.941 32.446 163.941 33.0469 163.941 33.6479C163.941 34.2488 163.791 34.6995 163.641 35.3005H157.353H156.754ZM156.754 28.6901C156.006 26.7371 154.958 25.0845 153.161 23.8826C151.514 22.6807 149.568 22.0798 147.322 22.0798C145.077 22.0798 143.28 22.6807 141.633 23.8826C139.986 25.0845 138.788 26.7371 138.19 28.6901H156.754Z" fill="#929497"/>
<path id="Vector_6" d="M187.146 15.77V22.2301H183.852C182.504 22.2301 181.307 22.5306 180.109 22.9813C178.911 23.432 177.863 24.1832 177.115 25.0846C176.216 25.986 175.618 26.8874 175.019 28.0893C174.569 29.2911 174.27 30.493 174.27 31.8451V47.9202H167.982V15.77H174.27V19.0752C175.618 18.0235 177.264 17.2724 178.762 16.6714C180.408 16.0705 182.055 15.77 183.852 15.77H187.146Z" fill="#929497"/>
</g>
</g>
</svg>
