<svg width="240" height="70" viewBox="0 0 240 70" fill="none" xmlns="http://www.w3.org/2000/svg">
<g id="Property 1=3">
<g id="Group">
<path id="Vector" d="M40.9713 23.9602C43.2061 23.9602 45.1429 24.4087 47.0798 25.1562C49.0166 26.0532 50.6555 27.0997 52.1453 28.5948C53.4862 30.0898 54.6781 31.7343 55.423 33.6778C56.317 35.6213 56.6149 37.7144 56.6149 39.8074V56.4021H50.5065V39.9569C50.5065 38.6114 50.2085 37.4154 49.7615 36.2193C49.3146 35.0233 48.5696 33.9768 47.6757 33.2293C46.7818 32.3323 45.7389 31.7343 44.696 31.1363C43.5041 30.5383 42.3122 30.2393 40.9713 30.2393C39.6304 30.2393 38.4386 30.5383 37.2467 30.9868C36.0548 31.4353 35.0119 32.1828 34.2669 33.0798C33.373 33.9768 32.7771 35.0233 32.1811 36.0698C31.7342 37.2659 31.4362 38.4619 31.4362 39.8074V56.4021H25.1787V39.9569C25.1787 38.6114 24.8808 37.4154 24.4338 36.2193C23.9869 35.0233 23.2419 33.9768 22.348 33.2293C21.4541 32.3323 20.4112 31.7343 19.3683 31.1363C18.1764 30.6878 16.9845 30.3888 15.6436 30.3888C14.3027 30.3888 13.1108 30.6878 11.9189 31.1363C10.727 31.5848 9.68413 32.3323 8.9392 33.2293C8.04528 34.1263 7.44934 35.1728 6.85339 36.2193C6.40643 37.4154 6.10846 38.6114 6.10846 39.9569V56.5516H0V24.7077H6.10846V27.2492C7.44934 26.2027 9.08819 25.4552 10.5781 24.8572C12.2169 24.2592 13.8558 23.9602 15.6436 23.9602C18.1764 23.9602 20.5602 24.5582 22.795 25.7542C24.8808 26.9502 26.8176 28.4453 28.3075 30.2393C29.7973 28.4453 31.5852 26.9502 33.671 25.7542C36.0548 24.5582 38.4386 23.9602 40.9713 23.9602Z" fill="#BBBDBF"/>
<path id="Vector_2" d="M92.8165 24.8572V56.5515H86.2611V53.711C85.0692 54.608 83.5794 55.505 81.7915 56.103C80.1527 56.701 78.3648 57 76.577 57C74.3422 57 72.4054 56.5515 70.4686 55.804C68.5317 54.907 66.8929 53.8605 65.403 52.3655C63.9131 50.8705 62.8702 49.2259 61.9763 47.1329C61.0824 45.1894 60.7844 43.0964 60.7844 40.8539C60.7844 38.6113 61.2314 36.5183 61.9763 34.5748C62.8702 32.6313 63.9131 30.9867 65.403 29.4917C66.8929 27.9967 68.5317 26.9502 70.4686 26.0532C72.4054 25.1562 74.4912 24.8572 76.577 24.8572C78.3648 24.8572 80.1527 25.1562 81.7915 25.6047C83.4304 26.0532 84.9202 26.9502 86.2611 27.9967V25.0067H92.8165V24.8572ZM76.726 50.2725C78.0669 50.2725 79.4077 49.9735 80.4506 49.525C81.6425 49.0764 82.6854 48.3289 83.5794 47.4319C84.4733 46.5349 85.0692 45.4884 85.6652 44.2924C86.1121 43.0964 86.4101 41.7509 86.4101 40.4053C86.4101 39.0598 86.1121 37.8638 85.6652 36.6678C85.2182 35.4718 84.4733 34.4253 83.5794 33.6778C82.6854 32.7808 81.6425 32.1828 80.4506 31.5848C79.2588 31.1362 78.0669 30.8372 76.726 30.8372C75.3851 30.8372 74.1932 31.1362 73.0013 31.5848C71.8094 32.0333 70.7665 32.7808 70.0216 33.6778C69.2767 34.5748 68.5317 35.6213 67.9358 36.6678C67.4888 37.8638 67.1908 39.0598 67.1908 40.4053C67.1908 41.7509 67.4888 43.0964 67.9358 44.2924C68.3827 45.4884 69.1277 46.5349 70.0216 47.4319C70.9155 48.3289 71.9584 48.9269 73.0013 49.525C74.1932 50.123 75.3851 50.2725 76.726 50.2725Z" fill="#BBBDBF"/>
<path id="Vector_3" d="M105.035 44.2924C105.482 45.4884 106.227 46.5349 107.121 47.4319C108.014 48.3289 109.057 49.0764 110.249 49.5249C111.441 49.9734 112.633 50.2724 113.974 50.2724V56.701C111.739 56.701 109.653 56.2525 107.567 55.505C105.631 54.608 103.843 53.5615 102.353 52.0664C100.863 50.5714 99.6712 48.9269 98.9263 46.8339C98.0324 44.8904 97.7344 42.6478 97.7344 40.4053V31.1362V24.5581V12H104.29V24.7076H114.123V31.2857H104.29V40.5548C104.29 41.9003 104.588 43.0963 105.035 44.2924Z" fill="#BBBDBF"/>
</g>
</g>
</svg>
