<svg width="83" height="83" viewBox="0 0 83 83" fill="none" xmlns="http://www.w3.org/2000/svg">
<path d="M73.4226 62.237C76.762 57.0947 78.7763 51.5812 79.4654 45.8557C79.9425 41.9327 79.7835 38.0627 79.0414 34.3517C77.7692 27.778 74.9068 21.9465 70.5602 16.9632C64.4113 9.91231 56.5661 5.61818 47.3428 4.18681C46.6007 4.08078 45.9116 3.97475 45.1695 3.86872L44.1624 3.7627H38.7556L37.8014 3.86872C37.0593 3.97475 36.3702 4.02776 35.6281 4.18681C26.4048 5.61818 18.5597 9.91231 12.3578 17.0162C8.06417 21.9465 5.20176 27.778 3.92958 34.3517C3.77055 35.1999 3.66454 36.0482 3.55852 36.8964C3.50552 37.3205 3.45251 37.7976 3.3995 38.2217C3.3995 38.3808 3.34649 38.5398 3.29349 38.6989L3.24048 38.9109L3.29349 44.3183C3.34649 44.4774 3.3995 44.6364 3.3995 44.8485C3.61153 47.4992 4.0886 50.2029 4.98973 52.8536C7.69312 61.2298 12.7819 67.9625 20.1499 72.8928C28.048 78.1942 37.0063 80.2618 46.8127 78.9894C50.1522 78.5653 53.3857 77.6641 56.3541 76.3918C57.7853 75.7556 59.3755 74.9604 61.2308 73.9531C62.344 73.37 62.821 72.1506 62.397 70.9843C61.9729 69.765 60.9128 69.0758 59.7466 69.2349C59.0575 69.3409 58.3154 69.712 57.6793 70.0831C50.6823 73.9001 43.2612 75.1194 35.5751 73.688C26.3518 71.9916 18.9837 67.1673 13.736 59.2683C9.01831 52.1644 7.42808 44.2123 8.9653 35.6771C10.6615 26.6647 15.4852 19.4548 23.3304 14.3125C30.5924 9.4882 38.7026 7.89778 47.4488 9.4882C56.4601 11.1316 63.7752 15.9029 69.0759 23.6959C72.2564 28.3611 74.0587 33.6625 74.4297 39.4941C74.7478 44.6894 73.8996 49.6197 71.9383 54.1789C71.2493 55.6633 70.4541 57.1477 69.659 58.5261L69.0759 59.5333C68.5459 60.4346 68.4398 61.1237 68.5989 61.8129C68.9169 62.8732 69.606 63.5094 70.7192 63.6684C71.8323 63.7744 72.7335 63.3503 73.4226 62.237Z" fill="#53565A"/>
<path d="M58.0503 37.6916L57.7853 37.9037C57.6263 38.0097 57.5203 38.1157 57.3612 38.2218L55.0819 39.8122C54.0218 40.5544 52.9616 41.3496 51.9015 42.0918C49.5161 43.8412 48.774 46.0148 49.7281 48.8246L51.7954 55.1332C51.8485 55.2392 51.8485 55.3453 51.9015 55.4513L51.9545 55.6103C52.0075 55.8224 51.9015 56.0344 51.7424 56.1405C51.5834 56.2465 51.2654 56.2995 51.1063 56.1935L45.3815 52.1114C42.7842 50.2559 40.6108 50.2559 38.0135 52.1114L32.8187 55.8224C32.7127 55.9284 32.5537 55.9814 32.3947 56.0875L32.0766 56.2995C31.9706 56.3525 31.9176 56.3525 31.8116 56.3525C31.7056 56.3525 31.5995 56.2995 31.5465 56.2465C31.3875 56.1405 31.3345 55.9284 31.3875 55.7694L31.4935 55.3983C31.5465 55.1332 31.5995 54.9742 31.7056 54.7621C31.9176 54.0199 32.1826 53.3307 32.4477 52.5885C32.9777 51.0511 33.5078 49.4077 33.9319 47.8173C34.462 45.8028 33.8259 44.0003 32.1826 42.6749C30.8044 41.5616 29.3732 40.5544 27.942 39.5471C27.3059 39.123 26.6698 38.6459 26.0337 38.1688C25.8747 38.0627 25.7687 37.9567 25.5567 37.7977L25.2916 37.5856C25.1326 37.4796 25.0796 37.2675 25.1326 37.0555C25.1856 36.8434 25.3976 36.7374 25.5567 36.7374H28.5781C30.2213 36.7374 31.8646 36.7374 33.5078 36.7374C36.1582 36.7374 38.0665 35.359 38.9146 32.8674C39.3917 31.489 39.8157 30.1106 40.2928 28.7323L41.0349 26.5587C41.0879 26.3997 41.1409 26.2406 41.1939 26.0816L41.2999 25.7635C41.3529 25.6045 41.565 25.4454 41.724 25.4454C41.936 25.4454 42.095 25.5514 42.1481 25.7635L42.3071 26.0816C42.3601 26.2406 42.4131 26.3997 42.4661 26.5587L43.2612 28.9974C43.6853 30.2697 44.1093 31.542 44.5334 32.8144C45.3815 35.359 47.2898 36.7374 50.0462 36.7374C51.7954 36.7374 53.5447 36.7374 55.347 36.7374H57.8383C58.0503 36.7374 58.2094 36.8434 58.2624 37.0555C58.2624 37.3736 58.2094 37.5856 58.0503 37.6916ZM63.4041 35.412C62.609 33.1855 60.6477 31.8071 58.3154 31.8071C56.5131 31.8071 54.7109 31.8071 52.9616 31.8071H49.8872C49.6751 31.8071 49.5161 31.7011 49.4631 31.489L49.2511 30.7998C48.986 30.0046 48.721 29.2624 48.509 28.4672C47.9259 26.7178 47.3428 24.9683 46.7067 23.2188C45.9646 21.2043 44.0563 19.985 41.724 19.985C39.4447 19.985 37.5364 21.2043 36.6883 23.2188C36.4232 23.855 36.2112 24.5442 35.9462 25.2334L35.7871 25.8165C35.3631 27.1419 34.886 28.5202 34.4619 29.8456L33.9319 31.489C33.8789 31.7011 33.6668 31.8071 33.5078 31.8071H30.3274C29.6383 31.8071 28.9492 31.8071 28.3131 31.8071C27.1999 31.8071 26.0337 31.8071 24.9206 31.8071C23.4364 31.8071 22.1642 32.4433 21.157 33.5565C20.0969 34.7759 19.5668 36.3133 19.7258 37.7977C19.8849 39.3351 20.733 40.7664 22.1642 41.7737C24.2315 43.3111 26.1928 44.6895 28.101 46.0148C28.7371 46.4919 28.9492 46.9691 28.6841 47.7113C27.836 50.1499 27.0409 52.6416 26.3518 54.7621C25.8747 56.2995 25.9807 57.7309 26.7758 59.0562C27.571 60.4346 28.8961 61.3889 30.4334 61.7069C31.9706 62.025 33.5608 61.6539 34.939 60.6467C35.7871 60.0105 36.6883 59.4273 37.5364 58.7912C38.6496 57.996 39.8157 57.2008 40.9289 56.3525C41.565 55.9284 42.042 55.8754 42.6781 56.3525C43.8973 57.2538 45.1165 58.102 46.3887 59.0032C47.1308 59.5334 47.8729 60.0635 48.615 60.5936C49.8342 61.4419 51.1063 61.866 52.4845 61.813C54.0218 61.7599 55.559 60.9117 56.5661 59.5864C57.5203 58.314 57.8383 56.7766 57.4673 55.3983C56.8842 53.3307 56.1951 51.2102 55.506 49.1957L55.0289 47.7643C54.7639 46.9691 54.9229 46.4389 55.612 45.9618L56.0891 45.6437C58.0503 44.2654 60.1176 42.834 62.0789 41.2966C63.5101 39.9712 64.1992 37.5326 63.4041 35.412Z" fill="#53565A"/>
</svg>
