<svg width="41" height="34" viewBox="0 0 41 34" fill="none" xmlns="http://www.w3.org/2000/svg">
<g clip-path="url(#clip0_3_7050)">
<path d="M30.6471 31.6531C30.543 31.4655 30.4805 31.3197 30.418 31.1947C29.8555 30.1737 29.2721 29.1319 28.7096 28.111C28.5638 27.8609 28.3971 27.7359 28.1471 27.6734C25.6055 27.0067 23.0638 26.3191 20.5013 25.6523C19.6055 25.4232 18.7305 25.194 17.8346 24.9439C17.0638 24.7147 16.8555 23.9438 17.3971 23.3396C17.418 23.2979 17.4596 23.2771 17.5013 23.2354C19.0013 21.6727 20.5013 20.1309 22.0221 18.5682C22.3138 18.2556 22.6263 17.9848 22.9388 17.6722C21.293 14.6927 19.668 11.7549 18.0013 8.7545C13.7513 16.4429 9.56381 24.0271 5.33464 31.6739H30.6471V31.6531ZM23.5221 22.2144C23.9596 22.1728 38.8346 20.4434 39.6471 20.36C40.2305 20.2975 40.6888 20.6517 40.7513 21.1726C40.793 21.631 40.4596 22.1519 39.8555 22.2144C37.4388 22.4645 22.8346 24.1938 22.7305 24.298C23.543 24.5272 38.9805 28.611 40.0013 28.8819C40.5846 29.0486 40.8763 29.5278 40.7513 30.0487C40.6055 30.5696 40.1471 30.8405 39.5846 30.6946C38.4388 30.4029 31.0846 28.4443 31.0013 28.4443C31.0846 28.611 32.9805 32.0698 33.043 32.1948C33.293 32.7782 32.9388 33.4241 32.3346 33.5074C32.2096 33.5283 3.89714 33.5283 3.77214 33.5074C3.10547 33.4449 2.73047 32.799 3.02214 32.1531C3.08464 32.0073 6.85547 25.1523 6.98047 24.9231C6.73047 24.9231 1.12631 24.9231 0.917973 24.8814C0.501306 24.7981 0.230473 24.4022 0.251306 23.9646C0.251306 23.5271 0.542973 23.1729 0.959639 23.0895C1.16797 23.0479 7.81381 23.0479 8.02214 23.0479C8.12631 22.8812 17.2096 6.44172 17.3138 6.29587C17.6888 5.77498 18.3763 5.77498 18.7513 6.29587C18.8555 6.44172 24.168 16.0679 24.2721 16.2137C24.3971 16.1095 39.2513 0.732712 39.3971 0.628533C39.7513 0.357667 40.1888 0.399339 40.5013 0.69104C40.8346 1.00358 40.8971 1.4828 40.6471 1.87868C40.543 2.02453 23.1888 19.9433 23.0013 20.11C23.0221 20.1517 23.043 20.1934 23.0846 20.2142C23.2096 20.1517 38.2305 11.6715 39.3346 11.0256C39.6055 10.8589 39.8971 10.7547 40.2096 10.9006C40.8555 11.1715 41.0013 12.0257 40.4596 12.4841C40.3346 12.5883 23.668 22.0061 23.5638 22.0894C23.5221 22.1519 23.5221 22.1936 23.5221 22.2144Z" fill="#53565A"/>
</g>
<defs>
<clipPath id="clip0_3_7050">
<rect width="40.625" height="33.3373" fill="white" transform="translate(0.167969 0.336792)"/>
</clipPath>
</defs>
</svg>
