<svg width="34" height="34" viewBox="0 0 34 34" fill="none" xmlns="http://www.w3.org/2000/svg">
<g clip-path="url(#clip0_3_7040)">
<path d="M25.0935 17.1526C24.8796 17.174 24.7941 17.174 24.7086 17.1954C24.1741 17.2595 23.6395 17.3451 23.105 17.3878C22.5919 17.4306 22.1856 17.1098 22.1001 16.6608C22.0146 16.1689 22.3353 15.7627 22.8698 15.6557C22.9553 15.6343 23.0622 15.6343 23.1478 15.613C24.1954 15.4847 25.2431 15.335 26.2908 15.2067C26.5474 15.1853 26.7184 15.0998 26.8681 14.8859C27.5951 13.774 28.4076 12.7262 29.0918 11.5928C30.118 9.92488 31.0374 8.17142 31.4651 6.24688C31.6147 5.58398 31.6575 4.87832 31.5934 4.21542C31.5292 3.33868 30.9733 2.82547 30.0753 2.69717C29.669 2.63302 29.2414 2.59025 28.8566 2.67579C27.9799 2.84686 27.0819 3.03931 26.248 3.36007C23.4043 4.40787 20.9027 6.07581 18.4653 7.87204C18.615 8.02173 18.7432 8.15003 18.8715 8.27833C19.3847 8.72739 19.9192 9.13368 20.411 9.60413C21.3945 10.5236 22.378 11.4645 23.3402 12.4054C23.6823 12.7475 23.6823 13.2608 23.383 13.5815C23.105 13.9023 22.6132 13.945 22.207 13.7098C22.0787 13.6243 21.9504 13.5174 21.8435 13.4104C20.9669 12.5765 20.1116 11.7211 19.235 10.8872C18.5294 10.2456 17.7811 9.6469 17.0327 9.00538C16.8189 9.17645 16.6051 9.30476 16.4127 9.47583C15.2153 10.545 14.0394 11.6142 12.8634 12.7048C12.393 13.1538 11.8799 13.1752 11.495 12.7903C11.1101 12.4054 11.1315 11.8922 11.5805 11.4645C12.4572 10.6305 13.3552 9.83935 14.2532 9.02677C14.6594 8.66324 15.1084 8.29972 15.5361 7.91481C15.4078 7.78651 15.3009 7.65821 15.1726 7.57267C13.7186 6.6104 12.2861 5.62675 10.7894 4.72863C9.31412 3.85189 7.7319 3.16761 6.04279 2.76132C5.33721 2.59025 4.61025 2.50472 3.88328 2.63302C3.00665 2.78271 2.4935 3.27453 2.36522 4.12988C2.30107 4.55756 2.30107 5.00662 2.34384 5.43429C2.47212 6.58902 2.87837 7.65821 3.34875 8.72739C4.28953 10.8016 5.50826 12.7262 6.85527 14.5652C7.15461 14.9715 7.47533 15.3777 7.83881 15.8482C7.88157 15.6557 7.90295 15.5702 7.92434 15.4847C8.00986 14.9287 8.05262 14.3727 8.15953 13.8167C8.24505 13.3463 8.6513 13.0683 9.12168 13.1111C9.59207 13.1538 9.91279 13.5174 9.91279 14.0092C9.91279 14.1589 9.89141 14.3086 9.87003 14.4796C9.74174 15.4419 9.63483 16.3828 9.48516 17.3451C9.4424 17.623 9.48517 17.8369 9.6776 18.0507C10.4259 18.8419 11.1315 19.6973 11.9226 20.4671C13.0558 21.579 14.2104 22.6696 15.3864 23.7388C15.9209 24.2306 16.4982 24.6583 17.0327 25.086C19.9833 22.6696 22.6346 20.0822 25.0935 17.1526ZM1.33892 31.8219C0.312619 30.1753 0.526432 28.4646 1.0182 26.7325C1.68102 24.4445 2.85699 22.3916 4.13986 20.3815C4.39643 19.9966 4.90958 19.8897 5.31583 20.1249C5.72207 20.3388 5.89312 20.8092 5.67931 21.2369C5.44411 21.686 5.16616 22.0922 4.90958 22.5199C3.94743 24.1665 3.04942 25.8344 2.62179 27.6948C2.4935 28.2722 2.40798 28.8709 2.42936 29.4483C2.45074 30.6458 3.11356 31.3087 4.33229 31.3942C5.5724 31.4797 6.74837 31.1162 7.88157 30.6671C10.0411 29.8546 12.0082 28.6784 13.9111 27.374C14.3601 27.0747 14.7877 26.7539 15.2153 26.4545C15.3436 26.369 15.4505 26.2621 15.5788 26.1338C15.1726 25.7916 14.8091 25.4495 14.4242 25.1287C12.3289 23.4394 10.4046 21.5577 8.67268 19.5262C8.3092 19.0985 7.92434 18.8419 7.32566 18.7991C6.34213 18.735 5.37997 18.5853 4.41781 18.4356C4.13986 18.3929 3.84052 18.2432 3.64809 18.0721C3.39152 17.8369 3.39152 17.4734 3.56257 17.1526C3.755 16.8318 4.03295 16.6608 4.41781 16.7035C4.86682 16.7463 5.29445 16.8105 5.74345 16.8746C5.93588 16.896 6.14969 16.9174 6.44903 16.9388C6.06417 16.4042 5.72207 15.9551 5.37997 15.506C3.81914 13.3463 2.40798 11.1224 1.40306 8.66324C0.954056 7.5299 0.590575 6.3538 0.547813 5.11354C0.526432 4.70725 0.547813 4.27957 0.611957 3.85189C0.889912 2.24811 1.98036 1.20031 3.62671 0.922318C4.65301 0.751248 5.63654 0.879551 6.64146 1.11477C8.58715 1.58522 10.3618 2.41918 12.0509 3.4456C13.6545 4.42926 15.194 5.51983 16.7334 6.58902C17.0327 6.80285 17.1824 6.67455 17.3962 6.52487C18.3798 5.84058 19.3205 5.11354 20.3254 4.47202C22.3567 3.14623 24.4948 1.97012 26.8681 1.28584C27.8516 1.00785 28.8352 0.8154 29.8615 0.900935C31.9996 1.05062 33.3466 2.3978 33.4535 4.49341C33.5177 5.71228 33.2397 6.867 32.8335 8.00034C32.0637 10.1601 30.9305 12.1274 29.6477 14.0092C29.22 14.6507 28.7497 15.2494 28.3006 15.8696C28.1296 16.1048 28.0441 16.34 28.0868 16.6394C28.2365 17.6658 28.3648 18.6922 28.5145 19.74C28.5358 19.8256 28.5358 19.8897 28.5358 19.9753C28.5572 20.4885 28.2579 20.8734 27.7661 20.9375C27.2957 21.0017 26.8681 20.7023 26.7826 20.2105C26.6971 19.7186 26.6543 19.2268 26.5688 18.735C26.5474 18.5853 26.526 18.4356 26.4832 18.2218C24.0244 21.1514 21.3304 23.7602 18.4225 26.1979C20.8386 27.9728 23.2761 29.5766 26.0342 30.6244C26.9109 30.9665 27.8516 31.159 28.771 31.3514C29.1987 31.437 29.6904 31.3942 30.1394 31.3087C30.8664 31.1803 31.3795 30.7313 31.4864 29.9829C31.572 29.4055 31.572 28.8067 31.4864 28.2294C31.2299 26.5615 30.4815 25.0432 29.6904 23.5463C29.5621 23.2897 29.4125 23.0545 29.2842 22.7979C29.0704 22.3275 29.2414 21.857 29.6904 21.6432C30.0967 21.4293 30.5884 21.579 30.845 21.9853C31.9141 23.8029 32.8335 25.6847 33.2397 27.7803C33.4321 28.7212 33.4963 29.6621 33.1969 30.603C33.0687 31.0307 32.8335 31.4156 32.641 31.8219C32.4486 32.0143 32.2348 32.2282 32.0424 32.4206C31.0588 32.998 30.0111 33.2332 28.8779 33.1263C27.5951 33.0194 26.3977 32.6558 25.2217 32.1854C22.6346 31.1376 20.3041 29.6835 18.059 28.0583C17.7169 27.8017 17.3535 27.5665 17.0755 27.3527C15.6002 28.3363 14.2318 29.2986 12.7993 30.1967C10.9605 31.33 9.03616 32.2923 6.91942 32.8483C5.25168 33.2973 3.58395 33.4043 2.02312 32.4848C1.78792 32.2709 1.55273 32.0357 1.33892 31.8219Z" fill="#53565A"/>
</g>
<defs>
<clipPath id="clip0_3_7040">
<rect width="33.3333" height="33.3373" fill="white" transform="translate(0.333984 0.344971)"/>
</clipPath>
</defs>
</svg>
