<svg width="38" height="38" viewBox="0 0 38 38" fill="none" xmlns="http://www.w3.org/2000/svg">
<g clip-path="url(#clip0_1569_68171)">
<path d="M36.9283 18.9182C37.8068 17.1803 37.443 15.1174 36.0232 13.7847L33.9623 11.8504C33.4869 11.4044 33.1964 10.9009 33.0476 10.2661L32.4029 7.51433C31.9589 5.61834 30.3541 4.27178 28.4097 4.16365L25.5878 4.00668C24.9369 3.97046 24.3906 3.77162 23.8687 3.38101L21.6061 1.68734C20.0473 0.520473 17.9524 0.520324 16.3934 1.68734L14.1308 3.38094C13.6089 3.77162 13.0625 3.97046 12.4116 4.00668L9.58977 4.16365C7.64546 4.27178 6.0407 5.61834 5.59658 7.51433L4.95184 10.2661C4.80318 10.9009 4.51254 11.4044 4.03724 11.8505L1.97634 13.7847C0.556459 15.1173 0.192713 17.1803 1.07117 18.9182L2.34624 21.4405C2.64037 22.0224 2.74131 22.5948 2.6639 23.2422L2.32843 26.0485C2.09739 27.982 3.14476 29.7961 4.93477 30.5628L7.53287 31.6755C8.13212 31.9321 8.57743 32.3058 8.93435 32.8513L10.4813 35.2168C11.547 36.8465 13.5154 37.563 15.3796 36.9996L18.085 36.182C18.7091 35.9933 19.2904 35.9934 19.9143 36.182L22.6198 36.9996C23.0336 37.1253 23.4638 37.1893 23.8963 37.1897C25.3327 37.1896 26.6948 36.4757 27.5181 35.2168L29.0651 32.8513C29.4219 32.3058 29.8672 31.9321 30.4665 31.6754L33.0646 30.5627C34.8546 29.7961 35.902 27.9819 35.6709 26.0485L35.3354 23.242C35.258 22.5948 35.359 22.0222 35.6531 21.4404L36.9283 18.9182ZM34.5935 20.9049C34.1944 21.6943 34.0515 22.505 34.1565 23.3831L34.4919 26.1895C34.6626 27.6171 33.9188 28.9052 32.5972 29.4713L29.9991 30.584C29.186 30.9322 28.5555 31.4613 28.0714 32.2015L26.5243 34.5669C25.7375 35.7701 24.3396 36.2788 22.9634 35.8629L20.258 35.0453C19.8346 34.9174 19.4173 34.8534 18.9997 34.8534C18.5823 34.8534 18.1648 34.9174 17.7415 35.0453L15.0361 35.8629C13.6599 36.2788 12.2621 35.7701 11.4752 34.5669L9.92821 32.2015C9.44401 31.4612 8.81337 30.9321 8.00038 30.584L5.40228 29.4713C4.08059 28.9053 3.33692 27.6171 3.50754 26.1895L3.84301 23.3831C3.94803 22.5049 3.80509 21.6943 3.40601 20.9048L2.13094 18.3825C1.48241 17.0993 1.74062 15.6345 2.78896 14.6505L4.84986 12.7163C5.49475 12.1111 5.90629 11.3982 6.10802 10.537L6.75276 7.78515C7.08066 6.38531 8.22014 5.42915 9.65568 5.34937L12.4775 5.19239C13.3607 5.14326 14.1342 4.86168 14.8423 4.33168L17.1049 2.63801C18.2559 1.77648 19.7435 1.7764 20.8945 2.63801L23.1571 4.33168C23.8652 4.86168 24.6388 5.14326 25.5219 5.19239L28.3437 5.34937C29.7793 5.42923 30.9188 6.38531 31.2467 7.78523L31.8914 10.537C32.0931 11.3983 32.5047 12.1111 33.1496 12.7163L35.2105 14.6505C36.2588 15.6345 36.517 17.0993 35.8685 18.3825L34.5935 20.9049ZM18.9998 6.8618C12.3068 6.8618 6.86164 12.3069 6.86164 19C6.86164 25.693 12.3068 31.1382 18.9998 31.1382C25.6929 31.1382 31.138 25.693 31.138 19C31.138 12.3069 25.6929 6.8618 18.9998 6.8618ZM18.9998 29.9507C12.9616 29.9507 8.04914 25.0382 8.04914 19C8.04914 12.9618 12.9616 8.0493 18.9998 8.0493C25.038 8.0493 29.9505 12.9618 29.9505 19C29.9505 25.0382 25.038 29.9507 18.9998 29.9507ZM24.0536 13.4981H24.0448C23.4515 13.5004 22.895 13.7336 22.4782 14.1548L17.5544 19.1276L15.521 17.094C15.101 16.6741 14.5426 16.4428 13.9486 16.4428C13.3544 16.4428 12.7961 16.6741 12.3761 17.0941C11.5091 17.9611 11.5091 19.3719 12.3761 20.2388L15.9876 23.8504C16.4212 24.2838 16.9906 24.5006 17.56 24.5006C18.1295 24.5006 18.699 24.2839 19.1325 23.8504C20.5018 22.4811 21.8834 21.0797 23.2195 19.7245C24.0221 18.9098 24.8256 18.0961 25.6301 17.2834C26.4912 16.4144 26.4867 15.0063 25.6201 14.1445C25.2008 13.7274 24.6448 13.4981 24.0536 13.4981ZM24.7867 16.4474C23.9814 17.2609 23.1771 18.0753 22.3738 18.8907C21.0392 20.2445 19.6591 21.6443 18.2928 23.0106C17.8888 23.4147 17.2313 23.4147 16.8274 23.0106L13.2159 19.399C12.8119 18.9951 12.8119 18.3376 13.2159 17.9336C13.3119 17.8371 13.4261 17.7606 13.5518 17.7085C13.6776 17.6564 13.8124 17.6298 13.9486 17.6302C14.2253 17.6302 14.4856 17.738 14.6813 17.9336L17.1366 20.3891C17.248 20.5004 17.399 20.5629 17.5565 20.5629H17.558C17.6362 20.5628 17.7136 20.5471 17.7858 20.5169C17.8579 20.4867 17.9234 20.4426 17.9784 20.387L23.322 14.9902C23.417 14.8937 23.5303 14.8171 23.6551 14.7648C23.78 14.7125 23.914 14.6856 24.0494 14.6855H24.0535C24.3288 14.6855 24.5876 14.7922 24.7828 14.9863C25.1859 15.3874 25.1877 16.0427 24.7867 16.4474Z" fill="#53565A"/>
</g>
<defs>
<clipPath id="clip0_1569_68171">
<rect width="38" height="38" fill="white"/>
</clipPath>
</defs>
</svg>
