<svg width="23" height="39" viewBox="0 0 23 39" fill="none" xmlns="http://www.w3.org/2000/svg">
<path d="M20.8171 29.0429C21.5244 24.8013 22.1925 20.7947 22.1938 18.2996C22.2144 17.1333 21.7341 15.1268 20.2434 15.1024C16.7346 14.5732 13.8988 13.9422 13.0111 13.7367L12.5731 12.6004C13.666 11.9487 13.9691 10.516 14.1151 9.34337C15.4265 8.81816 16.0718 7.49628 16.1378 6.14438C16.2566 3.71328 14.7173 2.52866 13.6953 2.15762C13.0575 0.93598 12.2217 0.225373 11.2083 0.0443125C9.84787 -0.198904 8.59934 0.618038 8.04016 1.06105C7.0369 0.665722 5.22272 0.507513 3.62257 2.07566C2.05816 3.60862 2.42036 5.84274 2.55838 6.45859C2.41845 7.05029 2.02327 9.17594 3.13698 10.6525C3.76852 11.4899 4.74786 11.9556 6.04994 12.0427C6.288 13.0205 6.53414 13.9963 6.78835 14.9699C6.2502 15.43 5.42663 16.0157 4.562 16.6306C2.7204 17.9404 0.816025 19.2948 0.28008 20.356C-0.156308 21.2199 -0.0833356 22.7191 0.503111 24.9393C0.914744 26.4977 1.42791 27.8175 1.44955 27.8728C1.45092 27.8763 1.45297 27.8794 1.45442 27.8829C1.69307 28.5083 2.38882 28.8529 3.26998 28.8528C3.70256 28.8528 4.17962 28.7698 4.66849 28.5965C5.48261 28.3079 6.14759 27.8235 6.49997 27.2734C6.53478 27.2964 6.56821 27.3202 6.60432 27.3425C6.61582 27.3495 6.62801 27.3561 6.63982 27.363C6.77556 28.3718 6.80161 29.4511 6.7166 30.5718C6.63144 31.6942 6.25317 32.7824 5.62262 33.719C4.859 34.8533 4.20849 35.991 3.68915 37.1006C3.59335 37.3038 3.55066 37.528 3.56508 37.7522C3.57949 37.9765 3.65054 38.1934 3.77157 38.3826C3.8915 38.5722 4.05757 38.7283 4.25424 38.8363C4.45091 38.9442 4.67174 39.0005 4.89609 38.9999H20.4824C20.8732 38.9999 21.2429 38.8296 21.4967 38.5326C21.6217 38.3865 21.7135 38.2151 21.7658 38.0302C21.8181 37.8453 21.8296 37.6512 21.7996 37.4613C21.691 36.7733 21.4595 35.7095 20.973 34.5494C20.4725 33.3557 20.3185 32.0544 20.5277 30.7861C20.6233 30.2052 20.7203 29.6229 20.8171 29.0429ZM20.9119 20.4737C20.117 20.5233 19.7348 18.8263 19.67 18.2932C19.5111 16.9874 19.8472 16.4963 19.954 16.3768C20.2513 16.0443 20.5736 16.4391 20.7203 16.7144C20.9345 17.117 21.055 17.684 21.0514 18.2721L20.9119 20.4737ZM11.0112 1.16983C11.7012 1.2949 12.2955 1.86931 12.7776 2.87722C12.9571 3.25274 13.8054 3.45955 14.1074 3.7228C14.7469 4.28023 15.0459 5.07622 14.9965 6.08877C14.9458 7.12623 14.5543 7.69288 14.1815 7.9997C14.1542 6.92583 13.9342 5.87603 13.5215 4.98878C13.1273 4.14129 12.3787 3.97059 11.6547 3.80552C11.0553 3.6688 10.3783 3.51333 9.62606 2.98127L8.88864 1.8508C9.34948 1.51184 10.1859 1.02038 11.0112 1.16983ZM4.05135 9.96752C3.57291 9.33567 3.48432 8.49344 3.52744 7.72654C3.55006 7.32481 3.80782 6.70417 3.697 6.30632C3.69113 6.28507 3.12091 4.16673 4.42207 2.89177C5.85563 1.48693 7.32491 1.99172 7.73738 2.17712L8.56986 3.45323C8.31461 3.97539 7.73212 4.41261 7.11977 4.87223C6.11888 5.62344 4.98453 6.47489 5.18143 7.94561C5.27269 8.62705 5.50524 9.72407 5.77001 10.8657C4.9961 10.7534 4.4191 10.4533 4.05135 9.96752ZM4.28657 27.5196C3.27706 27.8775 2.58146 27.6466 2.51968 27.4732C2.3422 26.9752 3.57276 26.4291 3.8597 26.3274C4.11411 26.2372 5.89958 25.9135 5.58933 26.5665C5.4494 26.8606 4.99237 27.2694 4.28657 27.5196ZM19.9191 34.9911C20.3615 36.0462 20.572 37.0136 20.6708 37.6394C20.6752 37.7696 20.6122 37.8422 20.4822 37.8574H4.89586C4.75632 37.8574 4.66499 37.7107 4.72379 37.5849C5.21815 36.5285 5.8394 35.4426 6.5702 34.357C7.88743 32.4006 8.05585 30.0298 7.83236 27.7405C9.67191 27.986 11.7823 27.2504 12.8032 25.6414C13.135 25.8588 13.5954 26.1156 14.152 26.311C15.2405 26.6932 16.9156 26.9104 18.715 25.7749C19.3383 25.3816 18.7284 24.4152 18.1054 24.8086C15.4137 26.5069 13.0873 24.4468 12.9909 24.3595C12.7012 24.0935 12.2204 24.203 12.0743 24.5682C11.2244 26.6922 7.97587 27.3978 6.48267 25.606C6.14721 24.9083 6.51032 24.0969 6.2419 23.4492L5.59474 21.8852C5.31306 21.2042 4.25724 21.6412 4.53907 22.3221L5.1323 23.7558C5.09383 24.2156 5.09757 24.6301 5.14312 25.0056C4.055 24.9143 2.83008 25.3494 2.03851 26.1041C1.89888 25.6741 1.74646 25.173 1.60768 24.6475C0.921066 22.0482 1.16367 21.1406 1.29979 20.8711C1.70838 20.062 3.65777 18.6756 5.22409 17.5617C6.26894 16.8186 7.25582 16.1167 7.8236 15.5751C7.89761 15.5045 7.95131 15.4153 7.97908 15.3169C8.00686 15.2184 8.00769 15.1143 7.98151 15.0154C7.97351 14.985 6.41732 8.56641 6.31388 7.79388C6.24662 7.29168 6.3135 6.90587 7.8057 5.78591C8.42109 5.32401 9.05225 4.85022 9.44873 4.22119C10.0297 4.54987 10.642 4.72804 11.2839 4.89234C11.6883 4.99586 12.2821 5.03319 12.4855 5.47056C13.2259 7.06225 13.2235 9.37513 12.4798 11.0951C11.9638 12.2888 10.5702 11.6566 9.72333 11.317C9.03946 11.0425 8.61404 12.1031 9.29798 12.3774C10.0027 12.6601 10.6999 13.0149 11.4828 12.9487L12.0534 14.4291C12.0866 14.5152 12.1401 14.592 12.2094 14.6529C12.2787 14.7138 12.3618 14.757 12.4514 14.7788C12.4811 14.786 15.1579 15.4338 18.8196 16.0348C18.518 16.6246 18.4167 17.4529 18.5357 18.4311C18.6826 19.6386 19.3511 21.5294 20.8011 21.6146C20.5454 23.7246 20.1253 26.2447 19.69 28.855C19.3364 30.9753 19.0596 32.941 19.9191 34.9911Z" fill="#53565A"/>
</svg>
