<svg width="57" height="62" viewBox="0 0 57 62" fill="none" xmlns="http://www.w3.org/2000/svg">
<path d="M51.0551 9.73768C52.1804 11.2435 53.1469 12.8617 53.939 14.5665C56.6736 20.4324 57.1921 27.09 55.3985 33.3085C55.1667 34.1007 54.8752 34.8743 54.5265 35.6225C53.6787 37.485 50.8926 43.7887 50.6477 46.8417L50.651 60.4013C50.651 60.6926 50.5353 60.9719 50.3293 61.1779C50.1233 61.3838 49.844 61.4995 49.5527 61.4995C49.2615 61.4995 48.9822 61.3838 48.7762 61.1779C48.5702 60.9719 48.4545 60.6926 48.4545 60.4013V46.7528C48.8861 42.2106 52.0083 36.3824 53.2834 32.7177C56.0651 20.8285 51.6992 14.7147 49.2271 11.0181C48.7455 10.298 47.4542 8.80988 46.4964 7.95089C38.2939 0.490765 27.1789 2.44228 27.0691 2.46425C10.3972 5.95545 8.60824 21.505 8.41935 24.5866C8.78395 25.0588 2.40117 37.0688 2.19141 37.7431L6.21415 37.7716C6.79649 37.7722 7.35482 38.0038 7.76661 38.4156C8.17839 38.8274 8.40998 39.3857 8.41056 39.9681V50.255C8.40998 51.1968 8.78301 52.1003 9.44782 52.7674C10.1126 53.4345 11.0149 53.8106 11.9567 53.8132H19.0731C22.6113 53.8132 28.66 52.1786 28.7752 47.601C28.7934 46.8793 30.3888 47.529 30.3888 49.4014C30.2736 53.9789 23.3315 56.0085 19.0731 56.0085H11.9567C10.4329 56.0053 8.97266 55.3979 7.89613 54.3195C6.81961 53.2411 6.21472 51.7798 6.21415 50.2561V39.9681H2.20569C1.82908 39.9648 1.45947 39.866 1.13143 39.681C0.803402 39.4959 0.527678 39.2307 0.330067 38.9101C0.132456 38.5895 0.0194185 38.224 0.00153487 37.8478C-0.0163488 37.4716 0.0615061 37.097 0.227812 36.7591L6.1208 24.8655C6.63366 21.0481 8.01411 4.35975 26.643 0.310659C27.1614 0.21182 38.9441 -1.88576 47.9746 6.32555C49.0014 7.29323 50.6127 9.14574 51.0551 9.73768Z" fill="#53565A"/>
<path d="M50.6758 22.704C51.0207 17.9246 48.1807 15.9028 46.0106 15.302C45.9527 13.7115 45.3555 12.188 44.3172 10.9817C43.1893 9.69971 41.6401 8.86343 39.9495 8.62395C38.2589 8.38448 36.5384 8.75761 35.0988 9.67592C28.9104 3.89386 19.7755 8.13184 19.2418 14.7299C15.4925 15.7292 14.4712 19.5906 14.4712 21.6124C15.1598 26.8947 18.7366 28.2565 20.5882 28.3663C20.6457 29.8234 21.1761 31.2222 22.0993 32.351C23.0224 33.4798 24.2881 34.2773 25.7048 34.6228H29.5134C32.5104 34.5196 32.8552 38.3304 32.7267 39.3451C32.7086 39.6323 32.8039 39.9151 32.9921 40.1327C33.1803 40.3503 33.4465 40.4854 33.7332 40.5088C34.02 40.5323 34.3045 40.4423 34.5256 40.2581C34.7467 40.074 34.8867 39.8104 34.9154 39.5241C35.1581 37.398 34.1599 32.4209 29.5463 32.4264H25.8783C24.8748 32.0567 24.0234 31.3627 23.4588 30.4544C22.8943 29.5461 22.6489 28.4755 22.7616 27.412C22.8901 26.775 23.8466 23.1575 28.7534 23.2871C29.0429 23.2882 29.3216 23.177 29.5309 22.977C29.7402 22.7769 29.8638 22.5035 29.8758 22.2142C29.8825 21.9231 29.7734 21.6412 29.5724 21.4305C29.3714 21.2198 29.095 21.0976 28.8039 21.0907C23.8444 20.982 21.5524 24.0141 20.8144 26.2084C19.6262 26.1249 17.3463 25.4396 16.6698 21.5333C16.6896 20.9908 16.907 18.1255 19.1957 17.0746C19.3582 18.5571 19.3813 19.4028 20.7288 19.2907C21.0114 19.2213 21.2549 19.0427 21.406 18.794C21.5571 18.5453 21.6034 18.2469 21.5349 17.9641C21.0894 15.9104 21.4516 13.7639 22.5463 11.9701C23.7181 10.337 25.7586 9.36953 28.6128 9.09717C29.1652 9.15208 32.5367 9.57379 33.9578 11.7625C34.043 11.8919 34.1544 12.0019 34.2849 12.0855C34.4154 12.169 34.562 12.2241 34.7151 12.2473C34.8683 12.2705 35.0246 12.2613 35.174 12.2201C35.3233 12.179 35.4624 12.1069 35.5821 12.0085C36.5977 11.1425 37.9113 10.7071 39.2431 10.7951C40.575 10.8831 41.8199 11.4875 42.7127 12.4797C43.1678 13.0095 43.4921 13.6388 43.6594 14.317C43.8267 14.9951 43.8323 15.7031 43.6758 16.3838L42.5227 19.1359C42.423 19.4018 42.4301 19.696 42.5426 19.9568C42.6551 20.2176 42.8643 20.4246 43.1262 20.5344C43.3881 20.6443 43.6824 20.6484 43.9472 20.5459C44.2121 20.4434 44.427 20.2423 44.5467 19.9848L45.5988 17.4776C48.6958 18.1058 51.0701 25.3803 43.5375 26.1644C43.5843 25.3144 43.3686 24.4706 42.9197 23.7473C42.4709 23.024 41.8105 22.4562 41.0281 22.1208C40.7644 22.0053 40.4659 21.998 40.1969 22.1004C39.9279 22.2027 39.7098 22.4066 39.5896 22.6682C39.4694 22.9297 39.4567 23.228 39.5542 23.4989C39.6517 23.7697 39.8517 23.9914 40.1111 24.1163C40.1682 24.1437 41.5124 24.795 41.3564 25.9986C41.2944 26.3716 41.1282 26.7194 40.877 27.002C40.6258 27.2846 40.2998 27.4904 39.9367 27.5957C39.5735 27.7009 39.188 27.7014 38.8246 27.597C38.4612 27.4926 38.1347 27.2876 37.8828 27.0057C37.6642 26.8131 37.3781 26.7153 37.0874 26.7338C36.7967 26.7522 36.5252 26.8853 36.3327 27.1039C36.1402 27.3225 36.0424 27.6087 36.0608 27.8994C36.0792 28.1901 36.2124 28.4615 36.431 28.6541C37.2252 29.4224 38.2783 29.8656 39.383 29.8961C39.9836 29.8942 40.5764 29.7599 41.1192 29.5029C41.6621 29.2459 42.1417 28.8725 42.5238 28.4092C50.1718 28.3586 50.6725 22.7622 50.6758 22.704Z" fill="#53565A"/>
<path d="M33.1143 22.5045C32.9852 22.5732 32.871 22.667 32.7786 22.7804C32.6862 22.8938 32.6174 23.0245 32.5762 23.1649C32.535 23.3052 32.5223 23.4524 32.5388 23.5978C32.5552 23.7431 32.6006 23.8837 32.6721 24.0113C32.7437 24.1389 32.84 24.2509 32.9554 24.3407C33.0708 24.4306 33.2031 24.4965 33.3443 24.5345C33.4855 24.5726 33.6329 24.582 33.7779 24.5623C33.9228 24.5426 34.0624 24.4942 34.1883 24.4198C35.0313 24.0364 35.7158 23.3732 36.1257 22.5428C36.5356 21.7123 36.6458 20.7657 36.4375 19.8633C36.2595 19.1292 35.8836 18.4578 35.3508 17.9223C34.818 17.3867 34.1485 17.0075 33.4152 16.8258C32.682 16.6441 31.9129 16.6669 31.1917 16.8916C30.4704 17.1164 29.8246 17.5346 29.3244 18.1007C29.131 18.3111 29.0272 18.5886 29.0351 18.8742C29.043 19.1599 29.1619 19.4312 29.3666 19.6306C29.5712 19.83 29.8456 19.9418 30.1314 19.9422C30.4171 19.9426 30.6918 19.8316 30.897 19.6327C31.191 19.325 31.5656 19.106 31.978 19.0008C32.3904 18.8956 32.8241 18.9083 33.2296 19.0375C34.5002 19.7217 35.0307 21.4437 33.1143 22.5045Z" fill="#53565A"/>
</svg>
