<svg width="235" height="881" viewBox="0 0 235 881" fill="none" xmlns="http://www.w3.org/2000/svg">
<path d="M19.27 518.495C14.9225 518.495 11.3975 522.019 11.3975 526.248C11.3975 530.476 15.04 534.118 19.27 534.118C23.6175 534.118 27.025 530.476 27.025 526.248C27.1425 522.019 23.6175 518.495 19.27 518.495Z" fill="#E6E6E6"/>
<path d="M19.27 552.56C15.04 552.56 11.6325 555.967 11.6325 560.195C11.6325 564.424 15.04 567.831 19.27 567.831C23.5 567.831 26.9075 564.424 26.9075 560.195C26.9075 556.084 23.5 552.56 19.27 552.56Z" fill="#E6E6E6"/>
<path d="M53.11 564.424C55.46 564.424 57.4576 562.545 57.4576 560.195C57.4576 557.846 55.5775 555.849 53.11 555.849C50.76 555.849 48.88 557.729 48.88 560.195C48.9975 562.545 50.8775 564.424 53.11 564.424Z" fill="#F7F7F7"/>
<path d="M19.1525 585.333C14.4525 585.333 10.5751 589.21 10.5751 593.908C10.5751 598.607 14.4525 602.601 19.1525 602.601C23.97 602.601 27.8476 598.724 27.8476 593.908C27.965 589.21 23.97 585.333 19.1525 585.333Z" fill="#E6E6E6"/>
<path d="M53.2275 586.625C49.115 586.625 45.8251 589.797 45.8251 593.908C45.8251 598.02 49.115 601.191 53.2275 601.191C57.2225 601.191 60.5125 598.02 60.5125 593.908C60.5125 589.797 57.2225 586.625 53.2275 586.625Z" fill="#E6E6E6"/>
<path d="M87.185 598.372C89.535 598.372 91.5325 596.493 91.5325 594.026C91.5325 591.677 89.6525 589.68 87.185 589.68C84.835 589.68 82.8375 591.677 82.8375 594.026C82.8375 596.493 84.835 598.372 87.185 598.372Z" fill="#F7F7F7"/>
<path d="M19.1525 619.516C14.5701 619.516 10.8101 623.275 10.8101 627.974C10.8101 632.555 14.5701 636.314 19.1525 636.314C23.7351 636.314 27.6126 632.555 27.6126 627.974C27.6126 623.275 23.8525 619.516 19.1525 619.516Z" fill="#F7F7F7"/>
<path d="M53.2275 620.808C49.35 620.808 46.1775 623.98 46.1775 627.974C46.1775 631.968 49.2325 635.022 53.2275 635.022C56.9875 635.022 60.2775 631.85 60.2775 627.974C60.2775 623.98 57.105 620.808 53.2275 620.808Z" fill="#E6E6E6"/>
<path d="M82.8375 627.856C82.8375 630.206 84.835 632.203 87.185 632.203C89.6525 632.203 91.5325 630.206 91.5325 627.856C91.5325 625.389 89.6525 623.51 87.185 623.51C84.835 623.51 82.8375 625.389 82.8375 627.856Z" fill="#E6E6E6"/>
<path d="M19.27 655.109C15.51 655.109 12.69 658.045 12.69 661.569C12.69 665.211 15.745 668.147 19.27 668.147C22.795 668.147 25.85 665.211 25.85 661.687C25.85 658.045 22.9125 655.109 19.27 655.109Z" fill="#D5D5D5"/>
<path d="M45.59 661.804C45.59 666.033 48.88 669.557 53.2275 669.557C57.4575 669.557 60.9825 666.033 60.9825 661.804C60.9825 657.575 57.4575 654.169 53.2275 654.169C48.9975 654.169 45.59 657.458 45.59 661.804Z" fill="#F7F7F7"/>
<path d="M19.2701 703.857C23.7351 703.857 27.6126 700.098 27.6126 695.517C27.6126 690.936 23.8526 687.177 19.2701 687.177C14.6876 687.177 10.9276 690.818 10.9276 695.517C11.0451 700.216 14.6876 703.857 19.2701 703.857Z" fill="#E6E6E6"/>
<path d="M47.8225 695.635C47.8225 698.689 50.1725 700.921 53.2275 700.921C56.2825 700.921 58.515 698.571 58.515 695.635C58.515 692.58 56.165 690.231 53.2275 690.231C50.29 690.231 47.8225 692.698 47.8225 695.635Z" fill="#D5D5D5"/>
<path d="M80.84 695.635C80.84 699.159 83.895 701.978 87.3026 701.978C90.9451 701.978 93.7651 699.159 93.7651 695.635C93.7651 691.993 90.9451 689.174 87.3026 689.174C83.66 689.174 80.84 692.111 80.84 695.635Z" fill="#F7F7F7"/>
<path d="M19.2701 720.655C14.4525 720.655 10.4576 724.531 10.4576 729.347C10.4576 734.164 14.4525 738.04 19.2701 738.04C24.0875 738.04 27.965 734.164 27.965 729.347C27.965 724.649 24.0875 720.655 19.2701 720.655Z" fill="#E6E6E6"/>
<path d="M48.2925 729.465C48.2925 732.167 50.525 734.516 53.345 734.516C56.0475 734.516 58.3975 732.284 58.3975 729.465C58.3975 726.646 56.165 724.414 53.345 724.414C50.4075 724.531 48.2925 726.763 48.2925 729.465Z" fill="#F7F7F7"/>
<path d="M82.485 729.465C82.485 732.049 84.6 734.164 87.185 734.164C89.77 734.164 91.885 732.049 91.885 729.465C91.885 726.881 89.77 724.766 87.185 724.766C84.6 724.766 82.485 726.763 82.485 729.465Z" fill="#F7F7F7"/>
<path d="M19.27 756.13C15.275 756.13 12.1025 759.302 12.1025 763.295C12.1025 767.289 15.275 770.461 19.27 770.461C23.265 770.461 26.4375 767.289 26.4375 763.295C26.4375 759.302 23.1475 756.13 19.27 756.13Z" fill="#D5D5D5"/>
<path d="M57.34 763.413C57.34 761.063 55.46 759.301 53.2275 759.301C50.8775 759.301 49.115 761.181 49.115 763.413C49.115 765.762 50.995 767.524 53.2275 767.524C55.46 767.407 57.34 765.645 57.34 763.413Z" fill="#E6E6E6"/>
<path d="M83.3075 763.413C83.3075 765.527 84.9525 767.172 87.0675 767.172C89.3 767.172 91.0625 765.527 91.0625 763.413C91.0625 761.181 89.4175 759.419 87.0675 759.419C84.9525 759.302 83.3075 761.181 83.3075 763.413Z" fill="#F7F7F7"/>
<path d="M48.9976 797.243C48.9976 799.593 50.8776 801.589 53.3451 801.589C55.6951 801.589 57.5751 799.71 57.5751 797.243C57.5751 794.894 55.6951 793.014 53.3451 793.014C50.9951 793.014 48.9976 794.776 48.9976 797.243Z" fill="#F7F7F7"/>
<path d="M84.7175 797.126C84.7175 798.653 85.775 799.71 87.185 799.71C88.7125 799.71 89.77 798.653 89.77 797.126C89.77 795.716 88.7125 794.659 87.185 794.659C85.775 794.659 84.7175 795.834 84.7175 797.126Z" fill="#F7F7F7"/>
<path d="M16.215 831.074C16.215 832.718 17.625 834.128 19.27 834.128C20.915 834.128 22.325 832.718 22.325 831.074C22.325 829.429 20.915 828.019 19.27 828.019C17.5075 827.902 16.215 829.312 16.215 831.074Z" fill="#F7F7F7"/>
<path d="M16.6851 864.904C16.6851 866.314 17.7426 867.371 19.1526 867.371C20.5626 867.371 21.6201 866.314 21.6201 864.904C21.6201 863.494 20.4451 862.437 19.1526 862.437C17.8601 862.437 16.6851 863.494 16.6851 864.904Z" fill="#E6E6E6"/>
<path d="M16.4501 797.243C16.4501 798.653 17.625 799.945 19.1525 799.945C20.68 799.945 21.9726 798.77 21.9726 797.243C21.9726 795.716 20.7975 794.424 19.1525 794.424C17.7425 794.541 16.4501 795.716 16.4501 797.243Z" fill="#E6E6E6"/>
<path d="M119.38 695.517C119.38 696.574 120.085 697.162 121.025 697.162C121.965 697.162 122.67 696.457 122.67 695.517C122.67 694.577 121.73 693.873 121.025 693.873C120.203 693.873 119.38 694.695 119.38 695.517Z" fill="#F7F7F7"/>
<path d="M119.615 661.804C119.615 662.744 120.203 663.449 121.143 663.449C122.083 663.449 122.788 662.744 122.788 661.804C122.788 660.864 122.083 660.277 121.143 660.277C120.203 660.277 119.615 660.864 119.615 661.804Z" fill="#F7F7F7"/>
<path d="M85.1875 661.804C85.1875 662.861 85.8925 663.919 87.185 663.919C88.2425 663.919 89.1825 662.861 89.1825 661.804C89.1825 660.747 88.125 659.807 87.185 659.807C86.01 659.69 85.1875 660.512 85.1875 661.804Z" fill="#F7F7F7"/>
<path d="M153.925 627.974C153.925 629.031 154.865 629.971 155.923 629.971C156.98 629.971 158.038 628.913 158.038 627.974C158.038 626.799 156.98 625.977 155.923 625.977C154.748 625.977 153.925 626.682 153.925 627.974Z" fill="#F7F7F7"/>
<path d="M119.263 627.974C119.263 629.031 119.968 629.971 121.26 629.971C122.318 629.971 123.258 628.913 123.258 627.974C123.258 626.799 122.2 625.977 121.26 625.977C119.968 625.977 119.263 626.682 119.263 627.974Z" fill="#D5D5D5"/>
<path d="M153.808 594.026C153.808 595.201 154.865 596.258 155.923 596.258C157.098 596.258 158.155 595.201 158.155 594.026C158.155 592.851 157.098 591.794 155.923 591.794C154.748 591.911 153.808 592.851 153.808 594.026Z" fill="#D5D5D5"/>
<path d="M118.088 594.026C118.088 595.67 119.498 597.08 121.143 597.08C122.788 597.08 124.198 595.905 124.198 594.026C124.198 592.381 122.788 590.972 121.143 590.972C119.498 591.089 118.088 592.381 118.088 594.026Z" fill="#F7F7F7"/>
<path d="M153.925 560.078C153.925 561.253 154.983 562.192 155.923 562.192C157.098 562.192 158.038 561.253 158.038 560.078C158.038 559.021 157.098 558.081 155.923 558.081C154.865 558.081 153.925 559.138 153.925 560.078Z" fill="#F7F7F7"/>
<path d="M117.383 560.078C117.383 562.31 119.028 564.072 121.143 564.072C123.258 564.072 124.903 562.427 124.903 560.078C124.903 558.081 123.258 556.319 121.143 556.319C119.145 556.436 117.383 558.081 117.383 560.078Z" fill="#F7F7F7"/>
<path d="M83.1901 560.078C83.1901 562.31 85.0701 564.307 87.3026 564.307C89.5351 564.307 91.2975 562.31 91.2975 560.078C91.2975 557.846 89.6526 556.084 87.3026 556.084C84.9526 556.084 83.1901 557.964 83.1901 560.078Z" fill="#F7F7F7"/>
<path d="M121.26 522.019C118.91 522.019 116.913 524.016 116.913 526.365C116.913 528.714 118.91 530.711 121.26 530.711C123.728 530.711 125.608 528.714 125.608 526.365C125.608 524.016 123.728 522.019 121.26 522.019Z" fill="#F7F7F7"/>
<path d="M82.1326 526.365C82.1326 529.302 84.365 531.416 87.185 531.416C89.8875 531.416 92.1201 529.184 92.1201 526.365C92.1201 523.546 89.8875 521.314 87.185 521.314C84.365 521.314 82.1326 523.546 82.1326 526.365Z" fill="#F7F7F7"/>
<path d="M85.1875 492.535C85.1875 493.592 86.1275 494.532 87.185 494.532C88.36 494.532 89.1825 493.474 89.1825 492.535C89.1825 491.36 88.4775 490.42 87.185 490.42C86.1275 490.42 85.1875 491.36 85.1875 492.535Z" fill="#F7F7F7"/>
<path d="M49.585 492.535C49.585 494.532 51.23 496.294 53.345 496.294C55.5775 496.294 57.105 494.649 57.105 492.535C57.105 490.42 55.5775 488.776 53.345 488.776C51.23 488.893 49.585 490.42 49.585 492.535Z" fill="#F7F7F7"/>
<path d="M14.6875 492.535C14.6875 495.001 16.8025 496.998 19.27 496.998C21.855 496.998 23.8525 495.001 23.8525 492.535C23.8525 490.068 21.855 487.953 19.27 487.953C16.8025 487.953 14.6875 490.068 14.6875 492.535Z" fill="#F7F7F7"/>
<path d="M119.263 458.587C119.263 459.644 120.203 460.584 121.26 460.584C122.435 460.584 123.258 459.644 123.258 458.587C123.258 457.53 122.553 456.59 121.26 456.59C120.085 456.59 119.263 457.53 119.263 458.587Z" fill="#F7F7F7"/>
<path d="M82.8375 458.587C82.8375 460.936 84.835 462.816 87.0675 462.816C89.535 462.816 91.4151 460.936 91.4151 458.587C91.4151 456.237 89.535 454.358 87.0675 454.358C84.835 454.475 82.8375 456.355 82.8375 458.587Z" fill="#F7F7F7"/>
<path d="M46.6475 458.587C46.6475 462.346 49.7025 465.165 53.2275 465.165C56.7525 465.165 59.8075 462.346 59.8075 458.587C59.8075 454.828 56.7525 452.009 53.2275 452.009C49.585 452.126 46.6475 454.945 46.6475 458.587Z" fill="#D5D5D5"/>
<path d="M12.8075 458.587C12.8075 462.111 15.6275 465.047 19.27 465.047C22.795 465.047 25.7325 461.993 25.7325 458.587C25.7325 455.063 22.6775 452.126 19.27 452.126C15.745 452.244 12.8075 455.18 12.8075 458.587Z" fill="#F7F7F7"/>
<path d="M118.44 424.756C118.44 426.283 119.615 427.458 121.143 427.458C122.67 427.458 123.845 426.283 123.845 424.756C123.845 423.229 122.67 422.055 121.143 422.055C119.733 422.055 118.44 423.229 118.44 424.756Z" fill="#F7F7F7"/>
<path d="M81.78 424.756C81.78 427.811 84.13 430.16 87.0675 430.16C90.1225 430.16 92.4725 427.693 92.4725 424.756C92.4725 421.702 90.1225 419.47 87.0675 419.47C84.2475 419.353 81.78 421.82 81.78 424.756Z" fill="#E6E6E6"/>
<path d="M46.6475 424.639C46.6475 428.398 49.7025 431.335 53.2275 431.335C56.7525 431.335 59.8075 428.28 59.8075 424.639C59.8075 420.997 56.7525 418.178 53.2275 418.178C49.7025 418.178 46.6475 421.115 46.6475 424.639Z" fill="#F7F7F7"/>
<path d="M15.04 424.756C15.04 427.106 16.8025 428.868 19.1525 428.868C21.5025 428.868 23.265 427.106 23.265 424.756C23.265 422.524 21.385 420.645 19.1525 420.645C16.92 420.528 15.04 422.642 15.04 424.756Z" fill="#E6E6E6"/>
<path d="M84.4826 390.926C84.4826 392.453 85.6575 393.628 87.185 393.628C88.7125 393.628 89.8875 392.453 89.8875 390.926C89.8875 389.399 88.7125 388.224 87.185 388.224C85.6575 388.224 84.4826 389.399 84.4826 390.926Z" fill="#F7F7F7"/>
<path d="M58.3975 390.926C58.3975 387.872 56.0475 385.757 53.11 385.757C50.4075 385.757 47.94 387.989 47.94 390.926C47.94 393.745 50.4075 396.212 53.11 396.212C56.165 396.212 58.3975 393.745 58.3975 390.926Z" fill="#E6E6E6"/>
<path d="M11.6325 390.926C11.6325 395.155 15.1575 398.444 19.27 398.444C23.5 398.444 26.79 395.155 26.79 390.926C26.79 386.697 23.5 383.291 19.27 383.291C15.1575 383.291 11.6325 386.697 11.6325 390.926Z" fill="#F7F7F7"/>
<path d="M50.29 356.978C50.29 358.623 51.7 359.915 53.11 359.915C54.755 359.915 56.165 358.74 56.165 356.978C56.165 355.334 54.755 354.041 53.11 354.041C51.7 354.159 50.29 355.451 50.29 356.978Z" fill="white"/>
<path d="M46.4125 526.248C46.4125 530.007 49.4675 533.061 53.11 533.061C56.87 533.061 59.925 530.007 59.925 526.248C59.925 522.489 56.87 519.552 53.11 519.552C49.4675 519.552 46.4125 522.606 46.4125 526.248Z" fill="#E6E6E6"/>
<path d="M218.315 18.4392C218.315 20.0837 219.725 21.3759 221.135 21.3759C222.78 21.3759 224.19 20.2012 224.19 18.4392C224.19 16.7947 222.78 15.3851 221.135 15.3851C219.725 15.5025 218.315 16.7947 218.315 18.4392Z" fill="#D5D5D5"/>
<path d="M80.4875 323.265C80.4875 327.024 83.5425 329.961 87.185 329.961C90.945 329.961 94 326.907 94 323.265C94 319.506 90.945 316.335 87.185 316.335C83.425 316.335 80.4875 319.506 80.4875 323.265Z" fill="white"/>
<path d="M47.705 323.148C47.705 326.202 50.1726 328.551 53.1101 328.551C56.1651 328.551 58.515 326.084 58.515 323.148C58.515 320.094 56.1651 317.627 53.1101 317.627C50.2901 317.627 47.705 320.211 47.705 323.148Z" fill="white"/>
<path d="M19.2701 317.274C15.9801 317.274 13.3951 319.976 13.3951 323.265C13.3951 326.437 15.9801 329.139 19.2701 329.139C22.4426 329.139 25.1451 326.437 25.1451 323.265C25.2626 319.859 22.5601 317.274 19.2701 317.274Z" fill="white"/>
<path d="M82.72 289.2C82.72 291.784 84.7175 293.781 87.185 293.781C89.6525 293.781 91.7675 291.784 91.7675 289.2C91.7675 286.733 89.6525 284.736 87.185 284.736C84.7175 284.736 82.72 286.733 82.72 289.2Z" fill="#D5D5D5"/>
<path d="M44.885 289.2C44.885 293.781 48.645 297.54 53.11 297.54C57.81 297.54 61.57 293.781 61.57 289.2C61.57 284.736 57.81 280.977 53.11 280.977C48.645 280.977 44.885 284.736 44.885 289.2Z" fill="#E6E6E6"/>
<path d="M24.5576 289.2C24.5576 286.263 22.2076 283.914 19.1525 283.914C16.0976 283.914 13.8651 286.263 13.8651 289.2C13.8651 292.254 16.215 294.603 19.1525 294.603C22.09 294.603 24.5576 292.254 24.5576 289.2Z" fill="#D5D5D5"/>
<path d="M82.72 255.369C82.72 257.836 84.7175 259.951 87.185 259.951C89.6525 259.951 91.7675 257.836 91.7675 255.369C91.7675 252.903 89.6525 250.788 87.185 250.788C84.7175 250.906 82.72 253.02 82.72 255.369Z" fill="white"/>
<path d="M46.4125 255.487C46.4125 259.246 49.4675 262.183 53.11 262.183C56.87 262.183 59.925 259.128 59.925 255.487C59.925 251.728 56.87 248.674 53.11 248.674C49.4675 248.674 46.4125 251.845 46.4125 255.487Z" fill="white"/>
<path d="M19.1525 249.849C16.0975 249.849 13.6301 252.315 13.6301 255.369C13.6301 258.424 16.0975 260.89 19.1525 260.89C22.2076 260.89 24.7926 258.424 24.7926 255.369C24.7926 252.315 22.3251 249.849 19.1525 249.849Z" fill="#F7F7F7"/>
<path d="M116.678 221.539C116.678 224.123 118.675 226.12 121.143 226.12C123.61 226.12 125.725 224.123 125.725 221.539C125.725 219.072 123.61 217.075 121.143 217.075C118.675 217.075 116.678 219.072 116.678 221.539Z" fill="#F7F7F7"/>
<path d="M87.185 214.843C83.425 214.843 80.4875 217.898 80.4875 221.539C80.4875 225.298 83.5425 228.352 87.185 228.352C90.945 228.352 94 225.298 94 221.539C94 217.78 90.945 214.843 87.185 214.843Z" fill="#F7F7F7"/>
<path d="M48.175 221.539C48.175 224.358 50.4075 226.59 53.2275 226.59C56.0475 226.59 58.28 224.241 58.28 221.539C58.28 218.72 55.93 216.488 53.2275 216.488C50.29 216.605 48.175 218.72 48.175 221.539Z" fill="#D5D5D5"/>
<path d="M19.27 227.647C22.56 227.647 25.38 224.946 25.38 221.539C25.38 218.133 22.56 215.431 19.27 215.431C15.8625 215.431 13.16 218.133 13.16 221.539C13.16 224.946 15.745 227.647 19.27 227.647Z" fill="#E6E6E6"/>
<path d="M160.388 187.709C160.388 185.242 158.39 183.245 155.923 183.245C153.455 183.245 151.575 185.242 151.575 187.709C151.575 190.058 153.455 192.055 155.923 192.055C158.39 192.172 160.388 190.175 160.388 187.709Z" fill="#F7F7F7"/>
<path d="M129.25 187.709C129.25 183.362 125.608 179.838 121.26 179.838C117.03 179.838 113.388 183.48 113.388 187.709C113.388 191.937 117.148 195.579 121.26 195.579C125.608 195.696 129.25 192.055 129.25 187.709Z" fill="#D5D5D5"/>
<path d="M92.4725 187.709C92.4725 184.772 90.1225 182.54 87.185 182.54C84.2475 182.54 82.0151 184.889 82.0151 187.709C82.0151 190.645 84.365 192.877 87.185 192.877C90.1225 192.995 92.4725 190.645 92.4725 187.709Z" fill="#E6E6E6"/>
<path d="M53.2275 193.582C56.4 193.582 59.1025 190.88 59.1025 187.709C59.1025 184.42 56.4 181.835 53.2275 181.835C49.9375 181.835 47.3525 184.42 47.3525 187.709C47.3525 190.88 49.9375 193.582 53.2275 193.582Z" fill="#E6E6E6"/>
<path d="M19.27 194.992C23.265 194.992 26.4375 191.82 26.4375 187.826C26.4375 183.832 23.265 180.661 19.27 180.661C15.275 180.661 12.1025 183.832 12.1025 187.826C12.1025 191.703 15.275 194.992 19.27 194.992Z" fill="#E6E6E6"/>
<path d="M125.608 153.761C125.608 151.411 123.61 149.415 121.143 149.415C118.675 149.415 116.795 151.411 116.795 153.761C116.795 156.228 118.675 158.225 121.143 158.225C123.61 158.342 125.608 156.345 125.608 153.761Z" fill="#E6E6E6"/>
<path d="M80.84 153.761C80.84 157.402 83.7775 160.221 87.185 160.221C90.945 160.221 93.6475 157.402 93.6475 153.761C93.6475 150.237 90.945 147.418 87.185 147.418C83.66 147.535 80.84 150.237 80.84 153.761Z" fill="#E6E6E6"/>
<path d="M58.3975 153.761C58.3975 150.824 56.0475 148.592 53.11 148.592C50.1725 148.592 47.94 150.942 47.94 153.761C47.94 156.815 50.29 159.047 53.11 159.047C56.165 159.047 58.3975 156.815 58.3975 153.761Z" fill="#E6E6E6"/>
<path d="M19.2701 159.752C22.4426 159.752 25.1451 157.167 25.1451 153.878C25.1451 150.707 22.4426 148.122 19.2701 148.122C15.98 148.122 13.395 150.707 13.395 153.878C13.2775 157.05 15.98 159.752 19.2701 159.752Z" fill="#F7F7F7"/>
<path d="M160.153 119.93C160.153 117.581 158.273 115.702 155.923 115.702C153.69 115.702 151.693 117.581 151.693 119.93C151.693 122.28 153.69 124.159 155.923 124.159C158.273 124.277 160.153 122.397 160.153 119.93Z" fill="#E6E6E6"/>
<path d="M121.143 113.587C117.618 113.587 114.798 116.406 114.798 120.048C114.798 123.572 117.735 126.509 121.143 126.509C124.903 126.509 127.605 123.454 127.605 120.048C127.605 116.406 124.903 113.587 121.143 113.587Z" fill="#F7F7F7"/>
<path d="M82.6026 120.048C82.6026 122.632 84.7175 124.629 87.185 124.629C89.6525 124.629 91.7675 122.515 91.7675 120.048C91.7675 117.581 89.6525 115.467 87.185 115.467C84.7175 115.349 82.6026 117.464 82.6026 120.048Z" fill="#E6E6E6"/>
<path d="M53.2275 125.569C56.2825 125.569 58.7501 123.102 58.7501 120.048C58.7501 116.994 56.2825 114.409 53.2275 114.409C50.1725 114.409 47.705 116.876 47.705 120.048C47.705 123.102 50.1725 125.569 53.2275 125.569Z" fill="#E6E6E6"/>
<path d="M19.1525 126.509C22.9125 126.509 25.7325 123.572 25.7325 120.048C25.7325 116.406 22.6775 113.47 19.1525 113.47C15.6275 113.47 12.69 116.524 12.69 120.048C12.69 123.689 15.6275 126.509 19.1525 126.509Z" fill="#E6E6E6"/>
<path d="M192.583 86.1C192.583 84.1031 190.938 82.3411 188.823 82.3411C186.825 82.3411 185.063 83.9856 185.063 86.1C185.063 88.2144 186.708 89.8589 188.823 89.8589C190.938 89.8589 192.583 88.2144 192.583 86.1Z" fill="#F7F7F7"/>
<path d="M162.503 86.1C162.503 82.4585 159.448 79.5219 155.805 79.5219C152.28 79.5219 149.343 82.576 149.343 86.1C149.343 89.8589 152.398 92.6781 155.805 92.6781C159.565 92.6781 162.503 89.8589 162.503 86.1Z" fill="#E6E6E6"/>
<path d="M125.96 86.1C125.96 83.5157 123.845 81.4013 121.26 81.4013C118.675 81.4013 116.56 83.5157 116.56 86.1C116.56 88.6843 118.675 90.7987 121.26 90.7987C123.845 90.7987 125.96 88.6843 125.96 86.1Z" fill="#E6E6E6"/>
<path d="M92.355 86.1C92.355 83.2808 90.0051 80.9315 87.3026 80.9315C84.3651 80.9315 82.1326 83.2808 82.1326 86.1C82.1326 89.0367 84.4826 91.2685 87.3026 91.2685C90.1226 91.386 92.355 89.0367 92.355 86.1Z" fill="#E6E6E6"/>
<path d="M53.1101 92.5607C56.7526 92.5607 59.5725 89.7415 59.5725 86.1C59.5725 82.576 56.7526 79.7568 53.1101 79.7568C49.5851 79.7568 46.765 82.576 46.765 86.1C46.8825 89.7415 49.5851 92.5607 53.1101 92.5607Z" fill="#E6E6E6"/>
<path d="M19.1525 93.8528C23.5 93.8528 26.9075 90.4463 26.9075 86.1C26.9075 81.8712 23.5 78.4647 19.1525 78.4647C14.9225 78.4647 11.515 81.8712 11.515 86.1C11.6325 90.4463 15.04 93.8528 19.1525 93.8528Z" fill="#E6E6E6"/>
<path d="M192.583 52.2696C192.583 50.1552 190.938 48.5107 188.823 48.5107C186.825 48.5107 185.063 50.1552 185.063 52.2696C185.063 54.2665 186.708 56.0285 188.823 56.0285C190.938 56.0285 192.583 54.2665 192.583 52.2696Z" fill="#E6E6E6"/>
<path d="M162.503 52.2696C162.503 48.5107 159.448 45.6915 155.805 45.6915C152.28 45.6915 149.343 48.5107 149.343 52.2696C149.343 55.9111 152.398 58.8477 155.805 58.8477C159.565 58.8477 162.503 55.9111 162.503 52.2696Z" fill="#F7F7F7"/>
<path d="M127.723 52.2696C127.723 48.5107 124.668 45.6915 121.143 45.6915C117.618 45.6915 114.563 48.5107 114.563 52.2696C114.563 55.9111 117.618 58.8477 121.143 58.8477C124.903 58.8477 127.723 55.9111 127.723 52.2696Z" fill="#E6E6E6"/>
<path d="M96.4675 52.2696C96.4675 47.1011 92.3551 42.9897 87.3026 42.9897C82.1325 42.9897 77.9025 47.1011 77.9025 52.2696C77.9025 57.3207 82.1325 61.5495 87.3026 61.5495C92.3551 61.5495 96.4675 57.4381 96.4675 52.2696Z" fill="#F7F7F7"/>
<path d="M53.11 63.6639C59.5725 63.6639 64.625 58.6128 64.625 52.2696C64.625 45.9264 59.5725 40.7579 53.11 40.7579C46.765 40.7579 41.7125 45.9264 41.7125 52.2696C41.7125 58.6128 46.8825 63.6639 53.11 63.6639Z" fill="#E6E6E6"/>
<path d="M19.2701 61.1971C24.3225 61.1971 28.2001 57.2032 28.2001 52.2696C28.2001 47.2185 24.205 43.3421 19.2701 43.3421C14.2175 43.3421 10.34 47.336 10.34 52.2696C10.34 57.2032 14.335 61.1971 19.2701 61.1971Z" fill="#E6E6E6"/>
<path d="M188.705 14.0929C186.473 14.0929 184.475 15.9724 184.475 18.3217C184.475 20.6711 186.473 22.5505 188.705 22.5505C191.173 22.5505 193.053 20.6711 193.053 18.3217C193.17 16.0899 191.29 14.0929 188.705 14.0929Z" fill="#E6E6E6"/>
<path d="M162.15 18.3217C162.15 14.7977 159.213 12.096 155.805 12.096C152.515 12.096 149.578 14.7977 149.578 18.3217C149.578 21.8457 152.515 24.6649 155.805 24.6649C159.448 24.6649 162.15 21.8457 162.15 18.3217Z" fill="#D5D5D5"/>
<path d="M129.838 18.3217C129.838 13.6231 126.078 9.86412 121.378 9.86412C116.678 9.86412 112.683 13.6231 112.683 18.3217C112.683 23.1379 116.678 27.0143 121.378 27.0143C126.078 27.0143 129.838 23.2553 129.838 18.3217Z" fill="#F7F7F7"/>
<path d="M95.88 18.3217C95.88 13.6231 91.885 9.86412 87.185 9.86412C82.485 9.86412 78.4901 13.6231 78.4901 18.3217C78.4901 23.1379 82.485 27.0143 87.185 27.0143C91.885 27.0143 95.88 23.2553 95.88 18.3217Z" fill="#E6E6E6"/>
<path d="M53.1101 10.0991C48.5275 10.0991 44.7675 13.858 44.7675 18.4392C44.7675 23.0204 48.5275 26.8968 53.1101 26.8968C57.6925 26.8968 61.5701 23.1379 61.5701 18.4392C61.5701 13.858 57.8101 10.0991 53.1101 10.0991Z" fill="#F7F7F7"/>
<path d="M19.1525 27.6016C24.205 27.6016 28.3175 23.4903 28.3175 18.4392C28.3175 13.3881 24.205 9.27679 19.1525 9.27679C14.1 9.27679 9.98755 13.3881 9.98755 18.4392C10.105 23.6077 14.2175 27.6016 19.1525 27.6016Z" fill="#E6E6E6"/>
</svg>
