<svg width="72" height="122" viewBox="0 0 72 122" fill="none" xmlns="http://www.w3.org/2000/svg">
<g clip-path="url(#clip0_776_27354)">
<path d="M58.46 116.427C58.46 116.977 57.986 117.41 57.512 117.41C56.959 117.41 56.485 117.017 56.485 116.427C56.485 115.876 56.959 115.443 57.512 115.443C57.986 115.483 58.46 115.915 58.46 116.427Z" fill="white"/>
<path d="M1.9751 3.068C1.9751 3.61867 1.5011 4.05133 1.0271 4.05133C0.4741 4.05133 9.77709e-05 3.658 9.77203e-05 3.068C9.7673e-05 2.51733 0.4741 2.04533 1.0271 2.04533C1.5011 2.08467 1.9751 2.51733 1.9751 3.068Z" fill="#D5D5D5"/>
<path d="M48.3086 105.138C48.3086 106.397 47.2816 107.38 46.0571 107.38C44.7931 107.38 43.7661 106.357 43.7661 105.138C43.7661 103.879 44.7931 102.817 46.0571 102.817C47.3211 102.817 48.3086 103.879 48.3086 105.138Z" fill="white"/>
<path d="M59.3291 105.099C59.3291 106.121 58.4996 106.908 57.5121 106.908C56.4851 106.908 55.6951 106.082 55.6951 105.099C55.6951 104.076 56.4851 103.25 57.5121 103.25C58.4601 103.25 59.3291 104.115 59.3291 105.099Z" fill="white"/>
<path d="M68.888 103.132C69.994 103.132 70.863 104.037 70.863 105.138C70.863 106.2 69.994 107.105 68.888 107.105C67.8215 107.105 66.913 106.2 66.913 105.138C66.8735 103.997 67.782 103.132 68.888 103.132Z" fill="white"/>
<path d="M47.5581 93.7313C47.5581 94.5967 46.8866 95.2653 46.0571 95.2653C45.2276 95.2653 44.5166 94.5967 44.5166 93.7313C44.5166 92.9053 45.2276 92.2367 46.0571 92.2367C46.8866 92.2367 47.5581 92.9053 47.5581 93.7313Z" fill="#D5D5D5"/>
<path d="M60.2771 93.7313C60.2771 95.2653 59.0131 96.524 57.5121 96.524C55.9321 96.524 54.6681 95.2653 54.6681 93.7313C54.6681 92.2367 55.9321 90.978 57.5121 90.978C59.0131 90.978 60.2771 92.2367 60.2771 93.7313Z" fill="#E6E6E6"/>
<path d="M67.1106 93.7313C67.1106 92.748 67.9006 91.9613 68.9276 91.9613C69.9546 91.9613 70.7051 92.748 70.7051 93.7313C70.7051 94.754 69.9151 95.5407 68.9276 95.5407C67.9401 95.5407 67.1106 94.754 67.1106 93.7313Z" fill="#D5D5D5"/>
<path d="M47.5581 82.4033C47.5581 83.2293 46.8866 83.9373 46.0571 83.9373C45.2276 83.9373 44.5166 83.2293 44.5166 82.4033C44.5166 81.5773 45.2276 80.8693 46.0571 80.8693C46.8866 80.9087 47.5581 81.6167 47.5581 82.4033Z" fill="white"/>
<path d="M59.7637 82.4427C59.7637 83.7013 58.7367 84.6847 57.5122 84.6847C56.2482 84.6847 55.2212 83.662 55.2212 82.4427C55.2212 81.184 56.2482 80.1613 57.5122 80.1613C58.7367 80.1613 59.7637 81.2233 59.7637 82.4427Z" fill="white"/>
<path d="M68.9274 80.5547C69.9544 80.5547 70.7839 81.3807 70.7839 82.4033C70.7839 83.426 69.9544 84.252 68.9274 84.252C67.9004 84.252 67.0314 83.426 67.0314 82.4033C67.0314 81.3807 67.8609 80.5547 68.9274 80.5547Z" fill="#F7F7F7"/>
<path d="M36.1426 71.0753C36.1426 71.9407 35.4711 72.6093 34.6416 72.6093C33.8121 72.6093 33.1011 71.9407 33.1011 71.0753C33.1011 70.2493 33.8121 69.5807 34.6416 69.5807C35.4711 69.5807 36.1426 70.2493 36.1426 71.0753Z" fill="#F7F7F7"/>
<path d="M46.0571 68.8333C47.3211 68.8333 48.3086 69.856 48.3086 71.0753C48.3086 72.334 47.2816 73.3567 46.0571 73.3567C44.7931 73.3567 43.7661 72.334 43.7661 71.0753C43.7661 69.8167 44.7931 68.8333 46.0571 68.8333Z" fill="#F7F7F7"/>
<path d="M59.1711 71.0753C59.1711 72.0193 58.4206 72.7667 57.4726 72.7667C56.5246 72.7667 55.7741 71.98 55.7741 71.0753C55.7741 70.1313 56.5641 69.384 57.4726 69.384C58.4601 69.4233 59.1711 70.1313 59.1711 71.0753Z" fill="#D5D5D5"/>
<path d="M68.8881 73.1207C67.7821 73.1207 66.8341 72.216 66.8341 71.0753C66.8341 69.9347 67.7821 69.03 68.8881 69.03C70.0336 69.03 70.9421 69.9347 70.9421 71.0753C70.9421 72.216 70.0731 73.1207 68.8881 73.1207Z" fill="#E6E6E6"/>
<path d="M21.4486 59.7473C21.4486 58.9213 22.1201 58.2527 22.9496 58.2527C23.7791 58.2527 24.4111 58.9213 24.4111 59.7473C24.4111 60.534 23.7791 61.2027 22.9496 61.2027C22.1201 61.242 21.4486 60.5733 21.4486 59.7473Z" fill="#F7F7F7"/>
<path d="M31.916 59.7473C31.916 58.292 33.1405 57.112 34.602 57.112C36.024 57.112 37.2485 58.3313 37.2485 59.7473C37.2485 61.1633 35.9845 62.3827 34.602 62.3827C33.1405 62.422 31.916 61.2027 31.916 59.7473Z" fill="#D5D5D5"/>
<path d="M44.2797 59.7473C44.2797 58.764 45.0697 58.0167 46.0572 58.0167C47.0447 58.0167 47.7952 58.8033 47.7952 59.7473C47.7952 60.7307 47.0052 61.478 46.0572 61.478C45.0697 61.5173 44.2797 60.7307 44.2797 59.7473Z" fill="#E6E6E6"/>
<path d="M57.4725 61.714C56.406 61.714 55.4975 60.8093 55.4975 59.7473C55.4975 58.646 56.406 57.7807 57.4725 57.7807C58.5785 57.7807 59.4475 58.646 59.4475 59.7473C59.4475 60.8093 58.5785 61.714 57.4725 61.714Z" fill="#E6E6E6"/>
<path d="M68.8881 62.186C67.5451 62.186 66.4786 61.124 66.4786 59.7867C66.4786 58.4493 67.5451 57.3873 68.8881 57.3873C70.2311 57.3873 71.2976 58.4493 71.2976 59.7867C71.2976 61.0847 70.2311 62.186 68.8881 62.186Z" fill="#E6E6E6"/>
<path d="M33.1405 48.38C33.1405 47.5933 33.812 46.9247 34.6415 46.9247C35.471 46.9247 36.103 47.5933 36.103 48.38C36.103 49.206 35.471 49.8747 34.6415 49.8747C33.812 49.914 33.1405 49.2453 33.1405 48.38Z" fill="#E6E6E6"/>
<path d="M48.1899 48.38C48.1899 49.5993 47.2024 50.5433 46.0569 50.5433C44.7929 50.5433 43.8844 49.5993 43.8844 48.38C43.8844 47.2 44.7929 46.256 46.0569 46.256C47.2419 46.2953 48.1899 47.2 48.1899 48.38Z" fill="#E6E6E6"/>
<path d="M55.7345 48.38C55.7345 47.3967 56.5245 46.6493 57.512 46.6493C58.4995 46.6493 59.25 47.436 59.25 48.38C59.25 49.4027 58.46 50.15 57.512 50.15C56.485 50.15 55.7345 49.4027 55.7345 48.38Z" fill="#E6E6E6"/>
<path d="M68.888 50.386C67.8215 50.386 66.913 49.5207 66.913 48.4193C66.913 47.3573 67.8215 46.492 68.888 46.492C69.994 46.492 70.863 47.3573 70.863 48.4193C70.9025 49.4813 69.994 50.386 68.888 50.386Z" fill="#F7F7F7"/>
<path d="M21.5276 37.052C21.5276 36.2653 22.1596 35.636 22.9496 35.636C23.7001 35.636 24.3716 36.2653 24.3716 37.052C24.3716 37.8387 23.7001 38.468 22.9496 38.468C22.1596 38.5073 21.5276 37.878 21.5276 37.052Z" fill="#E6E6E6"/>
<path d="M34.6417 34.928C35.8267 34.928 36.7747 35.872 36.7747 37.0913C36.7747 38.2713 35.7872 39.2547 34.6417 39.2547C33.3777 39.2547 32.4692 38.232 32.4692 37.0913C32.4692 35.872 33.3777 34.928 34.6417 34.928Z" fill="#F7F7F7"/>
<path d="M47.5977 37.0913C47.5977 37.9567 46.8867 38.6253 46.0572 38.6253C45.2277 38.6253 44.5167 37.9173 44.5167 37.0913C44.5167 36.2653 45.2277 35.5573 46.0572 35.5573C46.8867 35.518 47.5977 36.226 47.5977 37.0913Z" fill="#E6E6E6"/>
<path d="M57.4726 38.94C56.4456 38.94 55.6161 38.114 55.6161 37.0913C55.6161 36.0687 56.4456 35.2033 57.4726 35.2033C58.4996 35.2033 59.3291 36.0293 59.3291 37.0913C59.3291 38.114 58.4996 38.94 57.4726 38.94Z" fill="#E6E6E6"/>
<path d="M68.9276 39.2547C67.6636 39.2547 66.7156 38.2713 66.7156 37.0913C66.7156 35.872 67.7426 34.8887 68.9276 34.8887C70.1126 34.8887 71.1001 35.9113 71.1001 37.0913C71.1001 38.3107 70.1126 39.2547 68.9276 39.2547Z" fill="#E6E6E6"/>
<path d="M10.6256 25.724C10.6256 25.0553 11.1786 24.4653 11.8896 24.4653C12.5611 24.4653 13.1536 25.016 13.1536 25.724C13.1536 26.432 12.6006 26.9827 11.8896 26.9827C11.1786 26.9827 10.6256 26.432 10.6256 25.724Z" fill="#F7F7F7"/>
<path d="M20.7376 25.724C20.7376 24.5047 21.7646 23.5213 22.9891 23.5213C24.1741 23.5213 25.1616 24.544 25.1616 25.724C25.1616 26.9827 24.1346 27.9267 22.9891 27.9267C21.7251 27.9267 20.7376 26.9827 20.7376 25.724Z" fill="#E6E6E6"/>
<path d="M33.0221 25.724C33.0221 24.8587 33.7331 24.1507 34.6021 24.1507C35.4711 24.1507 36.1821 24.8587 36.1821 25.724C36.1821 26.5893 35.4711 27.2973 34.6021 27.2973C33.7331 27.2973 33.0221 26.5893 33.0221 25.724Z" fill="#E6E6E6"/>
<path d="M44.3191 25.724C44.3191 24.78 45.1091 23.9933 46.0176 23.9933C47.0051 23.9933 47.7556 24.78 47.7556 25.724C47.7556 26.7073 46.9656 27.4547 46.0176 27.4547C45.0696 27.494 44.3191 26.7073 44.3191 25.724Z" fill="#E6E6E6"/>
<path d="M57.512 27.8873C56.2875 27.8873 55.3395 26.9433 55.3395 25.724C55.3395 24.544 56.2875 23.6 57.512 23.6C58.697 23.6 59.645 24.544 59.645 25.724C59.6055 26.9433 58.697 27.8873 57.512 27.8873Z" fill="#E6E6E6"/>
<path d="M68.9276 28.32C67.4661 28.32 66.3206 27.1793 66.3206 25.724C66.3206 24.308 67.4661 23.1673 68.9276 23.1673C70.3496 23.1673 71.4951 24.308 71.4951 25.724C71.4556 27.1793 70.3101 28.32 68.9276 28.32Z" fill="#E6E6E6"/>
<path d="M10.6256 14.396C10.6256 13.688 11.1786 13.1373 11.8896 13.1373C12.5611 13.1373 13.1536 13.688 13.1536 14.396C13.1536 15.0647 12.6006 15.6547 11.8896 15.6547C11.1786 15.6547 10.6256 15.0647 10.6256 14.396Z" fill="#E6E6E6"/>
<path d="M20.7376 14.396C20.7376 13.1373 21.7646 12.1933 22.9891 12.1933C24.1741 12.1933 25.1616 13.1373 25.1616 14.396C25.1616 15.6153 24.1346 16.5987 22.9891 16.5987C21.7251 16.5987 20.7376 15.6153 20.7376 14.396Z" fill="#F7F7F7"/>
<path d="M32.4295 14.396C32.4295 13.1373 33.4565 12.1933 34.6415 12.1933C35.8265 12.1933 36.8535 13.1373 36.8535 14.396C36.8535 15.6153 35.8265 16.5987 34.6415 16.5987C33.3775 16.5987 32.4295 15.6153 32.4295 14.396Z" fill="#E6E6E6"/>
<path d="M42.9365 14.396C42.9365 12.6653 44.319 11.2887 46.0175 11.2887C47.7555 11.2887 49.1775 12.6653 49.1775 14.396C49.1775 16.0873 47.7555 17.5033 46.0175 17.5033C44.319 17.5033 42.9365 16.1267 42.9365 14.396Z" fill="#F7F7F7"/>
<path d="M57.512 18.2113C55.3395 18.2113 53.641 16.52 53.641 14.396C53.641 12.272 55.3395 10.5413 57.512 10.5413C59.645 10.5413 61.3435 12.272 61.3435 14.396C61.3435 16.52 59.6055 18.2113 57.512 18.2113Z" fill="#E6E6E6"/>
<path d="M68.8881 17.3853C67.1896 17.3853 65.8861 16.048 65.8861 14.396C65.8861 12.7047 67.2291 11.4067 68.8881 11.4067C70.5866 11.4067 71.8901 12.744 71.8901 14.396C71.8901 16.048 70.5471 17.3853 68.8881 17.3853Z" fill="#E6E6E6"/>
<path d="M11.9291 1.61267C12.6796 1.61267 13.3511 2.242 13.3511 3.02867C13.3511 3.81534 12.6796 4.44467 11.9291 4.44467C11.0996 4.44467 10.4676 3.81534 10.4676 3.02867C10.4281 2.28134 11.0601 1.61267 11.9291 1.61267Z" fill="#E6E6E6"/>
<path d="M20.856 3.02867C20.856 1.84867 21.8435 0.944001 22.989 0.944C24.095 0.944 25.0825 1.84867 25.0825 3.02867C25.0825 4.20867 24.095 5.15267 22.989 5.15267C21.7645 5.15267 20.856 4.20867 20.856 3.02867Z" fill="#D5D5D5"/>
<path d="M31.7186 3.02867C31.7186 1.45534 32.9826 0.196671 34.5626 0.196671C36.1426 0.196671 37.4856 1.45534 37.4856 3.02867C37.4856 4.64134 36.1426 5.93934 34.5626 5.93934C32.9826 5.93934 31.7186 4.68067 31.7186 3.02867Z" fill="#F7F7F7"/>
<path d="M43.134 3.02867C43.134 1.45534 44.477 0.196671 46.057 0.196671C47.637 0.196671 48.98 1.45534 48.98 3.02867C48.98 4.64134 47.637 5.93934 46.057 5.93934C44.477 5.93934 43.134 4.68067 43.134 3.02867Z" fill="#E6E6E6"/>
<path d="M57.5121 0.27533C59.0526 0.27533 60.3167 1.534 60.3167 3.068C60.3167 4.602 59.0527 5.9 57.5122 5.9C55.9717 5.9 54.6681 4.64133 54.6681 3.068C54.6681 1.534 55.9321 0.27533 57.5121 0.27533Z" fill="#F7F7F7"/>
<path d="M68.9275 6.136C67.229 6.136 65.8465 4.75933 65.8465 3.068C65.8465 1.37667 67.229 4.25216e-07 68.9275 2.74106e-07C70.626 1.22996e-07 72.0085 1.37667 72.0085 3.068C71.969 4.79867 70.5865 6.136 68.9275 6.136Z" fill="#E6E6E6"/>
</g>
<defs>
<clipPath id="clip0_776_27354">
<rect width="72" height="122" fill="white"/>
</clipPath>
</defs>
</svg>
