<svg width="260" height="975" viewBox="0 0 260 975" fill="none" xmlns="http://www.w3.org/2000/svg">
<path d="M238.68 398.97C243.49 398.97 247.39 395.07 247.39 390.39C247.39 385.71 243.36 381.68 238.68 381.68C233.87 381.68 230.1 385.71 230.1 390.39C229.97 395.07 233.87 398.97 238.68 398.97Z" fill="#E6E6E6"/>
<path d="M238.68 361.27C243.36 361.27 247.13 357.5 247.13 352.82C247.13 348.14 243.36 344.37 238.68 344.37C234 344.37 230.23 348.14 230.23 352.82C230.23 357.37 234 361.27 238.68 361.27Z" fill="#E6E6E6"/>
<path d="M201.24 348.14C198.64 348.14 196.43 350.22 196.43 352.82C196.43 355.42 198.51 357.63 201.24 357.63C203.84 357.63 205.92 355.55 205.92 352.82C205.79 350.22 203.71 348.14 201.24 348.14Z" fill="#F7F7F7"/>
<path d="M238.81 325C244.01 325 248.3 320.71 248.3 315.51C248.3 310.31 244.01 305.89 238.81 305.89C233.48 305.89 229.19 310.18 229.19 315.51C229.06 320.71 233.48 325 238.81 325Z" fill="#E6E6E6"/>
<path d="M201.11 323.57C205.66 323.57 209.3 320.06 209.3 315.51C209.3 310.96 205.66 307.45 201.11 307.45C196.69 307.45 193.05 310.96 193.05 315.51C193.05 320.06 196.69 323.57 201.11 323.57Z" fill="#E6E6E6"/>
<path d="M163.54 310.57C160.94 310.57 158.73 312.65 158.73 315.38C158.73 317.98 160.81 320.19 163.54 320.19C166.14 320.19 168.35 317.98 168.35 315.38C168.35 312.65 166.14 310.57 163.54 310.57Z" fill="#F7F7F7"/>
<path d="M238.81 287.17C243.88 287.17 248.04 283.01 248.04 277.81C248.04 272.74 243.88 268.58 238.81 268.58C233.74 268.58 229.45 272.74 229.45 277.81C229.45 283.01 233.61 287.17 238.81 287.17Z" fill="#F7F7F7"/>
<path d="M201.11 285.74C205.4 285.74 208.91 282.23 208.91 277.81C208.91 273.39 205.53 270.01 201.11 270.01C196.95 270.01 193.31 273.52 193.31 277.81C193.31 282.23 196.82 285.74 201.11 285.74Z" fill="#E6E6E6"/>
<path d="M168.35 277.94C168.35 275.34 166.14 273.13 163.54 273.13C160.81 273.13 158.73 275.34 158.73 277.94C158.73 280.67 160.81 282.75 163.54 282.75C166.14 282.75 168.35 280.67 168.35 277.94Z" fill="#E6E6E6"/>
<path d="M238.68 247.78C242.84 247.78 245.96 244.53 245.96 240.63C245.96 236.6 242.58 233.35 238.68 233.35C234.78 233.35 231.4 236.6 231.4 240.5C231.4 244.53 234.65 247.78 238.68 247.78Z" fill="#D5D5D5"/>
<path d="M209.56 240.37C209.56 235.69 205.92 231.79 201.11 231.79C196.43 231.79 192.53 235.69 192.53 240.37C192.53 245.05 196.43 248.82 201.11 248.82C205.79 248.82 209.56 245.18 209.56 240.37Z" fill="#F7F7F7"/>
<path d="M238.68 193.83C233.74 193.83 229.45 197.99 229.45 203.06C229.45 208.13 233.61 212.29 238.68 212.29C243.75 212.29 247.91 208.26 247.91 203.06C247.78 197.86 243.75 193.83 238.68 193.83Z" fill="#E6E6E6"/>
<path d="M207.09 202.93C207.09 199.55 204.49 197.08 201.11 197.08C197.73 197.08 195.26 199.68 195.26 202.93C195.26 206.31 197.86 208.91 201.11 208.91C204.36 208.91 207.09 206.18 207.09 202.93Z" fill="#D5D5D5"/>
<path d="M170.56 202.93C170.56 199.03 167.18 195.91 163.41 195.91C159.38 195.91 156.26 199.03 156.26 202.93C156.26 206.96 159.38 210.08 163.41 210.08C167.44 210.08 170.56 206.83 170.56 202.93Z" fill="#F7F7F7"/>
<path d="M238.68 175.24C244.01 175.24 248.43 170.95 248.43 165.62C248.43 160.29 244.01 156 238.68 156C233.35 156 229.06 160.29 229.06 165.62C229.06 170.82 233.35 175.24 238.68 175.24Z" fill="#E6E6E6"/>
<path d="M206.57 165.49C206.57 162.5 204.1 159.9 200.98 159.9C197.99 159.9 195.39 162.37 195.39 165.49C195.39 168.61 197.86 171.08 200.98 171.08C204.23 170.95 206.57 168.48 206.57 165.49Z" fill="#F7F7F7"/>
<path d="M168.74 165.49C168.74 162.63 166.4 160.29 163.54 160.29C160.68 160.29 158.34 162.63 158.34 165.49C158.34 168.35 160.68 170.69 163.54 170.69C166.4 170.69 168.74 168.48 168.74 165.49Z" fill="#F7F7F7"/>
<path d="M238.68 135.98C243.1 135.98 246.61 132.47 246.61 128.05C246.61 123.63 243.1 120.12 238.68 120.12C234.26 120.12 230.75 123.63 230.75 128.05C230.75 132.47 234.39 135.98 238.68 135.98Z" fill="#D5D5D5"/>
<path d="M196.56 127.92C196.56 130.52 198.64 132.47 201.11 132.47C203.71 132.47 205.66 130.39 205.66 127.92C205.66 125.32 203.58 123.37 201.11 123.37C198.64 123.5 196.56 125.45 196.56 127.92Z" fill="#E6E6E6"/>
<path d="M167.83 127.92C167.83 125.58 166.01 123.76 163.67 123.76C161.2 123.76 159.25 125.58 159.25 127.92C159.25 130.39 161.07 132.34 163.67 132.34C166.01 132.47 167.83 130.39 167.83 127.92Z" fill="#F7F7F7"/>
<path d="M205.79 90.48C205.79 87.88 203.71 85.67 200.98 85.67C198.38 85.67 196.3 87.75 196.3 90.48C196.3 93.08 198.38 95.16 200.98 95.16C203.58 95.16 205.79 93.21 205.79 90.48Z" fill="#F7F7F7"/>
<path d="M166.27 90.61C166.27 88.92 165.1 87.75 163.54 87.75C161.85 87.75 160.68 88.92 160.68 90.61C160.68 92.17 161.85 93.34 163.54 93.34C165.1 93.34 166.27 92.04 166.27 90.61Z" fill="#F7F7F7"/>
<path d="M242.06 53.0399C242.06 51.2199 240.5 49.66 238.68 49.66C236.86 49.66 235.3 51.2199 235.3 53.0399C235.3 54.8599 236.86 56.42 238.68 56.42C240.63 56.55 242.06 54.9899 242.06 53.0399Z" fill="#F7F7F7"/>
<path d="M241.54 15.6C241.54 14.04 240.37 12.87 238.81 12.87C237.25 12.87 236.08 14.04 236.08 15.6C236.08 17.16 237.38 18.33 238.81 18.33C240.24 18.33 241.54 17.16 241.54 15.6Z" fill="#E6E6E6"/>
<path d="M241.8 90.4799C241.8 88.9199 240.5 87.49 238.81 87.49C237.12 87.49 235.69 88.7899 235.69 90.4799C235.69 92.1699 236.99 93.6 238.81 93.6C240.37 93.47 241.8 92.1699 241.8 90.4799Z" fill="#E6E6E6"/>
<path d="M127.92 203.06C127.92 201.89 127.14 201.24 126.1 201.24C125.06 201.24 124.28 202.02 124.28 203.06C124.28 204.1 125.32 204.88 126.1 204.88C127.01 204.88 127.92 203.97 127.92 203.06Z" fill="#F7F7F7"/>
<path d="M127.66 240.37C127.66 239.33 127.01 238.55 125.97 238.55C124.93 238.55 124.15 239.33 124.15 240.37C124.15 241.41 124.93 242.06 125.97 242.06C127.01 242.06 127.66 241.41 127.66 240.37Z" fill="#F7F7F7"/>
<path d="M165.75 240.37C165.75 239.2 164.97 238.03 163.54 238.03C162.37 238.03 161.33 239.2 161.33 240.37C161.33 241.54 162.5 242.58 163.54 242.58C164.84 242.71 165.75 241.8 165.75 240.37Z" fill="#F7F7F7"/>
<path d="M89.7 277.81C89.7 276.64 88.66 275.6 87.49 275.6C86.32 275.6 85.15 276.77 85.15 277.81C85.15 279.11 86.32 280.02 87.49 280.02C88.79 280.02 89.7 279.24 89.7 277.81Z" fill="#F7F7F7"/>
<path d="M128.05 277.81C128.05 276.64 127.27 275.6 125.84 275.6C124.67 275.6 123.63 276.77 123.63 277.81C123.63 279.11 124.8 280.02 125.84 280.02C127.27 280.02 128.05 279.24 128.05 277.81Z" fill="#D5D5D5"/>
<path d="M89.8301 315.38C89.8301 314.08 88.6601 312.91 87.4901 312.91C86.1901 312.91 85.0201 314.08 85.0201 315.38C85.0201 316.68 86.1901 317.85 87.4901 317.85C88.7901 317.72 89.8301 316.68 89.8301 315.38Z" fill="#D5D5D5"/>
<path d="M129.35 315.38C129.35 313.56 127.79 312 125.97 312C124.15 312 122.59 313.3 122.59 315.38C122.59 317.2 124.15 318.76 125.97 318.76C127.79 318.63 129.35 317.2 129.35 315.38Z" fill="#F7F7F7"/>
<path d="M89.7 352.95C89.7 351.65 88.53 350.61 87.49 350.61C86.19 350.61 85.15 351.65 85.15 352.95C85.15 354.12 86.19 355.16 87.49 355.16C88.66 355.16 89.7 353.99 89.7 352.95Z" fill="#F7F7F7"/>
<path d="M130.13 352.95C130.13 350.48 128.31 348.53 125.97 348.53C123.63 348.53 121.81 350.35 121.81 352.95C121.81 355.16 123.63 357.11 125.97 357.11C128.18 356.98 130.13 355.16 130.13 352.95Z" fill="#F7F7F7"/>
<path d="M167.96 352.95C167.96 350.48 165.88 348.27 163.41 348.27C160.94 348.27 158.99 350.48 158.99 352.95C158.99 355.42 160.81 357.37 163.41 357.37C166.01 357.37 167.96 355.29 167.96 352.95Z" fill="#F7F7F7"/>
<path d="M125.84 395.07C128.44 395.07 130.65 392.86 130.65 390.26C130.65 387.66 128.44 385.45 125.84 385.45C123.11 385.45 121.03 387.66 121.03 390.26C121.03 392.86 123.11 395.07 125.84 395.07Z" fill="#F7F7F7"/>
<path d="M169.13 390.26C169.13 387.01 166.66 384.67 163.54 384.67C160.55 384.67 158.08 387.14 158.08 390.26C158.08 393.38 160.55 395.85 163.54 395.85C166.66 395.85 169.13 393.38 169.13 390.26Z" fill="#F7F7F7"/>
<path d="M165.75 427.7C165.75 426.53 164.71 425.49 163.54 425.49C162.24 425.49 161.33 426.66 161.33 427.7C161.33 429 162.11 430.04 163.54 430.04C164.71 430.04 165.75 429 165.75 427.7Z" fill="#F7F7F7"/>
<path d="M205.14 427.7C205.14 425.49 203.32 423.54 200.98 423.54C198.51 423.54 196.82 425.36 196.82 427.7C196.82 430.04 198.51 431.86 200.98 431.86C203.32 431.73 205.14 430.04 205.14 427.7Z" fill="#F7F7F7"/>
<path d="M243.75 427.7C243.75 424.97 241.41 422.76 238.68 422.76C235.82 422.76 233.61 424.97 233.61 427.7C233.61 430.43 235.82 432.77 238.68 432.77C241.41 432.77 243.75 430.43 243.75 427.7Z" fill="#F7F7F7"/>
<path d="M128.05 465.27C128.05 464.1 127.01 463.06 125.84 463.06C124.54 463.06 123.63 464.1 123.63 465.27C123.63 466.44 124.41 467.48 125.84 467.48C127.14 467.48 128.05 466.44 128.05 465.27Z" fill="#F7F7F7"/>
<path d="M168.35 465.27C168.35 462.67 166.14 460.59 163.67 460.59C160.94 460.59 158.86 462.67 158.86 465.27C158.86 467.87 160.94 469.95 163.67 469.95C166.14 469.82 168.35 467.74 168.35 465.27Z" fill="#F7F7F7"/>
<path d="M208.39 465.27C208.39 461.11 205.01 457.99 201.11 457.99C197.21 457.99 193.83 461.11 193.83 465.27C193.83 469.43 197.21 472.55 201.11 472.55C205.14 472.42 208.39 469.3 208.39 465.27Z" fill="#D5D5D5"/>
<path d="M245.83 465.27C245.83 461.37 242.71 458.12 238.68 458.12C234.78 458.12 231.53 461.5 231.53 465.27C231.53 469.17 234.91 472.42 238.68 472.42C242.58 472.29 245.83 469.04 245.83 465.27Z" fill="#F7F7F7"/>
<path d="M128.96 502.71C128.96 501.02 127.66 499.72 125.97 499.72C124.28 499.72 122.98 501.02 122.98 502.71C122.98 504.4 124.28 505.7 125.97 505.7C127.53 505.7 128.96 504.4 128.96 502.71Z" fill="#F7F7F7"/>
<path d="M169.52 502.71C169.52 499.33 166.92 496.73 163.67 496.73C160.29 496.73 157.69 499.46 157.69 502.71C157.69 506.09 160.29 508.56 163.67 508.56C166.79 508.69 169.52 505.96 169.52 502.71Z" fill="#E6E6E6"/>
<path d="M208.39 502.84C208.39 498.68 205.01 495.43 201.11 495.43C197.21 495.43 193.83 498.81 193.83 502.84C193.83 506.87 197.21 509.99 201.11 509.99C205.01 509.99 208.39 506.74 208.39 502.84Z" fill="#F7F7F7"/>
<path d="M243.36 502.71C243.36 500.11 241.41 498.16 238.81 498.16C236.21 498.16 234.26 500.11 234.26 502.71C234.26 505.18 236.34 507.26 238.81 507.26C241.28 507.39 243.36 505.05 243.36 502.71Z" fill="#E6E6E6"/>
<path d="M166.53 540.15C166.53 538.46 165.23 537.16 163.54 537.16C161.85 537.16 160.55 538.46 160.55 540.15C160.55 541.84 161.85 543.14 163.54 543.14C165.23 543.14 166.53 541.84 166.53 540.15Z" fill="#F7F7F7"/>
<path d="M195.39 540.15C195.39 543.53 197.99 545.87 201.24 545.87C204.23 545.87 206.96 543.4 206.96 540.15C206.96 537.03 204.23 534.3 201.24 534.3C197.86 534.3 195.39 537.03 195.39 540.15Z" fill="#E6E6E6"/>
<path d="M247.13 540.15C247.13 535.47 243.23 531.83 238.68 531.83C234 531.83 230.36 535.47 230.36 540.15C230.36 544.83 234 548.6 238.68 548.6C243.23 548.6 247.13 544.83 247.13 540.15Z" fill="#F7F7F7"/>
<path d="M204.36 577.72C204.36 575.9 202.8 574.47 201.24 574.47C199.42 574.47 197.86 575.77 197.86 577.72C197.86 579.54 199.42 580.97 201.24 580.97C202.8 580.84 204.36 579.41 204.36 577.72Z" fill="white"/>
<path d="M208.65 390.39C208.65 386.23 205.27 382.85 201.24 382.85C197.08 382.85 193.7 386.23 193.7 390.39C193.7 394.55 197.08 397.8 201.24 397.8C205.27 397.8 208.65 394.42 208.65 390.39Z" fill="#E6E6E6"/>
<path d="M18.46 952.38C18.46 950.56 16.9 949.13 15.34 949.13C13.52 949.13 11.96 950.43 11.96 952.38C11.96 954.2 13.52 955.76 15.34 955.76C16.9 955.63 18.46 954.2 18.46 952.38Z" fill="#D5D5D5"/>
<path d="M170.95 615.03C170.95 610.87 167.57 607.62 163.54 607.62C159.38 607.62 156 611 156 615.03C156 619.19 159.38 622.7 163.54 622.7C167.7 622.7 170.95 619.19 170.95 615.03Z" fill="white"/>
<path d="M207.22 615.16C207.22 611.78 204.49 609.18 201.24 609.18C197.86 609.18 195.26 611.91 195.26 615.16C195.26 618.54 197.86 621.27 201.24 621.27C204.36 621.27 207.22 618.41 207.22 615.16Z" fill="white"/>
<path d="M238.68 621.66C242.32 621.66 245.18 618.67 245.18 615.03C245.18 611.52 242.32 608.53 238.68 608.53C235.17 608.53 232.18 611.52 232.18 615.03C232.05 618.8 235.04 621.66 238.68 621.66Z" fill="white"/>
<path d="M168.48 652.73C168.48 649.87 166.27 647.66 163.54 647.66C160.81 647.66 158.47 649.87 158.47 652.73C158.47 655.46 160.81 657.67 163.54 657.67C166.27 657.67 168.48 655.46 168.48 652.73Z" fill="#D5D5D5"/>
<path d="M210.34 652.73C210.34 647.66 206.18 643.5 201.24 643.5C196.04 643.5 191.88 647.66 191.88 652.73C191.88 657.67 196.04 661.83 201.24 661.83C206.18 661.83 210.34 657.67 210.34 652.73Z" fill="#E6E6E6"/>
<path d="M232.83 652.73C232.83 655.98 235.43 658.58 238.81 658.58C242.19 658.58 244.66 655.98 244.66 652.73C244.66 649.35 242.06 646.75 238.81 646.75C235.56 646.75 232.83 649.35 232.83 652.73Z" fill="#D5D5D5"/>
<path d="M168.48 690.17C168.48 687.44 166.27 685.1 163.54 685.1C160.81 685.1 158.47 687.44 158.47 690.17C158.47 692.9 160.81 695.24 163.54 695.24C166.27 695.11 168.48 692.77 168.48 690.17Z" fill="white"/>
<path d="M208.65 690.04C208.65 685.88 205.27 682.63 201.24 682.63C197.08 682.63 193.7 686.01 193.7 690.04C193.7 694.2 197.08 697.58 201.24 697.58C205.27 697.58 208.65 694.07 208.65 690.04Z" fill="white"/>
<path d="M238.81 696.28C242.19 696.28 244.92 693.55 244.92 690.17C244.92 686.79 242.19 684.06 238.81 684.06C235.43 684.06 232.57 686.79 232.57 690.17C232.57 693.55 235.3 696.28 238.81 696.28Z" fill="#F7F7F7"/>
<path d="M130.91 727.61C130.91 724.75 128.7 722.54 125.97 722.54C123.24 722.54 120.9 724.75 120.9 727.61C120.9 730.34 123.24 732.55 125.97 732.55C128.7 732.55 130.91 730.34 130.91 727.61Z" fill="#F7F7F7"/>
<path d="M163.54 735.02C167.7 735.02 170.95 731.64 170.95 727.61C170.95 723.45 167.57 720.07 163.54 720.07C159.38 720.07 156 723.45 156 727.61C156 731.77 159.38 735.02 163.54 735.02Z" fill="#F7F7F7"/>
<path d="M206.7 727.61C206.7 724.49 204.23 722.02 201.11 722.02C197.99 722.02 195.52 724.62 195.52 727.61C195.52 730.73 198.12 733.2 201.11 733.2C204.36 733.07 206.7 730.73 206.7 727.61Z" fill="#D5D5D5"/>
<path d="M238.68 720.85C235.04 720.85 231.92 723.84 231.92 727.61C231.92 731.38 235.04 734.37 238.68 734.37C242.45 734.37 245.44 731.38 245.44 727.61C245.44 723.84 242.58 720.85 238.68 720.85Z" fill="#E6E6E6"/>
<path d="M82.55 765.05C82.55 767.78 84.7601 769.99 87.4901 769.99C90.2201 769.99 92.3 767.78 92.3 765.05C92.3 762.45 90.2201 760.24 87.4901 760.24C84.7601 760.11 82.55 762.32 82.55 765.05Z" fill="#F7F7F7"/>
<path d="M117 765.05C117 769.86 121.03 773.76 125.84 773.76C130.52 773.76 134.55 769.73 134.55 765.05C134.55 760.37 130.39 756.34 125.84 756.34C121.03 756.21 117 760.24 117 765.05Z" fill="#D5D5D5"/>
<path d="M157.69 765.05C157.69 768.3 160.29 770.77 163.54 770.77C166.79 770.77 169.26 768.17 169.26 765.05C169.26 761.8 166.66 759.33 163.54 759.33C160.29 759.2 157.69 761.8 157.69 765.05Z" fill="#E6E6E6"/>
<path d="M201.11 758.55C197.6 758.55 194.61 761.54 194.61 765.05C194.61 768.69 197.6 771.55 201.11 771.55C204.75 771.55 207.61 768.69 207.61 765.05C207.61 761.54 204.75 758.55 201.11 758.55Z" fill="#E6E6E6"/>
<path d="M238.68 756.99C234.26 756.99 230.75 760.5 230.75 764.92C230.75 769.34 234.26 772.85 238.68 772.85C243.1 772.85 246.61 769.34 246.61 764.92C246.61 760.63 243.1 756.99 238.68 756.99Z" fill="#E6E6E6"/>
<path d="M121.03 802.62C121.03 805.22 123.24 807.43 125.97 807.43C128.7 807.43 130.78 805.22 130.78 802.62C130.78 799.89 128.7 797.68 125.97 797.68C123.24 797.55 121.03 799.76 121.03 802.62Z" fill="#E6E6E6"/>
<path d="M170.56 802.62C170.56 798.59 167.31 795.47 163.54 795.47C159.38 795.47 156.39 798.59 156.39 802.62C156.39 806.52 159.38 809.64 163.54 809.64C167.44 809.51 170.56 806.52 170.56 802.62Z" fill="#E6E6E6"/>
<path d="M195.39 802.62C195.39 805.87 197.99 808.34 201.24 808.34C204.49 808.34 206.96 805.74 206.96 802.62C206.96 799.24 204.36 796.77 201.24 796.77C197.86 796.77 195.39 799.24 195.39 802.62Z" fill="#E6E6E6"/>
<path d="M238.68 795.99C235.17 795.99 232.18 798.85 232.18 802.49C232.18 806 235.17 808.86 238.68 808.86C242.32 808.86 245.18 806 245.18 802.49C245.31 798.98 242.32 795.99 238.68 795.99Z" fill="#F7F7F7"/>
<path d="M82.8099 840.06C82.8099 842.66 84.8899 844.74 87.4899 844.74C89.9599 844.74 92.1699 842.66 92.1699 840.06C92.1699 837.46 89.9599 835.38 87.4899 835.38C84.8899 835.25 82.8099 837.33 82.8099 840.06Z" fill="#E6E6E6"/>
<path d="M125.97 847.08C129.87 847.08 132.99 843.96 132.99 839.93C132.99 836.03 129.74 832.78 125.97 832.78C121.81 832.78 118.82 836.16 118.82 839.93C118.82 843.96 121.81 847.08 125.97 847.08Z" fill="#F7F7F7"/>
<path d="M168.61 839.93C168.61 837.07 166.27 834.86 163.54 834.86C160.81 834.86 158.47 837.2 158.47 839.93C158.47 842.66 160.81 845 163.54 845C166.27 845.13 168.61 842.79 168.61 839.93Z" fill="#E6E6E6"/>
<path d="M201.11 833.82C197.73 833.82 195 836.55 195 839.93C195 843.31 197.73 846.17 201.11 846.17C204.49 846.17 207.22 843.44 207.22 839.93C207.22 836.55 204.49 833.82 201.11 833.82Z" fill="#E6E6E6"/>
<path d="M238.81 832.78C234.65 832.78 231.53 836.03 231.53 839.93C231.53 843.96 234.91 847.21 238.81 847.21C242.71 847.21 245.96 843.83 245.96 839.93C245.96 835.9 242.71 832.78 238.81 832.78Z" fill="#E6E6E6"/>
<path d="M46.93 877.5C46.93 879.71 48.75 881.66 51.09 881.66C53.3 881.66 55.25 879.84 55.25 877.5C55.25 875.16 53.43 873.34 51.09 873.34C48.75 873.34 46.93 875.16 46.93 877.5Z" fill="#F7F7F7"/>
<path d="M80.21 877.5C80.21 881.53 83.59 884.78 87.62 884.78C91.52 884.78 94.77 881.4 94.77 877.5C94.77 873.34 91.39 870.22 87.62 870.22C83.46 870.22 80.21 873.34 80.21 877.5Z" fill="#E6E6E6"/>
<path d="M120.64 877.5C120.64 880.36 122.98 882.7 125.84 882.7C128.7 882.7 131.04 880.36 131.04 877.5C131.04 874.64 128.7 872.3 125.84 872.3C122.98 872.3 120.64 874.64 120.64 877.5Z" fill="#E6E6E6"/>
<path d="M157.82 877.5C157.82 880.62 160.42 883.22 163.41 883.22C166.66 883.22 169.13 880.62 169.13 877.5C169.13 874.25 166.53 871.78 163.41 871.78C160.29 871.65 157.82 874.25 157.82 877.5Z" fill="#E6E6E6"/>
<path d="M201.24 870.35C197.21 870.35 194.09 873.47 194.09 877.5C194.09 881.4 197.21 884.52 201.24 884.52C205.14 884.52 208.26 881.4 208.26 877.5C208.13 873.47 205.14 870.35 201.24 870.35Z" fill="#E6E6E6"/>
<path d="M238.81 868.92C234 868.92 230.23 872.69 230.23 877.5C230.23 882.18 234 885.95 238.81 885.95C243.49 885.95 247.26 882.18 247.26 877.5C247.13 872.69 243.36 868.92 238.81 868.92Z" fill="#E6E6E6"/>
<path d="M46.93 914.94C46.93 917.28 48.75 919.1 51.09 919.1C53.3 919.1 55.25 917.28 55.25 914.94C55.25 912.73 53.43 910.78 51.09 910.78C48.75 910.78 46.93 912.73 46.93 914.94Z" fill="#E6E6E6"/>
<path d="M80.21 914.94C80.21 919.1 83.59 922.22 87.62 922.22C91.52 922.22 94.77 919.1 94.77 914.94C94.77 910.91 91.39 907.66 87.62 907.66C83.46 907.66 80.21 910.91 80.21 914.94Z" fill="#F7F7F7"/>
<path d="M118.69 914.94C118.69 919.1 122.07 922.22 125.97 922.22C129.87 922.22 133.25 919.1 133.25 914.94C133.25 910.91 129.87 907.66 125.97 907.66C121.81 907.66 118.69 910.91 118.69 914.94Z" fill="#E6E6E6"/>
<path d="M153.27 914.94C153.27 920.66 157.82 925.21 163.41 925.21C169.13 925.21 173.81 920.66 173.81 914.94C173.81 909.35 169.13 904.67 163.41 904.67C157.82 904.67 153.27 909.22 153.27 914.94Z" fill="#F7F7F7"/>
<path d="M201.24 902.33C194.09 902.33 188.5 907.92 188.5 914.94C188.5 921.96 194.09 927.68 201.24 927.68C208.26 927.68 213.85 921.96 213.85 914.94C213.85 907.92 208.13 902.33 201.24 902.33Z" fill="#E6E6E6"/>
<path d="M238.68 905.06C233.09 905.06 228.8 909.48 228.8 914.94C228.8 920.53 233.22 924.82 238.68 924.82C244.27 924.82 248.56 920.4 248.56 914.94C248.56 909.48 244.14 905.06 238.68 905.06Z" fill="#E6E6E6"/>
<path d="M51.2199 957.19C53.6899 957.19 55.8999 955.11 55.8999 952.51C55.8999 949.91 53.6899 947.83 51.2199 947.83C48.4899 947.83 46.4099 949.91 46.4099 952.51C46.2799 954.98 48.3599 957.19 51.2199 957.19Z" fill="#E6E6E6"/>
<path d="M80.6 952.51C80.6 956.41 83.85 959.4 87.62 959.4C91.26 959.4 94.51 956.41 94.51 952.51C94.51 948.61 91.26 945.49 87.62 945.49C83.59 945.49 80.6 948.61 80.6 952.51Z" fill="#D5D5D5"/>
<path d="M116.35 952.51C116.35 957.71 120.51 961.87 125.71 961.87C130.91 961.87 135.33 957.71 135.33 952.51C135.33 947.18 130.91 942.89 125.71 942.89C120.51 942.89 116.35 947.05 116.35 952.51Z" fill="#F7F7F7"/>
<path d="M153.92 952.51C153.92 957.71 158.34 961.87 163.54 961.87C168.74 961.87 173.16 957.71 173.16 952.51C173.16 947.18 168.74 942.89 163.54 942.89C158.34 942.89 153.92 947.05 153.92 952.51Z" fill="#E6E6E6"/>
<path d="M201.24 961.61C206.31 961.61 210.47 957.45 210.47 952.38C210.47 947.31 206.31 943.02 201.24 943.02C196.17 943.02 191.88 947.18 191.88 952.38C191.88 957.45 196.04 961.61 201.24 961.61Z" fill="#F7F7F7"/>
<path d="M238.81 942.24C233.22 942.24 228.67 946.79 228.67 952.38C228.67 957.97 233.22 962.52 238.81 962.52C244.4 962.52 248.95 957.97 248.95 952.38C248.82 946.66 244.27 942.24 238.81 942.24Z" fill="#E6E6E6"/>
</svg>
