<svg width="41" height="40" viewBox="0 0 41 40" fill="none" xmlns="http://www.w3.org/2000/svg">
<path d="M39.4008 7.15797C39.2771 7.09202 39.1369 7.05079 39.005 7.00133C36.6801 6.12741 34.3551 5.24525 32.0302 4.37958C28.2789 2.96976 24.5276 1.5682 20.7846 0.158389C20.3065 -0.0229903 19.8777 -0.0642154 19.3831 0.117164C13.2574 2.43387 7.11523 4.7341 0.981309 7.02607C0.222814 7.30639 -0.00803275 7.80929 0.000211764 8.43588C0.0167008 12.2861 0.000211764 16.1363 0.000211764 19.9782V30.6961C0.000211764 31.0506 0.000211764 31.4051 0.000211764 31.7514C0.000211764 32.2955 0.264036 32.6665 0.750463 32.8809C0.849397 32.9221 0.948331 32.9551 1.04727 32.988C7.14821 35.28 13.2491 37.5637 19.3418 39.864C19.8283 40.0453 20.257 40.0453 20.7434 39.864C25.5829 38.0337 30.4307 36.2199 35.2785 34.3979C36.5811 33.9114 37.8838 33.4168 39.1864 32.9303C39.6234 32.7737 39.9284 32.5016 40.0356 32.0399C40.0768 31.8833 40.0686 31.7019 40.0686 31.537V8.1803C40.0356 7.71861 39.8212 7.37233 39.3925 7.15797H39.4008ZM2.37463 9.02948C7.85724 6.9766 13.3316 4.92372 18.8389 2.86259V6.22635C13.3728 8.27924 7.89021 10.3321 2.37463 12.4015V9.02948ZM2.37463 14.9243C7.84075 12.8714 13.3316 10.8185 18.8472 8.74917V23.9026C13.3728 25.9555 7.89021 28.0084 2.37463 30.0777V14.9243ZM34.2479 32.2708C29.6722 33.9856 25.0883 35.7005 20.5126 37.4236C20.1993 37.5473 19.919 37.5555 19.5892 37.4318C14.7991 35.618 10.0008 33.829 5.2025 32.0317C5.02112 31.9575 4.83974 31.8833 4.59241 31.7843C4.79028 31.7019 4.93043 31.6359 5.07059 31.5865C9.7947 29.8139 14.5188 28.0496 19.2347 26.2605C19.7871 26.0544 20.257 26.0297 20.8341 26.2523C25.6077 28.0743 30.3895 29.8551 35.1713 31.6524C35.262 31.6854 35.3445 31.7184 35.5093 31.7843C35.0394 31.9657 34.6437 32.1224 34.2479 32.2708ZM27.1247 26.1039V16.3176C27.2236 16.3259 27.3143 16.3259 27.3885 16.3506C28.3778 16.7216 29.3589 17.1009 30.3483 17.4636C30.5626 17.5378 30.6451 17.645 30.6451 17.8841C30.6368 20.9593 30.6451 24.0345 30.6451 27.1097C30.6451 27.1922 30.6203 27.2828 30.6121 27.4065C29.4249 26.9695 28.2789 26.5326 27.1247 26.1039ZM37.7024 30.0695C36.1442 29.4841 34.6024 28.907 33.0195 28.3134V16.87C33.003 16.2599 32.7309 15.8312 32.1456 15.6169C31.5437 15.3943 30.9501 15.1717 30.3565 14.949C29.0786 14.4626 27.8007 13.9844 26.5146 13.5145C26.292 13.4321 26.0364 13.3579 25.7973 13.3826C25.2037 13.4403 24.7915 13.902 24.7502 14.5121C24.742 14.644 24.742 14.7759 24.742 14.8996V25.2135C23.5218 24.76 22.3841 24.3313 21.2298 23.8943V8.74092C26.7372 10.8103 32.2115 12.8632 37.7024 14.9161V30.0695ZM37.7106 12.4015C32.2033 10.3321 26.7207 8.27923 21.2298 6.2181V2.85434C26.7454 4.91546 32.228 6.9766 37.7106 9.02948V12.4015Z" fill="#53565A"/>
<path d="M16.5136 17.6447C16.5136 18.5434 16.5136 19.4421 16.5136 20.3407C16.5136 21.1404 16.2663 21.4949 15.5078 21.7753C12.7211 22.8223 9.92624 23.8611 7.1396 24.9082C6.86753 25.0071 6.6037 25.106 6.33163 25.2132C5.51543 25.5183 4.70746 24.9247 4.69922 24.0755C4.69922 24.0013 4.69922 23.9188 4.69922 23.8446C4.69922 22.0556 4.69922 20.2748 4.69922 18.4857C4.69922 17.6695 4.93831 17.3232 5.68856 17.0429C8.68132 15.9216 11.6823 14.7922 14.6751 13.6709C14.9389 13.572 15.211 13.4648 15.5078 13.5225C16.1014 13.6462 16.4971 14.1079 16.4971 14.7509C16.5054 15.7155 16.4971 16.6801 16.4971 17.6447H16.5136ZM14.1309 19.7718V16.4246C14.0485 16.4493 13.9825 16.4575 13.9248 16.4823C11.7235 17.3067 9.52226 18.1394 7.32098 18.9556C7.12311 19.0298 7.06539 19.1288 7.06539 19.3266C7.06539 20.2748 7.06539 21.2311 7.06539 22.1792C7.06539 22.2369 7.08188 22.3029 7.09837 22.4101C9.4563 21.5279 11.7895 20.654 14.1309 19.7718Z" fill="#53565A"/>
</svg>
