<svg width="40" height="40" viewBox="0 0 40 40" fill="none" xmlns="http://www.w3.org/2000/svg">
<path d="M13.0373 12L12.0474 11.8586L13.0373 12ZM9.0373 22L8.58332 21.109C8.56308 21.1193 8.5432 21.1303 8.52371 21.142L9.0373 22ZM6.60309 33.9008C7.10059 34.1406 7.6983 33.9317 7.93811 33.4342C8.17792 32.9367 7.96901 32.339 7.47151 32.0992L6.60309 33.9008ZM31.5373 22L31.9913 21.109C31.9628 21.0945 31.9337 21.0814 31.904 21.0696L31.5373 22ZM36.0313 28L35.0507 27.8039V27.8039L36.0313 28ZM33.0312 33L33.4748 33.8963C33.5723 33.848 33.6614 33.7841 33.7383 33.7071L33.0312 33ZM20.0373 36L19.7574 36.96C19.965 37.0205 20.1865 37.0122 20.3889 36.9362L20.0373 36ZM16.4921 35L16.2284 35.9646H16.2284L16.4921 35ZM7.48989 32.1114C6.99912 31.8581 6.39593 32.0506 6.14263 32.5414C5.88933 33.0321 6.08184 33.6353 6.57261 33.8886L7.48989 32.1114ZM10.9072 28.5077C10.3592 28.5762 9.97047 29.076 10.039 29.624C10.1075 30.1721 10.6073 30.5608 11.1553 30.4923L10.9072 28.5077ZM23.0312 34.9506L23.3386 35.9022V35.9022L23.0312 34.9506ZM28.1599 30.4285C28.6726 30.6336 29.2546 30.3842 29.4597 29.8714C29.6648 29.3586 29.4154 28.7766 28.9026 28.5715L28.1599 30.4285ZM26.7071 7.29289C26.3166 6.90237 25.6834 6.90237 25.2929 7.29289C24.9024 7.68342 24.9024 8.31658 25.2929 8.70711L26.7071 7.29289ZM29.2929 12.7071C29.6834 13.0976 30.3166 13.0976 30.7071 12.7071C31.0976 12.3166 31.0976 11.6834 30.7071 11.2929L29.2929 12.7071ZM30.7071 8.70711C31.0976 8.31658 31.0976 7.68342 30.7071 7.29289C30.3166 6.90237 29.6834 6.90237 29.2929 7.29289L30.7071 8.70711ZM25.2929 11.2929C24.9024 11.6834 24.9024 12.3166 25.2929 12.7071C25.6834 13.0976 26.3166 13.0976 26.7071 12.7071L25.2929 11.2929ZM20.0373 7C18.8975 7 17.1172 7.27219 15.5363 7.9575C13.9873 8.629 12.3364 9.83553 12.0474 11.8586L14.0272 12.1414C14.1668 11.1645 14.9973 10.371 16.3318 9.7925C17.6344 9.22782 19.1398 9 20.0373 9V7ZM12.0474 11.8586C11.8054 13.5524 11.3104 15.7358 10.6441 17.6011C10.3106 18.5345 9.94479 19.3582 9.56324 19.9921C9.16581 20.6523 8.8215 20.9876 8.58332 21.109L9.49127 22.891C10.2344 22.5124 10.8183 21.7852 11.2768 21.0235C11.7511 20.2355 12.1688 19.278 12.5275 18.2739C13.2455 16.2642 13.7692 13.9476 14.0272 12.1414L12.0474 11.8586ZM8.52371 21.142C7.35513 21.8414 5.85586 22.6229 4.76861 23.6283C3.60715 24.7024 2.79561 26.1287 3.04502 28.124L5.02958 27.876C4.87899 26.6713 5.31445 25.8476 6.12649 25.0967C7.01274 24.2771 8.21347 23.6586 9.55089 22.858L8.52371 21.142ZM3.04502 28.124C3.48785 31.6666 5.26521 33.2559 6.60309 33.9008L7.47151 32.0992C6.73479 31.7441 5.38675 30.7334 5.02958 27.876L3.04502 28.124ZM31.0833 22.891C31.9218 23.3182 33.0418 24.2225 33.899 25.2614C34.3233 25.7757 34.6546 26.289 34.8556 26.7553C35.0605 27.2307 35.0961 27.5768 35.0507 27.8039L37.0119 28.1961C37.1665 27.4232 36.9857 26.6443 36.6922 25.9635C36.3947 25.2735 35.9455 24.5993 35.4417 23.9886C34.4425 22.7775 33.1155 21.6818 31.9913 21.109L31.0833 22.891ZM35.0507 27.8039C34.8877 28.6189 34.4263 29.5339 33.8611 30.3837C33.3034 31.2222 32.6959 31.9211 32.3242 32.2929L33.7383 33.7071C34.1999 33.2455 34.8925 32.4445 35.5264 31.4913C36.1529 30.5494 36.7749 29.3811 37.0119 28.1961L35.0507 27.8039ZM20.3172 35.04C19.327 34.7513 18.0822 34.3981 16.7559 34.0354L16.2284 35.9646C17.5438 36.3243 18.7778 36.6745 19.7574 36.96L20.3172 35.04ZM16.7559 34.0354C14.6804 33.4679 12.5132 33.0859 10.7772 32.7871C9.89965 32.636 9.14542 32.5085 8.5472 32.3877C7.9044 32.2578 7.58667 32.1613 7.48989 32.1114L6.57261 33.8886C6.9602 34.0887 7.56147 34.2289 8.15115 34.348C8.78541 34.4762 9.57716 34.6099 10.4379 34.7581C12.1785 35.0577 14.2575 35.4257 16.2284 35.9646L16.7559 34.0354ZM17.4638 34.7634C17.1973 33.669 16.5835 32.0549 15.5715 30.7401C14.5577 29.4228 13.0033 28.2457 10.9072 28.5077L11.1553 30.4923C12.2592 30.3543 13.1918 30.9272 13.9866 31.9599C14.7833 32.9951 15.3 34.331 15.5205 35.2366L17.4638 34.7634ZM32.5877 32.1037C31.2518 32.7648 29.7143 32.9851 27.991 33.1566C26.3272 33.3222 24.4468 33.4426 22.7239 33.9989L23.3386 35.9022C24.8038 35.429 26.4078 35.3241 28.1891 35.1468C29.911 34.9754 31.7794 34.7352 33.4748 33.8963L32.5877 32.1037ZM22.7239 33.9989C21.6833 34.335 20.6678 34.695 19.6857 35.0638L20.3889 36.9362C21.3475 36.5761 22.333 36.2269 23.3386 35.9022L22.7239 33.9989ZM23.938 35.3723C24.416 34.3445 25.2479 32.8654 26.1729 31.7611C26.6386 31.2051 27.0816 30.8004 27.4673 30.5787C27.8445 30.3617 28.0449 30.3825 28.1599 30.4285L28.9026 28.5715C28.0176 28.2175 27.1555 28.4508 26.4702 28.8449C25.7934 29.2342 25.1739 29.839 24.6396 30.4768C23.5646 31.7603 22.6465 33.4065 22.1245 34.5289L23.938 35.3723ZM28 15C25.2386 15 23 12.7614 23 10H21C21 13.866 24.134 17 28 17V15ZM28 5C30.7614 5 33 7.23858 33 10H35C35 6.13401 31.866 3 28 3V5ZM23 10C23 9.58282 23.0509 9.1789 23.1463 8.79354L21.2049 8.3129C21.0709 8.85426 21 9.41954 21 10H23ZM23.1463 8.79354C23.6858 6.61445 25.6556 5 28 5V3C24.7146 3 21.9601 5.26239 21.2049 8.3129L23.1463 8.79354ZM20.0373 9C20.3996 9 21.0108 9.15214 21.7919 9.47669L22.5593 7.62975C21.7161 7.27942 20.8061 7 20.0373 7V9ZM33 10C33 12.7195 30.8286 14.9322 28.1254 14.9985L28.1744 16.9979C31.9601 16.9051 35 13.8077 35 10H33ZM28.1254 14.9985C28.0837 14.9995 28.0419 15 28 15V17C28.0583 17 28.1164 16.9993 28.1744 16.9979L28.1254 14.9985ZM27.1887 16.274C27.5723 17.6106 28.032 19.025 28.6239 20.2013C29.1965 21.3392 29.9959 22.4674 31.1706 22.9304L31.904 21.0696C31.4477 20.8898 30.9337 20.3421 30.4104 19.3023C29.9065 18.3008 29.488 17.0357 29.1111 15.7223L27.1887 16.274ZM25.2929 8.70711L27.2929 10.7071L28.7071 9.29289L26.7071 7.29289L25.2929 8.70711ZM27.2929 10.7071L29.2929 12.7071L30.7071 11.2929L28.7071 9.29289L27.2929 10.7071ZM28.7071 10.7071L30.7071 8.70711L29.2929 7.29289L27.2929 9.29289L28.7071 10.7071ZM27.2929 9.29289L25.2929 11.2929L26.7071 12.7071L28.7071 10.7071L27.2929 9.29289Z" fill="#53565A"/>
</svg>
