<svg xmlns="http://www.w3.org/2000/svg" width="40" height="40" viewBox="0 0 40 40" fill="none">
<path d="M36.4728 9.07425C36.3676 9.01814 36.2484 8.98306 36.1362 8.94098C34.1581 8.19747 32.1801 7.44694 30.2021 6.71044C27.0106 5.511 23.8191 4.31858 20.6346 3.11914C20.2278 2.96482 19.863 2.92974 19.4422 3.08405C14.2306 5.05506 9.00492 7.01205 3.7863 8.96202C3.14098 9.20051 2.94458 9.62837 2.9516 10.1615C2.96562 13.4371 2.95861 16.7128 2.95861 19.9814V29.1C2.95861 29.4016 2.9516 29.7033 2.95861 29.9979C2.95861 30.4608 3.18307 30.7764 3.59691 30.9588C3.68109 30.9939 3.76525 31.0219 3.84942 31.05C9.03999 33 14.2306 34.9429 19.4141 36.8999C19.828 37.0542 20.1927 37.0542 20.6065 36.8999C24.7239 35.3427 28.8483 33.7996 32.9727 32.2494C34.081 31.8356 35.1892 31.4147 36.2975 31.0009C36.6692 30.8676 36.9288 30.6361 37.0199 30.2433C37.055 30.1101 37.048 29.9558 37.048 29.8155V9.94402C37.02 9.55122 36.8376 9.25662 36.4728 9.07425ZM4.97171 10.6665C9.63621 8.91993 14.2937 7.17339 18.9792 5.41982V8.28164C14.3288 10.0282 9.66426 11.7748 4.97171 13.5353V10.6665ZM4.97171 15.6817C9.62218 13.9352 14.2937 12.1886 18.9862 10.428V23.3203C14.3288 25.0668 9.66426 26.8134 4.97171 28.5739V15.6817ZM32.0889 30.4397C28.196 31.8987 24.296 33.3577 20.4031 34.8237C20.1366 34.9289 19.8981 34.9359 19.6175 34.8307C15.5422 33.2875 11.4599 31.7655 7.37761 30.2363C7.2233 30.1732 7.06898 30.1101 6.85855 30.0259C7.02689 29.9558 7.14614 29.8997 7.26538 29.8576C11.2846 28.3495 15.3037 26.8484 19.3159 25.3263C19.7859 25.151 20.1857 25.1299 20.6767 25.3193C24.7379 26.8695 28.8062 28.3846 32.8745 29.9137C32.9517 29.9417 33.0218 29.9698 33.1621 30.0259C32.7623 30.1802 32.4256 30.3135 32.0889 30.4397ZM26.0286 25.1931V16.8671C26.1127 16.8741 26.1899 16.8741 26.253 16.8952C27.0947 17.2108 27.9294 17.5335 28.7712 17.8421C28.9535 17.9052 29.0237 17.9964 29.0237 18.1998C29.0167 20.8162 29.0237 23.4325 29.0237 26.0488C29.0237 26.119 29.0026 26.1961 28.9956 26.3013C27.9856 25.9296 27.0106 25.5578 26.0286 25.1931ZM35.0279 28.5669C33.7022 28.0689 32.3905 27.5779 31.0438 27.0729V17.3371C31.0298 16.818 30.7983 16.4533 30.3003 16.2709C29.7882 16.0815 29.2832 15.8921 28.7782 15.7028C27.691 15.2889 26.6037 14.8821 25.5095 14.4823C25.3201 14.4121 25.1027 14.349 24.8993 14.37C24.3942 14.4191 24.0435 14.8119 24.0085 15.331C24.0014 15.4432 24.0014 15.5555 24.0014 15.6607V24.4355C22.9633 24.0497 21.9954 23.685 21.0134 23.3132V10.421C25.6989 12.1816 30.3564 13.9281 35.0279 15.6747V28.5669ZM35.0349 13.5353C30.3494 11.7748 25.6849 10.0282 21.0134 8.27464V5.4128C25.7059 7.16637 30.3704 8.91993 35.0349 10.6665V13.5353Z" fill="#53565A"/>
<path d="M17.0012 18.0034C17.0012 18.7679 17.0012 19.5325 17.0012 20.297C17.0012 20.9774 16.7907 21.279 16.1454 21.5175C13.7746 22.4083 11.3968 23.2921 9.02593 24.183C8.79446 24.2671 8.57 24.3513 8.33853 24.4425C7.64412 24.702 6.95672 24.197 6.94971 23.4745C6.94971 23.4114 6.94971 23.3412 6.94971 23.2781C6.94971 21.756 6.94971 20.2409 6.94971 18.7188C6.94971 18.0244 7.15312 17.7298 7.79142 17.4913C10.3376 16.5374 12.8908 15.5764 15.437 14.6225C15.6614 14.5383 15.8929 14.4471 16.1454 14.4962C16.6505 14.6014 16.9871 14.9942 16.9871 15.5414C17.0082 16.362 17.0012 17.1827 17.0012 18.0034ZM14.9811 19.813C14.9811 18.8381 14.9811 17.9122 14.9811 16.9653C14.9109 16.9863 14.8548 16.9933 14.8057 17.0144C12.9329 17.7158 11.0601 18.4242 9.18726 19.1186C9.01892 19.1818 8.96982 19.2659 8.96982 19.4343C8.97683 20.2409 8.96982 21.0546 8.97683 21.8612C8.97683 21.9103 8.99086 21.9664 9.00489 22.0576C11.004 21.3001 12.989 20.5566 14.9811 19.813Z" fill="#53565A"/>
</svg>
