<svg width="41" height="40" viewBox="0 0 41 40" fill="none" xmlns="http://www.w3.org/2000/svg">
<path d="M5 33.5L6 31L7 33.5H24L25 31L26 33.5H24H7H5Z" fill="#53565A"/>
<path d="M34.5 29L33.5 26.5H16L15 29L14 26.5H16H33.5H35.5L34.5 29Z" fill="#53565A"/>
<path d="M6 9H8H10L8 7L6 9Z" fill="#53565A"/>
<path d="M18.5 9H20.5H22.5L20.5 7L18.5 9Z" fill="#53565A"/>
<path d="M31.5 9H33.5H35.5L33.5 7L31.5 9Z" fill="#53565A"/>
<path d="M1 26.5H14M39.5 26.5H35.5M1 33.5H5M39.5 33.5H26M5 33.5L6 31L7 33.5M5 33.5H7M7 33.5H24M24 33.5L25 31L26 33.5M24 33.5H26M33.5 26.5L34.5 29L35.5 26.5M33.5 26.5H35.5M33.5 26.5H16M14 26.5L15 29L16 26.5M14 26.5H16M7.5 22C6.83333 20.8333 5.8 18 7 16C8.2 14 8.16667 10.5 8 9M8 9H6L8 7L10 9H8ZM20 22C19.3333 20.8333 18.3 18 19.5 16C20.7 14 20.6667 10.5 20.5 9M20.5 9H18.5L20.5 7L22.5 9H20.5ZM33 22C32.3333 20.8333 31.3 18 32.5 16C33.7 14 33.6667 10.5 33.5 9M33.5 9H31.5L33.5 7L35.5 9H33.5Z" stroke="#53565A" stroke-width="2" stroke-linecap="round" stroke-linejoin="round"/>
</svg>
