<svg xmlns="http://www.w3.org/2000/svg" width="40" height="40" viewBox="0 0 40 40" fill="none">
<path d="M37.6898 16.2849C37.4423 14.9334 36.6999 13.8864 35.472 13.182C34.7487 12.7727 34.0348 12.3539 33.3209 11.9447C32.7689 11.621 32.2073 11.2974 31.6553 10.9833L31.5316 10.9072C31.246 10.7359 24.907 7.05237 24.6024 6.9096L24.3739 6.77635C22.832 5.88165 21.2996 4.99646 19.7577 4.11128C18.8915 3.62586 17.9588 3.46406 16.9784 3.62586C15.5792 3.84478 14.4942 4.60622 13.7803 5.88165C13.7137 6.00538 13.6375 6.11959 13.5709 6.23381L13.4472 6.44321C13.4282 6.44321 13.4091 6.44322 13.3901 6.4337C11.6387 5.94827 9.86838 5.68177 7.95525 5.60563H7.91717C7.62211 5.60563 7.3556 5.69129 7.1462 5.85309C6.92729 6.02442 6.79406 6.28141 6.78454 6.56695C6.77502 6.82394 6.86067 7.05238 7.03199 7.24274C7.23187 7.45214 7.50789 7.57586 7.83151 7.57586C8.94512 7.61394 10.1444 7.74719 11.3722 7.96611C11.6197 8.0137 11.8672 8.08033 12.1242 8.14696C12.2194 8.16599 12.3241 8.19455 12.4288 8.2231L11.7054 9.46044C10.3253 11.8685 8.95466 14.2385 7.58406 16.599C7.47936 16.5705 7.39369 16.5514 7.30802 16.5229C6.19441 16.1993 5.17596 16.0375 4.23367 16.0755C3.69114 16.0946 3.28186 16.4848 3.25331 17.0083C3.23427 17.5223 3.65308 17.9696 4.18609 18.0172L4.46213 18.0267C4.7096 18.0458 4.96657 18.0648 5.19501 18.0934L5.29969 18.1124C5.72801 18.1695 6.14682 18.2171 6.56561 18.3694C6.52754 18.436 6.49899 18.5026 6.4514 18.5693C6.26104 18.9024 6.06115 19.245 5.87078 19.5782C5.48054 20.2444 5.07126 20.9393 4.70958 21.6341C3.97668 23.0142 3.99574 24.4229 4.75718 25.822C5.13791 26.5549 5.74706 27.1355 6.65127 27.64L7.9743 28.4014C10.0017 29.5722 12.029 30.7429 14.0468 31.9136C14.1801 31.9898 14.3133 32.104 14.4276 32.2467C15.3032 33.2747 16.1789 34.1218 17.1021 34.8262C17.2735 34.9499 17.3401 35.0831 17.3401 35.3211V36.2634C17.3401 36.3586 17.4258 36.4347 17.5209 36.4347H19.1485C19.2437 36.4347 19.3294 36.3586 19.3294 36.2634V34.7405C19.3294 34.1218 18.9772 33.7696 18.6726 33.5412C16.4454 31.8946 14.7417 29.7625 13.6185 27.2212C13.333 26.574 13.1141 25.8791 12.8951 25.2129L12.8 24.8988C12.6667 24.4895 12.8571 24.0326 13.2664 23.8042C13.6661 23.5853 14.1325 23.6614 14.4466 24.0041C14.5418 24.0993 14.6179 24.2135 14.6941 24.3372C15.0177 24.8322 15.3223 25.3176 15.6364 25.803C15.979 26.3551 16.3312 26.8976 16.6928 27.4592C16.75 27.5543 16.8071 27.64 16.8832 27.7447C17.1688 28.0778 17.5114 28.1825 17.8921 28.0873C18.3109 27.9731 18.5679 27.6876 18.6345 27.2402C18.6536 27.1165 18.6536 26.9928 18.6536 26.8881V15.5996L18.6441 15.4664C18.6441 15.3902 18.6441 15.3046 18.6536 15.2189C18.6726 14.8477 18.9486 14.5717 19.3103 14.5621C19.3103 14.5621 19.3199 14.5621 19.3294 14.5621C19.6815 14.5621 19.9671 14.8191 20.0147 15.1808C20.0242 15.3046 20.0242 15.4283 20.0242 15.5425V22.3289C20.0242 22.9761 20.3668 23.2426 20.6524 23.3569C20.9189 23.4616 21.2235 23.433 21.4709 23.2998C21.7184 23.1665 21.8802 22.9381 21.9373 22.6811C21.9944 22.4336 21.9944 22.1861 21.9944 22.0053V13.8293C21.9944 13.6865 21.9944 13.5342 22.0135 13.3819C22.0325 13.0107 22.3085 12.7347 22.6417 12.7347C22.6512 12.7347 22.6607 12.7347 22.6607 12.7347C22.8987 12.7347 23.3365 12.9155 23.3365 13.3629V13.8197C23.3365 16.5419 23.3365 19.2546 23.346 21.9862C23.346 22.1956 23.346 22.4146 23.3936 22.624C23.4792 23.0903 23.879 23.4235 24.3168 23.4235H24.3454C24.8308 23.4235 25.2496 23.0428 25.3067 22.5669C25.3258 22.4526 25.3258 22.3384 25.3258 22.2432V15.4473C25.3258 15.276 25.3448 15.1142 25.3924 14.9809C25.4971 14.6954 25.7826 14.5146 26.1158 14.5717C26.4108 14.6097 26.6583 14.8667 26.6868 15.1808C26.6964 15.3046 26.6964 15.4283 26.6964 15.5425V22.2147C26.6964 22.4241 26.7249 22.624 26.7725 22.7953C26.9058 23.1665 27.3246 23.452 27.7053 23.4235C28.1241 23.414 28.5048 23.1189 28.6 22.7287C28.6571 22.5478 28.6856 22.3479 28.6856 22.1576L28.6761 21.2914C28.6761 20.7203 28.6761 20.1493 28.6856 19.5877C28.6856 19.3688 28.7523 19.1974 28.876 19.0832C29.0093 18.969 29.1901 18.9214 29.4186 18.931C29.7041 18.9405 29.923 19.1118 29.9896 19.3973C30.0277 19.5306 30.0467 19.7019 30.0467 19.9208C30.0562 21.8149 30.0562 23.6995 30.0562 25.5936C30.0467 28.3919 29.1901 30.8571 27.534 32.9321C27.277 33.2366 27.0771 33.4556 26.8772 33.6649C26.5822 33.96 26.4489 34.2931 26.4584 34.7119V36.2634C26.4584 36.3586 26.5346 36.4347 26.6393 36.4347H28.2573C28.3525 36.4347 28.4287 36.3586 28.4287 36.2634V35.3401C28.4287 35.0165 28.5143 34.7881 28.7047 34.5692C30.1419 32.9606 31.1223 31.076 31.6458 28.9535C31.6934 28.7727 31.7505 28.6299 31.8171 28.5061L35.2722 22.5288C35.4911 22.1385 35.7195 21.7483 35.9384 21.3581C36.3287 20.6728 36.7189 19.9875 37.1187 19.3117C37.6898 18.3503 37.8801 17.3319 37.6898 16.2849ZM35.4245 18.3408C34.2728 20.3206 33.1306 22.2908 31.9979 24.2706V19.5782C31.9979 18.7596 31.6267 17.9982 30.97 17.4937C30.3418 16.9988 29.5042 16.8084 28.8189 16.9893C28.7713 16.9988 28.7332 17.0083 28.6856 17.0178L28.6761 15.9613C28.6761 15.5806 28.6666 15.1903 28.6095 14.8096C28.5143 14.1338 28.1622 13.5342 27.5911 13.1154C27.0295 12.6966 26.3252 12.5158 25.6589 12.6205C25.5637 12.6395 25.4685 12.6585 25.3734 12.668C25.3258 12.6776 25.2782 12.6871 25.2306 12.6966C24.7737 11.4212 23.9076 10.7835 22.6417 10.7835H22.6131C21.4138 10.8025 20.5763 11.4497 20.1099 12.6871C20.0623 12.6776 20.0242 12.6776 19.9671 12.6585C19.1771 12.4872 18.4442 12.63 17.7874 13.0964C17.045 13.6199 16.6643 14.4099 16.6643 15.4188C16.6548 16.8275 16.6548 18.2361 16.6548 19.6448V23.7376C16.493 23.4901 16.3502 23.2712 16.1979 23.0523C15.5031 22.0529 14.5418 21.615 13.371 21.7483C12.5335 21.853 11.7815 22.3099 11.2961 23.0047C10.8297 23.69 10.6774 24.5371 10.8773 25.3366C11.1248 26.3551 11.4865 27.3735 12.0004 28.449L10.8107 27.7732C10.3348 27.4972 9.85887 27.2212 9.38296 26.9452C8.71669 26.5645 8.05043 26.1742 7.39368 25.784C6.54657 25.289 6.12778 24.5276 6.14682 23.5282C6.17537 23.0428 6.38476 22.6144 6.61319 22.2242C7.83151 20.1207 9.04984 18.0172 10.2586 15.9137C10.9154 14.7811 11.5721 13.6484 12.2289 12.5062C13.3044 10.6502 14.3704 8.78467 15.4555 6.92864C15.6459 6.58599 15.8648 6.30997 16.0932 6.11009C16.8737 5.4343 17.9397 5.34863 18.882 5.88165C19.6435 6.31948 20.3954 6.74779 21.1568 7.18562C21.9088 7.62345 22.6702 8.06129 23.4412 8.49912C23.5744 8.58478 29.8659 12.2492 30.0277 12.3064L34.5012 14.8953C34.9486 15.1523 35.2531 15.4473 35.4625 15.8185C35.9289 16.6561 35.9099 17.4747 35.4245 18.3408Z" fill="#53565A"/>
<path d="M7.1602 12.925C7.29346 12.9441 7.42672 12.9631 7.55998 12.9821C7.81696 13.0202 8.08345 13.0583 8.34044 13.0868C8.36899 13.0868 8.40707 13.0868 8.43562 13.0868C8.90201 13.0868 9.27321 12.7727 9.3779 12.2778C9.47308 11.8114 9.21611 11.3736 8.74021 11.2118C8.59744 11.1547 8.46417 11.1261 8.34044 11.1071C6.66525 10.8406 5.00911 10.7549 3.38152 10.8501C3.07694 10.8691 2.68671 10.8881 2.46779 11.1927C2.32502 11.3926 2.24886 11.6306 2.23934 11.8685C2.22982 12.2207 2.4297 12.5348 2.7438 12.6585C2.99127 12.7537 3.28633 12.8203 3.52429 12.7918C4.89489 12.7346 6.07514 12.7823 7.1602 12.925Z" fill="#53565A"/>
</svg>
