<svg width="45" height="40" viewBox="0 0 45 40" fill="none" xmlns="http://www.w3.org/2000/svg">
<path d="M44.4306 15.4746C44.1295 13.8303 43.2263 12.5565 41.7326 11.6997C40.8525 11.2017 39.9841 10.6922 39.1156 10.1943C38.444 9.80062 37.7608 9.40691 37.0892 9.02479L36.9387 8.93215C36.5913 8.72372 28.8793 4.24245 28.5088 4.06875L28.2308 3.90664C26.3549 2.81817 24.4907 1.74127 22.6148 0.664377C21.5611 0.0738215 20.4263 -0.123033 19.2336 0.073819C17.5314 0.340148 16.2113 1.26651 15.3429 2.81817C15.2618 2.9687 15.1692 3.10765 15.0881 3.24661L14.9376 3.50136C14.9376 3.50136 14.8913 3.50136 14.8681 3.50136C12.7375 2.9108 10.5836 2.58657 8.25616 2.49394H8.20987C7.85091 2.49394 7.52668 2.59816 7.27193 2.79501C7.0056 3.00344 6.84349 3.31609 6.83191 3.66347C6.82033 3.97612 6.92452 4.25403 7.13295 4.48562C7.37612 4.74037 7.71196 4.8909 8.10566 4.8909C9.46046 4.93722 10.9195 5.09933 12.4132 5.36566C12.7143 5.42356 13.0154 5.50462 13.328 5.58567C13.4438 5.60883 13.5712 5.64357 13.6986 5.67831L12.8185 7.18365C11.1395 10.1133 9.47203 12.9966 7.80458 15.8683C7.67721 15.8335 7.57298 15.8104 7.46877 15.7756C6.11396 15.3819 4.87498 15.1851 3.7286 15.2314C3.06857 15.2546 2.57065 15.7293 2.53592 16.3662C2.51276 16.9915 3.02223 17.5357 3.67069 17.5936H4.0065C4.30757 17.6284 4.6202 17.6515 4.89811 17.6863L5.0255 17.7094C5.54658 17.7789 6.05607 17.8368 6.56556 18.0221C6.51925 18.1031 6.48451 18.1842 6.42662 18.2652C6.19503 18.6705 5.95187 19.0874 5.72028 19.4927C5.24552 20.3032 4.7476 21.1485 4.30758 21.9938C3.41596 23.6729 3.4391 25.3866 4.36546 27.0888C4.82864 27.9805 5.56972 28.6868 6.66978 29.3005L8.27935 30.2269C10.7458 31.6512 13.2122 33.0754 15.6671 34.4997C15.8292 34.5924 15.9913 34.7313 16.1303 34.905C17.1956 36.1556 18.2609 37.1862 19.3841 38.0431C19.5925 38.1936 19.6736 38.3557 19.6736 38.6452V39.7916C19.6736 39.9074 19.7778 40 19.8936 40H21.8737C21.9895 40 22.0937 39.9074 22.0937 39.7916V37.9388C22.0937 37.1862 21.6653 36.7577 21.2947 36.4798C18.5851 34.4766 16.5124 31.8828 15.146 28.791C14.7986 28.0036 14.5323 27.1583 14.2659 26.3477L14.1502 25.9656C13.9881 25.4677 14.2196 24.9119 14.7176 24.634C15.2039 24.3676 15.7713 24.4603 16.1534 24.8771C16.2692 24.9929 16.3618 25.1319 16.4545 25.2824C16.8482 25.8846 17.2187 26.4751 17.6008 27.0657C18.0177 27.7373 18.4462 28.3973 18.8862 29.0805C18.9557 29.1963 19.0251 29.3005 19.1178 29.4279C19.4651 29.8332 19.882 29.9606 20.3452 29.8448C20.8547 29.7058 21.1673 29.3584 21.2484 28.8142C21.2715 28.6636 21.2716 28.5131 21.2716 28.3857V14.4903C21.26 14.3977 21.26 14.2935 21.2716 14.1893C21.2947 13.7377 21.6305 13.4018 22.0706 13.3903H22.0937C22.5221 13.3903 22.8695 13.7029 22.9274 14.1429C22.9274 14.2935 22.9274 14.444 22.9274 14.583V22.8391C22.9274 23.6266 23.3443 23.9508 23.6917 24.0897C24.0159 24.2171 24.3864 24.1824 24.6875 24.0203C24.9886 23.8581 25.1854 23.5802 25.2549 23.2676C25.3244 22.9665 25.3244 22.6655 25.3244 22.4454V12.4986C25.3244 12.325 25.3244 12.1397 25.3475 11.9544C25.3707 11.5028 25.7065 11.167 26.1118 11.167H26.1349C26.4244 11.167 26.9571 11.387 26.9571 11.9312V12.4871C26.9571 15.7988 26.9571 19.099 26.9687 22.4223C26.9687 22.677 26.9687 22.9434 27.0266 23.1981C27.1308 23.7655 27.6171 24.1708 28.1498 24.1708H28.1845C28.7751 24.1708 29.2846 23.7076 29.354 23.1286C29.3772 22.9897 29.3772 22.8507 29.3772 22.7349V14.4672C29.3772 14.2587 29.4004 14.0619 29.4583 13.8998C29.5857 13.5524 29.933 13.3324 30.3383 13.4018C30.6973 13.4482 30.9984 13.7608 31.0331 14.1429C31.0447 14.2935 31.0447 14.444 31.0447 14.583V22.7002C31.0447 22.9549 31.0794 23.1981 31.1373 23.4065C31.2994 23.8581 31.8089 24.2055 32.2721 24.1708C32.7816 24.1592 33.2448 23.8003 33.3606 23.3255C33.4301 23.1055 33.4648 22.8623 33.4648 22.6307V21.577C33.4532 20.8822 33.4532 20.1874 33.4648 19.5043C33.4648 19.2379 33.5458 19.0295 33.6964 18.8905C33.8585 18.7516 34.0785 18.6937 34.3564 18.7053C34.7038 18.7053 34.9701 18.9253 35.0512 19.2727C35.0975 19.4348 35.1207 19.6432 35.1207 19.9095C35.1322 22.2139 35.1322 24.5066 35.1322 26.8109C35.1207 30.2153 34.0785 33.2144 32.0637 35.7387C31.751 36.1093 31.5079 36.3756 31.2647 36.6304C30.9057 36.9893 30.7436 37.3946 30.7552 37.9041V39.7916C30.7552 39.9074 30.8478 40 30.9752 40H32.9437C33.0595 40 33.1521 39.9074 33.1521 39.7916V38.6684C33.1521 38.2747 33.2564 37.9967 33.4879 37.7304C35.2365 35.7735 36.4291 33.4807 37.066 30.8985C37.1239 30.6785 37.1934 30.5048 37.2745 30.3543L41.4778 23.0823C41.7441 22.6076 42.0221 22.1328 42.2884 21.658C42.7631 20.8243 43.2379 19.9906 43.7242 19.1684C44.419 17.9989 44.6506 16.7599 44.419 15.4862L44.4306 15.4746ZM41.6747 17.9758C40.2735 20.3843 38.884 22.7813 37.506 25.1898V19.4811C37.506 18.4853 37.0545 17.5589 36.2555 16.9452C35.4912 16.343 34.4722 16.1115 33.6385 16.3315C33.5806 16.343 33.5343 16.3546 33.4764 16.3662V15.0809C33.4648 14.6177 33.4532 14.1429 33.3837 13.6798C33.2679 12.8576 32.8395 12.1281 32.1447 11.6186C31.4615 11.1091 30.6046 10.8891 29.7941 11.0165C29.6783 11.0396 29.5625 11.0628 29.4467 11.0744C29.3888 11.0859 29.3309 11.0975 29.273 11.1091C28.7172 9.55745 27.6635 8.78162 26.1234 8.78162H26.0886C24.6296 8.80478 23.6106 9.59218 23.0432 11.0975C22.9853 11.0859 22.939 11.0859 22.8695 11.0628C21.9084 10.8544 21.0168 11.028 20.2178 11.5954C19.3146 12.2323 18.8515 13.1934 18.8515 14.4208C18.8399 16.1346 18.8399 17.8484 18.8399 19.5621V24.5413C18.643 24.2403 18.4693 23.9739 18.284 23.7076C17.4387 22.4918 16.2692 21.9591 14.8449 22.1212C13.8259 22.2486 12.9111 22.8044 12.3206 23.6497C11.7532 24.4834 11.5679 25.514 11.8111 26.4867C12.1122 27.7257 12.5522 28.9647 13.1775 30.2732L11.73 29.4511C11.151 29.1153 10.5721 28.7794 9.99309 28.4436C9.18253 27.9805 8.37196 27.5057 7.57298 27.0309C6.5424 26.4288 6.0329 25.5024 6.05606 24.2866C6.0908 23.696 6.34558 23.175 6.62348 22.7002C8.10566 20.1411 9.58782 17.582 11.0584 15.023C11.8574 13.645 12.6564 12.2671 13.4554 10.8775C14.7639 8.6195 16.0608 6.34992 17.3808 4.09191C17.6124 3.67505 17.8788 3.33924 18.1567 3.09607C19.1062 2.27393 20.4031 2.16971 21.5495 2.81817C22.4758 3.35083 23.3906 3.8719 24.317 4.40456C25.2318 4.93722 26.1581 5.46988 27.0961 6.00254C27.2582 6.10675 34.9122 10.5649 35.1091 10.6343L40.5515 13.784C41.0957 14.0966 41.4662 14.4556 41.721 14.9072C42.2884 15.9262 42.2652 16.922 41.6747 17.9758Z" fill="#53565A"/>
<path d="M6.0573 11.3888C6.21941 11.412 6.38154 11.4351 6.54365 11.4583C6.8563 11.5046 7.18054 11.5509 7.49318 11.5857C7.52792 11.5857 7.57421 11.5857 7.60895 11.5857C8.17635 11.5857 8.62797 11.2035 8.75535 10.6014C8.87114 10.034 8.55848 9.50134 7.9795 9.30449C7.80581 9.23501 7.64372 9.20027 7.49318 9.17711C5.45519 8.85289 3.44033 8.74867 1.46023 8.86446C1.08968 8.88762 0.614935 8.91078 0.348606 9.28133C0.174913 9.5245 0.0822881 9.81398 0.0707086 10.1035C0.0591291 10.5319 0.302298 10.914 0.684422 11.0646C0.985489 11.1804 1.34443 11.2614 1.63392 11.2267C3.28979 11.1572 4.73726 11.2151 6.04574 11.3888H6.0573Z" fill="#53565A"/>
</svg>
