<svg width="32" height="45" viewBox="0 0 32 45" fill="none" xmlns="http://www.w3.org/2000/svg">
<path d="M29.8912 0.5H2.10875C1.30918 0.5 1 0.813162 1 1.62306C1 8.99315 1.01066 16.3686 1 23.7333C1 26.0226 2.76973 27.4697 4.61941 27.3995C6.10661 27.3455 7.59914 27.3887 9.09168 27.3887C9.24093 27.3887 9.39018 27.4049 9.58741 27.4157C9.42749 29.2784 10.0832 30.5419 11.9808 30.8982C11.9808 31.0278 11.9968 31.1466 11.9808 31.2546C11.7729 32.9392 11.565 34.6184 11.3518 36.3084C11.2239 37.3504 11.0427 38.3871 10.984 39.4292C10.7975 42.739 13.8625 45.3522 17.0661 44.6287C19.8273 44.0024 21.2452 41.4593 20.9947 39.1862C20.7281 36.7889 20.403 34.397 20.1098 31.9997C20.0672 31.6379 20.0352 31.2762 20.0032 30.9036C20.1365 30.8874 20.2058 30.8712 20.2751 30.8712C21.6876 30.7309 22.4126 29.9264 22.4232 28.4901V27.3941H22.9563C24.4168 27.3941 25.8774 27.3941 27.3433 27.3941C27.6258 27.3941 27.9136 27.3941 28.1962 27.3401C29.8966 26.9945 31 25.6015 31 23.7819C31 16.401 31 9.01475 31 1.63386C31 0.818564 30.6908 0.510801 29.8912 0.510801V0.5ZM17.7324 42.469C16.6023 43.1925 15.4083 43.1925 14.2729 42.469C13.1482 41.7563 12.5992 40.6764 12.7484 39.3212C13.0523 36.6269 13.3934 33.9273 13.7239 31.233C13.7345 31.1358 13.7665 31.0386 13.8038 30.8982H18.2228C18.3081 31.5138 18.3881 32.1185 18.4627 32.7232C18.7185 34.7372 18.9424 36.7511 19.2143 38.7543C19.4275 40.2985 19.0864 41.5997 17.7377 42.469H17.7324ZM20.6802 28.6953C20.6802 28.9545 20.5256 29.0895 20.2697 29.0949H12.3966C11.5704 29.0949 11.3198 28.8357 11.3145 27.9826V27.4103H20.6855C20.6855 27.8638 20.6855 28.2796 20.6855 28.6899L20.6802 28.6953ZM29.1823 24.338C29.1236 25.0346 28.3827 25.5907 27.6738 25.6339C27.5458 25.6447 27.4126 25.6339 27.2846 25.6339C19.758 25.6339 12.2367 25.6177 4.71003 25.6501C3.68658 25.6501 2.68444 25.0292 2.74308 23.6469C2.77506 22.891 2.74308 22.1297 2.74308 21.3522H29.1983C29.1983 22.3619 29.2516 23.3554 29.1769 24.338H29.1823ZM29.2196 19.5542H2.7804V8.36683C3.72922 8.36683 4.65138 8.32903 5.5629 8.38303C6.11194 8.41542 6.49042 8.90136 6.54906 9.46829C6.58104 9.72746 6.57568 9.98663 6.59168 10.2458C6.71961 11.6442 7.83903 12.6971 9.17698 12.6647C10.5842 12.6323 11.6983 11.5146 11.7356 10.073C11.7356 9.92723 11.7356 9.78686 11.7356 9.64107C11.7516 8.90137 12.29 8.33983 12.983 8.32903C13.6866 8.31823 14.2623 8.89057 14.2676 9.65727C14.2836 10.8505 14.2942 12.0492 14.2676 13.2424C14.2463 14.2305 14.5501 15.0566 15.355 15.6397C16.1759 16.2283 17.0714 16.3092 17.9723 15.8557C18.8678 15.4076 19.3795 14.6517 19.4062 13.6312C19.4382 12.3461 19.4062 11.0665 19.4168 9.78685C19.4168 8.86356 19.9232 8.32903 20.8348 8.32364C23.5213 8.31284 26.2025 8.32364 28.8891 8.32364C28.9797 8.32364 29.081 8.35063 29.2089 8.36143V19.5596L29.2196 19.5542ZM29.2196 6.55805H20.8081C19.209 6.55805 17.9989 7.59472 17.7324 9.17133C17.6738 9.49529 17.6951 9.83005 17.6951 10.1594C17.6951 11.2231 17.6951 12.2921 17.6951 13.3558C17.6951 13.9713 17.3806 14.3493 16.8795 14.3547C16.3625 14.3709 16.0107 13.9767 16.0107 13.3558C16.0107 12.114 16.0107 10.8829 16.0107 9.64107C16.0107 8.01587 14.8646 6.75243 13.2441 6.57425C11.8102 6.41227 10.3817 7.48673 10.0672 8.99315C9.98188 9.3981 10.0298 9.83004 9.96055 10.235C9.88059 10.6777 9.53411 10.9099 9.09168 10.8775C8.70255 10.8505 8.38807 10.5428 8.34543 10.127C8.32411 9.95963 8.33475 9.78685 8.32942 9.61407C8.26012 8.33983 7.69511 7.37875 6.54372 6.84961C6.14393 6.66603 5.6695 6.59585 5.22174 6.56885C4.56076 6.52566 2.94563 6.54186 2.78572 6.53646V2.27098H29.2356V6.55265L29.2196 6.55805Z" fill="#53565A" stroke="#53565A" stroke-width="0.5" stroke-linecap="round" stroke-linejoin="round"/>
</svg>
