<svg xmlns="http://www.w3.org/2000/svg" width="40" height="40" viewBox="0 0 40 40" fill="none">
<path d="M35.8022 21.5675L35.7422 21.1775C35.6922 20.8575 35.6522 20.5475 35.5922 20.2475C34.2722 13.9575 30.4922 9.75752 24.3722 7.75752L23.5522 7.49751L23.6822 7.16752C24.6422 4.87752 23.6922 3.05752 22.4922 2.13752C21.0922 1.05752 19.1222 1.00753 17.6822 2.01753C16.0522 3.16753 15.5821 4.89751 16.3221 7.18751L16.4221 7.47752L16.0322 7.62751C15.9322 7.66751 15.8522 7.69752 15.7522 7.72752C7.52217 10.0675 2.65215 18.3175 4.64215 26.5075C6.12215 32.5875 10.0322 36.5475 16.2522 38.2475C16.7922 38.3975 17.3522 38.4975 17.9022 38.5775C18.1622 38.6175 18.4122 38.6675 18.6622 38.7075H21.3722C21.6322 38.6475 21.9521 38.5975 22.2621 38.5375C22.9321 38.4275 23.6221 38.3175 24.2621 38.1075C30.5621 36.1075 34.3721 31.8075 35.6021 25.3175C35.6521 25.0975 35.6922 24.8675 35.7222 24.6275L35.7921 24.2275L35.8022 21.5675ZM18.7522 4.1175C19.0922 3.7775 19.5621 3.57753 20.0121 3.57753C20.4621 3.57753 20.9221 3.77753 21.2621 4.10753C21.6021 4.44753 21.8022 4.9075 21.8022 5.3675C21.8122 5.8175 21.6222 6.2775 21.2722 6.6175C20.9322 6.9575 20.4721 7.15751 20.0121 7.15751C19.5621 7.15751 19.1021 6.9575 18.7621 6.6175C18.4221 6.2875 18.2222 5.8175 18.2222 5.3675C18.2222 4.9175 18.4222 4.4575 18.7522 4.1175ZM33.4322 24.4375C32.8022 30.5775 27.6821 35.6875 21.5121 36.3275L21.1522 36.3775V34.6575C21.1422 33.9975 20.6622 33.5175 20.0222 33.5175C20.0222 33.5175 20.0221 33.5175 20.0121 33.5175C19.3721 33.5175 18.8921 33.9975 18.8821 34.6675C18.8721 34.9575 18.8721 35.2575 18.8821 35.5575V36.3275L18.5222 36.2875C12.4022 35.7975 7.18216 30.5875 6.62216 24.4075L6.58215 24.0475H8.25217C8.94217 24.0375 9.43217 23.5675 9.41217 22.9075C9.41217 22.2575 8.93215 21.7875 8.23215 21.7775H6.56216L6.60214 21.4175C7.21214 15.2775 12.3222 10.1475 18.5022 9.51753L18.8722 9.46751V10.2375C18.8722 10.5475 18.8622 10.8375 18.8722 11.1275C18.8722 11.8275 19.3422 12.3175 19.9922 12.3175H20.0022C20.6622 12.3175 21.1322 11.8275 21.1422 11.1175V9.49751L21.5022 9.53752C27.6022 10.0175 32.8322 15.2375 33.4022 21.4175L33.4221 21.7775H31.7522C31.0822 21.7875 30.5922 22.2675 30.5922 22.9175C30.5922 23.5675 31.0822 24.0375 31.7722 24.0475H33.4521L33.4322 24.4375Z" fill="#53565A"/>
<path d="M21.1522 17.0575C21.1422 16.4275 20.6621 15.9475 20.0221 15.9475C19.3821 15.9475 18.9021 16.4375 18.8921 17.0775C18.8821 19.0375 18.8821 21.0075 18.8921 22.9775C18.8921 23.5975 19.3721 24.0775 19.9921 24.0775C21.9721 24.0875 23.9522 24.0875 25.9422 24.0775C26.4622 24.0775 26.9221 23.6775 27.0121 23.1475C27.1021 22.6075 26.8121 22.0875 26.3221 21.9075C26.1721 21.8475 25.9722 21.8275 25.7222 21.8175C24.6822 21.8075 23.6321 21.8075 22.5721 21.8175H21.1622V19.7975C21.1622 18.8775 21.1622 17.9675 21.1522 17.0575Z" fill="#53565A"/>
</svg>