<svg width="40" height="40" viewBox="0 0 40 40" fill="none" xmlns="http://www.w3.org/2000/svg">
<g id="Frame 35138">
<g id="6aA7G3">
<g id="Group">
<path id="Vector" d="M36.4328 9.08428C36.3278 9.02822 36.2089 8.99317 36.097 8.95113C34.1242 8.2083 32.1514 7.45846 30.1786 6.72264C26.9955 5.5243 23.8125 4.33297 20.6364 3.13463C20.2307 2.98046 19.8669 2.94542 19.4471 3.09959C14.2493 5.06879 9.03749 7.02398 3.83267 8.97216C3.18906 9.21043 2.99318 9.6379 3.00018 10.1705C3.01417 13.4432 3.00018 16.7158 3.00018 19.9815V29.0917C3.00018 29.393 3.00018 29.6943 3.00018 29.9887C3.00018 30.4512 3.22404 30.7665 3.63679 30.9487C3.72074 30.9838 3.80469 31.0118 3.88864 31.0398C9.06548 32.988 14.2423 34.9292 19.4122 36.8844C19.8249 37.0385 20.1887 37.0385 20.6014 36.8844C24.7079 35.3286 28.8214 33.7869 32.9349 32.2382C34.0402 31.8247 35.1456 31.4042 36.2509 30.9908C36.6217 30.8576 36.8805 30.6264 36.9714 30.2339C37.0064 30.1008 36.9994 29.9466 36.9994 29.8065V9.95325C36.9714 9.56082 36.7896 9.26648 36.4258 9.08428H36.4328ZM5.01495 10.6751C9.66711 8.93011 14.3123 7.18516 18.9854 5.4332V8.2924C14.3473 10.0374 9.69509 11.7823 5.01495 13.5413V10.6751ZM5.01495 15.6857C9.65312 13.9407 14.3123 12.1958 18.9924 10.4368V23.3172C14.3473 25.0621 9.69509 26.8071 5.01495 28.5661V15.6857ZM32.0604 30.4302C28.1778 31.8878 24.2882 33.3454 20.4056 34.8101C20.1397 34.9152 19.9019 34.9222 19.622 34.8171C15.5575 33.2753 11.486 31.7546 7.41449 30.2269C7.26058 30.1639 7.10667 30.1008 6.8968 30.0167C7.0647 29.9466 7.18363 29.8906 7.30255 29.8485C11.3111 28.3418 15.3197 26.8421 19.3212 25.3214C19.7899 25.1462 20.1887 25.1252 20.6784 25.3144C24.7289 26.8632 28.7864 28.3769 32.844 29.9046C32.9209 29.9326 32.9909 29.9606 33.1308 30.0167C32.732 30.1709 32.3962 30.304 32.0604 30.4302ZM26.0161 25.1883V16.87C26.1001 16.877 26.177 16.877 26.24 16.898C27.0795 17.2134 27.912 17.5357 28.7515 17.8441C28.9334 17.9071 29.0033 17.9983 29.0033 18.2015C28.9963 20.8154 29.0033 23.4293 29.0033 26.0433C29.0033 26.1133 28.9823 26.1904 28.9753 26.2955C27.9679 25.9241 26.9955 25.5527 26.0161 25.1883ZM34.9917 28.5591C33.6695 28.0615 32.3613 27.571 31.0181 27.0664V17.3395C31.0041 16.8209 30.7732 16.4565 30.2765 16.2743C29.7658 16.0851 29.2622 15.8959 28.7585 15.7067C27.6741 15.2932 26.5898 14.8868 25.4984 14.4873C25.3096 14.4172 25.0927 14.3542 24.8898 14.3752C24.3861 14.4243 24.0363 14.8167 24.0014 15.3353C23.9944 15.4474 23.9944 15.5595 23.9944 15.6646V24.4314C22.959 24.046 21.9936 23.6816 21.0142 23.3102V10.4298C25.6873 12.1887 30.3325 13.9337 34.9917 15.6787V28.5591ZM34.9987 13.5413C30.3255 11.7823 25.6733 10.0373 21.0142 8.28538V5.42619C25.6943 7.17815 30.3465 8.93011 34.9987 10.6751V13.5413Z" fill="#53565A"/>
<path id="Vector_2" d="M17.0132 17.998C17.0132 18.7619 17.0132 19.5257 17.0132 20.2896C17.0132 20.9694 16.8033 21.2707 16.1597 21.509C13.7951 22.399 11.4236 23.2819 9.05902 24.1719C8.82816 24.256 8.6043 24.3401 8.37344 24.4312C7.68086 24.6905 6.99528 24.186 6.98828 23.4642C6.98828 23.4011 6.98828 23.331 6.98828 23.2679C6.98828 21.7472 6.98828 20.2335 6.98828 18.7128C6.98828 18.0191 7.19116 17.7247 7.82777 17.4865C10.3672 16.5334 12.9137 15.5733 15.4531 14.6203C15.677 14.5362 15.9078 14.4451 16.1597 14.4941C16.6634 14.5992 16.9992 14.9917 16.9992 15.5383C17.0062 16.3582 16.9992 17.1781 16.9992 17.998H17.0132ZM14.9914 19.8061V16.9609C14.9214 16.9819 14.8655 16.9889 14.8165 17.0099C12.9486 17.7107 11.0808 18.4185 9.21292 19.1123C9.04503 19.1753 8.99606 19.2595 8.99606 19.4276C8.99606 20.2335 8.99606 21.0464 8.99606 21.8523C8.99606 21.9014 9.01005 21.9575 9.02404 22.0486C11.0248 21.2987 13.0046 20.5559 14.9914 19.8061Z" fill="#53565A"/>
</g>
</g>
</g>
</svg>
