<svg width="40" height="40" viewBox="0 0 40 40" fill="none" xmlns="http://www.w3.org/2000/svg">
<path d="M34 22.3529C34 29.89 27.9558 36 20.5 36M34 22.3529C34 15.7827 29.407 10.2968 23.2896 8.99759M34 22.3529H31M20.5 36C13.0442 36 7 29.89 7 22.3529M20.5 36C20.5 36 20.5 39.3852 20.5 33M7 22.3529C7 15.7827 11.593 10.2968 17.7104 8.99759M7 22.3529H10M20.5 8.70588C21.4564 8.70588 22.3895 8.80641 23.2896 8.99759M20.5 8.70588C19.5436 8.70588 18.6105 8.80641 17.7104 8.99759M20.5 8.70588V11M23.2896 8.99759C23.5873 8.50054 23.7586 7.91756 23.7586 7.29412C23.7586 5.47483 22.2997 4 20.5 4C18.7003 4 17.2414 5.47483 17.2414 7.29412C17.2414 7.91756 17.4127 8.50054 17.7104 8.99759M20.5 17C20.5 18.8645 20.5 20.6042 20.5 22.3529H25.5" stroke="#53565A" stroke-width="2"/>
</svg>
