<svg width="39" height="44" viewBox="0 0 39 44" fill="none" xmlns="http://www.w3.org/2000/svg">
<g clip-path="url(#clip0_1782_76939)">
<path d="M35.1995 0.25C26.5983 0.25 18.0028 0.25 9.40169 0.25C7.44663 0.25 6.1826 1.50842 6.17698 3.45786C6.17698 4.03651 6.17697 4.60955 6.18258 5.19944V5.43539H1.80619C0.744393 5.43539 0.25 5.92978 0.25 6.99157V14.4017C0.25 15.7051 0.525293 16.0365 1.78934 16.2612L20.9185 20.1938L20.9466 24.0702C19.0815 24.514 18.0253 25.8961 18.0253 27.9129V39.9017C18.0253 41.3006 18.5983 42.3961 19.7275 43.1545C20.5197 43.6882 21.3905 43.75 22.2107 43.75C22.3399 43.75 22.4691 43.75 22.5927 43.75C25.0421 43.7219 26.5646 42.1882 26.5702 39.7556V27.8118C26.5702 26.3567 25.9635 25.2219 24.8062 24.5309C24.4579 24.323 24.0815 24.1994 23.7163 24.0758C23.677 24.0646 23.6433 24.0534 23.6039 24.0365V19.7837C23.6039 18.6882 23.2781 18.2949 22.1994 18.1039L2.44663 14.177V7.75562L6.17698 7.76123V8.25562C6.17698 8.82303 6.17698 9.4073 6.17698 9.99157C6.17698 11.9916 7.42416 13.2331 9.41292 13.2331C17.9972 13.2331 26.5815 13.2331 35.1657 13.2331C37.177 13.2331 38.4298 11.986 38.4298 9.98033C38.4298 7.81741 38.4298 5.65449 38.4298 3.49157C38.4298 1.49157 37.1882 0.25 35.1995 0.25ZM35.8287 3.62079C35.8287 5.72191 35.8287 7.81741 35.8287 9.91854C35.8287 10.5646 35.7612 10.6264 35.1096 10.6264H9.50843C8.86798 10.6264 8.80056 10.559 8.80056 9.91292V8.63764C8.80056 6.90168 8.80057 5.17135 8.81181 3.43539C8.81181 3.3118 8.85675 3.15449 8.91293 2.9691C8.91293 2.9691 8.91293 2.96348 8.91293 2.95786C8.92417 2.95786 8.92978 2.95786 8.94101 2.95225C9.13202 2.9073 9.29495 2.86797 9.42417 2.86797C11.323 2.85674 13.2219 2.85674 15.1208 2.85674H16.7388H35.0702C35.7781 2.85674 35.8343 2.91292 35.8343 3.62079H35.8287ZM20.6545 27.9747C20.6545 27.8399 20.6545 27.7051 20.6601 27.5702C20.6882 27.1657 20.9579 26.7107 21.3567 26.6601C21.6264 26.6208 21.9017 26.6096 22.177 26.6096C22.5421 26.6096 22.9186 26.632 23.295 26.6601C23.3399 26.6713 23.4691 26.75 23.5646 26.8062C23.6096 26.8343 23.6601 26.8624 23.7107 26.8961C23.7332 26.9522 23.75 27.0084 23.7725 27.0646C23.8568 27.2949 23.9466 27.5365 23.9466 27.7219C23.9747 34.0253 23.9691 35.2275 23.9579 39.9747C23.9579 40.9691 23.1994 41.132 22.75 41.1376C22.5534 41.1376 22.3567 41.1376 22.1601 41.1376H21.9747C21.0478 41.1376 20.6489 40.7444 20.6489 39.8287V27.9747H20.6545Z" fill="#53565A"/>
</g>
<defs>
<clipPath id="clip0_1782_76939">
<rect width="39" height="44" fill="white"/>
</clipPath>
</defs>
</svg>
