<svg width="42" height="45" viewBox="0 0 42 45" fill="none" xmlns="http://www.w3.org/2000/svg">
<path d="M30.6407 23.4342C30.6456 22.913 30.2374 22.372 29.5785 22.3769C28.8064 22.3868 28.0294 22.3769 27.2573 22.3769H27.0016C27.0016 22.1901 27.0016 22.0179 27.0016 21.8458C26.9967 21.6835 27.0016 21.5163 26.9672 21.359C26.8639 20.8623 26.4803 20.5574 25.9738 20.5574C24.2968 20.5574 22.6199 20.5574 20.9479 20.5574H19.3595C19.2513 20.3164 19.1431 20.0755 19.0349 19.8345C18.9021 19.5296 18.7792 19.2247 18.6316 18.9247C18.548 18.7526 18.553 18.61 18.6415 18.4329C19.3005 17.1888 19.9348 15.9348 20.5987 14.6955C20.82 14.2775 20.8249 13.8988 20.6184 13.4759C19.207 10.6236 17.8104 7.76645 16.4088 4.90434C16.2171 4.50601 15.9269 4.2552 15.4696 4.25029C14.7712 4.24537 14.2893 4.92893 14.5254 5.58299C14.5598 5.68134 14.609 5.76986 14.6532 5.86329C15.9515 8.51393 17.2498 11.1597 18.5481 13.8054C18.5874 13.8841 18.6267 13.9627 18.671 14.0611C18.1153 15.1332 17.5645 16.1905 17.0137 17.2527C16.8613 17.5379 16.7187 17.8281 16.5662 18.1182C16.3941 18.4379 16.3793 18.7575 16.5269 19.0919C16.94 20.0312 17.3481 20.9705 17.7612 21.9048C17.9579 22.3573 18.3071 22.5589 18.789 22.5589H24.9804V28.7601H24.7247C23.6477 28.7601 22.5658 28.7601 21.4888 28.7601C20.9626 28.7601 20.5741 29.0601 20.4561 29.5568C20.4364 29.6404 20.4315 29.7289 20.4315 29.8174C20.4315 30.4715 20.4217 31.1305 20.4315 31.7894C20.4364 32.173 20.2643 32.4386 19.9594 32.6304C19.5857 32.8713 19.1578 32.9549 18.7153 32.9598C16.9891 32.9648 15.2581 32.9697 13.532 32.9598C12.996 32.9598 12.6468 33.191 12.4304 33.6778C11.3239 36.1416 10.2027 38.6054 9.0913 41.0691C8.76182 41.792 8.25037 42.333 7.50288 42.6133C7.08487 42.7706 6.65212 42.7952 6.21937 42.7067C6.17019 42.6969 6.12101 42.6723 6.08167 42.6428C5.09813 41.974 4.11951 41.3052 3.13597 40.6364C3.12122 40.6265 3.10645 40.6069 3.07695 40.5823C3.22939 40.3167 3.38676 40.0512 3.53921 39.7856C5.26533 36.8399 6.98653 33.8991 8.72247 30.9534C8.89459 30.6534 8.99295 30.3485 8.87984 30.0092C8.75198 29.6207 8.42249 29.3502 8.0094 29.3355C7.56681 29.3158 7.12422 29.3257 6.68163 29.3207H6.40132V22.5638H14.963C15.5335 22.5638 15.9318 22.2491 16.0351 21.7081C16.0843 21.4721 16.0253 21.2508 15.9023 21.0541C15.4991 20.4246 15.0909 19.805 14.6827 19.1804C14.5303 18.9444 14.2991 18.8214 14.0336 18.7526C13.0943 18.5116 12.155 18.2756 11.2108 18.0395C11.0584 18.0002 10.9649 17.9264 10.8863 17.7789C9.19949 14.3955 7.51272 11.017 5.82103 7.63858C5.78661 7.57465 5.76201 7.51072 5.72267 7.4222C6.06199 7.25992 6.39148 7.09764 6.72097 6.94027C9.84863 5.43545 12.9763 3.93555 16.104 2.43074C16.5023 2.24387 16.7236 1.93897 16.7236 1.49145C16.7236 1.08329 16.5269 0.788222 16.1679 0.606267C15.8482 0.439065 15.5286 0.483328 15.2138 0.640694C14.1713 1.14722 13.1287 1.6439 12.0862 2.14551C8.91918 3.67 5.75218 5.18957 2.58518 6.70422C2.34913 6.81733 2.12292 6.93536 1.98031 7.16649C1.75409 7.53532 1.77867 7.98774 2.04915 8.32214C2.32946 8.66638 2.77206 8.79424 3.18023 8.62704C3.42611 8.52868 3.65725 8.41066 3.91788 8.29264C3.96214 8.38608 4.00148 8.45984 4.04083 8.53852C5.79645 12.0448 7.55699 15.5512 9.29785 19.0624C9.51915 19.505 9.82895 19.7607 10.3011 19.8689C11.1371 20.0607 11.9682 20.2869 12.8042 20.4984C12.8435 20.5082 12.8878 20.5279 12.9271 20.5672H5.41778C4.93092 20.5672 4.54734 20.8426 4.42931 21.2901C4.39489 21.418 4.3949 21.5508 4.3949 21.6885C4.38998 22.1458 4.3949 22.6032 4.3949 23.0753C4.31622 23.0802 4.25229 23.0949 4.19327 23.0949C3.75068 23.0949 3.30808 23.0949 2.86549 23.0949C2.27536 23.0949 1.84753 23.5228 1.84261 24.1129C1.84261 25.0817 1.84261 26.0455 1.84261 27.0143C1.84261 27.5897 2.24094 28.0077 2.81631 28.0323C3.25398 28.052 3.68674 28.0372 4.12442 28.0372H4.38998C4.38998 28.1356 4.39981 28.2143 4.39981 28.2929C4.39981 28.9421 4.41948 29.5912 4.39981 30.2404C4.38014 30.8354 4.80799 31.337 5.47188 31.3272C5.69809 31.3222 5.92921 31.3272 6.19477 31.3272C6.14067 31.4304 6.10134 31.4993 6.06692 31.5681C4.37523 34.4548 2.68353 37.3464 0.986922 40.2282C0.839391 40.479 0.711535 40.7347 0.760712 41.0396C0.814806 41.3691 0.991843 41.6002 1.26723 41.7822C2.40322 42.5494 3.55396 43.2968 4.66045 44.1033C5.8407 44.9689 7.0898 44.9148 8.35365 44.423C9.52898 43.9657 10.3748 43.11 10.901 41.9592C11.9288 39.7266 12.9369 37.4792 13.95 35.2367C13.9893 35.1531 14.0287 35.0646 14.0729 34.9761H14.3483C14.3139 35.1925 14.2795 35.4039 14.2549 35.6105C14.1713 36.2104 14.1467 36.8153 14.2008 37.4202C14.2549 37.9956 14.3582 38.5562 14.5745 39.0922C14.8253 39.7118 15.1942 40.2528 15.7695 40.6167C16.0449 40.7888 16.3351 40.8527 16.6547 40.7495C17.3924 40.5085 17.6088 39.5397 16.999 39.0627C16.5711 38.7332 16.3744 38.3103 16.2712 37.8234C16.0843 36.894 16.1433 35.9744 16.399 35.0695C16.4039 35.0449 16.4236 35.0154 16.4482 34.9712H16.6793C17.4022 34.9712 18.1251 34.9859 18.848 34.9663C19.5906 34.9466 20.3135 34.7843 20.9577 34.3909C21.9314 33.7958 22.4576 32.9352 22.4576 31.7796V30.7665H22.7183C23.7903 30.7665 24.8624 30.7469 25.9295 30.7715C26.5246 30.7862 27.0458 30.3239 27.0212 29.6748C27.0114 29.3797 27.0212 29.0847 27.0212 28.765H27.2819C28.049 28.765 28.8162 28.7552 29.5834 28.765C30.2374 28.7749 30.6751 28.2487 30.6653 27.6831C30.6407 26.2619 30.6407 24.8505 30.6653 23.4293L30.6407 23.4342ZM4.3703 26.0111H3.84411V25.1112H4.3703V26.0111ZM28.6195 26.7488H27.0114V24.3981H28.6195V26.7488Z" fill="#53565A"/>
<path d="M7.46094 7.71634C7.51011 7.8737 7.53962 8.04582 7.61339 8.19335C8.84281 10.6325 10.0821 13.0717 11.3164 15.5109C11.4295 15.7371 11.6016 15.9043 11.8279 16.0125C12.6639 16.401 13.495 16.7944 14.3359 17.1731C14.9949 17.4681 15.6637 17.0944 15.7719 16.3813C15.8358 15.983 15.5948 15.5601 15.1768 15.3634C14.5228 15.0536 13.8687 14.7487 13.2097 14.4536C13.0327 14.3749 12.9196 14.2569 12.8311 14.0848C11.6951 11.8325 10.5542 9.58999 9.42311 7.33768C9.24116 6.97869 8.9756 6.74756 8.57727 6.70821C7.98714 6.6492 7.50028 7.11146 7.46586 7.71634H7.46094Z" fill="#53565A"/>
<path d="M36.5273 21.1994C36.5273 20.6437 36.0945 20.2109 35.5339 20.2109C34.9585 20.2109 34.4815 20.6732 34.4766 21.2338C34.4766 21.7846 34.9093 22.2321 35.465 22.2419C36.0306 22.2518 36.5273 21.76 36.5273 21.1944V21.1994Z" fill="#53565A"/>
<path d="M31.3281 27.6808C31.3281 28.2562 31.8051 28.7234 32.3904 28.7234C32.9411 28.7234 33.3788 28.2808 33.3788 27.7251C33.3788 27.1743 32.887 26.6875 32.3264 26.6875C31.7806 26.6875 31.3281 27.1399 31.3281 27.6857V27.6808Z" fill="#53565A"/>
<path d="M39.6708 19.2073C39.6708 18.6516 39.2331 18.2139 38.6774 18.2188C38.1021 18.2188 37.6201 18.7008 37.625 19.2712C37.625 19.8023 38.0824 20.2646 38.6135 20.2548C39.2184 20.24 39.7101 19.7384 39.6708 19.2073Z" fill="#53565A"/>
<path d="M31.3281 23.2231C31.3281 23.7837 31.756 24.2164 32.3166 24.2214C32.9018 24.2214 33.3788 23.7591 33.3788 23.1837C33.3788 22.628 32.9411 22.1953 32.3805 22.1953C31.8002 22.1953 31.3281 22.6575 31.3281 23.2231Z" fill="#53565A"/>
<path d="M39.6709 31.6919C39.6709 31.1313 39.189 30.6641 38.6185 30.6641C38.0628 30.6641 37.6153 31.1215 37.6252 31.6821C37.6301 32.223 38.1464 32.7148 38.6972 32.705C39.2431 32.6951 39.6808 32.2427 39.6758 31.6919H39.6709Z" fill="#53565A"/>
<path d="M34.4766 29.7027C34.4815 30.2535 34.9831 30.7305 35.5438 30.7256C36.0995 30.7256 36.5371 30.2633 36.5273 29.6928C36.5175 29.147 36.0109 28.67 35.4503 28.6798C34.9044 28.6896 34.4717 29.1519 34.4766 29.7027Z" fill="#53565A"/>
<path d="M37.5434 26.5513C38.1286 26.5513 38.5663 26.1333 38.5712 25.5727C38.5712 24.9973 38.1335 24.5547 37.5483 24.5547C36.9828 24.5547 36.5205 24.9924 36.5156 25.5432C36.5156 26.1186 36.9533 26.5513 37.5434 26.5513Z" fill="#53565A"/>
<path d="M34.2503 26.5562C34.8208 26.5562 35.2683 26.1136 35.2634 25.553C35.2634 25.0071 34.8011 24.5498 34.2602 24.5547C33.7143 24.5547 33.2373 25.0317 33.2422 25.5677C33.2471 26.1185 33.6897 26.5513 34.2503 26.5513V26.5562Z" fill="#53565A"/>
<path d="M40.8666 26.5563C41.4272 26.5563 41.86 26.1186 41.86 25.558C41.86 25.0121 41.4076 24.5547 40.8666 24.5547C40.3158 24.5547 39.8438 25.0269 39.8438 25.5678C39.8438 26.1333 40.2913 26.5612 40.8666 26.5563Z" fill="#53565A"/>
</svg>
