<svg width="40" height="40" viewBox="0 0 40 40" fill="none" xmlns="http://www.w3.org/2000/svg">
<g id="Frame 35139">
<g id="Group">
<path id="Vector" d="M39.0369 16.1534C38.781 14.7557 38.0133 13.6731 36.7436 12.9447C35.9955 12.5215 35.2574 12.0884 34.5192 11.6652C33.9483 11.3305 33.3676 10.9959 32.7967 10.6711L32.6687 10.5923C32.3735 10.4152 25.8183 6.60608 25.5033 6.45844L25.2671 6.32064C23.6726 5.39544 22.088 4.48008 20.4935 3.56472C19.5978 3.06275 18.6332 2.89542 17.6194 3.06275C16.1726 3.28913 15.0505 4.07654 14.3123 5.39544C14.2434 5.5234 14.1647 5.64151 14.0958 5.75962L13.9678 5.97616C13.9678 5.97616 13.9285 5.97616 13.9088 5.97616C12.0977 5.47418 10.267 5.19859 8.28864 5.11985H8.24929C7.94417 5.11985 7.66858 5.20843 7.45204 5.37576C7.22566 5.55292 7.08786 5.81867 7.07802 6.11395C7.06818 6.3797 7.15674 6.61592 7.33391 6.81277C7.5406 7.02931 7.82606 7.15726 8.16071 7.15726C9.31229 7.19663 10.5525 7.33443 11.8222 7.56081C12.0781 7.61002 12.3339 7.67892 12.5997 7.74782C12.6981 7.76751 12.8064 7.79703 12.9147 7.82656L12.1666 9.1061C10.7394 11.5963 9.32212 14.0471 7.90479 16.488C7.79652 16.4585 7.70793 16.4388 7.61935 16.4093C6.46777 16.0747 5.41463 15.9073 4.44021 15.9467C3.87918 15.9664 3.45595 16.3699 3.42643 16.9113C3.40674 17.4428 3.8398 17.9054 4.39098 17.9546H4.67642C4.93233 17.9841 5.19807 18.0038 5.43429 18.0333L5.54258 18.053C5.98549 18.1121 6.41855 18.1613 6.85163 18.3188C6.81226 18.3877 6.78273 18.4566 6.73352 18.5255C6.53667 18.8699 6.32999 19.2243 6.13314 19.5688C5.72959 20.2578 5.30636 20.9763 4.93234 21.6948C4.17446 23.1219 4.19414 24.5786 4.98154 26.0255C5.37525 26.7834 6.00516 27.3838 6.94021 27.9054L8.30834 28.6929C10.4048 29.9035 12.5013 31.1141 14.5879 32.3248C14.7257 32.4035 14.8635 32.5216 14.9816 32.6693C15.8871 33.7323 16.7927 34.6082 17.7474 35.3366C17.9245 35.4646 17.9934 35.6024 17.9934 35.8484V36.8228C17.9934 36.9213 18.082 37 18.1805 37H19.8635C19.962 37 20.0505 36.9213 20.0505 36.8228V35.248C20.0505 34.6083 19.6864 34.2441 19.3714 34.0078C17.0682 32.3051 15.3064 30.1003 14.145 27.4724C13.8497 26.8031 13.6233 26.0846 13.3969 25.3956L13.2985 25.0708C13.1607 24.6475 13.3576 24.1751 13.7808 23.9389C14.1942 23.7125 14.6765 23.7912 15.0013 24.1456C15.0997 24.244 15.1785 24.3621 15.2572 24.4901C15.5919 25.0019 15.9068 25.5039 16.2316 26.0058C16.5859 26.5767 16.9501 27.1377 17.3242 27.7184C17.3832 27.8169 17.4422 27.9054 17.521 28.0137C17.8163 28.3582 18.1706 28.4665 18.5643 28.368C18.9974 28.2499 19.2631 27.9547 19.332 27.4921C19.3517 27.3641 19.3517 27.2362 19.3517 27.1279V15.3168C19.3419 15.238 19.3419 15.1494 19.3517 15.0609C19.3714 14.677 19.6569 14.3916 20.0309 14.3817H20.0505C20.4147 14.3817 20.71 14.6475 20.7592 15.0215C20.7592 15.1494 20.7592 15.2774 20.7592 15.3955V22.4133C20.7592 23.0826 21.1135 23.3582 21.4088 23.4763C21.6844 23.5845 21.7027 23.5353 21.9586 23.3975C22.2145 23.2597 22.3819 23.0235 22.4409 22.7578C22.5 22.5019 22.5 22.246 22.5 22.0589V13.6042C22.5 13.4565 22.5 13.299 22.5197 13.1416C22.5394 12.7577 22.8163 12.0392 23.4758 12.0392H23.4954C24.1844 12.0392 24.3339 12.7183 24.3339 13.1809V13.6534C24.3339 16.4684 24.3339 19.2735 24.3437 22.0983C24.3437 22.3149 24.3438 22.5412 24.393 22.7578C24.4816 23.2401 24.7455 23.5452 25.1982 23.5452H25.2278C25.7297 23.5452 26.1628 23.1515 26.2218 22.6593C26.2415 22.5412 26.2415 22.4231 26.2415 22.3247V15.2971C26.2415 15.1199 26.2612 14.9526 26.3104 14.8148C26.4187 14.5195 26.714 14.3325 27.0585 14.3916C27.3636 14.4309 27.6195 14.6967 27.649 15.0215C27.6589 15.1494 27.6589 15.2774 27.6589 15.3955V22.2952C27.6589 22.5117 27.6884 22.7184 27.7376 22.8956C27.8754 23.2794 28.3085 23.5747 28.7022 23.5452C29.1353 23.5353 29.529 23.2302 29.6274 22.8267C29.6864 22.6397 29.716 22.433 29.716 22.2361V21.3404C29.7061 20.7499 29.7061 20.1593 29.716 19.5786C29.716 19.3522 29.7849 19.1751 29.9128 19.057C30.0506 18.9388 30.2376 18.8896 30.4738 18.8995C30.7691 18.8995 30.9955 19.0865 31.0644 19.3818C31.1038 19.5196 31.1235 19.6967 31.1235 19.9231C31.1333 21.8818 31.1333 23.8306 31.1333 25.7893C31.1235 28.683 30.2376 31.2322 28.525 33.3779C28.2593 33.6929 28.0526 33.9193 27.8459 34.1358C27.5408 34.4409 27.403 34.7854 27.4128 35.2185V36.8228C27.4128 36.9213 27.4916 37 27.5998 37H29.273C29.3715 37 29.4502 36.9213 29.4502 36.8228V35.8681C29.4502 35.5335 29.5388 35.2972 29.7356 35.0709C31.2219 33.4075 32.2357 31.4586 32.777 29.2637C32.8262 29.0767 32.8853 28.9291 32.9542 28.8011L36.527 22.62C36.7534 22.2164 36.9896 21.8129 37.216 21.4093C37.6196 20.7007 38.0231 19.992 38.4365 19.2932C39.027 18.2991 39.2239 17.2459 39.0271 16.1632L39.0369 16.1534ZM36.6944 18.2794C35.5034 20.3267 34.3223 22.3641 33.151 24.4113V19.5589C33.151 18.7125 32.7672 17.9251 32.088 17.4034C31.4384 16.8916 30.5723 16.6947 29.8636 16.8817C29.8144 16.8916 29.775 16.9014 29.7258 16.9113V15.8187C29.716 15.425 29.7061 15.0215 29.6471 14.6278C29.5486 13.929 29.1845 13.3089 28.5939 12.8758C28.0132 12.4427 27.2848 12.2557 26.5959 12.364C26.4974 12.3837 26.399 12.4034 26.3006 12.4132C26.2514 12.423 26.2022 12.4329 26.153 12.4427C25.6805 11.1238 24.7848 10.4644 23.4758 10.4644H23.4462C22.2061 10.4841 21.3399 11.1534 20.8576 12.4329C20.8084 12.423 20.7691 12.4231 20.71 12.4034C19.8931 12.2262 19.1352 12.3738 18.456 12.8561C17.6883 13.3975 17.2946 14.2144 17.2946 15.2577C17.2848 16.7144 17.2848 18.1711 17.2848 19.6278V23.8601C17.1175 23.6042 16.9698 23.3778 16.8123 23.1515C16.0938 22.118 15.0997 21.6652 13.8891 21.803C13.0229 21.9113 12.2454 22.3837 11.7434 23.1023C11.2611 23.8109 11.1036 24.6869 11.3103 25.5137C11.5662 26.5669 11.9402 27.62 12.4717 28.7322L11.2414 28.0334C10.7493 27.748 10.2572 27.4625 9.76503 27.1771C9.07604 26.7834 8.38707 26.3798 7.70793 25.9763C6.83194 25.4645 6.39887 24.6771 6.41855 23.6436C6.44808 23.1416 6.66464 22.6987 6.90086 22.2952C8.16071 20.12 9.42055 17.9447 10.6706 15.7695C11.3497 14.5983 12.0288 13.427 12.708 12.2459C13.8202 10.3266 14.9225 8.39743 16.0446 6.47813C16.2415 6.12379 16.4678 5.83836 16.7041 5.63166C17.5112 4.93284 18.6135 4.84426 19.5879 5.39544C20.3753 5.8482 21.1529 6.29112 21.9403 6.74388C22.7179 7.19664 23.5053 7.6494 24.3025 8.10215C24.4403 8.19074 30.9463 11.9801 31.1136 12.0392L35.7396 14.7164C36.2022 14.9821 36.5172 15.2872 36.7337 15.6711C37.216 16.5373 37.1963 17.3837 36.6944 18.2794Z" fill="#53565A"/>
<path id="Vector_2" d="M6.42097 12.6805C6.55877 12.7002 6.69658 12.7198 6.83437 12.7395C7.10012 12.7789 7.37572 12.8183 7.64147 12.8478C7.671 12.8478 7.71035 12.8478 7.73987 12.8478C8.22216 12.8478 8.60604 12.523 8.71431 12.0112C8.81274 11.5289 8.54697 11.0761 8.05484 10.9088C7.9072 10.8498 7.76942 10.8202 7.64147 10.8005C5.90918 10.525 4.19654 10.4364 2.51346 10.5348C2.1985 10.5545 1.79496 10.5742 1.56858 10.8891C1.42094 11.0958 1.34221 11.3419 1.33237 11.588C1.32253 11.9521 1.52922 12.2769 1.85402 12.4049C2.10993 12.5033 2.41503 12.5722 2.66109 12.5427C4.06858 12.4836 5.29893 12.5328 6.41115 12.6805H6.42097Z" fill="#53565A"/>
</g>
</g>
</svg>
