<svg width="72" height="122" viewBox="0 0 72 122" fill="none" xmlns="http://www.w3.org/2000/svg">
<g clip-path="url(#clip0_1635_64500)">
<path d="M13.5483 116.427C13.5483 116.977 14.0223 117.41 14.4963 117.41C15.0493 117.41 15.5233 117.017 15.5233 116.427C15.5233 115.876 15.0493 115.443 14.4963 115.443C14.0223 115.483 13.5483 115.915 13.5483 116.427Z" fill="white"/>
<path d="M70.0337 3.068C70.0337 3.61867 70.5077 4.05133 70.9817 4.05133C71.5347 4.05133 72.0087 3.658 72.0087 3.068C72.0087 2.51733 71.5347 2.04533 70.9817 2.04533C70.5077 2.08467 70.0337 2.51733 70.0337 3.068Z" fill="#D5D5D5"/>
<path d="M23.7002 105.138C23.7002 106.397 24.7272 107.38 25.9517 107.38C27.2157 107.38 28.2427 106.357 28.2427 105.138C28.2427 103.879 27.2157 102.817 25.9517 102.817C24.6877 102.817 23.7002 103.879 23.7002 105.138Z" fill="white"/>
<path d="M12.6797 105.099C12.6797 106.121 13.5092 106.908 14.4967 106.908C15.5237 106.908 16.3137 106.082 16.3137 105.099C16.3137 104.076 15.5237 103.25 14.4967 103.25C13.5487 103.25 12.6797 104.115 12.6797 105.099Z" fill="white"/>
<path d="M3.12051 103.132C2.01451 103.132 1.14551 104.037 1.14551 105.138C1.14551 106.2 2.01451 107.105 3.12051 107.105C4.18701 107.105 5.09551 106.2 5.09551 105.138C5.13501 103.997 4.22651 103.132 3.12051 103.132Z" fill="white"/>
<path d="M24.4507 93.7313C24.4507 94.5967 25.1222 95.2653 25.9517 95.2653C26.7812 95.2653 27.4922 94.5967 27.4922 93.7313C27.4922 92.9053 26.7812 92.2367 25.9517 92.2367C25.1222 92.2367 24.4507 92.9053 24.4507 93.7313Z" fill="#D5D5D5"/>
<path d="M11.7314 93.7313C11.7314 95.2653 12.9954 96.524 14.4964 96.524C16.0764 96.524 17.3404 95.2653 17.3404 93.7313C17.3404 92.2367 16.0764 90.978 14.4964 90.978C12.9954 90.978 11.7314 92.2367 11.7314 93.7313Z" fill="#E6E6E6"/>
<path d="M4.89821 93.7313C4.89821 92.748 4.10821 91.9613 3.08121 91.9613C2.05421 91.9613 1.30371 92.748 1.30371 93.7313C1.30371 94.754 2.09371 95.5407 3.08121 95.5407C4.06871 95.5407 4.89821 94.754 4.89821 93.7313Z" fill="#D5D5D5"/>
<path d="M24.4507 82.4033C24.4507 83.2293 25.1222 83.9373 25.9517 83.9373C26.7812 83.9373 27.4922 83.2293 27.4922 82.4033C27.4922 81.5773 26.7812 80.8693 25.9517 80.8693C25.1222 80.9087 24.4507 81.6167 24.4507 82.4033Z" fill="white"/>
<path d="M12.2451 82.4427C12.2451 83.7013 13.2721 84.6847 14.4966 84.6847C15.7606 84.6847 16.7876 83.662 16.7876 82.4427C16.7876 81.184 15.7606 80.1613 14.4966 80.1613C13.2721 80.1613 12.2451 81.2233 12.2451 82.4427Z" fill="white"/>
<path d="M3.08111 80.5547C2.05411 80.5547 1.22461 81.3807 1.22461 82.4033C1.22461 83.426 2.05411 84.252 3.08111 84.252C4.10811 84.252 4.97711 83.426 4.97711 82.4033C4.97711 81.3807 4.14761 80.5547 3.08111 80.5547Z" fill="#F7F7F7"/>
<path d="M35.8662 71.0753C35.8662 71.9407 36.5377 72.6093 37.3672 72.6093C38.1967 72.6093 38.9077 71.9407 38.9077 71.0753C38.9077 70.2493 38.1967 69.5807 37.3672 69.5807C36.5377 69.5807 35.8662 70.2493 35.8662 71.0753Z" fill="#F7F7F7"/>
<path d="M25.9517 68.8333C24.6877 68.8333 23.7002 69.856 23.7002 71.0753C23.7002 72.334 24.7272 73.3567 25.9517 73.3567C27.2157 73.3567 28.2427 72.334 28.2427 71.0753C28.2427 69.8167 27.2157 68.8333 25.9517 68.8333Z" fill="#F7F7F7"/>
<path d="M12.8374 71.0753C12.8374 72.0193 13.5879 72.7667 14.5359 72.7667C15.4839 72.7667 16.2344 71.98 16.2344 71.0753C16.2344 70.1313 15.4444 69.384 14.5359 69.384C13.5484 69.4233 12.8374 70.1313 12.8374 71.0753Z" fill="#D5D5D5"/>
<path d="M3.12041 73.1207C4.22641 73.1207 5.17441 72.216 5.17441 71.0753C5.17441 69.9347 4.22641 69.03 3.12041 69.03C1.97491 69.03 1.06641 69.9347 1.06641 71.0753C1.06641 72.216 1.93541 73.1207 3.12041 73.1207Z" fill="#E6E6E6"/>
<path d="M50.5602 59.7473C50.5602 58.9213 49.8887 58.2527 49.0592 58.2527C48.2297 58.2527 47.5977 58.9213 47.5977 59.7473C47.5977 60.534 48.2297 61.2027 49.0592 61.2027C49.8887 61.242 50.5602 60.5733 50.5602 59.7473Z" fill="#F7F7F7"/>
<path d="M40.0923 59.7473C40.0923 58.292 38.8678 57.112 37.4063 57.112C35.9843 57.112 34.7598 58.3313 34.7598 59.7473C34.7598 61.1633 36.0238 62.3827 37.4063 62.3827C38.8678 62.422 40.0923 61.2027 40.0923 59.7473Z" fill="#D5D5D5"/>
<path d="M27.7289 59.7473C27.7289 58.764 26.9389 58.0167 25.9514 58.0167C24.9639 58.0167 24.2134 58.8033 24.2134 59.7473C24.2134 60.7307 25.0034 61.478 25.9514 61.478C26.9389 61.5173 27.7289 60.7307 27.7289 59.7473Z" fill="#E6E6E6"/>
<path d="M14.536 61.714C15.6025 61.714 16.511 60.8093 16.511 59.7473C16.511 58.646 15.6025 57.7807 14.536 57.7807C13.43 57.7807 12.561 58.646 12.561 59.7473C12.561 60.8093 13.43 61.714 14.536 61.714Z" fill="#E6E6E6"/>
<path d="M3.12044 62.186C4.46344 62.186 5.52994 61.124 5.52994 59.7867C5.52994 58.4493 4.46344 57.3873 3.12044 57.3873C1.77744 57.3873 0.710937 58.4493 0.710937 59.7867C0.710937 61.0847 1.77744 62.186 3.12044 62.186Z" fill="#E6E6E6"/>
<path d="M38.8678 48.38C38.8678 47.5933 38.1963 46.9247 37.3668 46.9247C36.5373 46.9247 35.9053 47.5933 35.9053 48.38C35.9053 49.206 36.5373 49.8747 37.3668 49.8747C38.1963 49.914 38.8678 49.2453 38.8678 48.38Z" fill="#E6E6E6"/>
<path d="M23.8184 48.38C23.8184 49.5993 24.8059 50.5433 25.9514 50.5433C27.2154 50.5433 28.1239 49.5993 28.1239 48.38C28.1239 47.2 27.2154 46.256 25.9514 46.256C24.7664 46.2953 23.8184 47.2 23.8184 48.38Z" fill="#E6E6E6"/>
<path d="M16.2738 48.38C16.2738 47.3967 15.4838 46.6493 14.4963 46.6493C13.5088 46.6493 12.7583 47.436 12.7583 48.38C12.7583 49.4027 13.5483 50.15 14.4963 50.15C15.5233 50.15 16.2738 49.4027 16.2738 48.38Z" fill="#E6E6E6"/>
<path d="M3.12028 50.386C4.18678 50.386 5.09528 49.5207 5.09528 48.4193C5.09528 47.3573 4.18678 46.492 3.12028 46.492C2.01428 46.492 1.14528 47.3573 1.14528 48.4193C1.10578 49.4813 2.01428 50.386 3.12028 50.386Z" fill="#F7F7F7"/>
<path d="M50.4812 37.052C50.4812 36.2653 49.8492 35.636 49.0592 35.636C48.3087 35.636 47.6372 36.2653 47.6372 37.052C47.6372 37.8387 48.3087 38.468 49.0592 38.468C49.8492 38.5073 50.4812 37.878 50.4812 37.052Z" fill="#E6E6E6"/>
<path d="M37.3669 34.928C36.1819 34.928 35.2339 35.872 35.2339 37.0913C35.2339 38.2713 36.2214 39.2547 37.3669 39.2547C38.6309 39.2547 39.5394 38.232 39.5394 37.0913C39.5394 35.872 38.6309 34.928 37.3669 34.928Z" fill="#F7F7F7"/>
<path d="M24.4111 37.0913C24.4111 37.9567 25.1221 38.6253 25.9516 38.6253C26.7811 38.6253 27.4921 37.9173 27.4921 37.0913C27.4921 36.2653 26.7811 35.5573 25.9516 35.5573C25.1221 35.518 24.4111 36.226 24.4111 37.0913Z" fill="#E6E6E6"/>
<path d="M14.5362 38.94C15.5632 38.94 16.3927 38.114 16.3927 37.0913C16.3927 36.0687 15.5632 35.2033 14.5362 35.2033C13.5092 35.2033 12.6797 36.0293 12.6797 37.0913C12.6797 38.114 13.5092 38.94 14.5362 38.94Z" fill="#E6E6E6"/>
<path d="M3.08119 39.2547C4.34519 39.2547 5.29319 38.2713 5.29319 37.0913C5.29319 35.872 4.26619 34.8887 3.08119 34.8887C1.89619 34.8887 0.908691 35.9113 0.908691 37.0913C0.908691 38.3107 1.89619 39.2547 3.08119 39.2547Z" fill="#E6E6E6"/>
<path d="M61.383 25.724C61.383 25.0553 60.83 24.4653 60.119 24.4653C59.4475 24.4653 58.855 25.016 58.855 25.724C58.855 26.432 59.408 26.9827 60.119 26.9827C60.83 26.9827 61.383 26.432 61.383 25.724Z" fill="#F7F7F7"/>
<path d="M51.2712 25.724C51.2712 24.5047 50.2442 23.5213 49.0197 23.5213C47.8347 23.5213 46.8472 24.544 46.8472 25.724C46.8472 26.9827 47.8742 27.9267 49.0197 27.9267C50.2837 27.9267 51.2712 26.9827 51.2712 25.724Z" fill="#E6E6E6"/>
<path d="M38.9867 25.724C38.9867 24.8587 38.2757 24.1507 37.4067 24.1507C36.5377 24.1507 35.8267 24.8587 35.8267 25.724C35.8267 26.5893 36.5377 27.2973 37.4067 27.2973C38.2757 27.2973 38.9867 26.5893 38.9867 25.724Z" fill="#E6E6E6"/>
<path d="M27.6894 25.724C27.6894 24.78 26.8994 23.9933 25.9909 23.9933C25.0034 23.9933 24.2529 24.78 24.2529 25.724C24.2529 26.7073 25.0429 27.4547 25.9909 27.4547C26.9389 27.494 27.6894 26.7073 27.6894 25.724Z" fill="#E6E6E6"/>
<path d="M14.4963 27.8873C15.7208 27.8873 16.6688 26.9433 16.6688 25.724C16.6688 24.544 15.7208 23.6 14.4963 23.6C13.3113 23.6 12.3633 24.544 12.3633 25.724C12.4028 26.9433 13.3113 27.8873 14.4963 27.8873Z" fill="#E6E6E6"/>
<path d="M3.08117 28.32C4.54267 28.32 5.68817 27.1793 5.68817 25.724C5.68817 24.308 4.54267 23.1673 3.08117 23.1673C1.65917 23.1673 0.513672 24.308 0.513672 25.724C0.553172 27.1793 1.69867 28.32 3.08117 28.32Z" fill="#E6E6E6"/>
<path d="M61.383 14.396C61.383 13.688 60.83 13.1373 60.119 13.1373C59.4475 13.1373 58.855 13.688 58.855 14.396C58.855 15.0647 59.408 15.6547 60.119 15.6547C60.83 15.6547 61.383 15.0647 61.383 14.396Z" fill="#E6E6E6"/>
<path d="M51.2712 14.396C51.2712 13.1373 50.2442 12.1933 49.0197 12.1933C47.8347 12.1933 46.8472 13.1373 46.8472 14.396C46.8472 15.6153 47.8742 16.5987 49.0197 16.5987C50.2837 16.5987 51.2712 15.6153 51.2712 14.396Z" fill="#F7F7F7"/>
<path d="M39.5788 14.396C39.5788 13.1373 38.5518 12.1933 37.3668 12.1933C36.1818 12.1933 35.1548 13.1373 35.1548 14.396C35.1548 15.6153 36.1818 16.5987 37.3668 16.5987C38.6308 16.5987 39.5788 15.6153 39.5788 14.396Z" fill="#E6E6E6"/>
<path d="M29.0721 14.396C29.0721 12.6653 27.6896 11.2887 25.9911 11.2887C24.2531 11.2887 22.8311 12.6653 22.8311 14.396C22.8311 16.0873 24.2531 17.5033 25.9911 17.5033C27.6896 17.5033 29.0721 16.1267 29.0721 14.396Z" fill="#F7F7F7"/>
<path d="M14.4965 18.2113C16.669 18.2113 18.3675 16.52 18.3675 14.396C18.3675 12.272 16.669 10.5413 14.4965 10.5413C12.3635 10.5413 10.665 12.272 10.665 14.396C10.665 16.52 12.403 18.2113 14.4965 18.2113Z" fill="#E6E6E6"/>
<path d="M3.12065 17.3853C4.81915 17.3853 6.12265 16.048 6.12265 14.396C6.12265 12.7047 4.77965 11.4067 3.12065 11.4067C1.42215 11.4067 0.118652 12.744 0.118652 14.396C0.118652 16.048 1.46165 17.3853 3.12065 17.3853Z" fill="#E6E6E6"/>
<path d="M60.0797 1.61267C59.3292 1.61267 58.6577 2.242 58.6577 3.02867C58.6577 3.81534 59.3292 4.44467 60.0797 4.44467C60.9092 4.44467 61.5412 3.81534 61.5412 3.02867C61.5807 2.28134 60.9487 1.61267 60.0797 1.61267Z" fill="#E6E6E6"/>
<path d="M51.1523 3.02867C51.1523 1.84867 50.1648 0.944001 49.0193 0.944C47.9133 0.944 46.9258 1.84867 46.9258 3.02867C46.9258 4.20867 47.9133 5.15267 49.0193 5.15267C50.2438 5.15267 51.1523 4.20867 51.1523 3.02867Z" fill="#D5D5D5"/>
<path d="M40.2899 3.02867C40.2899 1.45534 39.0259 0.196671 37.4459 0.196671C35.8659 0.196671 34.5229 1.45534 34.5229 3.02867C34.5229 4.64134 35.8659 5.93934 37.4459 5.93934C39.0259 5.93934 40.2899 4.68067 40.2899 3.02867Z" fill="#F7F7F7"/>
<path d="M28.8743 3.02867C28.8743 1.45534 27.5313 0.196671 25.9513 0.196671C24.3713 0.196671 23.0283 1.45534 23.0283 3.02867C23.0283 4.64134 24.3713 5.93934 25.9513 5.93934C27.5313 5.93934 28.8743 4.68067 28.8743 3.02867Z" fill="#E6E6E6"/>
<path d="M14.4964 0.27533C12.9559 0.27533 11.6919 1.534 11.6919 3.068C11.6919 4.602 12.9559 5.9 14.4964 5.9C16.0369 5.9 17.3404 4.64133 17.3404 3.068C17.3404 1.534 16.0764 0.27533 14.4964 0.27533Z" fill="#F7F7F7"/>
<path d="M3.081 6.136C4.7795 6.136 6.162 4.75933 6.162 3.068C6.162 1.37667 4.7795 4.17057e-07 3.081 2.68847e-07C1.3825 1.20636e-07 -1.20577e-07 1.37667 -2.68715e-07 3.068C0.0394996 4.79867 1.422 6.136 3.081 6.136Z" fill="#E6E6E6"/>
</g>
<defs>
<clipPath id="clip0_1635_64500">
<rect width="72" height="122" fill="white"/>
</clipPath>
</defs>
</svg>
