<svg width="185" height="290" viewBox="0 0 185 290" fill="none" xmlns="http://www.w3.org/2000/svg">
<g clip-path="url(#clip0_1569_68050)">
<path d="M15.1702 6.01517C11.7477 6.01517 8.97266 8.79117 8.97266 12.1224C8.97266 15.4536 11.8402 18.3221 15.1702 18.3221C18.5927 18.3221 21.2752 15.4536 21.2752 12.1224C21.3677 8.79117 18.5927 6.01517 15.1702 6.01517Z" fill="#E6E6E6"/>
<path d="M15.17 32.8499C11.84 32.8499 9.15747 35.5333 9.15747 38.8645C9.15747 42.1957 11.84 44.8792 15.17 44.8792C18.5 44.8792 21.1825 42.1957 21.1825 38.8645C21.1825 35.6259 18.5 32.8499 15.17 32.8499Z" fill="#E6E6E6"/>
<path d="M41.81 42.1957C43.66 42.1957 45.2325 40.7152 45.2325 38.8645C45.2325 37.0138 43.7525 35.4408 41.81 35.4408C39.96 35.4408 38.48 36.9213 38.48 38.8645C38.5725 40.7152 40.0525 42.1957 41.81 42.1957Z" fill="#F7F7F7"/>
<path d="M15.0775 58.6666C11.3775 58.6666 8.32495 61.7202 8.32495 65.4215C8.32495 69.1229 11.3775 72.269 15.0775 72.269C18.87 72.269 21.9225 69.2154 21.9225 65.4215C22.015 61.7202 18.87 58.6666 15.0775 58.6666Z" fill="#E6E6E6"/>
<path d="M41.9025 59.6845C38.665 59.6845 36.075 62.1829 36.075 65.4216C36.075 68.6602 38.665 71.1586 41.9025 71.1586C45.0475 71.1586 47.6375 68.6602 47.6375 65.4216C47.6375 62.1829 45.0475 59.6845 41.9025 59.6845Z" fill="#E6E6E6"/>
<path d="M68.6351 68.9378C70.4851 68.9378 72.0576 67.4573 72.0576 65.5141C72.0576 63.6634 70.5776 62.0904 68.6351 62.0904C66.7851 62.0904 65.2126 63.6634 65.2126 65.5141C65.2126 67.4573 66.7851 68.9378 68.6351 68.9378Z" fill="#F7F7F7"/>
<path d="M15.0775 85.5939C11.47 85.5939 8.51001 88.555 8.51001 92.2563C8.51001 95.8651 11.47 98.8262 15.0775 98.8262C18.685 98.8262 21.7375 95.8651 21.7375 92.2563C21.7375 88.555 18.7775 85.5939 15.0775 85.5939Z" fill="#F7F7F7"/>
<path d="M41.9025 86.6117C38.85 86.6117 36.3525 89.1101 36.3525 92.2562C36.3525 95.4024 38.7575 97.8082 41.9025 97.8082C44.8625 97.8082 47.4525 95.3098 47.4525 92.2562C47.4525 89.1101 44.955 86.6117 41.9025 86.6117Z" fill="#E6E6E6"/>
<path d="M65.2126 92.1637C65.2126 94.0144 66.7851 95.5875 68.6351 95.5875C70.5776 95.5875 72.0576 94.0144 72.0576 92.1637C72.0576 90.2205 70.5776 88.74 68.6351 88.74C66.7851 88.74 65.2126 90.2205 65.2126 92.1637Z" fill="#E6E6E6"/>
<path d="M15.17 113.631C12.21 113.631 9.98999 115.945 9.98999 118.721C9.98999 121.589 12.395 123.903 15.17 123.903C17.945 123.903 20.35 121.589 20.35 118.813C20.35 115.945 18.0375 113.631 15.17 113.631Z" fill="#D5D5D5"/>
<path d="M35.8901 118.906C35.8901 122.237 38.4801 125.013 41.9026 125.013C45.2326 125.013 48.0076 122.237 48.0076 118.906C48.0076 115.575 45.2326 112.891 41.9026 112.891C38.5726 112.891 35.8901 115.482 35.8901 118.906Z" fill="#F7F7F7"/>
<path d="M15.17 152.033C18.685 152.033 21.7375 149.072 21.7375 145.463C21.7375 141.854 18.7775 138.893 15.17 138.893C11.5625 138.893 8.60254 141.762 8.60254 145.463C8.69504 149.164 11.5625 152.033 15.17 152.033Z" fill="#E6E6E6"/>
<path d="M37.6475 145.556C37.6475 147.961 39.4975 149.72 41.9025 149.72C44.3075 149.72 46.065 147.869 46.065 145.556C46.065 143.15 44.215 141.299 41.9025 141.299C39.59 141.299 37.6475 143.242 37.6475 145.556Z" fill="#D5D5D5"/>
<path d="M63.6401 145.556C63.6401 148.332 66.0451 150.552 68.7276 150.552C71.5951 150.552 73.8151 148.332 73.8151 145.556C73.8151 142.687 71.5951 140.466 68.7276 140.466C65.8601 140.466 63.6401 142.78 63.6401 145.556Z" fill="#F7F7F7"/>
<path d="M15.1702 165.265C11.3777 165.265 8.23267 168.319 8.23267 172.113C8.23267 175.906 11.3777 178.96 15.1702 178.96C18.9627 178.96 22.0152 175.906 22.0152 172.113C22.0152 168.411 18.9627 165.265 15.1702 165.265Z" fill="#E6E6E6"/>
<path d="M38.0176 172.205C38.0176 174.333 39.7751 176.184 41.9951 176.184C44.1226 176.184 45.9726 174.426 45.9726 172.205C45.9726 169.984 44.2151 168.226 41.9951 168.226C39.6826 168.319 38.0176 170.077 38.0176 172.205Z" fill="#F7F7F7"/>
<path d="M64.9351 172.205C64.9351 174.241 66.6001 175.906 68.6351 175.906C70.6701 175.906 72.3351 174.241 72.3351 172.205C72.3351 170.169 70.6701 168.504 68.6351 168.504C66.6001 168.504 64.9351 170.077 64.9351 172.205Z" fill="#F7F7F7"/>
<path d="M15.1701 193.21C12.0251 193.21 9.52759 195.709 9.52759 198.855C9.52759 202.001 12.0251 204.499 15.1701 204.499C18.3151 204.499 20.8126 202.001 20.8126 198.855C20.8126 195.709 18.2226 193.21 15.1701 193.21Z" fill="#D5D5D5"/>
<path d="M45.14 198.947C45.14 197.096 43.66 195.708 41.9025 195.708C40.0525 195.708 38.665 197.189 38.665 198.947C38.665 200.798 40.145 202.186 41.9025 202.186C43.66 202.093 45.14 200.705 45.14 198.947Z" fill="#E6E6E6"/>
<path d="M65.5825 198.947C65.5825 200.613 66.8775 201.908 68.5425 201.908C70.3 201.908 71.6875 200.613 71.6875 198.947C71.6875 197.189 70.3925 195.801 68.5425 195.801C66.8775 195.709 65.5825 197.189 65.5825 198.947Z" fill="#F7F7F7"/>
<path d="M38.5725 225.597C38.5725 227.448 40.0525 229.021 41.995 229.021C43.845 229.021 45.325 227.54 45.325 225.597C45.325 223.746 43.845 222.266 41.995 222.266C40.145 222.266 38.5725 223.654 38.5725 225.597Z" fill="#F7F7F7"/>
<path d="M66.6926 225.504C66.6926 226.707 67.5251 227.54 68.6351 227.54C69.8376 227.54 70.6701 226.707 70.6701 225.504C70.6701 224.394 69.8376 223.561 68.6351 223.561C67.5251 223.561 66.6926 224.486 66.6926 225.504Z" fill="#F7F7F7"/>
<path d="M12.7651 252.246C12.7651 253.542 13.8751 254.652 15.1701 254.652C16.4651 254.652 17.5751 253.542 17.5751 252.246C17.5751 250.951 16.4651 249.841 15.1701 249.841C13.7826 249.748 12.7651 250.858 12.7651 252.246Z" fill="#F7F7F7"/>
<path d="M13.135 278.896C13.135 280.006 13.9675 280.839 15.0775 280.839C16.1875 280.839 17.02 280.006 17.02 278.896C17.02 277.786 16.095 276.953 15.0775 276.953C14.06 276.953 13.135 277.786 13.135 278.896Z" fill="#E6E6E6"/>
<path d="M12.95 225.597C12.95 226.707 13.875 227.725 15.0775 227.725C16.28 227.725 17.2975 226.8 17.2975 225.597C17.2975 224.394 16.3725 223.376 15.0775 223.376C13.9675 223.469 12.95 224.394 12.95 225.597Z" fill="#E6E6E6"/>
<path d="M93.98 145.463C93.98 146.296 94.535 146.758 95.275 146.758C96.015 146.758 96.57 146.203 96.57 145.463C96.57 144.723 95.83 144.167 95.275 144.167C94.6275 144.167 93.98 144.815 93.98 145.463Z" fill="#F7F7F7"/>
<path d="M94.165 118.906C94.165 119.646 94.6275 120.201 95.3675 120.201C96.1075 120.201 96.6625 119.646 96.6625 118.906C96.6625 118.166 96.1075 117.703 95.3675 117.703C94.6275 117.703 94.165 118.166 94.165 118.906Z" fill="#F7F7F7"/>
<path d="M67.0625 118.906C67.0625 119.739 67.6175 120.572 68.635 120.572C69.4675 120.572 70.2075 119.739 70.2075 118.906C70.2075 118.073 69.375 117.333 68.635 117.333C67.71 117.24 67.0625 117.888 67.0625 118.906Z" fill="#F7F7F7"/>
<path d="M121.175 92.2562C121.175 93.089 121.915 93.8293 122.748 93.8293C123.58 93.8293 124.413 92.9965 124.413 92.2562C124.413 91.3309 123.58 90.6832 122.748 90.6832C121.823 90.6832 121.175 91.2384 121.175 92.2562Z" fill="#F7F7F7"/>
<path d="M93.8875 92.2562C93.8875 93.089 94.4424 93.8293 95.4599 93.8293C96.2924 93.8293 97.0325 92.9965 97.0325 92.2562C97.0325 91.3309 96.1999 90.6832 95.4599 90.6832C94.4424 90.6832 93.8875 91.2384 93.8875 92.2562Z" fill="#D5D5D5"/>
<path d="M121.083 65.5141C121.083 66.4394 121.915 67.2722 122.748 67.2722C123.673 67.2722 124.505 66.4394 124.505 65.5141C124.505 64.5888 123.673 63.756 122.748 63.756C121.823 63.8485 121.083 64.5888 121.083 65.5141Z" fill="#D5D5D5"/>
<path d="M92.9626 65.5141C92.9626 66.8096 94.0726 67.92 95.3676 67.92C96.6626 67.92 97.7726 66.9947 97.7726 65.5141C97.7726 64.2187 96.6626 63.1082 95.3676 63.1082C94.0726 63.2008 92.9626 64.2187 92.9626 65.5141Z" fill="#F7F7F7"/>
<path d="M121.175 38.772C121.175 39.6973 122.008 40.4375 122.748 40.4375C123.673 40.4375 124.413 39.6973 124.413 38.772C124.413 37.9392 123.673 37.1989 122.748 37.1989C121.915 37.1989 121.175 38.0317 121.175 38.772Z" fill="#F7F7F7"/>
<path d="M92.4075 38.772C92.4075 40.5301 93.7025 41.9181 95.3675 41.9181C97.0325 41.9181 98.3275 40.6226 98.3275 38.772C98.3275 37.1989 97.0325 35.8109 95.3675 35.8109C93.795 35.9034 92.4075 37.1989 92.4075 38.772Z" fill="#F7F7F7"/>
<path d="M65.49 38.772C65.49 40.5301 66.97 42.1032 68.7275 42.1032C70.485 42.1032 71.8725 40.5301 71.8725 38.772C71.8725 37.0138 70.5775 35.6259 68.7275 35.6259C66.8775 35.6259 65.49 37.1064 65.49 38.772Z" fill="#F7F7F7"/>
<path d="M95.4601 8.79117C93.6101 8.79117 92.0376 10.3642 92.0376 12.2149C92.0376 14.0656 93.6101 15.6386 95.4601 15.6386C97.4026 15.6386 98.8826 14.0656 98.8826 12.2149C98.8826 10.3642 97.4026 8.79117 95.4601 8.79117Z" fill="#F7F7F7"/>
<path d="M64.6575 12.2149C64.6575 14.5282 66.415 16.1939 68.635 16.1939C70.7625 16.1939 72.52 14.4357 72.52 12.2149C72.52 9.99411 70.7625 8.23599 68.635 8.23599C66.415 8.23599 64.6575 9.99411 64.6575 12.2149Z" fill="#F7F7F7"/>
<path d="M36.5376 12.1224C36.5376 15.0835 38.9426 17.4893 41.8101 17.4893C44.7701 17.4893 47.1751 15.0835 47.1751 12.1224C47.1751 9.16134 44.7701 6.84799 41.8101 6.84799C38.9426 6.84799 36.5376 9.25387 36.5376 12.1224Z" fill="#E6E6E6"/>
</g>
<defs>
<clipPath id="clip0_1569_68050">
<rect width="185" height="290" fill="white"/>
</clipPath>
</defs>
</svg>
