<svg width="59" height="58" viewBox="0 0 59 58" fill="none" xmlns="http://www.w3.org/2000/svg">
<path d="M53.38 44.5C55.91 40.6 57.45 36.41 57.97 32.04C58.32 29.07 58.22 26.13 57.66 23.28C56.69 18.29 54.52 13.85 51.21 10.07C46.51 4.69001 40.56 1.41001 33.53 0.320007C32.98 0.230007 32.43 0.170006 31.87 0.100006L31.12 0H27L26.28 0.100006C25.73 0.170006 25.18 0.240007 24.62 0.320007C17.59 1.41001 11.64 4.70001 6.94 10.07C3.65 13.83 1.48 18.28 0.490002 23.28C0.370002 23.92 0.290001 24.58 0.220001 25.22C0.180001 25.56 0.14 25.89 0.1 26.23C0.0800004 26.35 0.0600007 26.47 0.0300007 26.59L0 26.74L0.0300007 30.84C0.0600007 30.97 0.0900004 31.1 0.1 31.23C0.24 33.25 0.640001 35.29 1.3 37.31C3.36 43.69 7.23 48.82 12.81 52.55C18.82 56.57 25.65 58.14 33.11 57.19C35.65 56.87 38.1 56.2 40.39 55.19C41.49 54.71 42.67 54.12 44.09 53.33C44.92 52.87 45.28 51.96 44.98 51.07C44.67 50.14 43.86 49.62 42.95 49.75C42.42 49.83 41.87 50.13 41.39 50.39C36.06 53.27 30.41 54.2 24.58 53.14C17.55 51.86 11.97 48.17 7.98 42.17C4.38 36.75 3.16 30.72 4.36 24.24C5.63 17.38 9.3 11.91 15.28 7.97C20.82 4.32 26.99 3.08 33.63 4.28C40.5 5.52 46.04 9.15001 50.1 15.07C52.52 18.6 53.9 22.64 54.19 27.08C54.45 31.02 53.8 34.78 52.27 38.25C51.77 39.39 51.13 40.5 50.52 41.56L50.08 42.33C49.68 43.03 49.58 43.53 49.73 44.06C49.96 44.89 50.5 45.37 51.32 45.49C52.17 45.61 52.86 45.29 53.39 44.47" fill="#53565A"/>
<path d="M41.6806 25.84L41.4806 26C41.3606 26.1 41.2706 26.18 41.1706 26.25L39.4506 27.48C38.6406 28.06 37.8306 28.63 37.0306 29.21C35.2006 30.52 34.6506 32.2 35.3606 34.34L36.9406 39.13C36.9706 39.21 36.9806 39.28 37.0006 39.36L37.0306 39.47C37.0706 39.62 37.0006 39.78 36.8706 39.86C36.7506 39.93 36.4906 39.99 36.3806 39.9L32.0106 36.78C30.0506 35.39 28.3706 35.39 26.4106 36.79L22.4506 39.61C22.3606 39.68 22.2606 39.74 22.1406 39.82L21.9006 39.98C21.8406 40.02 21.7706 40.04 21.7006 40.04C21.6206 40.04 21.5506 40.02 21.4906 39.97C21.3706 39.88 21.3106 39.73 21.3606 39.59L21.4406 39.32C21.4906 39.13 21.5406 38.99 21.5806 38.85C21.7606 38.3 21.9406 37.75 22.1206 37.21C22.5206 36.03 22.9306 34.8 23.2506 33.58C23.6506 32.05 23.1806 30.66 21.9406 29.67C20.9106 28.85 19.8006 28.07 18.7306 27.31C18.2506 26.97 17.7606 26.63 17.2906 26.28C17.1806 26.2 17.0806 26.12 16.9306 26.01L16.7206 25.85C16.6006 25.76 16.5506 25.6 16.6006 25.46C16.6506 25.32 16.7906 25.22 16.9406 25.22H19.2206C20.4706 25.22 21.7106 25.22 22.9606 25.22C24.9706 25.22 26.4306 24.17 27.0706 22.28C27.4206 21.24 27.7606 20.19 28.1106 19.15L28.6606 17.49C28.7006 17.37 28.7406 17.26 28.7906 17.11L28.8806 16.85C28.9306 16.71 29.0606 16.62 29.2106 16.61C29.3606 16.61 29.4906 16.7 29.5406 16.84L29.6406 17.09C29.7006 17.23 29.7406 17.34 29.7806 17.45L30.4006 19.32C30.7206 20.3 31.0406 21.27 31.3706 22.24C32.0306 24.19 33.4806 25.22 35.5606 25.22C36.8906 25.22 38.2206 25.22 39.5906 25.22H41.4806C41.6306 25.22 41.7706 25.31 41.8206 25.45C41.8706 25.59 41.8206 25.75 41.7106 25.84M45.7706 24.1C45.1506 22.42 43.6706 21.37 41.9106 21.36C40.5506 21.36 39.1906 21.36 37.8206 21.36H35.4906C35.3406 21.36 35.2006 21.26 35.1506 21.12L34.9706 20.59C34.7706 20 34.5806 19.42 34.3906 18.83C33.9606 17.52 33.5206 16.16 33.0206 14.85C32.4406 13.32 30.9906 12.37 29.2206 12.37C27.5006 12.37 26.0406 13.32 25.4006 14.84C25.1906 15.33 25.0206 15.86 24.8606 16.37L24.7206 16.79C24.3806 17.81 24.0406 18.83 23.7106 19.86L23.3006 21.1C23.2506 21.25 23.1206 21.35 22.9606 21.35H20.5206C20.0006 21.35 19.4906 21.35 18.9706 21.35C18.1106 21.35 17.2406 21.35 16.3806 21.37C15.2406 21.39 14.2806 21.84 13.5206 22.7C12.7006 23.64 12.3106 24.78 12.4406 25.93C12.5706 27.11 13.2306 28.18 14.2806 28.94C15.8606 30.09 17.3306 31.14 18.7906 32.15C19.2906 32.5 19.4206 32.88 19.2306 33.44C18.5906 35.3 17.9806 37.19 17.4606 38.81C17.0906 39.97 17.1906 41.07 17.7806 42.08C18.3806 43.12 19.4006 43.86 20.5706 44.11C21.7406 44.36 22.9606 44.08 24.0006 43.32C24.6506 42.85 25.3106 42.38 25.9706 41.91C26.8306 41.3 27.7006 40.68 28.5506 40.06C29.0206 39.72 29.4106 39.71 29.8706 40.06C30.8006 40.74 31.7406 41.41 32.6806 42.08C33.2506 42.48 33.8106 42.89 34.3806 43.29C35.3006 43.95 36.2606 44.24 37.3106 44.2C38.4906 44.15 39.6406 43.52 40.4006 42.5C41.1206 41.53 41.3706 40.37 41.0906 39.31C40.6606 37.72 40.1106 36.13 39.5906 34.59L39.2206 33.51C39.0106 32.9 39.1406 32.5 39.6706 32.13L40.0306 31.88C41.5406 30.83 43.1006 29.74 44.5706 28.59C45.8806 27.57 46.3706 25.72 45.7706 24.1Z" fill="#53565A"/>
</svg>
