<svg width="55" height="55" viewBox="0 0 55 55" fill="none" xmlns="http://www.w3.org/2000/svg">
<path d="M19.25 35.3H3.17V49.33C3.17 50.75 3.76 51.34 5.17 51.34C9.2 51.34 13.22 51.34 17.25 51.34C18.66 51.34 19.25 50.75 19.25 49.33V35.3ZM19.25 15.97V15.41C19.25 12 19.25 8.6 19.25 5.19C19.25 3.81 18.65 3.21 17.27 3.21H5.13C3.76 3.21 3.17 3.81 3.16 5.2V15.96H19.24L19.25 15.97ZM19.21 19.22H3.21V32.06H19.21V19.22ZM22.44 38.29C22.57 38.13 22.6 38.09 22.63 38.05C27.3 29.93 31.97 21.81 36.64 13.69C37.19 12.74 36.95 11.9 36.01 11.34C35.23 10.88 34.45 10.44 33.66 9.98C30.87 8.37 28.08 6.76 25.29 5.14C24.66 4.77 24.01 4.62 23.4 5.09C22.83 5.53 22.44 6.1 22.44 6.89C22.44 17.14 22.44 27.39 22.44 37.64V38.29ZM22.23 51.34H40.56C43.54 51.34 46.52 51.34 49.5 51.34C50.64 51.34 51.3 50.69 51.3 49.57C51.3 45.38 51.3 41.2 51.3 37.01C51.3 35.94 50.64 35.29 49.58 35.26C49.12 35.26 48.65 35.22 48.2 35.26C47.83 35.3 47.43 35.37 47.11 35.55C43.59 37.56 40.08 39.6 36.57 41.63C32.02 44.26 27.47 46.9 22.92 49.54C22.74 49.64 22.52 49.81 22.47 49.99C22.35 50.39 22.32 50.82 22.24 51.32M22.48 46.04C22.66 45.95 22.8 45.88 22.93 45.8C31.39 40.9 39.86 36 48.32 31.1C49.41 30.47 49.63 29.66 49.01 28.56C46.97 24.99 44.94 21.42 42.89 17.86C42.28 16.79 41.37 16.54 40.28 17.16C39.45 17.63 38.61 18.1 37.8 18.6C37.54 18.76 37.3 19 37.15 19.26C32.36 27.56 27.59 35.87 22.79 44.17C22.44 44.77 22.43 45.35 22.48 46.04ZM4.14 0H18.41C18.61 0.06 18.81 0.140001 19 0.190001C20.18 0.530001 21.06 1.26 21.75 2.26C21.85 2.22 21.93 2.19 22.01 2.15C23.64 1.33 25.25 1.39 26.83 2.3C30.42 4.37 34.01 6.44 37.6 8.52C38.46 9.02 39.15 9.68 39.61 10.58C40.12 11.58 40.22 12.63 40.07 13.73C40.22 13.73 40.33 13.75 40.43 13.73C42.32 13.33 44.56 14.26 45.65 16.19C47.71 19.83 49.79 23.45 51.87 27.08C52.48 28.15 52.77 29.29 52.48 30.5C52.31 31.17 52.01 31.81 51.77 32.46C52.14 32.72 52.57 33 52.96 33.33C53.83 34.05 54.21 35.06 54.52 36.1V50.37C54.52 50.37 54.47 50.46 54.46 50.51C54.05 52.94 51.88 54.58 49.24 54.54C43.39 54.46 37.53 54.52 31.67 54.52C22.8 54.52 13.93 54.53 5.05 54.5C4.28 54.5 3.44 54.35 2.74 54.02C0.859998 53.13 0 51.55 0 49.48C0 35.09 0 20.7 0 6.31C0 5.78 0 5.24 0 4.71C0.03 3.59 0.399999 2.6 1.12 1.73C1.91 0.76 2.97 0.29 4.15 0.0100002" fill="#53565A"/>
<path d="M11.2808 44.84C12.1308 44.83 12.8708 44.07 12.8508 43.23C12.8408 42.38 12.0808 41.64 11.2408 41.66C10.3908 41.67 9.65084 42.43 9.67084 43.27C9.69084 44.12 10.4408 44.86 11.2808 44.84ZM16.0508 43.22C16.0608 45.86 13.9008 48.03 11.2608 48.03C8.64084 48.03 6.49084 45.89 6.47084 43.27C6.45084 40.63 8.62084 38.46 11.2608 38.46C13.8808 38.46 16.0308 40.6 16.0508 43.22Z" fill="#53565A"/>
</svg>
