<svg width="37" height="58" viewBox="0 0 37 58" fill="none" xmlns="http://www.w3.org/2000/svg">
<path d="M36.165 4.86646C36.165 4.23646 35.985 3.71642 35.475 3.32642C35.095 3.03642 34.655 3.01642 34.205 3.01642C27.045 3.01642 19.895 2.99644 12.735 3.03644C10.885 3.03644 9.34503 2.49645 7.99503 1.23645C6.51503 -0.153547 4.33504 -0.373571 2.54504 0.586429C2.34504 0.696429 2.13504 0.796436 1.93504 0.906436L0.875035 1.96643C0.825035 2.07643 0.785035 2.18644 0.715035 2.28644C-0.404965 4.12644 -0.204965 6.52647 1.28503 8.06647C2.52503 9.34647 3.04503 10.8364 3.03503 12.6064C3.00503 17.4264 3.00503 22.2564 3.03503 27.0764C3.05503 30.9364 6.08504 33.9664 9.95504 34.0164C10.985 34.0264 12.015 34.0164 13.055 34.0164C13.205 34.0164 13.365 34.0365 13.535 34.0465C13.535 34.2065 13.535 34.3264 13.515 34.4464C13.385 35.8964 13.245 37.3565 13.115 38.8065C12.795 42.3665 12.425 45.9265 12.165 49.4965C11.955 52.4465 13.145 54.8064 15.645 56.3564C18.235 57.9764 20.965 57.9664 23.555 56.3364C26.095 54.7364 27.235 52.3364 27.005 49.3564C26.745 45.9464 26.395 42.5464 26.085 39.1464C25.935 37.4464 25.775 35.7464 25.615 34.0264C25.825 34.0264 25.995 34.0164 26.175 34.0164C27.205 34.0164 28.245 34.0364 29.275 34.0164C31.485 33.9564 33.285 33.0764 34.665 31.3264C35.705 30.0164 36.145 28.5165 36.145 26.8665C36.145 22.4365 36.145 18.0065 36.145 13.5665C36.145 10.6665 36.145 7.76646 36.145 4.86646H36.165ZM22.935 52.6765C21.305 54.8665 17.705 54.8064 16.165 52.5465C15.555 51.6565 15.285 50.6965 15.385 49.6265C15.845 44.5565 16.305 39.4865 16.765 34.4265C16.775 34.3065 16.795 34.1865 16.805 34.1064C18.685 34.1064 20.535 34.1064 22.405 34.1064C22.545 35.5864 22.685 37.1065 22.825 38.6265C23.145 42.1665 23.455 45.7165 23.795 49.2565C23.915 50.5065 23.705 51.6465 22.935 52.6765ZM29.465 30.7864C29.325 30.7864 29.185 30.7864 29.035 30.7864C22.755 30.7864 16.475 30.7864 10.195 30.7864C9.23503 30.7864 8.36504 30.5465 7.61504 29.9365C6.88504 29.3465 6.45504 28.5765 6.30504 27.6765C15.175 27.6765 24.015 27.6765 32.845 27.6765C32.685 29.2765 31.185 30.6564 29.455 30.7764L29.465 30.7864ZM6.37503 24.2965C6.37503 23.2365 6.37503 22.1265 6.37503 20.9965C6.46503 21.0165 6.63504 21.0464 6.79504 21.0864C9.69504 21.7164 12.455 19.6365 12.625 16.6765C12.675 15.7765 12.625 14.8564 12.655 13.9564C12.705 12.8564 13.835 12.2964 14.745 12.8964C15.115 13.1464 15.275 13.5065 15.295 13.9365C15.315 14.2965 15.295 14.6465 15.315 15.0065C15.495 18.2165 18.935 20.0865 21.715 18.4865C23.045 17.7165 23.735 16.5265 23.845 15.0065C23.875 14.6565 23.845 14.2965 23.865 13.9365C23.905 13.1565 24.455 12.6464 25.225 12.6564C25.965 12.6764 26.485 13.1764 26.515 13.9464C26.535 14.6764 26.515 15.4064 26.515 16.1364C26.525 19.6064 29.315 21.8064 32.675 21.0164C32.735 21.0064 32.805 20.9965 32.825 20.9865C32.825 22.1165 32.825 23.2265 32.825 24.2965C24.025 24.2965 15.165 24.2965 6.36504 24.2965H6.37503ZM32.235 17.6964C31.195 18.3864 29.835 17.7164 29.765 16.4664C29.725 15.7064 29.745 14.9364 29.755 14.1664C29.775 12.6964 29.245 11.4765 28.135 10.4865C26.585 9.10645 23.835 9.08643 22.285 10.4664C21.175 11.4464 20.635 12.6664 20.645 14.1364C20.645 14.3664 20.645 14.5964 20.645 14.8264C20.595 15.3864 20.175 15.7964 19.645 15.8264C19.075 15.8564 18.625 15.4665 18.555 14.8765C18.515 14.5565 18.535 14.2364 18.535 13.9164C18.445 10.3164 14.655 8.23646 11.575 10.1165C10.265 10.9165 9.54504 12.1365 9.45504 13.6765C9.40504 14.5665 9.45504 15.4564 9.43504 16.3464C9.40504 17.3664 8.54503 18.0865 7.58503 17.9365C6.80503 17.8065 6.27503 17.1765 6.26503 16.3065C6.24503 14.9365 6.26503 13.5664 6.26503 12.1964C6.26503 10.4664 5.83503 8.85643 4.88503 7.39643C4.57503 6.92643 4.16503 6.51646 3.83503 6.05646C3.62503 5.75646 3.39504 5.43644 3.29504 5.09644C3.11504 4.45644 3.45504 3.77642 4.00504 3.45642C4.66504 3.07642 5.38503 3.13644 5.92503 3.65644C6.70503 4.40644 7.56504 5.01643 8.54504 5.46643C9.76504 6.01643 11.045 6.23645 12.385 6.23645C19.025 6.23645 25.665 6.23645 32.305 6.23645C32.505 6.23645 32.695 6.19646 32.935 6.17646C32.945 6.39646 32.955 6.50645 32.955 6.60645C32.955 9.79645 32.955 12.9764 32.955 16.1664C32.955 16.7864 32.795 17.3364 32.255 17.6964H32.235Z" fill="#53565A"/>
<path d="M18.465 48.9065C17.845 49.5265 17.845 50.5965 18.465 51.2065C19.095 51.8165 20.095 51.8065 20.715 51.1865C21.355 50.5565 21.355 49.4964 20.715 48.8864C20.105 48.2964 19.055 48.2965 18.445 48.8965L18.465 48.9065Z" fill="#53565A"/>
</svg>
