<svg width="50" height="60" viewBox="0 0 50 60" fill="none" xmlns="http://www.w3.org/2000/svg">
<path d="M31.7371 58.2255C41.6971 55.0655 47.7371 48.2655 49.6771 38.0056C49.7471 37.6455 49.8071 37.2755 49.8671 36.9155L49.9771 36.2855V32.0555L49.8671 31.4255C49.7971 30.9355 49.7271 30.4455 49.6271 29.9655C47.5371 20.0155 41.5671 13.3655 31.8971 10.2055L30.5971 9.78555L30.8171 9.26553C32.3171 5.64553 30.8171 2.78553 28.9271 1.32553C26.7271 -0.374473 23.6071 -0.444466 21.3371 1.14553C18.7571 2.95553 18.0271 5.69555 19.1771 9.31555L19.3271 9.78555L18.7071 10.0255C18.5671 10.0855 18.4171 10.1455 18.2671 10.1855C5.25712 13.8755 -2.45288 26.9255 0.707118 39.8855C3.05712 49.5055 9.22712 55.7555 19.0571 58.4455C19.9071 58.6755 20.8071 58.8255 21.6871 58.9755C22.0871 59.0455 22.4871 59.1055 22.8871 59.1855H27.1671C27.5671 59.0955 28.0871 59.0055 28.5971 58.9255C29.6471 58.7455 30.7371 58.5655 31.7471 58.2455L31.7371 58.2255ZM23.0071 4.44552C23.5471 3.90552 24.2671 3.58554 24.9971 3.58554C25.7171 3.58554 26.4371 3.89553 26.9771 4.42553C27.5171 4.96553 27.8271 5.68554 27.8271 6.40554C27.8271 7.12554 27.5171 7.84553 26.9771 8.39553C26.4371 8.93553 25.7171 9.24554 24.9971 9.24554C24.2771 9.24554 23.5671 8.93553 23.0171 8.39553C22.4771 7.85553 22.1671 7.13552 22.1571 6.41552C22.1571 5.69552 22.4571 4.97554 22.9971 4.43554L23.0071 4.44552ZM26.7971 55.4655V54.1655C26.7971 53.6855 26.7971 53.2155 26.7971 52.7556C26.7771 51.7155 26.0371 50.9555 25.0271 50.9455H25.0071C23.9771 50.9455 23.2271 51.7055 23.2071 52.7755C23.2071 53.2455 23.2071 53.7155 23.2071 54.1855V55.4055L22.6471 55.3655C12.9871 54.5855 4.71712 46.3355 3.81712 36.5755L3.76712 36.0056H4.99712C5.46712 36.0056 5.94712 36.0056 6.41712 36.0056C7.50712 35.9855 8.26712 35.2455 8.26712 34.2055C8.26712 33.1655 7.49712 32.4355 6.39712 32.4255C5.92712 32.4255 5.44712 32.4255 4.97712 32.4255H3.74712L3.80712 31.8555C4.77712 22.1455 12.8771 14.0455 22.6371 13.0355L23.2071 12.9755V14.1955C23.2071 14.6655 23.2071 15.1355 23.2071 15.6055C23.2171 16.7055 23.9471 17.4755 24.9771 17.4855H24.9971C26.0471 17.4855 26.7871 16.7055 26.7971 15.5855C26.7971 15.1255 26.7971 14.6555 26.7971 14.1955V13.0255L27.3571 13.0655C37.0071 13.8355 45.2771 22.0855 46.1771 31.8555L46.2271 32.4255H45.0071C44.5371 32.4255 44.0571 32.4255 43.5871 32.4255C42.5171 32.4455 41.7371 33.1955 41.7371 34.2255C41.7371 35.2655 42.5071 35.9956 43.6071 36.0056C44.0771 36.0056 44.5471 36.0056 45.0271 36.0056H46.2571L46.1971 36.5755C45.2071 46.2955 37.1171 54.3855 27.3671 55.3955L26.7971 55.4555V55.4655Z" fill="#53565A"/>
<path d="M26.7866 24.9055C26.7766 23.9055 26.0066 23.1455 24.9966 23.1455C23.9866 23.1455 23.2166 23.9155 23.2166 24.9255C23.2066 28.0355 23.1966 31.1455 23.2166 34.2455C23.2166 35.2355 23.9666 35.9755 24.9566 35.9855C28.0966 36.0055 31.2266 36.0055 34.3666 35.9855C35.1966 35.9855 35.9266 35.3455 36.0666 34.5155C36.2166 33.6655 35.7466 32.8455 34.9666 32.5555C34.7266 32.4655 34.4166 32.4255 34.0166 32.4155C32.3666 32.4055 30.7166 32.4055 29.0366 32.4155H26.8066V29.2255C26.8066 27.7855 26.8066 26.3455 26.8066 24.9055H26.7866Z" fill="#53565A"/>
</svg>
