<svg width="64" height="50" viewBox="0 0 64 50" fill="none" xmlns="http://www.w3.org/2000/svg">
<path d="M19.2685 29.21C19.0485 30.07 18.8485 30.88 18.6385 31.7C20.3785 31.25 22.0685 30.82 23.7485 30.39C22.2785 29.89 20.8085 29.52 19.2685 29.21ZM40.0385 30.26C40.0385 30.26 40.0585 30.35 40.0685 30.4C41.7485 30.83 43.4385 31.25 45.1685 31.69C44.9485 30.86 44.7385 30.05 44.5185 29.18C42.9885 29.55 41.5185 29.91 40.0385 30.26ZM48.7785 33.91C49.2985 31.86 49.8185 29.82 50.3385 27.79C50.4785 27.26 50.4285 26.74 50.3985 26.25H46.7385C46.7185 26.75 46.6685 27.28 46.8085 27.81C47.2785 29.58 47.7385 31.36 48.1685 33.14C48.2585 33.5 48.4285 33.73 48.7685 33.9M13.3985 26.24C13.3985 26.69 13.3085 27.18 13.4185 27.63C13.9185 29.72 14.4685 31.79 15.0185 33.89C15.3485 33.72 15.5285 33.49 15.6185 33.13C16.0585 31.34 16.5185 29.56 16.9885 27.79C17.1285 27.26 17.0885 26.73 17.0485 26.24H13.4085H13.3985ZM44.1885 26.58C44.1885 26.26 44.1685 25.99 44.1885 25.72C44.2185 25.37 44.0985 25.14 43.7985 24.96C42.9985 24.46 42.3485 23.8 41.7985 23.03C41.7285 22.94 41.6385 22.86 41.5285 22.74C40.5285 24.48 39.2085 25.86 37.5485 26.88V28.65C39.6185 27.44 41.9585 27.28 44.1885 26.59M22.2485 22.72C22.0885 22.92 21.9985 23.06 21.8885 23.18C21.3685 23.71 20.9085 24.33 20.2985 24.73C19.6985 25.12 19.5185 25.57 19.5985 26.21C19.6085 26.33 19.6085 26.45 19.6185 26.63C20.3285 26.8 21.0285 26.97 21.7185 27.14C23.2185 27.51 24.7485 27.79 26.1085 28.58C26.1385 28.6 26.1885 28.58 26.2485 28.59V26.9C24.5885 25.87 23.2585 24.51 22.2385 22.72M37.1685 32.36C36.2185 36.08 35.2685 39.72 34.3585 43.36C37.4985 40.22 40.6185 37.11 43.7785 33.95C41.6085 33.43 39.4185 32.9 37.1685 32.36ZM19.9085 33.97C21.3185 35.55 28.9385 43.09 29.4385 43.39C28.4885 39.69 27.5485 36.04 26.6085 32.36C24.3585 32.9 22.1785 33.43 19.9185 33.98M54.2785 13.27C54.2385 12.97 54.2085 12.69 54.1785 12.41C53.8785 10.18 52.6385 8.73001 50.5185 8.01001C49.7885 7.76001 49.0185 7.73001 48.2485 7.76001C46.0285 7.83001 44.3785 8.82001 43.3785 10.82C42.9985 11.59 42.9085 12.42 42.8685 13.29C43.1585 13.26 43.3785 13.24 43.5985 13.23C44.8185 13.16 45.9485 12.8 47.0185 12.25C47.3085 12.1 47.5985 11.93 47.8885 11.77C48.3385 11.52 48.7985 11.53 49.2485 11.77C49.4085 11.86 49.5785 11.95 49.7385 12.04C51.1185 12.85 52.6085 13.25 54.2785 13.27ZM20.9385 13.27C20.8985 12.95 20.8585 12.67 20.8285 12.39C20.7085 11.07 20.1185 9.97999 19.1385 9.10999C17.4585 7.61999 15.4685 7.47004 13.4285 7.98004C11.4285 8.47004 10.2085 9.85001 9.6885 11.82C9.5685 12.29 9.5685 12.78 9.4985 13.3C10.0785 13.23 10.5685 13.2 11.0585 13.12C12.2385 12.93 13.3285 12.49 14.3385 11.86C14.9285 11.5 15.4885 11.49 16.0885 11.85C16.5285 12.11 16.9985 12.35 17.4685 12.56C18.5385 13.04 19.6785 13.24 20.9485 13.26M28.8085 28.03C28.8085 28.59 28.7885 29.06 28.8085 29.53C28.8285 30.02 28.8085 30.53 28.9285 31C29.8385 34.64 30.7785 38.28 31.7185 41.92C31.7585 42.09 31.8285 42.25 31.9185 42.53C31.9785 42.33 32.0085 42.26 32.0285 42.18C32.8985 38.78 33.7285 35.37 34.6685 31.99C35.0285 30.68 34.9985 29.39 34.9885 28.03C32.9285 28.59 30.9085 28.6 28.8085 28.03ZM11.8885 38.55C12.2185 37.89 12.5385 37.24 12.8785 36.61C12.9985 36.39 12.9685 36.19 12.9085 35.96C12.4885 34.34 12.0685 32.72 11.6585 31.1C11.4985 30.49 11.3385 29.87 11.1785 29.25C10.9985 29.27 10.8685 29.25 10.7485 29.29C9.5885 29.57 8.4185 29.84 7.2585 30.14C5.6485 30.55 4.3685 31.45 3.4885 32.88C3.0185 33.65 2.7485 34.48 2.6285 35.38C2.4885 36.43 2.5685 37.48 2.5385 38.56H11.8885V38.55ZM61.2585 38.55C61.2285 37.49 61.3085 36.47 61.1685 35.44C60.8285 32.84 59.4285 31.1 56.9585 30.28C55.6685 29.86 54.3185 29.6 52.9985 29.28C52.8885 29.25 52.7585 29.28 52.6185 29.28C52.0285 31.56 51.4385 33.81 50.8685 36.07C50.8385 36.2 50.8185 36.38 50.8685 36.49C51.2085 37.19 51.5785 37.88 51.9185 38.55H61.2485H61.2585ZM42.8885 15.85C42.8885 16.01 42.8685 16.14 42.8685 16.26C42.8985 17.23 42.8685 18.21 42.9785 19.17C43.2085 21.23 44.3685 22.65 46.2685 23.39C47.7785 23.98 49.3685 23.98 50.8885 23.39C52.7685 22.66 53.9285 21.26 54.1685 19.23C54.2885 18.25 54.2585 17.25 54.2885 16.26C54.2885 16.12 54.2585 15.99 54.2385 15.88C53.5985 15.81 52.9985 15.76 52.4085 15.66C51.1985 15.46 50.0385 15.09 48.9585 14.5C48.6985 14.36 48.4785 14.36 48.2085 14.5C47.7685 14.72 47.3085 14.92 46.8485 15.1C45.5985 15.59 44.2985 15.79 42.8885 15.86M20.9285 15.86C19.0485 15.78 17.3185 15.41 15.7185 14.56C15.3385 14.36 15.0485 14.39 14.6885 14.58C13.1785 15.36 11.5585 15.74 9.86849 15.84C9.7585 15.84 9.6385 15.89 9.4585 15.92C9.5085 17.02 9.4985 18.1 9.61849 19.16C9.86849 21.29 11.0685 22.72 13.0685 23.45C14.1785 23.86 15.3385 23.88 16.4985 23.67C18.4985 23.31 19.8685 22.17 20.5685 20.27C21.0985 18.85 20.8885 17.37 20.9185 15.85M23.4285 11.37C24.4085 11.32 25.2985 11.29 26.1785 11.22C27.8685 11.09 29.4685 10.59 30.9685 9.82001C32.5185 9.03001 33.8685 7.98003 35.0085 6.66003C35.1985 6.44003 35.3985 6.23 35.6285 6.06C36.0785 5.72 36.7685 5.77001 37.1785 6.14001C37.6185 6.53001 37.7385 7.15003 37.4385 7.66003C37.2985 7.91003 37.0985 8.13004 36.9085 8.35004C36.7085 8.59004 36.5085 8.81002 36.3185 9.02002C37.0285 10.55 38.5485 11.53 40.3185 11.26C40.2685 8.20001 39.0985 5.69001 36.5085 4.01001C33.6585 2.17001 30.6485 2.05999 27.6885 3.73999C24.8085 5.36999 23.5085 7.97999 23.4185 11.37M46.2885 35.26C45.2685 36.11 35.3285 46.13 35.1185 46.5H50.0285C50.0285 45.45 50.0585 44.43 50.0285 43.42C49.9985 42.51 49.9585 41.59 49.7885 40.71C49.3585 38.44 48.1285 36.64 46.2885 35.26ZM17.4685 35.25C15.3485 36.89 14.0485 38.99 13.8385 41.66C13.7285 43.1 13.7585 44.56 13.7285 46.01C13.7285 46.17 13.7285 46.33 13.7285 46.51H28.6885C28.6885 46.51 28.7585 46.44 28.7885 46.4C25.0285 42.69 21.2685 38.99 17.4685 35.24M23.4585 13.83C23.4585 15.25 23.4585 16.56 23.4585 17.86C23.4585 18.23 23.5185 18.61 23.5885 18.97C24.5185 23.83 29.2585 26.93 34.1485 25.59C37.5785 24.65 40.2685 21.6 40.3285 17.36C40.3385 16.34 40.3285 15.33 40.3285 14.31C40.3285 14.17 40.3085 14.03 40.2985 13.93C40.2285 13.89 40.2185 13.87 40.1985 13.86C40.0085 13.86 39.8285 13.84 39.6385 13.83C37.5185 13.79 35.8685 12.87 34.6385 11.16C34.5385 11.02 34.4185 10.88 34.2985 10.74C31.0485 13.08 27.4385 14.04 23.4485 13.81M63.7385 40.3C63.7385 40.3 63.6285 40.36 63.5985 40.41C63.2985 40.91 62.8485 41.07 62.2885 41.07C60.1985 41.05 58.0985 41.07 56.0085 41.07H52.5585V46.52H53.2685C55.4685 46.52 57.6685 46.52 59.8685 46.52C60.3585 46.52 60.7585 46.66 61.0385 47.08C61.5785 47.88 61.0785 48.94 60.1185 49.03C59.9285 49.05 59.7485 49.03 59.5585 49.03H4.1985C4.0085 49.03 3.8285 49.03 3.6385 49.02C2.9885 48.95 2.5085 48.41 2.5185 47.75C2.5185 47.13 2.9985 46.6 3.6185 46.53C3.7985 46.51 3.9885 46.52 4.1785 46.52H11.2085V41.08C11.0585 41.08 10.8385 41.07 10.6185 41.07H1.7885C1.5985 41.07 1.4185 41.07 1.2285 41.07C0.558497 41.02 0.0484965 40.55 0.0384965 39.87C0.0184965 38.34 -0.0515028 36.79 0.0684972 35.27C0.208497 33.41 0.948496 31.76 2.1985 30.34C3.6385 28.69 5.4985 27.83 7.5985 27.38C8.5485 27.18 9.4885 26.95 10.4385 26.73C10.5585 26.7 10.6685 26.64 10.7985 26.59C10.8085 26.49 10.8285 26.39 10.8385 26.29C10.9485 25.57 10.6985 25.11 10.0685 24.65C8.4685 23.51 7.5185 21.9 7.1485 19.97C7.0585 19.49 7.0185 18.99 7.0085 18.49C6.9885 16.66 7.0285 14.84 6.9985 13.01C6.9485 9.19001 9.8285 5.88001 13.3885 5.32001C15.4685 4.99001 17.5285 5.05002 19.4185 6.15002C20.1285 6.56002 20.7685 7.10002 21.4285 7.58002C23.3285 2.82002 26.8185 0.17 32.0885 0C37.1785 0.31 40.5585 2.93001 42.4185 7.63C42.8585 7.27 43.2885 6.87999 43.7485 6.54999C45.0385 5.64999 46.4785 5.22998 48.0585 5.16998C49.8985 5.10998 51.6585 5.35002 53.2185 6.40002C55.5085 7.94002 56.7485 10.08 56.8085 12.85C56.8485 14.73 56.8385 16.62 56.8085 18.51C56.7685 21.2 55.6185 23.33 53.4285 24.89C53.1085 25.12 52.9185 25.34 52.9685 25.75C52.9985 26.01 52.9685 26.28 52.9685 26.58C53.1785 26.64 53.3485 26.69 53.5285 26.74C54.8685 27.07 56.2385 27.33 57.5585 27.74C60.5785 28.7 62.5685 30.71 63.4585 33.77C63.5585 34.12 63.6585 34.47 63.7585 34.83V40.31L63.7385 40.3Z" fill="#53565A"/>
</svg>
