<svg width="185" height="290" viewBox="0 0 185 290" fill="none" xmlns="http://www.w3.org/2000/svg">
<g clip-path="url(#clip0_1294_60592)">
<path d="M15.1702 6.01517C11.7477 6.01517 8.97266 8.79117 8.97266 12.1224C8.97266 15.4536 11.8402 18.3221 15.1702 18.3221C18.5927 18.3221 21.2752 15.4536 21.2752 12.1224C21.3677 8.79117 18.5927 6.01517 15.1702 6.01517Z" fill="#E6E6E6"/>
<path d="M15.1707 32.8499C11.8407 32.8499 9.1582 35.5333 9.1582 38.8645C9.1582 42.1957 11.8407 44.8792 15.1707 44.8792C18.5007 44.8792 21.1832 42.1957 21.1832 38.8645C21.1832 35.6259 18.5007 32.8499 15.1707 32.8499Z" fill="#E6E6E6"/>
<path d="M41.8105 42.1957C43.6605 42.1957 45.233 40.7152 45.233 38.8645C45.233 37.0138 43.753 35.4408 41.8105 35.4408C39.9605 35.4408 38.4805 36.9213 38.4805 38.8645C38.573 40.7152 40.053 42.1957 41.8105 42.1957Z" fill="#F7F7F7"/>
<path d="M15.0787 58.6666C11.3787 58.6666 8.32617 61.7202 8.32617 65.4215C8.32617 69.1229 11.3787 72.269 15.0787 72.269C18.8712 72.269 21.9237 69.2154 21.9237 65.4215C22.0162 61.7202 18.8712 58.6666 15.0787 58.6666Z" fill="#E6E6E6"/>
<path d="M41.9037 59.6845C38.6662 59.6845 36.0762 62.1829 36.0762 65.4216C36.0762 68.6602 38.6662 71.1586 41.9037 71.1586C45.0487 71.1586 47.6387 68.6602 47.6387 65.4216C47.6387 62.1829 45.0487 59.6845 41.9037 59.6845Z" fill="#E6E6E6"/>
<path d="M68.6354 68.9378C70.4854 68.9378 72.0579 67.4573 72.0579 65.5141C72.0579 63.6634 70.5779 62.0904 68.6354 62.0904C66.7854 62.0904 65.2129 63.6634 65.2129 65.5141C65.2129 67.4573 66.7854 68.9378 68.6354 68.9378Z" fill="#F7F7F7"/>
<path d="M15.0792 85.5939C11.4717 85.5939 8.51172 88.555 8.51172 92.2563C8.51172 95.8651 11.4717 98.8262 15.0792 98.8262C18.6867 98.8262 21.7392 95.8651 21.7392 92.2563C21.7392 88.555 18.7792 85.5939 15.0792 85.5939Z" fill="#F7F7F7"/>
<path d="M41.9035 86.6117C38.851 86.6117 36.3535 89.1101 36.3535 92.2562C36.3535 95.4024 38.7585 97.8082 41.9035 97.8082C44.8635 97.8082 47.4535 95.3098 47.4535 92.2562C47.4535 89.1101 44.956 86.6117 41.9035 86.6117Z" fill="#E6E6E6"/>
<path d="M65.2129 92.1637C65.2129 94.0144 66.7854 95.5875 68.6354 95.5875C70.5779 95.5875 72.0579 94.0144 72.0579 92.1637C72.0579 90.2205 70.5779 88.74 68.6354 88.74C66.7854 88.74 65.2129 90.2205 65.2129 92.1637Z" fill="#E6E6E6"/>
<path d="M15.1702 113.631C12.2102 113.631 9.99023 115.945 9.99023 118.721C9.99023 121.589 12.3952 123.903 15.1702 123.903C17.9452 123.903 20.3502 121.589 20.3502 118.813C20.3502 115.945 18.0377 113.631 15.1702 113.631Z" fill="#D5D5D5"/>
<path d="M35.8906 118.906C35.8906 122.237 38.4806 125.013 41.9031 125.013C45.2331 125.013 48.0081 122.237 48.0081 118.906C48.0081 115.575 45.2331 112.891 41.9031 112.891C38.5731 112.891 35.8906 115.482 35.8906 118.906Z" fill="#F7F7F7"/>
<path d="M15.171 152.033C18.686 152.033 21.7385 149.072 21.7385 145.463C21.7385 141.854 18.7785 138.893 15.171 138.893C11.5635 138.893 8.60352 141.762 8.60352 145.463C8.69602 149.164 11.5635 152.033 15.171 152.033Z" fill="#E6E6E6"/>
<path d="M37.6484 145.556C37.6484 147.961 39.4984 149.72 41.9034 149.72C44.3084 149.72 46.0659 147.869 46.0659 145.556C46.0659 143.15 44.2159 141.299 41.9034 141.299C39.5909 141.299 37.6484 143.242 37.6484 145.556Z" fill="#D5D5D5"/>
<path d="M63.6406 145.556C63.6406 148.332 66.0456 150.552 68.7281 150.552C71.5956 150.552 73.8156 148.332 73.8156 145.556C73.8156 142.687 71.5956 140.466 68.7281 140.466C65.8606 140.466 63.6406 142.78 63.6406 145.556Z" fill="#F7F7F7"/>
<path d="M15.1699 165.265C11.3774 165.265 8.23242 168.319 8.23242 172.113C8.23242 175.906 11.3774 178.96 15.1699 178.96C18.9624 178.96 22.0149 175.906 22.0149 172.113C22.0149 168.411 18.9624 165.265 15.1699 165.265Z" fill="#E6E6E6"/>
<path d="M38.0176 172.205C38.0176 174.333 39.7751 176.184 41.9951 176.184C44.1226 176.184 45.9726 174.426 45.9726 172.205C45.9726 169.984 44.2151 168.226 41.9951 168.226C39.6826 168.319 38.0176 170.077 38.0176 172.205Z" fill="#F7F7F7"/>
<path d="M64.9355 172.205C64.9355 174.241 66.6005 175.906 68.6355 175.906C70.6705 175.906 72.3355 174.241 72.3355 172.205C72.3355 170.169 70.6705 168.504 68.6355 168.504C66.6005 168.504 64.9355 170.077 64.9355 172.205Z" fill="#F7F7F7"/>
<path d="M15.1698 193.21C12.0248 193.21 9.52734 195.709 9.52734 198.855C9.52734 202.001 12.0248 204.499 15.1698 204.499C18.3148 204.499 20.8123 202.001 20.8123 198.855C20.8123 195.709 18.2223 193.21 15.1698 193.21Z" fill="#D5D5D5"/>
<path d="M45.141 198.947C45.141 197.096 43.661 195.708 41.9035 195.708C40.0535 195.708 38.666 197.189 38.666 198.947C38.666 200.798 40.146 202.186 41.9035 202.186C43.661 202.093 45.141 200.705 45.141 198.947Z" fill="#E6E6E6"/>
<path d="M65.584 198.947C65.584 200.613 66.879 201.908 68.544 201.908C70.3015 201.908 71.689 200.613 71.689 198.947C71.689 197.189 70.394 195.801 68.544 195.801C66.879 195.709 65.584 197.189 65.584 198.947Z" fill="#F7F7F7"/>
<path d="M38.5742 225.597C38.5742 227.448 40.0542 229.021 41.9967 229.021C43.8467 229.021 45.3267 227.54 45.3267 225.597C45.3267 223.746 43.8467 222.266 41.9967 222.266C40.1467 222.266 38.5742 223.654 38.5742 225.597Z" fill="#F7F7F7"/>
<path d="M66.6934 225.504C66.6934 226.707 67.5259 227.54 68.6359 227.54C69.8384 227.54 70.6709 226.707 70.6709 225.504C70.6709 224.394 69.8384 223.561 68.6359 223.561C67.5259 223.561 66.6934 224.486 66.6934 225.504Z" fill="#F7F7F7"/>
<path d="M12.7656 252.246C12.7656 253.542 13.8756 254.652 15.1706 254.652C16.4656 254.652 17.5756 253.542 17.5756 252.246C17.5756 250.951 16.4656 249.841 15.1706 249.841C13.7831 249.748 12.7656 250.858 12.7656 252.246Z" fill="#F7F7F7"/>
<path d="M13.1367 278.896C13.1367 280.006 13.9692 280.839 15.0792 280.839C16.1892 280.839 17.0217 280.006 17.0217 278.896C17.0217 277.786 16.0967 276.953 15.0792 276.953C14.0617 276.953 13.1367 277.786 13.1367 278.896Z" fill="#E6E6E6"/>
<path d="M12.9512 225.597C12.9512 226.707 13.8762 227.725 15.0787 227.725C16.2812 227.725 17.2987 226.8 17.2987 225.597C17.2987 224.394 16.3737 223.376 15.0787 223.376C13.9687 223.469 12.9512 224.394 12.9512 225.597Z" fill="#E6E6E6"/>
<path d="M93.9805 145.463C93.9805 146.296 94.5355 146.758 95.2755 146.758C96.0155 146.758 96.5705 146.203 96.5705 145.463C96.5705 144.723 95.8305 144.167 95.2755 144.167C94.628 144.167 93.9805 144.815 93.9805 145.463Z" fill="#F7F7F7"/>
<path d="M94.166 118.906C94.166 119.646 94.6285 120.201 95.3685 120.201C96.1085 120.201 96.6635 119.646 96.6635 118.906C96.6635 118.166 96.1085 117.703 95.3685 117.703C94.6285 117.703 94.166 118.166 94.166 118.906Z" fill="#F7F7F7"/>
<path d="M67.0625 118.906C67.0625 119.739 67.6175 120.572 68.635 120.572C69.4675 120.572 70.2075 119.739 70.2075 118.906C70.2075 118.073 69.375 117.333 68.635 117.333C67.71 117.24 67.0625 117.888 67.0625 118.906Z" fill="#F7F7F7"/>
<path d="M121.176 92.2562C121.176 93.089 121.916 93.8293 122.748 93.8293C123.581 93.8293 124.413 92.9965 124.413 92.2562C124.413 91.3309 123.581 90.6832 122.748 90.6832C121.823 90.6832 121.176 91.2384 121.176 92.2562Z" fill="#F7F7F7"/>
<path d="M93.8887 92.2562C93.8887 93.089 94.4437 93.8293 95.4612 93.8293C96.2937 93.8293 97.0337 92.9965 97.0337 92.2562C97.0337 91.3309 96.2012 90.6832 95.4612 90.6832C94.4437 90.6832 93.8887 91.2384 93.8887 92.2562Z" fill="#D5D5D5"/>
<path d="M121.084 65.5141C121.084 66.4394 121.916 67.2722 122.749 67.2722C123.674 67.2722 124.506 66.4394 124.506 65.5141C124.506 64.5888 123.674 63.756 122.749 63.756C121.824 63.8485 121.084 64.5888 121.084 65.5141Z" fill="#D5D5D5"/>
<path d="M92.9629 65.5141C92.9629 66.8096 94.0729 67.92 95.3679 67.92C96.6629 67.92 97.7729 66.9947 97.7729 65.5141C97.7729 64.2187 96.6629 63.1082 95.3679 63.1082C94.0729 63.2008 92.9629 64.2187 92.9629 65.5141Z" fill="#F7F7F7"/>
<path d="M121.176 38.772C121.176 39.6973 122.008 40.4375 122.748 40.4375C123.673 40.4375 124.413 39.6973 124.413 38.772C124.413 37.9392 123.673 37.1989 122.748 37.1989C121.916 37.1989 121.176 38.0317 121.176 38.772Z" fill="#F7F7F7"/>
<path d="M92.4082 38.772C92.4082 40.5301 93.7032 41.9181 95.3682 41.9181C97.0332 41.9181 98.3282 40.6226 98.3282 38.772C98.3282 37.1989 97.0332 35.8109 95.3682 35.8109C93.7957 35.9034 92.4082 37.1989 92.4082 38.772Z" fill="#F7F7F7"/>
<path d="M65.4902 38.772C65.4902 40.5301 66.9702 42.1032 68.7277 42.1032C70.4852 42.1032 71.8727 40.5301 71.8727 38.772C71.8727 37.0138 70.5777 35.6259 68.7277 35.6259C66.8777 35.6259 65.4902 37.1064 65.4902 38.772Z" fill="#F7F7F7"/>
<path d="M95.4616 8.79117C93.6116 8.79117 92.0391 10.3642 92.0391 12.2149C92.0391 14.0656 93.6116 15.6386 95.4616 15.6386C97.4041 15.6386 98.8841 14.0656 98.8841 12.2149C98.8841 10.3642 97.4041 8.79117 95.4616 8.79117Z" fill="#F7F7F7"/>
<path d="M64.6582 12.2149C64.6582 14.5282 66.4157 16.1939 68.6357 16.1939C70.7632 16.1939 72.5207 14.4357 72.5207 12.2149C72.5207 9.99411 70.7632 8.23599 68.6357 8.23599C66.4157 8.23599 64.6582 9.99411 64.6582 12.2149Z" fill="#F7F7F7"/>
<path d="M36.5391 12.1224C36.5391 15.0835 38.9441 17.4893 41.8116 17.4893C44.7716 17.4893 47.1766 15.0835 47.1766 12.1224C47.1766 9.16134 44.7716 6.84799 41.8116 6.84799C38.9441 6.84799 36.5391 9.25387 36.5391 12.1224Z" fill="#E6E6E6"/>
</g>
<defs>
<clipPath id="clip0_1294_60592">
<rect width="185" height="290" fill="white"/>
</clipPath>
</defs>
</svg>
