<svg width="72" height="229" viewBox="0 0 72 229" fill="none" xmlns="http://www.w3.org/2000/svg">
<g clip-path="url(#clip0_1635_69450)">
<path d="M3.11884 171.164C1.65752 171.164 0.472656 172.348 0.472656 173.77C0.472656 175.191 1.69701 176.415 3.11884 176.415C4.58017 176.415 5.72554 175.191 5.72554 173.77C5.76503 172.348 4.58017 171.164 3.11884 171.164Z" fill="#E6E6E6"/>
<path d="M3.12188 182.614C1.70005 182.614 0.554687 183.759 0.554687 185.181C0.554687 186.602 1.70005 187.747 3.12188 187.747C4.54372 187.747 5.68908 186.602 5.68908 185.181C5.68908 183.799 4.54372 182.614 3.12188 182.614Z" fill="#E6E6E6"/>
<path d="M14.4961 186.602C15.286 186.602 15.9574 185.97 15.9574 185.181C15.9574 184.391 15.3255 183.72 14.4961 183.72C13.7061 183.72 13.0742 184.351 13.0742 185.181C13.1137 185.97 13.7456 186.602 14.4961 186.602Z" fill="#F7F7F7"/>
<path d="M3.07847 193.63C1.49866 193.63 0.195312 194.933 0.195312 196.513C0.195312 198.092 1.49866 199.434 3.07847 199.434C4.69778 199.434 6.00113 198.131 6.00113 196.513C6.04062 194.933 4.69778 193.63 3.07847 193.63Z" fill="#E6E6E6"/>
<path d="M14.5351 194.065C13.1527 194.064 12.0469 195.131 12.0469 196.513C12.0469 197.894 13.1527 198.961 14.5351 198.961C15.8779 198.961 16.9838 197.894 16.9838 196.513C16.9838 195.131 15.8779 194.065 14.5351 194.065Z" fill="#E6E6E6"/>
<path d="M25.9496 198.013C26.7395 198.013 27.4109 197.381 27.4109 196.552C27.4109 195.762 26.779 195.091 25.9496 195.091C25.1597 195.091 24.4883 195.762 24.4883 196.552C24.4883 197.381 25.1597 198.013 25.9496 198.013Z" fill="#F7F7F7"/>
<path d="M3.08151 205.12C1.54119 205.12 0.277344 206.384 0.277344 207.963C0.277343 209.503 1.54119 210.766 3.08151 210.766C4.62183 210.766 5.92518 209.503 5.92518 207.963C5.92518 206.384 4.66133 205.12 3.08151 205.12Z" fill="#F7F7F7"/>
<path d="M14.5338 205.554C13.2304 205.554 12.1641 206.62 12.1641 207.963C12.1641 209.305 13.1909 210.332 14.5338 210.332C15.7976 210.332 16.9035 209.266 16.9035 207.963C16.9035 206.62 15.8371 205.554 14.5338 205.554Z" fill="#E6E6E6"/>
<path d="M24.4883 207.923C24.4883 208.713 25.1597 209.384 25.9496 209.384C26.779 209.384 27.4109 208.713 27.4109 207.923C27.4109 207.094 26.779 206.463 25.9496 206.463C25.1597 206.463 24.4883 207.094 24.4883 207.923Z" fill="#E6E6E6"/>
<path d="M3.12189 217.084C1.85804 217.084 0.910156 218.071 0.910156 219.255C0.910156 220.479 1.93703 221.467 3.12189 221.467C4.30675 221.467 5.33363 220.479 5.33363 219.295C5.33363 218.071 4.34625 217.084 3.12189 217.084Z" fill="#D5D5D5"/>
<path d="M11.9648 219.334C11.9648 220.756 13.0707 221.94 14.532 221.94C15.9539 221.94 17.1387 220.756 17.1387 219.334C17.1387 217.913 15.9539 216.768 14.532 216.768C13.1102 216.768 11.9648 217.873 11.9648 219.334Z" fill="#F7F7F7"/>
<path d="M3.12057 233.47C4.6214 233.47 5.92474 232.206 5.92474 230.666C5.92474 229.126 4.66089 227.863 3.12057 227.863C1.58026 227.863 0.316406 229.087 0.316406 230.666C0.355901 232.246 1.58026 233.47 3.12057 233.47Z" fill="#E6E6E6"/>
<path d="M12.7187 230.706C12.7187 231.732 13.5087 232.483 14.5355 232.483C15.5624 232.483 16.3128 231.693 16.3128 230.706C16.3128 229.679 15.5229 228.89 14.5355 228.89C13.5482 228.89 12.7187 229.719 12.7187 230.706Z" fill="#D5D5D5"/>
<path d="M23.8164 230.706C23.8164 231.89 24.8433 232.838 25.9886 232.838C27.213 232.838 28.1609 231.89 28.1609 230.706C28.1609 229.482 27.213 228.534 25.9886 228.534C24.7643 228.534 23.8164 229.521 23.8164 230.706Z" fill="#F7F7F7"/>
<path d="M36.8477 219.334C36.8477 219.65 37.0451 219.887 37.3611 219.887C37.6771 219.887 37.914 219.65 37.914 219.334C37.914 219.018 37.6771 218.821 37.3611 218.821C37.0451 218.821 36.8477 219.018 36.8477 219.334Z" fill="#F7F7F7"/>
<path d="M25.2773 219.334C25.2773 219.69 25.5143 220.045 25.9488 220.045C26.3042 220.045 26.6202 219.69 26.6202 219.334C26.6202 218.979 26.2647 218.663 25.9488 218.663C25.5538 218.624 25.2773 218.9 25.2773 219.334Z" fill="#F7F7F7"/>
<path d="M48.3828 207.963C48.3828 208.318 48.6988 208.634 49.0542 208.634C49.4097 208.634 49.7651 208.279 49.7651 207.963C49.7651 207.568 49.4097 207.292 49.0542 207.292C48.6593 207.292 48.3828 207.529 48.3828 207.963Z" fill="#F7F7F7"/>
<path d="M36.7305 207.963C36.7305 208.318 36.9674 208.634 37.4019 208.634C37.7573 208.634 38.0733 208.279 38.0733 207.963C38.0733 207.568 37.7179 207.292 37.4019 207.292C36.9674 207.292 36.7305 207.529 36.7305 207.963Z" fill="#D5D5D5"/>
<path d="M48.3437 196.552C48.3437 196.947 48.6992 197.302 49.0547 197.302C49.4496 197.302 49.8051 196.947 49.8051 196.552C49.8051 196.157 49.4496 195.802 49.0547 195.802C48.6597 195.841 48.3437 196.157 48.3437 196.552Z" fill="#D5D5D5"/>
<path d="M36.3359 196.552C36.3359 197.105 36.8099 197.579 37.3628 197.579C37.9158 197.579 38.3897 197.184 38.3897 196.552C38.3897 195.999 37.9158 195.525 37.3628 195.525C36.8099 195.565 36.3359 195.999 36.3359 196.552Z" fill="#F7F7F7"/>
<path d="M48.3828 185.141C48.3828 185.536 48.7383 185.852 49.0542 185.852C49.4492 185.852 49.7651 185.536 49.7651 185.141C49.7651 184.786 49.4492 184.47 49.0542 184.47C48.6988 184.47 48.3828 184.825 48.3828 185.141Z" fill="#F7F7F7"/>
<path d="M36.0977 185.141C36.0977 185.891 36.6506 186.484 37.3615 186.484C38.0724 186.484 38.6254 185.931 38.6254 185.141C38.6254 184.47 38.0724 183.878 37.3615 183.878C36.6901 183.917 36.0977 184.47 36.0977 185.141Z" fill="#F7F7F7"/>
<path d="M24.6055 185.141C24.6055 185.891 25.2374 186.563 25.9878 186.563C26.7382 186.563 27.3306 185.891 27.3306 185.141C27.3306 184.391 26.7777 183.799 25.9878 183.799C25.1979 183.799 24.6055 184.43 24.6055 185.141Z" fill="#F7F7F7"/>
<path d="M37.4027 172.348C36.6128 172.348 35.9414 173.019 35.9414 173.809C35.9414 174.599 36.6128 175.27 37.4027 175.27C38.2321 175.27 38.8641 174.599 38.8641 173.809C38.8641 173.019 38.2321 172.348 37.4027 172.348Z" fill="#F7F7F7"/>
<path d="M24.25 173.809C24.25 174.796 25.0004 175.507 25.9483 175.507C26.8567 175.507 27.6071 174.757 27.6071 173.809C27.6071 172.862 26.8567 172.111 25.9483 172.111C25.0004 172.111 24.25 172.862 24.25 173.809Z" fill="#F7F7F7"/>
<path d="M25.2773 162.438C25.2773 162.793 25.5933 163.109 25.9488 163.109C26.3437 163.109 26.6202 162.754 26.6202 162.438C26.6202 162.043 26.3832 161.727 25.9488 161.727C25.5933 161.727 25.2773 162.043 25.2773 162.438Z" fill="#F7F7F7"/>
<path d="M13.3086 162.438C13.3086 163.109 13.8615 163.701 14.5724 163.701C15.3229 163.701 15.8363 163.148 15.8363 162.438C15.8363 161.727 15.3229 161.174 14.5724 161.174C13.8615 161.214 13.3086 161.727 13.3086 162.438Z" fill="#F7F7F7"/>
<path d="M1.57812 162.438C1.57812 163.267 2.28904 163.938 3.11844 163.938C3.98734 163.938 4.65876 163.267 4.65876 162.438C4.65876 161.609 3.98734 160.898 3.11844 160.898C2.28904 160.898 1.57812 161.609 1.57812 162.438Z" fill="#F7F7F7"/>
<path d="M36.7305 151.027C36.7305 151.382 37.0464 151.698 37.4019 151.698C37.7968 151.698 38.0733 151.382 38.0733 151.027C38.0733 150.671 37.8363 150.356 37.4019 150.356C37.0069 150.356 36.7305 150.671 36.7305 151.027Z" fill="#F7F7F7"/>
<path d="M24.4883 151.027C24.4883 151.817 25.1597 152.448 25.9101 152.448C26.7395 152.448 27.3714 151.817 27.3714 151.027C27.3714 150.237 26.7395 149.605 25.9101 149.605C25.1597 149.645 24.4883 150.277 24.4883 151.027Z" fill="#F7F7F7"/>
<path d="M12.3242 151.027C12.3242 152.29 13.3511 153.238 14.536 153.238C15.7208 153.238 16.7477 152.29 16.7477 151.027C16.7477 149.763 15.7208 148.816 14.536 148.816C13.3116 148.855 12.3242 149.803 12.3242 151.027Z" fill="#D5D5D5"/>
<path d="M0.949219 151.027C0.949218 152.211 1.89711 153.198 3.12146 153.198C4.30632 153.198 5.29371 152.172 5.29371 151.027C5.29371 149.842 4.26683 148.855 3.12146 148.855C1.9366 148.895 0.949219 149.882 0.949219 151.027Z" fill="#F7F7F7"/>
<path d="M36.4531 139.655C36.4531 140.169 36.8481 140.564 37.3615 140.564C37.875 140.564 38.2699 140.169 38.2699 139.655C38.2699 139.142 37.875 138.747 37.3615 138.747C36.8876 138.747 36.4531 139.142 36.4531 139.655Z" fill="#F7F7F7"/>
<path d="M24.1328 139.655C24.1328 140.682 24.9227 141.472 25.9101 141.472C26.937 141.472 27.7269 140.642 27.7269 139.655C27.7269 138.629 26.937 137.879 25.9101 137.879C24.9622 137.839 24.1328 138.668 24.1328 139.655Z" fill="#E6E6E6"/>
<path d="M12.3242 139.616C12.3242 140.879 13.3511 141.866 14.536 141.866C15.7208 141.866 16.7477 140.84 16.7477 139.616C16.7477 138.392 15.7208 137.444 14.536 137.444C13.3511 137.444 12.3242 138.431 12.3242 139.616Z" fill="#F7F7F7"/>
<path d="M1.69922 139.655C1.69922 140.445 2.29165 141.037 3.08155 141.037C3.87146 141.037 4.46389 140.445 4.46389 139.655C4.46389 138.905 3.83197 138.273 3.08156 138.273C2.33114 138.234 1.69922 138.945 1.69922 139.655Z" fill="#E6E6E6"/>
<path d="M25.0391 128.284C25.0391 128.797 25.434 129.192 25.9475 129.192C26.4609 129.192 26.8558 128.797 26.8558 128.284C26.8558 127.771 26.4609 127.376 25.9475 127.376C25.434 127.376 25.0391 127.771 25.0391 128.284Z" fill="#F7F7F7"/>
<path d="M16.2729 128.284C16.2729 127.257 15.483 126.547 14.4956 126.547C13.5872 126.547 12.7578 127.297 12.7578 128.284C12.7578 129.232 13.5872 130.061 14.4956 130.061C15.5225 130.061 16.2729 129.232 16.2729 128.284Z" fill="#E6E6E6"/>
<path d="M0.554687 128.284C0.554687 129.705 1.73955 130.811 3.12188 130.811C4.54372 130.811 5.64959 129.705 5.64959 128.284C5.64959 126.863 4.54372 125.717 3.12188 125.717C1.73955 125.717 0.554687 126.863 0.554687 128.284Z" fill="#F7F7F7"/>
<path d="M13.5469 116.873C13.5469 117.426 14.0208 117.86 14.4948 117.86C15.0477 117.86 15.5216 117.465 15.5216 116.873C15.5216 116.32 15.0477 115.886 14.4948 115.886C14.0208 115.925 13.5469 116.36 13.5469 116.873Z" fill="white"/>
<path d="M12.2422 173.77C12.2422 175.033 13.2691 176.06 14.4934 176.06C15.7573 176.06 16.7842 175.033 16.7842 173.77C16.7842 172.506 15.7573 171.519 14.4934 171.519C13.2691 171.519 12.2422 172.546 12.2422 173.77Z" fill="#E6E6E6"/>
<path d="M70.0273 3.07973C70.0273 3.63251 70.5013 4.06684 70.9752 4.06684C71.5282 4.06684 72.0021 3.672 72.0021 3.07973C72.0021 2.52696 71.5282 2.05315 70.9752 2.05315C70.5013 2.09263 70.0273 2.52696 70.0273 3.07973Z" fill="#D5D5D5"/>
<path d="M23.6953 105.541C23.6953 106.805 24.7222 107.792 25.9465 107.792C27.2104 107.792 28.2373 106.765 28.2373 105.541C28.2373 104.278 27.2104 103.212 25.9465 103.212C24.6827 103.212 23.6953 104.278 23.6953 105.541Z" fill="white"/>
<path d="M12.6797 105.502C12.6797 106.528 13.5091 107.318 14.4965 107.318C15.5234 107.318 16.3133 106.489 16.3133 105.502C16.3133 104.475 15.5234 103.646 14.4965 103.646C13.5486 103.646 12.6797 104.515 12.6797 105.502Z" fill="white"/>
<path d="M3.1193 103.527C2.01343 103.527 1.14453 104.436 1.14453 105.541C1.14453 106.607 2.01343 107.515 3.1193 107.515C4.18567 107.515 5.09406 106.607 5.09406 105.541C5.13356 104.396 4.22517 103.527 3.1193 103.527Z" fill="white"/>
<path d="M24.4492 94.0906C24.4492 94.9593 25.1206 95.6305 25.95 95.6305C26.7794 95.6305 27.4904 94.9593 27.4904 94.0906C27.4904 93.2615 26.7794 92.5903 25.95 92.5903C25.1206 92.5903 24.4492 93.2615 24.4492 94.0906Z" fill="#D5D5D5"/>
<path d="M11.7305 94.0907C11.7305 95.6306 12.9943 96.8941 14.4951 96.8941C16.075 96.8941 17.3388 95.6306 17.3388 94.0907C17.3388 92.5903 16.075 91.3268 14.4951 91.3268C12.9943 91.3268 11.7305 92.5903 11.7305 94.0907Z" fill="#E6E6E6"/>
<path d="M4.89876 94.0907C4.89876 93.1035 4.10886 92.3139 3.08198 92.3139C2.0551 92.3139 1.30469 93.1035 1.30469 94.0907C1.30469 95.1172 2.09459 95.9069 3.08198 95.9069C4.06936 95.9069 4.89876 95.1172 4.89876 94.0907Z" fill="#D5D5D5"/>
<path d="M24.4492 82.7193C24.4492 83.5484 25.1206 84.2591 25.95 84.2591C26.7794 84.2591 27.4904 83.5484 27.4904 82.7193C27.4904 81.8901 26.7794 81.1794 25.95 81.1794C25.1206 81.2189 24.4492 81.9296 24.4492 82.7193Z" fill="white"/>
<path d="M12.2422 82.7587C12.2422 84.0222 13.2691 85.0093 14.4934 85.0093C15.7573 85.0093 16.7842 83.9827 16.7842 82.7587C16.7842 81.4952 15.7573 80.4686 14.4934 80.4686C13.2691 80.4686 12.2422 81.5347 12.2422 82.7587Z" fill="white"/>
<path d="M3.07894 80.8635C2.05206 80.8635 1.22266 81.6927 1.22266 82.7193C1.22266 83.7459 2.05206 84.575 3.07894 84.575C4.10582 84.575 4.97471 83.7459 4.97471 82.7193C4.97471 81.6927 4.14531 80.8635 3.07894 80.8635Z" fill="#F7F7F7"/>
<path d="M35.8633 71.3479C35.8633 72.2165 36.5347 72.8877 37.3641 72.8877C38.1935 72.8877 38.9044 72.2165 38.9044 71.3479C38.9044 70.5187 38.1935 69.8475 37.3641 69.8475C36.5347 69.8475 35.8633 70.5187 35.8633 71.3479Z" fill="#F7F7F7"/>
<path d="M25.9465 69.0972C24.6827 69.0972 23.6953 70.1238 23.6953 71.3478C23.6953 72.6113 24.7222 73.6379 25.9465 73.6379C27.2104 73.6379 28.2373 72.6113 28.2373 71.3478C28.2373 70.0843 27.2104 69.0972 25.9465 69.0972Z" fill="#F7F7F7"/>
<path d="M12.8359 71.3478C12.8359 72.2954 13.5863 73.0456 14.5342 73.0456C15.4821 73.0456 16.2325 72.256 16.2325 71.3478C16.2325 70.4002 15.4426 69.65 14.5342 69.65C13.5469 69.6895 12.8359 70.4002 12.8359 71.3478Z" fill="#D5D5D5"/>
<path d="M3.12016 73.401C4.22603 73.401 5.17392 72.4929 5.17392 71.3479C5.17392 70.2028 4.22603 69.2947 3.12016 69.2947C1.9748 69.2947 1.06641 70.2028 1.06641 71.3479C1.06641 72.4929 1.9353 73.401 3.12016 73.401Z" fill="#E6E6E6"/>
<path d="M50.552 59.9764C50.552 59.1472 49.8806 58.476 49.0512 58.476C48.2218 58.476 47.5898 59.1472 47.5898 59.9764C47.5898 60.766 48.2218 61.4373 49.0512 61.4373C49.8806 61.4768 50.552 60.8055 50.552 59.9764Z" fill="#F7F7F7"/>
<path d="M40.0858 59.9764C40.0858 58.5155 38.8614 57.3309 37.4001 57.3309C35.9783 57.3309 34.7539 58.5549 34.7539 59.9764C34.7539 61.3978 36.0178 62.6218 37.4001 62.6218C38.8614 62.6613 40.0858 61.4373 40.0858 59.9764Z" fill="#D5D5D5"/>
<path d="M27.726 59.9764C27.726 58.9893 26.9361 58.2391 25.9487 58.2391C24.9613 58.2391 24.2109 59.0288 24.2109 59.9764C24.2109 60.9635 25.0008 61.7137 25.9487 61.7137C26.9361 61.7532 27.726 60.9635 27.726 59.9764Z" fill="#E6E6E6"/>
<path d="M14.5334 61.9506C15.5997 61.9506 16.5081 61.0425 16.5081 59.9764C16.5081 58.8709 15.5997 58.0022 14.5334 58.0022C13.4275 58.0022 12.5586 58.8709 12.5586 59.9764C12.5586 61.0425 13.4275 61.9506 14.5334 61.9506Z" fill="#E6E6E6"/>
<path d="M3.12015 62.4244C4.46299 62.4244 5.52937 61.3583 5.52937 60.0159C5.52937 58.6734 4.46299 57.6073 3.12015 57.6073C1.77731 57.6073 0.710937 58.6734 0.710937 60.0159C0.710937 61.3188 1.77731 62.4244 3.12015 62.4244Z" fill="#E6E6E6"/>
<path d="M38.8645 48.5655C38.8645 47.7758 38.1931 47.1046 37.3637 47.1046C36.5343 47.1046 35.9023 47.7758 35.9023 48.5655C35.9023 49.3946 36.5343 50.0659 37.3637 50.0659C38.1931 50.1053 38.8645 49.4341 38.8645 48.5655Z" fill="#E6E6E6"/>
<path d="M23.8164 48.5655C23.8164 49.7895 24.8038 50.7371 25.9492 50.7371C27.213 50.7371 28.1214 49.7895 28.1214 48.5655C28.1214 47.381 27.213 46.4334 25.9492 46.4334C24.7643 46.4728 23.8164 47.381 23.8164 48.5655Z" fill="#E6E6E6"/>
<path d="M16.2729 48.5655C16.2729 47.5784 15.483 46.8282 14.4956 46.8282C13.5082 46.8282 12.7578 47.6179 12.7578 48.5655C12.7578 49.5921 13.5477 50.3423 14.4956 50.3423C15.5225 50.3423 16.2729 49.5921 16.2729 48.5655Z" fill="#E6E6E6"/>
<path d="M3.12054 50.5792C4.18691 50.5792 5.09531 49.7106 5.09531 48.605C5.09531 47.5389 4.18691 46.6703 3.12054 46.6703C2.01467 46.6703 1.14577 47.5389 1.14577 48.605C1.10628 49.6711 2.01467 50.5792 3.12054 50.5792Z" fill="#F7F7F7"/>
<path d="M50.4726 37.1941C50.4726 36.4044 49.8406 35.7726 49.0507 35.7726C48.3003 35.7726 47.6289 36.4044 47.6289 37.1941C47.6289 37.9837 48.3003 38.6155 49.0507 38.6155C49.8406 38.655 50.4726 38.0232 50.4726 37.1941Z" fill="#E6E6E6"/>
<path d="M37.3632 35.0619C36.1784 35.0619 35.2305 36.0095 35.2305 37.2335C35.2305 38.418 36.2179 39.4051 37.3632 39.4051C38.6271 39.4051 39.5355 38.3785 39.5355 37.2335C39.5355 36.0095 38.6271 35.0619 37.3632 35.0619Z" fill="#F7F7F7"/>
<path d="M24.4062 37.2336C24.4062 38.1022 25.1172 38.7735 25.9466 38.7735C26.776 38.7735 27.4869 38.0627 27.4869 37.2336C27.4869 36.4044 26.776 35.6937 25.9466 35.6937C25.1172 35.6542 24.4062 36.3649 24.4062 37.2336Z" fill="#E6E6E6"/>
<path d="M14.536 39.0893C15.5628 39.0893 16.3922 38.2601 16.3922 37.2335C16.3922 36.2069 15.5628 35.3383 14.536 35.3383C13.5091 35.3383 12.6797 36.1674 12.6797 37.2335C12.6797 38.2601 13.5091 39.0893 14.536 39.0893Z" fill="#E6E6E6"/>
<path d="M3.0824 39.4051C4.34625 39.4051 5.29414 38.418 5.29414 37.2335C5.29414 36.0095 4.26726 35.0224 3.0824 35.0224C1.89754 35.0224 0.910156 36.049 0.910156 37.2335C0.910156 38.4575 1.89754 39.4051 3.0824 39.4051Z" fill="#E6E6E6"/>
<path d="M61.3754 25.8226C61.3754 25.1514 60.8224 24.5591 60.1115 24.5591C59.4401 24.5591 58.8477 25.1119 58.8477 25.8226C58.8477 26.5333 59.4006 27.0861 60.1115 27.0861C60.8224 27.0861 61.3754 26.5333 61.3754 25.8226Z" fill="#F7F7F7"/>
<path d="M51.2633 25.8226C51.2633 24.5986 50.2364 23.6115 49.0121 23.6115C47.8272 23.6115 46.8398 24.6381 46.8398 25.8226C46.8398 27.0861 47.8667 28.0337 49.0121 28.0337C50.2759 28.0337 51.2633 27.0861 51.2633 25.8226Z" fill="#E6E6E6"/>
<path d="M38.9838 25.8226C38.9838 24.954 38.2729 24.2433 37.404 24.2433C36.5351 24.2433 35.8242 24.954 35.8242 25.8226C35.8242 26.6913 36.5351 27.402 37.404 27.402C38.2729 27.402 38.9838 26.6913 38.9838 25.8226Z" fill="#E6E6E6"/>
<path d="M27.6861 25.8227C27.6861 24.875 26.8962 24.0854 25.9878 24.0854C25.0004 24.0854 24.25 24.875 24.25 25.8227C24.25 26.8098 25.0399 27.56 25.9878 27.56C26.9357 27.5994 27.6861 26.8098 27.6861 25.8227Z" fill="#E6E6E6"/>
<path d="M14.496 27.9942C15.7204 27.9942 16.6683 27.0466 16.6683 25.8226C16.6683 24.6381 15.7204 23.6905 14.496 23.6905C13.3112 23.6905 12.3633 24.6381 12.3633 25.8226C12.4028 27.0466 13.3112 27.9942 14.496 27.9942Z" fill="#E6E6E6"/>
<path d="M3.07891 28.4286C4.54024 28.4286 5.68561 27.2836 5.68561 25.8227C5.68561 24.4012 4.54024 23.2562 3.07892 23.2562C1.65708 23.2562 0.511719 24.4012 0.511719 25.8227C0.551214 27.2836 1.69658 28.4286 3.07891 28.4286Z" fill="#E6E6E6"/>
<path d="M61.3754 14.4512C61.3754 13.7405 60.8224 13.1877 60.1115 13.1877C59.4401 13.1877 58.8477 13.7405 58.8477 14.4512C58.8477 15.1224 59.4006 15.7147 60.1115 15.7147C60.8224 15.7147 61.3754 15.1224 61.3754 14.4512Z" fill="#E6E6E6"/>
<path d="M51.2633 14.4512C51.2633 13.1877 50.2364 12.2401 49.0121 12.2401C47.8272 12.2401 46.8398 13.1877 46.8398 14.4512C46.8398 15.6752 47.8667 16.6623 49.0121 16.6623C50.2759 16.6623 51.2633 15.6752 51.2633 14.4512Z" fill="#F7F7F7"/>
<path d="M39.5758 14.4512C39.5758 13.1877 38.5489 12.2401 37.3641 12.2401C36.1792 12.2401 35.1523 13.1877 35.1523 14.4512C35.1523 15.6752 36.1792 16.6623 37.3641 16.6623C38.6279 16.6623 39.5758 15.6752 39.5758 14.4512Z" fill="#E6E6E6"/>
<path d="M29.0684 14.4512C29.0684 12.7139 27.6861 11.3319 25.9878 11.3319C24.25 11.3319 22.8281 12.7139 22.8281 14.4512C22.8281 16.149 24.25 17.5704 25.9878 17.5704C27.6861 17.5704 29.0684 16.1885 29.0684 14.4512Z" fill="#F7F7F7"/>
<path d="M14.4951 18.2811C16.6674 18.2811 18.3657 16.5833 18.3657 14.4512C18.3657 12.319 16.6674 10.5817 14.4951 10.5817C12.3624 10.5817 10.6641 12.319 10.6641 14.4512C10.6641 16.5833 12.4019 18.2811 14.4951 18.2811Z" fill="#E6E6E6"/>
<path d="M3.11883 17.452C4.81713 17.452 6.12048 16.1096 6.12048 14.4512C6.12048 12.7534 4.77764 11.4504 3.11883 11.4504C1.42053 11.4504 0.117187 12.7929 0.117187 14.4512C0.117187 16.1096 1.46003 17.452 3.11883 17.452Z" fill="#E6E6E6"/>
<path d="M60.0742 1.61887C59.3238 1.61887 58.6523 2.25061 58.6523 3.04029C58.6523 3.82998 59.3238 4.46172 60.0742 4.46172C60.9036 4.46172 61.5355 3.82998 61.5355 3.04029C61.575 2.2901 60.9431 1.61887 60.0742 1.61887Z" fill="#E6E6E6"/>
<path d="M51.1479 3.04025C51.1479 1.85572 50.1605 0.947586 49.0151 0.947586C47.9093 0.947586 46.9219 1.85572 46.9219 3.04024C46.9219 4.22477 47.9093 5.17239 49.0151 5.17239C50.2395 5.17239 51.1479 4.22477 51.1479 3.04025Z" fill="#D5D5D5"/>
<path d="M40.2858 3.04031C40.2858 1.46094 39.022 0.197449 37.4422 0.197449C35.8624 0.197449 34.5195 1.46094 34.5195 3.04031C34.5195 4.65915 35.8624 5.96213 37.4422 5.96213C39.022 5.96213 40.2858 4.69864 40.2858 3.04031Z" fill="#F7F7F7"/>
<path d="M28.8727 3.04031C28.8727 1.46094 27.5298 0.197449 25.95 0.197449C24.3702 0.197449 23.0273 1.46094 23.0273 3.04031C23.0273 4.65915 24.3702 5.96213 25.95 5.96213C27.5298 5.96213 28.8727 4.69864 28.8727 3.04031Z" fill="#E6E6E6"/>
<path d="M14.4956 0.276383C12.9553 0.276383 11.6914 1.53987 11.6914 3.07976C11.6914 4.61964 12.9553 5.92261 14.4956 5.92261C16.0359 5.92261 17.3392 4.65912 17.3392 3.07976C17.3392 1.53987 16.0754 0.276383 14.4956 0.276383Z" fill="#F7F7F7"/>
<path d="M3.08064 6.15953C4.77893 6.15953 6.16127 4.77758 6.16127 3.07976C6.16127 1.38194 4.77894 4.17788e-07 3.08064 2.69318e-07C1.38234 1.20848e-07 -1.20813e-07 1.38194 -2.69241e-07 3.07976C0.0394949 4.81706 1.42183 6.15953 3.08064 6.15953Z" fill="#E6E6E6"/>
</g>
<defs>
<clipPath id="clip0_1635_69450">
<rect width="72" height="229" fill="white" transform="matrix(-1 -8.74228e-08 -8.74228e-08 1 72 0)"/>
</clipPath>
</defs>
</svg>
