<svg width="72" height="122" viewBox="0 0 72 122" fill="none" xmlns="http://www.w3.org/2000/svg">
<g clip-path="url(#clip0_1635_69450)">
<path d="M3.11884 0.163727C1.65752 0.163727 0.472656 1.34825 0.472656 2.76968C0.472656 4.19111 1.69701 5.41511 3.11884 5.41511C4.58017 5.41511 5.72554 4.19111 5.72554 2.76968C5.76503 1.34825 4.58017 0.163727 3.11884 0.163727Z" fill="#E6E6E6"/>
<path d="M3.12188 11.6141C1.70005 11.6141 0.554687 12.7591 0.554687 14.1805C0.554687 15.602 1.70005 16.747 3.12188 16.747C4.54372 16.747 5.68908 15.602 5.68908 14.1805C5.68908 12.7986 4.54372 11.6141 3.12188 11.6141Z" fill="#E6E6E6"/>
<path d="M14.4961 15.602C15.286 15.602 15.9574 14.9702 15.9574 14.1805C15.9574 13.3909 15.3255 12.7196 14.4961 12.7196C13.7061 12.7196 13.0742 13.3514 13.0742 14.1805C13.1137 14.9702 13.7456 15.602 14.4961 15.602Z" fill="#F7F7F7"/>
<path d="M3.07847 22.6302C1.49866 22.6302 0.195312 23.9332 0.195312 25.5126C0.195312 27.0919 1.49866 28.4344 3.07847 28.4344C4.69778 28.4344 6.00113 27.1314 6.00113 25.5126C6.04062 23.9332 4.69778 22.6302 3.07847 22.6302Z" fill="#E6E6E6"/>
<path d="M14.5351 23.0645C13.1527 23.0645 12.0469 24.1306 12.0469 25.5125C12.0469 26.8945 13.1527 27.9605 14.5351 27.9605C15.8779 27.9605 16.9838 26.8945 16.9838 25.5125C16.9838 24.1306 15.8779 23.0645 14.5351 23.0645Z" fill="#E6E6E6"/>
<path d="M25.9496 27.0129C26.7395 27.0129 27.4109 26.3812 27.4109 25.552C27.4109 24.7623 26.779 24.0911 25.9496 24.0911C25.1597 24.0911 24.4883 24.7623 24.4883 25.552C24.4883 26.3812 25.1597 27.0129 25.9496 27.0129Z" fill="#F7F7F7"/>
<path d="M3.08151 34.12C1.54119 34.12 0.277344 35.3835 0.277344 36.9629C0.277343 38.5028 1.54119 39.7663 3.08151 39.7663C4.62183 39.7663 5.92518 38.5028 5.92518 36.9629C5.92518 35.3835 4.66133 34.12 3.08151 34.12Z" fill="#F7F7F7"/>
<path d="M14.5338 34.5544C13.2304 34.5544 12.1641 35.6205 12.1641 36.9629C12.1641 38.3054 13.1909 39.332 14.5338 39.332C15.7976 39.332 16.9035 38.2659 16.9035 36.9629C16.9035 35.6205 15.8371 34.5544 14.5338 34.5544Z" fill="#E6E6E6"/>
<path d="M24.4883 36.9234C24.4883 37.7131 25.1597 38.3843 25.9496 38.3843C26.779 38.3843 27.4109 37.7131 27.4109 36.9234C27.4109 36.0943 26.779 35.4625 25.9496 35.4625C25.1597 35.4625 24.4883 36.0943 24.4883 36.9234Z" fill="#E6E6E6"/>
<path d="M3.12189 46.0838C1.85804 46.0838 0.910156 47.0709 0.910156 48.2554C0.910156 49.4794 1.93703 50.4665 3.12189 50.4665C4.30675 50.4665 5.33363 49.4794 5.33363 48.2949C5.33363 47.0709 4.34625 46.0838 3.12189 46.0838Z" fill="#D5D5D5"/>
<path d="M11.9648 48.3344C11.9648 49.7558 13.0707 50.9403 14.532 50.9403C15.9539 50.9403 17.1387 49.7558 17.1387 48.3344C17.1387 46.913 15.9539 45.7679 14.532 45.7679C13.1102 45.7679 11.9648 46.8735 11.9648 48.3344Z" fill="#F7F7F7"/>
<path d="M3.12057 62.4697C4.6214 62.4697 5.92474 61.2062 5.92474 59.6663C5.92474 58.1264 4.66089 56.8629 3.12057 56.8629C1.58026 56.8629 0.316406 58.0869 0.316406 59.6663C0.355901 61.2457 1.58026 62.4697 3.12057 62.4697Z" fill="#E6E6E6"/>
<path d="M12.7187 59.7058C12.7187 60.7324 13.5087 61.4826 14.5355 61.4826C15.5624 61.4826 16.3128 60.6929 16.3128 59.7058C16.3128 58.6792 15.5229 57.8895 14.5355 57.8895C13.5482 57.8895 12.7187 58.7187 12.7187 59.7058Z" fill="#D5D5D5"/>
<path d="M23.8164 59.7058C23.8164 60.8903 24.8433 61.8379 25.9886 61.8379C27.213 61.8379 28.1609 60.8903 28.1609 59.7058C28.1609 58.4818 27.213 57.5341 25.9886 57.5341C24.7643 57.5341 23.8164 58.5212 23.8164 59.7058Z" fill="#F7F7F7"/>
<path d="M3.1184 68.1159C1.49909 68.1159 0.15625 69.4189 0.15625 71.0377C0.15625 72.6566 1.49909 73.9596 3.1184 73.9596C4.73771 73.9596 6.04105 72.6566 6.04105 71.0377C6.04106 69.4584 4.73771 68.1159 3.1184 68.1159Z" fill="#E6E6E6"/>
<path d="M12.875 71.0773C12.875 71.9854 13.6254 72.7751 14.5733 72.7751C15.4817 72.7751 16.2716 72.0249 16.2716 71.0773C16.2716 70.1296 15.5212 69.3795 14.5733 69.3795C13.5859 69.4189 12.875 70.1691 12.875 71.0773Z" fill="#F7F7F7"/>
<path d="M24.3672 71.0772C24.3672 71.9459 25.0781 72.6566 25.947 72.6566C26.8159 72.6566 27.5268 71.9459 27.5268 71.0772C27.5268 70.2086 26.8159 69.4979 25.947 69.4979C25.0781 69.4979 24.3672 70.1691 24.3672 71.0772Z" fill="#F7F7F7"/>
<path d="M3.12015 80.0401C1.77731 80.0401 0.710937 81.1062 0.710937 82.4486C0.710937 83.7911 1.77731 84.8571 3.12015 84.8571C4.46299 84.8571 5.52937 83.7911 5.52937 82.4486C5.52937 81.1062 4.4235 80.0401 3.12015 80.0401Z" fill="#D5D5D5"/>
<path d="M15.917 82.4881C15.917 81.6985 15.2851 81.1062 14.5347 81.1062C13.7448 81.1062 13.1523 81.7379 13.1523 82.4881C13.1523 83.2778 13.7843 83.8701 14.5347 83.8701C15.2851 83.8306 15.917 83.2383 15.917 82.4881Z" fill="#E6E6E6"/>
<path d="M24.6445 82.4881C24.6445 83.1988 25.1975 83.7516 25.9084 83.7516C26.6588 83.7516 27.2512 83.1988 27.2512 82.4881C27.2512 81.7379 26.6983 81.1457 25.9084 81.1457C25.1975 81.1062 24.6445 81.7379 24.6445 82.4881Z" fill="#F7F7F7"/>
<path d="M13.1133 93.8596C13.1133 94.6492 13.7452 95.3204 14.5746 95.3204C15.3645 95.3204 15.9964 94.6887 15.9964 93.8596C15.9964 93.0699 15.3645 92.4381 14.5746 92.4381C13.7847 92.4381 13.1133 93.0304 13.1133 93.8596Z" fill="#F7F7F7"/>
<path d="M25.1211 93.8201C25.1211 94.3334 25.4766 94.6888 25.9505 94.6888C26.4639 94.6888 26.8194 94.3334 26.8194 93.8201C26.8194 93.3463 26.4639 92.991 25.9505 92.991C25.4766 92.991 25.1211 93.3858 25.1211 93.8201Z" fill="#F7F7F7"/>
<path d="M2.09375 105.231C2.09375 105.784 2.56769 106.258 3.12063 106.258C3.67356 106.258 4.14751 105.784 4.14751 105.231C4.14751 104.678 3.67356 104.204 3.12063 104.204C2.5282 104.165 2.09375 104.639 2.09375 105.231Z" fill="#F7F7F7"/>
<path d="M2.25 116.602C2.25 117.076 2.60546 117.432 3.0794 117.432C3.55335 117.432 3.9088 117.076 3.9088 116.602C3.9088 116.129 3.51385 115.773 3.0794 115.773C2.64495 115.773 2.25 116.129 2.25 116.602Z" fill="#E6E6E6"/>
<path d="M2.17187 93.8596C2.17187 94.3334 2.56683 94.7677 3.08027 94.7677C3.59371 94.7677 4.02816 94.3729 4.02816 93.8596C4.02816 93.3463 3.6332 92.912 3.08027 92.912C2.60632 92.9514 2.17187 93.3463 2.17187 93.8596Z" fill="#E6E6E6"/>
<path d="M36.7695 59.6663C36.7695 60.0216 37.0065 60.2191 37.3225 60.2191C37.6384 60.2191 37.8754 59.9821 37.8754 59.6663C37.8754 59.3504 37.5594 59.1135 37.3225 59.1135C37.046 59.1135 36.7695 59.3899 36.7695 59.6663Z" fill="#F7F7F7"/>
<path d="M36.8477 48.3343C36.8477 48.6502 37.0451 48.8871 37.3611 48.8871C37.6771 48.8871 37.914 48.6502 37.914 48.3343C37.914 48.0185 37.6771 47.8211 37.3611 47.8211C37.0451 47.8211 36.8477 48.0185 36.8477 48.3343Z" fill="#F7F7F7"/>
<path d="M25.2773 48.3343C25.2773 48.6897 25.5143 49.0451 25.9488 49.0451C26.3042 49.0451 26.6202 48.6897 26.6202 48.3343C26.6202 47.979 26.2647 47.6631 25.9488 47.6631C25.5538 47.6237 25.2773 47.9 25.2773 48.3343Z" fill="#F7F7F7"/>
<path d="M48.3828 36.9629C48.3828 37.3183 48.6988 37.6342 49.0542 37.6342C49.4097 37.6342 49.7651 37.2788 49.7651 36.9629C49.7651 36.5681 49.4097 36.2917 49.0542 36.2917C48.6593 36.2917 48.3828 36.5286 48.3828 36.9629Z" fill="#F7F7F7"/>
<path d="M36.7305 36.9629C36.7305 37.3183 36.9674 37.6342 37.4019 37.6342C37.7573 37.6342 38.0733 37.2788 38.0733 36.9629C38.0733 36.5681 37.7179 36.2917 37.4019 36.2917C36.9674 36.2917 36.7305 36.5286 36.7305 36.9629Z" fill="#D5D5D5"/>
<path d="M48.3437 25.552C48.3437 25.9468 48.6992 26.3022 49.0547 26.3022C49.4496 26.3022 49.8051 25.9468 49.8051 25.552C49.8051 25.1571 49.4496 24.8018 49.0547 24.8018C48.6597 24.8413 48.3437 25.1571 48.3437 25.552Z" fill="#D5D5D5"/>
<path d="M36.3359 25.552C36.3359 26.1048 36.8099 26.5786 37.3628 26.5786C37.9158 26.5786 38.3897 26.1837 38.3897 25.552C38.3897 24.9992 37.9158 24.5254 37.3628 24.5254C36.8099 24.5649 36.3359 24.9992 36.3359 25.552Z" fill="#F7F7F7"/>
<path d="M48.3828 14.1411C48.3828 14.5359 48.7383 14.8518 49.0542 14.8518C49.4492 14.8518 49.7651 14.5359 49.7651 14.1411C49.7651 13.7857 49.4492 13.4698 49.0542 13.4698C48.6988 13.4698 48.3828 13.8252 48.3828 14.1411Z" fill="#F7F7F7"/>
<path d="M36.0977 14.1411C36.0977 14.8913 36.6506 15.4835 37.3615 15.4835C38.0724 15.4835 38.6254 14.9308 38.6254 14.1411C38.6254 13.4699 38.0724 12.8776 37.3615 12.8776C36.6901 12.9171 36.0977 13.4699 36.0977 14.1411Z" fill="#F7F7F7"/>
<path d="M24.6055 14.1411C24.6055 14.8913 25.2374 15.5625 25.9878 15.5625C26.7382 15.5625 27.3306 14.8913 27.3306 14.1411C27.3306 13.3909 26.7777 12.7986 25.9878 12.7986C25.1979 12.7986 24.6055 13.4304 24.6055 14.1411Z" fill="#F7F7F7"/>
<path d="M37.4027 1.34822C36.6128 1.34822 35.9414 2.01944 35.9414 2.80913C35.9414 3.59881 36.6128 4.27004 37.4027 4.27004C38.2321 4.27004 38.8641 3.59881 38.8641 2.80913C38.8641 2.01944 38.2321 1.34822 37.4027 1.34822Z" fill="#F7F7F7"/>
<path d="M24.25 2.80913C24.25 3.79623 25.0004 4.50695 25.9483 4.50695C26.8567 4.50695 27.6071 3.75675 27.6071 2.80913C27.6071 1.86151 26.8567 1.11131 25.9483 1.11131C25.0004 1.11131 24.25 1.86151 24.25 2.80913Z" fill="#F7F7F7"/>
<path d="M12.2422 2.76966C12.2422 4.03315 13.2691 5.05973 14.4934 5.05973C15.7573 5.05973 16.7842 4.03315 16.7842 2.76966C16.7842 1.50617 15.7573 0.519059 14.4934 0.519058C13.2691 0.519058 12.2422 1.54565 12.2422 2.76966Z" fill="#E6E6E6"/>
</g>
<defs>
<clipPath id="clip0_1635_69450">
<rect width="72" height="122" fill="white" transform="matrix(-1 -8.74228e-08 -8.74228e-08 1 72 0)"/>
</clipPath>
</defs>
</svg>
