<svg width="159" height="254" viewBox="0 0 159 254" fill="none" xmlns="http://www.w3.org/2000/svg">
<g clip-path="url(#clip0_1294_60765)">
<path d="M145.657 2.97498C148.728 2.97498 151.248 5.49416 151.248 8.64314C151.248 11.7134 148.728 14.2326 145.657 14.2326C142.586 14.2326 139.987 11.7134 139.987 8.64314C139.987 5.49416 142.507 2.97498 145.657 2.97498Z" fill="#F7F7F7"/>
<path d="M122.82 3.8389C125.419 3.8389 127.545 5.96444 127.545 8.64106C127.545 11.3177 125.498 13.3645 122.82 13.3645C120.3 13.3645 118.095 11.239 118.095 8.64106C118.095 5.96444 120.221 3.8389 122.82 3.8389Z" fill="#E6E6E6"/>
<path d="M102.977 8.56329C102.977 10.1378 101.638 11.4761 100.063 11.4761C98.4093 11.4761 97.1493 10.1378 97.1493 8.56329C97.1493 6.91008 98.4093 5.65048 100.063 5.65048C101.638 5.65048 102.977 6.91008 102.977 8.56329Z" fill="#E6E6E6"/>
<path d="M145.578 26.8241C148.098 26.8241 149.988 28.7922 149.988 31.154C149.988 33.5944 147.941 35.5625 145.578 35.5625C143.216 35.5625 141.169 33.5944 141.169 31.2327C141.169 28.7922 143.137 26.8241 145.578 26.8241Z" fill="#D5D5D5"/>
<path d="M127.941 31.3129C127.941 34.147 125.736 36.5088 122.823 36.5088C119.988 36.5088 117.626 34.147 117.626 31.3129C117.626 28.4788 119.988 26.1958 122.823 26.1958C125.658 26.1958 127.941 28.4001 127.941 31.3129Z" fill="#F7F7F7"/>
<path d="M145.579 59.496C142.587 59.496 139.988 56.9768 139.988 53.9066C139.988 50.8363 142.508 48.3172 145.579 48.3172C148.65 48.3172 151.17 50.7576 151.17 53.9066C151.091 57.0556 148.65 59.496 145.579 59.496Z" fill="#E6E6E6"/>
<path d="M126.443 53.9857C126.443 56.0326 124.868 57.5283 122.821 57.5283C120.774 57.5283 119.277 55.9538 119.277 53.9857C119.277 51.9389 120.852 50.3644 122.821 50.3644C124.79 50.3644 126.443 52.0176 126.443 53.9857Z" fill="#D5D5D5"/>
<path d="M104.316 53.9874C104.316 56.3491 102.269 58.2385 99.9853 58.2385C97.5442 58.2385 95.6543 56.3491 95.6543 53.9874C95.6543 51.5469 97.5442 49.6575 99.9853 49.6575C102.426 49.6575 104.316 51.6256 104.316 53.9874Z" fill="#F7F7F7"/>
<path d="M145.58 70.7527C148.809 70.7527 151.486 73.3505 151.486 76.5782C151.486 79.8059 148.809 82.4039 145.58 82.4039C142.352 82.4039 139.753 79.8059 139.753 76.5782C139.753 73.4293 142.352 70.7527 145.58 70.7527Z" fill="#E6E6E6"/>
<path d="M126.129 76.6614C126.129 78.4721 124.633 80.0466 122.743 80.0466C120.932 80.0466 119.357 78.5508 119.357 76.6614C119.357 74.7721 120.853 73.2763 122.743 73.2763C124.711 73.355 126.129 74.8508 126.129 76.6614Z" fill="#F7F7F7"/>
<path d="M103.215 76.6609C103.215 78.3928 101.797 79.8099 100.065 79.8099C98.3325 79.8099 96.9151 78.3928 96.9151 76.6609C96.9151 74.929 98.3325 73.5119 100.065 73.5119C101.797 73.5119 103.215 74.8502 103.215 76.6609Z" fill="#F7F7F7"/>
<path d="M145.581 94.5285C148.259 94.5285 150.385 96.654 150.385 99.3307C150.385 102.007 148.259 104.133 145.581 104.133C142.904 104.133 140.778 102.007 140.778 99.3307C140.778 96.654 142.983 94.5285 145.581 94.5285Z" fill="#D5D5D5"/>
<path d="M120.066 99.4096C120.066 97.8351 121.326 96.6542 122.822 96.6542C124.397 96.6542 125.578 97.9138 125.578 99.4096C125.578 100.984 124.318 102.165 122.822 102.165C121.326 102.086 120.066 100.905 120.066 99.4096Z" fill="#E6E6E6"/>
<path d="M102.662 99.4129C102.662 100.83 101.56 101.932 100.142 101.932C98.646 101.932 97.4648 100.83 97.4648 99.4129C97.4648 97.9171 98.5673 96.7363 100.142 96.7363C101.56 96.6576 102.662 97.9171 102.662 99.4129Z" fill="#F7F7F7"/>
<path d="M125.656 122.081C125.656 123.655 124.396 124.994 122.743 124.994C121.168 124.994 119.908 123.734 119.908 122.081C119.908 120.506 121.168 119.247 122.743 119.247C124.318 119.247 125.656 120.428 125.656 122.081Z" fill="#F7F7F7"/>
<path d="M101.717 122.005C101.717 123.028 101.008 123.737 100.063 123.737C99.0394 123.737 98.3307 123.028 98.3307 122.005C98.3307 121.06 99.0394 120.352 100.063 120.352C101.008 120.352 101.717 121.139 101.717 122.005Z" fill="#F7F7F7"/>
<path d="M147.627 144.755C147.627 145.857 146.682 146.802 145.58 146.802C144.477 146.802 143.532 145.857 143.532 144.755C143.532 143.653 144.477 142.708 145.58 142.708C146.761 142.629 147.627 143.574 147.627 144.755Z" fill="#F7F7F7"/>
<path d="M147.311 167.431C147.311 168.375 146.602 169.084 145.657 169.084C144.712 169.084 144.003 168.375 144.003 167.431C144.003 166.486 144.791 165.778 145.657 165.778C146.523 165.778 147.311 166.486 147.311 167.431Z" fill="#E6E6E6"/>
<path d="M147.471 122.084C147.471 123.029 146.683 123.895 145.66 123.895C144.636 123.895 143.77 123.107 143.77 122.084C143.77 121.06 144.557 120.194 145.66 120.194C146.604 120.273 147.471 121.06 147.471 122.084Z" fill="#E6E6E6"/>
<path d="M78.4883 53.9064C78.4883 54.6149 78.0158 55.0085 77.3858 55.0085C76.7559 55.0085 76.2834 54.5362 76.2834 53.9064C76.2834 53.2766 76.9133 52.8043 77.3858 52.8043C77.9371 52.8043 78.4883 53.3553 78.4883 53.9064Z" fill="#F7F7F7"/>
<path d="M78.3301 31.3137C78.3301 31.9435 77.9363 32.4158 77.3064 32.4158C76.6764 32.4158 76.2039 31.9435 76.2039 31.3137C76.2039 30.6839 76.6764 30.2903 77.3064 30.2903C77.9363 30.2903 78.3301 30.6839 78.3301 31.3137Z" fill="#F7F7F7"/>
<path d="M101.404 31.3114C101.404 32.0199 100.932 32.7284 100.066 32.7284C99.3569 32.7284 98.7269 32.0199 98.7269 31.3114C98.7269 30.6029 99.4356 29.9731 100.066 29.9731C100.853 29.8944 101.404 30.4454 101.404 31.3114Z" fill="#F7F7F7"/>
<path d="M55.3359 8.64332C55.3359 9.35184 54.706 9.98164 53.9972 9.98164C53.2885 9.98164 52.5798 9.27311 52.5798 8.64332C52.5798 7.85607 53.2885 7.30499 53.9972 7.30499C54.7847 7.30499 55.3359 7.77735 55.3359 8.64332Z" fill="#F7F7F7"/>
<path d="M78.5684 8.64332C78.5684 9.35184 78.0959 9.98164 77.2297 9.98164C76.5209 9.98164 75.891 9.27311 75.891 8.64332C75.891 7.85607 76.5997 7.30499 77.2297 7.30499C78.0959 7.30499 78.5684 7.77735 78.5684 8.64332Z" fill="#D5D5D5"/>
</g>
<defs>
<clipPath id="clip0_1294_60765">
<rect width="157.493" height="254" fill="white" transform="matrix(-1 0 0 1 158.492 0)"/>
</clipPath>
</defs>
</svg>
