<svg width="264" height="414" viewBox="0 0 264 414" fill="none" xmlns="http://www.w3.org/2000/svg">
<g clip-path="url(#clip0_1019_63244)">
<path d="M21.6467 8.58325C16.7627 8.58325 12.8027 12.5447 12.8027 17.2984C12.8027 22.0521 16.8947 26.1456 21.6467 26.1456C26.5307 26.1456 30.3587 22.0521 30.3587 17.2984C30.4907 12.5447 26.5307 8.58325 21.6467 8.58325Z" fill="#E6E6E6"/>
<path d="M21.6484 46.8787C16.8964 46.8787 13.0684 50.708 13.0684 55.4618C13.0684 60.2155 16.8964 64.0448 21.6484 64.0448C26.4004 64.0448 30.2284 60.2155 30.2284 55.4618C30.2284 50.8401 26.4004 46.8787 21.6484 46.8787Z" fill="#E6E6E6"/>
<path d="M59.6641 60.2093C62.3041 60.2093 64.5481 58.0966 64.5481 55.4556C64.5481 52.8146 62.4361 50.5698 59.6641 50.5698C57.0241 50.5698 54.9121 52.6826 54.9121 55.4556C55.0441 58.0966 57.1561 60.2093 59.6641 60.2093Z" fill="#F7F7F7"/>
<path d="M21.513 83.7173C16.233 83.7173 11.877 88.0748 11.877 93.3567C11.877 98.6386 16.233 103.128 21.513 103.128C26.925 103.128 31.281 98.7707 31.281 93.3567C31.413 88.0748 26.925 83.7173 21.513 83.7173Z" fill="#E6E6E6"/>
<path d="M59.7945 85.1741C55.1745 85.1741 51.4785 88.7393 51.4785 93.361C51.4785 97.9827 55.1745 101.548 59.7945 101.548C64.2825 101.548 67.9785 97.9827 67.9785 93.361C67.9785 88.7393 64.2825 85.1741 59.7945 85.1741Z" fill="#E6E6E6"/>
<path d="M97.9445 98.3831C100.585 98.3831 102.829 96.2703 102.829 93.4973C102.829 90.8564 100.717 88.6116 97.9445 88.6116C95.3045 88.6116 93.0605 90.8564 93.0605 93.4973C93.0605 96.2703 95.3045 98.3831 97.9445 98.3831Z" fill="#F7F7F7"/>
<path d="M21.5165 122.144C16.3685 122.144 12.1445 126.369 12.1445 131.651C12.1445 136.801 16.3685 141.026 21.5165 141.026C26.6645 141.026 31.0205 136.801 31.0205 131.651C31.0205 126.369 26.7965 122.144 21.5165 122.144Z" fill="#F7F7F7"/>
<path d="M59.7911 123.592C55.4351 123.592 51.8711 127.158 51.8711 131.647C51.8711 136.137 55.3031 139.57 59.7911 139.57C64.0151 139.57 67.7111 136.005 67.7111 131.647C67.7111 127.158 64.1471 123.592 59.7911 123.592Z" fill="#E6E6E6"/>
<path d="M93.0605 131.522C93.0605 134.163 95.3045 136.408 97.9445 136.408C100.717 136.408 102.829 134.163 102.829 131.522C102.829 128.749 100.717 126.637 97.9445 126.637C95.3045 126.637 93.0605 128.749 93.0605 131.522Z" fill="#E6E6E6"/>
<path d="M21.6479 162.158C17.4239 162.158 14.2559 165.459 14.2559 169.42C14.2559 173.514 17.6879 176.815 21.6479 176.815C25.6079 176.815 29.0399 173.514 29.0399 169.552C29.0399 165.459 25.7399 162.158 21.6479 162.158Z" fill="#D5D5D5"/>
<path d="M51.2168 169.685C51.2168 174.439 54.9128 178.4 59.7968 178.4C64.5488 178.4 68.5088 174.439 68.5088 169.685C68.5088 164.931 64.5488 161.102 59.7968 161.102C55.0448 161.102 51.2168 164.799 51.2168 169.685Z" fill="#F7F7F7"/>
<path d="M21.6415 216.953C26.6575 216.953 31.0135 212.728 31.0135 207.578C31.0135 202.428 26.7895 198.202 21.6415 198.202C16.4935 198.202 12.2695 202.296 12.2695 207.578C12.4015 212.86 16.4935 216.953 21.6415 216.953Z" fill="#E6E6E6"/>
<path d="M53.7207 207.706C53.7207 211.139 56.3607 213.648 59.7927 213.648C63.2247 213.648 65.7327 211.007 65.7327 207.706C65.7327 204.273 63.0927 201.632 59.7927 201.632C56.4927 201.632 53.7207 204.405 53.7207 207.706Z" fill="#D5D5D5"/>
<path d="M90.8125 207.716C90.8125 211.677 94.2445 214.846 98.0725 214.846C102.165 214.846 105.333 211.677 105.333 207.716C105.333 203.622 102.165 200.453 98.0725 200.453C93.9805 200.453 90.8125 203.754 90.8125 207.716Z" fill="#F7F7F7"/>
<path d="M21.6461 235.843C16.2341 235.843 11.7461 240.201 11.7461 245.614C11.7461 251.028 16.2341 255.386 21.6461 255.386C27.0581 255.386 31.4141 251.028 31.4141 245.614C31.4141 240.333 27.0581 235.843 21.6461 235.843Z" fill="#E6E6E6"/>
<path d="M54.2539 245.744C54.2539 248.781 56.7619 251.422 59.9299 251.422C62.9659 251.422 65.6059 248.913 65.6059 245.744C65.6059 242.575 63.0979 240.066 59.9299 240.066C56.6299 240.198 54.2539 242.707 54.2539 245.744Z" fill="#F7F7F7"/>
<path d="M92.668 245.733C92.668 248.638 95.044 251.015 97.948 251.015C100.852 251.015 103.228 248.638 103.228 245.733C103.228 242.828 100.852 240.451 97.948 240.451C95.044 240.451 92.668 242.696 92.668 245.733Z" fill="#F7F7F7"/>
<path d="M21.6438 275.718C17.1558 275.718 13.5918 279.283 13.5918 283.773C13.5918 288.263 17.1558 291.828 21.6438 291.828C26.1318 291.828 29.6958 288.263 29.6958 283.773C29.6958 279.283 25.9998 275.718 21.6438 275.718Z" fill="#D5D5D5"/>
<path d="M64.4138 283.908C64.4138 281.267 62.3018 279.286 59.7938 279.286C57.1538 279.286 55.1738 281.399 55.1738 283.908C55.1738 286.549 57.2858 288.53 59.7938 288.53C62.3018 288.398 64.4138 286.417 64.4138 283.908Z" fill="#E6E6E6"/>
<path d="M93.584 283.905C93.584 286.281 95.432 288.13 97.808 288.13C100.316 288.13 102.296 286.281 102.296 283.905C102.296 281.396 100.448 279.415 97.808 279.415C95.432 279.283 93.584 281.396 93.584 283.905Z" fill="#F7F7F7"/>
<path d="M55.043 321.934C55.043 324.575 57.155 326.82 59.927 326.82C62.567 326.82 64.679 324.707 64.679 321.934C64.679 319.293 62.567 317.181 59.927 317.181C57.287 317.181 55.043 319.161 55.043 321.934Z" fill="#F7F7F7"/>
<path d="M95.168 321.803C95.168 323.52 96.356 324.709 97.94 324.709C99.656 324.709 100.844 323.52 100.844 321.803C100.844 320.219 99.656 319.031 97.94 319.031C96.356 319.031 95.168 320.351 95.168 321.803Z" fill="#F7F7F7"/>
<path d="M18.2168 359.965C18.2168 361.813 19.8008 363.398 21.6488 363.398C23.4968 363.398 25.0808 361.813 25.0808 359.965C25.0808 358.116 23.4968 356.531 21.6488 356.531C19.6688 356.399 18.2168 357.984 18.2168 359.965Z" fill="#F7F7F7"/>
<path d="M18.7441 397.993C18.7441 399.578 19.9321 400.766 21.5161 400.766C23.1001 400.766 24.2881 399.578 24.2881 397.993C24.2881 396.409 22.9681 395.22 21.5161 395.22C20.0641 395.22 18.7441 396.409 18.7441 397.993Z" fill="#E6E6E6"/>
<path d="M18.4785 321.929C18.4785 323.514 19.7985 324.967 21.5145 324.967C23.2305 324.967 24.6825 323.646 24.6825 321.929C24.6825 320.213 23.3625 318.76 21.5145 318.76C19.9305 318.892 18.4785 320.213 18.4785 321.929Z" fill="#E6E6E6"/>
<path d="M134.109 207.572C134.109 208.761 134.901 209.421 135.957 209.421C137.013 209.421 137.805 208.629 137.805 207.572C137.805 206.516 136.749 205.724 135.957 205.724C135.033 205.724 134.109 206.648 134.109 207.572Z" fill="#F7F7F7"/>
<path d="M134.371 169.685C134.371 170.742 135.031 171.534 136.087 171.534C137.143 171.534 137.935 170.742 137.935 169.685C137.935 168.629 137.143 167.969 136.087 167.969C135.031 167.969 134.371 168.629 134.371 169.685Z" fill="#F7F7F7"/>
<path d="M95.6992 169.678C95.6992 170.866 96.4912 172.055 97.9432 172.055C99.1312 172.055 100.187 170.866 100.187 169.678C100.187 168.489 98.9992 167.433 97.9432 167.433C96.6232 167.301 95.6992 168.225 95.6992 169.678Z" fill="#F7F7F7"/>
<path d="M172.92 131.648C172.92 132.837 173.976 133.893 175.164 133.893C176.352 133.893 177.54 132.705 177.54 131.648C177.54 130.328 176.352 129.403 175.164 129.403C173.844 129.403 172.92 130.196 172.92 131.648Z" fill="#F7F7F7"/>
<path d="M133.979 131.648C133.979 132.837 134.771 133.893 136.223 133.893C137.411 133.893 138.467 132.705 138.467 131.648C138.467 130.328 137.279 129.403 136.223 129.403C134.771 129.403 133.979 130.196 133.979 131.648Z" fill="#D5D5D5"/>
<path d="M172.785 93.494C172.785 94.8145 173.973 96.0029 175.161 96.0029C176.481 96.0029 177.669 94.8145 177.669 93.494C177.669 92.1735 176.481 90.9851 175.161 90.9851C173.841 91.1172 172.785 92.1735 172.785 93.494Z" fill="#D5D5D5"/>
<path d="M132.66 93.4935C132.66 95.3422 134.244 96.9268 136.092 96.9268C137.94 96.9268 139.524 95.6063 139.524 93.4935C139.524 91.6449 137.94 90.0603 136.092 90.0603C134.244 90.1924 132.66 91.6449 132.66 93.4935Z" fill="#F7F7F7"/>
<path d="M172.92 55.3273C172.92 56.6478 174.108 57.7042 175.164 57.7042C176.484 57.7042 177.54 56.6478 177.54 55.3273C177.54 54.1389 176.484 53.0825 175.164 53.0825C173.976 53.0825 172.92 54.271 172.92 55.3273Z" fill="#F7F7F7"/>
<path d="M131.871 55.3273C131.871 57.8362 133.719 59.817 136.095 59.817C138.471 59.817 140.319 57.9683 140.319 55.3273C140.319 53.0825 138.471 51.1018 136.095 51.1018C133.851 51.2339 131.871 53.0825 131.871 55.3273Z" fill="#F7F7F7"/>
<path d="M93.457 55.3295C93.457 57.8384 95.569 60.0832 98.077 60.0832C100.585 60.0832 102.565 57.8384 102.565 55.3295C102.565 52.8205 100.717 50.8398 98.077 50.8398C95.437 50.8398 93.457 52.9526 93.457 55.3295Z" fill="#F7F7F7"/>
<path d="M136.224 12.5447C133.584 12.5447 131.34 14.7895 131.34 17.4304C131.34 20.0714 133.584 22.3162 136.224 22.3162C138.996 22.3162 141.108 20.0714 141.108 17.4304C141.108 14.7895 138.996 12.5447 136.224 12.5447Z" fill="#F7F7F7"/>
<path d="M92.2695 17.4288C92.2695 20.73 94.7775 23.1068 97.9455 23.1068C100.982 23.1068 103.49 20.5979 103.49 17.4288C103.49 14.2596 100.982 11.7507 97.9455 11.7507C94.7775 11.7507 92.2695 14.2596 92.2695 17.4288Z" fill="#F7F7F7"/>
<path d="M52.1406 17.2967C52.1406 21.5223 55.5726 24.9555 59.6646 24.9555C63.8886 24.9555 67.3206 21.5223 67.3206 17.2967C67.3206 13.0712 63.8886 9.77002 59.6646 9.77002C55.5726 9.77002 52.1406 13.2033 52.1406 17.2967Z" fill="#E6E6E6"/>
</g>
<defs>
<clipPath id="clip0_1019_63244">
<rect width="264" height="413.838" fill="white"/>
</clipPath>
</defs>
</svg>
