<svg width="72" height="122" viewBox="0 0 72 122" fill="none" xmlns="http://www.w3.org/2000/svg">
<g clip-path="url(#clip0_1635_69010)">
<path d="M13.5469 116.427C13.5469 116.977 14.0209 117.41 14.4949 117.41C15.0479 117.41 15.5219 117.017 15.5219 116.427C15.5219 115.876 15.0479 115.443 14.4949 115.443C14.0209 115.483 13.5469 115.915 13.5469 116.427Z" fill="white"/>
<path d="M70.0352 3.068C70.0352 3.61867 70.5092 4.05133 70.9832 4.05133C71.5362 4.05133 72.0102 3.658 72.0102 3.068C72.0102 2.51733 71.5362 2.04533 70.9832 2.04533C70.5092 2.08467 70.0352 2.51733 70.0352 3.068Z" fill="#D5D5D5"/>
<path d="M23.6992 105.138C23.6992 106.397 24.7262 107.38 25.9507 107.38C27.2147 107.38 28.2417 106.357 28.2417 105.138C28.2417 103.879 27.2147 102.817 25.9507 102.817C24.6867 102.817 23.6992 103.879 23.6992 105.138Z" fill="white"/>
<path d="M12.6797 105.099C12.6797 106.121 13.5092 106.908 14.4967 106.908C15.5237 106.908 16.3137 106.082 16.3137 105.099C16.3137 104.076 15.5237 103.25 14.4967 103.25C13.5487 103.25 12.6797 104.115 12.6797 105.099Z" fill="white"/>
<path d="M3.11953 103.132C2.01353 103.132 1.14453 104.037 1.14453 105.138C1.14453 106.2 2.01353 107.105 3.11953 107.105C4.18603 107.105 5.09453 106.2 5.09453 105.138C5.13403 103.997 4.22553 103.132 3.11953 103.132Z" fill="white"/>
<path d="M24.4492 93.7313C24.4492 94.5967 25.1207 95.2653 25.9502 95.2653C26.7797 95.2653 27.4907 94.5967 27.4907 93.7313C27.4907 92.9053 26.7797 92.2367 25.9502 92.2367C25.1207 92.2367 24.4492 92.9053 24.4492 93.7313Z" fill="#D5D5D5"/>
<path d="M11.7305 93.7313C11.7305 95.2653 12.9945 96.524 14.4955 96.524C16.0755 96.524 17.3395 95.2653 17.3395 93.7313C17.3395 92.2367 16.0755 90.978 14.4955 90.978C12.9945 90.978 11.7305 92.2367 11.7305 93.7313Z" fill="#E6E6E6"/>
<path d="M4.89919 93.7313C4.89919 92.748 4.10919 91.9613 3.08219 91.9613C2.05519 91.9613 1.30469 92.748 1.30469 93.7313C1.30469 94.754 2.09469 95.5407 3.08219 95.5407C4.06969 95.5407 4.89919 94.754 4.89919 93.7313Z" fill="#D5D5D5"/>
<path d="M24.4492 82.4033C24.4492 83.2293 25.1207 83.9373 25.9502 83.9373C26.7797 83.9373 27.4907 83.2293 27.4907 82.4033C27.4907 81.5773 26.7797 80.8693 25.9502 80.8693C25.1207 80.9087 24.4492 81.6167 24.4492 82.4033Z" fill="white"/>
<path d="M12.2461 82.4427C12.2461 83.7013 13.2731 84.6847 14.4976 84.6847C15.7616 84.6847 16.7886 83.662 16.7886 82.4427C16.7886 81.184 15.7616 80.1613 14.4976 80.1613C13.2731 80.1613 12.2461 81.2233 12.2461 82.4427Z" fill="white"/>
<path d="M3.07916 80.5547C2.05216 80.5547 1.22266 81.3807 1.22266 82.4033C1.22266 83.426 2.05216 84.252 3.07916 84.252C4.10616 84.252 4.97516 83.426 4.97516 82.4033C4.97516 81.3807 4.14566 80.5547 3.07916 80.5547Z" fill="#F7F7F7"/>
<path d="M35.8672 71.0753C35.8672 71.9407 36.5387 72.6093 37.3682 72.6093C38.1977 72.6093 38.9087 71.9407 38.9087 71.0753C38.9087 70.2493 38.1977 69.5807 37.3682 69.5807C36.5387 69.5807 35.8672 70.2493 35.8672 71.0753Z" fill="#F7F7F7"/>
<path d="M25.9507 68.8333C24.6867 68.8333 23.6992 69.856 23.6992 71.0753C23.6992 72.334 24.7262 73.3567 25.9507 73.3567C27.2147 73.3567 28.2417 72.334 28.2417 71.0753C28.2417 69.8167 27.2147 68.8333 25.9507 68.8333Z" fill="#F7F7F7"/>
<path d="M12.8359 71.0753C12.8359 72.0193 13.5864 72.7667 14.5344 72.7667C15.4824 72.7667 16.2329 71.98 16.2329 71.0753C16.2329 70.1313 15.4429 69.384 14.5344 69.384C13.5469 69.4233 12.8359 70.1313 12.8359 71.0753Z" fill="#D5D5D5"/>
<path d="M3.12041 73.1207C4.22641 73.1207 5.17441 72.216 5.17441 71.0753C5.17441 69.9347 4.22641 69.03 3.12041 69.03C1.97491 69.03 1.06641 69.9347 1.06641 71.0753C1.06641 72.216 1.93541 73.1207 3.12041 73.1207Z" fill="#E6E6E6"/>
<path d="M50.5602 59.7473C50.5602 58.9213 49.8887 58.2527 49.0592 58.2527C48.2297 58.2527 47.5977 58.9213 47.5977 59.7473C47.5977 60.534 48.2297 61.2027 49.0592 61.2027C49.8887 61.242 50.5602 60.5733 50.5602 59.7473Z" fill="#F7F7F7"/>
<path d="M40.0942 59.7473C40.0942 58.292 38.8697 57.112 37.4082 57.112C35.9862 57.112 34.7617 58.3313 34.7617 59.7473C34.7617 61.1633 36.0257 62.3827 37.4082 62.3827C38.8697 62.422 40.0942 61.2027 40.0942 59.7473Z" fill="#D5D5D5"/>
<path d="M27.7303 59.7473C27.7303 58.764 26.9403 58.0167 25.9528 58.0167C24.9653 58.0167 24.2148 58.8033 24.2148 59.7473C24.2148 60.7307 25.0048 61.478 25.9528 61.478C26.9403 61.5173 27.7303 60.7307 27.7303 59.7473Z" fill="#E6E6E6"/>
<path d="M14.5375 61.714C15.604 61.714 16.5125 60.8093 16.5125 59.7473C16.5125 58.646 15.604 57.7807 14.5375 57.7807C13.4315 57.7807 12.5625 58.646 12.5625 59.7473C12.5625 60.8093 13.4315 61.714 14.5375 61.714Z" fill="#E6E6E6"/>
<path d="M3.12044 62.186C4.46344 62.186 5.52994 61.124 5.52994 59.7867C5.52994 58.4493 4.46344 57.3873 3.12044 57.3873C1.77744 57.3873 0.710937 58.4493 0.710937 59.7867C0.710937 61.0847 1.77744 62.186 3.12044 62.186Z" fill="#E6E6E6"/>
<path d="M38.8687 48.38C38.8688 47.5933 38.1972 46.9247 37.3677 46.9247C36.5382 46.9247 35.9062 47.5933 35.9062 48.38C35.9062 49.206 36.5382 49.8747 37.3677 49.8747C38.1972 49.914 38.8687 49.2453 38.8687 48.38Z" fill="#E6E6E6"/>
<path d="M23.8203 48.38C23.8203 49.5993 24.8078 50.5433 25.9533 50.5433C27.2173 50.5433 28.1258 49.5993 28.1258 48.38C28.1258 47.2 27.2173 46.256 25.9533 46.256C24.7683 46.2953 23.8203 47.2 23.8203 48.38Z" fill="#E6E6E6"/>
<path d="M16.2733 48.38C16.2733 47.3967 15.4833 46.6493 14.4958 46.6493C13.5083 46.6493 12.7578 47.436 12.7578 48.38C12.7578 49.4027 13.5478 50.15 14.4958 50.15C15.5228 50.15 16.2733 49.4027 16.2733 48.38Z" fill="#E6E6E6"/>
<path d="M3.12077 50.386C4.18727 50.386 5.09577 49.5207 5.09577 48.4193C5.09577 47.3573 4.18727 46.492 3.12077 46.492C2.01477 46.492 1.14577 47.3573 1.14577 48.4193C1.10627 49.4813 2.01477 50.386 3.12077 50.386Z" fill="#F7F7F7"/>
<path d="M50.4807 37.052C50.4807 36.2653 49.8487 35.636 49.0587 35.636C48.3082 35.636 47.6367 36.2653 47.6367 37.052C47.6367 37.8387 48.3082 38.468 49.0587 38.468C49.8487 38.5073 50.4807 37.878 50.4807 37.052Z" fill="#E6E6E6"/>
<path d="M37.3674 34.928C36.1824 34.928 35.2344 35.872 35.2344 37.0913C35.2344 38.2713 36.2219 39.2547 37.3674 39.2547C38.6314 39.2547 39.5399 38.232 39.5399 37.0913C39.5399 35.872 38.6314 34.928 37.3674 34.928Z" fill="#F7F7F7"/>
<path d="M24.4102 37.0913C24.4102 37.9567 25.1212 38.6253 25.9507 38.6253C26.7802 38.6253 27.4912 37.9173 27.4912 37.0913C27.4912 36.2653 26.7802 35.5573 25.9507 35.5573C25.1212 35.518 24.4102 36.226 24.4102 37.0913Z" fill="#E6E6E6"/>
<path d="M14.5362 38.94C15.5632 38.94 16.3927 38.114 16.3927 37.0913C16.3927 36.0687 15.5632 35.2033 14.5362 35.2033C13.5092 35.2033 12.6797 36.0293 12.6797 37.0913C12.6797 38.114 13.5092 38.94 14.5362 38.94Z" fill="#E6E6E6"/>
<path d="M3.08266 39.2547C4.34666 39.2547 5.29466 38.2713 5.29466 37.0913C5.29466 35.872 4.26766 34.8887 3.08266 34.8887C1.89766 34.8887 0.910156 35.9113 0.910156 37.0913C0.910156 38.3107 1.89766 39.2547 3.08266 39.2547Z" fill="#E6E6E6"/>
<path d="M61.3835 25.724C61.3835 25.0553 60.8305 24.4653 60.1195 24.4653C59.448 24.4653 58.8555 25.016 58.8555 25.724C58.8555 26.432 59.4085 26.9827 60.1195 26.9827C60.8305 26.9827 61.3835 26.432 61.3835 25.724Z" fill="#F7F7F7"/>
<path d="M51.2717 25.724C51.2717 24.5047 50.2447 23.5213 49.0202 23.5213C47.8352 23.5213 46.8477 24.544 46.8477 25.724C46.8477 26.9827 47.8747 27.9267 49.0202 27.9267C50.2842 27.9267 51.2717 26.9827 51.2717 25.724Z" fill="#E6E6E6"/>
<path d="M38.9881 25.724C38.9881 24.8587 38.2771 24.1507 37.4081 24.1507C36.5391 24.1507 35.8281 24.8587 35.8281 25.724C35.8281 26.5893 36.5391 27.2973 37.4081 27.2973C38.2771 27.2973 38.9881 26.5893 38.9881 25.724Z" fill="#E6E6E6"/>
<path d="M27.6904 25.724C27.6904 24.78 26.9004 23.9933 25.9919 23.9933C25.0044 23.9933 24.2539 24.78 24.2539 25.724C24.2539 26.7073 25.0439 27.4547 25.9919 27.4547C26.9399 27.494 27.6904 26.7073 27.6904 25.724Z" fill="#E6E6E6"/>
<path d="M14.4963 27.8873C15.7208 27.8873 16.6688 26.9433 16.6688 25.724C16.6688 24.544 15.7208 23.6 14.4963 23.6C13.3113 23.6 12.3633 24.544 12.3633 25.724C12.4028 26.9433 13.3113 27.8873 14.4963 27.8873Z" fill="#E6E6E6"/>
<path d="M3.07922 28.32C4.54072 28.32 5.68622 27.1793 5.68622 25.724C5.68622 24.308 4.54072 23.1673 3.07922 23.1673C1.65722 23.1673 0.511719 24.308 0.511719 25.724C0.551218 27.1793 1.69672 28.32 3.07922 28.32Z" fill="#E6E6E6"/>
<path d="M61.3835 14.396C61.3835 13.688 60.8305 13.1373 60.1195 13.1373C59.448 13.1373 58.8555 13.688 58.8555 14.396C58.8555 15.0647 59.4085 15.6547 60.1195 15.6547C60.8305 15.6547 61.3835 15.0647 61.3835 14.396Z" fill="#E6E6E6"/>
<path d="M51.2717 14.396C51.2717 13.1373 50.2447 12.1933 49.0202 12.1933C47.8352 12.1933 46.8477 13.1373 46.8477 14.396C46.8477 15.6153 47.8747 16.5987 49.0202 16.5987C50.2842 16.5987 51.2717 15.6153 51.2717 14.396Z" fill="#F7F7F7"/>
<path d="M39.5802 14.396C39.5802 13.1373 38.5532 12.1933 37.3682 12.1933C36.1832 12.1933 35.1562 13.1373 35.1562 14.396C35.1562 15.6153 36.1832 16.5987 37.3682 16.5987C38.6322 16.5987 39.5802 15.6153 39.5802 14.396Z" fill="#E6E6E6"/>
<path d="M29.073 14.396C29.073 12.6653 27.6905 11.2887 25.992 11.2887C24.254 11.2887 22.832 12.6653 22.832 14.396C22.832 16.0873 24.254 17.5033 25.992 17.5033C27.6905 17.5033 29.073 16.1267 29.073 14.396Z" fill="#F7F7F7"/>
<path d="M14.4956 18.2113C16.6681 18.2113 18.3666 16.52 18.3666 14.396C18.3666 12.272 16.6681 10.5413 14.4956 10.5413C12.3626 10.5413 10.6641 12.272 10.6641 14.396C10.6641 16.52 12.4021 18.2113 14.4956 18.2113Z" fill="#E6E6E6"/>
<path d="M3.11919 17.3853C4.81769 17.3853 6.12119 16.048 6.12119 14.396C6.12119 12.7047 4.77819 11.4067 3.11919 11.4067C1.42069 11.4067 0.117187 12.744 0.117187 14.396C0.117187 16.048 1.46019 17.3853 3.11919 17.3853Z" fill="#E6E6E6"/>
<path d="M60.0783 1.61267C59.3278 1.61267 58.6562 2.242 58.6562 3.02867C58.6562 3.81534 59.3278 4.44467 60.0783 4.44467C60.9078 4.44467 61.5398 3.81534 61.5398 3.02867C61.5793 2.28134 60.9473 1.61267 60.0783 1.61267Z" fill="#E6E6E6"/>
<path d="M51.1523 3.02867C51.1523 1.84867 50.1648 0.944001 49.0193 0.944C47.9133 0.944 46.9258 1.84867 46.9258 3.02867C46.9258 4.20867 47.9133 5.15267 49.0193 5.15267C50.2438 5.15267 51.1523 4.20867 51.1523 3.02867Z" fill="#D5D5D5"/>
<path d="M40.2904 3.02867C40.2904 1.45534 39.0264 0.196671 37.4464 0.196671C35.8664 0.196671 34.5234 1.45534 34.5234 3.02867C34.5234 4.64134 35.8664 5.93934 37.4464 5.93934C39.0264 5.93934 40.2904 4.68067 40.2904 3.02867Z" fill="#F7F7F7"/>
<path d="M28.8733 3.02867C28.8733 1.45534 27.5303 0.196671 25.9503 0.196671C24.3703 0.196671 23.0273 1.45534 23.0273 3.02867C23.0273 4.64134 24.3703 5.93934 25.9503 5.93934C27.5303 5.93934 28.8733 4.68067 28.8733 3.02867Z" fill="#E6E6E6"/>
<path d="M14.4959 0.27533C12.9554 0.27533 11.6914 1.534 11.6914 3.068C11.6914 4.602 12.9554 5.9 14.4959 5.9C16.0364 5.9 17.3399 4.64133 17.3399 3.068C17.3399 1.534 16.0759 0.27533 14.4959 0.27533Z" fill="#F7F7F7"/>
<path d="M3.081 6.136C4.7795 6.136 6.162 4.75933 6.162 3.068C6.162 1.37667 4.7795 4.17057e-07 3.081 2.68847e-07C1.3825 1.20636e-07 -1.20577e-07 1.37667 -2.68715e-07 3.068C0.0394996 4.79867 1.422 6.136 3.081 6.136Z" fill="#E6E6E6"/>
</g>
<defs>
<clipPath id="clip0_1635_69010">
<rect width="72" height="122" fill="white"/>
</clipPath>
</defs>
</svg>
