<svg width="162" height="199" viewBox="0 0 162 199" fill="none" xmlns="http://www.w3.org/2000/svg">
<path d="M115.934 38C112.105 38 109 41.1061 109 44.8335C109 48.5608 112.208 51.7704 115.934 51.7704C119.764 51.7704 122.766 48.5608 122.766 44.8335C122.869 41.1061 119.764 38 115.934 38Z" fill="#E6E6E6"/>
<path d="M152.727 76C149.001 76 146 79.0026 146 82.7299C146 86.4573 149.001 89.4598 152.727 89.4598C156.453 89.4598 159.455 86.4573 159.455 82.7299C159.455 79.1061 156.453 76 152.727 76Z" fill="#E6E6E6"/>
<path d="M152.726 124.558C154.796 124.558 156.556 122.902 156.556 120.831C156.556 118.76 154.9 117 152.726 117C150.656 117 149 118.657 149 120.831C149.104 122.902 150.76 124.558 152.726 124.558Z" fill="#F7F7F7"/>
<path d="M116.555 75C112.415 75 109 78.4167 109 82.5582C109 86.6997 112.415 90.22 116.555 90.22C120.799 90.22 124.215 86.8032 124.215 82.5582C124.318 78.4167 120.799 75 116.555 75Z" fill="#E6E6E6"/>
<path d="M82.5205 76C78.898 76 76 78.7955 76 82.4193C76 86.0431 78.898 88.8386 82.5205 88.8386C86.0395 88.8386 88.9375 86.0431 88.9375 82.4193C88.9375 78.7955 86.0395 76 82.5205 76Z" fill="#E6E6E6"/>
<path d="M152.829 159.662C154.899 159.662 156.659 158.005 156.659 155.831C156.659 153.76 155.003 152 152.829 152C150.759 152 149 153.76 149 155.831C149 158.005 150.759 159.662 152.829 159.662Z" fill="#F7F7F7"/>
<path d="M109 155.73C109 159.457 111.898 162.563 115.727 162.563C119.453 162.563 122.559 159.457 122.559 155.73C122.559 152.003 119.453 149 115.727 149C112.001 149 109 151.899 109 155.73Z" fill="#F7F7F7"/>
<path d="M111 120.763C111 123.455 113.07 125.422 115.761 125.422C118.452 125.422 120.418 123.351 120.418 120.763C120.418 118.071 118.348 116 115.761 116C113.173 116 111 118.174 111 120.763Z" fill="#D5D5D5"/>
<path d="M149 194.452C149 196.833 150.967 198.904 153.451 198.904C155.831 198.904 157.901 196.937 157.901 194.452C157.901 191.967 155.935 190 153.451 190C150.863 190.104 149 192.071 149 194.452Z" fill="#F7F7F7"/>
<path d="M78 155.452C78 158.041 79.9665 159.904 82.4505 159.904C84.831 159.904 86.7975 157.937 86.7975 155.452C86.7975 152.967 84.831 151 82.4505 151C79.9665 151 78 152.967 78 155.452Z" fill="#F7F7F7"/>
<path d="M0 83.0379C0 85.2122 1.863 86.9724 4.0365 86.9724C6.3135 86.9724 8.073 85.2122 8.073 83.0379C8.073 80.8637 6.3135 79 4.0365 79C1.863 79 0 80.8637 0 83.0379Z" fill="#F7F7F7"/>
<path d="M0 8.72735C0 10.7981 1.7595 12.4547 3.726 12.4547C5.8995 12.4547 7.5555 10.7981 7.5555 8.72735C7.5555 6.6566 5.8995 5 3.726 5C1.7595 5.10354 0 6.76014 0 8.72735Z" fill="#F7F7F7"/>
<path d="M147 44.6946C147 47.8007 149.484 50.3891 152.692 50.3891C155.797 50.3891 158.385 47.6971 158.385 44.6946C158.385 41.5884 155.694 39 152.692 39C149.587 39.1035 147 41.692 147 44.6946Z" fill="#F7F7F7"/>
<path d="M38 8.66273C38 11.3547 40.07 13.4255 42.6575 13.4255C45.3485 13.4255 47.4185 11.2512 47.4185 8.66273C47.4185 5.97076 45.3485 4.00355 42.6575 4.00355C40.1735 3.90001 38 6.0743 38 8.66273Z" fill="#E6E6E6"/>
<path d="M79 44.6279C79 46.6987 80.5525 48.2517 82.6225 48.2517C84.6925 48.2517 86.245 46.6987 86.245 44.6279C86.245 42.6607 84.589 41.0041 82.6225 41.0041C80.656 40.9006 79 42.7643 79 44.6279Z" fill="#E6E6E6"/>
<path d="M36 82.7299C36 86.4573 39.105 89.3563 42.7275 89.3563C46.4535 89.3563 49.3515 86.4573 49.3515 82.7299C49.3515 79.0026 46.4535 76 42.7275 76C39.105 76 36 79.0026 36 82.7299Z" fill="#F7F7F7"/>
<path d="M37 44.9016C37 48.2148 39.691 50.9068 42.8995 50.9068C46.2115 50.9068 48.9025 48.2148 48.9025 44.9016C48.9025 41.5884 46.2115 39 42.8995 39C39.691 39 37 41.692 37 44.9016Z" fill="#E6E6E6"/>
<path d="M82.6925 14.4926C86.0045 14.4926 88.4885 11.9042 88.4885 8.79809C88.4885 5.58843 85.7975 3 82.6925 3C79.5875 3 77 5.69197 77 8.79809C77 12.0077 79.5875 14.4926 82.6925 14.4926Z" fill="#E6E6E6"/>
<path d="M123.318 8.45468C123.318 4.31319 119.799 1 115.659 1C111.519 1 108 4.31319 108 8.45468C108 12.6997 111.519 16.1164 115.659 16.1164C119.799 16.1164 123.318 12.8033 123.318 8.45468Z" fill="#E6E6E6"/>
<path d="M153.073 16.1518C157.523 16.1518 161.146 12.528 161.146 8.07591C161.146 3.6238 157.523 0 153.073 0C148.622 0 145 3.6238 145 8.07591C145.104 12.6315 148.726 16.1518 153.073 16.1518Z" fill="#E6E6E6"/>
</svg>
