<svg width="24" height="24" viewBox="0 0 24 24" fill="none" xmlns="http://www.w3.org/2000/svg">
<path d="M5.54194 19.5201C4.93194 19.5201 4.36194 19.31 3.95194 18.92C3.43194 18.43 3.18194 17.69 3.27194 16.89L3.64194 13.65C3.71194 13.04 4.08194 12.23 4.51194 11.79L12.7219 3.10005C14.7719 0.930049 16.9119 0.870049 19.0819 2.92005C21.2519 4.97005 21.3119 7.11005 19.2619 9.28005L11.0519 17.97C10.6319 18.42 9.85194 18.84 9.24194 18.9401L6.02194 19.49C5.85194 19.5 5.70194 19.5201 5.54194 19.5201ZM15.9319 2.91005C15.1619 2.91005 14.4919 3.39005 13.8119 4.11005L5.60194 12.8101C5.40194 13.0201 5.17194 13.5201 5.13194 13.8101L4.76194 17.05C4.72194 17.38 4.80194 17.65 4.98194 17.82C5.16194 17.99 5.43194 18.05 5.76194 18L8.98194 17.4501C9.27194 17.4001 9.75194 17.14 9.95194 16.93L18.1619 8.24005C19.4019 6.92005 19.8519 5.70005 18.0419 4.00005C17.2419 3.23005 16.5519 2.91005 15.9319 2.91005Z" fill="#53565A"/>
<path d="M17.3404 10.9498C17.3204 10.9498 17.2904 10.9498 17.2704 10.9498C14.1504 10.6398 11.6404 8.26985 11.1604 5.16985C11.1004 4.75985 11.3804 4.37985 11.7904 4.30985C12.2004 4.24985 12.5804 4.52985 12.6504 4.93985C13.0304 7.35985 14.9904 9.21985 17.4304 9.45985C17.8404 9.49985 18.1404 9.86985 18.1004 10.2798C18.0504 10.6598 17.7204 10.9498 17.3404 10.9498Z" fill="#53565A"/>
<path d="M21 22.75H3C2.59 22.75 2.25 22.41 2.25 22C2.25 21.59 2.59 21.25 3 21.25H21C21.41 21.25 21.75 21.59 21.75 22C21.75 22.41 21.41 22.75 21 22.75Z" fill="#53565A"/>
</svg>
