<svg width="16" height="16" viewBox="0 0 16 16" fill="none" xmlns="http://www.w3.org/2000/svg">
<g id="Frame 33912">
<path id="Vector" d="M8.00859 10.9615C8.07317 10.8877 12.4973 5.8331 14.6609 3.36112C14.8223 3.17665 15.0161 3.02906 15.2744 3.02906C15.5651 3.02906 15.7911 3.17665 15.9203 3.5087C16.0495 3.80386 16.0172 4.09903 15.8557 4.39419C15.8234 4.43108 8.52527 12.7694 8.46068 12.8063C8.20234 13.0646 7.81483 13.0646 7.5242 12.8063C7.4919 12.7694 2.68029 7.27202 0.290634 4.54177C0.129171 4.35729 0 4.13592 0 3.84076C0 3.5087 0.129171 3.25044 0.387512 3.10285C0.645854 2.95527 0.904195 2.95527 1.16254 3.17665C1.25941 3.25044 7.944 10.8877 8.00859 10.9615Z" fill="#929497"/>
</g>
</svg>
