<svg width="20" height="20" viewBox="0 0 20 20" fill="none" xmlns="http://www.w3.org/2000/svg">
<path d="M10.335 19.3828C8.83592 19.3299 7.42499 19.0301 6.0846 18.3599C5.9435 18.2893 5.82005 18.2893 5.66132 18.3423C4.23275 18.8537 2.78654 19.3475 1.35797 19.859C0.864139 20.0354 0.476132 19.9296 0.211582 19.5416C0.0175782 19.2594 0.0352149 18.9419 0.141035 18.6421C0.652499 17.2135 1.14633 15.7673 1.65779 14.3387C1.7107 14.18 1.69306 14.0742 1.62252 13.9331C0.846502 12.3458 0.529042 10.6703 0.687772 8.92427C0.917049 6.2964 2.02816 4.12709 4.02111 2.39869C5.44968 1.16413 7.10753 0.40575 8.97701 0.158836C11.8518 -0.211534 14.4091 0.529207 16.6137 2.41633C18.2892 3.86254 19.365 5.67912 19.753 7.86607C20.3174 11.023 19.5414 13.8449 17.3721 16.2259C15.9788 17.7602 14.2504 18.7303 12.2222 19.1359C11.6049 19.277 10.97 19.3123 10.335 19.3828ZM1.39324 18.5892C1.46379 18.5715 1.48142 18.5539 1.5167 18.5539C2.80417 18.113 4.07402 17.6721 5.34386 17.2135C5.76714 17.0548 6.11987 17.0901 6.52551 17.2841C8.51846 18.2541 10.5996 18.4481 12.7336 17.8132C16.9664 16.561 19.5238 12.2223 18.5714 7.86607C17.6366 3.56272 13.4391 0.652663 9.08283 1.30522C6.84297 1.64032 5.00876 2.69852 3.61546 4.47982C2.16925 6.33168 1.62252 8.44808 1.88707 10.7585C1.99289 11.7461 2.29271 12.6809 2.75126 13.5627C2.90999 13.8802 2.94527 14.18 2.82181 14.5327C2.53962 15.2911 2.27507 16.0671 2.01052 16.8431C1.81652 17.4075 1.60488 17.9895 1.39324 18.5892Z" fill="#929497"/>
<path d="M8.92411 8.16603C9.62958 9.43587 10.5643 10.3706 11.7989 11.0584C11.9223 10.9174 12.0634 10.7586 12.2045 10.6175C12.7336 10.0884 13.4038 10.0884 13.9329 10.6175C14.3209 11.0055 14.7266 11.4112 15.1146 11.7992C15.6437 12.3283 15.6437 12.9985 15.1322 13.5276C14.8324 13.845 14.5149 14.1449 14.1975 14.4623C13.686 14.9738 13.0511 15.062 12.3809 14.9562C11.3051 14.7798 10.388 14.2507 9.52376 13.6334C8.05991 12.5576 6.80771 11.2701 5.87296 9.70042C5.48496 9.04787 5.1675 8.36004 5.04404 7.60166C4.92058 6.87855 5.04404 6.226 5.62605 5.71453C5.96115 5.39707 6.26097 5.06198 6.6137 4.76215C7.03698 4.39178 7.63663 4.39178 8.04228 4.76215C8.55374 5.22071 9.02993 5.71453 9.48848 6.20836C9.87649 6.63164 9.85885 7.24893 9.47085 7.67221C9.31212 7.84857 9.11811 8.0073 8.92411 8.16603ZM7.30154 5.67926C7.00171 5.97908 6.71952 6.27891 6.4197 6.56109C6.19042 6.77273 6.13751 7.00201 6.17279 7.30184C6.2257 7.83094 6.4197 8.30713 6.68425 8.78332C7.65427 10.547 9.01229 11.9403 10.6878 13.0338C11.2345 13.3865 11.8165 13.6863 12.4691 13.8274C12.8747 13.9156 13.2451 13.898 13.5273 13.5276C13.7389 13.2807 13.9858 13.0514 14.2151 12.8221C14.2504 12.7868 14.2857 12.7516 14.2857 12.7339C13.8624 12.3107 13.4567 11.905 13.0158 11.4641C12.8571 11.6405 12.6807 11.8168 12.5044 11.9932C12.134 12.3636 11.7636 12.4165 11.2874 12.1519C9.78831 11.3406 8.64192 10.1943 7.84827 8.71277C7.60136 8.25422 7.65427 7.88385 8.02464 7.49584C8.20101 7.31947 8.39501 7.1431 8.55374 6.98437C8.1481 6.50818 7.74245 6.10254 7.30154 5.67926Z" fill="#929497"/>
</svg>
