<svg width="500" height="134" viewBox="0 0 500 134" fill="none" xmlns="http://www.w3.org/2000/svg">
<path d="M295.4 122.401C295.4 124.867 297.4 126.867 299.8 126.867C302.2 126.867 304.267 124.801 304.267 122.401C304.267 119.934 302.2 118.001 299.8 118.001C297.4 117.934 295.4 119.934 295.4 122.401Z" fill="#E6E6E6"/>
<path d="M314.733 122.401C314.733 124.801 316.667 126.734 319.067 126.734C321.467 126.734 323.4 124.801 323.4 122.401C323.4 120.001 321.467 118.067 319.067 118.067C316.733 118.067 314.733 120.001 314.733 122.401Z" fill="#E6E6E6"/>
<path d="M321.467 103.2C321.467 101.867 320.4 100.733 319.067 100.733C317.733 100.733 316.6 101.8 316.6 103.2C316.6 104.533 317.667 105.6 319.067 105.6C320.4 105.533 321.467 104.467 321.467 103.2Z" fill="#F7F7F7"/>
<path d="M333.333 122.467C333.333 125.133 335.533 127.333 338.2 127.333C340.867 127.333 343.133 125.133 343.133 122.467C343.133 119.733 340.933 117.533 338.2 117.533C335.533 117.467 333.333 119.733 333.333 122.467Z" fill="#E6E6E6"/>
<path d="M334.067 103.133C334.067 105.467 335.867 107.333 338.2 107.333C340.533 107.333 342.333 105.467 342.333 103.133C342.333 100.867 340.533 99.0002 338.2 99.0002C335.867 99.0002 334.067 100.867 334.067 103.133Z" fill="#E6E6E6"/>
<path d="M340.733 83.8668C340.733 82.5335 339.667 81.4002 338.267 81.4002C336.933 81.4002 335.8 82.4668 335.8 83.8668C335.8 85.2002 336.933 86.3335 338.267 86.3335C339.667 86.3335 340.733 85.2002 340.733 83.8668Z" fill="#F7F7F7"/>
<path d="M352.733 122.467C352.733 125.067 354.867 127.2 357.533 127.2C360.133 127.2 362.267 125.067 362.267 122.467C362.267 119.867 360.133 117.667 357.533 117.667C354.867 117.667 352.733 119.8 352.733 122.467Z" fill="#F7F7F7"/>
<path d="M353.467 103.134C353.467 105.334 355.267 107.134 357.533 107.134C359.8 107.134 361.533 105.4 361.533 103.134C361.533 101 359.733 99.1338 357.533 99.1338C355.267 99.1338 353.467 100.934 353.467 103.134Z" fill="#E6E6E6"/>
<path d="M357.467 86.3335C358.8 86.3335 359.933 85.2002 359.933 83.8668C359.933 82.4668 358.8 81.4002 357.467 81.4002C356.067 81.4002 355 82.4668 355 83.8668C355 85.2002 356.067 86.3335 357.467 86.3335Z" fill="#E6E6E6"/>
<path d="M372.933 122.4C372.933 124.534 374.6 126.134 376.6 126.134C378.667 126.134 380.333 124.4 380.333 122.4C380.333 120.4 378.667 118.667 376.667 118.667C374.6 118.667 372.933 120.334 372.933 122.4Z" fill="#D5D5D5"/>
<path d="M376.733 107.467C379.133 107.467 381.133 105.6 381.133 103.133C381.133 100.733 379.133 98.7335 376.733 98.7335C374.333 98.7335 372.4 100.733 372.4 103.133C372.4 105.533 374.267 107.467 376.733 107.467Z" fill="#F7F7F7"/>
<path d="M400.6 122.4C400.6 119.867 398.467 117.667 395.867 117.667C393.267 117.667 391.133 119.8 391.133 122.4C391.133 125 393.2 127.134 395.867 127.134C398.533 127.067 400.6 125 400.6 122.4Z" fill="#E6E6E6"/>
<path d="M395.933 106.2C397.667 106.2 398.933 104.867 398.933 103.134C398.933 101.4 397.6 100.134 395.933 100.134C394.2 100.134 392.867 101.467 392.867 103.134C392.867 104.8 394.267 106.2 395.933 106.2Z" fill="#D5D5D5"/>
<path d="M395.933 87.4668C397.933 87.4668 399.533 85.7335 399.533 83.8001C399.533 81.7335 397.933 80.1335 395.933 80.1335C393.867 80.1335 392.267 81.7335 392.267 83.8001C392.267 85.8668 393.933 87.4668 395.933 87.4668Z" fill="#F7F7F7"/>
<path d="M410.133 122.4C410.133 125.134 412.333 127.4 415.067 127.4C417.8 127.4 420 125.134 420 122.4C420 119.667 417.8 117.467 415.067 117.467C412.4 117.467 410.133 119.667 410.133 122.4Z" fill="#E6E6E6"/>
<path d="M415.133 105.934C416.667 105.934 418 104.667 418 103.067C418 101.534 416.733 100.2 415.133 100.2C413.533 100.2 412.267 101.467 412.267 103.067C412.333 104.734 413.6 105.934 415.133 105.934Z" fill="#F7F7F7"/>
<path d="M415.133 86.5337C416.6 86.5337 417.8 85.3337 417.8 83.867C417.8 82.4004 416.6 81.2004 415.133 81.2004C413.667 81.2004 412.467 82.4004 412.467 83.867C412.467 85.3337 413.6 86.5337 415.133 86.5337Z" fill="#F7F7F7"/>
<path d="M430.267 122.4C430.267 124.667 432.067 126.467 434.333 126.467C436.6 126.467 438.4 124.667 438.4 122.4C438.4 120.133 436.6 118.333 434.333 118.333C432.067 118.333 430.267 120.2 430.267 122.4Z" fill="#D5D5D5"/>
<path d="M434.4 100.8C433.067 100.8 432.067 101.867 432.067 103.133C432.067 104.467 433.133 105.467 434.4 105.467C435.733 105.467 436.733 104.4 436.733 103.133C436.667 101.867 435.667 100.8 434.4 100.8Z" fill="#E6E6E6"/>
<path d="M434.4 86.0669C435.6 86.0669 436.533 85.1336 436.533 83.9336C436.533 82.6669 435.6 81.6669 434.4 81.6669C433.133 81.6669 432.133 82.6002 432.133 83.9336C432.067 85.1336 433.133 86.0669 434.4 86.0669Z" fill="#F7F7F7"/>
<path d="M453.6 105.534C454.933 105.534 456.067 104.467 456.067 103.067C456.067 101.734 455 100.667 453.6 100.667C452.267 100.667 451.2 101.734 451.2 103.067C451.2 104.4 452.2 105.534 453.6 105.534Z" fill="#F7F7F7"/>
<path d="M453.533 85.2671C454.4 85.2671 455 84.6671 455 83.8671C455 83.0004 454.4 82.4004 453.533 82.4004C452.733 82.4004 452.133 83.0004 452.133 83.8671C452.133 84.6671 452.8 85.2671 453.533 85.2671Z" fill="#F7F7F7"/>
<path d="M472.8 124.134C473.733 124.134 474.533 123.334 474.533 122.4C474.533 121.467 473.733 120.667 472.8 120.667C471.867 120.667 471.067 121.467 471.067 122.4C471 123.4 471.8 124.134 472.8 124.134Z" fill="#F7F7F7"/>
<path d="M492 123.867C492.8 123.867 493.4 123.267 493.4 122.467C493.4 121.667 492.8 121.067 492 121.067C491.2 121.067 490.6 121.734 490.6 122.467C490.6 123.201 491.2 123.867 492 123.867Z" fill="#E6E6E6"/>
<path d="M453.6 124C454.4 124 455.133 123.334 455.133 122.467C455.133 121.6 454.467 120.867 453.6 120.867C452.733 120.867 452 121.534 452 122.467C452.067 123.267 452.733 124 453.6 124Z" fill="#E6E6E6"/>
<path d="M395.867 65.6001C396.467 65.6001 396.8 65.2001 396.8 64.6668C396.8 64.1334 396.4 63.7334 395.867 63.7334C395.333 63.7334 394.933 64.2668 394.933 64.6668C394.933 65.1334 395.4 65.6001 395.867 65.6001Z" fill="#F7F7F7"/>
<path d="M376.733 65.4668C377.267 65.4668 377.667 65.1335 377.667 64.6001C377.667 64.0668 377.267 63.6668 376.733 63.6668C376.2 63.6668 375.867 64.0668 375.867 64.6001C375.867 65.1335 376.2 65.4668 376.733 65.4668Z" fill="#F7F7F7"/>
<path d="M376.733 85.0005C377.333 85.0005 377.933 84.6005 377.933 83.8672C377.933 83.2672 377.333 82.7338 376.733 82.7338C376.133 82.7338 375.6 83.3338 375.6 83.8672C375.533 84.5338 376 85.0005 376.733 85.0005Z" fill="#F7F7F7"/>
<path d="M357.533 46.0005C358.133 46.0005 358.667 45.4672 358.667 44.8672C358.667 44.2672 358.067 43.6672 357.533 43.6672C356.867 43.6672 356.4 44.2672 356.4 44.8672C356.4 45.5338 356.8 46.0005 357.533 46.0005Z" fill="#F7F7F7"/>
<path d="M357.533 65.667C358.133 65.667 358.667 65.267 358.667 64.5337C358.667 63.9337 358.067 63.4003 357.533 63.4003C356.867 63.4003 356.4 64.0003 356.4 64.5337C356.4 65.267 356.8 65.667 357.533 65.667Z" fill="#D5D5D5"/>
<path d="M338.267 46.0669C338.933 46.0669 339.533 45.4669 339.533 44.8669C339.533 44.2002 338.933 43.6002 338.267 43.6002C337.6 43.6002 337 44.2002 337 44.8669C337.067 45.5336 337.6 46.0669 338.267 46.0669Z" fill="#D5D5D5"/>
<path d="M338.267 66.3335C339.2 66.3335 340 65.5335 340 64.6002C340 63.6668 339.333 62.8668 338.267 62.8668C337.333 62.8668 336.533 63.6668 336.533 64.6002C336.6 65.5335 337.333 66.3335 338.267 66.3335Z" fill="#F7F7F7"/>
<path d="M319 46.0005C319.667 46.0005 320.2 45.4005 320.2 44.8672C320.2 44.2005 319.667 43.6672 319 43.6672C318.4 43.6672 317.867 44.2005 317.867 44.8672C317.867 45.4672 318.467 46.0005 319 46.0005Z" fill="#F7F7F7"/>
<path d="M319 66.7339C320.267 66.7339 321.267 65.8006 321.267 64.6006C321.267 63.4006 320.333 62.4672 319 62.4672C317.867 62.4672 316.867 63.4006 316.867 64.6006C316.933 65.7339 317.867 66.7339 319 66.7339Z" fill="#F7F7F7"/>
<path d="M319 86.1338C320.267 86.1338 321.4 85.0671 321.4 83.8005C321.4 82.5338 320.267 81.5338 319 81.5338C317.733 81.5338 316.733 82.4671 316.733 83.8005C316.733 85.1338 317.8 86.1338 319 86.1338Z" fill="#F7F7F7"/>
<path d="M297.4 64.5338C297.4 65.8672 298.533 67.0005 299.867 67.0005C301.2 67.0005 302.333 65.8672 302.333 64.5338C302.333 63.1338 301.2 62.0672 299.867 62.0672C298.533 62.0672 297.4 63.1338 297.4 64.5338Z" fill="#F7F7F7"/>
<path d="M299.867 86.7339C301.533 86.7339 302.733 85.4672 302.733 83.8672C302.733 82.3339 301.467 81.0672 299.867 81.0672C298.267 81.0672 297 82.3339 297 83.8672C297 85.4672 298.267 86.7339 299.867 86.7339Z" fill="#F7F7F7"/>
<path d="M280.667 85.0005C281.267 85.0005 281.8 84.4672 281.8 83.8672C281.8 83.2005 281.2 82.7338 280.667 82.7338C280 82.7338 279.467 83.1338 279.467 83.8672C279.467 84.4672 280 85.0005 280.667 85.0005Z" fill="#F7F7F7"/>
<path d="M280.667 105.2C281.8 105.2 282.8 104.267 282.8 103.067C282.8 101.8 281.867 100.934 280.667 100.934C279.467 100.934 278.533 101.8 278.533 103.067C278.6 104.267 279.467 105.2 280.667 105.2Z" fill="#F7F7F7"/>
<path d="M280.667 125C282.067 125 283.2 123.8 283.2 122.4C283.2 120.934 282.067 119.8 280.667 119.8C279.267 119.8 278.067 120.934 278.067 122.4C278.067 123.8 279.267 125 280.667 125Z" fill="#F7F7F7"/>
<path d="M261.4 65.667C262 65.667 262.533 65.1337 262.533 64.5337C262.533 63.867 262 63.4003 261.4 63.4003C260.8 63.4003 260.267 63.8003 260.267 64.5337C260.267 65.2003 260.8 65.667 261.4 65.667Z" fill="#F7F7F7"/>
<path d="M261.4 86.3335C262.733 86.3335 263.8 85.2002 263.8 83.9335C263.8 82.5335 262.733 81.4668 261.4 81.4668C260.067 81.4668 259 82.5335 259 83.9335C259.067 85.2002 260.133 86.3335 261.4 86.3335Z" fill="#F7F7F7"/>
<path d="M261.4 106.867C263.533 106.867 265.133 105.134 265.133 103.134C265.133 101.134 263.533 99.4005 261.4 99.4005C259.267 99.4005 257.667 101.134 257.667 103.134C257.733 105.201 259.333 106.867 261.4 106.867Z" fill="#D5D5D5"/>
<path d="M261.4 126.067C263.4 126.067 265.067 124.467 265.067 122.4C265.067 120.4 263.333 118.734 261.4 118.734C259.4 118.734 257.733 120.467 257.733 122.4C257.8 124.4 259.467 126.067 261.4 126.067Z" fill="#F7F7F7"/>
<path d="M242.2 66.1338C243.067 66.1338 243.733 65.4671 243.733 64.6005C243.733 63.7338 243.067 63.0671 242.2 63.0671C241.333 63.0671 240.667 63.7338 240.667 64.6005C240.667 65.4005 241.333 66.1338 242.2 66.1338Z" fill="#F7F7F7"/>
<path d="M242.2 86.9336C243.933 86.9336 245.267 85.6003 245.267 83.9336C245.267 82.2003 243.867 80.8669 242.2 80.8669C240.467 80.8669 239.2 82.2003 239.2 83.9336C239.133 85.5336 240.533 86.9336 242.2 86.9336Z" fill="#E6E6E6"/>
<path d="M242.133 106.867C244.267 106.867 245.933 105.134 245.933 103.134C245.933 101.134 244.2 99.4005 242.133 99.4005C240.067 99.4005 238.467 101.134 238.467 103.134C238.467 105.134 240.133 106.867 242.133 106.867Z" fill="#F7F7F7"/>
<path d="M242.2 124.8C243.533 124.8 244.533 123.8 244.533 122.467C244.533 121.134 243.533 120.134 242.2 120.134C240.933 120.134 239.867 121.2 239.867 122.467C239.8 123.734 241 124.8 242.2 124.8Z" fill="#E6E6E6"/>
<path d="M223 85.4004C223.867 85.4004 224.533 84.7337 224.533 83.8671C224.533 83.0004 223.867 82.3337 223 82.3337C222.133 82.3337 221.467 83.0004 221.467 83.8671C221.467 84.7337 222.133 85.4004 223 85.4004Z" fill="#F7F7F7"/>
<path d="M223 100.2C221.267 100.2 220.067 101.534 220.067 103.2C220.067 104.734 221.333 106.134 223 106.134C224.6 106.134 226 104.734 226 103.2C226 101.467 224.6 100.2 223 100.2Z" fill="#E6E6E6"/>
<path d="M223 126.734C225.4 126.734 227.267 124.734 227.267 122.401C227.267 120.001 225.4 118.134 223 118.134C220.6 118.134 218.667 120.001 218.667 122.401C218.667 124.734 220.6 126.734 223 126.734Z" fill="#F7F7F7"/>
<path d="M203.733 104.8C204.667 104.8 205.4 104 205.4 103.2C205.4 102.267 204.733 101.467 203.733 101.467C202.8 101.467 202.067 102.267 202.067 103.2C202.133 104 202.867 104.8 203.733 104.8Z" fill="white"/>
<path d="M299.8 107C301.933 107 303.667 105.267 303.667 103.2C303.667 101.067 301.933 99.3338 299.8 99.3338C297.667 99.3338 296 101.067 296 103.2C296 105.267 297.733 107 299.8 107Z" fill="#E6E6E6"/>
<path d="M11.6 9.4668C12.5333 9.4668 13.2667 8.6668 13.2667 7.8668C13.2667 6.93347 12.6 6.13346 11.6 6.13346C10.6667 6.13346 9.86667 6.93347 9.86667 7.8668C9.93334 8.6668 10.6667 9.4668 11.6 9.4668Z" fill="#D5D5D5"/>
<path d="M184.6 87.667C186.733 87.667 188.4 85.9337 188.4 83.867C188.4 81.7337 186.667 80.0003 184.6 80.0003C182.467 80.0003 180.667 81.7337 180.667 83.867C180.667 86.0003 182.467 87.667 184.6 87.667Z" fill="white"/>
<path d="M184.533 106.267C186.267 106.267 187.6 104.867 187.6 103.2C187.6 101.467 186.2 100.134 184.533 100.134C182.8 100.134 181.4 101.467 181.4 103.2C181.4 104.8 182.867 106.267 184.533 106.267Z" fill="white"/>
<path d="M181.2 122.401C181.2 124.267 182.733 125.734 184.6 125.734C186.4 125.734 187.933 124.267 187.933 122.401C187.933 120.601 186.4 119.067 184.6 119.067C182.667 119.001 181.2 120.534 181.2 122.401Z" fill="white"/>
<path d="M165.267 86.4004C166.733 86.4004 167.867 85.2671 167.867 83.8671C167.867 82.4671 166.733 81.2671 165.267 81.2671C163.867 81.2671 162.733 82.4671 162.733 83.8671C162.733 85.2671 163.867 86.4004 165.267 86.4004Z" fill="#D5D5D5"/>
<path d="M165.267 107.867C167.867 107.867 170 105.734 170 103.201C170 100.534 167.867 98.4005 165.267 98.4005C162.733 98.4005 160.6 100.534 160.6 103.201C160.6 105.734 162.733 107.867 165.267 107.867Z" fill="#E6E6E6"/>
<path d="M165.267 119.4C163.6 119.4 162.267 120.733 162.267 122.467C162.267 124.2 163.6 125.467 165.267 125.467C167 125.467 168.333 124.133 168.333 122.467C168.333 120.8 167 119.4 165.267 119.4Z" fill="#D5D5D5"/>
<path d="M146.067 86.4004C147.467 86.4004 148.667 85.2671 148.667 83.8671C148.667 82.4671 147.467 81.2671 146.067 81.2671C144.667 81.2671 143.467 82.4671 143.467 83.8671C143.533 85.2671 144.733 86.4004 146.067 86.4004Z" fill="white"/>
<path d="M146.133 107C148.267 107 149.933 105.267 149.933 103.2C149.933 101.067 148.2 99.3338 146.133 99.3338C144 99.3338 142.267 101.067 142.267 103.2C142.267 105.267 144.067 107 146.133 107Z" fill="white"/>
<path d="M142.933 122.467C142.933 124.2 144.333 125.6 146.067 125.6C147.8 125.6 149.2 124.2 149.2 122.467C149.2 120.733 147.8 119.267 146.067 119.267C144.333 119.267 142.933 120.667 142.933 122.467Z" fill="#F7F7F7"/>
<path d="M126.867 67.1338C128.333 67.1338 129.467 66.0005 129.467 64.6005C129.467 63.2005 128.333 62.0005 126.867 62.0005C125.467 62.0005 124.333 63.2005 124.333 64.6005C124.333 66.0005 125.467 67.1338 126.867 67.1338Z" fill="#F7F7F7"/>
<path d="M123.067 83.867C123.067 86.0003 124.8 87.667 126.867 87.667C129 87.667 130.733 85.9337 130.733 83.867C130.733 81.7337 129 80.0003 126.867 80.0003C124.733 80.0003 123.067 81.7337 123.067 83.867Z" fill="#F7F7F7"/>
<path d="M126.867 106C128.467 106 129.733 104.734 129.733 103.134C129.733 101.534 128.4 100.267 126.867 100.267C125.267 100.267 124 101.6 124 103.134C124.067 104.8 125.267 106 126.867 106Z" fill="#D5D5D5"/>
<path d="M130.333 122.401C130.333 120.534 128.8 118.934 126.867 118.934C124.933 118.934 123.4 120.534 123.4 122.401C123.4 124.334 124.933 125.867 126.867 125.867C128.8 125.867 130.333 124.401 130.333 122.401Z" fill="#E6E6E6"/>
<path d="M107.667 42.3335C106.267 42.3335 105.133 43.4668 105.133 44.8668C105.133 46.2668 106.267 47.3335 107.667 47.3335C109 47.3335 110.133 46.2668 110.133 44.8668C110.2 43.4668 109.067 42.3335 107.667 42.3335Z" fill="#F7F7F7"/>
<path d="M107.667 60.0005C105.2 60.0005 103.2 62.0672 103.2 64.5338C103.2 66.9338 105.267 69.0005 107.667 69.0005C110.067 69.0005 112.133 66.8672 112.133 64.5338C112.2 62.0672 110.133 60.0005 107.667 60.0005Z" fill="#D5D5D5"/>
<path d="M107.667 80.867C106 80.867 104.733 82.2003 104.733 83.867C104.733 85.5336 106.067 86.8003 107.667 86.8003C109.333 86.8003 110.6 85.467 110.6 83.867C110.667 82.2003 109.333 80.867 107.667 80.867Z" fill="#E6E6E6"/>
<path d="M111 103.133C111 101.333 109.467 99.8001 107.667 99.8001C105.8 99.8001 104.333 101.333 104.333 103.133C104.333 105 105.8 106.467 107.667 106.467C109.467 106.467 111 105 111 103.133Z" fill="#E6E6E6"/>
<path d="M111.8 122.4C111.8 120.133 110 118.333 107.733 118.333C105.467 118.333 103.667 120.133 103.667 122.4C103.667 124.667 105.467 126.467 107.733 126.467C109.933 126.467 111.8 124.667 111.8 122.4Z" fill="#E6E6E6"/>
<path d="M88.4 62.0669C87.0667 62.0669 85.9333 63.2002 85.9333 64.6002C85.9333 66.0002 87.0667 67.0669 88.4 67.0669C89.8 67.0669 90.9333 66.0002 90.9333 64.6002C91 63.2002 89.8667 62.0669 88.4 62.0669Z" fill="#E6E6E6"/>
<path d="M88.4 87.4668C90.4667 87.4668 92.0667 85.8001 92.0667 83.8668C92.0667 81.7335 90.4667 80.2001 88.4 80.2001C86.4 80.2001 84.8 81.7335 84.8 83.8668C84.8667 85.8668 86.4 87.4668 88.4 87.4668Z" fill="#E6E6E6"/>
<path d="M88.4 100.2C86.7333 100.2 85.4667 101.534 85.4667 103.2C85.4667 104.867 86.8 106.134 88.4 106.134C90.1333 106.134 91.4 104.8 91.4 103.2C91.4 101.467 90.1333 100.2 88.4 100.2Z" fill="#E6E6E6"/>
<path d="M91.8 122.4C91.8 120.6 90.3333 119.067 88.4667 119.067C86.6667 119.067 85.2 120.6 85.2 122.4C85.2 124.267 86.6667 125.734 88.4667 125.734C90.2667 125.8 91.8 124.267 91.8 122.4Z" fill="#F7F7F7"/>
<path d="M69.2 42.4671C67.8667 42.4671 66.8 43.5338 66.8 44.8671C66.8 46.1338 67.8667 47.2671 69.2 47.2671C70.5333 47.2671 71.6 46.1338 71.6 44.8671C71.6667 43.5338 70.6 42.4671 69.2 42.4671Z" fill="#E6E6E6"/>
<path d="M65.6 64.6002C65.6 66.6002 67.2 68.2002 69.2667 68.2002C71.2667 68.2002 72.9333 66.5335 72.9333 64.6002C72.9333 62.4669 71.2 60.9335 69.2667 60.9335C67.2 60.9335 65.6 62.4669 65.6 64.6002Z" fill="#F7F7F7"/>
<path d="M69.2667 86.4668C70.7333 86.4668 71.8667 85.2668 71.8667 83.8668C71.8667 82.4668 70.6667 81.2668 69.2667 81.2668C67.8667 81.2668 66.6667 82.4668 66.6667 83.8668C66.6 85.2668 67.8 86.4668 69.2667 86.4668Z" fill="#E6E6E6"/>
<path d="M72.4 103.134C72.4 101.4 71 100 69.2667 100C67.5333 100 66.0667 101.4 66.0667 103.134C66.0667 104.867 67.4667 106.267 69.2667 106.267C71 106.267 72.4 104.867 72.4 103.134Z" fill="#E6E6E6"/>
<path d="M72.9333 122.467C72.9333 120.334 71.2667 118.734 69.2667 118.734C67.2 118.734 65.5333 120.467 65.5333 122.467C65.5333 124.467 67.2667 126.134 69.2667 126.134C71.3333 126.134 72.9333 124.467 72.9333 122.467Z" fill="#E6E6E6"/>
<path d="M50 24.0668C48.8667 24.0668 47.8667 25.0002 47.8667 26.2002C47.8667 27.3335 48.8 28.3335 50 28.3335C51.2 28.3335 52.1333 27.4002 52.1333 26.2002C52.1333 25.0002 51.2 24.0668 50 24.0668Z" fill="#F7F7F7"/>
<path d="M50 41.1334C47.9333 41.1334 46.2667 42.8668 46.2667 44.9334C46.2667 46.9334 48 48.6001 50 48.6001C52.1333 48.6001 53.7333 46.8668 53.7333 44.9334C53.7333 42.8001 52.1333 41.1334 50 41.1334Z" fill="#E6E6E6"/>
<path d="M50 61.8669C48.5333 61.8669 47.3333 63.0669 47.3333 64.5335C47.3333 66.0002 48.5333 67.2002 50 67.2002C51.4667 67.2002 52.6667 66.0002 52.6667 64.5335C52.6667 63.0669 51.4667 61.8669 50 61.8669Z" fill="#E6E6E6"/>
<path d="M50 80.9339C48.4 80.9339 47.0667 82.2672 47.0667 83.8006C47.0667 85.4672 48.4 86.7339 50 86.7339C51.6667 86.7339 52.9333 85.4006 52.9333 83.8006C53 82.2006 51.6667 80.9339 50 80.9339Z" fill="#E6E6E6"/>
<path d="M53.6667 103.2C53.6667 101.134 52.0667 99.5336 50 99.5336C48 99.5336 46.4 101.134 46.4 103.2C46.4 105.2 48 106.8 50 106.8C52.0667 106.734 53.6667 105.2 53.6667 103.2Z" fill="#E6E6E6"/>
<path d="M54.4 122.467C54.4 120 52.4667 118.067 50 118.067C47.6 118.067 45.6667 120 45.6667 122.467C45.6667 124.867 47.6 126.8 50 126.8C52.4667 126.734 54.4 124.8 54.4 122.467Z" fill="#E6E6E6"/>
<path d="M30.8 24.0668C29.6 24.0668 28.6667 25.0002 28.6667 26.2002C28.6667 27.3335 29.6 28.3335 30.8 28.3335C31.9333 28.3335 32.9333 27.4002 32.9333 26.2002C32.9333 25.0002 31.9333 24.0668 30.8 24.0668Z" fill="#E6E6E6"/>
<path d="M30.8 41.1334C28.6667 41.1334 27.0667 42.8668 27.0667 44.9334C27.0667 46.9334 28.6667 48.6001 30.8 48.6001C32.8667 48.6001 34.5333 46.8668 34.5333 44.9334C34.5333 42.8001 32.8667 41.1334 30.8 41.1334Z" fill="#F7F7F7"/>
<path d="M30.8 60.8668C28.6667 60.8668 27.0667 62.6002 27.0667 64.6002C27.0667 66.6002 28.6667 68.3335 30.8 68.3335C32.8667 68.3335 34.5333 66.6002 34.5333 64.6002C34.5333 62.4668 32.8667 60.8668 30.8 60.8668Z" fill="#E6E6E6"/>
<path d="M30.8 78.6005C27.8667 78.6005 25.5333 80.9338 25.5333 83.8005C25.5333 86.7338 27.8667 89.1338 30.8 89.1338C33.6667 89.1338 36.0667 86.7338 36.0667 83.8005C36.0667 80.9338 33.7333 78.6005 30.8 78.6005Z" fill="#F7F7F7"/>
<path d="M37.2667 103.2C37.2667 99.5337 34.4 96.667 30.8 96.667C27.2 96.667 24.2667 99.5337 24.2667 103.2C24.2667 106.8 27.2 109.667 30.8 109.667C34.4 109.667 37.2667 106.734 37.2667 103.2Z" fill="#E6E6E6"/>
<path d="M35.8667 122.4C35.8667 119.533 33.6 117.333 30.8 117.333C27.9333 117.333 25.7333 119.6 25.7333 122.4C25.7333 125.267 28 127.467 30.8 127.467C33.6 127.467 35.8667 125.2 35.8667 122.4Z" fill="#E6E6E6"/>
<path d="M9.13333 26.267C9.13333 27.5337 10.2 28.667 11.5333 28.667C12.8667 28.667 13.9333 27.5337 13.9333 26.267C13.9333 24.867 12.8667 23.8003 11.5333 23.8003C10.2667 23.7337 9.13333 24.8003 9.13333 26.267Z" fill="#E6E6E6"/>
<path d="M11.5333 41.3335C9.53333 41.3335 8 43.0001 8 44.9335C8 46.8001 9.53333 48.4668 11.5333 48.4668C13.5333 48.4668 15.1333 46.8001 15.1333 44.9335C15.1333 42.8668 13.5333 41.3335 11.5333 41.3335Z" fill="#D5D5D5"/>
<path d="M11.5333 59.6671C8.86667 59.6671 6.73334 61.8004 6.73334 64.4671C6.73334 67.1337 8.86667 69.4004 11.5333 69.4004C14.2667 69.4004 16.4667 67.1337 16.4667 64.4671C16.4667 61.8004 14.3333 59.6671 11.5333 59.6671Z" fill="#F7F7F7"/>
<path d="M11.5333 78.9336C8.86667 78.9336 6.73334 81.2003 6.73334 83.867C6.73334 86.5336 8.86667 88.8003 11.5333 88.8003C14.2667 88.8003 16.4667 86.5336 16.4667 83.867C16.4667 81.2003 14.3333 78.9336 11.5333 78.9336Z" fill="#E6E6E6"/>
<path d="M6.86667 103.2C6.86667 105.8 9 107.934 11.6 107.934C14.2 107.934 16.4 105.8 16.4 103.2C16.4 100.6 14.2667 98.4003 11.6 98.4003C9 98.4003 6.86667 100.534 6.86667 103.2Z" fill="#F7F7F7"/>
<path d="M16.8 122.467C16.8 119.6 14.4667 117.267 11.6 117.267C8.73333 117.267 6.4 119.6 6.4 122.467C6.4 125.334 8.73333 127.667 11.6 127.667C14.5333 127.6 16.8 125.267 16.8 122.467Z" fill="#E6E6E6"/>
</svg>
