<svg width="122" height="488" viewBox="0 0 122 488" fill="none" xmlns="http://www.w3.org/2000/svg">
<path d="M116.4 198.6C118.867 198.6 120.867 196.6 120.867 194.2C120.867 191.8 118.8 189.733 116.4 189.733C113.933 189.733 112 191.8 112 194.2C111.933 196.6 113.933 198.6 116.4 198.6Z" fill="#E6E6E6"/>
<path d="M116.4 179.267C118.8 179.267 120.733 177.333 120.733 174.933C120.733 172.533 118.8 170.6 116.4 170.6C114 170.6 112.067 172.533 112.067 174.933C112.067 177.267 114 179.267 116.4 179.267Z" fill="#E6E6E6"/>
<path d="M97.2001 172.533C95.8668 172.533 94.7334 173.6 94.7334 174.933C94.7334 176.267 95.8001 177.4 97.2001 177.4C98.5334 177.4 99.6001 176.333 99.6001 174.933C99.5334 173.6 98.4668 172.533 97.2001 172.533Z" fill="#F7F7F7"/>
<path d="M116.467 160.667C119.133 160.667 121.333 158.467 121.333 155.8C121.333 153.134 119.133 150.867 116.467 150.867C113.733 150.867 111.533 153.067 111.533 155.8C111.467 158.467 113.733 160.667 116.467 160.667Z" fill="#E6E6E6"/>
<path d="M97.1335 159.934C99.4668 159.934 101.333 158.134 101.333 155.8C101.333 153.467 99.4668 151.667 97.1335 151.667C94.8668 151.667 93.0002 153.467 93.0002 155.8C93.0002 158.134 94.8668 159.934 97.1335 159.934Z" fill="#E6E6E6"/>
<path d="M77.8668 153.267C76.5335 153.267 75.4002 154.334 75.4002 155.734C75.4002 157.067 76.4668 158.2 77.8668 158.2C79.2002 158.2 80.3335 157.067 80.3335 155.734C80.3335 154.334 79.2002 153.267 77.8668 153.267Z" fill="#F7F7F7"/>
<path d="M116.467 141.267C119.067 141.267 121.2 139.133 121.2 136.467C121.2 133.867 119.067 131.733 116.467 131.733C113.867 131.733 111.667 133.867 111.667 136.467C111.667 139.133 113.8 141.267 116.467 141.267Z" fill="#F7F7F7"/>
<path d="M97.1333 140.533C99.3333 140.533 101.133 138.733 101.133 136.467C101.133 134.2 99.4 132.467 97.1333 132.467C95 132.467 93.1333 134.267 93.1333 136.467C93.1333 138.733 94.9333 140.533 97.1333 140.533Z" fill="#E6E6E6"/>
<path d="M80.3335 136.533C80.3335 135.2 79.2002 134.067 77.8668 134.067C76.4668 134.067 75.4002 135.2 75.4002 136.533C75.4002 137.933 76.4668 139 77.8668 139C79.2002 139 80.3335 137.933 80.3335 136.533Z" fill="#E6E6E6"/>
<path d="M116.4 121.067C118.533 121.067 120.133 119.4 120.133 117.4C120.133 115.334 118.4 113.667 116.4 113.667C114.4 113.667 112.667 115.334 112.667 117.334C112.667 119.4 114.333 121.067 116.4 121.067Z" fill="#D5D5D5"/>
<path d="M101.467 117.267C101.467 114.867 99.6001 112.867 97.1335 112.867C94.7335 112.867 92.7335 114.867 92.7335 117.267C92.7335 119.667 94.7335 121.6 97.1335 121.6C99.5335 121.6 101.467 119.733 101.467 117.267Z" fill="#F7F7F7"/>
<path d="M116.4 93.4C113.867 93.4 111.667 95.5334 111.667 98.1334C111.667 100.733 113.8 102.867 116.4 102.867C119 102.867 121.133 100.8 121.133 98.1334C121.067 95.4667 119 93.4 116.4 93.4Z" fill="#E6E6E6"/>
<path d="M100.2 98.0666C100.2 96.3333 98.8669 95.0666 97.1335 95.0666C95.4002 95.0666 94.1335 96.3999 94.1335 98.0666C94.1335 99.7999 95.4669 101.133 97.1335 101.133C98.8002 101.133 100.2 99.7333 100.2 98.0666Z" fill="#D5D5D5"/>
<path d="M81.4668 98.0667C81.4668 96.0667 79.7335 94.4668 77.8001 94.4668C75.7335 94.4668 74.1335 96.0667 74.1335 98.0667C74.1335 100.133 75.7335 101.733 77.8001 101.733C79.8668 101.733 81.4668 100.067 81.4668 98.0667Z" fill="#F7F7F7"/>
<path d="M116.4 83.8667C119.133 83.8667 121.4 81.6667 121.4 78.9334C121.4 76.2001 119.133 74 116.4 74C113.667 74 111.467 76.2001 111.467 78.9334C111.467 81.6001 113.667 83.8667 116.4 83.8667Z" fill="#E6E6E6"/>
<path d="M99.9333 78.8667C99.9333 77.3334 98.6667 76.0001 97.0667 76.0001C95.5333 76.0001 94.2 77.2667 94.2 78.8667C94.2 80.4667 95.4667 81.7334 97.0667 81.7334C98.7333 81.6667 99.9333 80.4001 99.9333 78.8667Z" fill="#F7F7F7"/>
<path d="M80.5334 78.8665C80.5334 77.3999 79.3334 76.1999 77.8668 76.1999C76.4001 76.1999 75.2001 77.3999 75.2001 78.8665C75.2001 80.3332 76.4001 81.5332 77.8668 81.5332C79.3334 81.5332 80.5334 80.3999 80.5334 78.8665Z" fill="#F7F7F7"/>
<path d="M116.4 63.7334C118.667 63.7334 120.467 61.9334 120.467 59.6667C120.467 57.4001 118.667 55.6001 116.4 55.6001C114.133 55.6001 112.333 57.4001 112.333 59.6667C112.333 61.9334 114.2 63.7334 116.4 63.7334Z" fill="#D5D5D5"/>
<path d="M94.8001 59.6003C94.8001 60.9336 95.8668 61.9336 97.1335 61.9336C98.4668 61.9336 99.4668 60.8669 99.4668 59.6003C99.4668 58.2669 98.4001 57.2669 97.1335 57.2669C95.8668 57.3336 94.8001 58.3336 94.8001 59.6003Z" fill="#E6E6E6"/>
<path d="M80.0667 59.6C80.0667 58.4 79.1333 57.4667 77.9333 57.4667C76.6667 57.4667 75.6667 58.4 75.6667 59.6C75.6667 60.8667 76.6 61.8667 77.9333 61.8667C79.1333 61.9333 80.0667 60.8667 80.0667 59.6Z" fill="#F7F7F7"/>
<path d="M99.5334 40.4003C99.5334 39.0669 98.4668 37.9336 97.0668 37.9336C95.7334 37.9336 94.6668 39.0003 94.6668 40.4003C94.6668 41.7336 95.7334 42.8003 97.0668 42.8003C98.4001 42.8003 99.5334 41.8003 99.5334 40.4003Z" fill="#F7F7F7"/>
<path d="M79.2668 40.4667C79.2668 39.6 78.6668 39 77.8668 39C77.0002 39 76.4002 39.6 76.4002 40.4667C76.4002 41.2667 77.0002 41.8667 77.8668 41.8667C78.6668 41.8667 79.2668 41.2 79.2668 40.4667Z" fill="#F7F7F7"/>
<path d="M118.133 21.2003C118.133 20.2669 117.333 19.4669 116.4 19.4669C115.467 19.4669 114.667 20.2669 114.667 21.2003C114.667 22.1336 115.467 22.9336 116.4 22.9336C117.4 23.0003 118.133 22.2003 118.133 21.2003Z" fill="#F7F7F7"/>
<path d="M117.867 1.99992C117.867 1.19992 117.267 0.599935 116.467 0.599935C115.667 0.599935 115.067 1.19992 115.067 1.99992C115.067 2.79992 115.733 3.3999 116.467 3.3999C117.2 3.3999 117.867 2.79992 117.867 1.99992Z" fill="#E6E6E6"/>
<path d="M118 40.4C118 39.6 117.333 38.8667 116.467 38.8667C115.6 38.8667 114.867 39.5333 114.867 40.4C114.867 41.2667 115.533 42 116.467 42C117.267 41.9333 118 41.2667 118 40.4Z" fill="#E6E6E6"/>
<path d="M59.6001 98.1336C59.6001 97.5336 59.2001 97.2002 58.6668 97.2002C58.1334 97.2002 57.7334 97.6003 57.7334 98.1336C57.7334 98.6669 58.2668 99.0669 58.6668 99.0669C59.1334 99.0669 59.6001 98.6003 59.6001 98.1336Z" fill="#F7F7F7"/>
<path d="M59.4668 117.267C59.4668 116.733 59.1335 116.333 58.6001 116.333C58.0668 116.333 57.6668 116.733 57.6668 117.267C57.6668 117.8 58.0668 118.133 58.6001 118.133C59.1335 118.133 59.4668 117.8 59.4668 117.267Z" fill="#F7F7F7"/>
<path d="M79 117.267C79 116.667 78.6 116.067 77.8667 116.067C77.2667 116.067 76.7333 116.667 76.7333 117.267C76.7333 117.867 77.3333 118.4 77.8667 118.4C78.5333 118.467 79 118 79 117.267Z" fill="#F7F7F7"/>
<path d="M40.0001 136.467C40.0001 135.867 39.4668 135.333 38.8668 135.333C38.2668 135.333 37.6668 135.933 37.6668 136.467C37.6668 137.133 38.2668 137.6 38.8668 137.6C39.5335 137.6 40.0001 137.2 40.0001 136.467Z" fill="#F7F7F7"/>
<path d="M59.6667 136.467C59.6667 135.867 59.2668 135.333 58.5334 135.333C57.9334 135.333 57.4001 135.933 57.4001 136.467C57.4001 137.133 58.0001 137.6 58.5334 137.6C59.2668 137.6 59.6667 137.2 59.6667 136.467Z" fill="#D5D5D5"/>
<path d="M40.0668 155.733C40.0668 155.067 39.4668 154.467 38.8668 154.467C38.2001 154.467 37.6001 155.067 37.6001 155.733C37.6001 156.4 38.2001 157 38.8668 157C39.5334 156.933 40.0668 156.4 40.0668 155.733Z" fill="#D5D5D5"/>
<path d="M60.3334 155.733C60.3334 154.8 59.5334 154 58.6 154C57.6667 154 56.8667 154.667 56.8667 155.733C56.8667 156.667 57.6667 157.467 58.6 157.467C59.5334 157.4 60.3334 156.667 60.3334 155.733Z" fill="#F7F7F7"/>
<path d="M40.0001 175C40.0001 174.333 39.4001 173.8 38.8668 173.8C38.2001 173.8 37.6668 174.333 37.6668 175C37.6668 175.6 38.2001 176.133 38.8668 176.133C39.4668 176.133 40.0001 175.533 40.0001 175Z" fill="#F7F7F7"/>
<path d="M60.7334 175C60.7334 173.733 59.8001 172.733 58.6001 172.733C57.4001 172.733 56.4667 173.667 56.4667 175C56.4667 176.133 57.4001 177.133 58.6001 177.133C59.7334 177.067 60.7334 176.133 60.7334 175Z" fill="#F7F7F7"/>
<path d="M80.1333 175C80.1333 173.733 79.0666 172.6 77.8 172.6C76.5333 172.6 75.5333 173.733 75.5333 175C75.5333 176.267 76.4666 177.267 77.8 177.267C79.1333 177.267 80.1333 176.2 80.1333 175Z" fill="#F7F7F7"/>
<path d="M58.5335 196.6C59.8668 196.6 61.0001 195.467 61.0001 194.133C61.0001 192.8 59.8668 191.667 58.5335 191.667C57.1335 191.667 56.0668 192.8 56.0668 194.133C56.0668 195.467 57.1335 196.6 58.5335 196.6Z" fill="#F7F7F7"/>
<path d="M80.7334 194.133C80.7334 192.467 79.4667 191.267 77.8667 191.267C76.3334 191.267 75.0667 192.533 75.0667 194.133C75.0667 195.733 76.3334 197 77.8667 197C79.4667 197 80.7334 195.733 80.7334 194.133Z" fill="#F7F7F7"/>
<path d="M79 213.333C79 212.733 78.4667 212.2 77.8667 212.2C77.2 212.2 76.7333 212.8 76.7333 213.333C76.7333 214 77.1333 214.533 77.8667 214.533C78.4667 214.533 79 214 79 213.333Z" fill="#F7F7F7"/>
<path d="M99.2002 213.333C99.2002 212.2 98.2669 211.2 97.0669 211.2C95.8002 211.2 94.9335 212.133 94.9335 213.333C94.9335 214.533 95.8002 215.467 97.0669 215.467C98.2669 215.4 99.2002 214.533 99.2002 213.333Z" fill="#F7F7F7"/>
<path d="M119 213.334C119 211.934 117.8 210.8 116.4 210.8C114.933 210.8 113.8 211.934 113.8 213.334C113.8 214.734 114.933 215.934 116.4 215.934C117.8 215.934 119 214.734 119 213.334Z" fill="#F7F7F7"/>
<path d="M59.6667 232.6C59.6667 232 59.1334 231.467 58.5334 231.467C57.8668 231.467 57.4001 232 57.4001 232.6C57.4001 233.2 57.8001 233.733 58.5334 233.733C59.2001 233.733 59.6667 233.2 59.6667 232.6Z" fill="#F7F7F7"/>
<path d="M80.3335 232.6C80.3335 231.267 79.2002 230.2 77.9335 230.2C76.5335 230.2 75.4668 231.267 75.4668 232.6C75.4668 233.933 76.5335 235 77.9335 235C79.2002 234.933 80.3335 233.867 80.3335 232.6Z" fill="#F7F7F7"/>
<path d="M100.867 232.6C100.867 230.467 99.1334 228.867 97.1334 228.867C95.1334 228.867 93.4 230.467 93.4 232.6C93.4 234.733 95.1334 236.333 97.1334 236.333C99.2 236.267 100.867 234.667 100.867 232.6Z" fill="#D5D5D5"/>
<path d="M120.067 232.6C120.067 230.6 118.467 228.933 116.4 228.933C114.4 228.933 112.733 230.667 112.733 232.6C112.733 234.6 114.467 236.267 116.4 236.267C118.4 236.2 120.067 234.533 120.067 232.6Z" fill="#F7F7F7"/>
<path d="M60.1334 251.8C60.1334 250.934 59.4668 250.267 58.6001 250.267C57.7334 250.267 57.0668 250.934 57.0668 251.8C57.0668 252.667 57.7334 253.333 58.6001 253.333C59.4001 253.333 60.1334 252.667 60.1334 251.8Z" fill="#F7F7F7"/>
<path d="M80.9333 251.8C80.9333 250.067 79.6 248.733 77.9333 248.733C76.2 248.733 74.8667 250.133 74.8667 251.8C74.8667 253.533 76.2 254.8 77.9333 254.8C79.5333 254.867 80.9333 253.467 80.9333 251.8Z" fill="#E6E6E6"/>
<path d="M100.867 251.867C100.867 249.733 99.1334 248.067 97.1334 248.067C95.1334 248.067 93.4 249.8 93.4 251.867C93.4 253.933 95.1334 255.533 97.1334 255.533C99.1334 255.533 100.867 253.867 100.867 251.867Z" fill="#F7F7F7"/>
<path d="M118.8 251.8C118.8 250.467 117.8 249.467 116.467 249.467C115.133 249.467 114.133 250.467 114.133 251.8C114.133 253.067 115.2 254.134 116.467 254.134C117.733 254.2 118.8 253 118.8 251.8Z" fill="#E6E6E6"/>
<path d="M79.4001 271C79.4001 270.133 78.7335 269.467 77.8668 269.467C77.0001 269.467 76.3335 270.133 76.3335 271C76.3335 271.867 77.0001 272.533 77.8668 272.533C78.7335 272.533 79.4001 271.867 79.4001 271Z" fill="#F7F7F7"/>
<path d="M94.2 271C94.2 272.734 95.5333 273.934 97.2 273.934C98.7333 273.934 100.133 272.667 100.133 271C100.133 269.4 98.7333 268 97.2 268C95.4666 268 94.2 269.4 94.2 271Z" fill="#E6E6E6"/>
<path d="M120.733 271C120.733 268.6 118.733 266.734 116.4 266.734C114 266.734 112.133 268.6 112.133 271C112.133 273.4 114 275.333 116.4 275.333C118.733 275.333 120.733 273.4 120.733 271Z" fill="#F7F7F7"/>
<path d="M98.8 290.267C98.8 289.334 98 288.6 97.2 288.6C96.2667 288.6 95.4667 289.267 95.4667 290.267C95.4667 291.2 96.2667 291.934 97.2 291.934C98 291.867 98.8 291.134 98.8 290.267Z" fill="white"/>
<path d="M101 194.2C101 192.067 99.2667 190.333 97.2 190.333C95.0667 190.333 93.3333 192.067 93.3333 194.2C93.3333 196.333 95.0667 198 97.2 198C99.2667 198 101 196.267 101 194.2Z" fill="#E6E6E6"/>
<path d="M3.4668 482.4C3.4668 481.467 2.6668 480.733 1.8668 480.733C0.933468 480.733 0.133464 481.4 0.133464 482.4C0.133464 483.333 0.933468 484.133 1.8668 484.133C2.6668 484.067 3.4668 483.333 3.4668 482.4Z" fill="#D5D5D5"/>
<path d="M81.6667 309.4C81.6667 307.267 79.9334 305.6 77.8668 305.6C75.7334 305.6 74.0001 307.334 74.0001 309.4C74.0001 311.534 75.7334 313.333 77.8668 313.333C80.0001 313.333 81.6667 311.534 81.6667 309.4Z" fill="white"/>
<path d="M100.267 309.467C100.267 307.733 98.8668 306.4 97.2002 306.4C95.4668 306.4 94.1335 307.8 94.1335 309.467C94.1335 311.2 95.4668 312.6 97.2002 312.6C98.8002 312.6 100.267 311.133 100.267 309.467Z" fill="white"/>
<path d="M116.4 312.8C118.267 312.8 119.733 311.267 119.733 309.4C119.733 307.6 118.267 306.067 116.4 306.067C114.6 306.067 113.067 307.6 113.067 309.4C113 311.334 114.533 312.8 116.4 312.8Z" fill="white"/>
<path d="M80.4001 328.733C80.4001 327.267 79.2668 326.133 77.8668 326.133C76.4668 326.133 75.2668 327.267 75.2668 328.733C75.2668 330.133 76.4668 331.267 77.8668 331.267C79.2668 331.267 80.4001 330.133 80.4001 328.733Z" fill="#D5D5D5"/>
<path d="M101.867 328.733C101.867 326.133 99.7334 324 97.2 324C94.5334 324 92.4 326.133 92.4 328.733C92.4 331.267 94.5334 333.4 97.2 333.4C99.7334 333.4 101.867 331.267 101.867 328.733Z" fill="#E6E6E6"/>
<path d="M113.4 328.733C113.4 330.4 114.733 331.733 116.467 331.733C118.2 331.733 119.467 330.4 119.467 328.733C119.467 327 118.133 325.667 116.467 325.667C114.8 325.667 113.4 327 113.4 328.733Z" fill="#D5D5D5"/>
<path d="M80.4001 347.933C80.4001 346.533 79.2668 345.333 77.8668 345.333C76.4668 345.333 75.2668 346.533 75.2668 347.933C75.2668 349.333 76.4668 350.533 77.8668 350.533C79.2668 350.467 80.4001 349.267 80.4001 347.933Z" fill="white"/>
<path d="M101 347.867C101 345.733 99.2667 344.067 97.2 344.067C95.0667 344.067 93.3333 345.8 93.3333 347.867C93.3333 350 95.0667 351.733 97.2 351.733C99.2667 351.733 101 349.933 101 347.867Z" fill="white"/>
<path d="M116.467 351.067C118.2 351.067 119.6 349.667 119.6 347.934C119.6 346.2 118.2 344.8 116.467 344.8C114.733 344.8 113.267 346.2 113.267 347.934C113.267 349.667 114.667 351.067 116.467 351.067Z" fill="#F7F7F7"/>
<path d="M61.1334 367.134C61.1334 365.667 60.0001 364.534 58.6001 364.534C57.2001 364.534 56.0001 365.667 56.0001 367.134C56.0001 368.534 57.2001 369.667 58.6001 369.667C60.0001 369.667 61.1334 368.534 61.1334 367.134Z" fill="#F7F7F7"/>
<path d="M77.8668 370.934C80.0001 370.934 81.6667 369.2 81.6667 367.134C81.6667 365 79.9334 363.267 77.8668 363.267C75.7334 363.267 74.0001 365 74.0001 367.134C74.0001 369.267 75.7334 370.934 77.8668 370.934Z" fill="#F7F7F7"/>
<path d="M100 367.133C100 365.533 98.7333 364.267 97.1333 364.267C95.5333 364.267 94.2667 365.6 94.2667 367.133C94.2667 368.733 95.6 370 97.1333 370C98.8 369.933 100 368.733 100 367.133Z" fill="#D5D5D5"/>
<path d="M116.4 363.667C114.533 363.667 112.933 365.2 112.933 367.133C112.933 369.067 114.533 370.6 116.4 370.6C118.333 370.6 119.867 369.067 119.867 367.133C119.867 365.2 118.4 363.667 116.4 363.667Z" fill="#E6E6E6"/>
<path d="M36.3334 386.333C36.3334 387.733 37.4667 388.867 38.8667 388.867C40.2667 388.867 41.3334 387.733 41.3334 386.333C41.3334 385 40.2667 383.867 38.8667 383.867C37.4667 383.8 36.3334 384.933 36.3334 386.333Z" fill="#F7F7F7"/>
<path d="M54.0001 386.334C54.0001 388.8 56.0668 390.8 58.5335 390.8C60.9335 390.8 63.0001 388.734 63.0001 386.334C63.0001 383.934 60.8668 381.867 58.5335 381.867C56.0668 381.8 54.0001 383.867 54.0001 386.334Z" fill="#D5D5D5"/>
<path d="M74.8667 386.333C74.8667 388 76.2001 389.267 77.8667 389.267C79.5334 389.267 80.8 387.933 80.8 386.333C80.8 384.667 79.4667 383.4 77.8667 383.4C76.2001 383.333 74.8667 384.667 74.8667 386.333Z" fill="#E6E6E6"/>
<path d="M97.1335 383C95.3335 383 93.8001 384.534 93.8001 386.334C93.8001 388.2 95.3335 389.667 97.1335 389.667C99.0001 389.667 100.467 388.2 100.467 386.334C100.467 384.534 99.0001 383 97.1335 383Z" fill="#E6E6E6"/>
<path d="M116.4 382.2C114.133 382.2 112.333 384 112.333 386.267C112.333 388.533 114.133 390.333 116.4 390.333C118.667 390.333 120.467 388.533 120.467 386.267C120.467 384.067 118.667 382.2 116.4 382.2Z" fill="#E6E6E6"/>
<path d="M56.0668 405.6C56.0668 406.934 57.2001 408.067 58.6001 408.067C60.0001 408.067 61.0668 406.934 61.0668 405.6C61.0668 404.2 60.0001 403.067 58.6001 403.067C57.2001 403 56.0668 404.134 56.0668 405.6Z" fill="#E6E6E6"/>
<path d="M81.4668 405.6C81.4668 403.534 79.8001 401.934 77.8668 401.934C75.7335 401.934 74.2001 403.534 74.2001 405.6C74.2001 407.6 75.7335 409.2 77.8668 409.2C79.8668 409.134 81.4668 407.6 81.4668 405.6Z" fill="#E6E6E6"/>
<path d="M94.2 405.6C94.2 407.267 95.5333 408.533 97.2 408.533C98.8666 408.533 100.133 407.2 100.133 405.6C100.133 403.867 98.8 402.6 97.2 402.6C95.4666 402.6 94.2 403.867 94.2 405.6Z" fill="#E6E6E6"/>
<path d="M116.4 402.2C114.6 402.2 113.067 403.667 113.067 405.534C113.067 407.334 114.6 408.8 116.4 408.8C118.267 408.8 119.734 407.334 119.734 405.534C119.8 403.734 118.267 402.2 116.4 402.2Z" fill="#F7F7F7"/>
<path d="M36.4667 424.8C36.4667 426.134 37.5334 427.2 38.8667 427.2C40.1334 427.2 41.2667 426.134 41.2667 424.8C41.2667 423.467 40.1334 422.4 38.8667 422.4C37.5334 422.334 36.4667 423.4 36.4667 424.8Z" fill="#E6E6E6"/>
<path d="M58.6001 428.4C60.6001 428.4 62.2001 426.8 62.2001 424.733C62.2001 422.733 60.5334 421.067 58.6001 421.067C56.4667 421.067 54.9334 422.8 54.9334 424.733C54.9334 426.8 56.4667 428.4 58.6001 428.4Z" fill="#F7F7F7"/>
<path d="M80.4668 424.733C80.4668 423.267 79.2668 422.133 77.8668 422.133C76.4668 422.133 75.2668 423.333 75.2668 424.733C75.2668 426.133 76.4668 427.333 77.8668 427.333C79.2668 427.4 80.4668 426.2 80.4668 424.733Z" fill="#E6E6E6"/>
<path d="M97.1335 421.6C95.4002 421.6 94.0002 423 94.0002 424.734C94.0002 426.467 95.4002 427.934 97.1335 427.934C98.8668 427.934 100.267 426.534 100.267 424.734C100.267 423 98.8668 421.6 97.1335 421.6Z" fill="#E6E6E6"/>
<path d="M116.467 421.067C114.333 421.067 112.733 422.733 112.733 424.733C112.733 426.8 114.467 428.467 116.467 428.467C118.467 428.467 120.133 426.733 120.133 424.733C120.133 422.667 118.467 421.067 116.467 421.067Z" fill="#E6E6E6"/>
<path d="M18.0667 444C18.0667 445.133 19 446.133 20.2 446.133C21.3334 446.133 22.3334 445.2 22.3334 444C22.3334 442.8 21.4 441.867 20.2 441.867C19 441.867 18.0667 442.8 18.0667 444Z" fill="#F7F7F7"/>
<path d="M35.1334 444C35.1334 446.067 36.8668 447.733 38.9334 447.733C40.9334 447.733 42.6001 446 42.6001 444C42.6001 441.867 40.8668 440.267 38.9334 440.267C36.8001 440.267 35.1334 441.867 35.1334 444Z" fill="#E6E6E6"/>
<path d="M55.8667 444C55.8667 445.467 57.0667 446.667 58.5334 446.667C60.0001 446.667 61.2001 445.467 61.2001 444C61.2001 442.534 60.0001 441.334 58.5334 441.334C57.0667 441.334 55.8667 442.534 55.8667 444Z" fill="#E6E6E6"/>
<path d="M74.9334 444C74.9334 445.6 76.2667 446.934 77.8001 446.934C79.4667 446.934 80.7334 445.6 80.7334 444C80.7334 442.334 79.4001 441.067 77.8001 441.067C76.2001 441 74.9334 442.334 74.9334 444Z" fill="#E6E6E6"/>
<path d="M97.2 440.333C95.1334 440.333 93.5334 441.933 93.5334 444C93.5334 446 95.1334 447.6 97.2 447.6C99.2 447.6 100.8 446 100.8 444C100.733 441.933 99.2 440.333 97.2 440.333Z" fill="#E6E6E6"/>
<path d="M116.467 439.6C114 439.6 112.067 441.533 112.067 444C112.067 446.4 114 448.333 116.467 448.333C118.867 448.333 120.8 446.4 120.8 444C120.733 441.533 118.8 439.6 116.467 439.6Z" fill="#E6E6E6"/>
<path d="M18.0667 463.2C18.0667 464.4 19 465.333 20.2 465.333C21.3334 465.333 22.3334 464.4 22.3334 463.2C22.3334 462.067 21.4 461.067 20.2 461.067C19 461.067 18.0667 462.067 18.0667 463.2Z" fill="#E6E6E6"/>
<path d="M35.1334 463.2C35.1334 465.334 36.8668 466.934 38.9334 466.934C40.9334 466.934 42.6001 465.334 42.6001 463.2C42.6001 461.134 40.8668 459.467 38.9334 459.467C36.8001 459.467 35.1334 461.134 35.1334 463.2Z" fill="#F7F7F7"/>
<path d="M54.8667 463.2C54.8667 465.334 56.6 466.934 58.6 466.934C60.6 466.934 62.3334 465.334 62.3334 463.2C62.3334 461.134 60.6 459.467 58.6 459.467C56.4667 459.467 54.8667 461.134 54.8667 463.2Z" fill="#E6E6E6"/>
<path d="M72.6 463.2C72.6 466.133 74.9333 468.467 77.8 468.467C80.7333 468.467 83.1333 466.133 83.1333 463.2C83.1333 460.333 80.7333 457.933 77.8 457.933C74.9333 457.933 72.6 460.267 72.6 463.2Z" fill="#F7F7F7"/>
<path d="M97.2001 456.733C93.5334 456.733 90.6667 459.6 90.6667 463.2C90.6667 466.8 93.5334 469.733 97.2001 469.733C100.8 469.733 103.667 466.8 103.667 463.2C103.667 459.6 100.733 456.733 97.2001 456.733Z" fill="#E6E6E6"/>
<path d="M116.4 458.133C113.533 458.133 111.333 460.4 111.333 463.2C111.333 466.067 113.6 468.267 116.4 468.267C119.267 468.267 121.467 466 121.467 463.2C121.467 460.4 119.2 458.133 116.4 458.133Z" fill="#E6E6E6"/>
<path d="M20.2667 484.867C21.5334 484.867 22.6667 483.8 22.6667 482.467C22.6667 481.133 21.5334 480.067 20.2667 480.067C18.8667 480.067 17.8001 481.133 17.8001 482.467C17.7334 483.733 18.8001 484.867 20.2667 484.867Z" fill="#E6E6E6"/>
<path d="M35.3335 482.467C35.3335 484.467 37.0001 486 38.9335 486C40.8001 486 42.4668 484.467 42.4668 482.467C42.4668 480.467 40.8001 478.867 38.9335 478.867C36.8668 478.867 35.3335 480.467 35.3335 482.467Z" fill="#D5D5D5"/>
<path d="M53.6667 482.467C53.6667 485.133 55.8 487.267 58.4667 487.267C61.1334 487.267 63.4 485.133 63.4 482.467C63.4 479.733 61.1334 477.533 58.4667 477.533C55.8 477.533 53.6667 479.667 53.6667 482.467Z" fill="#F7F7F7"/>
<path d="M72.9334 482.467C72.9334 485.133 75.2001 487.267 77.8667 487.267C80.5334 487.267 82.8 485.133 82.8 482.467C82.8 479.733 80.5334 477.533 77.8667 477.533C75.2001 477.533 72.9334 479.667 72.9334 482.467Z" fill="#E6E6E6"/>
<path d="M97.2 487.133C99.8 487.133 101.933 485 101.933 482.4C101.933 479.8 99.8 477.6 97.2 477.6C94.6 477.6 92.4 479.733 92.4 482.4C92.4 485 94.5333 487.133 97.2 487.133Z" fill="#F7F7F7"/>
<path d="M116.467 477.2C113.6 477.2 111.267 479.533 111.267 482.4C111.267 485.267 113.6 487.6 116.467 487.6C119.333 487.6 121.667 485.267 121.667 482.4C121.6 479.467 119.267 477.2 116.467 477.2Z" fill="#E6E6E6"/>
</svg>
