<svg width="20" height="20" viewBox="0 0 20 20" fill="none" xmlns="http://www.w3.org/2000/svg">
<path d="M10 0.0175781C11.4815 0.0175781 12.963 0.0175781 14.4444 0.0175781C15.5556 0.0175781 16.5961 0.282128 17.5132 0.899412C18.4832 1.53433 19.1711 2.38089 19.5944 3.45673C19.8589 4.12693 19.9824 4.83239 19.9647 5.57313C19.9647 8.55373 19.9647 11.5167 19.9647 14.4973C19.9647 15.9964 19.4709 17.2839 18.4303 18.3597C17.6014 19.2239 16.5961 19.753 15.4145 19.9294C15.0794 19.9823 14.7266 19.9999 14.3915 19.9999C11.4286 19.9999 8.46561 19.9999 5.50265 19.9999C4.00353 19.9999 2.71605 19.5061 1.64021 18.4655C0.776014 17.6366 0.246914 16.6313 0.0705467 15.4497C0.0176367 15.1146 0 14.7618 0 14.4267C0 11.4638 0 8.50082 0 5.53786C0 4.03874 0.493827 2.75126 1.53439 1.67543C2.36332 0.811229 3.36861 0.282128 4.55026 0.105762C4.88536 0.0528515 5.2381 0.0352148 5.57319 0.0352148C7.07231 0.0175781 8.53615 0.0175781 10 0.0175781ZM10 18.8006C11.4462 18.8006 12.8924 18.8006 14.3386 18.8006C14.6561 18.8006 14.9735 18.783 15.291 18.7301C16.3492 18.5537 17.2134 18.0246 17.8836 17.1957C18.5185 16.4021 18.8007 15.485 18.8007 14.462C18.8007 11.5167 18.8007 8.57137 18.8007 5.62604C18.8007 5.32622 18.7831 5.0264 18.7302 4.72657C18.5538 3.65073 18.0247 2.7689 17.1605 2.09871C16.3668 1.46379 15.4674 1.19924 14.4621 1.19924C11.5168 1.19924 8.57143 1.19924 5.64374 1.19924C5.32628 1.19924 5.02645 1.21687 4.70899 1.26978C3.65079 1.44615 2.7866 1.97525 2.1164 2.80417C1.48148 3.59782 1.19929 4.51493 1.19929 5.53786C1.19929 8.50082 1.19929 11.4461 1.19929 14.4091C1.19929 14.6913 1.21693 14.9911 1.26984 15.2733C1.44621 16.3491 1.97531 17.231 2.83951 17.9012C3.61552 18.5185 4.53263 18.8006 5.52028 18.8006C7.00176 18.8006 8.50088 18.8006 10 18.8006Z" fill="#929497"/>
<path d="M9.98233 15.4674C6.98409 15.4674 4.53259 12.9983 4.53259 10C4.53259 7.00179 7.00173 4.55029 9.99997 4.55029C12.9982 4.55029 15.4497 7.01943 15.4497 10.0177C15.4497 13.0159 12.9982 15.4674 9.98233 15.4674ZM9.99997 14.2857C12.3809 14.2681 14.268 12.3986 14.268 10.0177C14.268 7.65435 12.3809 5.74959 9.99997 5.73195C7.61901 5.73195 5.71425 7.61908 5.71425 10C5.73189 12.381 7.61901 14.2505 9.99997 14.2857Z" fill="#929497"/>
<path d="M15.5908 5.20279C15.0617 5.20279 14.6031 4.76187 14.6031 4.23277C14.6031 3.70367 14.9912 3.24512 15.5908 3.24512C16.1552 3.24512 16.5785 3.6684 16.5785 4.23277C16.5608 4.79715 16.1023 5.18515 15.5908 5.20279ZM15.5908 3.96822C15.4497 3.96822 15.3263 4.09168 15.3263 4.23277C15.3263 4.37387 15.4497 4.47969 15.5908 4.49732C15.7319 4.49732 15.8554 4.37387 15.8554 4.23277C15.8377 4.07404 15.7319 3.95058 15.5908 3.96822Z" fill="#929497"/>
</svg>
