<svg width="96" height="665" viewBox="0 0 96 665" fill="none" xmlns="http://www.w3.org/2000/svg">
<path d="M22.14 21.78C22.2 21.9 22.2 22.08 22.2 22.2C22.2 22.86 21.66 23.34 21.06 23.34C20.64 23.34 20.16 23.04 19.98 22.62L15.78 14.16H9.96C9.24 14.16 8.7 13.5 8.82 12.78C8.94 12.24 9.42 11.88 10.02 11.88H11.94H14.64L11.04 4.92004L2.16 22.62C1.98 23.04 1.5 23.34 1.08 23.34C0.48 23.34 0 22.8 0 22.2C0 22.08 0.06 21.9 0.06 21.78L10.08 1.26004C10.26 0.840039 10.74 0.540039 11.16 0.540039C11.58 0.540039 12.06 0.840039 12.24 1.26004L22.14 21.78Z" fill="white"/>
<path d="M37.3801 7.86016C37.3801 8.04016 37.3201 8.22016 37.2601 8.40016L30.1801 22.6202C30.0001 22.9802 29.5201 23.2802 29.1001 23.2802C28.6801 23.2802 28.2001 22.9802 28.0201 22.6202L20.9401 8.40016C20.8801 8.28016 20.8201 8.04016 20.8201 7.86016C20.8201 7.20016 21.3601 6.66016 22.0201 6.66016C22.4401 6.66016 22.9201 6.96016 23.1001 7.32016L29.1601 19.5002L35.2801 7.32016C35.4601 6.96016 35.9401 6.66016 36.3601 6.66016C36.5401 6.66016 36.7201 6.72016 36.9001 6.78016C37.0801 7.02016 37.3801 7.44016 37.3801 7.86016Z" fill="white"/>
<path d="M43.8 7.86016V22.2002C43.8 22.8002 43.44 23.2802 42.84 23.4002C42.12 23.5202 41.46 22.9802 41.46 22.2002V7.86016C41.46 7.20016 42 6.66016 42.66 6.66016C43.32 6.66016 43.8 7.20016 43.8 7.86016Z" fill="white"/>
<path d="M65.2801 7.86016V14.6402C65.2801 16.6802 64.1401 19.3802 62.7601 20.8202C61.3201 22.2602 58.5601 23.3402 56.5801 23.3402C51.7201 23.3402 47.8201 19.4402 47.8201 14.5802V7.92016C47.8201 7.32016 48.1801 6.84016 48.7801 6.72016C49.5601 6.60016 50.2201 7.14016 50.2201 7.86016V14.4602C50.2201 17.8202 52.7401 20.7002 56.1601 20.9402C59.8801 21.2402 63.0601 18.2402 63.0601 14.5802V7.86016C63.0601 7.20016 63.6001 6.66016 64.2601 6.66016C64.7401 6.66016 65.2801 7.20016 65.2801 7.86016Z" fill="white"/>
<path d="M96.0001 14.0402V669.32C96.0001 669.98 95.4601 670.46 94.8001 670.46C94.1401 670.46 93.6601 669.92 93.6001 669.32V14.1602C93.6001 11.5202 91.6201 9.24016 88.9801 9.00016C85.9801 8.70016 83.4001 11.1002 83.4001 14.0402V24.6002C83.4001 25.2602 82.8601 25.7402 82.2001 25.7402C81.5401 25.7402 81.0601 25.2002 81.0001 24.6002V14.1602C81.0001 11.5202 79.0201 9.24016 76.3801 8.94016C73.5601 8.70016 70.9801 11.0402 70.9801 14.0402V22.0202C70.9801 22.5602 70.6201 23.1002 70.0201 23.2202C69.2401 23.3402 68.5801 22.8002 68.5801 22.0802V14.0402C68.5801 9.96016 71.8801 6.66016 75.9601 6.66016C77.1601 6.66016 78.9001 7.20016 79.9201 7.80016C80.7001 8.28016 81.7201 9.30016 82.1401 10.0202C82.6201 9.24016 83.6401 8.22016 84.3601 7.80016C85.3801 7.14016 87.1201 6.66016 88.3201 6.66016C92.7001 6.66016 96.0001 9.96016 96.0001 14.0402Z" fill="white"/>
</svg>
