<svg width="344" height="74" viewBox="0 0 344 74" fill="none" xmlns="http://www.w3.org/2000/svg">
<g clip-path="url(#clip0_2228_14959)">
<path d="M167.226 64.5699C167.226 66.6974 168.954 68.4224 171.027 68.4224C173.101 68.4224 174.886 66.6399 174.886 64.5699C174.886 62.4424 173.101 60.7749 171.027 60.7749C168.954 60.7174 167.226 62.4424 167.226 64.5699Z" fill="#E6E6E6"/>
<path d="M183.929 64.5696C183.929 66.6396 185.6 68.3071 187.673 68.3071C189.747 68.3071 191.417 66.6396 191.417 64.5696C191.417 62.4996 189.747 60.8321 187.673 60.8321C185.657 60.8321 183.929 62.4996 183.929 64.5696Z" fill="#E6E6E6"/>
<path d="M189.747 48.0096C189.747 46.8596 188.825 45.8821 187.673 45.8821C186.521 45.8821 185.542 46.8021 185.542 48.0096C185.542 49.1596 186.464 50.0796 187.673 50.0796C188.825 50.0221 189.747 49.1021 189.747 48.0096Z" fill="#F7F7F7"/>
<path d="M200 64.6272C200 66.9272 201.901 68.8247 204.205 68.8247C206.509 68.8247 208.467 66.9272 208.467 64.6272C208.467 62.2697 206.566 60.3722 204.205 60.3722C201.901 60.3147 200 62.2697 200 64.6272Z" fill="#E6E6E6"/>
<path d="M200.634 47.9522C200.634 49.9647 202.189 51.5747 204.205 51.5747C206.221 51.5747 207.776 49.9647 207.776 47.9522C207.776 45.9972 206.221 44.3872 204.205 44.3872C202.189 44.3872 200.634 45.9972 200.634 47.9522Z" fill="#E6E6E6"/>
<path d="M206.393 31.3349C206.393 30.1849 205.472 29.2074 204.262 29.2074C203.11 29.2074 202.131 30.1274 202.131 31.3349C202.131 32.4849 203.11 33.4624 204.262 33.4624C205.472 33.4624 206.393 32.4849 206.393 31.3349Z" fill="#F7F7F7"/>
<path d="M216.761 64.6275C216.761 66.87 218.605 68.71 220.909 68.71C223.155 68.71 224.998 66.87 224.998 64.6275C224.998 62.385 223.155 60.4875 220.909 60.4875C218.605 60.4875 216.761 62.3275 216.761 64.6275Z" fill="#F7F7F7"/>
<path d="M217.395 47.9523C217.395 49.8498 218.95 51.4023 220.909 51.4023C222.867 51.4023 224.365 49.9073 224.365 47.9523C224.365 46.1123 222.809 44.5023 220.909 44.5023C218.95 44.5023 217.395 46.0548 217.395 47.9523Z" fill="#E6E6E6"/>
<path d="M220.851 33.4624C222.003 33.4624 222.982 32.4849 222.982 31.3349C222.982 30.1274 222.003 29.2074 220.851 29.2074C219.642 29.2074 218.72 30.1274 218.72 31.3349C218.72 32.4849 219.642 33.4624 220.851 33.4624Z" fill="#E6E6E6"/>
<path d="M234.214 64.57C234.214 66.41 235.654 67.79 237.382 67.79C239.168 67.79 240.608 66.295 240.608 64.57C240.608 62.845 239.168 61.35 237.44 61.35C235.654 61.35 234.214 62.7875 234.214 64.57Z" fill="#D5D5D5"/>
<path d="M237.497 51.6899C239.571 51.6899 241.299 50.0799 241.299 47.9524C241.299 45.8824 239.571 44.1574 237.497 44.1574C235.424 44.1574 233.753 45.8824 233.753 47.9524C233.753 50.0224 235.366 51.6899 237.497 51.6899Z" fill="#F7F7F7"/>
<path d="M258.118 64.5698C258.118 62.3848 256.275 60.4873 254.029 60.4873C251.782 60.4873 249.939 62.3273 249.939 64.5698C249.939 66.8123 251.725 68.6523 254.029 68.6523C256.333 68.5948 258.118 66.8123 258.118 64.5698Z" fill="#E6E6E6"/>
<path d="M254.086 50.5972C255.584 50.5972 256.678 49.4472 256.678 47.9522C256.678 46.4572 255.526 45.3647 254.086 45.3647C252.589 45.3647 251.437 46.5147 251.437 47.9522C251.437 49.3897 252.646 50.5972 254.086 50.5972Z" fill="#D5D5D5"/>
<path d="M254.086 34.4399C255.814 34.4399 257.197 32.9449 257.197 31.2774C257.197 29.4949 255.814 28.1149 254.086 28.1149C252.301 28.1149 250.918 29.4949 250.918 31.2774C250.918 33.0599 252.358 34.4399 254.086 34.4399Z" fill="#F7F7F7"/>
<path d="M266.355 64.5698C266.355 66.9273 268.256 68.8823 270.618 68.8823C272.979 68.8823 274.88 66.9273 274.88 64.5698C274.88 62.2123 272.979 60.3148 270.618 60.3148C268.314 60.3148 266.355 62.2123 266.355 64.5698Z" fill="#E6E6E6"/>
<path d="M270.675 50.3672C272 50.3672 273.152 49.2747 273.152 47.8947C273.152 46.5722 272.057 45.4222 270.675 45.4222C269.293 45.4222 268.198 46.5147 268.198 47.8947C268.256 49.3322 269.35 50.3672 270.675 50.3672Z" fill="#F7F7F7"/>
<path d="M270.675 33.6348C271.942 33.6348 272.979 32.5998 272.979 31.3348C272.979 30.0698 271.942 29.0348 270.675 29.0348C269.408 29.0348 268.371 30.0698 268.371 31.3348C268.371 32.5998 269.35 33.6348 270.675 33.6348Z" fill="#F7F7F7"/>
<path d="M283.75 64.5696C283.75 66.5246 285.306 68.0771 287.264 68.0771C289.222 68.0771 290.778 66.5246 290.778 64.5696C290.778 62.6146 289.222 61.0621 287.264 61.0621C285.306 61.0621 283.75 62.6721 283.75 64.5696Z" fill="#D5D5D5"/>
<path d="M287.322 45.9398C286.17 45.9398 285.306 46.8598 285.306 47.9523C285.306 49.1023 286.227 49.9648 287.322 49.9648C288.474 49.9648 289.338 49.0448 289.338 47.9523C289.28 46.8598 288.416 45.9398 287.322 45.9398Z" fill="#E6E6E6"/>
<path d="M287.322 33.2324C288.358 33.2324 289.165 32.4274 289.165 31.3924C289.165 30.2999 288.358 29.4374 287.322 29.4374C286.227 29.4374 285.363 30.2424 285.363 31.3924C285.306 32.4274 286.227 33.2324 287.322 33.2324Z" fill="#F7F7F7"/>
<path d="M303.91 50.0225C305.062 50.0225 306.041 49.1025 306.041 47.895C306.041 46.745 305.12 45.825 303.91 45.825C302.758 45.825 301.837 46.745 301.837 47.895C301.837 49.045 302.701 50.0225 303.91 50.0225Z" fill="#F7F7F7"/>
<path d="M303.853 32.5425C304.601 32.5425 305.12 32.025 305.12 31.335C305.12 30.5875 304.601 30.07 303.853 30.07C303.161 30.07 302.643 30.5875 302.643 31.335C302.643 32.025 303.219 32.5425 303.853 32.5425Z" fill="#F7F7F7"/>
<path d="M320.499 66.0649C321.306 66.0649 321.997 65.3749 321.997 64.5699C321.997 63.7649 321.306 63.0749 320.499 63.0749C319.693 63.0749 319.002 63.7649 319.002 64.5699C318.944 65.4324 319.635 66.0649 320.499 66.0649Z" fill="#F7F7F7"/>
<path d="M337.088 65.835C337.779 65.835 338.298 65.3175 338.298 64.6275C338.298 63.9375 337.779 63.42 337.088 63.42C336.397 63.42 335.878 63.995 335.878 64.6275C335.878 65.26 336.397 65.835 337.088 65.835Z" fill="#E6E6E6"/>
<path d="M303.91 65.9497C304.601 65.9497 305.235 65.3747 305.235 64.6272C305.235 63.8797 304.659 63.2472 303.91 63.2472C303.161 63.2472 302.528 63.8222 302.528 64.6272C302.585 65.3172 303.161 65.9497 303.91 65.9497Z" fill="#E6E6E6"/>
<path d="M254.029 15.5796C254.547 15.5796 254.835 15.2346 254.835 14.7746C254.835 14.3146 254.49 13.9696 254.029 13.9696C253.568 13.9696 253.222 14.4296 253.222 14.7746C253.222 15.1771 253.626 15.5796 254.029 15.5796Z" fill="#F7F7F7"/>
<path d="M237.498 15.4648C237.958 15.4648 238.304 15.1773 238.304 14.7173C238.304 14.2573 237.958 13.9123 237.498 13.9123C237.037 13.9123 236.749 14.2573 236.749 14.7173C236.749 15.1773 237.037 15.4648 237.498 15.4648Z" fill="#F7F7F7"/>
<path d="M237.498 32.3125C238.016 32.3125 238.534 31.9675 238.534 31.335C238.534 30.8175 238.016 30.3575 237.498 30.3575C236.979 30.3575 236.518 30.875 236.518 31.335C236.461 31.91 236.864 32.3125 237.498 32.3125Z" fill="#F7F7F7"/>
<path d="M220.909 15.6372C221.427 15.6372 221.888 15.2922 221.888 14.6597C221.888 14.1422 221.369 13.6822 220.909 13.6822C220.333 13.6822 219.929 14.1997 219.929 14.6597C219.929 15.2922 220.275 15.6372 220.909 15.6372Z" fill="#D5D5D5"/>
<path d="M204.262 16.2124C205.069 16.2124 205.76 15.5224 205.76 14.7174C205.76 13.9124 205.184 13.2224 204.262 13.2224C203.456 13.2224 202.765 13.9124 202.765 14.7174C202.822 15.5224 203.456 16.2124 204.262 16.2124Z" fill="#F7F7F7"/>
<path d="M187.616 16.5571C188.71 16.5571 189.574 15.7521 189.574 14.7171C189.574 13.6821 188.768 12.8771 187.616 12.8771C186.637 12.8771 185.773 13.6821 185.773 14.7171C185.83 15.6946 186.637 16.5571 187.616 16.5571Z" fill="#F7F7F7"/>
<path d="M187.616 33.29C188.71 33.29 189.689 32.37 189.689 31.2775C189.689 30.185 188.71 29.3225 187.616 29.3225C186.521 29.3225 185.657 30.1275 185.657 31.2775C185.657 32.4275 186.579 33.29 187.616 33.29Z" fill="#F7F7F7"/>
<path d="M168.954 14.6596C168.954 15.8096 169.933 16.7871 171.085 16.7871C172.237 16.7871 173.216 15.8096 173.216 14.6596C173.216 13.4521 172.237 12.5321 171.085 12.5321C169.933 12.5321 168.954 13.4521 168.954 14.6596Z" fill="#F7F7F7"/>
<path d="M171.085 33.8071C172.525 33.8071 173.562 32.7146 173.562 31.3346C173.562 30.0121 172.467 28.9196 171.085 28.9196C169.702 28.9196 168.608 30.0121 168.608 31.3346C168.608 32.7146 169.702 33.8071 171.085 33.8071Z" fill="#F7F7F7"/>
<path d="M154.496 32.3125C155.014 32.3125 155.475 31.8525 155.475 31.335C155.475 30.76 154.957 30.3575 154.496 30.3575C153.92 30.3575 153.459 30.7025 153.459 31.335C153.459 31.8525 153.92 32.3125 154.496 32.3125Z" fill="#F7F7F7"/>
<path d="M154.496 49.7349C155.475 49.7349 156.339 48.9299 156.339 47.8949C156.339 46.8024 155.533 46.0549 154.496 46.0549C153.459 46.0549 152.653 46.8024 152.653 47.8949C152.71 48.9299 153.459 49.7349 154.496 49.7349Z" fill="#F7F7F7"/>
<path d="M154.496 66.8125C155.706 66.8125 156.685 65.7775 156.685 64.57C156.685 63.305 155.706 62.3275 154.496 62.3275C153.286 62.3275 152.25 63.305 152.25 64.57C152.25 65.7775 153.286 66.8125 154.496 66.8125Z" fill="#F7F7F7"/>
<path d="M137.85 15.6372C138.368 15.6372 138.829 15.1772 138.829 14.6597C138.829 14.0847 138.368 13.6822 137.85 13.6822C137.331 13.6822 136.87 14.0272 136.87 14.6597C136.87 15.2347 137.331 15.6372 137.85 15.6372Z" fill="#F7F7F7"/>
<path d="M137.849 33.4624C139.001 33.4624 139.923 32.4849 139.923 31.3924C139.923 30.1849 139.001 29.2649 137.849 29.2649C136.697 29.2649 135.776 30.1849 135.776 31.3924C135.833 32.4849 136.755 33.4624 137.849 33.4624Z" fill="#F7F7F7"/>
<path d="M137.85 51.1724C139.693 51.1724 141.075 49.6774 141.075 47.9524C141.075 46.2274 139.693 44.7324 137.85 44.7324C136.006 44.7324 134.624 46.2274 134.624 47.9524C134.682 49.7349 136.064 51.1724 137.85 51.1724Z" fill="#D5D5D5"/>
<path d="M137.85 67.7324C139.578 67.7324 141.018 66.3524 141.018 64.5699C141.018 62.8449 139.52 61.4074 137.85 61.4074C136.122 61.4074 134.682 62.9024 134.682 64.5699C134.739 66.2949 136.179 67.7324 137.85 67.7324Z" fill="#F7F7F7"/>
<path d="M121.261 16.04C122.01 16.04 122.586 15.465 122.586 14.7175C122.586 13.97 122.01 13.395 121.261 13.395C120.512 13.395 119.936 13.97 119.936 14.7175C119.936 15.4075 120.512 16.04 121.261 16.04Z" fill="#F7F7F7"/>
<path d="M121.261 33.98C122.758 33.98 123.91 32.83 123.91 31.3925C123.91 29.8975 122.701 28.7475 121.261 28.7475C119.763 28.7475 118.669 29.8975 118.669 31.3925C118.611 32.7725 119.821 33.98 121.261 33.98Z" fill="#E6E6E6"/>
<path d="M121.203 51.1724C123.046 51.1724 124.486 49.6774 124.486 47.9524C124.486 46.2274 122.989 44.7324 121.203 44.7324C119.418 44.7324 118.035 46.2274 118.035 47.9524C118.035 49.6774 119.475 51.1724 121.203 51.1724Z" fill="#F7F7F7"/>
<path d="M121.261 66.6396C122.413 66.6396 123.277 65.7771 123.277 64.6271C123.277 63.4771 122.413 62.6146 121.261 62.6146C120.166 62.6146 119.245 63.5346 119.245 64.6271C119.187 65.7196 120.224 66.6396 121.261 66.6396Z" fill="#E6E6E6"/>
<path d="M104.672 32.6572C105.421 32.6572 105.997 32.0822 105.997 31.3347C105.997 30.5872 105.421 30.0122 104.672 30.0122C103.923 30.0122 103.347 30.5872 103.347 31.3347C103.347 32.0822 103.923 32.6572 104.672 32.6572Z" fill="#F7F7F7"/>
<path d="M104.672 45.4225C103.174 45.4225 102.138 46.5725 102.138 48.01C102.138 49.3325 103.232 50.54 104.672 50.54C106.054 50.54 107.264 49.3325 107.264 48.01C107.264 46.515 106.054 45.4225 104.672 45.4225Z" fill="#E6E6E6"/>
<path d="M104.672 68.3071C106.746 68.3071 108.358 66.5821 108.358 64.5696C108.358 62.4996 106.746 60.8896 104.672 60.8896C102.598 60.8896 100.928 62.4996 100.928 64.5696C100.928 66.5821 102.598 68.3071 104.672 68.3071Z" fill="#F7F7F7"/>
<path d="M88.0256 49.3896C88.832 49.3896 89.4656 48.6996 89.4656 48.0096C89.4656 47.2046 88.8896 46.5146 88.0256 46.5146C87.2192 46.5146 86.5856 47.2046 86.5856 48.0096C86.6432 48.6996 87.2768 49.3896 88.0256 49.3896Z" fill="white"/>
<path d="M171.027 51.2871C172.87 51.2871 174.368 49.7921 174.368 48.0096C174.368 46.1696 172.87 44.6746 171.027 44.6746C169.184 44.6746 167.744 46.1696 167.744 48.0096C167.744 49.7921 169.242 51.2871 171.027 51.2871Z" fill="#E6E6E6"/>
<path d="M71.4943 34.6123C73.3375 34.6123 74.7776 33.1173 74.7776 31.3348C74.7776 29.4948 73.2799 27.9998 71.4943 27.9998C69.6511 27.9998 68.0959 29.4948 68.0959 31.3348C68.0959 33.1748 69.6511 34.6123 71.4943 34.6123Z" fill="white"/>
<path d="M71.4367 50.6548C72.9343 50.6548 74.0863 49.4473 74.0863 48.0098C74.0863 46.5148 72.8767 45.3648 71.4367 45.3648C69.9391 45.3648 68.7295 46.5148 68.7295 48.0098C68.7295 49.3898 69.9967 50.6548 71.4367 50.6548Z" fill="white"/>
<path d="M68.5568 64.5698C68.5568 66.1798 69.8816 67.4448 71.4944 67.4448C73.0496 67.4448 74.3744 66.1798 74.3744 64.5698C74.3744 63.0173 73.0496 61.6948 71.4944 61.6948C69.824 61.6373 68.5568 62.9598 68.5568 64.5698Z" fill="white"/>
<path d="M54.7904 33.52C56.0576 33.52 57.0368 32.5425 57.0368 31.335C57.0368 30.1275 56.0576 29.0925 54.7904 29.0925C53.5808 29.0925 52.6016 30.1275 52.6016 31.335C52.6016 32.5425 53.5808 33.52 54.7904 33.52Z" fill="#D5D5D5"/>
<path d="M54.7903 52.0347C57.0367 52.0347 58.8799 50.1947 58.8799 48.0097C58.8799 45.7097 57.0367 43.8697 54.7903 43.8697C52.6015 43.8697 50.7583 45.7097 50.7583 48.0097C50.7583 50.1947 52.6015 52.0347 54.7903 52.0347Z" fill="#E6E6E6"/>
<path d="M54.7904 61.9823C53.3504 61.9823 52.1984 63.1323 52.1984 64.6273C52.1984 66.1223 53.3504 67.2148 54.7904 67.2148C56.288 67.2148 57.44 66.0648 57.44 64.6273C57.44 63.1898 56.288 61.9823 54.7904 61.9823Z" fill="#D5D5D5"/>
<path d="M38.2015 33.52C39.4111 33.52 40.4479 32.5425 40.4479 31.335C40.4479 30.1275 39.4111 29.0925 38.2015 29.0925C36.9919 29.0925 35.9551 30.1275 35.9551 31.335C36.0127 32.5425 37.0495 33.52 38.2015 33.52Z" fill="white"/>
<path d="M38.2591 51.2871C40.1023 51.2871 41.5423 49.7921 41.5423 48.0096C41.5423 46.1696 40.0447 44.6746 38.2591 44.6746C36.4159 44.6746 34.9183 46.1696 34.9183 48.0096C34.9183 49.7921 36.4735 51.2871 38.2591 51.2871Z" fill="white"/>
<path d="M35.4944 64.6271C35.4944 66.1221 36.704 67.3296 38.2016 67.3296C39.6992 67.3296 40.9088 66.1221 40.9088 64.6271C40.9088 63.1321 39.6992 61.8671 38.2016 61.8671C36.704 61.8671 35.4944 63.0746 35.4944 64.6271Z" fill="#F7F7F7"/>
<path d="M21.6128 16.9023C22.88 16.9023 23.8591 15.9248 23.8591 14.7173C23.8591 13.5098 22.88 12.4748 21.6128 12.4748C20.4032 12.4748 19.424 13.5098 19.424 14.7173C19.424 15.9248 20.4032 16.9023 21.6128 16.9023Z" fill="#F7F7F7"/>
<path d="M18.3296 31.3348C18.3296 33.1748 19.8272 34.6123 21.6128 34.6123C23.456 34.6123 24.9536 33.1173 24.9536 31.3348C24.9536 29.4948 23.456 27.9998 21.6128 27.9998C19.7696 27.9998 18.3296 29.4948 18.3296 31.3348Z" fill="#F7F7F7"/>
<path d="M21.6128 50.4248C22.9952 50.4248 24.0896 49.3323 24.0896 47.9523C24.0896 46.5723 22.9376 45.4798 21.6128 45.4798C20.2304 45.4798 19.136 46.6298 19.136 47.9523C19.1936 49.3898 20.2304 50.4248 21.6128 50.4248Z" fill="#D5D5D5"/>
<path d="M24.6079 64.5696C24.6079 62.9596 23.2832 61.5796 21.6128 61.5796C19.9424 61.5796 18.6176 62.9596 18.6176 64.5696C18.6176 66.2371 19.9424 67.5596 21.6128 67.5596C23.2832 67.5596 24.6079 66.2946 24.6079 64.5696Z" fill="#E6E6E6"/>
<path d="M5.02399 10.7497C2.89279 10.7497 1.16479 12.5322 1.16479 14.6597C1.16479 16.7297 2.95039 18.5122 5.02399 18.5122C7.09759 18.5122 8.88319 16.6722 8.88319 14.6597C8.94079 12.5322 7.15519 10.7497 5.02399 10.7497Z" fill="#D5D5D5"/>
<path d="M5.0239 28.7472C3.5839 28.7472 2.4895 29.8972 2.4895 31.3347C2.4895 32.7722 3.6415 33.8647 5.0239 33.8647C6.4639 33.8647 7.55829 32.7147 7.55829 31.3347C7.61589 29.8972 6.4639 28.7472 5.0239 28.7472Z" fill="#E6E6E6"/>
<path d="M7.90392 47.9521C7.90392 46.3996 6.57912 45.0771 5.02392 45.0771C3.41112 45.0771 2.14392 46.3996 2.14392 47.9521C2.14392 49.5621 3.41112 50.8271 5.02392 50.8271C6.57912 50.8271 7.90392 49.5621 7.90392 47.9521Z" fill="#E6E6E6"/>
<path d="M8.59519 64.5696C8.59519 62.6146 7.04 61.0621 5.0816 61.0621C3.1232 61.0621 1.56799 62.6146 1.56799 64.5696C1.56799 66.5246 3.1232 68.0771 5.0816 68.0771C6.9824 68.0771 8.59519 66.5246 8.59519 64.5696Z" fill="#E6E6E6"/>
</g>
<defs>
<clipPath id="clip0_2228_14959">
<rect width="115" height="432" fill="white" transform="matrix(0 -1 1 0 -88 74)"/>
</clipPath>
</defs>
</svg>
