<svg width="336" height="86" viewBox="0 0 336 86" fill="none" xmlns="http://www.w3.org/2000/svg">
<path d="M192.199 80.0665C192.199 82.5332 194.199 84.5332 196.599 84.5332C198.999 84.5332 201.066 82.4665 201.066 80.0665C201.066 77.5999 198.999 75.6665 196.599 75.6665C194.199 75.5999 192.199 77.5999 192.199 80.0665Z" fill="#E6E6E6"/>
<path d="M211.531 80.0661C211.531 82.4661 213.465 84.3994 215.865 84.3994C218.265 84.3994 220.198 82.4661 220.198 80.0661C220.198 77.6661 218.265 75.7327 215.865 75.7327C213.531 75.7327 211.531 77.6661 211.531 80.0661Z" fill="#E6E6E6"/>
<path d="M218.265 60.8666C218.265 59.5333 217.198 58.3999 215.865 58.3999C214.532 58.3999 213.398 59.4666 213.398 60.8666C213.398 62.1999 214.465 63.2666 215.865 63.2666C217.198 63.1999 218.265 62.1333 218.265 60.8666Z" fill="#F7F7F7"/>
<path d="M230.133 80.1333C230.133 82.8 232.333 85 234.999 85C237.666 85 239.933 82.8 239.933 80.1333C239.933 77.4 237.733 75.2 234.999 75.2C232.333 75.1333 230.133 77.4 230.133 80.1333Z" fill="#E6E6E6"/>
<path d="M230.867 60.8C230.867 63.1333 232.667 65 235.001 65C237.334 65 239.134 63.1333 239.134 60.8C239.134 58.5333 237.334 56.6667 235.001 56.6667C232.667 56.6667 230.867 58.5333 230.867 60.8Z" fill="#E6E6E6"/>
<path d="M237.531 41.5333C237.531 40.2 236.464 39.0667 235.064 39.0667C233.731 39.0667 232.598 40.1333 232.598 41.5333C232.598 42.8667 233.731 44 235.064 44C236.464 44 237.531 42.8667 237.531 41.5333Z" fill="#F7F7F7"/>
<path d="M249.531 80.1329C249.531 82.7329 251.665 84.8662 254.331 84.8662C256.931 84.8662 259.065 82.7329 259.065 80.1329C259.065 77.5329 256.931 75.3329 254.331 75.3329C251.665 75.3329 249.531 77.4662 249.531 80.1329Z" fill="#F7F7F7"/>
<path d="M250.266 60.7998C250.266 62.9998 252.066 64.7998 254.332 64.7998C256.599 64.7998 258.332 63.0665 258.332 60.7998C258.332 58.6665 256.532 56.7998 254.332 56.7998C252.066 56.7998 250.266 58.5998 250.266 60.7998Z" fill="#E6E6E6"/>
<path d="M254.267 44C255.601 44 256.734 42.8667 256.734 41.5333C256.734 40.1333 255.601 39.0667 254.267 39.0667C252.867 39.0667 251.801 40.1333 251.801 41.5333C251.801 42.8667 252.867 44 254.267 44Z" fill="#E6E6E6"/>
<path d="M269.734 80.0665C269.734 82.1998 271.401 83.7998 273.401 83.7998C275.468 83.7998 277.134 82.0665 277.134 80.0665C277.134 78.0665 275.468 76.3331 273.468 76.3331C271.401 76.3331 269.734 77.9998 269.734 80.0665Z" fill="#D5D5D5"/>
<path d="M273.533 65.1328C275.933 65.1328 277.933 63.2661 277.933 60.7995C277.933 58.3995 275.933 56.3995 273.533 56.3995C271.133 56.3995 269.199 58.3995 269.199 60.7995C269.199 63.1995 271.066 65.1328 273.533 65.1328Z" fill="#F7F7F7"/>
<path d="M297.4 80.0665C297.4 77.5331 295.267 75.3331 292.667 75.3331C290.067 75.3331 287.934 77.4665 287.934 80.0665C287.934 82.6665 290 84.7998 292.667 84.7998C295.334 84.7331 297.4 82.6665 297.4 80.0665Z" fill="#E6E6E6"/>
<path d="M292.731 63.8662C294.464 63.8662 295.731 62.5329 295.731 60.7995C295.731 59.0662 294.397 57.7995 292.731 57.7995C290.997 57.7995 289.664 59.1329 289.664 60.7995C289.664 62.4662 291.064 63.8662 292.731 63.8662Z" fill="#D5D5D5"/>
<path d="M292.733 45.1328C294.733 45.1328 296.333 43.3995 296.333 41.4661C296.333 39.3995 294.733 37.7995 292.733 37.7995C290.666 37.7995 289.066 39.3995 289.066 41.4661C289.066 43.5328 290.733 45.1328 292.733 45.1328Z" fill="#F7F7F7"/>
<path d="M306.934 80.0664C306.934 82.7997 309.134 85.0664 311.867 85.0664C314.6 85.0664 316.8 82.7997 316.8 80.0664C316.8 77.3331 314.6 75.1331 311.867 75.1331C309.2 75.1331 306.934 77.3331 306.934 80.0664Z" fill="#E6E6E6"/>
<path d="M311.933 63.5996C313.466 63.5996 314.8 62.3329 314.8 60.7329C314.8 59.1996 313.533 57.8663 311.933 57.8663C310.333 57.8663 309.066 59.1329 309.066 60.7329C309.133 62.3996 310.4 63.5996 311.933 63.5996Z" fill="#F7F7F7"/>
<path d="M311.932 44.1992C313.399 44.1992 314.599 42.9992 314.599 41.5326C314.599 40.0659 313.399 38.8659 311.932 38.8659C310.466 38.8659 309.266 40.0659 309.266 41.5326C309.266 42.9992 310.399 44.1992 311.932 44.1992Z" fill="#F7F7F7"/>
<path d="M327.066 80.0661C327.066 82.3328 328.866 84.1328 331.133 84.1328C333.4 84.1328 335.2 82.3328 335.2 80.0661C335.2 77.7995 333.4 75.9995 331.133 75.9995C328.866 75.9995 327.066 77.8661 327.066 80.0661Z" fill="#D5D5D5"/>
<path d="M331.201 58.4661C329.867 58.4661 328.867 59.5328 328.867 60.7995C328.867 62.1328 329.934 63.1328 331.201 63.1328C332.534 63.1328 333.534 62.0661 333.534 60.7995C333.467 59.5328 332.467 58.4661 331.201 58.4661Z" fill="#E6E6E6"/>
<path d="M331.199 43.7334C332.399 43.7334 333.333 42.8001 333.333 41.6001C333.333 40.3334 332.399 39.3334 331.199 39.3334C329.933 39.3334 328.933 40.2667 328.933 41.6001C328.866 42.8001 329.933 43.7334 331.199 43.7334Z" fill="#F7F7F7"/>
<path d="M292.668 23.2666C293.268 23.2666 293.601 22.8666 293.601 22.3333C293.601 21.7999 293.201 21.3999 292.668 21.3999C292.134 21.3999 291.734 21.9333 291.734 22.3333C291.734 22.7999 292.201 23.2666 292.668 23.2666Z" fill="#F7F7F7"/>
<path d="M273.531 23.1328C274.064 23.1328 274.464 22.7995 274.464 22.2661C274.464 21.7328 274.064 21.3328 273.531 21.3328C272.997 21.3328 272.664 21.7328 272.664 22.2661C272.664 22.7995 272.997 23.1328 273.531 23.1328Z" fill="#F7F7F7"/>
<path d="M273.534 42.666C274.134 42.666 274.734 42.266 274.734 41.5327C274.734 40.9327 274.134 40.3993 273.534 40.3993C272.934 40.3993 272.401 40.9994 272.401 41.5327C272.334 42.1994 272.801 42.666 273.534 42.666Z" fill="#F7F7F7"/>
<path d="M254.333 3.66602C254.933 3.66602 255.466 3.13268 255.466 2.53268C255.466 1.93268 254.866 1.33268 254.333 1.33268C253.666 1.33268 253.199 1.93268 253.199 2.53268C253.199 3.19935 253.599 3.66602 254.333 3.66602Z" fill="#F7F7F7"/>
<path d="M254.333 23.333C254.933 23.333 255.466 22.933 255.466 22.1997C255.466 21.5997 254.866 21.0663 254.333 21.0663C253.666 21.0663 253.199 21.6663 253.199 22.1997C253.199 22.933 253.599 23.333 254.333 23.333Z" fill="#D5D5D5"/>
<path d="M235.067 3.7334C235.734 3.7334 236.334 3.1334 236.334 2.5334C236.334 1.86673 235.734 1.26672 235.067 1.26672C234.401 1.26672 233.801 1.86673 233.801 2.5334C233.867 3.20006 234.401 3.7334 235.067 3.7334Z" fill="#D5D5D5"/>
<path d="M235.065 24C235.999 24 236.799 23.2 236.799 22.2667C236.799 21.3333 236.132 20.5333 235.065 20.5333C234.132 20.5333 233.332 21.3333 233.332 22.2667C233.399 23.2 234.132 24 235.065 24Z" fill="#F7F7F7"/>
<path d="M215.797 3.66602C216.464 3.66602 216.997 3.06602 216.997 2.53268C216.997 1.86602 216.464 1.33268 215.797 1.33268C215.197 1.33268 214.664 1.86602 214.664 2.53268C214.664 3.13268 215.264 3.66602 215.797 3.66602Z" fill="#F7F7F7"/>
<path d="M215.797 24.3994C217.064 24.3994 218.064 23.4661 218.064 22.2661C218.064 21.0661 217.131 20.1327 215.797 20.1327C214.664 20.1327 213.664 21.0661 213.664 22.2661C213.731 23.3994 214.664 24.3994 215.797 24.3994Z" fill="#F7F7F7"/>
<path d="M215.798 43.7998C217.065 43.7998 218.198 42.7331 218.198 41.4665C218.198 40.1998 217.065 39.1998 215.798 39.1998C214.531 39.1998 213.531 40.1331 213.531 41.4665C213.531 42.7998 214.598 43.7998 215.798 43.7998Z" fill="#F7F7F7"/>
<path d="M194.199 22.1994C194.199 23.5327 195.333 24.666 196.666 24.666C197.999 24.666 199.133 23.5327 199.133 22.1994C199.133 20.7994 197.999 19.7327 196.666 19.7327C195.333 19.7327 194.199 20.7994 194.199 22.1994Z" fill="#F7F7F7"/>
<path d="M196.667 44.3994C198.334 44.3994 199.534 43.1328 199.534 41.5328C199.534 39.9994 198.267 38.7327 196.667 38.7327C195.067 38.7327 193.801 39.9994 193.801 41.5328C193.801 43.1328 195.067 44.3994 196.667 44.3994Z" fill="#F7F7F7"/>
<path d="M177.466 42.666C178.066 42.666 178.599 42.1327 178.599 41.5327C178.599 40.866 177.999 40.3993 177.466 40.3993C176.799 40.3993 176.266 40.7994 176.266 41.5327C176.266 42.1327 176.799 42.666 177.466 42.666Z" fill="#F7F7F7"/>
<path d="M177.465 62.8662C178.599 62.8662 179.599 61.9329 179.599 60.7329C179.599 59.4662 178.665 58.5995 177.465 58.5995C176.265 58.5995 175.332 59.4662 175.332 60.7329C175.399 61.9329 176.265 62.8662 177.465 62.8662Z" fill="#F7F7F7"/>
<path d="M177.467 82.666C178.867 82.666 180.001 81.466 180.001 80.066C180.001 78.5993 178.867 77.466 177.467 77.466C176.067 77.466 174.867 78.5993 174.867 80.066C174.867 81.466 176.067 82.666 177.467 82.666Z" fill="#F7F7F7"/>
<path d="M158.2 23.333C158.8 23.333 159.333 22.7997 159.333 22.1997C159.333 21.533 158.8 21.0663 158.2 21.0663C157.6 21.0663 157.066 21.4663 157.066 22.1997C157.066 22.8663 157.6 23.333 158.2 23.333Z" fill="#F7F7F7"/>
<path d="M158.201 44C159.534 44 160.601 42.8667 160.601 41.6C160.601 40.2 159.534 39.1333 158.201 39.1333C156.867 39.1333 155.801 40.2 155.801 41.6C155.867 42.8667 156.934 44 158.201 44Z" fill="#F7F7F7"/>
<path d="M158.198 64.5332C160.332 64.5332 161.932 62.7999 161.932 60.7999C161.932 58.7999 160.332 57.0665 158.198 57.0665C156.065 57.0665 154.465 58.7999 154.465 60.7999C154.532 62.8665 156.132 64.5332 158.198 64.5332Z" fill="#D5D5D5"/>
<path d="M158.198 83.7334C160.198 83.7334 161.865 82.1334 161.865 80.0667C161.865 78.0667 160.131 76.4001 158.198 76.4001C156.198 76.4001 154.531 78.1334 154.531 80.0667C154.598 82.0667 156.265 83.7334 158.198 83.7334Z" fill="#F7F7F7"/>
<path d="M138.998 23.7998C139.865 23.7998 140.532 23.1331 140.532 22.2665C140.532 21.3998 139.865 20.7331 138.998 20.7331C138.132 20.7331 137.465 21.3998 137.465 22.2665C137.465 23.0665 138.132 23.7998 138.998 23.7998Z" fill="#F7F7F7"/>
<path d="M138.998 44.5996C140.732 44.5996 142.065 43.2663 142.065 41.5996C142.065 39.8663 140.665 38.5329 138.998 38.5329C137.265 38.5329 135.998 39.8663 135.998 41.5996C135.932 43.1996 137.332 44.5996 138.998 44.5996Z" fill="#E6E6E6"/>
<path d="M138.932 64.5332C141.066 64.5332 142.732 62.7999 142.732 60.7999C142.732 58.7999 140.999 57.0665 138.932 57.0665C136.866 57.0665 135.266 58.7999 135.266 60.7999C135.266 62.7999 136.932 64.5332 138.932 64.5332Z" fill="#F7F7F7"/>
<path d="M139 82.4668C140.333 82.4668 141.333 81.4668 141.333 80.1335C141.333 78.8001 140.333 77.8001 139 77.8001C137.733 77.8001 136.667 78.8668 136.667 80.1335C136.6 81.4001 137.8 82.4668 139 82.4668Z" fill="#E6E6E6"/>
<path d="M119.799 43.0664C120.666 43.0664 121.332 42.3997 121.332 41.5331C121.332 40.6664 120.666 39.9997 119.799 39.9997C118.932 39.9997 118.266 40.6664 118.266 41.5331C118.266 42.3997 118.932 43.0664 119.799 43.0664Z" fill="#F7F7F7"/>
<path d="M119.801 57.8665C118.067 57.8665 116.867 59.1998 116.867 60.8665C116.867 62.3998 118.134 63.7998 119.801 63.7998C121.401 63.7998 122.801 62.3998 122.801 60.8665C122.801 59.1331 121.401 57.8665 119.801 57.8665Z" fill="#E6E6E6"/>
<path d="M119.798 84.3994C122.198 84.3994 124.065 82.3994 124.065 80.0661C124.065 77.6661 122.198 75.7994 119.798 75.7994C117.398 75.7994 115.465 77.6661 115.465 80.0661C115.465 82.3994 117.398 84.3994 119.798 84.3994Z" fill="#F7F7F7"/>
<path d="M100.534 62.4668C101.467 62.4668 102.201 61.6668 102.201 60.8668C102.201 59.9335 101.534 59.1335 100.534 59.1335C99.6005 59.1335 98.8672 59.9335 98.8672 60.8668C98.9339 61.6668 99.6672 62.4668 100.534 62.4668Z" fill="white"/>
<path d="M100.301 82.668C98.9008 82.668 97.8008 81.468 97.8008 80.268C97.8008 78.868 98.8008 77.668 100.301 77.668C101.701 77.668 102.801 78.868 102.801 80.268C102.701 81.468 101.601 82.668 100.301 82.668Z" fill="white"/>
<path d="M196.601 64.666C198.734 64.666 200.467 62.9327 200.467 60.866C200.467 58.7327 198.734 56.9993 196.601 56.9993C194.467 56.9993 192.801 58.7327 192.801 60.866C192.801 62.9327 194.534 64.666 196.601 64.666Z" fill="#E6E6E6"/>
<path d="M81.3982 45.333C83.5315 45.333 85.1982 43.5997 85.1982 41.533C85.1982 39.3997 83.4648 37.6663 81.3982 37.6663C79.2648 37.6663 77.4648 39.3997 77.4648 41.533C77.4648 43.6663 79.2648 45.333 81.3982 45.333Z" fill="white"/>
<path d="M81.3325 63.9326C83.0659 63.9326 84.3992 62.5326 84.3992 60.8659C84.3992 59.1326 82.9992 57.7993 81.3325 57.7993C79.5992 57.7993 78.1992 59.1326 78.1992 60.8659C78.1992 62.4659 79.6659 63.9326 81.3325 63.9326Z" fill="white"/>
<path d="M78 80.0661C78 81.9327 79.5333 83.3994 81.4 83.3994C83.2 83.3994 84.7333 81.9327 84.7333 80.0661C84.7333 78.2661 83.2 76.7327 81.4 76.7327C79.4667 76.6661 78 78.1994 78 80.0661Z" fill="white"/>
<path d="M62.0646 44.0664C63.5312 44.0664 64.6646 42.9331 64.6646 41.5331C64.6646 40.1331 63.5312 38.9331 62.0646 38.9331C60.6646 38.9331 59.5312 40.1331 59.5312 41.5331C59.5312 42.9331 60.6646 44.0664 62.0646 44.0664Z" fill="#D5D5D5"/>
<path d="M62.0651 65.5332C64.6651 65.5332 66.7984 63.3999 66.7984 60.8665C66.7984 58.1999 64.6651 56.0665 62.0651 56.0665C59.5318 56.0665 57.3984 58.1999 57.3984 60.8665C57.3984 63.3999 59.5318 65.5332 62.0651 65.5332Z" fill="#E6E6E6"/>
<path d="M62.0664 77.0661C60.3997 77.0661 59.0664 78.3995 59.0664 80.1328C59.0664 81.8661 60.3997 83.1328 62.0664 83.1328C63.7997 83.1328 65.1331 81.7995 65.1331 80.1328C65.1331 78.4661 63.7997 77.0661 62.0664 77.0661Z" fill="#D5D5D5"/>
<path d="M42.8656 44.0664C44.2656 44.0664 45.4656 42.9331 45.4656 41.5331C45.4656 40.1331 44.2656 38.9331 42.8656 38.9331C41.4656 38.9331 40.2656 40.1331 40.2656 41.5331C40.3323 42.9331 41.5323 44.0664 42.8656 44.0664Z" fill="white"/>
<path d="M42.9331 64.666C45.0664 64.666 46.7331 62.9327 46.7331 60.866C46.7331 58.7327 44.9997 56.9993 42.9331 56.9993C40.7997 56.9993 39.0664 58.7327 39.0664 60.866C39.0664 62.9327 40.8664 64.666 42.9331 64.666Z" fill="white"/>
<path d="M39.7344 80.1333C39.7344 81.8666 41.1344 83.2666 42.8677 83.2666C44.601 83.2666 46.001 81.8666 46.001 80.1333C46.001 78.3999 44.601 76.9333 42.8677 76.9333C41.1344 76.9333 39.7344 78.3333 39.7344 80.1333Z" fill="#F7F7F7"/>
<path d="M23.6661 24.7998C25.1328 24.7998 26.2661 23.6665 26.2661 22.2665C26.2661 20.8665 25.1328 19.6665 23.6661 19.6665C22.2661 19.6665 21.1328 20.8665 21.1328 22.2665C21.1328 23.6665 22.2661 24.7998 23.6661 24.7998Z" fill="#F7F7F7"/>
<path d="M19.8672 41.533C19.8672 43.6663 21.6005 45.333 23.6672 45.333C25.8005 45.333 27.5339 43.5997 27.5339 41.533C27.5339 39.3997 25.8005 37.6663 23.6672 37.6663C21.5339 37.6663 19.8672 39.3997 19.8672 41.533Z" fill="#F7F7F7"/>
<path d="M23.6674 63.666C25.2675 63.666 26.5341 62.3993 26.5341 60.7993C26.5341 59.1993 25.2008 57.9327 23.6674 57.9327C22.0674 57.9327 20.8008 59.266 20.8008 60.7993C20.8674 62.466 22.0674 63.666 23.6674 63.666Z" fill="#D5D5D5"/>
<path d="M27.1325 80.0665C27.1325 78.1999 25.5992 76.5999 23.6659 76.5999C21.7325 76.5999 20.1992 78.1999 20.1992 80.0665C20.1992 81.9999 21.7325 83.5332 23.6659 83.5332C25.5992 83.5332 27.1325 82.0665 27.1325 80.0665Z" fill="#E6E6E6"/>
<path d="M4.46693 0C3.06693 0 1.93359 1.13334 1.93359 2.53334C1.93359 3.93334 3.06693 5 4.46693 5C5.80026 5 6.93359 3.93334 6.93359 2.53334C7.00026 1.13334 5.86693 0 4.46693 0Z" fill="#F7F7F7"/>
<path d="M4.46666 17.666C2 17.666 0 19.7327 0 22.1994C0 24.5994 2.06666 26.666 4.46666 26.666C6.86666 26.666 8.93333 24.5327 8.93333 22.1994C9 19.7327 6.93333 17.666 4.46666 17.666Z" fill="#D5D5D5"/>
<path d="M4.46458 38.5335C2.79791 38.5335 1.53125 39.8668 1.53125 41.5335C1.53125 43.2001 2.86458 44.4668 4.46458 44.4668C6.13125 44.4668 7.39791 43.1335 7.39791 41.5335C7.46458 39.8668 6.13125 38.5335 4.46458 38.5335Z" fill="#E6E6E6"/>
<path d="M7.79948 60.7995C7.79948 58.9995 6.26615 57.4661 4.46615 57.4661C2.59948 57.4661 1.13281 58.9995 1.13281 60.7995C1.13281 62.6661 2.59948 64.1328 4.46615 64.1328C6.26615 64.1328 7.79948 62.6661 7.79948 60.7995Z" fill="#E6E6E6"/>
<path d="M8.59818 80.0661C8.59818 77.7995 6.79818 75.9995 4.53151 75.9995C2.26485 75.9995 0.464844 77.7995 0.464844 80.0661C0.464844 82.3328 2.26485 84.1328 4.53151 84.1328C6.73151 84.1328 8.59818 82.3328 8.59818 80.0661Z" fill="#E6E6E6"/>
</svg>
