<svg width="170" height="216" viewBox="0 0 170 216" fill="none" xmlns="http://www.w3.org/2000/svg">
<g clip-path="url(#clip0_1401_20597)">
<path d="M39.2769 37.478C39.4268 37.6279 39.4268 37.9277 39.4268 38.2275C39.4268 39.4268 38.5273 40.1764 37.478 40.1764C36.7284 40.1764 35.9788 39.7266 35.5291 38.9771L28.0335 24.1358H17.6896C16.4903 24.1358 15.4409 22.9365 15.7407 21.7372C15.8906 20.8377 16.7901 20.2381 17.8395 20.2381H21.1376H25.7848L19.4885 7.79541L4.04762 38.8272C3.74779 39.5767 2.84832 40.0265 2.09876 40.0265C1.04938 40.0265 0.14991 39.127 0.14991 38.0776C0.14991 37.9277 0.299822 37.6279 0.299822 37.328L17.9894 1.19929C18.2892 0.449735 19.1887 0 20.0882 0C20.8377 0 21.5873 0.449735 22.037 1.19929L39.2769 37.478Z" fill="white"/>
<path d="M66.261 12.8922C66.261 13.192 66.1111 13.4919 66.1111 13.7917L53.6684 38.827C53.3686 39.4266 52.4691 40.0263 51.7196 40.0263C50.97 40.0263 50.2205 39.5765 49.7707 38.827L37.1781 13.7917C37.0282 13.6418 37.0282 13.192 37.0282 12.8922C37.0282 11.6929 37.9277 10.7935 39.127 10.7935C39.8765 10.7935 40.6261 11.2432 41.0758 11.9928L51.7196 33.58L62.5132 11.9928C62.813 11.2432 63.7125 10.7935 64.4621 10.7935C64.7619 10.7935 65.0617 10.9434 65.3615 10.9434C65.8113 11.3931 66.261 12.1427 66.261 12.8922Z" fill="white"/>
<path d="M77.6543 12.8922V38.0774C77.6543 39.1268 77.0547 40.0263 76.0053 40.1762C74.6561 40.476 73.4568 39.5765 73.4568 38.0774V12.8922C73.4568 11.6929 74.3563 10.7935 75.5556 10.7935C76.9048 10.7935 77.6543 11.6929 77.6543 12.8922Z" fill="white"/>
<path d="M115.582 12.8922V24.8852C115.582 28.4831 113.633 33.2802 111.235 35.8287C108.686 38.3772 103.739 40.1762 100.291 40.1762C91.5961 40.1762 84.8501 33.2802 84.8501 24.7353V13.0421C84.8501 11.9928 85.4497 11.0933 86.4991 10.9434C87.8483 10.7935 89.0476 11.6929 89.0476 12.8922V24.4354C89.0476 30.4319 93.3951 35.5289 99.5414 35.8287C106.138 36.2785 111.684 31.1815 111.684 24.5854V12.7423C111.684 11.543 112.584 10.6436 113.783 10.6436C114.683 10.7935 115.582 11.6929 115.582 12.8922Z" fill="white"/>
<path d="M169.85 23.8358V252.901C169.85 254.1 168.951 254.85 167.751 254.85C166.552 254.85 165.802 253.95 165.653 252.901V23.9857C165.653 19.3384 162.205 15.2908 157.407 14.8411C152.16 14.3913 147.513 18.439 147.513 23.8358V42.5748C147.513 43.7741 146.614 44.5236 145.414 44.5236C144.215 44.5236 143.466 43.6241 143.316 42.5748V23.9857C143.316 19.3384 139.868 15.2908 135.071 14.6912C130.123 14.2414 125.476 18.289 125.476 23.6859V37.7776C125.476 38.6771 124.877 39.7264 123.827 39.8764C122.478 40.0263 121.279 39.1268 121.279 37.9275V23.8358C121.279 16.64 127.125 10.7935 134.321 10.7935C136.42 10.7935 139.418 11.6929 141.367 12.7423C142.716 13.6418 144.515 15.2908 145.265 16.64C146.164 15.2908 147.813 13.4919 149.162 12.7423C150.961 11.543 153.959 10.7935 156.208 10.7935C164.004 10.7935 169.85 16.4901 169.85 23.8358Z" fill="white"/>
</g>
<defs>
<clipPath id="clip0_1401_20597">
<rect width="170" height="255" fill="white"/>
</clipPath>
</defs>
</svg>
