<svg width="20" height="20" viewBox="0 0 20 20" fill="none" xmlns="http://www.w3.org/2000/svg">
<path d="M10 16.9667C7.30158 16.9667 4.62081 16.9667 1.92239 16.9667C1.18165 16.9667 0.582006 16.6668 0.264546 15.979C0.158725 15.7321 0.0881787 15.4499 0.0881787 15.1854C0.070542 11.7286 0.070542 8.27179 0.0881787 4.83263C0.0881787 3.77443 0.864193 3.03369 1.94003 3.03369C6.3492 3.03369 10.7584 3.03369 15.1675 3.03369C16.1552 3.03369 17.1252 3.03369 18.1129 3.03369C18.8536 3.03369 19.4356 3.35115 19.7531 4.03898C19.8589 4.2859 19.9294 4.56808 19.9294 4.83263C19.9471 8.27179 19.9471 11.7286 19.9294 15.1677C19.9294 16.2259 19.1711 16.9667 18.0952 16.9667C15.3968 16.9667 12.6984 16.9667 10 16.9667ZM2.09876 4.19771C2.15167 4.25062 2.16931 4.26826 2.18694 4.30353C4.35626 6.47284 6.54321 8.64216 8.73015 10.7938C8.85361 10.9173 8.97707 11.0231 9.11816 11.1113C9.87654 11.5346 10.6702 11.4111 11.3227 10.7762C13.4744 8.64216 15.6261 6.50812 17.7778 4.35644C17.813 4.32117 17.866 4.26826 17.9189 4.19771C12.6279 4.19771 7.37213 4.19771 2.09876 4.19771ZM2.18694 15.785C7.38977 15.785 12.6455 15.785 17.7778 15.785C16.1905 14.1624 14.5503 12.487 12.8924 10.8115C12.6102 11.0937 12.3457 11.3758 12.0811 11.6404C11.1287 12.5575 9.84127 12.7868 8.69488 12.2048C8.37742 12.046 8.11287 11.7991 7.84832 11.5698C7.58377 11.3406 7.33686 11.076 7.07231 10.7938C5.41446 12.487 3.79188 14.1448 2.18694 15.785ZM1.2522 14.9737C2.91005 13.2806 4.55026 11.6051 6.13756 10.0002C4.55026 8.37761 2.91005 6.71976 1.2522 5.04427C1.2522 8.35997 1.2522 11.6404 1.2522 14.9737ZM18.7478 5.02664C17.0899 6.71976 15.4497 8.37761 13.8624 9.98254C15.4497 11.6051 17.0899 13.2806 18.7478 14.9561C18.7478 11.6404 18.7478 8.35997 18.7478 5.02664Z" fill="#929497"/>
</svg>
