<svg width="80" height="25" viewBox="0 0 80 25" fill="none" xmlns="http://www.w3.org/2000/svg">
<g opacity="0.5">
<path d="M3.00005 2.3999H0.0500488V19.8499H3.00005V2.3999Z" fill="#F7F8FA"/>
<path d="M8.95005 12.3999C9.20005 12.1999 9.50005 11.9999 9.80005 11.8999C10.45 11.6999 11 11.6999 11.6 11.8999C11.9 11.9999 12.2 12.1999 12.45 12.3999C12.7 12.5999 12.95 12.8999 13.1 13.1999C13.3 13.4999 13.35 13.8999 13.35 14.2999V19.8499H16.3V14.2999C16.3 13.3499 16.15 12.4999 15.8 11.7999C15.45 11.0999 14.95 10.4999 14.4 10.0499C13.85 9.5999 13.25 9.2499 12.55 8.9999C11.9 8.7999 11.25 8.6499 10.65 8.6499C10.05 8.6499 9.40005 8.7499 8.75005 8.9999C8.10005 9.1999 7.50005 9.5499 6.95005 9.9999C6.40005 10.4499 5.95005 11.0499 5.60005 11.7499C5.25005 12.4499 5.05005 13.2999 5.05005 14.2499V19.7999H8.00005V14.2999C8.00005 13.8999 8.10005 13.4999 8.25005 13.1999C8.45005 12.8999 8.65005 12.5999 8.95005 12.3999Z" fill="#F7F8FA"/>
<path d="M27.55 8.8999L24.25 15.1999C24.1 15.5499 23.6 15.5499 23.45 15.1999L20.15 8.8999H16.65L22.4 19.8499H25.3L31 8.8999H27.55Z" fill="#F7F8FA"/>
<path d="M35.6 8.8999H32.65V19.8499H35.6V8.8999Z" fill="#F7F8FA"/>
<path d="M46.2501 19.8497H49.5501L45.0501 12.2497L48.1001 8.89971H45.0501L41.2001 13.1497V4.44971H38.2001V19.8497H41.2001V16.5997L43.1001 14.4497L46.2501 19.8497Z" fill="#F7F8FA"/>
<path d="M51.8 16.95C52.1 17.65 52.45 18.25 52.9 18.7C53.35 19.15 53.85 19.5 54.45 19.7C55 19.9 55.55 20 56.1 20.05L56.15 17C55.6 16.95 55.15 16.75 54.85 16.35C54.5 15.9 54.3 15.3 54.3 14.45V11.65H56.1V8.9H54.3V5.95C54.3 5.15 53.65 4.5 52.85 4.5C52.05 4.5 51.4 5.15 51.4 5.95V8.9H49.5V11.65H51.35V14.45C51.35 15.4 51.5 16.25 51.8 16.95Z" fill="#F7F8FA"/>
<path d="M60.25 18.6499C60.8 19.0999 61.4 19.4499 62.1 19.6999C62.75 19.8999 63.4 20.0499 64 20.0499C64.6 20.0499 65.25 19.9499 65.9 19.6999C66.55 19.4999 67.15 19.1499 67.7 18.6999C68.25 18.2499 68.7 17.6499 69.05 16.9499C69.4 16.2499 69.6 15.3999 69.6 14.4499V8.8999H66.65V14.4499C66.65 14.8499 66.55 15.2499 66.4 15.5499C66.25 15.8499 66 16.1499 65.75 16.3499C65.5 16.5499 65.2 16.7499 64.9 16.8499C64.25 17.0499 63.7 17.0499 63.1 16.8499C62.8 16.7499 62.5 16.5499 62.25 16.3499C62 16.1499 61.75 15.8499 61.6 15.5499C61.4 15.2499 61.35 14.8499 61.35 14.4499V8.8999H58.4V14.4499C58.4 15.3999 58.55 16.2499 58.9 16.9499C59.25 17.5999 59.7 18.1999 60.25 18.6499Z" fill="#F7F8FA"/>
<path d="M77.3001 19.6999C77.8001 19.5999 78.2001 19.4499 78.6001 19.1999C79.0001 18.9499 79.3001 18.5999 79.5501 18.1499C79.8001 17.6999 79.9501 17.0999 79.9501 16.3499C79.9501 15.8999 79.8001 15.4499 79.5501 15.0999C79.3001 14.7499 78.9501 14.3999 78.5501 14.0999C78.1501 13.7999 77.7001 13.5499 77.2501 13.3499C76.7501 13.1499 76.3001 12.9999 75.9001 12.8499C75.5001 12.6999 75.1501 12.5499 74.9001 12.4499C74.5501 12.2999 74.4001 12.1999 74.4001 11.9999C74.3501 11.7999 74.4501 11.6999 74.6501 11.6499C74.7501 11.5999 74.9501 11.5999 75.2001 11.5999H79.3501L79.4001 8.6499H75.1501C73.9501 8.6499 73.0501 8.9499 72.5001 9.5999C71.9001 10.2499 71.6001 11.0499 71.6001 11.9999C71.6001 12.4999 71.7501 12.8999 72.0001 13.2999C72.2501 13.6499 72.6001 13.9999 73.0001 14.2999C73.4001 14.5999 73.8501 14.8499 74.3501 15.0499C74.8501 15.2499 75.3001 15.4499 75.7001 15.5999C76.1001 15.7499 76.4501 15.8999 76.7501 15.9999C77.1001 16.1499 77.2501 16.2999 77.2501 16.4499C77.3001 16.5999 77.2001 16.7499 77.0501 16.8499C76.9001 16.9499 76.7001 16.9499 76.3501 16.9499H71.6001V19.7999H76.0001C76.3501 19.8499 76.8001 19.7999 77.3001 19.6999Z" fill="#F7F8FA"/>
<path d="M26.6001 3.0499L24.2501 7.5499C24.1001 7.8499 23.6001 7.8499 23.4501 7.5499L21.1001 3.0499C20.9501 2.7499 21.1501 2.3999 21.5001 2.3999H26.2501C26.5501 2.3999 26.7501 2.7499 26.6001 3.0499Z" fill="#F5F5F5"/>
</g>
</svg>
