<svg width="141" height="141" viewBox="0 0 141 141" fill="none" xmlns="http://www.w3.org/2000/svg">
<g clip-path="url(#clip0_1870_74004)">
<path fill-rule="evenodd" clip-rule="evenodd" d="M33.4804 87.1292V35.2259H38.7143V92.4713H29.1193L15.0526 42.3134L14.6167 42.2044V92.581H9.38281V35.4439H19.1965L33.4804 87.1292ZM40.4596 64.0125C40.4596 47.6562 53.7626 34.354 70.1181 34.354C86.475 34.354 99.7773 47.657 99.7773 64.0125C99.7773 80.3687 86.4743 93.6716 70.1181 93.6716C53.7626 93.6716 40.4596 80.3687 40.4596 64.0125ZM94.8697 78.2971C97.2682 74.1524 98.7956 69.1373 98.7956 64.0125C98.7956 58.9966 97.487 54.3077 95.3064 50.1645L91.4887 52.5631C87.4552 44.93 79.3861 39.6961 70.1174 39.6961C56.7061 39.6961 45.8017 50.6005 45.8017 64.0125C45.8017 77.4244 56.7061 88.3281 70.1174 88.3281C79.2764 88.3281 87.2373 83.2032 91.3804 75.6798L94.8697 78.2971Z" fill="black"/>
<path fill-rule="evenodd" clip-rule="evenodd" d="M115.588 34.7891C123.768 34.7891 130.309 41.4405 130.309 49.8366H125.076C125.076 45.8017 122.021 40.1319 115.261 40.1319C108.61 40.1319 106.102 46.6744 106.102 49.3999C106.102 54.1978 108.611 58.123 114.171 59.1047C122.349 60.5223 131.946 63.9026 131.946 76.5508C131.946 89.3088 119.842 93.0168 115.807 93.0168C109.483 93.0168 98.9062 88.1106 98.9062 76.4426H104.25C104.25 80.1498 107.522 87.3462 115.589 87.3462C123.55 87.3462 126.385 80.3685 126.385 76.7695C126.385 67.9375 120.17 65.3209 113.628 64.2303C105.994 63.0306 100.87 57.6878 100.87 49.2917C100.868 40.8956 107.956 34.7891 115.588 34.7891Z" fill="black"/>
<path fill-rule="evenodd" clip-rule="evenodd" d="M6.2207 64.7752V64.0122H134.779V64.7752H6.2207Z" fill="black"/>
<path fill-rule="evenodd" clip-rule="evenodd" d="M69.682 96.1784V31.627H70.445V96.1784H69.682ZM58.3417 42.0946H57.578L57.4697 86.6924H58.3417V42.0946Z" fill="black"/>
<path fill-rule="evenodd" clip-rule="evenodd" d="M77.8593 51.4722L77.2053 50.9272L56.5977 86.9102L57.2516 87.3462L77.8593 51.4722Z" fill="black"/>
<path fill-rule="evenodd" clip-rule="evenodd" d="M57.7965 41.7686L57.1426 42.3135L76.988 77.3155L77.6427 76.7698L57.7965 41.7686Z" fill="black"/>
<path fill-rule="evenodd" clip-rule="evenodd" d="M58.2328 42.5312L57.7969 42.9672L94.5428 64.5573L95.3072 64.3393L58.2328 42.5312Z" fill="black"/>
<path fill-rule="evenodd" clip-rule="evenodd" d="M94.9798 64.4482L94.2168 64.0122L55.9428 86.2562L56.4878 86.9102L94.9798 64.4482ZM14.6163 97.8146H15.816V106.756H14.3983L9.92744 99.5592V106.756H8.72852V97.8146H10.1454L14.6163 105.011V97.8146ZM17.0149 102.176C17.0149 100.651 18.1055 100.105 19.6322 100.105C20.1771 100.105 22.0307 100.213 22.0307 101.85V105.557C22.0307 105.884 22.1397 105.993 22.3577 105.993C22.4667 105.993 22.5757 105.993 22.7937 105.884V106.757C22.5757 106.757 22.3577 106.865 22.1397 106.865C21.1581 106.865 21.0491 106.32 21.0491 105.884C20.6131 106.32 19.9592 106.865 18.6505 106.865C17.4509 106.865 16.6872 106.102 16.6872 105.011C16.6872 104.467 16.7962 103.266 18.6505 103.049L20.3951 102.83C20.6131 102.722 20.9401 102.722 20.9401 102.067C20.9401 101.305 20.5041 100.978 19.4142 100.978C18.2145 100.978 18.1055 101.741 17.9966 102.176H17.0149ZM20.9401 103.376C20.7221 103.593 20.5041 103.703 19.1955 103.812C18.6505 103.92 17.7778 104.029 17.7778 104.902C17.7778 105.557 18.1048 105.992 18.9775 105.992C19.9592 105.992 20.9401 105.337 20.9401 104.466V103.376ZM24.648 101.195V105.338C24.648 105.884 25.0847 105.884 25.3027 105.884H25.7394V106.756H24.8668C23.8858 106.756 23.6671 106.211 23.6671 105.448V101.195H22.6854V100.324H23.6671V98.4693H24.648V100.324H25.7387V101.195H24.648ZM30.9725 106.756V105.775C30.5366 106.538 29.9916 106.865 28.9009 106.865C28.0283 106.865 26.8286 106.429 26.8286 104.901V100.322H27.9193V104.574C27.9193 105.555 28.4642 105.991 29.2279 105.991C30.5366 105.991 30.9725 104.792 30.9725 103.811V100.322H32.0632V106.756L30.9725 106.756ZM34.8977 106.756H33.8071V100.323H34.8977V101.305C35.3337 100.54 35.8787 100.104 36.6424 100.104H36.9693V101.194H36.5334C35.5517 101.194 34.8977 102.067 34.8977 102.939V106.756ZM37.515 102.176C37.515 100.651 38.6057 100.105 40.1323 100.105C40.678 100.105 42.5309 100.213 42.5309 101.85V105.557C42.5309 105.884 42.7489 105.993 42.9669 105.993C42.9669 105.993 43.1848 105.993 43.2938 105.884V106.757C43.0759 106.757 42.9669 106.865 42.6391 106.865C41.7672 106.865 41.5492 106.32 41.5492 105.884C41.1125 106.32 40.4586 106.865 39.2589 106.865C38.06 106.865 37.1873 106.102 37.1873 105.011C37.1873 104.467 37.4053 103.266 39.1507 103.049L40.8953 102.83C41.2222 102.722 41.55 102.722 41.55 102.067C41.55 101.305 41.0043 100.978 40.0233 100.978C38.7147 100.978 38.6057 101.741 38.4967 102.176H37.515ZM41.4402 103.376C41.3312 103.593 41.0043 103.703 39.6956 103.812C39.1507 103.92 38.278 104.029 38.278 104.902C38.278 105.557 38.7139 105.992 39.4769 105.992C40.4586 105.992 41.4395 105.337 41.4395 104.466L41.4402 103.376ZM44.4935 106.756V97.8146H45.5841V106.756H44.4935ZM55.9428 100.54C55.6159 99.0142 54.3072 98.6873 53.4353 98.6873C51.7997 98.6873 50.6 99.8862 50.6 102.176C50.6 104.248 51.2547 105.884 53.4353 105.884C54.3072 105.884 55.6159 105.557 56.0518 103.485H57.1425C56.7065 106.757 53.9802 106.974 53.3263 106.974C51.254 106.974 49.2914 105.666 49.2914 102.285C49.2914 99.5592 50.927 97.5981 53.4353 97.5981C55.7249 97.5981 56.9245 99.0157 57.0335 100.541L55.9428 100.54ZM61.1767 100.105C63.1393 100.105 64.121 101.849 64.121 103.485C64.121 105.121 63.1393 106.865 61.1767 106.865C59.1051 106.865 58.1242 105.121 58.1242 103.485C58.1242 101.849 59.1051 100.105 61.1767 100.105ZM61.1767 105.992C62.7033 105.992 63.0303 104.358 63.0303 103.484C63.0303 102.611 62.7033 100.977 61.1767 100.977C59.5411 100.977 59.2141 102.611 59.2141 103.484C59.2141 104.358 59.5411 105.992 61.1767 105.992ZM65.4296 106.756V97.8146H66.5195V106.756H65.4296ZM70.4447 100.105C72.5171 100.105 73.4973 101.849 73.4973 103.485C73.4973 105.121 72.5171 106.865 70.4447 106.865C68.4821 106.865 67.5012 105.121 67.5012 103.485C67.5012 101.849 68.4821 100.105 70.4447 100.105ZM70.4447 105.992C72.0803 105.992 72.4073 104.358 72.4073 103.484C72.4073 102.611 72.0803 100.977 70.4447 100.977C68.9181 100.977 68.5911 102.611 68.5911 103.484C68.5911 104.358 68.9181 105.992 70.4447 105.992ZM75.6793 106.756H74.5894V100.323H75.6793V101.305C76.1153 100.54 76.661 100.104 77.5322 100.104H77.7509V101.194H77.3149C76.3333 101.194 75.6793 102.067 75.6793 102.939V106.756ZM85.929 100.432C85.929 99.1232 84.7301 98.6873 83.7492 98.6873C82.9847 98.6873 81.7858 98.906 81.7858 100.213C81.7858 100.978 82.2218 101.195 82.7675 101.305L85.2751 101.958C86.4754 102.176 87.3466 102.83 87.3466 104.248C87.3466 106.429 85.3833 106.974 83.8574 106.974C82.2218 106.974 81.5671 106.43 81.1311 106.103C80.4764 105.448 80.2585 104.686 80.2585 103.813H81.4588C81.4588 105.448 82.6578 105.884 83.8574 105.884C84.7301 105.884 86.1477 105.666 86.1477 104.467C86.1477 103.485 85.7103 103.266 84.2934 102.831L82.4405 102.504C81.8948 102.285 80.5862 101.958 80.5862 100.324C80.5862 99.0157 81.4588 97.5981 83.6394 97.5981C86.6927 97.5981 87.0197 99.4509 87.0197 100.433H85.929V100.432ZM92.7977 100.323H93.8891C93.2344 102.394 92.4708 104.466 91.5988 106.647C90.6172 109.264 90.5089 109.373 89.0898 109.373C88.9815 109.373 88.8725 109.265 88.6538 109.265V108.283C88.7621 108.283 88.9808 108.391 89.3085 108.391C89.8542 108.391 89.9632 108.174 90.3984 106.865L88.1096 100.324H89.3085L91.0531 105.557L92.7977 100.323ZM98.2496 102.067C98.2496 101.741 98.1413 100.978 96.7237 100.978C96.3967 100.978 95.5233 101.086 95.5233 101.958C95.5233 102.503 95.8503 102.612 96.6147 102.83L97.7046 103.049C99.1222 103.376 99.5575 103.92 99.5575 104.794C99.5575 106.102 98.4676 106.865 97.0499 106.865C94.4326 106.865 94.3236 105.448 94.2154 104.686H95.3053C95.3053 105.121 95.4136 105.993 96.9395 105.993C97.8121 105.993 98.4668 105.666 98.4668 104.903C98.4668 104.467 98.1399 104.248 97.1582 104.03L95.9593 103.705C95.0866 103.486 94.4319 103.05 94.4319 102.177C94.4319 100.76 95.6323 100.106 96.8305 100.106C99.229 100.106 99.3395 101.741 99.3395 102.069H98.2496V102.067ZM102.176 101.195V105.338C102.176 105.884 102.612 105.884 102.831 105.884H103.158V106.756H102.395C101.304 106.756 101.086 106.211 101.086 105.448V101.195H100.214V100.324H101.086V98.4693H102.176V100.324H103.158V101.195H102.176ZM109.7 104.685C109.7 105.01 109.373 105.884 108.61 106.429C108.283 106.647 107.847 106.865 106.865 106.865C105.011 106.865 103.921 105.557 103.921 103.704C103.921 101.631 104.903 100.105 107.082 100.105C108.937 100.105 109.809 101.523 109.809 103.812H105.121C105.121 105.23 105.776 105.992 106.974 105.992C108.064 105.992 108.61 105.229 108.61 104.685H109.7ZM108.718 102.939C108.61 101.958 108.282 101.087 106.865 101.087C105.883 101.087 105.121 101.958 105.121 102.939H108.718ZM110.899 100.323H111.881V101.194C112.208 100.867 112.752 100.104 113.843 100.104C115.043 100.104 115.37 100.759 115.587 101.086C116.133 100.54 116.569 100.104 117.551 100.104C118.205 100.104 119.514 100.431 119.514 102.284V106.756H118.424V102.503C118.424 101.63 118.205 101.085 117.224 101.085C116.353 101.085 115.806 101.956 115.806 102.83V106.756H114.716V102.284C114.716 101.74 114.498 101.085 113.626 101.085C113.081 101.085 111.991 101.412 111.991 103.157V106.756H110.901V100.323H110.899ZM120.93 101.958C120.93 99.1232 123.329 97.0516 126.055 97.0516C128.672 97.0516 131.071 99.1232 131.071 101.958C131.071 104.902 128.672 106.974 126.055 106.974C123.33 106.974 120.93 104.902 120.93 101.958ZM126.055 106.102C128.236 106.102 129.981 104.358 129.981 101.958C129.981 99.6689 128.236 97.9243 126.055 97.9243C123.766 97.9243 122.02 99.6689 122.02 101.958C122.021 104.358 123.766 106.102 126.055 106.102ZM124.965 104.902H124.094V99.1232H126.274C127.583 99.1232 128.345 99.6689 128.345 100.759C128.345 101.849 127.691 102.285 126.82 102.394L128.454 104.902H127.474L125.946 102.394H124.964L124.965 104.902ZM126.055 101.631C126.71 101.631 127.364 101.631 127.364 100.76C127.364 99.9966 126.709 99.8869 126.165 99.8869H124.964V101.632L126.055 101.631Z" fill="black"/>
</g>
<defs>
<clipPath id="clip0_1870_74004">
<rect width="141" height="141" fill="white"/>
</clipPath>
</defs>
</svg>
