<svg width="192" height="66" viewBox="0 0 192 66" fill="none" xmlns="http://www.w3.org/2000/svg">
<path d="M31.8855 52.1956H24.2047C24.4804 52.9714 24.981 53.6474 25.6426 54.1373C26.4711 54.719 27.4817 54.982 28.4886 54.8782C29.4956 54.7743 30.4312 54.3105 31.1236 53.572H34.2573C33.7562 54.7752 32.8984 55.796 31.7995 56.4969C30.8518 57.1093 29.7698 57.483 28.6462 57.5857C27.5225 57.6884 26.3906 57.5172 25.3476 57.0868C24.5452 56.7388 23.8155 56.2427 23.197 55.6243C22.2549 54.6755 21.6136 53.4698 21.3535 52.1582C21.0934 50.8466 21.2259 49.4874 21.7346 48.2508C22.079 47.4391 22.5754 46.7008 23.197 46.0756C23.8186 45.461 24.5475 44.9653 25.3476 44.6131C26.1871 44.2646 27.087 44.0852 27.996 44.0852C28.9049 44.0852 29.8049 44.2646 30.6443 44.6131C31.4481 44.9652 32.181 45.4608 32.8072 46.0756C33.4288 46.7008 33.9252 47.4391 34.2696 48.2508C34.6188 49.0793 34.7984 49.9693 34.7981 50.8684C34.7981 51.1265 34.7981 51.3722 34.7981 51.5935C34.7852 51.818 34.7481 52.0405 34.6875 52.2571H31.8855V52.1956ZM31.8855 49.4797C31.611 48.6899 31.1005 48.0035 30.4231 47.5134C29.7308 46.9996 28.8887 46.7276 28.0267 46.7392C27.1678 46.7238 26.3285 46.9964 25.6426 47.5134C24.9726 48.0054 24.4705 48.692 24.2047 49.4797H31.8855Z" fill="#666CCD"/>
<path d="M44.4464 44.114V46.7931H43.0822C42.5536 46.7922 42.0305 46.901 41.5461 47.1126C41.0925 47.3203 40.677 47.6028 40.3172 47.9483C39.9594 48.3033 39.6681 48.7195 39.4569 49.1772C39.2474 49.6575 39.1426 50.177 39.1497 50.7011V57.3496H36.5566V44.114H39.1497V45.4658C39.7271 45.0481 40.3599 44.7131 41.03 44.4704C41.7014 44.235 42.4077 44.1145 43.1192 44.114H44.4464Z" fill="#666CCD"/>
<path d="M59.4142 58.8056C59.4246 60.1151 59.0458 61.3982 58.326 62.4921C57.6062 63.586 56.5777 64.4416 55.371 64.9503C54.554 65.3086 53.6701 65.4888 52.778 65.4787V62.7997C53.3188 62.8031 53.8545 62.6943 54.3511 62.4801C54.8106 62.2723 55.2274 61.9806 55.58 61.6199C55.942 61.2684 56.2339 60.8514 56.4402 60.391C56.6503 59.8978 56.7549 59.3662 56.7475 58.8302V56.2126C56.1673 56.6329 55.53 56.9681 54.8549 57.208C54.1748 57.4425 53.4606 57.563 52.7412 57.5644C51.8531 57.5735 50.9734 57.3933 50.1604 57.036C48.9576 56.5219 47.9327 55.6651 47.2137 54.5724C46.4947 53.4796 46.1133 52.1994 46.1172 50.8913V44.1814H48.7471V50.8053C48.7397 51.3413 48.8443 51.8729 49.0544 52.3661C49.2607 52.8265 49.5526 53.2436 49.9146 53.595C50.2672 53.9557 50.684 54.2474 51.1436 54.4552C51.6391 54.6658 52.172 54.7743 52.7104 54.7743C53.2489 54.7743 53.7818 54.6658 54.2773 54.4552C54.7369 54.2474 55.1537 53.9557 55.5062 53.595C55.8683 53.2436 56.1602 52.8265 56.3665 52.3661C56.5765 51.8729 56.6812 51.3413 56.6737 50.8053V44.1814H59.3036V58.8056H59.4142Z" fill="#666CCD"/>
<path d="M84.1031 36.251C85.1413 36.2632 86.153 36.5811 87.0117 37.1649C87.8704 37.7486 88.5381 38.5724 88.9314 39.5334C89.3246 40.4943 89.4261 41.5498 89.2231 42.5681C89.0201 43.5864 88.5216 44.5223 87.7899 45.259C87.3044 45.7411 86.7335 46.1286 86.1063 46.4019C85.4591 46.6838 84.7598 46.8261 84.054 46.8198H77.4792V57.4254H74.8984V36.251H84.14H84.1031ZM84.1031 44.1776C84.8042 44.1675 85.474 43.8855 85.9711 43.391C86.2129 43.1453 86.4085 42.8581 86.5487 42.5431C86.6863 42.2206 86.7573 41.8737 86.7576 41.5231C86.7651 41.1758 86.6989 40.8308 86.5633 40.5109C86.4277 40.191 86.2259 39.9036 85.9711 39.6674C85.7264 39.422 85.4351 39.2282 85.1142 39.0973C84.7934 38.9664 84.4496 38.9012 84.1031 38.9055H77.4792V44.1776H84.1031Z" fill="#666CCD"/>
<path d="M101.604 52.1905H93.9228C94.2038 52.9668 94.7084 53.6424 95.373 54.1322C96.0585 54.6397 96.892 54.9075 97.7448 54.8941C98.3289 54.9163 98.9107 54.8087 99.4483 54.5792C99.9859 54.3497 100.466 54.004 100.854 53.5669H103.988C103.483 54.7676 102.626 55.7873 101.53 56.4917C100.396 57.2371 99.0649 57.6265 97.7079 57.61C96.8046 57.613 95.9101 57.4333 95.078 57.0816C94.2739 56.7369 93.5437 56.2403 92.9274 55.6192C92.2992 54.9994 91.8018 54.2597 91.465 53.444C91.1162 52.6111 90.9365 51.7171 90.9365 50.8141C90.9365 49.9111 91.1162 49.0171 91.465 48.1842C91.805 47.3702 92.3019 46.631 92.9274 46.009C93.5469 45.3917 94.2763 44.8958 95.078 44.5465C95.9101 44.1949 96.8046 44.0151 97.7079 44.0181C98.6192 44.0152 99.5218 44.1948 100.362 44.5465C102.031 45.2387 103.357 46.5646 104.049 48.2333C104.394 49.0626 104.57 49.9527 104.565 50.8509C104.565 51.109 104.565 51.3548 104.565 51.576C104.557 51.8001 104.524 52.0226 104.467 52.2396H101.628L101.604 52.1905ZM101.604 49.4745C101.334 48.6825 100.822 47.9949 100.141 47.5083C99.4339 46.978 98.5669 46.7048 97.6834 46.734C96.8283 46.7186 95.9928 46.9913 95.3115 47.5083C94.6381 47.9996 94.1319 48.686 93.8614 49.4745H101.604Z" fill="#666CCD"/>
<path d="M114.226 44.114V46.7931H112.874C112.346 46.7922 111.823 46.901 111.338 47.1126C110.883 47.3173 110.467 47.6001 110.109 47.9483C109.744 48.2968 109.451 48.7146 109.249 49.1772C109.035 49.6566 108.926 50.1762 108.929 50.7011V57.3496H106.349V44.114H108.929V45.4658C109.51 45.053 110.142 44.7183 110.81 44.4704C111.485 44.2348 112.196 44.1143 112.911 44.114H114.226Z" fill="#666CCD"/>
<path d="M116.007 38.8718H118.649V41.5263H116.007V38.8718ZM116.007 44.1808H118.649V57.3672H116.007V44.1808Z" fill="#666CCD"/>
<path d="M111.767 29.4942C111.65 29.4628 111.531 29.4423 111.41 29.4328C108.773 29.3105 106.235 28.3944 104.127 26.8045C102.02 25.2146 100.442 23.0252 99.6004 20.5231C98.7997 18.3094 98.4731 15.9522 98.6419 13.6042C98.7973 10.4082 99.9297 7.33693 101.886 4.80506C103.729 2.4483 106.368 0.844677 109.309 0.294894C111.01 -0.0305907 112.753 -0.0803867 114.47 0.147419C116.458 0.384448 118.373 1.04218 120.087 2.07684C121.573 2.98666 122.834 4.22205 123.773 5.68989C125.027 7.68468 125.863 9.91298 126.231 12.2401C126.637 14.675 126.456 17.1716 125.704 19.5226C124.952 21.8737 123.65 24.0114 121.905 25.7583C120.258 27.3241 118.221 28.4191 116.007 28.9289C115.003 29.1762 113.979 29.3325 112.947 29.3959C112.866 29.4048 112.787 29.4255 112.713 29.4574L111.767 29.4942ZM105.622 14.4644C105.616 15.346 105.69 16.2262 105.843 17.0943C106.06 18.4591 106.599 19.7525 107.416 20.8671C108.172 21.9117 109.23 22.6984 110.448 23.1205C111.666 23.5427 112.985 23.5797 114.225 23.2267C115.183 22.9807 116.073 22.5213 116.828 21.8829C117.584 21.2444 118.185 20.4435 118.587 19.5399C119.207 18.1716 119.542 16.6914 119.571 15.1895C119.589 14.4084 119.54 13.6271 119.423 12.8545C119.277 11.6737 118.94 10.5242 118.428 9.45041C118.065 8.6769 117.552 7.98312 116.919 7.4093C116.287 6.83549 115.546 6.39307 114.741 6.10773C113.891 5.82107 112.993 5.70414 112.099 5.76362C110.913 5.79543 109.763 6.17586 108.793 6.85738C107.659 7.67052 106.801 8.81128 106.335 10.1263C105.816 11.5214 105.562 13.0008 105.585 14.489" fill="#1D1D1B"/>
<path d="M191.5 6.25284L191.39 6.71984C191.178 7.69139 190.693 8.5822 189.992 9.28754C189.291 9.99288 188.403 10.4834 187.433 10.7016C186.673 10.9098 185.875 10.9406 185.102 10.7914C184.328 10.6423 183.6 10.3172 182.972 9.84132C182.027 9.15745 181.356 8.15996 181.079 7.02708C180.893 6.31955 180.856 5.58107 180.97 4.85843C181.084 4.13579 181.347 3.44471 181.742 2.82897C182.137 2.21323 182.656 1.68623 183.265 1.28135C183.875 0.876475 184.561 0.602539 185.282 0.476886C186.202 0.298724 187.153 0.371286 188.035 0.686964C188.917 1.00264 189.698 1.54981 190.296 2.27112C190.949 2.97958 191.355 3.88091 191.451 4.83958C191.451 4.83958 191.451 4.92561 191.451 4.96248L191.5 6.25284ZM186.007 10.382C187.254 10.4127 188.464 9.95875 189.383 9.11563C190.301 8.27251 190.858 7.10594 190.934 5.86125C191.01 4.61655 190.601 3.39072 189.792 2.44156C188.983 1.49239 187.838 0.893859 186.597 0.771826C185.299 0.690978 184.021 1.12803 183.045 1.98722C182.068 2.84642 181.472 4.05772 181.386 5.35573C181.333 6.63488 181.79 7.88285 182.656 8.82535C183.523 9.76785 184.728 10.3278 186.007 10.382Z" fill="#1D1D1B"/>
<path d="M136.592 28.5155H129.919V0.889224H130.3H134.736C135.253 0.889224 135.756 0.889224 136.273 0.889224H136.58C138.313 3.82636 140.058 6.73891 141.754 9.67605C143.449 12.6132 145.109 15.5503 146.804 18.5366C146.706 12.6378 146.62 6.80036 146.522 0.950665C146.804 0.876929 152.421 0.840061 153.158 0.950665C153.164 1.00785 153.164 1.06553 153.158 1.12271V28.4172C153.158 28.4172 153.158 28.4172 153.158 28.5155H146.78C146.671 28.5254 146.561 28.5011 146.467 28.4461C146.372 28.391 146.297 28.3079 146.251 28.2083L141.409 19.9622C140.856 19.0405 140.267 18.1557 139.738 17.234C138.841 15.6364 137.981 14.0142 137.096 12.4043C136.899 12.0233 136.678 11.6546 136.445 11.286C136.445 17.0496 136.518 22.801 136.592 28.5893" fill="#1D1D1B"/>
<path d="M57.9879 11.2332L58.1722 28.4382H51.5483C51.4745 28.1555 51.4623 1.19282 51.5483 0.811848H51.9538H56.3165C56.8081 0.811848 57.3119 0.811848 57.8035 0.811848C57.9186 0.791487 58.0372 0.810792 58.1399 0.866603C58.2426 0.922415 58.3233 1.01143 58.3688 1.11908C59.7821 3.57694 61.2077 6.0348 62.6455 8.39434C64.579 11.6223 66.4388 14.8995 68.2248 18.2258C68.2617 18.2928 68.3072 18.3548 68.36 18.4101C68.36 16.4561 68.36 14.5144 68.36 12.5727C68.36 10.631 68.2986 8.67699 68.2617 6.723C68.2248 4.769 68.2002 2.81501 68.1634 0.836432H74.8365V28.475H68.4829C68.3576 28.4876 68.2314 28.4613 68.1215 28.3997C68.0116 28.3382 67.9232 28.2444 67.8684 28.1309C66.2299 25.3699 64.5913 22.6089 62.9527 19.848C62.3997 18.9017 61.7853 17.98 61.2445 17.0214C60.3474 15.4361 59.4995 13.8262 58.6269 12.2286L58.0862 11.2577H58.0002" fill="#1D1D1B"/>
<path d="M157.717 28.3987V0.784668H178.191C178.191 2.44372 178.191 4.09048 178.191 5.70038V6.0199H164.672C164.611 6.32714 164.599 10.6652 164.672 11.0831H177.294C177.367 11.378 177.38 15.8022 177.294 16.306C176.876 16.306 176.458 16.306 176.065 16.306H164.722C164.722 16.306 164.722 16.4289 164.722 16.4904V22.635C164.717 22.6841 164.717 22.7334 164.722 22.7825H179.469V28.1652C179.174 28.2266 158.27 28.2512 157.729 28.1652" fill="#1D1D1B"/>
<path d="M7.44344 19.3669V28.4118H0.5V0.785486H0.819515H8.09477C10.0979 0.785486 12.1133 0.785486 14.1288 0.785486C15.5593 0.771005 16.9854 0.948741 18.3686 1.31393C19.6849 1.64005 20.8878 2.31768 21.8489 3.27441C22.8099 4.23113 23.493 5.43099 23.8251 6.74579C24.1432 7.85593 24.2923 9.00765 24.2674 10.1622C24.2515 11.897 23.7675 13.5954 22.8665 15.0779C22.2716 16.0497 21.4856 16.8906 20.5561 17.5497C19.6267 18.2088 18.5731 18.6723 17.4592 18.9122C16.345 19.1677 15.2095 19.3199 14.0674 19.3669C12.0028 19.4775 9.93816 19.3669 7.92272 19.4406H7.49259M7.49259 5.92241C7.49259 6.05759 7.49259 6.11904 7.49259 6.19277C7.49259 8.84726 7.49259 11.5017 7.49259 14.1562H12.8876C13.4596 14.1611 14.0298 14.0908 14.5835 13.9473C15.241 13.82 15.8448 13.4974 16.3162 13.0217C16.7875 12.5459 17.1045 11.9392 17.2257 11.2805C17.4169 10.3733 17.3874 9.43345 17.1397 8.54002C17.0312 8.11595 16.8297 7.72136 16.5498 7.38483C15.993 6.73698 15.2285 6.30259 14.3869 6.15591C13.6423 6.01022 12.8843 5.9443 12.1257 5.95927H7.44344L7.49259 5.92241Z" fill="#1D1D1B"/>
<path d="M29.9946 24.0595C29.5399 25.5096 29.1098 26.9598 28.6551 28.4099H21.3799L31.5923 1.00481C31.616 0.945099 31.6447 0.887537 31.6783 0.832764H38.9167C42.2839 9.98418 45.6758 19.1602 49.0922 28.3608C48.785 28.4468 42.8615 28.4837 41.7186 28.3608C41.2516 26.9352 40.8461 25.4728 40.3668 24.0226L29.9946 24.0595ZM35.1562 7.35837C34.5909 9.37381 34.0624 11.3155 33.4971 13.2326C32.9318 15.1498 32.2682 17.0915 31.7151 19.0455H38.7815C37.5525 15.1621 36.3236 11.3032 35.1562 7.35837Z" fill="#1D1D1B"/>
<path d="M84.4347 28.373V6.25233H77.2455C77.1718 5.96968 77.1472 1.33662 77.2455 0.832764H98.5551C98.5551 1.11542 98.6411 5.63787 98.5551 6.21547C98.1459 6.24213 97.7354 6.24213 97.3262 6.21547C96.9329 6.21547 96.5397 6.21547 96.0973 6.21547H91.329V28.3362L91.2676 28.4099H84.4593H84.3487" fill="#1D1D1B"/>
<path d="M187.605 5.62648C187.848 5.7286 188.056 5.89903 188.205 6.11714C188.353 6.33525 188.435 6.5917 188.441 6.8554C188.501 7.39419 188.616 7.92539 188.785 8.44071L188.994 9.00603H187.507C187.371 9.00603 187.322 8.88314 187.285 8.78482C187.224 8.50217 187.162 8.2318 187.113 7.94915C187.064 7.6665 187.003 7.26095 186.954 6.91685C186.92 6.67369 186.797 6.45185 186.608 6.29494C186.419 6.13802 186.179 6.05738 185.934 6.06888C185.749 6.06888 185.54 6.06888 185.319 6.06888V8.88313C184.828 8.88313 184.373 8.88313 183.894 8.88313V2.2715C183.967 2.26074 184.041 2.26074 184.115 2.2715C185.036 2.2715 185.958 2.2715 186.88 2.2715C187.177 2.28065 187.471 2.3345 187.752 2.43126C187.995 2.52621 188.214 2.67558 188.39 2.86791C188.566 3.06025 188.696 3.29043 188.77 3.54079C188.843 3.79115 188.859 4.05503 188.814 4.31219C188.77 4.56935 188.667 4.81295 188.514 5.02429C188.297 5.33852 187.974 5.56505 187.605 5.66334M185.319 4.87683H186.806C186.907 4.88069 187.008 4.86042 187.1 4.81769C187.192 4.77495 187.272 4.71097 187.335 4.63104C187.426 4.52948 187.488 4.40435 187.513 4.26966C187.538 4.13497 187.524 3.99604 187.475 3.86845C187.425 3.74086 187.341 3.62966 187.231 3.54729C187.122 3.46492 186.992 3.41465 186.855 3.40211C186.351 3.40211 185.848 3.40211 185.319 3.40211V4.87683Z" fill="#1D1D1B"/>
<path d="M19.9306 36.251L10.4679 57.8432L1.04199 36.251H3.75792L10.4679 51.035L17.2761 36.251H19.9306Z" fill="#666CCD"/>
</svg>
