<svg width="270" height="270" viewBox="0 0 270 270" fill="none" xmlns="http://www.w3.org/2000/svg">
<g filter="url(#filter0_di_1569_66880)">
<g clip-path="url(#clip0_1569_66880)">
<g filter="url(#filter1_di_1569_66880)">
<circle cx="126" cy="125" r="125" fill="#656EB3"/>
</g>
<g clip-path="url(#clip1_1569_66880)">
<mask id="mask0_1569_66880" style="mask-type:luminance" maskUnits="userSpaceOnUse" x="-234" y="-325" width="625" height="624">
<path d="M390.19 -324.71H-233.43V298.91H390.19V-324.71Z" fill="white"/>
</mask>
<g mask="url(#mask0_1569_66880)">
<path d="M22.8399 77.8599C22.8399 77.2685 22.6049 76.7013 22.1867 76.2831C21.7685 75.8648 21.2013 75.6299 20.6099 75.6299C20.0184 75.6299 19.4512 75.8648 19.033 76.2831C18.6148 76.7013 18.3799 77.2685 18.3799 77.8599C18.3799 78.4513 18.6148 79.0185 19.033 79.4367C19.4512 79.8549 20.0184 80.0899 20.6099 80.0899C21.2013 80.0899 21.7685 79.8549 22.1867 79.4367C22.6049 79.0185 22.8399 78.4513 22.8399 77.8599Z" fill="#D7DAEF"/>
<path d="M58.6998 78.9401C58.6841 79.0987 58.7024 79.2589 58.7535 79.4098C58.8046 79.5608 58.8874 79.6991 58.9962 79.8156C59.1051 79.932 59.2375 80.0238 59.3847 80.085C59.5319 80.1461 59.6905 80.1751 59.8498 80.1701C60.0074 80.169 60.1631 80.1358 60.3074 80.0726C60.4517 80.0094 60.5816 79.9174 60.6892 79.8023C60.7969 79.6872 60.8799 79.5514 60.9333 79.4032C60.9867 79.2549 61.0093 79.0974 60.9998 78.9401C60.9922 78.6375 60.8686 78.3494 60.6545 78.1353C60.4405 77.9213 60.1524 77.7977 59.8498 77.7901C59.6984 77.7887 59.5483 77.8176 59.4082 77.8749C59.268 77.9322 59.1407 78.0169 59.0337 78.1239C58.9266 78.231 58.8419 78.3583 58.7846 78.4984C58.7273 78.6386 58.6985 78.7887 58.6998 78.9401Z" fill="#D7DAEF"/>
<path d="M77.2604 78.9599C77.2491 79.2466 77.2973 79.5325 77.4019 79.7997C77.5064 80.0668 77.6651 80.3095 77.868 80.5123C78.0709 80.7152 78.3135 80.8739 78.5807 80.9784C78.8478 81.083 79.1337 81.1312 79.4204 81.1199C79.9925 81.1173 80.5403 80.8889 80.9448 80.4844C81.3493 80.0799 81.5778 79.532 81.5804 78.9599C81.5652 78.3919 81.3328 77.8512 80.931 77.4494C80.5291 77.0475 79.9885 76.8151 79.4204 76.7999C79.1352 76.7945 78.8519 76.8467 78.5874 76.9533C78.3229 77.0599 78.0826 77.2188 77.8809 77.4205C77.6793 77.6222 77.5204 77.8624 77.4137 78.1269C77.3071 78.3915 77.255 78.6748 77.2604 78.9599Z" fill="#D7DAEF"/>
<path d="M61.0002 98.63C61.0015 98.4786 60.9727 98.3285 60.9154 98.1884C60.8581 98.0482 60.7734 97.9209 60.6664 97.8139C60.5593 97.7068 60.432 97.6222 60.2918 97.5648C60.1517 97.5075 60.0016 97.4787 59.8502 97.48C59.5452 97.48 59.2527 97.6012 59.037 97.8168C58.8214 98.0325 58.7002 98.325 58.7002 98.63C58.7002 98.935 58.8214 99.2275 59.037 99.4432C59.2527 99.6589 59.5452 99.78 59.8502 99.78C60.002 99.7827 60.1527 99.7548 60.2935 99.698C60.4342 99.6412 60.5621 99.5566 60.6694 99.4492C60.7767 99.3419 60.8613 99.214 60.9182 99.0733C60.975 98.9325 61.0029 98.7818 61.0002 98.63Z" fill="#D7DAEF"/>
<path d="M81.9 98.6299C81.8922 97.9826 81.6316 97.3639 81.1738 96.9061C80.716 96.4483 80.0974 96.1877 79.45 96.1799C78.8002 96.1799 78.1771 96.438 77.7176 96.8975C77.2581 97.357 77 97.9801 77 98.6299C77 99.2797 77.2581 99.9029 77.7176 100.362C78.1771 100.822 78.8002 101.08 79.45 101.08C80.0974 101.072 80.716 100.812 81.1738 100.354C81.6316 99.8959 81.8922 99.2773 81.9 98.6299Z" fill="#D7DAEF"/>
<path d="M61.4299 118.29C61.4319 117.975 61.3401 117.666 61.1662 117.403C60.9922 117.14 60.744 116.934 60.453 116.813C60.1621 116.691 59.8416 116.659 59.5322 116.72C59.2229 116.781 58.9386 116.933 58.7157 117.156C58.4927 117.379 58.3411 117.663 58.2801 117.972C58.219 118.282 58.2514 118.602 58.3729 118.893C58.4945 119.184 58.6999 119.432 58.9629 119.606C59.2259 119.78 59.5346 119.872 59.85 119.87C60.2674 119.865 60.6662 119.697 60.9614 119.401C61.2566 119.106 61.4248 118.707 61.4299 118.29Z" fill="#D7DAEF"/>
<path d="M82.5696 118.29C82.5696 117.46 82.2398 116.664 81.6528 116.077C81.0658 115.49 80.2697 115.16 79.4396 115.16C78.6094 115.16 77.8133 115.49 77.2263 116.077C76.6394 116.664 76.3096 117.46 76.3096 118.29C76.3096 119.12 76.6394 119.916 77.2263 120.503C77.8133 121.09 78.6094 121.42 79.4396 121.42C80.2697 121.42 81.0658 121.09 81.6528 120.503C82.2398 119.916 82.5696 119.12 82.5696 118.29Z" fill="#D7DAEF"/>
<path d="M99.3397 120.38C99.6155 120.383 99.8891 120.331 100.145 120.228C100.401 120.125 100.634 119.972 100.831 119.779C101.027 119.586 101.184 119.356 101.292 119.102C101.4 118.848 101.457 118.576 101.46 118.3C101.46 117.738 101.236 117.198 100.839 116.801C100.441 116.403 99.902 116.18 99.3397 116.18C98.7775 116.18 98.2382 116.403 97.8407 116.801C97.4431 117.198 97.2197 117.738 97.2197 118.3C97.2276 118.856 97.4548 119.387 97.8518 119.776C98.2488 120.166 98.7835 120.383 99.3397 120.38Z" fill="#C8C9DF"/>
<path d="M100.93 137.93C100.93 137.616 100.837 137.308 100.662 137.047C100.487 136.785 100.239 136.581 99.9485 136.461C99.658 136.341 99.3382 136.309 99.0298 136.371C98.7214 136.432 98.4381 136.583 98.2157 136.806C97.9933 137.028 97.8419 137.311 97.7806 137.62C97.7192 137.928 97.7507 138.248 97.871 138.539C97.9914 138.829 98.1952 139.077 98.4567 139.252C98.7181 139.427 99.0255 139.52 99.34 139.52C99.7609 139.517 100.164 139.349 100.461 139.051C100.759 138.754 100.927 138.351 100.93 137.93Z" fill="#D7DAEF"/>
<path d="M101.03 157.61C101.027 157.172 100.853 156.753 100.544 156.443C100.236 156.132 99.8177 155.955 99.38 155.95C99.0512 155.948 98.7293 156.044 98.455 156.225C98.1807 156.406 97.9664 156.665 97.8392 156.968C97.712 157.271 97.6777 157.605 97.7406 157.928C97.8036 158.25 97.9609 158.547 98.1926 158.78C98.4244 159.013 98.7201 159.172 99.0424 159.237C99.3647 159.302 99.699 159.27 100.003 159.145C100.307 159.019 100.567 158.806 100.749 158.533C100.932 158.26 101.03 157.939 101.03 157.61Z" fill="#D7DAEF"/>
<path d="M121.1 157.61C121.104 157.177 120.979 156.752 120.74 156.39C120.502 156.029 120.161 155.746 119.761 155.579C119.362 155.412 118.921 155.368 118.496 155.452C118.071 155.536 117.681 155.745 117.375 156.052C117.07 156.359 116.862 156.751 116.78 157.176C116.698 157.601 116.744 158.042 116.913 158.441C117.082 158.839 117.366 159.179 117.729 159.416C118.092 159.653 118.517 159.776 118.95 159.77C119.234 159.771 119.515 159.716 119.777 159.608C120.039 159.5 120.277 159.341 120.477 159.14C120.677 158.939 120.835 158.7 120.942 158.437C121.049 158.175 121.103 157.894 121.1 157.61Z" fill="#C8C9DF"/>
<path d="M1.16019 -4.43993C0.329086 -4.44191 -0.483914 -4.19725 -1.17592 -3.73696C-1.86792 -3.27666 -2.40779 -2.62142 -2.72721 -1.85414C-3.04664 -1.08687 -3.13124 -0.242063 -2.97032 0.573315C-2.80939 1.38869 -2.41017 2.13801 -1.82319 2.72639C-1.23621 3.31477 -0.487855 3.71577 0.327137 3.87864C1.14213 4.04151 1.98711 3.9589 2.75515 3.64131C3.52318 3.32372 4.17972 2.78543 4.64167 2.09452C5.10361 1.40362 5.35019 0.591189 5.35019 -0.239917C5.3502 -1.3521 4.90908 -2.41886 4.12358 -3.20623C3.33809 -3.99359 2.27237 -4.43728 1.16019 -4.43993Z" fill="#C8C9DF"/>
<path d="M20.6399 -4.91999C19.7126 -4.92792 18.8039 -4.6602 18.029 -4.1508C17.2542 -3.6414 16.6481 -2.91328 16.2878 -2.05885C15.9274 -1.20442 15.829 -0.262208 16.005 0.648242C16.1811 1.55869 16.6236 2.39634 17.2765 3.05486C17.9294 3.71338 18.7632 4.1631 19.6721 4.34694C20.581 4.53079 21.524 4.44046 22.3815 4.08745C23.239 3.73444 23.9723 3.13465 24.4883 2.36418C25.0044 1.59372 25.2799 0.687311 25.2799 -0.240002C25.2826 -1.47511 24.7959 -2.661 23.9263 -3.5381C23.0567 -4.4152 21.875 -4.91206 20.6399 -4.91999Z" fill="#C8C9DF"/>
<path d="M40.1796 -5.32007C39.1749 -5.32007 38.1927 -5.02216 37.3573 -4.46396C36.5219 -3.90576 35.8708 -3.11236 35.4863 -2.18411C35.1018 -1.25586 35.0012 -0.234447 35.1972 0.750977C35.3932 1.7364 35.877 2.64157 36.5875 3.35202C37.2979 4.06247 38.2031 4.5463 39.1885 4.74231C40.174 4.93832 41.1954 4.83771 42.1236 4.45322C43.0519 4.06872 43.8453 3.41762 44.4035 2.58221C44.9617 1.74681 45.2596 0.764647 45.2596 -0.240082C45.257 -1.58657 44.7209 -2.87714 43.7688 -3.82925C42.8167 -4.78137 41.5261 -5.31743 40.1796 -5.32007Z" fill="#C8C9DF"/>
<path d="M59.8099 -5.95999C58.6803 -5.95209 57.5784 -5.60992 56.643 -4.97662C55.7076 -4.34331 54.9807 -3.44723 54.5539 -2.40136C54.1271 -1.3555 54.0195 -0.20668 54.2447 0.900243C54.4699 2.00717 55.0178 3.02262 55.8194 3.81858C56.6209 4.61454 57.6401 5.15539 58.7486 5.37287C59.8571 5.59035 61.0051 5.47477 62.048 5.04069C63.0908 4.6066 63.9818 3.87345 64.6086 2.93369C65.2354 1.99393 65.5699 0.889615 65.5699 -0.239985C65.5712 -0.9949 65.4229 -1.74258 65.1334 -2.43978C64.8439 -3.13699 64.4191 -3.76987 63.8834 -4.30181C63.3477 -4.83376 62.7119 -5.25422 62.0127 -5.53884C61.3135 -5.82346 60.5648 -5.9666 59.8099 -5.95999Z" fill="#C8C9DF"/>
<path d="M79.4398 -7.11994C78.0769 -7.12984 76.7419 -6.73477 75.6039 -5.98483C74.4659 -5.2349 73.5763 -4.16388 73.0479 -2.90762C72.5195 -1.65137 72.3761 -0.266487 72.6359 1.07138C72.8957 2.40925 73.547 3.6398 74.5072 4.60699C75.4673 5.57419 76.6931 6.23445 78.0291 6.504C79.365 6.77354 80.7509 6.64023 82.011 6.121C83.271 5.60177 84.3485 4.71999 85.1067 3.58752C85.8649 2.45506 86.2697 1.12293 86.2698 -0.239931C86.2698 -2.05599 85.5518 -3.7984 84.2724 -5.08722C82.9929 -6.37604 81.2558 -7.10674 79.4398 -7.11994Z" fill="#B1B6DD"/>
<path d="M99.3499 -6.5199C98.5048 -6.55365 97.6615 -6.41633 96.8708 -6.11619C96.08 -5.81604 95.3581 -5.35927 94.7482 -4.77326C94.1383 -4.18724 93.6531 -3.48405 93.3216 -2.70591C92.9902 -1.92776 92.8193 -1.0907 92.8193 -0.244908C92.8193 0.600885 92.9902 1.43798 93.3216 2.21612C93.6531 2.99426 94.1383 3.69743 94.7482 4.28344C95.3581 4.86946 96.08 5.32623 96.8708 5.62637C97.6615 5.92651 98.5048 6.06383 99.3499 6.03009C100.971 5.96537 102.504 5.27594 103.628 4.10623C104.752 2.93651 105.379 1.37727 105.379 -0.244908C105.379 -1.86709 104.752 -3.42633 103.628 -4.59604C102.504 -5.76576 100.971 -6.45518 99.3499 -6.5199Z" fill="#C8C9DF"/>
<path d="M138.42 -6.3501C137.212 -6.34812 136.032 -5.98807 135.029 -5.31549C134.025 -4.64291 133.243 -3.68798 132.783 -2.57135C132.322 -1.45472 132.202 -0.226526 132.439 0.958038C132.676 2.1426 133.259 3.23036 134.113 4.08386C134.968 4.93736 136.057 5.51829 137.242 5.75323C138.427 5.98818 139.655 5.86661 140.771 5.40387C141.887 4.94113 142.84 4.15798 143.511 3.15341C144.182 2.14885 144.54 0.967936 144.54 -0.240082C144.535 -1.86066 143.888 -3.41321 142.741 -4.5582C141.595 -5.70319 140.041 -6.34746 138.42 -6.3501Z" fill="#858BB5"/>
<path d="M158.17 -6.70995C156.896 -6.71193 155.65 -6.33591 154.589 -5.62948C153.529 -4.92305 152.702 -3.91797 152.213 -2.74139C151.724 -1.56481 151.595 -0.269603 151.842 0.980293C152.09 2.23019 152.702 3.37863 153.602 4.28028C154.503 5.18193 155.65 5.79627 156.9 6.04557C158.149 6.29487 159.445 6.16793 160.622 5.68079C161.799 5.19366 162.806 4.36824 163.514 3.30897C164.222 2.2497 164.6 1.00419 164.6 -0.269951C164.6 -1.97621 163.923 -3.61274 162.717 -4.82018C161.511 -6.02763 159.876 -6.7073 158.17 -6.70995Z" fill="#C8C9DF"/>
<path d="M177.88 4.29002C178.507 4.34916 179.139 4.27681 179.736 4.07756C180.333 3.87831 180.882 3.55657 181.347 3.13295C181.813 2.70933 182.185 2.19316 182.439 1.61751C182.694 1.04186 182.825 0.419409 182.825 -0.209978C182.825 -0.839365 182.694 -1.46181 182.439 -2.03746C182.185 -2.61311 181.813 -3.12929 181.347 -3.5529C180.882 -3.97652 180.333 -4.29827 179.736 -4.49751C179.139 -4.69676 178.507 -4.76912 177.88 -4.70998C177.254 -4.76912 176.622 -4.69676 176.025 -4.49751C175.428 -4.29827 174.879 -3.97652 174.413 -3.5529C173.948 -3.12929 173.576 -2.61311 173.321 -2.03746C173.067 -1.46181 172.936 -0.839365 172.936 -0.209978C172.936 0.419409 173.067 1.04186 173.321 1.61751C173.576 2.19316 173.948 2.70933 174.413 3.13295C174.879 3.55657 175.428 3.87831 176.025 4.07756C176.622 4.27681 177.254 4.34916 177.88 4.29002Z" fill="#C8C9DF"/>
<path d="M197.62 -4.79995C196.712 -4.80589 195.823 -4.54183 195.065 -4.04131C194.307 -3.5408 193.716 -2.8264 193.365 -1.98889C193.014 -1.15137 192.921 -0.228527 193.096 0.662421C193.271 1.55337 193.706 2.3722 194.348 3.01493C194.989 3.65766 195.807 4.09529 196.697 4.27219C197.588 4.44909 198.511 4.35728 199.349 4.00846C200.188 3.65964 200.903 3.06953 201.405 2.31309C201.908 1.55664 202.174 0.668 202.17 -0.239953C202.162 -1.44519 201.68 -2.59899 200.829 -3.45217C199.978 -4.30536 198.825 -4.78947 197.62 -4.79995Z" fill="#C8C9DF"/>
<path d="M1.18965 14.7101C0.258465 14.6982 -0.655252 14.9632 -1.43557 15.4715C-2.21588 15.9798 -2.82761 16.7084 -3.19314 17.5649C-3.55866 18.4215 -3.66149 19.3673 -3.48859 20.2823C-3.31569 21.1974 -2.87484 22.0405 -2.22199 22.7046C-1.56914 23.3687 -0.733728 23.8239 0.178248 24.0124C1.09022 24.2009 2.03765 24.1143 2.90029 23.7634C3.76294 23.4126 4.50193 22.8134 5.02348 22.0419C5.54502 21.2704 5.82561 20.3613 5.82965 19.4301C5.83502 18.1904 5.35043 16.9989 4.48138 16.1148C3.61233 15.2308 2.42921 14.7259 1.18965 14.7101Z" fill="#C8C9DF"/>
<path d="M20.5696 24.4601C21.5721 24.456 22.5507 24.1543 23.3814 23.5932C24.2122 23.0321 24.8575 22.2369 25.2356 21.3085C25.6137 20.38 25.7074 19.3602 25.505 18.3784C25.3026 17.3966 24.8131 16.497 24.0987 15.7938C23.3842 15.0906 22.477 14.6155 21.4921 14.4287C20.5072 14.2419 19.489 14.3519 18.5667 14.7446C17.6444 15.1374 16.8596 15.7953 16.3117 16.6348C15.7639 17.4743 15.4777 18.4577 15.4896 19.4601C15.4895 20.1235 15.6215 20.7802 15.8777 21.3921C16.134 22.004 16.5095 22.5588 16.9823 23.0242C17.4551 23.4895 18.0157 23.8562 18.6316 24.1027C19.2475 24.3492 19.9063 24.4707 20.5696 24.4601Z" fill="#C8C9DF"/>
<path d="M40.1599 24.74C41.2182 24.744 42.2538 24.4334 43.1352 23.8477C44.0166 23.262 44.7042 22.4276 45.1105 21.4505C45.5169 20.4733 45.6237 19.3975 45.4175 18.3595C45.2112 17.3215 44.7013 16.3682 43.9523 15.6206C43.2032 14.873 42.249 14.3648 41.2106 14.1605C40.1722 13.9562 39.0966 14.0651 38.1202 14.4733C37.1438 14.8814 36.3107 15.5706 35.7267 16.4531C35.1426 17.3356 34.834 18.3718 34.8399 19.43C34.8478 20.8376 35.4112 22.1852 36.4075 23.1796C37.4037 24.174 38.7523 24.7348 40.1599 24.74Z" fill="#C8C9DF"/>
<path d="M79.4604 25.46C81.0237 25.3964 82.5019 24.7307 83.5855 23.6021C84.6692 22.4735 85.2743 20.9696 85.2743 19.405C85.2743 17.8404 84.6692 16.3364 83.5855 15.2078C82.5019 14.0792 81.0237 13.4135 79.4604 13.35C78.6446 13.3168 77.8304 13.4489 77.0669 13.7382C76.3033 14.0276 75.6061 14.4682 75.0171 15.0337C74.4281 15.5993 73.9595 16.278 73.6394 17.0292C73.3193 17.7803 73.1543 18.5884 73.1543 19.405C73.1543 20.2215 73.3193 21.0296 73.6394 21.7808C73.9595 22.532 74.4281 23.2107 75.0171 23.7762C75.6061 24.3417 76.3033 24.7824 77.0669 25.0717C77.8304 25.3611 78.6446 25.4931 79.4604 25.46Z" fill="#C8C9DF"/>
<path d="M99.3305 13.63C98.1886 13.6319 97.0729 13.9721 96.1241 14.6076C95.1754 15.243 94.4361 16.1452 93.9996 17.2004C93.563 18.2555 93.4488 19.4164 93.6714 20.5364C93.8939 21.6564 94.4432 22.6854 95.25 23.4935C96.0567 24.3017 97.0847 24.8527 98.2044 25.0772C99.324 25.3017 100.485 25.1895 101.541 24.7547C102.597 24.32 103.5 23.5823 104.137 22.6347C104.774 21.687 105.117 20.5719 105.12 19.43C105.126 18.6677 104.98 17.9119 104.691 17.2065C104.402 16.501 103.976 15.86 103.437 15.3205C102.899 14.7809 102.258 14.3537 101.553 14.0635C100.848 13.7733 100.093 13.626 99.3305 13.63Z" fill="#B1B6DD"/>
<path d="M118.94 15.0501C118.077 15.0461 117.232 15.2982 116.513 15.7745C115.793 16.2507 115.232 16.9296 114.898 17.7254C114.565 18.5211 114.475 19.3979 114.64 20.2447C114.805 21.0915 115.218 21.8702 115.826 22.4824C116.434 23.0945 117.21 23.5126 118.055 23.6835C118.901 23.8545 119.778 23.7708 120.576 23.4429C121.375 23.1151 122.057 22.5578 122.538 21.8417C123.02 21.1256 123.278 20.2828 123.28 19.4201C123.28 18.2663 122.823 17.1593 122.01 16.3406C121.197 15.5219 120.093 15.058 118.94 15.0501Z" fill="#E2DEE8"/>
<path d="M138.42 12.0701C136.964 12.0701 135.541 12.5017 134.331 13.3105C133.12 14.1192 132.177 15.2687 131.62 16.6135C131.063 17.9584 130.917 19.4382 131.201 20.8659C131.485 22.2936 132.186 23.6051 133.215 24.6344C134.245 25.6637 135.556 26.3647 136.984 26.6487C138.411 26.9326 139.891 26.7869 141.236 26.2298C142.581 25.6728 143.73 24.7294 144.539 23.5191C145.348 22.3087 145.78 20.8858 145.78 19.4301C145.78 17.4781 145.004 15.606 143.624 14.2258C142.244 12.8455 140.372 12.0701 138.42 12.0701Z" fill="#C8C9DF"/>
<path d="M158.19 13.15C156.952 13.144 155.739 13.5056 154.706 14.189C153.673 14.8724 152.866 15.8468 152.387 16.9889C151.909 18.1311 151.779 19.3897 152.016 20.6054C152.252 21.8212 152.844 22.9394 153.716 23.8187C154.588 24.6979 155.702 25.2987 156.916 25.545C158.13 25.7912 159.389 25.6718 160.535 25.202C161.681 24.7322 162.662 23.933 163.354 22.9055C164.045 21.878 164.416 20.6685 164.42 19.43C164.423 17.7723 163.769 16.1809 162.602 15.0041C161.434 13.8272 159.848 13.1605 158.19 13.15Z" fill="#C8C9DF"/>
<path d="M177.86 23.99C178.767 23.994 179.656 23.7282 180.412 23.2265C181.168 22.7248 181.758 22.0097 182.107 21.172C182.456 20.3343 182.549 19.4117 182.373 18.5214C182.197 17.6312 181.76 16.8133 181.118 16.1715C180.477 15.5298 179.659 15.0932 178.768 14.9171C177.878 14.741 176.956 14.8334 176.118 15.1826C175.28 15.5317 174.565 16.1218 174.063 16.878C173.562 17.6343 173.296 18.5225 173.3 19.43C173.31 20.6362 173.794 21.79 174.647 22.6429C175.5 23.4958 176.654 23.9796 177.86 23.99Z" fill="#C8C9DF"/>
<path d="M197.62 14.99C197.04 14.99 196.465 15.1043 195.929 15.3264C195.392 15.5485 194.905 15.8741 194.495 16.2846C194.084 16.695 193.759 17.1822 193.537 17.7185C193.315 18.2548 193.2 18.8295 193.2 19.41C193.2 19.9904 193.315 20.5652 193.537 21.1014C193.759 21.6377 194.084 22.125 194.495 22.5354C194.905 22.9458 195.392 23.2714 195.929 23.4935C196.465 23.7157 197.04 23.83 197.62 23.83C198.792 23.83 199.917 23.3643 200.746 22.5354C201.575 21.7065 202.04 20.5822 202.04 19.41C202.04 18.2377 201.575 17.1135 200.746 16.2846C199.917 15.4557 198.792 14.99 197.62 14.99Z" fill="#C8C9DF"/>
<path d="M217.28 21.8699C217.603 21.8726 217.923 21.8116 218.223 21.6904C218.522 21.5692 218.795 21.3902 219.025 21.1636C219.256 20.937 219.439 20.6673 219.565 20.3698C219.691 20.0724 219.757 19.753 219.76 19.43C219.757 18.773 219.495 18.1438 219.031 17.6792C218.566 17.2147 217.937 16.9526 217.28 16.95C216.957 16.9526 216.638 17.0188 216.34 17.1448C216.043 17.2709 215.773 17.4543 215.546 17.6846C215.32 17.9149 215.141 18.1875 215.02 18.487C214.898 18.7865 214.837 19.1069 214.84 19.43C214.837 19.7511 214.899 20.0696 215.02 20.3669C215.142 20.6641 215.322 20.9341 215.549 21.1612C215.776 21.3883 216.046 21.568 216.343 21.6896C216.64 21.8113 216.959 21.8726 217.28 21.8699Z" fill="#C8C9DF"/>
<path d="M1.17985 42.8999C1.93366 42.896 2.66945 42.6691 3.29457 42.2478C3.91969 41.8266 4.40619 41.2298 4.69284 40.5326C4.97948 39.8354 5.05346 39.069 4.90542 38.3298C4.75739 37.5907 4.39397 36.9119 3.86094 36.3789C3.32792 35.8458 2.64909 35.4824 1.90996 35.3344C1.17082 35.1864 0.404403 35.2603 -0.292788 35.547C-0.989979 35.8336 -1.58677 36.3201 -2.00803 36.9452C-2.42929 37.5704 -2.65619 38.3061 -2.66014 39.0599C-2.66146 39.5646 -2.56304 40.0645 -2.37053 40.531C-2.17802 40.9975 -1.89522 41.4213 -1.53838 41.7782C-1.18154 42.135 -0.757702 42.4178 -0.291216 42.6103C0.17527 42.8028 0.675207 42.9013 1.17985 42.8999Z" fill="#C8C9DF"/>
<path d="M20.6502 34.8601C19.5363 34.8601 18.468 35.3026 17.6803 36.0902C16.8927 36.8779 16.4502 37.9462 16.4502 39.0601C16.4502 40.174 16.8927 41.2423 17.6803 42.0299C18.468 42.8176 19.5363 43.2601 20.6502 43.2601C21.7641 43.2601 22.8324 42.8176 23.62 42.0299C24.4077 41.2423 24.8502 40.174 24.8502 39.0601C24.8502 37.9462 24.4077 36.8779 23.62 36.0902C22.8324 35.3026 21.7641 34.8601 20.6502 34.8601Z" fill="#C8C9DF"/>
<path d="M40.1799 43.8201C41.1157 43.8161 42.0293 43.5352 42.8058 43.0129C43.5822 42.4905 44.1866 41.75 44.5429 40.8847C44.8992 40.0194 44.9913 39.0681 44.8078 38.1505C44.6243 37.2329 44.1733 36.3901 43.5116 35.7284C42.8499 35.0667 42.0071 34.6157 41.0895 34.4321C40.1719 34.2486 39.2205 34.3408 38.3552 34.6971C37.4899 35.0534 36.7494 35.6578 36.2271 36.4342C35.7047 37.2106 35.4239 38.1243 35.4199 39.06C35.4226 40.3217 35.9249 41.5309 36.817 42.423C37.7091 43.3151 38.9183 43.8174 40.1799 43.8201Z" fill="#B1B6DD"/>
<path d="M59.8302 44.42C61.2465 44.42 62.6047 43.8574 63.6062 42.8559C64.6076 41.8545 65.1702 40.4962 65.1702 39.08C65.1702 37.6637 64.6076 36.3055 63.6062 35.304C62.6047 34.3026 61.2465 33.74 59.8302 33.74C58.414 33.74 57.0557 34.3026 56.0543 35.304C55.0528 36.3055 54.4902 37.6637 54.4902 39.08C54.4902 40.4962 55.0528 41.8545 56.0543 42.8559C57.0557 43.8574 58.414 44.42 59.8302 44.42Z" fill="#C8C9DF"/>
<path d="M138.44 34.8001C137.593 34.7981 136.764 35.0477 136.059 35.5172C135.353 35.9867 134.803 36.6551 134.478 37.4375C134.153 38.22 134.067 39.0814 134.232 39.9126C134.397 40.7437 134.805 41.5073 135.404 42.1065C136.003 42.7056 136.767 43.1135 137.598 43.2783C138.429 43.4431 139.29 43.3575 140.073 43.0323C140.855 42.7071 141.524 42.157 141.993 41.4516C142.463 40.7463 142.712 39.9174 142.71 39.07C142.705 37.9392 142.254 36.8562 141.454 36.0565C140.654 35.2569 139.571 34.8053 138.44 34.8001Z" fill="#E2DEE8"/>
<path d="M158.14 32.86C156.916 32.8679 155.721 33.2382 154.707 33.9243C153.693 34.6103 152.904 35.5814 152.441 36.715C151.978 37.8485 151.861 39.0939 152.105 40.2939C152.348 41.494 152.942 42.5949 153.811 43.458C154.679 44.3211 155.784 44.9076 156.986 45.1436C158.187 45.3797 159.432 45.2546 160.562 44.7842C161.693 44.3137 162.659 43.519 163.338 42.5003C164.018 41.4816 164.38 40.2845 164.38 39.06C164.384 38.2413 164.226 37.43 163.913 36.6733C163.6 35.9167 163.14 35.2298 162.559 34.6528C161.979 34.0757 161.289 33.62 160.53 33.3122C159.771 33.0044 158.959 32.8507 158.14 32.86Z" fill="#C8C9DF"/>
<path d="M177.88 34.29C176.931 34.29 176.003 34.5716 175.213 35.099C174.424 35.6264 173.809 36.3761 173.445 37.2532C173.082 38.1303 172.987 39.0954 173.172 40.0265C173.358 40.9576 173.815 41.8129 174.486 42.4842C175.157 43.1555 176.013 43.6126 176.944 43.7978C177.875 43.983 178.84 43.888 179.717 43.5247C180.594 43.1614 181.344 42.5461 181.871 41.7568C182.399 40.9674 182.68 40.0394 182.68 39.09C182.681 38.4593 182.558 37.8346 182.317 37.2516C182.077 36.6686 181.723 36.139 181.277 35.693C180.831 35.247 180.301 34.8935 179.719 34.6528C179.136 34.412 178.511 34.2887 177.88 34.29Z" fill="#858BB5"/>
<path d="M197.57 34.0601C196.581 34.0601 195.615 34.3533 194.792 34.9027C193.97 35.4521 193.329 36.233 192.951 37.1467C192.572 38.0603 192.473 39.0656 192.666 40.0355C192.859 41.0054 193.336 41.8963 194.035 42.5956C194.734 43.2949 195.625 43.7711 196.595 43.964C197.565 44.1569 198.57 44.0579 199.484 43.6795C200.397 43.301 201.178 42.6602 201.728 41.8379C202.277 41.0157 202.57 40.049 202.57 39.0601C202.57 37.734 202.044 36.4622 201.106 35.5245C200.168 34.5869 198.896 34.0601 197.57 34.0601Z" fill="#C8C9DF"/>
<path d="M217.32 34.8201C216.481 34.8201 215.662 35.0687 214.964 35.5346C214.267 36.0005 213.724 36.6627 213.403 37.4375C213.082 38.2123 212.998 39.0648 213.162 39.8872C213.325 40.7097 213.729 41.4652 214.322 42.0582C214.915 42.6512 215.67 43.055 216.493 43.2186C217.315 43.3822 218.168 43.2982 218.943 42.9773C219.717 42.6564 220.38 42.1129 220.846 41.4157C221.311 40.7184 221.56 39.8987 221.56 39.0601C221.557 37.9364 221.11 36.8594 220.315 36.0648C219.521 35.2703 218.444 34.8227 217.32 34.8201Z" fill="#C8C9DF"/>
<path d="M237.01 41.5801C237.34 41.5801 237.667 41.5148 237.972 41.3881C238.278 41.2613 238.555 41.0755 238.788 40.8414C239.021 40.6072 239.206 40.3294 239.331 40.0237C239.457 39.718 239.521 39.3905 239.52 39.0601C239.52 38.397 239.256 37.7611 238.787 37.2923C238.319 36.8235 237.683 36.5601 237.02 36.5601C236.357 36.5601 235.721 36.8235 235.252 37.2923C234.783 37.7611 234.52 38.397 234.52 39.0601C234.517 39.3892 234.579 39.7156 234.703 40.0206C234.827 40.3256 235.01 40.6031 235.241 40.8372C235.473 41.0714 235.748 41.2575 236.051 41.385C236.355 41.5125 236.68 41.5788 237.01 41.5801Z" fill="#C8C9DF"/>
<path d="M-0.999615 58.73C-0.999615 59.3028 -0.772034 59.8522 -0.366955 60.2573C0.0381231 60.6624 0.587521 60.89 1.16039 60.89C1.72847 60.8748 2.26912 60.6424 2.67096 60.2405C3.0728 59.8387 3.30524 59.2981 3.32039 58.73C3.31776 58.1579 3.08934 57.61 2.68483 57.2055C2.28032 56.801 1.73245 56.5726 1.16039 56.57C0.875239 56.5645 0.591929 56.6167 0.327411 56.7233C0.0628924 56.8299 -0.177388 56.9888 -0.379056 57.1905C-0.580723 57.3922 -0.739623 57.6325 -0.846249 57.897C-0.952876 58.1615 -1.00505 58.4448 -0.999615 58.73Z" fill="#D7DAEF"/>
<path d="M20.6302 56.01C20.0922 56.01 19.5663 56.1695 19.119 56.4684C18.6717 56.7673 18.3231 57.1921 18.1172 57.6891C17.9113 58.1861 17.8575 58.733 17.9624 59.2607C18.0674 59.7883 18.3264 60.273 18.7068 60.6534C19.0872 61.0337 19.5719 61.2928 20.0995 61.3977C20.6271 61.5027 21.1741 61.4488 21.6711 61.243C22.1681 61.0371 22.5929 60.6885 22.8918 60.2411C23.1906 59.7938 23.3502 59.268 23.3502 58.73C23.3475 58.0094 23.0601 57.3191 22.5506 56.8096C22.0411 56.3001 21.3507 56.0126 20.6302 56.01Z" fill="#C8C9DF"/>
<path d="M40.1396 55.73C39.344 55.73 38.5809 56.046 38.0183 56.6086C37.4557 57.1713 37.1396 57.9343 37.1396 58.73C37.1396 59.5256 37.4557 60.2887 38.0183 60.8513C38.5809 61.4139 39.344 61.73 40.1396 61.73C40.9353 61.73 41.6983 61.4139 42.261 60.8513C42.8236 60.2887 43.1396 59.5256 43.1396 58.73C43.1396 57.9343 42.8236 57.1713 42.261 56.6086C41.6983 56.046 40.9353 55.73 40.1396 55.73Z" fill="#B1B6DD"/>
<path d="M63.5699 58.73C63.5738 57.9965 63.3597 57.2784 62.9546 56.6668C62.5496 56.0553 61.972 55.578 61.2951 55.2955C60.6182 55.013 59.8726 54.938 59.153 55.0801C58.4334 55.2223 57.7723 55.5751 57.2536 56.0937C56.735 56.6124 56.3822 57.2735 56.24 57.9931C56.0979 58.7127 56.1729 59.4582 56.4554 60.1351C56.7379 60.812 57.2153 61.3897 57.8268 61.7947C58.4383 62.1998 59.1564 62.4139 59.8899 62.4099C60.3732 62.4099 60.8517 62.3148 61.2982 62.1298C61.7446 61.9449 62.1503 61.6738 62.492 61.3321C62.8337 60.9904 63.1048 60.5847 63.2898 60.1382C63.4747 59.6917 63.5699 59.2132 63.5699 58.73Z" fill="#C8C9DF"/>
<path d="M84.7697 58.7301C84.7776 57.6679 84.4697 56.6273 83.8852 55.7404C83.3006 54.8534 82.4657 54.1602 81.4864 53.7487C80.5071 53.3372 79.4277 53.2259 78.385 53.429C77.3424 53.632 76.3836 54.1403 75.6304 54.8893C74.8772 55.6383 74.3635 56.5942 74.1545 57.6357C73.9456 58.6772 74.0508 59.7573 74.4568 60.7389C74.8628 61.7204 75.5513 62.5592 76.435 63.1488C77.3186 63.7383 78.3574 64.052 79.4197 64.0501C80.8334 64.0501 82.1897 63.4906 83.1921 62.4937C84.1946 61.4969 84.7617 60.1438 84.7697 58.7301Z" fill="#C8C9DF"/>
<path d="M118.91 54.43C118.065 54.4339 117.24 54.688 116.539 55.1603C115.838 55.6325 115.293 56.3017 114.971 57.0836C114.65 57.8654 114.568 58.7248 114.734 59.5535C114.901 60.3821 115.309 61.1429 115.908 61.7399C116.506 62.3368 117.268 62.7433 118.097 62.9079C118.926 63.0726 119.785 62.9881 120.566 62.6651C121.347 62.3421 122.015 61.7951 122.486 61.093C122.956 60.3909 123.208 59.5652 123.21 58.72C123.212 58.1554 123.101 57.5961 122.886 57.0744C122.67 56.5526 122.353 56.0787 121.953 55.68C121.554 55.2812 121.079 54.9655 120.557 54.7509C120.034 54.5364 119.475 54.4273 118.91 54.43Z" fill="#E2DEE8"/>
<path d="M138.43 52.41C137.179 52.408 135.956 52.777 134.916 53.4702C133.875 54.1635 133.063 55.1498 132.584 56.3045C132.104 57.4591 131.977 58.7302 132.22 59.9568C132.463 61.1834 133.064 62.3105 133.947 63.1954C134.831 64.0802 135.957 64.6831 137.183 64.9278C138.409 65.1725 139.68 65.0479 140.836 64.5699C141.991 64.0918 142.979 63.2818 143.674 62.2422C144.369 61.2027 144.74 59.9804 144.74 58.73C144.745 57.8994 144.585 57.076 144.27 56.3075C143.955 55.539 143.491 54.8406 142.904 54.2528C142.317 53.665 141.619 53.1995 140.851 52.8832C140.083 52.5668 139.26 52.406 138.43 52.41Z" fill="#C8C9DF"/>
<path d="M158.16 53.01C157.029 53.01 155.923 53.3455 154.983 53.974C154.042 54.6025 153.309 55.4959 152.876 56.541C152.443 57.5862 152.33 58.7363 152.55 59.8459C152.771 60.9555 153.316 61.9747 154.116 62.7747C154.916 63.5746 155.935 64.1194 157.045 64.3401C158.154 64.5608 159.304 64.4475 160.349 64.0146C161.395 63.5817 162.288 62.8485 162.916 61.9079C163.545 60.9672 163.88 59.8613 163.88 58.73C163.88 57.9788 163.732 57.235 163.445 56.541C163.158 55.8471 162.736 55.2165 162.205 54.6854C161.674 54.1542 161.043 53.7329 160.349 53.4454C159.655 53.1579 158.912 53.01 158.16 53.01Z" fill="#C8C9DF"/>
<path d="M177.9 53.0899C176.788 53.0859 175.7 53.4117 174.774 54.0259C173.848 54.6402 173.124 55.5153 172.695 56.5407C172.266 57.5661 172.151 58.6957 172.364 59.7867C172.577 60.8776 173.109 61.8809 173.892 62.6696C174.675 63.4584 175.674 63.9972 176.764 64.2179C177.853 64.4387 178.984 64.3314 180.012 63.9097C181.04 63.488 181.921 62.7708 182.541 61.8488C183.162 60.9268 183.496 59.8414 183.5 58.7299C183.502 57.2402 182.915 55.8101 181.865 54.753C180.815 53.6959 179.389 53.0978 177.9 53.0899Z" fill="#B1B6DD"/>
<path d="M197.57 53.8501C196.61 53.8521 195.672 54.1383 194.874 54.6726C194.077 55.207 193.456 55.9655 193.089 56.8526C192.722 57.7396 192.626 58.7155 192.813 59.657C193 60.5986 193.462 61.4636 194.14 62.1431C194.818 62.8226 195.682 63.286 196.623 63.475C197.564 63.664 198.54 63.57 199.428 63.2049C200.316 62.8399 201.076 62.22 201.612 61.4237C202.148 60.6273 202.436 59.69 202.44 58.7301C202.441 58.0897 202.316 57.4554 202.072 56.8634C201.828 56.2714 201.469 55.7333 201.017 55.28C200.564 54.8267 200.027 54.4671 199.436 54.2218C198.844 53.9764 198.21 53.8501 197.57 53.8501Z" fill="#C8C9DF"/>
<path d="M217.3 54.6099C216.489 54.606 215.695 54.8426 215.018 55.2898C214.342 55.737 213.813 56.3748 213.499 57.1224C213.186 57.8701 213.1 58.694 213.255 59.4901C213.409 60.2862 213.796 61.0186 214.366 61.5948C214.937 62.171 215.666 62.5651 216.46 62.7271C217.255 62.8892 218.079 62.812 218.83 62.5054C219.581 62.1987 220.224 61.6763 220.678 61.0043C221.131 60.3323 221.376 59.5408 221.38 58.7299C221.385 58.1908 221.283 57.6559 221.081 57.1563C220.878 56.6566 220.578 56.2021 220.199 55.819C219.819 55.4359 219.368 55.1318 218.87 54.9242C218.373 54.7167 217.839 54.6099 217.3 54.6099Z" fill="#C8C9DF"/>
<path d="M234.46 58.7299C234.465 59.4073 234.737 60.0554 235.216 60.5343C235.695 61.0133 236.343 61.2847 237.02 61.2899C237.526 61.2899 238.021 61.1398 238.442 60.8585C238.863 60.5772 239.191 60.1774 239.385 59.7096C239.579 59.2418 239.63 58.7271 239.531 58.2305C239.432 57.7339 239.188 57.2778 238.83 56.9197C238.472 56.5617 238.016 56.3179 237.519 56.2191C237.023 56.1203 236.508 56.171 236.04 56.3648C235.573 56.5585 235.173 56.8867 234.891 57.3076C234.61 57.7286 234.46 58.2236 234.46 58.7299Z" fill="#C8C9DF"/>
<path d="M96.3496 78.3601C96.3496 79.1558 96.6657 79.9188 97.2283 80.4814C97.7909 81.044 98.554 81.3601 99.3496 81.3601C100.145 81.3601 100.908 81.044 101.471 80.4814C102.034 79.9188 102.35 79.1558 102.35 78.3601C102.35 77.5645 102.034 76.8014 101.471 76.2388C100.908 75.6762 100.145 75.3601 99.3496 75.3601C98.554 75.3601 97.7909 75.6762 97.2283 76.2388C96.6657 76.8014 96.3496 77.5645 96.3496 78.3601Z" fill="#C8C9DF"/>
<path d="M118.95 74.69C118.463 74.6834 117.981 74.7735 117.53 74.9549C117.079 75.1364 116.668 75.4057 116.322 75.7471C115.976 76.0886 115.701 76.4954 115.514 76.9439C115.326 77.3925 115.23 77.8739 115.23 78.3601C115.204 78.8615 115.28 79.3629 115.454 79.8339C115.628 80.3049 115.895 80.7356 116.241 81.0997C116.587 81.4639 117.003 81.7538 117.464 81.952C117.926 82.1502 118.423 82.2523 118.925 82.2523C119.427 82.2523 119.924 82.1502 120.385 81.952C120.846 81.7538 121.262 81.4639 121.608 81.0997C121.954 80.7356 122.222 80.3049 122.396 79.8339C122.569 79.3629 122.646 78.8615 122.62 78.3601C122.622 77.8774 122.529 77.3989 122.346 76.9525C122.162 76.506 121.892 76.1004 121.551 75.759C121.209 75.4177 120.804 75.1475 120.357 74.964C119.911 74.7805 119.432 74.6874 118.95 74.69Z" fill="#C8C9DF"/>
<path d="M138.4 73.69C137.475 73.6979 136.574 73.9793 135.81 74.4988C135.045 75.0182 134.451 75.7525 134.104 76.6089C133.756 77.4653 133.669 78.4055 133.855 79.3109C134.041 80.2164 134.491 81.0465 135.148 81.6966C135.805 82.3468 136.64 82.7877 137.548 82.964C138.455 83.1402 139.394 83.0438 140.247 82.6869C141.099 82.33 141.827 81.7286 142.339 80.9585C142.85 80.1885 143.122 79.2843 143.12 78.36C143.12 77.7425 142.997 77.1311 142.76 76.5612C142.522 75.9913 142.173 75.4743 141.734 75.04C141.295 74.6057 140.775 74.2627 140.202 74.031C139.63 73.7993 139.017 73.6834 138.4 73.69Z" fill="#C8C9DF"/>
<path d="M158.17 73.21C157.145 73.212 156.143 73.5182 155.292 74.0899C154.441 74.6617 153.778 75.4731 153.389 76.4216C152.999 77.37 152.9 78.4128 153.103 79.4177C153.306 80.4227 153.804 81.3447 154.531 82.0669C155.259 82.7891 156.185 83.2791 157.192 83.4748C158.198 83.6704 159.24 83.563 160.185 83.166C161.131 82.7691 161.937 82.1004 162.502 81.2449C163.067 80.3893 163.366 79.3853 163.36 78.36C163.352 76.9896 162.801 75.6782 161.829 74.713C160.856 73.7477 159.54 73.2073 158.17 73.21Z" fill="#C8C9DF"/>
<path d="M177.9 72.89C176.81 72.884 175.742 73.2023 174.833 73.8044C173.924 74.4064 173.215 75.2651 172.795 76.2713C172.375 77.2775 172.263 78.3859 172.474 79.4556C172.686 80.5252 173.21 81.508 173.981 82.279C174.752 83.05 175.735 83.5744 176.804 83.7857C177.874 83.9969 178.982 83.8855 179.989 83.4655C180.995 83.0455 181.854 82.3359 182.456 81.4268C183.058 80.5178 183.376 79.4503 183.37 78.36C183.365 76.9109 182.787 75.5226 181.762 74.4979C180.737 73.4732 179.349 72.8952 177.9 72.89Z" fill="#C8C9DF"/>
<path d="M197.62 74.5601C196.863 74.5562 196.122 74.7774 195.49 75.1956C194.859 75.6138 194.367 76.2102 194.075 76.909C193.783 77.6078 193.706 78.3775 193.853 79.1204C193.999 79.8633 194.364 80.5458 194.899 81.0812C195.435 81.6167 196.117 81.9809 196.86 82.1276C197.603 82.2744 198.373 82.1971 199.071 81.9054C199.77 81.6138 200.367 81.1211 200.785 80.4899C201.203 79.8586 201.424 79.1173 201.42 78.3601C201.418 77.3531 201.016 76.3881 200.304 75.676C199.592 74.964 198.627 74.5628 197.62 74.5601Z" fill="#B1B6DD"/>
<path d="M212.87 78.3501C212.866 78.9319 212.977 79.5087 213.196 80.0477C213.415 80.5867 213.738 81.0773 214.146 81.4914C214.555 81.9056 215.041 82.2352 215.577 82.4615C216.113 82.6877 216.688 82.8062 217.27 82.8101C218.451 82.8023 219.581 82.3299 220.415 81.4951C221.25 80.6604 221.722 79.5306 221.73 78.3501C221.726 77.7688 221.608 77.194 221.381 76.6586C221.155 76.1232 220.825 75.6377 220.411 75.2299C219.997 74.8221 219.506 74.5001 218.967 74.2822C218.428 74.0643 217.852 73.9549 217.27 73.9601C216.692 73.9562 216.119 74.0669 215.584 74.286C215.049 74.5051 214.563 74.8281 214.154 75.2364C213.744 75.6448 213.42 76.1302 213.2 76.6647C212.98 77.1992 212.868 77.772 212.87 78.3501Z" fill="#D7DAEF"/>
<path d="M96.5705 98.0401C96.5705 98.7694 96.8602 99.4689 97.3759 99.9846C97.8916 100.5 98.5911 100.79 99.3205 100.79C99.8728 100.796 100.414 100.637 100.876 100.334C101.338 100.031 101.699 99.597 101.913 99.0879C102.127 98.5787 102.185 98.0172 102.078 97.4752C101.972 96.9331 101.707 96.435 101.316 96.0445C100.925 95.6539 100.427 95.3885 99.8854 95.2822C99.3433 95.1759 98.7819 95.2335 98.2727 95.4476C97.7635 95.6617 97.3296 96.0227 97.0265 96.4844C96.7233 96.9461 96.5645 97.4877 96.5705 98.0401Z" fill="#C8C9DF"/>
<path d="M116.13 98.04C116.13 98.5938 116.294 99.1351 116.602 99.5956C116.909 100.056 117.347 100.415 117.858 100.627C118.37 100.839 118.933 100.894 119.476 100.786C120.019 100.678 120.518 100.411 120.91 100.02C121.301 99.6283 121.568 99.1294 121.676 98.5863C121.784 98.0431 121.729 97.4801 121.517 96.9685C121.305 96.4569 120.946 96.0195 120.485 95.7119C120.025 95.4042 119.484 95.24 118.93 95.24C118.562 95.2387 118.197 95.3102 117.857 95.4504C117.517 95.5907 117.207 95.7969 116.947 96.0571C116.687 96.3174 116.481 96.6266 116.34 96.9669C116.2 97.3072 116.129 97.6719 116.13 98.04Z" fill="#B1B6DD"/>
<path d="M138.41 93.36C137.486 93.3679 136.585 93.649 135.82 94.168C135.056 94.6871 134.462 95.4207 134.114 96.2765C133.766 97.1323 133.679 98.0721 133.864 98.9772C134.049 99.8824 134.498 100.713 135.154 101.363C135.81 102.014 136.644 102.455 137.551 102.633C138.458 102.81 139.397 102.715 140.25 102.36C141.102 102.004 141.831 101.405 142.343 100.636C142.856 99.8671 143.129 98.9639 143.13 98.04C143.128 97.4224 143.005 96.8111 142.767 96.2413C142.529 95.6715 142.18 95.1543 141.742 94.7195C141.303 94.2846 140.783 93.9407 140.211 93.7074C139.639 93.4741 139.027 93.356 138.41 93.36Z" fill="#C8C9DF"/>
<path d="M158.18 93.16C157.524 93.1302 156.869 93.2338 156.254 93.4643C155.639 93.6949 155.077 94.0477 154.602 94.5014C154.127 94.9552 153.749 95.5005 153.491 96.1044C153.233 96.7083 153.1 97.3583 153.1 98.015C153.1 98.6718 153.233 99.3218 153.491 99.9257C153.749 100.53 154.127 101.075 154.602 101.529C155.077 101.982 155.639 102.335 156.254 102.566C156.869 102.796 157.524 102.9 158.18 102.87C159.43 102.813 160.609 102.277 161.473 101.373C162.337 100.468 162.82 99.2658 162.82 98.015C162.82 96.7642 162.337 95.5616 161.473 94.6573C160.609 93.753 159.43 93.2168 158.18 93.16Z" fill="#C8C9DF"/>
<path d="M177.89 94.8101C177.255 94.8062 176.633 94.9908 176.102 95.3407C175.572 95.6905 175.158 96.1899 174.911 96.7755C174.665 97.3611 174.598 98.0066 174.719 98.6303C174.839 99.2541 175.143 99.8279 175.59 100.279C176.037 100.731 176.608 101.039 177.23 101.166C177.853 101.292 178.499 101.231 179.087 100.991C179.675 100.75 180.178 100.34 180.533 99.8128C180.888 99.2859 181.078 98.6654 181.08 98.0301C181.08 97.1813 180.745 96.3668 180.148 95.7638C179.55 95.1608 178.739 94.818 177.89 94.8101Z" fill="#E2DEE8"/>
<path d="M197.57 102.83C198.218 102.86 198.865 102.758 199.473 102.53C200.08 102.302 200.636 101.954 201.105 101.506C201.574 101.058 201.947 100.519 202.202 99.9225C202.457 99.3259 202.589 98.6839 202.589 98.0351C202.589 97.3863 202.457 96.7443 202.202 96.1477C201.947 95.5512 201.574 95.0126 201.105 94.5644C200.636 94.1162 200.08 93.7678 199.473 93.5402C198.865 93.3126 198.218 93.2105 197.57 93.2401C196.922 93.2105 196.274 93.3126 195.667 93.5402C195.059 93.7678 194.504 94.1162 194.035 94.5644C193.566 95.0126 193.193 95.5512 192.937 96.1477C192.682 96.7443 192.551 97.3863 192.551 98.0351C192.551 98.6839 192.682 99.3259 192.937 99.9225C193.193 100.519 193.566 101.058 194.035 101.506C194.504 101.954 195.059 102.302 195.667 102.53C196.274 102.758 196.922 102.86 197.57 102.83Z" fill="#C8C9DF"/>
<path d="M214.2 98.0399C214.201 98.4469 214.283 98.8497 214.441 99.2248C214.599 99.6 214.83 99.9401 215.12 100.226C215.41 100.511 215.754 100.736 216.132 100.888C216.509 101.04 216.913 101.115 217.32 101.11C217.727 101.121 218.131 101.049 218.509 100.899C218.887 100.748 219.231 100.523 219.519 100.236C219.807 99.9486 220.034 99.6059 220.185 99.2284C220.337 98.8509 220.41 98.4466 220.4 98.0399C220.404 97.6325 220.327 97.2282 220.175 96.8505C220.022 96.4728 219.796 96.1291 219.509 95.8391C219.223 95.5491 218.882 95.3186 218.507 95.1609C218.131 95.0031 217.728 94.9212 217.32 94.9199C216.493 94.9199 215.699 95.2486 215.114 95.8337C214.529 96.4189 214.2 97.2124 214.2 98.0399Z" fill="#B1B6DD"/>
<path d="M233.28 98.05C233.301 99.0306 233.706 99.964 234.407 100.65C235.108 101.336 236.049 101.72 237.03 101.72C237.533 101.746 238.036 101.67 238.508 101.495C238.98 101.321 239.412 101.052 239.777 100.706C240.142 100.359 240.433 99.9416 240.632 99.4791C240.83 99.0165 240.933 98.5184 240.933 98.0149C240.933 97.5115 240.83 97.0134 240.632 96.5508C240.433 96.0882 240.142 95.671 239.777 95.3244C239.412 94.9778 238.98 94.7091 238.508 94.5347C238.036 94.3603 237.533 94.2838 237.03 94.3099C236.039 94.3152 235.09 94.7106 234.388 95.4105C233.686 96.1105 233.288 97.0587 233.28 98.05Z" fill="#D7DAEF"/>
<path d="M115.69 117.67C115.69 118.311 115.88 118.937 116.236 119.47C116.593 120.003 117.099 120.418 117.691 120.663C118.283 120.909 118.934 120.973 119.563 120.848C120.191 120.723 120.768 120.414 121.221 119.961C121.675 119.508 121.983 118.931 122.108 118.302C122.233 117.674 122.169 117.022 121.924 116.43C121.679 115.838 121.263 115.332 120.73 114.976C120.198 114.62 119.571 114.43 118.93 114.43C118.505 114.429 118.083 114.512 117.689 114.674C117.295 114.836 116.938 115.075 116.636 115.376C116.335 115.677 116.097 116.035 115.934 116.428C115.772 116.822 115.689 117.244 115.69 117.67Z" fill="#D7DAEF"/>
<path d="M138.43 113.79C137.662 113.788 136.911 114.014 136.272 114.439C135.632 114.864 135.133 115.469 134.838 116.178C134.543 116.887 134.465 117.668 134.613 118.421C134.762 119.174 135.131 119.866 135.673 120.41C136.215 120.954 136.906 121.324 137.659 121.475C138.412 121.625 139.193 121.549 139.903 121.256C140.612 120.962 141.219 120.465 141.645 119.827C142.072 119.188 142.3 118.438 142.3 117.67C142.292 116.645 141.882 115.664 141.159 114.939C140.435 114.213 139.455 113.801 138.43 113.79Z" fill="#C8C9DF"/>
<path d="M158.15 113.29C157.276 113.292 156.421 113.554 155.695 114.041C154.969 114.529 154.404 115.221 154.072 116.03C153.739 116.839 153.655 117.729 153.828 118.586C154.001 119.443 154.425 120.23 155.045 120.846C155.666 121.462 156.455 121.881 157.314 122.048C158.172 122.216 159.061 122.125 159.868 121.787C160.675 121.449 161.363 120.879 161.846 120.15C162.329 119.421 162.584 118.565 162.58 117.69C162.579 117.11 162.463 116.536 162.24 116.001C162.016 115.466 161.689 114.98 161.278 114.571C160.866 114.162 160.378 113.839 159.842 113.619C159.305 113.399 158.73 113.287 158.15 113.29Z" fill="#B1B6DD"/>
<path d="M177.88 112.79C176.909 112.786 175.959 113.071 175.15 113.608C174.341 114.145 173.71 114.91 173.337 115.806C172.963 116.702 172.865 117.689 173.053 118.641C173.242 119.594 173.709 120.468 174.395 121.155C175.082 121.841 175.957 122.308 176.909 122.497C177.861 122.685 178.848 122.587 179.744 122.213C180.641 121.84 181.406 121.209 181.942 120.4C182.479 119.591 182.764 118.641 182.76 117.67C182.764 117.028 182.64 116.392 182.397 115.798C182.153 115.204 181.793 114.665 181.339 114.211C180.886 113.757 180.346 113.397 179.752 113.153C179.158 112.91 178.522 112.786 177.88 112.79Z" fill="#C8C9DF"/>
<path d="M197.64 112.59C196.292 112.59 195 113.125 194.047 114.078C193.095 115.031 192.56 116.323 192.56 117.67C192.56 119.017 193.095 120.31 194.047 121.262C195 122.215 196.292 122.75 197.64 122.75C198.987 122.75 200.279 122.215 201.232 121.262C202.184 120.31 202.72 119.017 202.72 117.67C202.72 116.323 202.184 115.031 201.232 114.078C200.279 113.125 198.987 112.59 197.64 112.59Z" fill="#C8C9DF"/>
<path d="M214.42 117.67C214.42 118.24 214.589 118.796 214.905 119.27C215.222 119.744 215.672 120.113 216.198 120.331C216.724 120.549 217.303 120.606 217.862 120.495C218.42 120.384 218.934 120.109 219.336 119.707C219.739 119.304 220.013 118.791 220.125 118.232C220.236 117.673 220.179 117.094 219.961 116.568C219.743 116.042 219.374 115.592 218.9 115.275C218.426 114.959 217.87 114.79 217.3 114.79C216.921 114.789 216.546 114.862 216.196 115.007C215.846 115.151 215.528 115.363 215.261 115.631C214.993 115.898 214.781 116.216 214.636 116.566C214.492 116.916 214.419 117.291 214.42 117.67Z" fill="#C8C9DF"/>
<path d="M234.29 117.67C234.29 118.212 234.451 118.742 234.752 119.192C235.053 119.643 235.481 119.994 235.981 120.201C236.482 120.409 237.033 120.463 237.565 120.357C238.096 120.252 238.584 119.991 238.968 119.607C239.351 119.224 239.612 118.736 239.717 118.204C239.823 117.673 239.769 117.122 239.561 116.621C239.354 116.121 239.003 115.693 238.552 115.392C238.102 115.091 237.572 114.93 237.03 114.93C236.67 114.929 236.313 114.999 235.98 115.136C235.647 115.273 235.344 115.475 235.09 115.73C234.835 115.984 234.633 116.287 234.496 116.62C234.359 116.953 234.289 117.31 234.29 117.67Z" fill="#D7DAEF"/>
<path d="M116.7 137.36C116.7 137.951 116.935 138.519 117.353 138.937C117.772 139.355 118.339 139.59 118.93 139.59C119.522 139.59 120.089 139.355 120.507 138.937C120.925 138.519 121.16 137.951 121.16 137.36C121.16 136.768 120.925 136.201 120.507 135.783C120.089 135.365 119.522 135.13 118.93 135.13C118.339 135.13 117.772 135.365 117.353 135.783C116.935 136.201 116.7 136.768 116.7 137.36Z" fill="#D7DAEF"/>
<path d="M135.43 137.34C135.43 138.136 135.746 138.899 136.308 139.461C136.871 140.024 137.634 140.34 138.43 140.34C139.023 140.34 139.603 140.164 140.096 139.835C140.59 139.505 140.974 139.036 141.201 138.488C141.428 137.94 141.488 137.337 141.372 136.755C141.256 136.173 140.971 135.638 140.551 135.219C140.131 134.799 139.597 134.513 139.015 134.398C138.433 134.282 137.83 134.341 137.282 134.568C136.733 134.796 136.265 135.18 135.935 135.673C135.606 136.167 135.43 136.747 135.43 137.34Z" fill="#B1B6DD"/>
<path d="M158.17 133.86C157.481 133.858 156.807 134.061 156.234 134.442C155.66 134.823 155.212 135.366 154.947 136.001C154.683 136.637 154.612 137.337 154.745 138.013C154.878 138.689 155.209 139.31 155.695 139.797C156.182 140.285 156.802 140.617 157.477 140.752C158.152 140.888 158.853 140.819 159.489 140.556C160.126 140.293 160.67 139.847 161.053 139.275C161.435 138.702 161.64 138.029 161.64 137.34C161.642 136.883 161.554 136.43 161.381 136.008C161.208 135.585 160.952 135.201 160.63 134.877C160.307 134.553 159.924 134.297 159.501 134.123C159.079 133.948 158.627 133.859 158.17 133.86Z" fill="#C8C9DF"/>
<path d="M177.92 132.98C177.056 132.972 176.209 133.221 175.486 133.695C174.764 134.169 174.199 134.848 173.863 135.644C173.527 136.439 173.435 137.317 173.598 138.166C173.762 139.014 174.174 139.795 174.782 140.408C175.39 141.022 176.167 141.441 177.014 141.613C177.861 141.784 178.74 141.7 179.539 141.372C180.338 141.043 181.021 140.484 181.502 139.766C181.983 139.048 182.24 138.204 182.24 137.34C182.234 136.192 181.779 135.092 180.971 134.277C180.163 133.461 179.067 132.996 177.92 132.98Z" fill="#C8C9DF"/>
<path d="M197.57 133.14C196.74 133.142 195.929 133.39 195.239 133.853C194.55 134.316 194.013 134.972 193.697 135.74C193.38 136.507 193.299 137.352 193.462 138.166C193.625 138.98 194.026 139.727 194.614 140.314C195.201 140.9 195.95 141.299 196.764 141.46C197.579 141.621 198.423 141.538 199.189 141.219C199.956 140.901 200.612 140.363 201.073 139.672C201.534 138.982 201.78 138.17 201.78 137.34C201.78 136.788 201.671 136.241 201.459 135.731C201.248 135.22 200.937 134.757 200.546 134.367C200.155 133.977 199.691 133.667 199.18 133.457C198.67 133.247 198.122 133.139 197.57 133.14Z" fill="#B1B6DD"/>
<path d="M219.7 137.34C219.7 136.865 219.56 136.401 219.296 136.007C219.032 135.612 218.657 135.304 218.219 135.123C217.78 134.941 217.298 134.893 216.832 134.986C216.367 135.079 215.939 135.307 215.603 135.643C215.268 135.979 215.039 136.406 214.947 136.872C214.854 137.337 214.901 137.82 215.083 138.258C215.265 138.697 215.572 139.072 215.967 139.335C216.362 139.599 216.826 139.74 217.3 139.74C217.936 139.737 218.545 139.484 218.995 139.034C219.444 138.585 219.698 137.976 219.7 137.34Z" fill="#C8C9DF"/>
<path d="M234.76 137.36C234.798 137.935 235.053 138.473 235.474 138.867C235.894 139.261 236.449 139.479 237.025 139.479C237.601 139.479 238.155 139.261 238.576 138.867C238.996 138.473 239.252 137.935 239.29 137.36C239.31 137.05 239.267 136.739 239.163 136.446C239.058 136.154 238.895 135.885 238.682 135.658C238.47 135.432 238.213 135.251 237.928 135.127C237.643 135.003 237.336 134.939 237.025 134.939C236.714 134.939 236.407 135.003 236.122 135.127C235.836 135.251 235.58 135.432 235.367 135.658C235.155 135.885 234.992 136.154 234.887 136.446C234.783 136.739 234.739 137.05 234.76 137.36Z" fill="#D7DAEF"/>
<path d="M136.05 156.96C136.047 157.273 136.107 157.583 136.226 157.873C136.345 158.162 136.52 158.425 136.742 158.645C136.963 158.866 137.227 159.04 137.517 159.158C137.807 159.276 138.117 159.334 138.43 159.33C139.057 159.325 139.657 159.073 140.1 158.63C140.543 158.187 140.795 157.587 140.8 156.96C140.796 156.653 140.732 156.349 140.61 156.067C140.489 155.784 140.313 155.529 140.093 155.314C139.873 155.1 139.613 154.931 139.328 154.817C139.042 154.703 138.737 154.646 138.43 154.65C138.12 154.639 137.812 154.691 137.523 154.803C137.234 154.914 136.97 155.083 136.748 155.298C136.526 155.514 136.349 155.772 136.229 156.058C136.109 156.344 136.048 156.65 136.05 156.96Z" fill="#D7DAEF"/>
<path d="M158.13 152.61C156.973 152.61 155.864 153.069 155.047 153.887C154.229 154.705 153.77 155.814 153.77 156.97C153.77 158.126 154.229 159.235 155.047 160.053C155.864 160.871 156.973 161.33 158.13 161.33C159.286 161.33 160.395 160.871 161.212 160.053C162.03 159.235 162.49 158.126 162.49 156.97C162.49 155.814 162.03 154.705 161.212 153.887C160.395 153.069 159.286 152.61 158.13 152.61Z" fill="#B1B6DD"/>
<path d="M177.88 152.77C177.049 152.77 176.237 153.016 175.546 153.478C174.856 153.939 174.317 154.595 173.999 155.363C173.682 156.13 173.598 156.975 173.76 157.789C173.922 158.604 174.322 159.352 174.91 159.94C175.497 160.527 176.246 160.927 177.06 161.089C177.875 161.251 178.72 161.168 179.487 160.85C180.254 160.532 180.91 159.994 181.372 159.303C181.833 158.613 182.08 157.801 182.08 156.97C182.08 155.856 181.637 154.788 180.85 154C180.062 153.212 178.994 152.77 177.88 152.77Z" fill="#C8C9DF"/>
<path d="M214.84 156.97C214.842 157.627 215.105 158.256 215.569 158.721C216.034 159.185 216.663 159.447 217.32 159.45C217.643 159.447 217.962 159.381 218.26 159.255C218.557 159.129 218.827 158.946 219.053 158.715C219.28 158.485 219.459 158.212 219.58 157.913C219.701 157.613 219.762 157.293 219.76 156.97C219.763 156.649 219.701 156.33 219.58 156.033C219.458 155.736 219.278 155.466 219.051 155.239C218.824 155.012 218.554 154.832 218.257 154.71C217.96 154.589 217.641 154.527 217.32 154.53C216.997 154.527 216.676 154.588 216.377 154.709C216.077 154.831 215.805 155.01 215.574 155.236C215.344 155.463 215.161 155.733 215.035 156.03C214.909 156.327 214.842 156.647 214.84 156.97Z" fill="#B1B6DD"/>
<path d="M235.57 156.96C235.564 157.154 235.596 157.348 235.665 157.53C235.734 157.711 235.839 157.877 235.973 158.018C236.107 158.158 236.268 158.271 236.446 158.349C236.624 158.426 236.816 158.468 237.01 158.47C237.214 158.487 237.419 158.461 237.613 158.395C237.806 158.328 237.984 158.222 238.134 158.084C238.285 157.945 238.405 157.777 238.487 157.589C238.569 157.402 238.612 157.2 238.612 156.995C238.612 156.791 238.569 156.588 238.487 156.401C238.405 156.213 238.285 156.045 238.134 155.906C237.984 155.768 237.806 155.662 237.613 155.595C237.419 155.529 237.214 155.503 237.01 155.52C236.628 155.52 236.262 155.672 235.992 155.942C235.722 156.212 235.57 156.578 235.57 156.96Z" fill="#D7DAEF"/>
<path d="M136.34 176.66C136.34 176.93 136.394 177.198 136.5 177.447C136.606 177.696 136.762 177.92 136.957 178.107C137.152 178.294 137.384 178.439 137.637 178.534C137.89 178.63 138.16 178.672 138.43 178.66C138.969 178.666 139.49 178.459 139.879 178.085C140.267 177.711 140.494 177.199 140.51 176.66C140.5 176.111 140.278 175.586 139.89 175.197C139.502 174.807 138.979 174.583 138.43 174.57C137.876 174.573 137.346 174.794 136.955 175.185C136.564 175.577 136.342 176.107 136.34 176.66Z" fill="#D7DAEF"/>
<path d="M195.8 176.64C195.8 176.996 195.905 177.344 196.103 177.64C196.301 177.936 196.582 178.167 196.911 178.303C197.24 178.439 197.602 178.475 197.951 178.405C198.3 178.336 198.621 178.164 198.873 177.913C199.124 177.661 199.296 177.34 199.365 176.991C199.435 176.642 199.399 176.28 199.263 175.951C199.127 175.622 198.896 175.341 198.6 175.143C198.304 174.945 197.956 174.84 197.6 174.84C197.363 174.839 197.128 174.884 196.909 174.974C196.69 175.064 196.491 175.197 196.324 175.364C196.157 175.532 196.024 175.731 195.934 175.949C195.844 176.168 195.799 176.403 195.8 176.64Z" fill="#C8C9DF"/>
<path d="M120.4 196.29C120.387 195.912 120.232 195.553 119.964 195.286C119.697 195.018 119.338 194.863 118.96 194.85C118.562 194.85 118.181 195.008 117.899 195.289C117.618 195.571 117.46 195.952 117.46 196.35C117.46 196.748 117.618 197.129 117.899 197.411C118.181 197.692 118.562 197.85 118.96 197.85C119.349 197.835 119.717 197.668 119.986 197.386C120.254 197.105 120.403 196.729 120.4 196.34" fill="#D7DAEF"/>
<path d="M136.57 196.29C136.552 196.542 136.585 196.796 136.669 197.035C136.753 197.273 136.885 197.492 137.057 197.678C137.229 197.863 137.438 198.011 137.67 198.112C137.902 198.213 138.152 198.266 138.405 198.266C138.658 198.266 138.909 198.213 139.141 198.112C139.373 198.011 139.581 197.863 139.754 197.678C139.926 197.492 140.058 197.273 140.142 197.035C140.225 196.796 140.259 196.542 140.24 196.29C140.259 196.038 140.225 195.784 140.142 195.545C140.058 195.307 139.926 195.088 139.754 194.902C139.581 194.717 139.373 194.569 139.141 194.468C138.909 194.367 138.658 194.314 138.405 194.314C138.152 194.314 137.902 194.367 137.67 194.468C137.438 194.569 137.229 194.717 137.057 194.902C136.885 195.088 136.753 195.307 136.669 195.545C136.585 195.784 136.552 196.038 136.57 196.29Z" fill="#D7DAEF"/>
<path d="M158.21 193.8C157.714 193.796 157.228 193.94 156.814 194.213C156.4 194.486 156.076 194.877 155.885 195.334C155.693 195.792 155.642 196.296 155.738 196.783C155.833 197.27 156.072 197.717 156.423 198.068C156.774 198.419 157.221 198.657 157.708 198.753C158.194 198.849 158.699 198.798 159.156 198.606C159.614 198.414 160.004 198.091 160.277 197.677C160.551 197.262 160.694 196.776 160.69 196.28C160.683 195.625 160.419 194.999 159.955 194.535C159.492 194.072 158.866 193.808 158.21 193.8Z" fill="#C8C9DF"/>
<path d="M174.88 196.29C174.88 196.883 175.056 197.463 175.385 197.957C175.715 198.45 176.184 198.835 176.732 199.062C177.28 199.289 177.883 199.348 178.465 199.232C179.047 199.117 179.582 198.831 180.001 198.411C180.421 197.992 180.706 197.457 180.822 196.875C180.938 196.293 180.879 195.69 180.652 195.142C180.424 194.594 180.04 194.125 179.547 193.796C179.053 193.466 178.473 193.29 177.88 193.29C177.084 193.29 176.321 193.606 175.759 194.169C175.196 194.731 174.88 195.494 174.88 196.29Z" fill="#C8C9DF"/>
<path d="M196.14 196.29C196.135 196.482 196.168 196.673 196.238 196.852C196.308 197.031 196.414 197.193 196.548 197.331C196.682 197.468 196.843 197.577 197.02 197.65C197.198 197.724 197.388 197.761 197.58 197.76C197.781 197.777 197.984 197.751 198.175 197.686C198.366 197.62 198.541 197.516 198.69 197.379C198.838 197.242 198.957 197.076 199.038 196.891C199.119 196.707 199.161 196.507 199.161 196.305C199.161 196.103 199.119 195.903 199.038 195.718C198.957 195.534 198.838 195.368 198.69 195.231C198.541 195.094 198.366 194.99 198.175 194.924C197.984 194.859 197.781 194.833 197.58 194.85C197.391 194.849 197.203 194.885 197.028 194.957C196.852 195.029 196.693 195.135 196.559 195.269C196.425 195.403 196.319 195.562 196.247 195.737C196.175 195.913 196.139 196.1 196.14 196.29Z" fill="#C8C9DF"/>
<path d="M120.19 215.95C120.184 215.701 120.104 215.459 119.96 215.255C119.817 215.051 119.617 214.895 119.384 214.805C119.152 214.715 118.898 214.696 118.655 214.751C118.412 214.805 118.19 214.93 118.018 215.111C117.846 215.291 117.731 215.518 117.689 215.764C117.646 216.009 117.677 216.262 117.778 216.49C117.878 216.718 118.044 216.911 118.255 217.044C118.465 217.178 118.71 217.246 118.96 217.24C119.292 217.227 119.606 217.085 119.836 216.844C120.066 216.603 120.192 216.283 120.19 215.95Z" fill="#D7DAEF"/>
<path d="M136.63 215.96C136.64 216.428 136.836 216.872 137.173 217.196C137.51 217.521 137.962 217.698 138.43 217.69C138.894 217.685 139.339 217.504 139.673 217.182C140.008 216.861 140.207 216.423 140.23 215.96C140.22 215.486 140.027 215.034 139.691 214.698C139.356 214.363 138.904 214.17 138.43 214.16C138.193 214.159 137.959 214.204 137.74 214.294C137.521 214.384 137.322 214.517 137.154 214.684C136.987 214.852 136.854 215.051 136.764 215.27C136.674 215.489 136.629 215.723 136.63 215.96Z" fill="#D7DAEF"/>
<path d="M156.15 215.95C156.15 216.48 156.361 216.989 156.736 217.364C157.111 217.739 157.62 217.95 158.15 217.95C158.681 217.95 159.19 217.739 159.565 217.364C159.94 216.989 160.15 216.48 160.15 215.95C160.15 215.42 159.94 214.911 159.565 214.536C159.19 214.161 158.681 213.95 158.15 213.95C157.62 213.95 157.111 214.161 156.736 214.536C156.361 214.911 156.15 215.42 156.15 215.95Z" fill="#C8C9DF"/>
<path d="M175.68 215.95C175.68 216.533 175.911 217.093 176.324 217.506C176.737 217.918 177.296 218.15 177.88 218.15C178.463 218.15 179.023 217.918 179.435 217.506C179.848 217.093 180.08 216.533 180.08 215.95C180.08 215.366 179.848 214.807 179.435 214.394C179.023 213.982 178.463 213.75 177.88 213.75C177.296 213.75 176.737 213.982 176.324 214.394C175.911 214.807 175.68 215.366 175.68 215.95Z" fill="#C8C9DF"/>
<path d="M139.51 235.58C139.516 235.305 139.415 235.04 139.228 234.838C139.042 234.637 138.784 234.515 138.51 234.5C138.215 234.492 137.928 234.601 137.713 234.803C137.498 235.005 137.371 235.285 137.36 235.58C137.36 235.728 137.39 235.874 137.449 236.01C137.507 236.146 137.593 236.268 137.701 236.369C137.809 236.471 137.936 236.549 138.076 236.599C138.215 236.649 138.363 236.669 138.51 236.66C138.649 236.66 138.786 236.632 138.912 236.577C139.039 236.522 139.153 236.441 139.247 236.339C139.341 236.238 139.413 236.118 139.458 235.987C139.504 235.856 139.521 235.718 139.51 235.58Z" fill="#D7DAEF"/>
<path d="M156.37 235.57C156.369 235.806 156.415 236.041 156.505 236.259C156.595 236.477 156.727 236.676 156.895 236.842C157.063 237.009 157.262 237.141 157.48 237.229C157.699 237.318 157.934 237.363 158.17 237.36C158.637 237.36 159.085 237.175 159.415 236.845C159.745 236.515 159.93 236.067 159.93 235.6C159.93 235.133 159.745 234.686 159.415 234.356C159.085 234.026 158.637 233.84 158.17 233.84C157.702 233.832 157.251 234.01 156.913 234.334C156.576 234.658 156.381 235.102 156.37 235.57Z" fill="#D7DAEF"/>
<path d="M178.96 235.58C178.965 235.305 178.864 235.04 178.678 234.838C178.491 234.637 178.234 234.515 177.96 234.5C177.664 234.492 177.378 234.601 177.162 234.803C176.947 235.005 176.82 235.285 176.81 235.58C176.809 235.728 176.839 235.874 176.898 236.01C176.957 236.146 177.042 236.268 177.15 236.369C177.258 236.471 177.386 236.549 177.525 236.599C177.664 236.649 177.812 236.669 177.96 236.66C178.098 236.66 178.235 236.632 178.362 236.577C178.489 236.522 178.603 236.441 178.697 236.339C178.791 236.238 178.862 236.118 178.908 235.987C178.953 235.856 178.971 235.718 178.96 235.58Z" fill="#D7DAEF"/>
<path d="M177.77 173.85C177.038 173.868 176.342 174.173 175.832 174.698C175.321 175.223 175.037 175.928 175.04 176.66C175.04 177.385 175.327 178.08 175.839 178.594C176.351 179.108 177.045 179.397 177.77 179.4C177.83 179.4 177.82 179.29 177.88 179.29C177.94 179.29 177.88 179.4 177.99 179.4C178.717 179.4 179.414 179.111 179.928 178.598C180.441 178.084 180.73 177.387 180.73 176.66C180.73 175.933 180.441 175.236 179.928 174.723C179.414 174.209 178.717 173.92 177.99 173.92C177.94 173.92 177.99 174 177.91 174C177.83 174 177.85 173.85 177.77 173.85Z" fill="#D7DAEF"/>
<path d="M158.2 174.56C157.648 174.56 157.119 174.779 156.729 175.169C156.339 175.559 156.12 176.088 156.12 176.64C156.13 177.189 156.352 177.714 156.74 178.103C157.128 178.493 157.651 178.717 158.2 178.73C158.74 178.709 159.25 178.48 159.623 178.09C159.996 177.7 160.203 177.18 160.2 176.64C160.211 176.371 160.167 176.102 160.071 175.85C159.976 175.598 159.83 175.368 159.643 175.174C159.457 174.98 159.232 174.825 158.984 174.72C158.736 174.614 158.47 174.56 158.2 174.56Z" fill="#D7DAEF"/>
<path d="M196.02 157.01C196.02 157.424 196.184 157.82 196.477 158.113C196.769 158.406 197.166 158.57 197.58 158.57C197.999 158.57 198.401 158.403 198.697 158.107C198.993 157.811 199.16 157.409 199.16 156.99C199.16 156.571 198.993 156.169 198.697 155.873C198.401 155.576 197.999 155.41 197.58 155.41C197.372 155.411 197.166 155.454 196.975 155.535C196.784 155.616 196.611 155.735 196.465 155.884C196.32 156.033 196.206 156.209 196.13 156.402C196.053 156.595 196.016 156.802 196.02 157.01Z" fill="#C8C9DF"/>
<path d="M235.87 78.35C235.862 78.5073 235.886 78.6646 235.94 78.8123C235.995 78.9601 236.079 79.0951 236.188 79.2093C236.296 79.3234 236.427 79.4143 236.572 79.4763C236.716 79.5383 236.872 79.5702 237.03 79.57C237.338 79.5431 237.625 79.404 237.837 79.179C238.049 78.9541 238.171 78.659 238.18 78.35C238.172 78.0464 238.049 77.7572 237.835 77.5415C237.622 77.3258 237.333 77.2001 237.03 77.19C236.875 77.1813 236.721 77.2053 236.576 77.2606C236.431 77.3158 236.3 77.4009 236.19 77.5104C236.081 77.6199 235.996 77.7513 235.94 77.896C235.885 78.0407 235.861 78.1954 235.87 78.35Z" fill="#D7DAEF"/>
<path d="M104.75 58.7601C104.756 57.6884 104.443 56.6391 103.852 55.7453C103.26 54.8514 102.417 54.1534 101.428 53.7396C100.44 53.3258 99.3507 53.2149 98.299 53.4211C97.2473 53.6273 96.2806 54.1412 95.5214 54.8975C94.7621 55.6539 94.2447 56.6188 94.0346 57.6697C93.8246 58.7206 93.9314 59.8102 94.3415 60.8003C94.7516 61.7905 95.4465 62.6365 96.3382 63.2311C97.2298 63.8257 98.2779 64.142 99.3496 64.1401C100.778 64.1401 102.149 63.5739 103.161 62.5655C104.173 61.5571 104.744 60.1888 104.75 58.7601Z" fill="#858BB5"/>
<path d="M118.93 34.94C118.11 34.936 117.308 35.1752 116.625 35.6273C115.942 36.0793 115.408 36.7239 115.091 37.4795C114.775 38.235 114.689 39.0675 114.846 39.8717C115.003 40.6758 115.394 41.4153 115.971 41.9967C116.549 42.5781 117.285 42.9752 118.088 43.1377C118.891 43.3002 119.724 43.2208 120.482 42.9096C121.24 42.5984 121.889 42.0693 122.346 41.3894C122.803 40.7095 123.048 39.9092 123.05 39.09C123.052 37.9937 122.62 36.9412 121.848 36.1632C121.075 35.3852 120.026 34.9453 118.93 34.94Z" fill="#858BB5"/>
<path d="M99.3504 44.51C100.42 44.51 101.466 44.1927 102.356 43.5982C103.246 43.0038 103.939 42.1588 104.349 41.1703C104.758 40.1817 104.865 39.0939 104.657 38.0445C104.448 36.9951 103.932 36.0311 103.176 35.2745C102.419 34.5179 101.455 34.0026 100.406 33.7939C99.3565 33.5851 98.2687 33.6923 97.2801 34.1018C96.2916 34.5112 95.4466 35.2046 94.8522 36.0943C94.2577 36.984 93.9404 38.03 93.9404 39.1C93.9391 39.8108 94.0781 40.5149 94.3496 41.1718C94.621 41.8288 95.0194 42.4257 95.522 42.9284C96.0247 43.431 96.6216 43.8294 97.2786 44.1008C97.9355 44.3723 98.6396 44.5113 99.3504 44.51Z" fill="#858BB5"/>
<path d="M79.44 45.0201C81.0154 45.0201 82.5263 44.3943 83.6402 43.2803C84.7542 42.1664 85.38 40.6555 85.38 39.0801C85.38 37.5048 84.7542 35.9939 83.6402 34.8799C82.5263 33.7659 81.0154 33.1401 79.44 33.1401C77.8646 33.1401 76.3538 33.7659 75.2398 34.8799C74.1258 35.9939 73.5 37.5048 73.5 39.0801C73.5 40.6555 74.1258 42.1664 75.2398 43.2803C76.3538 44.3943 77.8646 45.0201 79.44 45.0201Z" fill="#B1B6DD"/>
<path d="M234.68 19.3999C234.685 20.0353 234.935 20.6441 235.379 21.0989C235.822 21.5538 236.425 21.8193 237.06 21.8399C237.686 21.8139 238.277 21.5442 238.706 21.0882C239.136 20.6323 239.371 20.0264 239.36 19.3999C239.364 19.0963 239.307 18.795 239.193 18.5136C239.079 18.2321 238.91 17.9764 238.696 17.7612C238.481 17.546 238.226 17.3758 237.945 17.2605C237.664 17.1452 237.363 17.0873 237.06 17.0899C236.752 17.0847 236.445 17.1403 236.159 17.2536C235.872 17.367 235.611 17.5358 235.39 17.7505C235.169 17.9651 234.992 18.2213 234.87 18.5044C234.748 18.7874 234.684 19.0918 234.68 19.3999Z" fill="#D7DAEF"/>
<path d="M59.8503 25.7401C61.1007 25.7401 62.323 25.3692 63.3625 24.6743C64.4021 23.9794 65.2121 22.9918 65.6902 21.8363C66.1682 20.6809 66.2928 19.4097 66.0481 18.1835C65.8034 16.9572 65.2005 15.8311 64.3157 14.9477C63.4308 14.0642 62.3037 13.463 61.0771 13.2203C59.8505 12.9776 58.5794 13.1042 57.4248 13.5841C56.2701 14.0639 55.2838 14.8755 54.5905 15.9162C53.8973 16.9568 53.5283 18.1797 53.5303 19.4301C53.529 20.26 53.6916 21.0819 54.0089 21.8487C54.3262 22.6155 54.7918 23.3121 55.379 23.8985C55.9663 24.4848 56.6636 24.9493 57.4309 25.2654C58.1982 25.5814 59.0204 25.7428 59.8503 25.7401Z" fill="#C8C9DF"/>
<path d="M234.11 -0.210111C234.114 0.365258 234.287 0.926617 234.609 1.40351C234.931 1.88039 235.387 2.25156 235.919 2.47037C236.451 2.68918 237.036 2.74587 237.6 2.63336C238.165 2.52086 238.683 2.24415 239.091 1.83798C239.498 1.43182 239.777 0.914296 239.891 0.350405C240.006 -0.213486 239.951 -0.798615 239.734 -1.33151C239.517 -1.86441 239.147 -2.32131 238.671 -2.64486C238.196 -2.96842 237.635 -3.14419 237.06 -3.15011C236.671 -3.15547 236.286 -3.08316 235.927 -2.93744C235.567 -2.79171 235.24 -2.57552 234.965 -2.30157C234.69 -2.02763 234.473 -1.70146 234.326 -1.34228C234.179 -0.983106 234.105 -0.598164 234.11 -0.210111Z" fill="#D7DAEF"/>
<path d="M118.93 -5.47986C118.218 -5.51087 117.507 -5.39742 116.84 -5.14631C116.173 -4.89519 115.563 -4.51163 115.049 -4.01874C114.534 -3.52586 114.124 -2.93385 113.844 -2.27839C113.564 -1.62292 113.42 -0.917589 113.42 -0.204869C113.42 0.507852 113.564 1.21319 113.844 1.86865C114.124 2.52411 114.534 3.11612 115.049 3.609C115.563 4.10189 116.173 4.48546 116.84 4.73657C117.507 4.98768 118.218 5.10114 118.93 5.07013C120.289 5.01093 121.573 4.4293 122.514 3.44653C123.455 2.46375 123.98 1.1557 123.98 -0.204869C123.98 -1.56544 123.455 -2.87349 122.514 -3.85627C121.573 -4.83904 120.289 -5.42067 118.93 -5.47986Z" fill="#C8C9DF"/>
<path d="M40.1997 75.8599C39.6996 75.852 39.2085 75.993 38.7889 76.2651C38.3692 76.5371 38.04 76.9278 37.8431 77.3875C37.6463 77.8472 37.5906 78.3551 37.6833 78.8466C37.776 79.338 38.0127 79.7908 38.3635 80.1472C38.7143 80.5036 39.1632 80.7477 39.6531 80.8482C40.143 80.9487 40.6517 80.9012 41.1145 80.7117C41.5773 80.5222 41.9733 80.1993 42.252 79.784C42.5307 79.3688 42.6796 78.88 42.6796 78.3799C42.6797 77.7185 42.4197 77.0835 41.9558 76.612C41.4918 76.1406 40.861 75.8704 40.1997 75.8599Z" fill="#C8C9DF"/>
</g>
</g>
</g>
</g>
<defs>
<filter id="filter0_di_1569_66880" x="0" y="0" width="270" height="270" filterUnits="userSpaceOnUse" color-interpolation-filters="sRGB">
<feFlood flood-opacity="0" result="BackgroundImageFix"/>
<feColorMatrix in="SourceAlpha" type="matrix" values="0 0 0 0 0 0 0 0 0 0 0 0 0 0 0 0 0 0 127 0" result="hardAlpha"/>
<feOffset dx="9" dy="10"/>
<feGaussianBlur stdDeviation="5"/>
<feComposite in2="hardAlpha" operator="out"/>
<feColorMatrix type="matrix" values="0 0 0 0 0.346667 0 0 0 0 0.346667 0 0 0 0 0.346667 0 0 0 0.25 0"/>
<feBlend mode="normal" in2="BackgroundImageFix" result="effect1_dropShadow_1569_66880"/>
<feBlend mode="normal" in="SourceGraphic" in2="effect1_dropShadow_1569_66880" result="shape"/>
<feColorMatrix in="SourceAlpha" type="matrix" values="0 0 0 0 0 0 0 0 0 0 0 0 0 0 0 0 0 0 127 0" result="hardAlpha"/>
<feOffset dx="9" dy="10"/>
<feGaussianBlur stdDeviation="5"/>
<feComposite in2="hardAlpha" operator="arithmetic" k2="-1" k3="1"/>
<feColorMatrix type="matrix" values="0 0 0 0 1 0 0 0 0 1 0 0 0 0 1 0 0 0 0.25 0"/>
<feBlend mode="normal" in2="shape" result="effect2_innerShadow_1569_66880"/>
</filter>
<filter id="filter1_di_1569_66880" x="0" y="0" width="270" height="270" filterUnits="userSpaceOnUse" color-interpolation-filters="sRGB">
<feFlood flood-opacity="0" result="BackgroundImageFix"/>
<feColorMatrix in="SourceAlpha" type="matrix" values="0 0 0 0 0 0 0 0 0 0 0 0 0 0 0 0 0 0 127 0" result="hardAlpha"/>
<feOffset dx="9" dy="10"/>
<feGaussianBlur stdDeviation="5"/>
<feComposite in2="hardAlpha" operator="out"/>
<feColorMatrix type="matrix" values="0 0 0 0 0.346667 0 0 0 0 0.346667 0 0 0 0 0.346667 0 0 0 0.25 0"/>
<feBlend mode="normal" in2="BackgroundImageFix" result="effect1_dropShadow_1569_66880"/>
<feBlend mode="normal" in="SourceGraphic" in2="effect1_dropShadow_1569_66880" result="shape"/>
<feColorMatrix in="SourceAlpha" type="matrix" values="0 0 0 0 0 0 0 0 0 0 0 0 0 0 0 0 0 0 127 0" result="hardAlpha"/>
<feOffset dx="9" dy="10"/>
<feGaussianBlur stdDeviation="5"/>
<feComposite in2="hardAlpha" operator="arithmetic" k2="-1" k3="1"/>
<feColorMatrix type="matrix" values="0 0 0 0 1 0 0 0 0 1 0 0 0 0 1 0 0 0 0.25 0"/>
<feBlend mode="normal" in2="shape" result="effect2_innerShadow_1569_66880"/>
</filter>
<clipPath id="clip0_1569_66880">
<rect x="1" width="250" height="250" rx="125" fill="white"/>
</clipPath>
<clipPath id="clip1_1569_66880">
<rect width="476.52" height="579.45" fill="white" transform="translate(-160 -303)"/>
</clipPath>
</defs>
</svg>
