<svg width="222" height="104" viewBox="0 0 222 104" fill="none" xmlns="http://www.w3.org/2000/svg">
<path d="M15.622 7.22422C14.2024 7.8442 13.0734 8.9833 12.4661 10.4084C12.1581 11.1397 12 11.9254 12.0011 12.719V18.6223H17.9045V24.582H12.0011V48.0966H6.16825V24.582H0.419922V18.6223H6.05555V12.719C6.04434 11.1523 6.36609 9.60115 6.99952 8.16821C7.60083 6.77016 8.4613 5.49854 9.53554 4.42051C10.621 3.33913 11.9088 2.48216 13.3255 1.89855C14.7826 1.29986 16.3432 0.993488 17.9186 0.996854V6.7593C17.1337 6.75365 16.3563 6.91199 15.6361 7.22422" fill="#DFD5C4"/>
<path d="M37.1371 18.1463C39.1535 18.1414 41.149 18.5539 42.9982 19.3579C44.7995 20.1214 46.4358 21.2266 47.8167 22.6125C49.1995 23.9959 50.3043 25.6315 51.0712 27.431C51.8752 29.2801 52.2878 31.2756 52.2829 33.292C52.2967 35.3184 51.8838 37.3249 51.0712 39.1812C50.3003 40.9701 49.1958 42.5959 47.8167 43.9716C46.4358 45.3574 44.7995 46.4627 42.9982 47.2261C41.1426 48.0255 39.1435 48.4378 37.1231 48.4378C35.1026 48.4378 33.1035 48.0255 31.2479 47.2261C27.6434 45.6614 24.7678 42.7858 23.203 39.1812C22.3953 37.3239 21.9873 35.3174 22.0055 33.292C21.9957 31.2766 22.4035 29.281 23.203 27.431C24.7511 23.8085 27.6309 20.9186 31.2479 19.3579C33.1047 18.5469 35.1109 18.1342 37.1371 18.1463ZM37.1371 42.3372C38.379 42.3458 39.61 42.1063 40.758 41.6328C41.8487 41.183 42.8398 40.5222 43.6745 39.6885C44.4894 38.876 45.1484 37.9209 45.6188 36.8707C46.0852 35.7555 46.3201 34.5571 46.3091 33.3484C46.329 32.138 46.1062 30.9358 45.6536 29.813C45.2011 28.6902 44.5281 27.6694 43.6745 26.811C41.9306 25.1011 39.5793 24.1535 37.1371 24.1764C35.9268 24.1634 34.7271 24.4034 33.6149 24.8808C32.5645 25.3447 31.6091 25.9992 30.797 26.811C29.9633 27.6457 29.3026 28.6368 28.8528 29.7275C28.3803 30.8758 28.1409 32.1067 28.1483 33.3484C28.1428 34.5371 28.3741 35.715 28.8289 36.8132C29.2837 37.9115 29.9527 38.9081 30.797 39.7448C31.6046 40.5656 32.5609 41.2254 33.6149 41.6891C34.7291 42.16 35.9274 42.3997 37.1371 42.3936" fill="#DFD5C4"/>
<path d="M73.8399 18.4871V24.4467H70.8248C69.6517 24.4424 68.4906 24.6824 67.4152 25.1512C66.3739 25.6068 65.4203 26.241 64.5974 27.0251C63.7955 27.8124 63.1501 28.7446 62.6954 29.7724C62.2249 30.8423 61.9849 31.9992 61.9909 33.1679V47.9614H56.2285V18.4871H61.9909V21.5021C63.289 20.57 64.7119 19.8254 66.2177 19.2901C67.7093 18.7552 69.2824 18.4835 70.867 18.4871H73.8399Z" fill="#DFD5C4"/>
<path d="M101.847 36.4362H84.7574C85.3786 38.1668 86.5019 39.6728 87.9837 40.7615C89.5058 41.9025 91.3653 42.5025 93.2671 42.4663C94.5641 42.5174 95.8563 42.2797 97.0502 41.7704C98.2441 41.2612 99.31 40.4931 100.171 39.5217H107.201C106.106 42.1818 104.23 44.4467 101.819 46.0167C99.7131 47.3796 97.3076 48.2109 94.8093 48.4391C92.3111 48.6674 89.7948 48.2858 87.4765 47.327C85.686 46.5592 84.0597 45.4542 82.6863 44.0724C81.3035 42.6919 80.2028 41.0553 79.4457 39.254C78.6737 37.3964 78.2764 35.4046 78.2764 33.3929C78.2764 31.3813 78.6737 29.3895 79.4457 27.5319C80.2028 25.7305 81.3035 24.0939 82.6863 22.7134C84.0671 21.3406 85.6916 20.2368 87.4765 19.4588C89.33 18.6732 91.3246 18.2752 93.3376 18.2894C95.3641 18.277 97.3722 18.6747 99.2409 19.4588C102.874 21.0062 105.767 23.8992 107.314 27.5319C108.094 29.3771 108.492 31.3614 108.483 33.3648C108.483 33.9377 108.483 34.4731 108.483 34.9709C108.46 35.4474 108.385 35.9199 108.258 36.3798H101.847V36.4362ZM101.847 30.4201C101.244 28.6533 100.107 27.1173 98.5928 26.0243C97.0543 24.8841 95.1818 24.2847 93.2671 24.3196C91.3653 24.2834 89.5058 24.8834 87.9837 26.0243C86.49 27.1312 85.3655 28.6633 84.7574 30.4201H101.847Z" fill="#DFD5C4"/>
<path d="M141.017 19.665V19.8623L127.576 48.2095H124.589L111.204 19.8623V19.665H118.826L124.335 32.3452C125.09 34.0617 125.685 35.8445 126.11 37.6709C126.561 35.8516 127.154 34.0708 127.886 32.3452L133.409 19.665H141.017Z" fill="#DFD5C4"/>
<path d="M167.475 36.4362H150.399C151.01 38.1687 152.13 39.6764 153.612 40.7616C155.139 41.9036 157.003 42.5035 158.909 42.4664C160.206 42.5174 161.498 42.2797 162.692 41.7705C163.886 41.2613 164.952 40.4932 165.813 39.5217H172.773C171.673 42.1829 169.791 44.4476 167.377 46.0168C164.458 47.9571 160.956 48.824 157.469 48.4694C153.982 48.1148 150.726 46.5607 148.258 44.0725C146.875 42.6889 145.771 41.0533 145.003 39.254C144.231 37.3964 143.834 35.4046 143.834 33.393C143.834 31.3814 144.231 29.3895 145.003 27.5319C146.551 23.9094 149.431 21.0196 153.048 19.4589C154.901 18.6721 156.896 18.2741 158.909 18.2895C160.931 18.277 162.935 18.6748 164.799 19.4589C166.601 20.2285 168.24 21.3329 169.631 22.7135C171.014 24.094 172.114 25.7306 172.872 27.5319C173.658 29.3752 174.056 31.3608 174.041 33.3648C174.041 33.9425 174.041 34.4778 174.041 34.971C174.013 35.448 173.933 35.9205 173.801 36.3799H167.504L167.475 36.4362ZM167.475 30.4202C166.872 28.6569 165.741 27.1221 164.235 26.0244C162.695 24.8879 160.823 24.289 158.909 24.3196C157.003 24.2825 155.139 24.8824 153.612 26.0244C152.118 27.1276 150.997 28.6615 150.399 30.4202H167.475Z" fill="#DFD5C4"/>
<path d="M195.963 18.4871V24.4467H193.004C191.827 24.4434 190.661 24.6832 189.581 25.1512C188.539 25.6055 187.585 26.2398 186.763 27.0251C185.961 27.8157 185.312 28.7469 184.847 29.7724C184.376 30.8423 184.136 31.9992 184.142 33.1679V47.9614H178.38V18.4871H184.142V21.5021C185.44 20.5687 186.863 19.824 188.369 19.2901C189.861 18.7552 191.434 18.4835 193.018 18.4871H195.963Z" fill="#DFD5C4"/>
<path d="M15.4265 86.3466C16.4706 86.7969 17.4251 87.4317 18.2443 88.2205C19.0492 89.0083 19.6992 89.9402 20.1604 90.9678C20.6278 92.0332 20.8631 93.1858 20.8507 94.3492C20.8643 95.5445 20.6293 96.7296 20.1604 97.8292C19.7001 98.8782 19.0506 99.8334 18.2443 100.647C17.4336 101.453 16.4775 102.099 15.4265 102.549C14.3294 103.028 13.1432 103.268 11.9465 103.253H0.365234V97.3643H11.9465C12.7646 97.3901 13.5598 97.0913 14.1585 96.533C14.5788 96.1056 14.8621 95.5626 14.9723 94.9733C15.0825 94.3841 15.0146 93.7753 14.7772 93.2249C14.5398 92.6744 14.1436 92.2073 13.6394 91.883C13.1352 91.5588 12.5458 91.3922 11.9465 91.4046H9.12864C7.96433 91.4121 6.81173 91.1719 5.74727 90.7001C4.72258 90.2524 3.79073 89.6169 2.99989 88.8263C2.20414 88.0099 1.56431 87.0549 1.11195 86.0085C0.651856 84.9656 0.41664 83.8374 0.421603 82.6975C0.408104 81.4977 0.643144 80.308 1.11195 79.2034C1.56597 78.1579 2.2056 77.2032 2.99989 76.3856C3.78138 75.5732 4.71486 74.9222 5.74727 74.4695C6.81173 73.9977 7.96433 73.7576 9.12864 73.7651H17.9625V79.8797H9.12864C8.37016 79.877 7.63932 80.1643 7.08573 80.6828C6.7859 80.9472 6.54576 81.2724 6.38128 81.6368C6.21679 82.0012 6.13173 82.3964 6.13173 82.7962C6.13173 83.1959 6.21679 83.5911 6.38128 83.9555C6.54576 84.3199 6.7859 84.6451 7.08573 84.9095C7.34927 85.186 7.66627 85.406 8.01746 85.5562C8.36865 85.7063 8.7467 85.7835 9.12864 85.783H11.9465C13.1427 85.7743 14.3278 86.0142 15.4265 86.4875" fill="#DFD5C4"/>
<path d="M39.4752 73.4571C41.4908 73.4457 43.4867 73.8535 45.3363 74.6546C47.1399 75.4215 48.7802 76.5262 50.1688 77.9092C51.5398 79.2994 52.6388 80.9336 53.4093 82.7276C54.209 84.5856 54.6215 86.5871 54.6215 88.6099C54.6215 90.6326 54.209 92.6341 53.4093 94.492C51.8654 98.1172 48.9694 100.998 45.3363 102.523C43.4807 103.322 41.4815 103.734 39.4611 103.734C37.4407 103.734 35.4415 103.322 33.586 102.523C31.8024 101.748 30.1781 100.65 28.7957 99.2823C27.4195 97.9042 26.3153 96.2791 25.5411 94.492C24.751 92.6316 24.3438 90.6311 24.3438 88.6099C24.3438 86.5886 24.751 84.5881 25.5411 82.7276C27.0892 79.1052 29.9689 76.2153 33.586 74.6546C35.4437 73.8481 37.45 73.4401 39.4752 73.4571ZM39.4752 97.6339C40.717 97.6425 41.9481 97.403 43.0961 96.9295C44.7484 96.2509 46.1607 95.0946 47.1521 93.6088C48.1435 92.1229 48.669 90.375 48.6613 88.5887C48.6687 87.347 48.4293 86.1162 47.9568 84.9678C47.2562 83.3092 46.0787 81.8961 44.5736 80.9077C43.0686 79.9194 41.3039 79.4005 39.5034 79.4167C38.2976 79.4037 37.1025 79.6437 35.9952 80.1212C34.9151 80.5752 33.934 81.2356 33.1069 82.0655C32.2797 82.9001 31.6197 83.8852 31.1626 84.9678C30.6902 86.1162 30.4507 87.347 30.4582 88.5887C30.4521 89.7984 30.6917 90.9967 31.1626 92.111C31.6296 93.1631 32.289 94.1188 33.1069 94.9288C33.934 95.7587 34.9151 96.4191 35.9952 96.8731C37.1045 97.344 38.2983 97.5837 39.5034 97.5775" fill="#DFD5C4"/>
<path d="M64.399 56.2966H58.5098V103.256H64.399V56.2966Z" fill="#DFD5C4"/>
<path d="M97.7912 94.7209C96.2674 98.2993 93.3909 101.13 89.7886 102.597C87.9395 103.361 85.9565 103.749 83.9557 103.738C81.9683 103.752 79.9986 103.364 78.1651 102.597C76.3986 101.867 74.7944 100.794 73.4452 99.4407C72.0891 98.0878 71.0078 96.485 70.2611 94.7209C69.4677 92.8699 69.0694 90.8736 69.0917 88.8598V73.9958H75.1218V88.8598C75.1109 90.0686 75.3457 91.2669 75.8122 92.3821C76.7138 94.5194 78.4115 96.2221 80.5461 97.1301C81.6196 97.6046 82.782 97.8448 83.9557 97.8345C85.166 97.8475 86.3657 97.6076 87.4779 97.1301C88.5295 96.6808 89.4858 96.0353 90.2958 95.2281C91.1059 94.4206 91.7519 93.4637 92.1978 92.4103C92.6753 91.298 92.9152 90.0983 92.9022 88.888V73.9958H98.9324V88.8598C98.9547 90.8736 98.5564 92.8699 97.7629 94.7209" fill="#DFD5C4"/>
<path d="M110.315 92.0415C110.772 93.0991 111.432 94.0565 112.259 94.8593C113.067 95.6801 114.023 96.3399 115.077 96.8036C116.189 97.2811 117.389 97.521 118.599 97.5081V103.482C114.597 103.489 110.756 101.908 107.92 99.086C106.548 97.7103 105.452 96.0842 104.693 94.2958C103.909 92.432 103.511 90.4285 103.524 88.4065V62.1304H109.554V73.8525H118.599V79.8826H109.554V88.4629C109.544 89.6912 109.783 90.9087 110.258 92.0415" fill="#DFD5C4"/>
<path d="M123.08 62.1304H128.969V68.0196H123.08V62.1304ZM123.08 73.9229H128.969V103.27H123.08V73.9229Z" fill="#DFD5C4"/>
<path d="M148.06 73.4571C150.076 73.4457 152.072 73.8535 153.921 74.6546C155.725 75.4215 157.365 76.5262 158.754 77.9092C160.125 79.2994 161.224 80.9336 161.994 82.7276C162.794 84.5856 163.206 86.5871 163.206 88.6099C163.206 90.6326 162.794 92.6341 161.994 94.492C160.45 98.1172 157.554 100.998 153.921 102.523C152.066 103.322 150.067 103.734 148.046 103.734C146.026 103.734 144.027 103.322 142.171 102.523C138.561 100.973 135.682 98.0994 134.126 94.492C133.336 92.6316 132.929 90.6311 132.929 88.6099C132.929 86.5886 133.336 84.5881 134.126 82.7276C134.902 80.933 136.005 79.2988 137.381 77.9092C138.759 76.533 140.384 75.4289 142.171 74.6546C144.029 73.8481 146.035 73.4401 148.06 73.4571ZM148.06 97.6339C149.302 97.6425 150.533 97.403 151.681 96.9295C152.772 96.4797 153.763 95.8189 154.598 94.9852C155.424 94.1824 156.085 93.2249 156.542 92.1673C157.013 91.0531 157.252 89.8548 157.246 88.6451C157.254 87.4034 157.014 86.1725 156.542 85.0242C156.095 83.936 155.434 82.949 154.598 82.1218C153.763 81.2881 152.772 80.6273 151.681 80.1775C150.535 79.6973 149.303 79.4575 148.06 79.4731C146.854 79.46 145.659 79.7 144.552 80.1775C143.497 80.6394 142.54 81.2995 141.734 82.1218C140.907 82.9564 140.247 83.9416 139.79 85.0242C139.322 86.1735 139.088 87.4043 139.1 88.6451C139.089 89.8538 139.323 91.0522 139.79 92.1673C140.257 93.2195 140.916 94.1752 141.734 94.9852C142.54 95.8075 143.497 96.4676 144.552 96.9295C145.661 97.4004 146.855 97.6401 148.06 97.6339Z" fill="#DFD5C4"/>
<path d="M181.762 73.314C183.699 73.3001 185.618 73.6887 187.398 74.4552C190.883 75.9309 193.657 78.705 195.132 82.1902C195.896 83.9703 196.285 85.8888 196.274 87.8258V103.225H190.328V88.2485C190.333 87.0886 190.108 85.9393 189.666 84.8671C189.234 83.8197 188.608 82.8636 187.82 82.0493C187.005 81.2561 186.049 80.6207 185.002 80.1754C183.961 79.7092 182.832 79.4692 181.691 79.471C180.514 79.4647 179.347 79.7046 178.268 80.1754C177.226 80.6297 176.272 81.264 175.45 82.0493C174.636 82.8569 173.986 83.8136 173.534 84.8671C173.065 85.9325 172.825 87.0844 172.829 88.2485V103.253H167.081V73.9903H172.914V76.2023C174.147 75.2894 175.517 74.5762 176.972 74.089C178.513 73.5618 180.133 73.2997 181.762 73.314Z" fill="#DFD5C4"/>
<path d="M216.196 86.3466C217.241 86.7956 218.196 87.4305 219.014 88.2205C219.819 89.0083 220.469 89.9402 220.93 90.9678C221.402 92.0323 221.642 93.1849 221.635 94.3492C221.644 95.5455 221.404 96.7305 220.93 97.8292C220.47 98.8782 219.821 99.8334 219.014 100.647C218.205 101.455 217.248 102.1 216.196 102.549C215.095 103.03 213.904 103.27 212.702 103.253H201.121V97.3643H212.702C213.108 97.3786 213.512 97.3126 213.891 97.1699C214.271 97.0272 214.619 96.8108 214.914 96.533C215.335 96.1056 215.618 95.5626 215.728 94.9733C215.838 94.3841 215.77 93.7753 215.533 93.2249C215.296 92.6744 214.899 92.2073 214.395 91.883C213.891 91.5588 213.302 91.3922 212.702 91.4046H209.885C208.72 91.4121 207.568 91.1719 206.503 90.7001C205.478 90.2524 204.547 89.6169 203.756 88.8263C202.96 88.0131 202.324 87.0571 201.882 86.0085C201.411 84.9687 201.17 83.8391 201.177 82.6975C201.161 81.496 201.401 80.3048 201.882 79.2034C202.326 78.1557 202.961 77.2001 203.756 76.3856C204.537 75.5732 205.471 74.9222 206.503 74.4695C207.568 73.9977 208.72 73.7576 209.885 73.7651H218.732V79.8797H209.885C209.127 79.8798 208.397 80.1667 207.842 80.6828C207.541 80.9531 207.305 81.2866 207.149 81.6594C206.993 82.0321 206.922 82.4348 206.94 82.8384C206.941 83.2165 207.022 83.5901 207.178 83.9348C207.333 84.2796 207.559 84.5876 207.842 84.8391C208.105 85.1155 208.422 85.3355 208.773 85.4857C209.124 85.6358 209.503 85.7131 209.885 85.7126H212.702C213.903 85.7052 215.092 85.945 216.196 86.4171" fill="#DFD5C4"/>
</svg>
