<svg width="232" height="48" viewBox="0 0 232 48" fill="none" xmlns="http://www.w3.org/2000/svg">
<path d="M15.1807 6.27939C13.7563 6.8905 12.6253 8.03154 12.0268 9.46131C11.7193 10.1886 11.5619 10.9705 11.5642 11.7601V17.6474H17.4515V23.6047H11.5642V47.0696H5.74706V23.6047H0V17.6474H5.6069V11.7601C5.60414 10.1978 5.92386 8.65166 6.54605 7.21854C7.15078 5.8236 8.0113 4.5542 9.08317 3.47594C10.167 2.39826 11.4532 1.54555 12.8678 0.966862C14.3196 0.360315 15.8781 0.0505094 17.4515 0.0557289V5.81682C16.6706 5.81119 15.8971 5.96875 15.1807 6.27939Z" fill="#C6C6C6"/>
<path d="M39.7808 17.5225V23.4658H36.781C35.605 23.4625 34.4408 23.701 33.3608 24.1666C32.3214 24.6197 31.3718 25.2559 30.5574 26.0449C29.746 26.8469 29.0985 27.799 28.6511 28.8484C28.1829 29.9078 27.944 31.0543 27.9502 32.2125V47.0007H22.2031V17.5645H27.9502V20.5642C29.2389 19.6325 30.6552 18.8913 32.1554 18.3635C33.649 17.8311 35.2234 17.5608 36.8091 17.5645L39.7808 17.5225Z" fill="#C6C6C6"/>
<path d="M67.7438 35.4394H50.6849C51.3028 37.1651 52.4202 38.668 53.8948 39.7567C55.4179 40.897 57.2769 41.4986 59.1793 41.4668C60.473 41.517 61.7616 41.2789 62.9519 40.7698C64.1423 40.2607 65.2045 39.4933 66.0618 38.5232H73.0704C71.9662 41.1728 70.0908 43.4291 67.6878 44.9991C65.1967 46.651 62.2663 47.5155 59.2774 47.4802C57.2699 47.497 55.2803 47.101 53.4322 46.3168C49.8162 44.7657 46.9388 41.8782 45.4003 38.2569C44.6146 36.3945 44.2187 34.3909 44.2369 32.3696C44.2215 30.3713 44.6175 28.3912 45.4003 26.5525C46.9277 22.9236 49.8087 20.0325 53.4322 18.4926C55.2774 17.6972 57.2683 17.2962 59.2774 17.3151C61.2998 17.3005 63.3035 17.7013 65.1647 18.4926C68.7962 20.0303 71.6868 22.9209 73.2246 26.5525C74.0006 28.3933 74.3963 30.372 74.388 32.3696C74.388 32.9443 74.388 33.477 74.388 33.9676C74.3635 34.4655 74.2835 34.9592 74.1497 35.4394H67.87H67.7438ZM67.7438 29.426C67.1339 27.6654 65.999 26.1342 64.4919 25.0386C62.9559 23.9041 61.0885 23.3079 59.1793 23.3425C57.2784 23.3056 55.4192 23.9023 53.8948 25.0386C52.4077 26.1448 51.289 27.6739 50.6849 29.426H67.7438Z" fill="#C6C6C6"/>
<path d="M101.976 35.4393H84.8886C85.5012 37.1679 86.6197 38.6722 88.0986 39.7566C89.6217 40.8969 91.4807 41.4985 93.3831 41.4667C94.6765 41.5149 95.9645 41.276 97.1545 40.767C98.3445 40.258 99.407 39.4917 100.266 38.5231H107.274C106.179 41.1782 104.302 43.437 101.892 44.9991C99.7891 46.3565 97.3895 47.1853 94.8975 47.4147C92.4054 47.6441 89.8949 47.2674 87.58 46.3167C85.7959 45.5437 84.1741 44.4404 82.8001 43.0647C81.4198 41.6867 80.3201 40.0539 79.5621 38.2568C78.7719 36.3953 78.3712 34.3917 78.3846 32.3695C78.374 30.3703 78.7749 28.3902 79.5621 26.5524C80.3198 24.751 81.4194 23.1135 82.8001 21.7305C84.1753 20.3598 85.797 19.2612 87.58 18.4925C89.4304 17.6984 91.4256 17.2974 93.4391 17.315C95.4614 17.3016 97.4649 17.7023 99.3264 18.4925C102.958 20.0302 105.849 22.9208 107.386 26.5524C108.162 28.3932 108.558 30.3719 108.55 32.3695C108.55 32.9442 108.55 33.4769 108.55 33.9675C108.518 34.4647 108.438 34.9576 108.311 35.4393H102.018H101.976ZM101.976 29.4259C101.376 27.6638 100.245 26.1309 98.7377 25.0385C97.2007 23.9059 95.334 23.3099 93.4251 23.3424C91.5242 23.3055 89.665 23.9023 88.1406 25.0385C86.6498 26.1409 85.5301 27.6713 84.9307 29.4259H101.976Z" fill="#C6C6C6"/>
<path d="M141.435 0.000976562V47.0709H135.562V44.0712C133.015 46.042 129.88 47.0986 126.661 47.0709C124.703 47.0847 122.765 46.6884 120.97 45.9074C119.233 45.1553 117.657 44.0749 116.33 42.7255C114.997 41.3772 113.932 39.7886 113.19 38.0438C112.399 36.2318 111.998 34.2737 112.013 32.2967C112.002 30.3427 112.403 28.4084 113.19 26.6197C114.681 23.1156 117.468 20.3232 120.97 18.8261C122.764 18.0404 124.702 17.6393 126.661 17.6487C128.276 17.6403 129.882 17.9008 131.412 18.4196C132.9 18.9342 134.314 19.6411 135.618 20.5222V0.000976562H141.435ZM126.661 41.1976C127.847 41.2016 129.022 40.9581 130.109 40.4828C131.154 40.0343 132.105 39.3922 132.912 38.5904C133.714 37.7805 134.36 36.8303 134.819 35.787C135.283 34.6968 135.521 33.5237 135.519 32.3387C135.526 31.176 135.287 30.025 134.819 28.9606C134.36 27.9174 133.714 26.9673 132.912 26.1572C132.106 25.3509 131.155 24.7041 130.109 24.2508C129.019 23.7864 127.846 23.548 126.661 23.5499C125.498 23.5439 124.347 23.7827 123.282 24.2508C122.236 24.7044 121.285 25.3511 120.479 26.1572C119.678 26.9673 119.031 27.9174 118.573 28.9606C118.105 30.025 117.866 31.176 117.872 32.3387C117.87 33.5237 118.108 34.6968 118.573 35.787C119.031 36.8303 119.677 37.7805 120.479 38.5904C121.286 39.3922 122.237 40.0343 123.282 40.4828C124.344 40.9619 125.496 41.2057 126.661 41.1976Z" fill="#C6C6C6"/>
<path d="M160.581 17.1838C162.592 17.1721 164.583 17.5828 166.426 18.3893C170.065 19.9157 172.959 22.8101 174.486 26.4492C175.281 28.3027 175.692 30.2985 175.692 32.3155C175.692 34.3324 175.281 36.3283 174.486 38.1817C172.94 41.7982 170.05 44.673 166.426 46.1995C164.572 46.9951 162.577 47.4054 160.56 47.4054C158.543 47.4054 156.547 46.9951 154.693 46.1995C151.092 44.6531 148.222 41.783 146.676 38.1817C145.88 36.3283 145.47 34.3324 145.47 32.3155C145.47 30.2985 145.88 28.3027 146.676 26.4492C148.202 22.8247 151.077 19.9348 154.693 18.3893C156.548 17.5742 158.555 17.1632 160.581 17.1838ZM160.581 41.3215C161.821 41.3289 163.05 41.0907 164.197 40.6207C165.282 40.1732 166.268 39.5158 167.099 38.6863C167.928 37.8578 168.589 36.8774 169.047 35.7987C169.517 34.6905 169.755 33.4981 169.748 32.2944C169.755 31.0545 169.517 29.8254 169.047 28.678C168.129 26.4879 166.387 24.7462 164.197 23.828C163.05 23.358 161.821 23.1198 160.581 23.1272C159.377 23.1199 158.185 23.3584 157.076 23.828C155.999 24.2894 155.02 24.9505 154.189 25.7764C153.359 26.6068 152.702 27.5929 152.254 28.678C151.784 29.8254 151.546 31.0545 151.554 32.2944C151.551 33.4807 151.783 34.6559 152.235 35.7526C152.687 36.8494 153.351 37.8463 154.189 38.6863C155.017 39.5123 155.997 40.1693 157.076 40.6207C158.185 41.0903 159.377 41.3288 160.581 41.3215Z" fill="#C6C6C6"/>
<path d="M217.478 16.9758C219.436 16.9664 221.375 17.3675 223.169 18.1532C224.894 18.8941 226.459 19.9601 227.781 21.2931C229.087 22.638 230.128 24.2167 230.851 25.9468C231.606 27.7197 231.997 29.6265 232 31.5537V46.8044H226.309V31.6238C226.315 30.4519 226.076 29.2918 225.608 28.2176C225.15 27.174 224.504 26.2236 223.702 25.4141C222.9 24.603 221.947 23.9556 220.898 23.5078C219.821 23.0327 218.656 22.7891 217.478 22.7929C216.305 22.786 215.143 23.0298 214.072 23.5078C213.025 23.9602 212.074 24.6071 211.268 25.4141C209.635 27.0672 208.723 29.2999 208.731 31.6238V46.8745H202.984V31.6238C202.993 29.2999 202.081 27.0672 200.447 25.4141C199.644 24.6041 198.692 23.9568 197.644 23.5078C196.571 23.0326 195.411 22.7872 194.237 22.7872C193.064 22.7872 191.904 23.0326 190.831 23.5078C189.781 23.9534 188.828 24.6011 188.028 25.4141C187.226 26.2236 186.579 27.174 186.121 28.2176C185.653 29.2918 185.414 30.4519 185.421 31.6238V46.8745H179.744V17.6486H185.421V19.9194C186.71 18.9963 188.127 18.2645 189.626 17.7467C191.124 17.2368 192.697 16.9764 194.28 16.9758C196.58 16.9491 198.848 17.5138 200.868 18.6158C202.816 19.6932 204.55 21.1185 205.984 22.8209C207.345 21.1008 209.037 19.6709 210.96 18.6158C212.979 17.5138 215.248 16.9491 217.548 16.9758" fill="#C6C6C6"/>
</svg>
