<svg width="48" height="61" viewBox="0 0 48 61" fill="none" xmlns="http://www.w3.org/2000/svg">
<g id="Group">
<path id="Vector" fill-rule="evenodd" clip-rule="evenodd" d="M40.5009 8.1318C31.3892 -1.70799 16.6134 -1.70799 7.50172 8.1318C-1.60995 17.9746 -1.60995 33.9251 7.50172 43.768L21.9042 59.32C22.1762 59.6134 22.5021 59.8468 22.8623 60.0062C23.2226 60.1655 23.61 60.2477 24.0013 60.2477C24.3927 60.2477 24.78 60.1655 25.1403 60.0062C25.5006 59.8468 25.8264 59.6134 26.0984 59.32L40.5009 43.768C49.6126 33.9282 49.6126 17.9746 40.5009 8.1318ZM24.0013 42.749C32.5938 42.749 39.5559 35.227 39.5559 25.9499C39.5559 16.6728 32.5938 9.15075 24.0013 9.15075C15.4088 9.15075 8.44672 16.6728 8.44672 25.9499C8.44672 35.227 15.4088 42.749 24.0013 42.749Z" fill="#929497"/>
</g>
</svg>
