<svg width="70" height="73" viewBox="0 0 70 73" fill="none" xmlns="http://www.w3.org/2000/svg">
<path fill-rule="evenodd" clip-rule="evenodd" d="M51.5009 14.1317C42.3892 4.29188 27.6134 4.29188 18.5017 14.1317C9.39005 23.9745 9.39005 39.925 18.5017 49.7678L32.9042 65.3199C33.1762 65.6133 33.5021 65.8467 33.8623 66.0061C34.2226 66.1654 34.61 66.2476 35.0013 66.2476C35.3927 66.2476 35.78 66.1654 36.1403 66.0061C36.5006 65.8467 36.8264 65.6133 37.0984 65.3199L51.5009 49.7678C60.6126 39.928 60.6126 23.9745 51.5009 14.1317ZM35.0013 48.7489C43.5938 48.7489 50.5559 41.2268 50.5559 31.9498C50.5559 22.6727 43.5938 15.1506 35.0013 15.1506C26.4088 15.1506 19.4467 22.6727 19.4467 31.9498C19.4467 41.2268 26.4088 48.7489 35.0013 48.7489Z" fill="#929497"/>
</svg>
