<svg width="406" height="127" viewBox="0 0 406 127" fill="none" xmlns="http://www.w3.org/2000/svg">
<path d="M12.4338 72.1361C13.195 74.1681 14.4637 75.9461 15.9862 77.4701C17.5087 78.9941 19.285 80.2641 21.315 81.0261C23.345 81.7881 25.375 82.2961 27.6587 82.2961V93.2181C23.8525 93.2181 20.3 92.4561 16.7475 91.1861C13.4487 89.6621 10.4038 87.8841 7.86625 85.3441C5.32875 82.8041 3.29875 80.0101 2.03 76.4541C0.5075 73.1521 0 69.3421 0 65.5321V49.7841V38.6081V17.0181H11.165V38.6081H27.6587V49.7841H10.9113V65.5321C10.9113 67.8181 11.4187 70.1041 12.4338 72.1361Z" fill="#BBBDBF"/>
<path d="M61.4075 37.8459C65.2137 37.8459 68.7662 38.6079 72.065 40.1319C75.3637 41.6559 78.4087 43.688 80.9462 46.228C83.4837 48.768 85.5137 51.816 87.0362 55.118C88.5587 58.42 89.32 62.2299 89.32 65.7859C89.32 69.5959 88.5587 73.152 87.0362 76.708C85.5137 80.0099 83.4837 83.0579 80.9462 85.5979C78.4087 88.138 75.3637 90.1699 72.065 91.6939C68.7662 93.2179 64.96 93.9799 61.4075 93.9799C57.6012 93.9799 54.0487 93.2179 50.4962 91.6939C47.1975 90.1699 44.1525 88.138 41.615 85.5979C39.0775 83.0579 37.0475 80.264 35.525 76.708C34.0025 73.4059 33.2412 69.5959 33.2412 65.7859C33.2412 61.9759 34.0025 58.42 35.525 55.118C37.0475 51.816 39.0775 48.768 41.615 46.228C44.1525 43.688 46.9437 41.6559 50.4962 40.1319C53.795 38.6079 57.3475 37.8459 61.4075 37.8459ZM61.4075 82.296C63.6912 82.296 65.975 81.7879 68.005 81.0259C70.035 80.2639 71.8112 78.9939 73.3337 77.4699C74.8562 75.9459 76.125 74.1679 76.8862 72.1359C77.6475 70.1039 78.155 68.0719 78.155 65.7859C78.155 63.4999 77.6475 61.2139 76.8862 59.1819C76.125 57.1499 74.8562 55.372 73.3337 53.8479C71.8112 52.3239 70.035 51.0539 68.005 50.2919C65.975 49.5299 63.6912 49.0219 61.4075 49.0219C59.1237 49.0219 56.84 49.5299 55.0637 50.2919C53.0337 51.0539 51.2575 52.3239 49.735 53.8479C48.2125 55.372 46.9437 57.1499 46.1825 59.1819C45.4212 61.2139 44.9137 63.4999 44.9137 65.7859C44.9137 68.0719 45.4212 70.3579 46.1825 72.1359C46.9437 74.1679 48.2125 75.9459 49.735 77.4699C51.2575 78.9939 53.0337 80.2639 55.0637 81.0259C56.84 82.0419 58.87 82.296 61.4075 82.296Z" fill="#BBBDBF"/>
<path d="M122.308 38.8621C126.114 38.8621 129.666 39.6241 132.965 40.8941C136.264 42.4181 139.055 44.1961 141.593 46.7361C144.13 49.2761 145.906 52.0701 147.429 55.3721C148.951 58.6741 149.459 62.2301 149.459 65.7861C149.459 69.5961 148.698 73.1521 147.429 76.4541C145.906 79.7561 144.13 82.5501 141.593 85.0901C139.055 87.6301 136.264 89.4081 132.965 90.9321C129.666 92.4561 126.114 92.9641 122.308 92.9641C119.263 92.9641 116.471 92.4561 113.68 91.4401C110.889 90.4241 108.351 89.1541 106.068 87.3761V125.222H95.1562V38.8621H106.068V44.1961C108.351 42.6721 110.889 41.1481 113.68 40.1321C116.471 39.1161 119.263 38.8621 122.308 38.8621ZM122.308 82.2961C124.591 82.2961 126.621 81.7881 128.651 81.0261C130.681 80.2641 132.458 78.9941 133.726 77.4701C135.249 75.9461 136.264 74.1681 137.279 72.3901C138.04 70.3581 138.548 68.3261 138.548 66.0401C138.548 63.7541 138.04 61.7221 137.279 59.6901C136.518 57.6581 135.249 56.1341 133.726 54.6101C132.204 53.0861 130.428 52.0701 128.651 51.0541C126.621 50.2921 124.591 49.7841 122.308 49.7841C120.024 49.7841 117.994 50.2921 115.964 51.0541C113.934 51.8161 112.411 53.0861 110.889 54.6101C109.366 56.1341 108.351 57.6581 107.336 59.6901C106.575 61.7221 106.068 63.7541 106.068 66.0401C106.068 68.3261 106.575 70.3581 107.336 72.3901C108.098 74.4221 109.366 76.2001 110.889 77.4701C112.411 78.9941 113.934 80.0101 115.964 81.0261C117.994 81.7881 120.024 82.2961 122.308 82.2961Z" fill="#BBBDBF"/>
<path d="M281.155 37.3381C284.962 37.3381 288.26 38.1001 291.559 39.3701C294.858 40.8941 297.649 42.6721 300.187 45.2121C302.47 47.7521 304.5 50.5461 305.769 53.8481C307.292 57.1501 307.799 60.7061 307.799 64.2621V92.4561H297.395V64.5161C297.395 62.2301 296.888 60.1981 296.127 58.1661C295.365 56.1341 294.097 54.3561 292.574 53.0861C291.052 51.5621 289.275 50.5461 287.499 49.5301C285.469 48.7681 283.439 48.2601 281.155 48.2601C278.872 48.2601 276.842 48.7681 274.812 49.5301C272.782 50.2921 271.005 51.5621 269.737 53.0861C268.468 54.6101 267.199 56.3881 266.184 58.1661C265.423 60.1981 264.915 62.2301 264.915 64.5161V92.7101H254.258V64.5161C254.258 62.2301 253.75 60.1981 252.989 58.1661C252.228 56.1341 250.959 54.3561 249.437 53.0861C247.914 51.5621 246.138 50.5461 244.362 49.5301C242.585 48.5141 240.555 48.2601 238.272 48.2601C235.988 48.2601 233.958 48.7681 231.928 49.5301C229.898 50.2921 228.122 51.5621 226.853 53.0861C225.584 54.6101 224.315 56.3881 223.3 58.1661C222.539 60.1981 222.032 62.2301 222.032 64.5161V92.7101H211.628V38.6081H222.032V42.9261C224.315 41.1481 227.107 39.8781 229.644 38.8621C232.435 37.8461 235.227 37.3381 238.272 37.3381C242.585 37.3381 246.645 38.3541 250.452 40.3861C254.004 42.4181 257.303 44.9581 259.84 48.0061C262.378 44.9581 265.423 42.4181 268.975 40.3861C272.528 38.3541 276.588 37.3381 281.155 37.3381Z" fill="#BBBDBF"/>
<path d="M369.46 38.8621V92.7101H358.295V87.8841C356.265 89.4081 353.727 90.9321 350.682 91.9481C347.891 92.9641 344.846 93.4721 341.801 93.4721C337.995 93.4721 334.696 92.7101 331.397 91.4401C328.098 89.9161 325.307 88.1381 322.77 85.5981C320.232 83.0581 318.456 80.2641 316.933 76.7081C315.411 73.4061 314.903 69.8501 314.903 66.0401C314.903 62.2301 315.665 58.6741 316.933 55.3721C318.456 52.0701 320.232 49.2761 322.77 46.7361C325.307 44.1961 328.098 42.4181 331.397 40.8941C334.696 39.3701 338.248 38.8621 341.801 38.8621C344.846 38.8621 347.891 39.3701 350.682 40.1321C353.473 40.8941 356.011 42.4181 358.295 44.1961V39.1161H369.46V38.8621ZM341.801 82.2961C344.085 82.2961 346.368 81.7881 348.145 81.0261C350.175 80.2641 351.951 78.9941 353.473 77.4701C354.996 75.9461 356.011 74.1681 357.026 72.1361C357.787 70.1041 358.295 67.8181 358.295 65.5321C358.295 63.2461 357.787 61.2141 357.026 59.1821C356.265 57.1501 354.996 55.3721 353.473 54.1021C351.951 52.5781 350.175 51.5621 348.145 50.5461C346.115 49.7841 344.085 49.2761 341.801 49.2761C339.517 49.2761 337.487 49.7841 335.457 50.5461C333.427 51.3081 331.651 52.5781 330.382 54.1021C328.86 55.6261 327.845 57.4041 326.83 59.1821C326.068 61.2141 325.561 63.2461 325.561 65.5321C325.561 67.8181 326.068 70.1041 326.83 72.1361C327.591 74.1681 328.86 75.9461 330.382 77.4701C331.905 78.9941 333.681 80.0101 335.457 81.0261C337.487 81.7881 339.771 82.2961 341.801 82.2961Z" fill="#BBBDBF"/>
<path d="M390.268 72.1361C391.029 74.1681 392.298 75.9461 393.82 77.4701C395.343 78.9941 397.119 80.2641 399.149 81.0261C401.179 81.7881 403.209 82.2961 405.493 82.2961V93.2181C401.686 93.2181 398.134 92.4561 394.582 91.1861C391.283 89.6621 388.238 87.8841 385.7 85.3441C383.163 82.8041 381.133 80.0101 379.864 76.4541C378.341 73.1521 377.834 69.3421 377.834 65.5321V49.7841V38.6081V17.0181H388.999V38.6081H405.746V49.7841H388.999V65.5321C388.999 67.8181 389.506 70.1041 390.268 72.1361Z" fill="#BBBDBF"/>
</svg>
