<svg width="405" height="127" viewBox="0 0 405 127" fill="none" xmlns="http://www.w3.org/2000/svg">
<path d="M69.6094 37.4158C73.4062 37.4158 76.6969 38.1778 79.9875 39.4478C83.2781 40.9718 86.0625 42.7498 88.5938 45.2898C90.8719 47.8298 92.8969 50.6238 94.1625 53.9258C95.6813 57.2278 96.1875 60.7838 96.1875 64.3398V92.5338H85.8094V64.5938C85.8094 62.3078 85.3031 60.2758 84.5438 58.2438C83.7844 56.2118 82.5188 54.4338 81 53.1638C79.4812 51.6398 77.7094 50.6238 75.9375 49.6078C73.9125 48.5918 71.8875 48.0838 69.6094 48.0838C67.3313 48.0838 65.3063 48.5918 63.2812 49.3538C61.2562 50.1158 59.4844 51.3858 58.2188 52.9098C56.7 54.4338 55.6875 56.2118 54.675 57.9898C53.9156 60.0218 53.4094 62.0538 53.4094 64.3398V92.5338H42.7781V64.5938C42.7781 62.3078 42.2719 60.2758 41.5125 58.2438C40.7531 56.2118 39.4875 54.4338 37.9688 53.1638C36.45 51.6398 34.6781 50.6238 32.9062 49.6078C30.8813 48.8458 28.8563 48.3378 26.5781 48.3378C24.3 48.3378 22.275 48.8458 20.25 49.6078C18.225 50.3698 16.4531 51.6398 15.1875 53.1638C13.6687 54.6878 12.6563 56.4658 11.6438 58.2438C10.8844 60.2758 10.3781 62.3078 10.3781 64.5938V92.7878H0V38.6858H10.3781V43.0038C12.6563 41.2258 15.4406 39.9558 17.9719 38.9398C20.7563 37.9238 23.5406 37.4158 26.5781 37.4158C30.8813 37.4158 34.9313 38.4318 38.7281 40.4638C42.2719 42.4958 45.5625 45.0358 48.0938 48.0838C50.625 45.0358 53.6625 42.4958 57.2062 40.4638C61.2562 38.4318 65.3063 37.4158 69.6094 37.4158Z" fill="#BBBDBF"/>
<path d="M157.697 38.9397V92.7877H146.56V87.9617C144.535 89.4857 142.004 91.0097 138.966 92.0257C136.182 93.0417 133.144 93.5497 130.107 93.5497C126.31 93.5497 123.019 92.7877 119.729 91.5177C116.438 89.9937 113.654 88.2157 111.122 85.6757C108.591 83.1357 106.819 80.3417 105.3 76.7857C103.782 73.4837 103.275 69.9277 103.275 66.1177C103.275 62.3077 104.035 58.7517 105.3 55.4497C106.819 52.1477 108.591 49.3537 111.122 46.8137C113.654 44.2737 116.438 42.4957 119.729 40.9717C123.019 39.4477 126.563 38.9397 130.107 38.9397C133.144 38.9397 136.182 39.4477 138.966 40.2097C141.75 40.9717 144.282 42.4957 146.56 44.2737V39.1937H157.697V38.9397ZM130.36 82.1197C132.638 82.1197 134.916 81.6117 136.688 80.8497C138.713 80.0877 140.485 78.8177 142.004 77.2937C143.522 75.7697 144.535 73.9917 145.547 71.9597C146.307 69.9277 146.813 67.6417 146.813 65.3557C146.813 63.0697 146.307 61.0377 145.547 59.0057C144.788 56.9737 143.522 55.1957 142.004 53.9257C140.485 52.4017 138.713 51.3857 136.688 50.3697C134.663 49.6077 132.638 49.0997 130.36 49.0997C128.082 49.0997 126.057 49.6077 124.032 50.3697C122.007 51.1317 120.235 52.4017 118.969 53.9257C117.704 55.4497 116.438 57.2277 115.425 59.0057C114.666 61.0377 114.16 63.0697 114.16 65.3557C114.16 67.6417 114.666 69.9277 115.425 71.9597C116.185 73.9917 117.45 75.7697 118.969 77.2937C120.488 78.8177 122.26 79.8337 124.032 80.8497C126.057 81.8657 128.082 82.1197 130.36 82.1197Z" fill="#BBBDBF"/>
<path d="M178.453 71.9597C179.212 73.9917 180.478 75.7697 181.997 77.2937C183.515 78.8177 185.287 80.0877 187.312 80.8497C189.337 81.6117 191.362 82.1197 193.64 82.1197V93.0417C189.844 93.0417 186.3 92.2797 182.756 91.0097C179.465 89.4857 176.428 87.7077 173.897 85.1677C171.365 82.6277 169.34 79.8337 168.075 76.2777C166.556 72.9757 166.05 69.1657 166.05 65.3557V49.6077V38.4317V17.0957H177.187V38.6857H193.894V49.8617H177.187V65.6097C177.187 67.8957 177.694 69.9277 178.453 71.9597Z" fill="#BBBDBF"/>
</svg>
