<svg width="406" height="136" viewBox="0 0 406 136" fill="none" xmlns="http://www.w3.org/2000/svg">
<path d="M53.7938 87.4537C52.5281 89.9937 51.2625 92.2797 49.4906 94.0577C47.7187 96.0897 45.9469 97.8677 43.6688 99.3917C41.3906 100.916 39.1125 101.932 36.5812 102.948C34.05 103.71 31.2656 104.218 28.4813 104.218C24.6844 104.218 21.1406 103.456 17.85 102.186C14.5594 100.662 11.5219 98.6297 8.99063 96.0897C6.45938 93.5497 4.43437 90.5017 2.91562 87.1997C1.39687 83.8977 0.890625 80.0877 0.890625 76.2777C0.890625 72.4677 1.65 68.9117 2.91562 65.3557C4.43437 62.0537 6.45938 59.0057 8.99063 56.4657C11.5219 53.9257 14.5594 51.8937 17.85 50.6237C21.1406 49.0997 24.6844 48.5917 28.4813 48.5917C31.2656 48.5917 34.05 49.0997 36.5812 49.8617C39.1125 50.6237 41.6437 51.8937 43.6688 53.4177C45.9469 54.9417 47.7187 56.7197 49.4906 58.7517C51.2625 60.7837 52.5281 63.0697 53.7938 65.6097H40.8844C39.3656 64.0857 37.5937 62.5617 35.3156 61.5457C33.2906 60.5297 31.0125 59.7677 28.4813 59.7677C26.2031 59.7677 24.1781 60.2757 22.1531 61.0377C20.1281 61.7997 18.3562 63.0697 16.8375 64.5937C15.3187 66.1177 14.0531 67.8957 13.2937 69.9277C12.5344 71.9597 12.0281 74.2457 12.0281 76.5317C12.0281 78.8177 12.5344 81.1037 13.2937 82.8817C14.0531 84.9137 15.3187 86.6917 16.8375 88.2157C18.3562 89.7397 20.1281 91.0097 22.1531 91.7717C24.1781 92.5337 26.2031 93.0417 28.4813 93.0417C33.5438 93.0417 37.5937 91.2637 40.8844 87.7077H53.7938V87.4537Z" fill="#8787B3"/>
<path d="M103.912 82.1197H72.7777C74.0434 85.4217 75.8152 87.9617 78.5996 89.9937C81.384 92.0257 84.6746 93.0417 88.2184 93.0417C93.534 93.0417 97.584 91.2637 100.875 87.7077H113.784C111.759 92.5337 108.468 96.5977 103.912 99.6457C99.3559 102.694 94.2934 104.218 88.4715 104.218C84.6746 104.218 81.1309 103.456 77.8402 102.186C74.5496 100.662 71.5121 98.6297 68.9809 96.0897C66.4496 93.5497 64.1715 90.7557 62.9059 87.1997C61.3871 83.8977 60.8809 80.0877 60.8809 76.2777C60.8809 72.4677 61.6402 68.9117 62.9059 65.6097C64.4246 62.3077 66.4496 59.2597 68.9809 56.7197C71.5121 54.1797 74.5496 52.1477 77.8402 50.6237C81.1309 49.0997 84.6746 48.5917 88.4715 48.5917C92.2684 48.5917 95.8121 49.3537 99.3559 50.6237C102.646 52.1477 105.684 54.1797 108.215 56.7197C110.746 59.2597 112.771 62.3077 114.29 65.6097C115.809 68.9117 116.315 72.4677 116.315 76.2777C116.315 77.2937 116.315 78.3097 116.315 79.3257C116.315 80.3417 116.062 81.1037 115.809 82.1197H105.178H103.912ZM103.912 70.9437C102.646 67.6417 100.875 64.8477 97.8371 62.8157C95.0527 60.7837 91.7621 59.7677 87.9652 59.7677C84.1684 59.7677 81.1309 60.7837 78.3465 62.8157C75.5621 64.8477 73.5371 67.6417 72.5246 70.9437H103.912Z" fill="#8787B3"/>
<path d="M123.15 27.5096H133.781V38.4316H122.896V27.5096H123.15ZM123.15 103.456V49.3536H133.781V103.456H123.15Z" fill="#8787B3"/>
<path d="M140.869 103.456V17.0957H151.754V103.456H140.869Z" fill="#8787B3"/>
<path d="M159.347 27.5096H170.231V38.4316H159.347V27.5096ZM159.347 103.456V49.3536H170.231V103.456H159.347Z" fill="#8787B3"/>
<path d="M204.403 48.3376C207.947 48.3376 211.491 49.0996 214.781 50.3696C218.072 51.8936 220.856 53.6716 223.388 56.2116C225.919 58.7516 227.691 61.5456 229.21 64.8476C230.728 68.1496 231.235 71.4516 231.235 75.2616V103.71H220.35V75.7696C220.35 73.4836 219.844 71.4516 219.085 69.4196C218.325 67.3876 217.06 65.8636 215.794 64.3396C214.275 62.8156 212.756 61.7996 210.731 60.7836C208.706 60.0216 206.681 59.5136 204.656 59.5136C202.378 59.5136 200.353 60.0216 198.328 60.7836C196.303 61.5456 194.531 62.8156 193.266 64.3396C191.747 65.8636 190.735 67.3876 189.722 69.4196C188.963 71.4516 188.456 73.4836 188.456 75.7696V103.456H177.825V49.3536H188.456V53.4176C190.735 51.8936 193.266 50.3696 195.797 49.6076C198.328 48.5916 201.113 48.3376 204.403 48.3376Z" fill="#8787B3"/>
<path d="M291.731 76.2777C291.731 82.3737 289.959 87.7077 286.669 92.5337C290.212 97.1057 291.731 102.44 291.731 108.536C291.731 112.346 290.972 115.902 289.706 119.204C288.188 122.506 286.416 125.3 283.884 127.84C281.353 130.38 278.569 132.158 275.278 133.682C271.987 135.206 268.444 135.714 264.647 135.714C259.078 135.714 254.016 134.19 249.713 131.142C245.409 128.094 242.119 124.284 239.841 119.458H252.497C254.016 120.982 256.041 122.506 258.066 123.522C260.091 124.538 262.369 125.046 264.647 125.046C266.925 125.046 268.95 124.538 270.975 123.776C273 123.014 274.772 121.744 276.037 120.22C277.556 118.696 278.569 116.918 279.581 115.14C280.341 113.108 280.847 111.076 280.847 108.79C280.847 105.488 279.834 102.694 278.062 100.154C274.266 102.44 269.709 103.71 264.647 103.71C260.85 103.71 257.306 102.948 254.016 101.678C250.725 100.154 247.941 98.3757 245.409 95.8357C242.878 93.2957 241.106 90.5017 239.588 87.1997C238.069 83.8977 237.562 80.3417 237.562 76.5317C237.562 72.7217 238.322 69.4197 239.588 66.1177C241.106 62.8157 242.878 60.0217 245.409 57.4817C247.941 54.9417 250.725 53.1637 254.016 51.6397C257.306 50.1157 260.85 49.6077 264.647 49.6077C267.684 49.6077 270.722 50.1157 273.253 51.1317C276.038 52.1477 278.316 53.4177 280.847 55.1957V49.8617H291.478V76.2777H291.731ZM264.9 92.5337C267.178 92.5337 269.203 92.0257 271.228 91.2637C273.253 90.5017 275.025 89.2317 276.291 87.7077C277.809 86.1837 278.822 84.4057 279.834 82.6277C280.594 80.5957 281.1 78.5637 281.1 76.2777C281.1 73.9917 280.594 71.9597 279.834 69.9277C279.075 67.8957 277.809 66.3717 276.291 64.8477C274.772 63.3237 273 62.3077 271.228 61.2917C269.203 60.5297 267.178 60.0217 264.9 60.0217C262.622 60.0217 260.597 60.5297 258.572 61.2917C256.547 62.0537 254.775 63.3237 253.509 64.8477C251.991 66.3717 250.978 67.8957 249.966 69.9277C249.206 71.9597 248.7 73.9917 248.7 76.2777C248.7 78.5637 249.206 80.5957 249.966 82.6277C250.725 84.6597 251.991 86.4377 253.509 87.7077C255.028 89.2317 256.8 90.2477 258.572 91.2637C260.597 92.2797 262.622 92.5337 264.9 92.5337Z" fill="#8787B3"/>
</svg>
