<svg width="405" height="127" viewBox="0 0 405 127" fill="none" xmlns="http://www.w3.org/2000/svg">
<g clip-path="url(#clip0_2141_4712)">
<path d="M24.4936 39.3701C28.2904 39.3701 31.8342 40.1321 35.1248 41.4021C38.4154 42.9261 41.1998 44.7041 43.7311 47.2441C46.2623 49.7841 48.0342 52.5781 49.5529 55.8801C51.0717 59.1821 51.5779 62.7381 51.5779 66.2941C51.5779 70.1041 50.8186 73.6601 49.5529 76.9621C48.0342 80.2641 46.2623 83.0581 43.7311 85.5981C41.1998 88.1381 38.4154 89.9161 35.1248 91.4401C31.8342 92.9641 28.2904 93.4721 24.4936 93.4721C21.4561 93.4721 18.6717 92.9641 15.8873 91.9481C13.1029 90.9321 10.5717 89.6621 8.29356 87.8841V125.73H-2.59082V39.3701H8.29356V44.7041C10.5717 43.1801 13.1029 41.6561 15.8873 40.6401C18.6717 39.8781 21.7092 39.3701 24.4936 39.3701ZM24.4936 82.8041C26.7717 82.8041 28.7967 82.2961 30.8217 81.5341C32.8467 80.7721 34.6186 79.5021 35.8842 77.9781C37.4029 76.4541 38.4154 74.6761 39.4279 72.8981C40.1873 70.8661 40.6936 68.8341 40.6936 66.5481C40.6936 64.2621 40.1873 62.2301 39.4279 60.1981C38.6686 58.1661 37.4029 56.6421 35.8842 55.1181C34.3654 53.5941 32.5936 52.5781 30.8217 51.5621C28.7967 50.8001 26.7717 50.2921 24.4936 50.2921C22.2154 50.2921 20.1904 50.8001 18.1654 51.5621C16.1404 52.3241 14.6217 53.5941 13.1029 55.1181C11.5842 56.6421 10.5717 58.1661 9.55918 60.1981C8.79981 62.2301 8.29356 64.2621 8.29356 66.5481C8.29356 68.8341 8.79981 70.8661 9.55918 72.8981C10.3186 74.9301 11.5842 76.7081 13.1029 77.9781C14.6217 79.5021 16.1404 80.5181 18.1654 81.5341C20.1904 82.5501 22.4686 82.8041 24.4936 82.8041Z" fill="#929497"/>
<path d="M90.0533 39.1161V50.0381H84.4846C82.2064 50.0381 80.1814 50.5461 78.1564 51.3081C76.1314 52.0701 74.3596 53.3401 73.0939 54.8641C71.5752 56.3881 70.5627 57.9121 69.5502 59.9441C68.7908 61.9761 68.2846 64.0081 68.2846 66.2941V93.4721H57.6533V39.1161H68.2846V44.7041C70.5627 42.9261 73.3471 41.6561 75.8783 40.6401C78.6627 39.6241 81.4471 39.1161 84.4846 39.1161H90.0533Z" fill="#929497"/>
<path d="M97.6465 17.5261H108.531V28.4481H97.6465V17.5261ZM97.6465 93.4721V39.3701H108.531V93.4721H97.6465Z" fill="#929497"/>
<path d="M185.228 38.1001C189.024 38.1001 192.315 38.8621 195.606 40.1321C198.896 41.6561 201.681 43.4341 204.212 45.9741C206.49 48.5141 208.515 51.3081 209.781 54.6101C211.299 57.9121 211.806 61.4681 211.806 65.0241V93.2181H201.428V65.0241C201.428 62.7381 200.921 60.7061 200.162 58.6741C199.403 56.6421 198.137 54.8641 196.618 53.5941C195.099 52.0701 193.328 51.0541 191.556 50.0381C189.531 49.2761 187.506 48.7681 185.228 48.7681C182.949 48.7681 180.924 49.2761 178.899 50.0381C176.874 50.8001 175.103 52.0701 173.837 53.5941C172.318 55.1181 171.306 56.8961 170.293 58.6741C169.534 60.7061 169.028 62.7381 169.028 65.0241V93.2181H158.396V65.0241C158.396 62.7381 157.89 60.7061 157.131 58.6741C156.371 56.6421 155.106 54.8641 153.587 53.5941C152.068 52.0701 150.296 51.0541 148.524 50.0381C146.499 49.2761 144.474 48.7681 142.196 48.7681C139.918 48.7681 137.893 49.2761 135.868 50.0381C133.843 50.8001 132.071 52.0701 130.806 53.5941C129.287 55.1181 128.274 56.8961 127.262 58.6741C126.503 60.7061 125.996 62.7381 125.996 65.0241V93.2181H115.618V39.3701H125.996V43.6881C128.274 41.9101 131.059 40.6401 133.59 39.6241C136.374 38.6081 139.159 38.1001 142.196 38.1001C146.499 38.1001 150.549 39.1161 154.346 41.1481C157.89 43.1801 161.181 45.7201 163.712 48.7681C166.243 45.7201 169.281 43.1801 172.824 41.1481C176.621 39.1161 180.671 38.1001 185.228 38.1001Z" fill="#929497"/>
<path d="M262.431 72.1362H231.043C232.309 75.4382 234.081 77.9782 236.865 80.0102C239.65 82.0422 242.94 83.0582 246.484 83.0582C251.8 83.0582 255.85 81.2802 259.14 77.7242H272.05C270.025 82.5502 266.734 86.6142 262.178 89.6622C257.621 92.7101 252.559 94.2341 246.737 94.2341C242.94 94.2341 239.396 93.4721 236.106 92.2021C232.815 90.6782 229.778 88.6462 227.246 86.1062C224.715 83.5662 222.69 80.5182 221.171 77.2162C219.653 73.9142 219.146 70.1042 219.146 66.2942C219.146 62.4842 219.906 58.9282 221.171 55.6262C222.69 52.3242 224.715 49.2762 227.246 46.7362C229.778 44.1962 232.815 42.1642 236.106 40.6402C239.396 39.1162 242.94 38.6082 246.737 38.6082C250.534 38.6082 254.078 39.3702 257.621 40.6402C260.912 42.1642 263.95 44.1962 266.481 46.7362C269.012 49.2762 271.037 52.3242 272.556 55.6262C274.075 58.9282 274.581 62.4842 274.581 66.2942C274.581 67.3102 274.581 68.3262 274.581 69.3422C274.581 70.3582 274.328 71.1202 274.075 72.1362H263.443H262.431ZM262.431 60.9602C261.165 57.6582 259.393 54.8642 256.356 52.8322C253.571 50.8002 250.281 49.7842 246.484 49.7842C242.687 49.7842 239.65 50.8002 236.865 52.8322C234.081 54.8642 232.056 57.6582 231.043 60.9602H262.431Z" fill="#929497"/>
<path d="M313.815 39.1161V50.0381H308.246C305.968 50.0381 303.943 50.5461 301.918 51.3081C299.893 52.0701 298.121 53.3401 296.856 54.8641C295.337 56.3881 294.324 57.9121 293.312 59.9441C292.553 61.9761 292.046 64.0081 292.046 66.2941V93.4721H281.415V39.1161H292.046V44.7041C294.324 42.9261 297.109 41.6561 299.64 40.6401C302.424 39.6241 305.209 39.1161 308.246 39.1161H313.815Z" fill="#929497"/>
</g>
<defs>
<clipPath id="clip0_2141_4712">
<rect width="405" height="127" fill="white"/>
</clipPath>
</defs>
</svg>
