<svg width="423" height="60" viewBox="0 0 423 60" fill="none" xmlns="http://www.w3.org/2000/svg">
<path d="M17.7598 1.10156C20.2498 1.10156 22.56 1.58157 24.72 2.51157C26.88 3.44157 28.7696 4.73153 30.3896 6.32153C32.0096 7.91153 33.2997 9.80155 34.2297 11.9615C35.1897 14.1215 35.6396 16.4016 35.6396 18.8316C35.6396 21.2616 35.1597 23.6316 34.2297 25.7916C33.2997 27.9516 32.0096 29.8415 30.3896 31.4615C28.7696 33.0815 26.88 34.3715 24.72 35.3015C22.56 36.2615 20.2498 36.7115 17.7598 36.7115C15.8098 36.7115 13.9194 36.3816 12.0894 35.7516C10.2594 35.0916 8.60965 34.2516 7.13965 33.1716V58.0416H0V1.10156H7.13965V4.67157C8.60965 3.59157 10.2594 2.72161 12.0894 2.09161C13.9194 1.43161 15.8098 1.13159 17.7598 1.13159V1.10156ZM17.7598 29.6016C19.2598 29.6016 20.6695 29.3316 21.9595 28.7616C23.2495 28.1916 24.3899 27.4116 25.3499 26.4516C26.3099 25.4916 27.0899 24.3516 27.6599 23.0616C28.2299 21.7716 28.5 20.3616 28.5 18.8616C28.5 17.3616 28.2299 16.0116 27.6599 14.7216C27.0899 13.4316 26.3099 12.2916 25.3499 11.3616C24.3899 10.4316 23.2495 9.65157 21.9595 9.08157C20.6695 8.51157 19.2598 8.24158 17.7598 8.24158C16.2598 8.24158 14.9094 8.51157 13.6194 9.08157C12.3294 9.65157 11.1898 10.4016 10.2598 11.3616C9.32977 12.3216 8.54974 13.4316 7.97974 14.7216C7.40974 16.0116 7.13965 17.3916 7.13965 18.8616C7.13965 20.3316 7.40974 21.7716 7.97974 23.0616C8.54974 24.3516 9.29977 25.4916 10.2598 26.4516C11.1898 27.4116 12.3294 28.1916 13.6194 28.7616C14.9094 29.3316 16.2898 29.6016 17.7598 29.6016Z" fill="#BEB0B3"/>
<path d="M68.6382 22.5862H47.9985C48.7485 24.6862 50.0379 26.4262 51.8979 27.8062C53.7279 29.1862 55.8583 29.8762 58.2883 29.8762C61.7383 29.8762 64.5284 28.6762 66.6284 26.3062H75.0579C73.7079 29.5462 71.5481 32.1563 68.5481 34.1663C65.5481 36.1763 62.1283 37.1663 58.2883 37.1663C55.7383 37.1663 53.398 36.6863 51.208 35.7563C49.018 34.8263 47.0982 33.5062 45.4182 31.8262C43.7382 30.1462 42.418 28.1963 41.488 26.0063C40.528 23.7863 40.0781 21.4163 40.0781 18.8663C40.0781 16.3163 40.558 14.0363 41.488 11.8163C42.418 9.59625 43.7382 7.64625 45.4182 5.99625C47.0982 4.31625 49.018 2.99625 51.208 2.06625C53.398 1.13625 55.7683 0.65625 58.2883 0.65625C60.8083 0.65625 63.208 1.13625 65.428 2.06625C67.648 2.99625 69.5985 4.31625 71.2485 5.99625C72.9285 7.67625 74.218 9.62625 75.178 11.8163C76.108 14.0363 76.5879 16.3763 76.5879 18.8663C76.5879 19.5563 76.5879 20.2163 76.5579 20.8163C76.5579 21.4163 76.4383 22.0162 76.2883 22.5862H68.6682H68.6382ZM68.6382 15.2963C67.8882 13.1363 66.568 11.3662 64.708 9.98621C62.848 8.60621 60.6883 7.91629 58.2583 7.91629C55.8283 7.91629 53.6979 8.60621 51.8679 9.98621C50.0379 11.3662 48.7485 13.1363 47.9685 15.2963H68.6082H68.6382Z" fill="#BEB0B3"/>
<path d="M103.144 0.867188V8.06717H99.4841C98.0141 8.06717 96.6637 8.33717 95.3438 8.90717C94.0538 9.47717 92.9141 10.2272 91.9541 11.1872C90.9941 12.1472 90.214 13.2272 89.644 14.5172C89.074 15.7772 88.804 17.1572 88.804 18.5972V36.5072H81.8438V0.867188H88.804V4.49716C90.364 3.35716 92.0438 2.48712 93.8738 1.82712C95.6738 1.16712 97.5642 0.867188 99.5142 0.867188H103.174H103.144Z" fill="#BEB0B3"/>
<path d="M154.587 0.234375C157.017 0.234375 159.327 0.714379 161.487 1.64438C163.647 2.57438 165.508 3.86444 167.068 5.45444C168.628 7.04444 169.888 8.93445 170.788 11.0945C171.718 13.2545 172.167 15.5344 172.167 17.9644V36.4444H165.297V17.9644C165.297 16.4944 165.027 15.1144 164.457 13.8244C163.887 12.5344 163.107 11.3944 162.147 10.4344C161.187 9.47445 160.048 8.69439 158.758 8.12439C157.468 7.55439 156.087 7.28439 154.617 7.28439C153.147 7.28439 151.798 7.55439 150.478 8.12439C149.188 8.69439 148.047 9.47445 147.087 10.4344C146.127 11.3944 145.347 12.5344 144.807 13.8244C144.267 15.1144 143.998 16.4944 143.998 17.9644V36.4444H137.038V17.9644C137.038 16.4944 136.768 15.1144 136.228 13.8244C135.688 12.5344 134.938 11.3944 133.948 10.4344C132.988 9.47445 131.847 8.69439 130.557 8.12439C129.267 7.55439 127.887 7.28439 126.417 7.28439C124.947 7.28439 123.567 7.55439 122.277 8.12439C120.987 8.69439 119.847 9.47445 118.887 10.4344C117.927 11.3944 117.147 12.5344 116.577 13.8244C116.007 15.1144 115.737 16.4944 115.737 17.9644V36.4444H108.867V1.04443H115.737V3.80438C117.297 2.66438 118.977 1.79446 120.807 1.16446C122.607 0.534459 124.498 0.234375 126.448 0.234375C129.358 0.234375 132.027 0.894386 134.427 2.21439C136.827 3.53439 138.897 5.21439 140.637 7.28439C142.257 5.24439 144.267 3.53439 146.667 2.21439C149.067 0.894386 151.737 0.234375 154.647 0.234375H154.587Z" fill="#BEB0B3"/>
<path d="M213.385 1.09406V36.4941H206.095V33.3441C204.685 34.4241 203.035 35.2941 201.145 35.9241C199.255 36.5841 197.275 36.884 195.235 36.884C192.805 36.884 190.495 36.404 188.365 35.474C186.205 34.544 184.315 33.2241 182.695 31.5741C181.075 29.9241 179.785 28.0041 178.855 25.7841C177.925 23.5641 177.445 21.2241 177.445 18.7341C177.445 16.2441 177.925 13.934 178.855 11.774C179.815 9.61405 181.075 7.7241 182.695 6.1041C184.315 4.4841 186.205 3.22404 188.365 2.29404C190.525 1.36404 192.835 0.914062 195.235 0.914062C197.275 0.914062 199.255 1.18406 201.145 1.75406C203.035 2.32406 204.685 3.22404 206.095 4.45404V1.06403H213.385V1.09406ZM195.235 29.5941C196.735 29.5941 198.176 29.3241 199.496 28.7841C200.816 28.2441 201.955 27.4941 202.945 26.5041C203.905 25.5441 204.685 24.3741 205.255 23.0541C205.825 21.7341 206.095 20.2941 206.095 18.7341C206.095 17.2641 205.825 15.8841 205.255 14.5941C204.685 13.3041 203.905 12.164 202.945 11.204C201.985 10.244 200.816 9.46407 199.496 8.89407C198.176 8.32407 196.765 8.05408 195.235 8.05408C193.705 8.05408 192.415 8.32407 191.095 8.89407C189.805 9.46407 188.665 10.244 187.705 11.204C186.745 12.164 185.965 13.3041 185.395 14.5941C184.825 15.8841 184.555 17.2641 184.555 18.7341C184.555 20.2941 184.825 21.7341 185.395 23.0541C185.965 24.3741 186.745 25.5141 187.705 26.5041C188.665 27.4641 189.805 28.2441 191.095 28.7841C192.385 29.3241 193.765 29.5941 195.235 29.5941Z" fill="#BEB0B3"/>
<path d="M237.51 0.304688C239.88 0.304688 242.13 0.754662 244.26 1.68466C246.39 2.61466 248.249 3.87469 249.839 5.46469C251.429 7.05469 252.689 8.91465 253.619 11.0446C254.549 13.1746 255 15.4546 255 17.8846V36.5147H247.86V18.3647C247.86 16.8947 247.59 15.5447 247.05 14.2847C246.51 13.0247 245.76 11.9147 244.83 10.9547C243.9 9.99465 242.79 9.24471 241.5 8.67471C240.24 8.10471 238.89 7.83463 237.48 7.83463C236.07 7.83463 234.629 8.10471 233.339 8.67471C232.049 9.24471 230.91 9.99465 229.95 10.9547C228.99 11.9147 228.21 12.9947 227.64 14.2847C227.07 15.5447 226.8 16.9247 226.8 18.3647V36.5147H219.75V1.11465H226.8V3.7847C228.27 2.7047 229.89 1.86468 231.69 1.23468C233.49 0.60468 235.44 0.304688 237.48 0.304688H237.51Z" fill="#BEB0B3"/>
<path d="M289.201 22.5862H268.56C269.31 24.6862 270.6 26.4262 272.46 27.8062C274.32 29.1862 276.421 29.8762 278.851 29.8762C282.301 29.8762 285.091 28.6762 287.191 26.3062H295.62C294.27 29.5462 292.111 32.1563 289.111 34.1663C286.111 36.1763 282.691 37.1663 278.851 37.1663C276.301 37.1663 273.961 36.6863 271.771 35.7563C269.581 34.8263 267.661 33.5062 265.981 31.8262C264.301 30.1462 263.011 28.1963 262.051 26.0063C261.121 23.7863 260.641 21.4163 260.641 18.8663C260.641 16.3163 261.121 14.0363 262.051 11.8163C263.011 9.59625 264.301 7.64625 265.981 5.99625C267.661 4.34625 269.581 2.99625 271.771 2.06625C273.961 1.13625 276.331 0.65625 278.851 0.65625C281.371 0.65625 283.77 1.13625 285.99 2.06625C288.21 2.99625 290.16 4.31625 291.81 5.99625C293.46 7.67625 294.78 9.62625 295.74 11.8163C296.67 14.0363 297.15 16.3763 297.15 18.8663C297.15 19.5563 297.15 20.2163 297.12 20.8163C297.12 21.4163 297.001 22.0162 296.851 22.5862H289.231H289.201ZM289.201 15.2963C288.451 13.1363 287.131 11.3662 285.271 9.98621C283.411 8.60621 281.251 7.91629 278.821 7.91629C276.391 7.91629 274.26 8.60621 272.43 9.98621C270.6 11.3662 269.31 13.1363 268.53 15.2963H289.171H289.201Z" fill="#BEB0B3"/>
<path d="M320.128 0.304688C322.498 0.304688 324.748 0.754662 326.878 1.68466C329.008 2.61466 330.867 3.87469 332.457 5.46469C334.047 7.05469 335.307 8.91465 336.237 11.0446C337.167 13.1746 337.617 15.4546 337.617 17.8846V36.5147H330.478V18.3647C330.478 16.8947 330.207 15.5447 329.667 14.2847C329.127 13.0247 328.378 11.9147 327.448 10.9547C326.488 10.0247 325.407 9.24471 324.117 8.67471C322.857 8.10471 321.508 7.83463 320.098 7.83463C318.688 7.83463 317.247 8.10471 315.957 8.67471C314.667 9.24471 313.528 9.99465 312.568 10.9547C311.608 11.9147 310.828 12.9947 310.258 14.2847C309.688 15.5447 309.417 16.9247 309.417 18.3647V36.5147H302.367V1.11465H309.417V3.7847C310.887 2.7047 312.507 1.86468 314.307 1.23468C316.107 0.60468 318.058 0.304688 320.098 0.304688H320.128Z" fill="#BEB0B3"/>
<path d="M378.058 26.1525C377.308 27.7725 376.348 29.2425 375.208 30.5625C374.068 31.8825 372.778 33.0225 371.368 34.0125C369.928 34.9725 368.368 35.7525 366.628 36.2925C364.888 36.8325 363.118 37.1025 361.288 37.1025C358.738 37.1025 356.398 36.6225 354.208 35.6925C352.018 34.7325 350.098 33.4425 348.418 31.7625C346.738 30.0825 345.418 28.1325 344.488 25.9425C343.528 23.7225 343.078 21.3525 343.078 18.8025C343.078 16.2525 343.558 13.8825 344.488 11.6625C345.418 9.44254 346.738 7.52247 348.418 5.87247C350.098 4.22247 352.018 2.9325 354.208 1.9725C356.398 1.0425 358.768 0.5625 361.288 0.5625C363.118 0.5625 364.918 0.832467 366.628 1.37247C368.338 1.91247 369.928 2.6625 371.368 3.6525C372.808 4.6125 374.068 5.78251 375.208 7.13251C376.348 8.48251 377.278 9.95245 378.058 11.5724H369.478C368.458 10.4924 367.228 9.59247 365.848 8.87247C364.438 8.15247 362.938 7.79251 361.318 7.79251C359.848 7.79251 358.468 8.06251 357.148 8.63251C355.828 9.20251 354.658 9.9825 353.668 10.9725C352.678 11.9625 351.898 13.1325 351.328 14.4825C350.758 15.8325 350.488 17.2725 350.488 18.7725C350.488 20.2725 350.758 21.7125 351.328 23.0325C351.898 24.3525 352.678 25.5225 353.668 26.5125C354.658 27.5025 355.828 28.2825 357.148 28.8525C358.468 29.4225 359.848 29.6925 361.318 29.6925C364.678 29.6925 367.378 28.4925 369.508 26.1225H378.088L378.058 26.1525Z" fill="#BEB0B3"/>
<path d="M411.841 22.5862H391.202C391.952 24.6862 393.242 26.4262 395.102 27.8062C396.932 29.1862 399.061 29.8762 401.491 29.8762C404.941 29.8762 407.732 28.6762 409.832 26.3062H418.262C416.912 29.5462 414.752 32.1563 411.752 34.1663C408.752 36.1763 405.331 37.1663 401.491 37.1663C398.941 37.1663 396.602 36.6863 394.412 35.7563C392.222 34.8263 390.301 33.5062 388.621 31.8262C386.941 30.1462 385.622 28.1963 384.692 26.0063C383.732 23.7863 383.281 21.4163 383.281 18.8663C383.281 16.3163 383.762 14.0363 384.692 11.8163C385.622 9.59625 386.941 7.64625 388.621 5.99625C390.301 4.31625 392.222 2.99625 394.412 2.06625C396.602 1.13625 398.971 0.65625 401.491 0.65625C404.011 0.65625 406.412 1.13625 408.632 2.06625C410.852 2.99625 412.802 4.31625 414.452 5.99625C416.132 7.67625 417.422 9.62625 418.382 11.8163C419.312 14.0363 419.792 16.3763 419.792 18.8663C419.792 19.5563 419.792 20.2163 419.762 20.8163C419.762 21.4163 419.641 22.0162 419.491 22.5862H411.871H411.841ZM411.841 15.2963C411.091 13.1363 409.772 11.3662 407.912 9.98621C406.052 8.60621 403.891 7.91629 401.461 7.91629C399.031 7.91629 396.902 8.60621 395.072 9.98621C393.242 11.3662 391.952 13.1363 391.172 15.2963H411.811H411.841Z" fill="#BEB0B3"/>
</svg>
