<svg width="192" height="60" viewBox="0 0 192 60" fill="none" xmlns="http://www.w3.org/2000/svg">
<path d="M36.6919 47.1525C35.9419 48.7725 34.9821 50.2425 33.8721 51.5625C32.7321 52.8825 31.442 54.0225 30.032 55.0125C28.622 56.0025 27.0317 56.7525 25.2917 57.2925C23.5517 57.8325 21.7817 58.1025 19.9517 58.1025C17.4017 58.1025 15.0621 57.6225 12.8721 56.6925C10.6821 55.7325 8.76228 54.4425 7.08228 52.7625C5.40228 51.0825 4.0821 49.1325 3.1521 46.9425C2.1921 44.7225 1.74219 42.3525 1.74219 39.8025C1.74219 37.2525 2.2221 34.8825 3.1521 32.6625C4.0821 30.4425 5.40228 28.5225 7.08228 26.8725C8.76228 25.2225 10.6821 23.9325 12.8721 22.9725C15.0621 22.0425 17.4317 21.5625 19.9517 21.5625C21.7817 21.5625 23.5817 21.8325 25.2917 22.3725C27.0017 22.9125 28.592 23.6625 30.032 24.6525C31.472 25.6425 32.7321 26.7825 33.8721 28.1325C35.0121 29.4825 35.9419 30.9524 36.6919 32.5724H28.1123C27.0923 31.4924 25.8617 30.5925 24.4517 29.8725C23.0417 29.1525 21.5416 28.7925 19.9216 28.7925C18.4516 28.7925 17.072 29.0625 15.752 29.6325C14.432 30.2025 13.2622 30.9825 12.2722 31.9725C11.2822 32.9625 10.5021 34.1325 9.93213 35.4825C9.36213 36.8325 9.09204 38.2725 9.09204 39.7725C9.09204 41.2725 9.36213 42.7125 9.93213 44.0325C10.5021 45.3525 11.2822 46.5225 12.2722 47.5125C13.2622 48.5025 14.432 49.2825 15.752 49.8525C17.072 50.4225 18.4516 50.6925 19.9216 50.6925C23.2816 50.6925 26.0123 49.4925 28.1123 47.1225H36.6919V47.1525Z" fill="#C7D42D"/>
<path d="M59.6702 22.0996C62.1602 22.0996 64.5004 22.5796 66.6604 23.5096C68.8504 24.4396 70.7408 25.7296 72.3608 27.3496C73.9808 28.9696 75.2402 30.8597 76.1702 33.0197C77.1002 35.1797 77.5508 37.4896 77.5508 39.8896V57.4697H70.5005V39.8896C70.5005 38.4196 70.2304 37.0697 69.6604 35.7497C69.0904 34.4597 68.3103 33.3496 67.3503 32.3896C66.3903 31.4596 65.2206 30.6797 63.9006 30.1097C62.5806 29.5397 61.1701 29.2697 59.6401 29.2697C58.1101 29.2697 56.7905 29.5397 55.4705 30.1097C54.1505 30.6797 53.0108 31.4296 52.0208 32.3896C51.0608 33.3496 50.2807 34.4597 49.7107 35.7497C49.1407 37.0397 48.8706 38.4196 48.8706 39.8896V57.4697H41.8203V0.679688H48.8706V25.6997C50.4906 24.5597 52.1704 23.6896 53.9404 23.0296C55.6804 22.3696 57.6001 22.0696 59.6401 22.0696L59.6702 22.0996Z" fill="#C7D42D"/>
<path d="M118.409 22.0941V57.4941H111.119V54.3441C109.709 55.4241 108.058 56.2941 106.168 56.9241C104.278 57.5841 102.299 57.884 100.259 57.884C97.8285 57.884 95.5184 57.404 93.3884 56.474C91.2284 55.544 89.3387 54.2241 87.7188 52.5741C86.0987 50.9241 84.8087 49.0041 83.8787 46.7841C82.9487 44.5641 82.4688 42.2241 82.4688 39.7341C82.4688 37.2441 82.9487 34.934 83.8787 32.774C84.8387 30.614 86.0987 28.7241 87.7188 27.1041C89.3387 25.4841 91.2284 24.224 93.3884 23.294C95.5484 22.364 97.8585 21.9141 100.259 21.9141C102.299 21.9141 104.278 22.1841 106.168 22.7541C108.058 23.3241 109.709 24.224 111.119 25.454V22.064H118.409V22.0941ZM100.259 50.5941C101.759 50.5941 103.199 50.3241 104.519 49.7841C105.839 49.2441 106.979 48.4941 107.969 47.5041C108.929 46.5441 109.709 45.3741 110.279 44.0541C110.849 42.7341 111.119 41.2941 111.119 39.7341C111.119 38.2641 110.849 36.8841 110.279 35.5941C109.709 34.3041 108.929 33.164 107.969 32.204C107.009 31.244 105.839 30.4641 104.519 29.8941C103.199 29.3241 101.789 29.0541 100.259 29.0541C98.7285 29.0541 97.4389 29.3241 96.1189 29.8941C94.8289 30.4641 93.6885 31.244 92.7285 32.204C91.7685 33.164 90.9885 34.3041 90.4185 35.5941C89.8485 36.8841 89.5791 38.2641 89.5791 39.7341C89.5791 41.2941 89.8485 42.7341 90.4185 44.0541C90.9885 45.3741 91.7685 46.5141 92.7285 47.5041C93.6885 48.4641 94.8289 49.2441 96.1189 49.7841C97.4089 50.3241 98.7885 50.5941 100.259 50.5941Z" fill="#C7D42D"/>
<path d="M142.376 21.4688C144.866 21.4688 147.237 21.9487 149.457 22.9387C151.707 23.8987 153.627 25.2187 155.277 26.8687C156.927 28.5187 158.247 30.4687 159.207 32.6887C160.167 34.9387 160.677 37.3088 160.677 39.7688C160.677 42.2288 160.197 44.6888 159.207 46.9088C158.247 49.1288 156.927 51.0488 155.277 52.6988C153.627 54.3488 151.677 55.6688 149.457 56.6288C147.237 57.5888 144.836 58.0987 142.376 58.0987C139.916 58.0987 137.457 57.6188 135.237 56.6288C133.017 55.6688 131.096 54.3488 129.446 52.6988C127.796 51.0488 126.477 49.1288 125.517 46.9088C124.557 44.6888 124.047 42.3188 124.047 39.7688C124.047 37.2188 124.527 34.9087 125.517 32.6887C126.507 30.4687 127.796 28.5187 129.446 26.8687C131.096 25.2187 133.017 23.8987 135.237 22.9387C137.457 21.9787 139.826 21.4688 142.376 21.4688ZM142.376 50.7188C143.936 50.7188 145.406 50.4488 146.756 49.8788C148.106 49.3088 149.277 48.5288 150.267 47.5388C151.257 46.5488 152.037 45.3787 152.607 44.0587C153.177 42.7387 153.446 41.3287 153.446 39.7987C153.446 38.2687 153.177 36.7687 152.607 35.4187C152.037 34.0687 151.257 32.8988 150.267 31.9088C149.277 30.9188 148.106 30.1387 146.756 29.5687C145.406 28.9987 143.936 28.7287 142.376 28.7287C140.816 28.7287 139.437 28.9987 138.117 29.5687C136.797 30.1387 135.626 30.9188 134.636 31.9088C133.646 32.8988 132.867 34.0987 132.297 35.4187C131.727 36.7687 131.457 38.2387 131.457 39.7987C131.457 41.3587 131.727 42.7387 132.297 44.0587C132.867 45.3787 133.646 46.5488 134.636 47.5388C135.626 48.5288 136.797 49.3088 138.117 49.8788C139.437 50.4488 140.846 50.7188 142.376 50.7188Z" fill="#C7D42D"/>
<path d="M183.695 37.064C184.985 37.634 186.125 38.3841 187.085 39.3441C188.045 40.3041 188.824 41.3841 189.394 42.6741C189.964 43.9341 190.234 45.3141 190.234 46.7541C190.234 48.1941 189.964 49.664 189.394 50.954C188.824 52.244 188.045 53.3841 187.085 54.3441C186.125 55.3041 184.985 56.0841 183.695 56.6541C182.405 57.2241 180.995 57.4941 179.495 57.4941H165.484V50.3541H179.495C180.575 50.3541 181.475 50.0241 182.165 49.3341C182.855 48.6741 183.215 47.7741 183.215 46.6941C183.215 45.7641 182.855 44.9541 182.165 44.2341C181.475 43.5141 180.575 43.1241 179.495 43.1241H176.014C174.544 43.1241 173.195 42.8541 171.935 42.2841C170.675 41.7141 169.564 40.9641 168.604 40.0041C167.644 39.0741 166.894 37.9641 166.324 36.6741C165.754 35.4141 165.484 34.0641 165.484 32.6541C165.484 31.1541 165.754 29.744 166.324 28.454C166.894 27.164 167.644 26.024 168.604 25.064C169.534 24.104 170.645 23.3241 171.935 22.7541C173.195 22.1841 174.574 21.9141 176.014 21.9141H186.695V29.114H176.014C175.084 29.114 174.275 29.4441 173.555 30.0741C172.835 30.7341 172.445 31.5741 172.445 32.6541C172.445 33.5841 172.805 34.3941 173.555 35.0841C174.275 35.7741 175.114 36.134 176.014 36.134H179.495C180.995 36.134 182.405 36.404 183.695 36.974V37.064Z" fill="#C7D42D"/>
</svg>
