<svg width="262" height="42" viewBox="0 0 262 42" fill="none" xmlns="http://www.w3.org/2000/svg">
<path d="M62.8943 16.1821V40.9622H57.8814V38.7571C56.9118 39.5131 55.7768 40.1222 54.4771 40.5632C53.1774 41.0252 51.8159 41.2351 50.4131 41.2351C48.7421 41.2351 47.1535 40.8991 45.6888 40.2481C44.2034 39.5971 42.9039 38.6732 41.7899 37.5182C40.6759 36.3632 39.7888 35.0192 39.1492 33.4652C38.5097 31.9112 38.1797 30.2732 38.1797 28.5302C38.1797 26.7872 38.5097 25.1701 39.1492 23.6581C39.8094 22.1461 40.6759 20.8232 41.7899 19.6892C42.9039 18.5552 44.2034 17.6731 45.6888 17.0221C47.1741 16.3711 48.7627 16.0562 50.4131 16.0562C51.8159 16.0562 53.1774 16.2451 54.4771 16.6441C55.7768 17.0431 56.9118 17.6731 57.8814 18.5341V16.1611H62.8943V16.1821ZM50.4131 36.1321C51.4446 36.1321 52.4352 35.9432 53.3429 35.5652C54.2506 35.1872 55.0343 34.6622 55.7151 33.9692C56.3753 33.2972 56.9117 32.4782 57.3037 31.5542C57.6956 30.6302 57.8814 29.6222 57.8814 28.5302C57.8814 27.5012 57.6956 26.5351 57.3037 25.6321C56.9117 24.7291 56.3753 23.9311 55.7151 23.2591C55.055 22.5871 54.2506 22.0412 53.3429 21.6422C52.4352 21.2432 51.4652 21.0542 50.4131 21.0542C49.361 21.0542 48.4741 21.2432 47.5664 21.6422C46.6793 22.0412 45.8951 22.5871 45.235 23.2591C44.5748 23.9311 44.0384 24.7291 43.6464 25.6321C43.2544 26.5351 43.0687 27.5012 43.0687 28.5302C43.0687 29.6222 43.2544 30.6302 43.6464 31.5542C44.0384 32.4782 44.5748 33.2762 45.235 33.9692C45.8951 34.6412 46.6793 35.1872 47.5664 35.5652C48.4535 35.9432 49.4022 36.1321 50.4131 36.1321Z" fill="#00ABC6"/>
<path d="M72.7753 31.4608C73.1673 32.3848 73.7037 33.2038 74.3845 33.8968C75.0653 34.5898 75.8697 35.1358 76.7774 35.5348C77.6851 35.9338 78.6546 36.1228 79.7067 36.1228V41.1628C77.9532 41.1628 76.3236 40.8268 74.797 40.1758C73.2704 39.5038 71.9502 38.6008 70.8156 37.4458C69.681 36.2908 68.7938 34.9468 68.1336 33.3928C67.4735 31.8388 67.1641 30.1798 67.1641 28.3948V6.11377H72.177V16.0468H79.7067V21.1498H72.177V28.4158C72.177 29.5078 72.3627 30.5158 72.7547 31.4398L72.7753 31.4608Z" fill="#00ABC6"/>
<path d="M102.773 31.2104H88.5789C89.0946 32.6804 89.9818 33.8983 91.2609 34.8643C92.5193 35.8303 93.9843 36.3134 95.6553 36.3134C98.0278 36.3134 99.9459 35.4733 101.39 33.8143H107.187C106.259 36.0823 104.774 37.9094 102.711 39.3164C100.648 40.7234 98.2959 41.4164 95.6553 41.4164C93.9018 41.4164 92.2924 41.0804 90.7864 40.4294C89.2804 39.7784 87.9603 38.8543 86.805 37.6783C85.6497 36.5023 84.7419 35.1374 84.1024 33.6044C83.4422 32.0504 83.1328 30.3914 83.1328 28.6064C83.1328 26.8214 83.4628 25.2254 84.1024 23.6714C84.7419 22.1174 85.6497 20.7524 86.805 19.5974C87.9603 18.4214 89.2804 17.4974 90.7864 16.8464C92.2924 16.1954 93.9224 15.8594 95.6553 15.8594C97.3882 15.8594 99.0384 16.1954 100.565 16.8464C102.092 17.4974 103.432 18.4214 104.567 19.5974C105.722 20.7734 106.61 22.1384 107.27 23.6714C107.909 25.2254 108.239 26.8634 108.239 28.6064C108.239 29.0894 108.239 29.5514 108.219 29.9714C108.219 30.3914 108.136 30.8114 108.033 31.2104H102.793H102.773ZM102.773 26.1074C102.257 24.5954 101.349 23.3563 100.07 22.3903C98.7908 21.4243 97.3057 20.9414 95.6347 20.9414C93.9636 20.9414 92.4987 21.4243 91.2402 22.3903C89.9818 23.3563 89.0946 24.5954 88.5582 26.1074H102.752H102.773Z" fill="#00ABC6"/>
<path d="M126.499 16.0068V21.0468H123.982C122.971 21.0468 122.043 21.2358 121.135 21.6348C120.248 22.0338 119.464 22.5588 118.804 23.2308C118.144 23.9028 117.608 24.6588 117.216 25.5618C116.824 26.4438 116.638 27.4098 116.638 28.4178V40.9548H111.852V16.0068H116.638V18.5478C117.711 17.7498 118.866 17.1408 120.124 16.6788C121.362 16.2168 122.662 16.0068 124.003 16.0068H126.52H126.499Z" fill="#00ABC6"/>
<path d="M165.867 1.15918V41.0802H160.958V38.5392C158.771 40.2402 156.295 41.0802 153.551 41.0802C151.88 41.0802 150.292 40.7442 148.827 40.0932C147.342 39.4422 146.042 38.5392 144.949 37.4052C143.856 36.2712 142.989 34.9482 142.329 33.4362C141.669 31.9242 141.359 30.3072 141.359 28.5642C141.359 26.8212 141.689 25.2462 142.329 23.7552C142.968 22.2432 143.856 20.9202 144.949 19.8072C146.042 18.6942 147.342 17.8121 148.827 17.1401C150.312 16.4891 151.88 16.1531 153.551 16.1531C154.954 16.1531 156.274 16.3632 157.512 16.8042C158.729 17.2452 159.885 17.8332 160.958 18.5892V1.1802H165.867V1.15918ZM153.551 36.0822C154.562 36.0822 155.512 35.8932 156.419 35.4942C157.327 35.0952 158.111 34.5491 158.792 33.8772C159.452 33.2052 159.988 32.3862 160.38 31.4622C160.772 30.5382 160.958 29.5722 160.958 28.5432C160.958 27.5142 160.772 26.5692 160.38 25.6872C159.988 24.8052 159.452 24.0072 158.792 23.3352C158.131 22.6632 157.327 22.1172 156.419 21.7182C155.512 21.3192 154.542 21.1302 153.551 21.1302C152.561 21.1302 151.613 21.3192 150.746 21.7182C149.88 22.1172 149.095 22.6632 148.435 23.3352C147.775 24.0072 147.239 24.8052 146.847 25.6872C146.455 26.5692 146.269 27.5352 146.269 28.5432C146.269 29.5512 146.455 30.5382 146.847 31.4622C147.239 32.3862 147.775 33.1842 148.435 33.8772C149.095 34.5701 149.88 35.0952 150.746 35.4942C151.613 35.8932 152.561 36.0822 153.551 36.0822Z" fill="#00ABC6"/>
<path d="M184.353 16.0068V21.0468H181.857C180.846 21.0468 179.897 21.2358 179.01 21.6348C178.123 22.0338 177.339 22.5588 176.679 23.2308C176.018 23.9028 175.482 24.6588 175.09 25.5618C174.698 26.4438 174.512 27.4098 174.512 28.4178V40.9548H169.727V16.0068H174.512V18.5478C175.585 17.7498 176.741 17.1408 177.999 16.6788C179.237 16.2168 180.536 16.0068 181.877 16.0068H184.374H184.353Z" fill="#00ABC6"/>
<path d="M188.25 6.13037H193.16V11.1284H188.25V6.13037ZM188.25 40.9484V16.1054H193.16V40.9484H188.25Z" fill="#00ABC6"/>
<path d="M242.054 31.2104H227.86C228.376 32.6804 229.263 33.8983 230.542 34.8643C231.801 35.8303 233.265 36.3134 234.936 36.3134C237.309 36.3134 239.227 35.4733 240.671 33.8143H246.468C245.54 36.0823 244.055 37.9094 241.992 39.3164C239.929 40.7234 237.577 41.4164 234.936 41.4164C233.183 41.4164 231.574 41.0804 230.068 40.4294C228.562 39.7784 227.241 38.8543 226.086 37.6783C224.93 36.5023 224.023 35.1374 223.384 33.6044C222.723 32.0504 222.414 30.3914 222.414 28.6064C222.414 26.8214 222.744 25.2254 223.384 23.6714C224.023 22.1174 224.93 20.7524 226.086 19.5974C227.241 18.4214 228.562 17.4974 230.068 16.8464C231.574 16.1954 233.203 15.8594 234.936 15.8594C236.669 15.8594 238.32 16.1954 239.846 16.8464C241.373 17.4974 242.714 18.4214 243.848 19.5974C245.004 20.7734 245.891 22.1384 246.551 23.6714C247.19 25.2254 247.521 26.8634 247.521 28.6064C247.521 29.0894 247.52 29.5514 247.5 29.9714C247.5 30.3914 247.417 30.8114 247.314 31.2104H242.074H242.054ZM242.054 26.1074C241.538 24.5954 240.63 23.3563 239.351 22.3903C238.072 21.4243 236.586 20.9414 234.915 20.9414C233.244 20.9414 231.78 21.4243 230.521 22.3903C229.263 23.3563 228.376 24.5954 227.839 26.1074H242.033H242.054Z" fill="#00ABC6"/>
<path d="M222 16.0068V16.1748L210.448 40.9548H207.889L196.398 16.1748V16.0068H202.938L207.683 27.0948C208.343 28.6068 208.838 30.1608 209.21 31.7568C209.684 29.9088 210.2 28.3548 210.736 27.0948L215.481 16.0068H222.021H222Z" fill="#00ABC6"/>
<path d="M7.69066 16.1709L10.1868 27.4059C10.7851 30.0519 11.3421 32.7399 11.796 35.4489H11.8992C12.3944 32.7609 13.1988 30.0099 13.859 27.4689L17.0567 16.1709H22.049L25.1022 27.1539C25.8449 30.0519 26.5054 32.7399 27.0624 35.4489H27.1652C27.5159 32.7609 28.1142 30.0519 28.7744 27.1539L31.477 16.1709H37.5215L29.8678 40.9509H24.174L21.2653 30.8709C20.5226 28.2669 19.9653 25.9359 19.4083 22.9329H19.3056C18.7486 25.9779 18.15 28.4349 17.4486 30.8709L14.3541 40.9509H8.59826L1.39844 16.1709H7.69066Z" fill="#00ABC6"/>
</svg>
