<svg width="381" height="60" viewBox="0 0 381 60" fill="none" xmlns="http://www.w3.org/2000/svg">
<path d="M91.4712 23.1175V58.5175H84.1814V55.3675C82.7714 56.4475 81.121 57.3175 79.231 57.9475C77.341 58.6075 75.361 58.9075 73.321 58.9075C70.891 58.9075 68.5809 58.4275 66.4509 57.4975C64.2909 56.5675 62.4012 55.2475 60.7812 53.5975C59.1612 51.9475 57.8712 50.0275 56.9412 47.8075C56.0112 45.5875 55.5312 43.2475 55.5312 40.7575C55.5312 38.2675 56.0112 35.9575 56.9412 33.7975C57.9012 31.6375 59.1612 29.7475 60.7812 28.1275C62.4012 26.5075 64.2909 25.2475 66.4509 24.3175C68.6109 23.3875 70.921 22.9375 73.321 22.9375C75.361 22.9375 77.341 23.2075 79.231 23.7775C81.121 24.3475 82.7714 25.2475 84.1814 26.4775V23.0875H91.4712V23.1175ZM73.321 51.6175C74.821 51.6175 76.2615 51.3475 77.5815 50.8075C78.9015 50.2675 80.0413 49.5175 81.0312 48.5275C81.9912 47.5675 82.7713 46.3975 83.3413 45.0775C83.9113 43.7575 84.1814 42.3175 84.1814 40.7575C84.1814 39.2875 83.9113 37.9075 83.3413 36.6175C82.7713 35.3275 81.9912 34.1875 81.0312 33.2275C80.0713 32.2675 78.9015 31.4875 77.5815 30.9175C76.2615 30.3475 74.851 30.0775 73.321 30.0775C71.791 30.0775 70.5014 30.3475 69.1814 30.9175C67.8914 31.4875 66.751 32.2675 65.791 33.2275C64.831 34.1875 64.051 35.3275 63.481 36.6175C62.911 37.9075 62.6409 39.2875 62.6409 40.7575C62.6409 42.3175 62.911 43.7575 63.481 45.0775C64.051 46.3975 64.831 47.5375 65.791 48.5275C66.751 49.4875 67.8914 50.2675 69.1814 50.8075C70.4714 51.3475 71.851 51.6175 73.321 51.6175Z" fill="#00ABC6"/>
<path d="M105.84 44.9444C106.41 46.2644 107.19 47.4344 108.18 48.4244C109.17 49.4144 110.339 50.1944 111.659 50.7644C112.979 51.3344 114.389 51.6044 115.919 51.6044V58.8044C113.369 58.8044 111 58.3244 108.78 57.3944C106.56 56.4344 104.64 55.1444 102.99 53.4944C101.34 51.8444 100.05 49.9244 99.0896 47.7044C98.1296 45.4844 97.6797 43.1144 97.6797 40.5644V8.73438H104.969V22.9244H115.919V30.2144H104.969V40.5945C104.969 42.1545 105.24 43.5945 105.81 44.9145L105.84 44.9444Z" fill="#00ABC6"/>
<path d="M149.458 44.5862H128.818C129.568 46.6862 130.858 48.4262 132.718 49.8062C134.548 51.1862 136.679 51.8762 139.109 51.8762C142.559 51.8762 145.348 50.6762 147.448 48.3062H155.878C154.528 51.5462 152.368 54.1563 149.368 56.1663C146.368 58.1763 142.949 59.1663 139.109 59.1663C136.559 59.1663 134.218 58.6863 132.028 57.7563C129.838 56.8263 127.919 55.5062 126.239 53.8262C124.559 52.1462 123.238 50.1963 122.308 48.0063C121.348 45.7863 120.898 43.4163 120.898 40.8663C120.898 38.3163 121.378 36.0363 122.308 33.8163C123.238 31.5963 124.559 29.6462 126.239 27.9962C127.919 26.3162 129.838 24.9963 132.028 24.0663C134.218 23.1363 136.589 22.6562 139.109 22.6562C141.629 22.6562 144.028 23.1363 146.248 24.0663C148.468 24.9963 150.418 26.3162 152.068 27.9962C153.748 29.6762 155.038 31.6263 155.998 33.8163C156.928 36.0363 157.408 38.3763 157.408 40.8663C157.408 41.5563 157.408 42.2163 157.378 42.8163C157.378 43.4163 157.259 44.0162 157.109 44.5862H149.489H149.458ZM149.458 37.2963C148.708 35.1363 147.388 33.3662 145.528 31.9862C143.668 30.6062 141.509 29.9163 139.079 29.9163C136.649 29.9163 134.518 30.6062 132.688 31.9862C130.858 33.3662 129.568 35.1363 128.788 37.2963H149.428H149.458Z" fill="#00ABC6"/>
<path d="M183.957 22.8672V30.0672H180.297C178.827 30.0672 177.476 30.3372 176.156 30.9072C174.866 31.4772 173.727 32.2272 172.767 33.1872C171.807 34.1472 171.027 35.2272 170.457 36.5172C169.887 37.7772 169.616 39.1572 169.616 40.5972V58.5072H162.656V22.8672H169.616V26.4972C171.176 25.3572 172.856 24.4871 174.686 23.8271C176.486 23.1671 178.377 22.8672 180.327 22.8672H183.987H183.957Z" fill="#00ABC6"/>
<path d="M261.569 1.65625V58.6863H254.43V55.0562C251.25 57.4862 247.649 58.6863 243.659 58.6863C241.229 58.6863 238.919 58.2063 236.789 57.2763C234.629 56.3463 232.74 55.0563 231.15 53.4363C229.56 51.8163 228.3 49.9262 227.34 47.7662C226.38 45.6062 225.93 43.2962 225.93 40.8062C225.93 38.3162 226.41 36.0663 227.34 33.9363C228.27 31.7763 229.56 29.8863 231.15 28.2963C232.74 26.7063 234.629 25.4462 236.789 24.4862C238.949 23.5562 241.229 23.0762 243.659 23.0762C245.699 23.0762 247.619 23.3763 249.419 24.0063C251.189 24.6363 252.87 25.4762 254.43 26.5562V1.68628H261.569V1.65625ZM243.659 51.5463C245.129 51.5463 246.51 51.2763 247.83 50.7063C249.15 50.1363 250.29 49.3562 251.28 48.3962C252.24 47.4362 253.02 46.2662 253.59 44.9462C254.16 43.6262 254.43 42.2463 254.43 40.7763C254.43 39.3063 254.16 37.9562 253.59 36.6962C253.02 35.4362 252.24 34.2962 251.28 33.3362C250.32 32.3762 249.15 31.5963 247.83 31.0263C246.51 30.4563 245.099 30.1863 243.659 30.1863C242.219 30.1863 240.84 30.4563 239.58 31.0263C238.32 31.5963 237.179 32.3762 236.219 33.3362C235.259 34.2962 234.479 35.4362 233.909 36.6962C233.339 37.9562 233.069 39.3363 233.069 40.7763C233.069 42.2163 233.339 43.6262 233.909 44.9462C234.479 46.2662 235.259 47.4062 236.219 48.3962C237.179 49.3862 238.32 50.1363 239.58 50.7063C240.84 51.2763 242.219 51.5463 243.659 51.5463Z" fill="#00ABC6"/>
<path d="M288.449 22.8672V30.0672H284.819C283.349 30.0672 281.97 30.3372 280.68 30.9072C279.39 31.4772 278.249 32.2272 277.289 33.1872C276.329 34.1472 275.549 35.2272 274.979 36.5172C274.409 37.7772 274.139 39.1572 274.139 40.5972V58.5072H267.18V22.8672H274.139V26.4972C275.699 25.3572 277.38 24.4871 279.21 23.8271C281.01 23.1671 282.899 22.8672 284.849 22.8672H288.479H288.449Z" fill="#00ABC6"/>
<path d="M294.117 8.75781H301.257V15.8978H294.117V8.75781ZM294.117 58.4979V23.0078H301.257V58.4979H294.117Z" fill="#00ABC6"/>
<path d="M372.357 44.5862H351.717C352.467 46.6862 353.757 48.4262 355.617 49.8062C357.447 51.1862 359.576 51.8762 362.006 51.8762C365.456 51.8762 368.246 50.6762 370.346 48.3062H378.777C377.427 51.5462 375.267 54.1563 372.267 56.1663C369.267 58.1763 365.846 59.1663 362.006 59.1663C359.456 59.1663 357.117 58.6863 354.927 57.7563C352.737 56.8263 350.816 55.5062 349.136 53.8262C347.456 52.1462 346.137 50.1963 345.207 48.0063C344.247 45.7863 343.797 43.4163 343.797 40.8663C343.797 38.3163 344.277 36.0363 345.207 33.8163C346.137 31.5963 347.456 29.6462 349.136 27.9962C350.816 26.3162 352.737 24.9963 354.927 24.0663C357.117 23.1363 359.486 22.6562 362.006 22.6562C364.526 22.6562 366.927 23.1363 369.147 24.0663C371.367 24.9963 373.317 26.3162 374.967 27.9962C376.647 29.6762 377.937 31.6263 378.897 33.8163C379.827 36.0363 380.307 38.3763 380.307 40.8663C380.307 41.5563 380.307 42.2163 380.277 42.8163C380.277 43.4163 380.156 44.0162 380.006 44.5862H372.386H372.357ZM372.357 37.2963C371.607 35.1363 370.287 33.3662 368.427 31.9862C366.567 30.6062 364.406 29.9163 361.976 29.9163C359.546 29.9163 357.417 30.6062 355.587 31.9862C353.757 33.3662 352.467 35.1363 351.687 37.2963H372.327H372.357Z" fill="#00ABC6"/>
<path d="M343.198 22.8672V23.1071L326.399 58.5072H322.679L305.969 23.1071V22.8672H315.479L322.379 38.7072C323.339 40.8672 324.059 43.0872 324.599 45.3672C325.289 42.7272 326.039 40.5072 326.819 38.7072L333.719 22.8672H343.229H343.198Z" fill="#00ABC6"/>
<path d="M11.1892 23.1016L14.8191 39.1516C15.6891 42.9316 16.4992 46.7715 17.1592 50.6415H17.3093C18.0293 46.8015 19.1992 42.8716 20.1592 39.2416L24.8093 23.1016H32.0691L36.509 38.7916C37.589 42.9316 38.5496 46.7715 39.3596 50.6415H39.509C40.019 46.8015 40.8891 42.9316 41.8491 38.7916L45.7793 23.1016H54.5691L43.4392 58.5016H35.1592L30.9294 44.1016C29.8494 40.3816 29.039 37.0516 28.229 32.7616H28.0796C27.2696 37.1116 26.3992 40.6216 25.3792 44.1016L20.8792 58.5016H12.509L2.03906 23.1016H11.1892Z" fill="#00ABC6"/>
</svg>
