<svg width="206" height="84" viewBox="0 0 206 84" fill="none" xmlns="http://www.w3.org/2000/svg">
<path d="M38.53 49.8937C37.7527 51.5737 36.7578 53.0982 35.6073 54.4671C34.4257 55.836 33.0885 57.0182 31.627 58.0448C30.1656 59.0715 28.5181 59.8493 26.7146 60.4093C24.911 60.9693 23.0764 61.2493 21.1796 61.2493C18.5365 61.2493 16.1107 60.7515 13.8408 59.787C11.5709 58.7915 9.58101 57.4537 7.83969 55.7115C6.09837 53.9693 4.73001 51.947 3.76606 49.6759C2.77102 47.3737 2.30469 44.9159 2.30469 42.2715C2.30469 39.627 2.80212 37.1693 3.76606 34.8671C4.73001 32.5649 6.09837 30.5737 7.83969 28.8626C9.58101 27.1515 11.5709 25.8137 13.8408 24.8182C16.1107 23.8537 18.5676 23.356 21.1796 23.356C23.0764 23.356 24.9421 23.6359 26.7146 24.1959C28.487 24.7559 30.1345 25.5337 31.627 26.5604C33.1196 27.5871 34.4257 28.7693 35.6073 30.1693C36.7889 31.5693 37.7527 33.0937 38.53 34.7737H29.6373C28.5801 33.6537 27.3053 32.7204 25.8438 31.9737C24.3823 31.227 22.8276 30.8537 21.1484 30.8537C19.6248 30.8537 18.194 31.1337 16.8258 31.7249C15.4576 32.316 14.2452 33.1249 13.2191 34.1515C12.1929 35.1782 11.3844 36.3915 10.7936 37.7915C10.2028 39.1915 9.92281 40.6849 9.92281 42.2404C9.92281 43.796 10.2028 45.2893 10.7936 46.6581C11.3844 48.027 12.1929 49.2404 13.2191 50.267C14.2452 51.2937 15.4576 52.1026 16.8258 52.6937C18.194 53.2848 19.6248 53.5648 21.1484 53.5648C24.6311 53.5648 27.4607 52.3204 29.6373 49.8626H38.53V49.8937Z" fill="#C9392A"/>
<path d="M44.1562 60.6161V1.72266H51.5573V60.6161H44.1562Z" fill="#C9392A"/>
<path d="M94.1892 23.9091V60.6202H86.6334V57.3535C85.1719 58.4735 83.4612 59.3758 81.5022 60.0291C79.5433 60.7136 77.4911 61.0246 75.3766 61.0246C72.8579 61.0246 70.4635 60.5268 68.2557 59.5624C66.0169 58.5979 64.0583 57.2291 62.3791 55.518C60.7 53.8069 59.3628 51.8158 58.3989 49.5135C57.4038 47.2113 56.9375 44.7846 56.9375 42.2024C56.9375 39.6202 57.4349 37.2246 58.3989 34.9846C59.3628 32.7446 60.7 30.7847 62.3791 29.1047C64.0583 27.4247 66.0169 26.1179 68.2557 25.1535C70.4946 24.1891 72.8579 23.7224 75.3766 23.7224C77.4911 23.7224 79.5433 24.0024 81.5022 24.5935C83.4612 25.1846 85.1719 26.1179 86.6334 27.3935V23.8779H94.1892V23.9091ZM75.3766 53.4646C76.9314 53.4646 78.4237 53.1847 79.7919 52.6247C81.16 52.0647 82.3421 51.2869 83.3682 50.2602C84.3633 49.2646 85.1718 48.0513 85.7626 46.6824C86.3534 45.3135 86.6334 43.8202 86.6334 42.2024C86.6334 40.678 86.3534 39.2468 85.7626 37.9091C85.1718 36.5713 84.3633 35.3891 83.3682 34.3935C82.3732 33.3979 81.16 32.5891 79.7919 31.998C78.4237 31.4069 76.9625 31.1269 75.3766 31.1269C73.7908 31.1269 72.423 31.4069 71.0859 31.998C69.7488 32.5891 68.5668 33.3979 67.5717 34.3935C66.5767 35.3891 65.7682 36.5713 65.1774 37.9091C64.5866 39.2468 64.3066 40.678 64.3066 42.2024C64.3066 43.8202 64.5866 45.3135 65.1774 46.6824C65.7682 48.0513 66.5767 49.2335 67.5717 50.2602C68.5668 51.2869 69.7488 52.0647 71.0859 52.6247C72.423 53.1847 73.853 53.4646 75.3766 53.4646Z" fill="#C9392A"/>
<path d="M122.89 23.646V31.1126H119.097C117.573 31.1126 116.173 31.3926 114.805 31.9838C113.468 32.5749 112.287 33.3527 111.292 34.3482C110.297 35.3438 109.488 36.4637 108.898 37.8015C108.307 39.1082 108.027 40.5393 108.027 42.0327V60.606H100.812V23.646H108.027V27.4104C109.644 26.2282 111.385 25.3259 113.282 24.6415C115.147 23.957 117.107 23.646 119.128 23.646H122.921H122.89Z" fill="#C9392A"/>
<path d="M128.766 9.04053H136.167V16.445H128.766V9.04053ZM128.766 60.6228V23.8183H136.167V60.6228H128.766Z" fill="#C9392A"/>
<path d="M150.067 46.569C150.658 47.9378 151.466 49.1512 152.493 50.1779C153.519 51.2045 154.731 52.0134 156.099 52.6045C157.468 53.1956 158.93 53.4756 160.515 53.4756V60.9423C157.872 60.9423 155.415 60.4445 153.114 59.48C150.813 58.4845 148.823 57.1468 147.113 55.4356C145.403 53.7245 144.066 51.7334 143.071 49.4312C142.107 47.129 141.609 44.6712 141.609 42.0268V9.01782H149.165V23.7334H160.484V31.2934H149.165V42.0579C149.165 43.6757 149.445 45.169 150.036 46.5379L150.067 46.569Z" fill="#C9392A"/>
<path d="M202.651 64.4756C202.651 67.0578 202.185 69.4844 201.221 71.7244C200.257 73.9955 198.951 75.9556 197.272 77.6356C195.593 79.3156 193.634 80.6534 191.395 81.6178C189.156 82.5823 186.731 83.0801 184.181 83.0801V75.6133C185.736 75.6133 187.197 75.3333 188.534 74.7422C189.871 74.1511 191.053 73.3423 192.048 72.3467C193.043 71.3511 193.852 70.1689 194.443 68.8311C195.033 67.4933 195.313 66.0311 195.313 64.4756V57.1645C193.696 58.3467 191.924 59.2801 190.027 59.9334C188.131 60.5867 186.171 60.9289 184.15 60.9289C181.569 60.9289 179.175 60.4311 176.936 59.4666C174.697 58.4711 172.738 57.1644 171.059 55.4844C169.38 53.8044 168.074 51.8444 167.11 49.5733C166.146 47.3022 165.68 44.8756 165.68 42.3245V23.8445H172.987V42.3245C172.987 43.88 173.266 45.3422 173.857 46.68C174.448 48.0178 175.257 49.2 176.252 50.1956C177.247 51.1912 178.429 52 179.766 52.5911C181.103 53.1822 182.564 53.4622 184.119 53.4622C185.674 53.4622 187.135 53.1822 188.473 52.5911C189.81 52 190.991 51.1912 191.986 50.1956C192.981 49.2 193.789 48.0178 194.38 46.68C194.971 45.3422 195.251 43.88 195.251 42.3245V23.8445H202.558V64.5067L202.651 64.4756Z" fill="#C9392A"/>
</svg>
