<svg width="651" height="173" viewBox="0 0 651 173" fill="none" xmlns="http://www.w3.org/2000/svg">
<path d="M384.611 14.186C384.611 10.9855 387.215 8.3905 390.34 8.3905C393.465 8.3905 396.156 11.072 396.156 14.186C396.156 17.3865 393.465 19.895 390.34 19.895C387.215 19.9815 384.611 17.3865 384.611 14.186Z" fill="#E6E6E6"/>
<path d="M409.783 14.186C409.783 11.072 412.3 8.56351 415.425 8.56351C418.55 8.56351 421.067 11.072 421.067 14.186C421.067 17.3 418.55 19.8085 415.425 19.8085C412.387 19.8085 409.783 17.3 409.783 14.186Z" fill="#E6E6E6"/>
<path d="M418.549 39.098C418.549 40.828 417.161 42.2985 415.425 42.2985C413.689 42.2985 412.213 40.9145 412.213 39.098C412.213 37.368 413.602 35.984 415.425 35.984C417.161 36.0705 418.549 37.4545 418.549 39.098Z" fill="#F7F7F7"/>
<path d="M434 14.0995C434 10.6395 436.864 7.78502 440.336 7.78502C443.808 7.78502 446.76 10.6395 446.76 14.0995C446.76 17.646 443.895 20.5005 440.336 20.5005C436.864 20.587 434 17.646 434 14.0995Z" fill="#E6E6E6"/>
<path d="M434.955 39.1845C434.955 36.157 437.299 33.735 440.337 33.735C443.375 33.735 445.718 36.157 445.718 39.1845C445.718 42.1255 443.375 44.5475 440.337 44.5475C437.299 44.5475 434.955 42.1255 434.955 39.1845Z" fill="#E6E6E6"/>
<path d="M443.635 64.183C443.635 65.913 442.246 67.3835 440.423 67.3835C438.687 67.3835 437.212 65.9995 437.212 64.183C437.212 62.453 438.687 60.9825 440.423 60.9825C442.246 60.9825 443.635 62.453 443.635 64.183Z" fill="#F7F7F7"/>
<path d="M459.259 14.0995C459.259 10.726 462.036 7.95801 465.508 7.95801C468.894 7.95801 471.671 10.726 471.671 14.0995C471.671 17.473 468.894 20.3275 465.508 20.3275C462.036 20.3275 459.259 17.5595 459.259 14.0995Z" fill="#F7F7F7"/>
<path d="M460.214 39.1845C460.214 36.33 462.557 33.9945 465.509 33.9945C468.46 33.9945 470.717 36.2435 470.717 39.1845C470.717 41.9525 468.373 44.3745 465.509 44.3745C462.557 44.3745 460.214 42.039 460.214 39.1845Z" fill="#E6E6E6"/>
<path d="M465.422 60.9825C467.158 60.9825 468.633 62.453 468.633 64.183C468.633 65.9995 467.158 67.3835 465.422 67.3835C463.599 67.3835 462.21 65.9995 462.21 64.183C462.21 62.453 463.599 60.9825 465.422 60.9825Z" fill="#E6E6E6"/>
<path d="M485.56 14.186C485.56 11.418 487.73 9.34201 490.334 9.34201C493.024 9.34201 495.194 11.591 495.194 14.186C495.194 16.781 493.024 19.03 490.42 19.03C487.73 19.03 485.56 16.8675 485.56 14.186Z" fill="#D5D5D5"/>
<path d="M490.507 33.562C493.632 33.562 496.236 35.984 496.236 39.1845C496.236 42.2985 493.632 44.8935 490.507 44.8935C487.382 44.8935 484.865 42.2985 484.865 39.1845C484.865 36.0705 487.296 33.562 490.507 33.562Z" fill="#F7F7F7"/>
<path d="M521.581 14.186C521.581 17.473 518.804 20.3275 515.419 20.3275C512.033 20.3275 509.256 17.5595 509.256 14.186C509.256 10.8125 511.947 8.04451 515.419 8.04451C518.891 8.13101 521.581 10.8125 521.581 14.186Z" fill="#E6E6E6"/>
<path d="M515.506 35.2055C517.762 35.2055 519.412 36.9355 519.412 39.1845C519.412 41.4335 517.676 43.077 515.506 43.077C513.249 43.077 511.513 41.347 511.513 39.1845C511.513 37.022 513.336 35.2055 515.506 35.2055Z" fill="#D5D5D5"/>
<path d="M515.505 59.512C518.109 59.512 520.193 61.761 520.193 64.2695C520.193 66.951 518.109 69.027 515.505 69.027C512.815 69.027 510.731 66.951 510.731 64.2695C510.731 61.588 512.901 59.512 515.505 59.512Z" fill="#F7F7F7"/>
<path d="M533.994 14.186C533.994 10.6395 536.859 7.69852 540.417 7.69852C543.976 7.69852 546.841 10.6395 546.841 14.186C546.841 17.7325 543.976 20.587 540.417 20.587C536.945 20.587 533.994 17.7325 533.994 14.186Z" fill="#E6E6E6"/>
<path d="M540.504 35.5515C542.5 35.5515 544.236 37.195 544.236 39.271C544.236 41.2605 542.587 42.9905 540.504 42.9905C538.421 42.9905 536.771 41.347 536.771 39.271C536.858 37.1085 538.507 35.5515 540.504 35.5515Z" fill="#F7F7F7"/>
<path d="M540.504 60.723C542.414 60.723 543.976 62.28 543.976 64.183C543.976 66.086 542.414 67.643 540.504 67.643C538.595 67.643 537.032 66.086 537.032 64.183C537.032 62.28 538.508 60.723 540.504 60.723Z" fill="#F7F7F7"/>
<path d="M560.207 14.186C560.207 11.245 562.551 8.90952 565.502 8.90952C568.453 8.90952 570.797 11.245 570.797 14.186C570.797 17.127 568.453 19.4625 565.502 19.4625C562.551 19.4625 560.207 17.0405 560.207 14.186Z" fill="#D5D5D5"/>
<path d="M565.589 42.212C563.853 42.212 562.551 40.828 562.551 39.1845C562.551 37.4545 563.94 36.157 565.589 36.157C567.325 36.157 568.627 37.541 568.627 39.1845C568.54 40.828 567.238 42.212 565.589 42.212Z" fill="#E6E6E6"/>
<path d="M565.589 61.3285C567.151 61.3285 568.366 62.5395 568.366 64.0965C568.366 65.74 567.151 67.0375 565.589 67.0375C563.94 67.0375 562.638 65.8265 562.638 64.0965C562.551 62.5395 563.94 61.3285 565.589 61.3285Z" fill="#F7F7F7"/>
<path d="M590.588 36.0705C592.324 36.0705 593.799 37.4545 593.799 39.271C593.799 41.001 592.411 42.385 590.588 42.385C588.852 42.385 587.463 41.001 587.463 39.271C587.463 37.541 588.765 36.0705 590.588 36.0705Z" fill="#F7F7F7"/>
<path d="M590.501 62.3665C591.629 62.3665 592.41 63.145 592.41 64.183C592.41 65.3075 591.629 66.086 590.501 66.086C589.459 66.086 588.678 65.3075 588.678 64.183C588.678 63.145 589.546 62.3665 590.501 62.3665Z" fill="#F7F7F7"/>
<path d="M615.586 11.937C616.801 11.937 617.843 12.975 617.843 14.186C617.843 15.397 616.801 16.435 615.586 16.435C614.371 16.435 613.329 15.397 613.329 14.186C613.242 12.8885 614.284 11.937 615.586 11.937Z" fill="#F7F7F7"/>
<path d="M640.584 12.283C641.626 12.283 642.407 13.0615 642.407 14.0995C642.407 15.1375 641.626 15.916 640.584 15.916C639.543 15.916 638.762 15.051 638.762 14.0995C638.762 13.148 639.543 12.283 640.584 12.283Z" fill="#E6E6E6"/>
<path d="M590.587 12.11C591.629 12.11 592.584 12.975 592.584 14.0995C592.584 15.224 591.716 16.1755 590.587 16.1755C589.459 16.1755 588.504 15.3105 588.504 14.0995C588.591 13.0615 589.459 12.11 590.587 12.11Z" fill="#E6E6E6"/>
<path d="M515.418 87.884C516.199 87.884 516.634 88.403 516.634 89.095C516.634 89.787 516.113 90.306 515.418 90.306C514.724 90.306 514.203 89.614 514.203 89.095C514.203 88.4895 514.811 87.884 515.418 87.884Z" fill="#F7F7F7"/>
<path d="M490.507 88.057C491.202 88.057 491.723 88.4895 491.723 89.1815C491.723 89.8735 491.202 90.3925 490.507 90.3925C489.813 90.3925 489.379 89.8735 489.379 89.1815C489.379 88.4895 489.813 88.057 490.507 88.057Z" fill="#F7F7F7"/>
<path d="M490.507 62.7125C491.288 62.7125 492.07 63.2315 492.07 64.183C492.07 64.9615 491.288 65.6535 490.507 65.6535C489.726 65.6535 489.032 64.875 489.032 64.183C488.945 63.318 489.552 62.7125 490.507 62.7125Z" fill="#F7F7F7"/>
<path d="M465.509 113.315C466.29 113.315 466.984 114.007 466.984 114.785C466.984 115.564 466.203 116.342 465.509 116.342C464.641 116.342 464.033 115.564 464.033 114.785C464.033 113.92 464.554 113.315 465.509 113.315Z" fill="#F7F7F7"/>
<path d="M465.509 87.7975C466.29 87.7975 466.984 88.3165 466.984 89.268C466.984 90.0465 466.203 90.7385 465.509 90.7385C464.641 90.7385 464.033 89.96 464.033 89.268C464.033 88.3165 464.554 87.7975 465.509 87.7975Z" fill="#D5D5D5"/>
<path d="M440.424 113.228C441.292 113.228 442.073 114.007 442.073 114.785C442.073 115.65 441.292 116.429 440.424 116.429C439.556 116.429 438.774 115.65 438.774 114.785C438.861 113.92 439.556 113.228 440.424 113.228Z" fill="#D5D5D5"/>
<path d="M440.424 86.9325C441.639 86.9325 442.681 87.9705 442.681 89.1815C442.681 90.3925 441.813 91.4305 440.424 91.4305C439.209 91.4305 438.167 90.3925 438.167 89.1815C438.254 87.9705 439.209 86.9325 440.424 86.9325Z" fill="#F7F7F7"/>
<path d="M415.338 113.315C416.206 113.315 416.9 114.093 416.9 114.785C416.9 115.65 416.206 116.342 415.338 116.342C414.557 116.342 413.862 115.65 413.862 114.785C413.862 114.007 414.644 113.315 415.338 113.315Z" fill="#F7F7F7"/>
<path d="M415.338 86.4135C416.987 86.4135 418.289 87.6245 418.289 89.1815C418.289 90.7385 417.074 91.9495 415.338 91.9495C413.863 91.9495 412.561 90.7385 412.561 89.1815C412.647 87.711 413.863 86.4135 415.338 86.4135Z" fill="#F7F7F7"/>
<path d="M415.338 61.242C416.987 61.242 418.463 62.626 418.463 64.2695C418.463 65.913 416.987 67.2105 415.338 67.2105C413.689 67.2105 412.387 65.9995 412.387 64.2695C412.387 62.5395 413.776 61.242 415.338 61.242Z" fill="#F7F7F7"/>
<path d="M387.215 89.268C387.215 87.538 388.69 86.0675 390.426 86.0675C392.162 86.0675 393.638 87.538 393.638 89.268C393.638 91.0845 392.162 92.4685 390.426 92.4685C388.69 92.4685 387.215 91.0845 387.215 89.268Z" fill="#F7F7F7"/>
<path d="M390.427 60.4635C392.597 60.4635 394.159 62.107 394.159 64.183C394.159 66.1725 392.51 67.816 390.427 67.816C388.344 67.816 386.694 66.1725 386.694 64.183C386.694 62.107 388.344 60.4635 390.427 60.4635Z" fill="#F7F7F7"/>
<path d="M365.429 62.7125C366.21 62.7125 366.904 63.4045 366.904 64.183C366.904 65.048 366.123 65.6535 365.429 65.6535C364.561 65.6535 363.866 65.1345 363.866 64.183C363.866 63.4045 364.561 62.7125 365.429 62.7125Z" fill="#F7F7F7"/>
<path d="M365.428 36.503C366.904 36.503 368.206 37.714 368.206 39.271C368.206 40.9145 366.99 42.039 365.428 42.039C363.866 42.039 362.65 40.9145 362.65 39.271C362.737 37.714 363.866 36.503 365.428 36.503Z" fill="#F7F7F7"/>
<path d="M365.428 10.8125C367.251 10.8125 368.727 12.3695 368.727 14.186C368.727 16.089 367.251 17.5595 365.428 17.5595C363.605 17.5595 362.043 16.089 362.043 14.186C362.043 12.3695 363.605 10.8125 365.428 10.8125Z" fill="#F7F7F7"/>
<path d="M340.343 87.7975C341.124 87.7975 341.818 88.4895 341.818 89.268C341.818 90.133 341.124 90.7385 340.343 90.7385C339.562 90.7385 338.867 90.2195 338.867 89.268C338.867 88.403 339.562 87.7975 340.343 87.7975Z" fill="#F7F7F7"/>
<path d="M340.343 60.9825C342.079 60.9825 343.467 62.453 343.467 64.0965C343.467 65.913 342.079 67.297 340.343 67.297C338.607 67.297 337.218 65.913 337.218 64.0965C337.305 62.453 338.693 60.9825 340.343 60.9825Z" fill="#F7F7F7"/>
<path d="M340.343 34.3405C343.121 34.3405 345.204 36.5895 345.204 39.1845C345.204 41.7795 343.121 44.0285 340.343 44.0285C337.566 44.0285 335.482 41.7795 335.482 39.1845C335.569 36.503 337.652 34.3405 340.343 34.3405Z" fill="#D5D5D5"/>
<path d="M340.343 9.42851C342.947 9.42851 345.117 11.5045 345.117 14.186C345.117 16.781 342.861 18.9435 340.343 18.9435C337.739 18.9435 335.569 16.6945 335.569 14.186C335.656 11.591 337.826 9.42851 340.343 9.42851Z" fill="#F7F7F7"/>
<path d="M315.345 87.192C316.473 87.192 317.341 88.057 317.341 89.1815C317.341 90.306 316.473 91.171 315.345 91.171C314.217 91.171 313.349 90.306 313.349 89.1815C313.349 88.1435 314.217 87.192 315.345 87.192Z" fill="#F7F7F7"/>
<path d="M315.345 60.204C317.601 60.204 319.337 61.934 319.337 64.0965C319.337 66.3455 317.515 68.0755 315.345 68.0755C313.088 68.0755 311.439 66.3455 311.439 64.0965C311.352 62.0205 313.175 60.204 315.345 60.204Z" fill="#E6E6E6"/>
<path d="M315.257 34.3405C318.035 34.3405 320.205 36.5895 320.205 39.1845C320.205 41.7795 317.948 44.0285 315.257 44.0285C312.567 44.0285 310.483 41.7795 310.483 39.1845C310.483 36.5895 312.653 34.3405 315.257 34.3405Z" fill="#F7F7F7"/>
<path d="M315.344 11.072C317.08 11.072 318.382 12.3695 318.382 14.0995C318.382 15.8295 317.08 17.127 315.344 17.127C313.695 17.127 312.306 15.743 312.306 14.0995C312.219 12.456 313.782 11.072 315.344 11.072Z" fill="#E6E6E6"/>
<path d="M290.346 62.1935C291.474 62.1935 292.342 63.0585 292.342 64.183C292.342 65.3075 291.474 66.1725 290.346 66.1725C289.218 66.1725 288.35 65.3075 288.35 64.183C288.35 63.0585 289.218 62.1935 290.346 62.1935Z" fill="#F7F7F7"/>
<path d="M290.347 42.9905C288.09 42.9905 286.527 41.2605 286.527 39.098C286.527 37.1085 288.177 35.292 290.347 35.292C292.43 35.292 294.253 37.1085 294.253 39.098C294.253 41.347 292.43 42.9905 290.347 42.9905Z" fill="#E6E6E6"/>
<path d="M290.346 8.56351C293.471 8.56351 295.901 11.1585 295.901 14.186C295.901 17.3 293.471 19.722 290.346 19.722C287.221 19.722 284.704 17.3 284.704 14.186C284.704 11.1585 287.221 8.56351 290.346 8.56351Z" fill="#F7F7F7"/>
<path d="M265.261 37.022C266.476 37.022 267.431 38.06 267.431 39.098C267.431 40.309 266.563 41.347 265.261 41.347C264.046 41.347 263.091 40.309 263.091 39.098C263.178 38.06 264.132 37.022 265.261 37.022Z" fill="white"/>
<path d="M390.34 34.1675C393.118 34.1675 395.375 36.4165 395.375 39.098C395.375 41.866 393.118 44.115 390.34 44.115C387.563 44.115 385.393 41.866 385.393 39.098C385.393 36.4165 387.649 34.1675 390.34 34.1675Z" fill="#E6E6E6"/>
<path d="M15.1035 160.717C16.3187 160.717 17.2735 161.755 17.2735 162.793C17.2735 164.004 16.4055 165.042 15.1035 165.042C13.8883 165.042 12.8467 164.004 12.8467 162.793C12.9335 161.755 13.8883 160.717 15.1035 160.717Z" fill="#D5D5D5"/>
<path d="M240.35 59.2525C243.127 59.2525 245.297 61.5015 245.297 64.183C245.297 66.951 243.041 69.2 240.35 69.2C237.572 69.2 235.229 66.951 235.229 64.183C235.229 61.415 237.572 59.2525 240.35 59.2525Z" fill="white"/>
<path d="M240.262 35.119C242.519 35.119 244.255 36.9355 244.255 39.098C244.255 41.347 242.432 43.077 240.262 43.077C238.005 43.077 236.183 41.347 236.183 39.098C236.183 37.022 238.092 35.119 240.262 35.119Z" fill="white"/>
<path d="M235.923 14.186C235.923 11.764 237.919 9.86101 240.35 9.86101C242.693 9.86101 244.69 11.764 244.69 14.186C244.69 16.5215 242.693 18.511 240.35 18.511C237.832 18.5975 235.923 16.608 235.923 14.186Z" fill="white"/>
<path d="M215.177 60.896C217.087 60.896 218.563 62.3665 218.563 64.183C218.563 65.9995 217.087 67.5565 215.177 67.5565C213.354 67.5565 211.879 65.9995 211.879 64.183C211.879 62.3665 213.354 60.896 215.177 60.896Z" fill="#D5D5D5"/>
<path d="M215.178 33.043C218.563 33.043 221.34 35.811 221.34 39.098C221.34 42.558 218.563 45.326 215.178 45.326C211.879 45.326 209.102 42.558 209.102 39.098C209.102 35.811 211.879 33.043 215.178 33.043Z" fill="#E6E6E6"/>
<path d="M215.177 18.0785C213.007 18.0785 211.271 16.3485 211.271 14.0995C211.271 11.8505 213.007 10.207 215.177 10.207C217.434 10.207 219.17 11.937 219.17 14.0995C219.17 16.262 217.434 18.0785 215.177 18.0785Z" fill="#D5D5D5"/>
<path d="M190.179 60.896C192.002 60.896 193.564 62.3665 193.564 64.183C193.564 65.9995 192.002 67.5565 190.179 67.5565C188.356 67.5565 186.794 65.9995 186.794 64.183C186.881 62.3665 188.443 60.896 190.179 60.896Z" fill="white"/>
<path d="M190.266 34.1675C193.043 34.1675 195.213 36.4165 195.213 39.098C195.213 41.866 192.957 44.115 190.266 44.115C187.488 44.115 185.231 41.866 185.231 39.098C185.231 36.4165 187.575 34.1675 190.266 34.1675Z" fill="white"/>
<path d="M186.1 14.0995C186.1 11.8505 187.922 10.034 190.179 10.034C192.436 10.034 194.259 11.8505 194.259 14.0995C194.259 16.3485 192.436 18.2515 190.179 18.2515C187.922 18.2515 186.1 16.435 186.1 14.0995Z" fill="#F7F7F7"/>
<path d="M165.18 85.8945C167.09 85.8945 168.565 87.365 168.565 89.1815C168.565 90.998 167.09 92.555 165.18 92.555C163.357 92.555 161.882 90.998 161.882 89.1815C161.882 87.365 163.357 85.8945 165.18 85.8945Z" fill="#F7F7F7"/>
<path d="M160.233 64.183C160.233 61.415 162.49 59.2525 165.181 59.2525C167.959 59.2525 170.215 61.5015 170.215 64.183C170.215 66.951 167.959 69.2 165.181 69.2C162.403 69.2 160.233 66.951 160.233 64.183Z" fill="#F7F7F7"/>
<path d="M165.181 35.465C167.264 35.465 168.913 37.1085 168.913 39.1845C168.913 41.2605 167.177 42.904 165.181 42.904C163.097 42.904 161.448 41.174 161.448 39.1845C161.535 37.022 163.097 35.465 165.181 35.465Z" fill="#D5D5D5"/>
<path d="M169.694 14.186C169.694 16.608 167.698 18.684 165.181 18.684C162.663 18.684 160.667 16.608 160.667 14.186C160.667 11.6775 162.663 9.688 165.181 9.688C167.698 9.688 169.694 11.591 169.694 14.186Z" fill="#E6E6E6"/>
<path d="M140.182 118.072C138.359 118.072 136.884 116.602 136.884 114.785C136.884 112.969 138.359 111.585 140.182 111.585C141.918 111.585 143.394 112.969 143.394 114.785C143.481 116.602 142.005 118.072 140.182 118.072Z" fill="#F7F7F7"/>
<path d="M140.182 95.15C136.97 95.15 134.366 92.4685 134.366 89.268C134.366 86.154 137.057 83.4725 140.182 83.4725C143.307 83.4725 145.997 86.2405 145.997 89.268C146.084 92.4685 143.393 95.15 140.182 95.15Z" fill="#D5D5D5"/>
<path d="M140.182 68.0755C138.012 68.0755 136.363 66.3455 136.363 64.183C136.363 62.0205 138.099 60.377 140.182 60.377C142.352 60.377 144.002 62.107 144.002 64.183C144.088 66.3455 142.352 68.0755 140.182 68.0755Z" fill="#E6E6E6"/>
<path d="M144.522 39.1845C144.522 41.52 142.525 43.5095 140.182 43.5095C137.751 43.5095 135.842 41.52 135.842 39.1845C135.842 36.7625 137.751 34.8595 140.182 34.8595C142.525 34.8595 144.522 36.7625 144.522 39.1845Z" fill="#E6E6E6"/>
<path d="M145.564 14.186C145.564 17.127 143.221 19.4625 140.269 19.4625C137.318 19.4625 134.975 17.127 134.975 14.186C134.975 11.245 137.318 8.9095 140.269 8.9095C143.134 8.9095 145.564 11.245 145.564 14.186Z" fill="#E6E6E6"/>
<path d="M115.097 92.4685C113.361 92.4685 111.886 90.998 111.886 89.1815C111.886 87.365 113.361 85.981 115.097 85.981C116.92 85.981 118.396 87.365 118.396 89.1815C118.483 90.998 117.007 92.4685 115.097 92.4685Z" fill="#E6E6E6"/>
<path d="M115.097 59.512C117.788 59.512 119.871 61.6745 119.871 64.183C119.871 66.951 117.788 68.9405 115.097 68.9405C112.493 68.9405 110.41 66.951 110.41 64.183C110.497 61.588 112.493 59.512 115.097 59.512Z" fill="#E6E6E6"/>
<path d="M115.097 42.9905C112.927 42.9905 111.277 41.2605 111.277 39.098C111.277 36.9355 113.013 35.292 115.097 35.292C117.353 35.292 119.003 37.022 119.003 39.098C119.003 41.347 117.353 42.9905 115.097 42.9905Z" fill="#E6E6E6"/>
<path d="M119.524 14.186C119.524 16.5215 117.614 18.511 115.184 18.511C112.84 18.511 110.931 16.5215 110.931 14.186C110.931 11.764 112.84 9.86099 115.184 9.86099C117.527 9.77449 119.524 11.764 119.524 14.186Z" fill="#F7F7F7"/>
<path d="M90.0984 117.899C88.3624 117.899 86.9736 116.515 86.9736 114.785C86.9736 113.142 88.3624 111.671 90.0984 111.671C91.8344 111.671 93.2232 113.142 93.2232 114.785C93.31 116.515 91.9212 117.899 90.0984 117.899Z" fill="#E6E6E6"/>
<path d="M85.4111 89.1815C85.4111 86.5865 87.4943 84.5105 90.1851 84.5105C92.7891 84.5105 94.9591 86.673 94.9591 89.1815C94.9591 91.9495 92.7023 93.939 90.1851 93.939C87.4943 93.939 85.4111 91.9495 85.4111 89.1815Z" fill="#F7F7F7"/>
<path d="M90.1855 60.8095C92.0951 60.8095 93.5707 62.3665 93.5707 64.183C93.5707 65.9995 92.0083 67.5565 90.1855 67.5565C88.3627 67.5565 86.8003 65.9995 86.8003 64.183C86.7135 62.3665 88.2759 60.8095 90.1855 60.8095Z" fill="#E6E6E6"/>
<path d="M94.2646 39.1845C94.2646 41.4335 92.4418 43.25 90.185 43.25C87.9282 43.25 86.0186 41.4335 86.0186 39.1845C86.0186 36.9355 87.8414 35.119 90.185 35.119C92.4418 35.119 94.2646 36.9355 94.2646 39.1845Z" fill="#E6E6E6"/>
<path d="M94.959 14.0995C94.959 16.8675 92.789 18.9435 90.185 18.9435C87.4942 18.9435 85.3242 16.6945 85.3242 14.0995C85.3242 11.5045 87.581 9.342 90.185 9.342C92.8758 9.342 94.959 11.5045 94.959 14.0995Z" fill="#E6E6E6"/>
<path d="M65.0999 141.773C63.6243 141.773 62.3223 140.562 62.3223 139.005C62.3223 137.535 63.5375 136.237 65.0999 136.237C66.6623 136.237 67.8775 137.448 67.8775 139.005C67.8775 140.562 66.6623 141.773 65.0999 141.773Z" fill="#F7F7F7"/>
<path d="M65.1001 119.629C62.4093 119.629 60.2393 117.38 60.2393 114.699C60.2393 112.104 62.4961 109.941 65.1001 109.941C67.8777 109.941 69.9609 112.19 69.9609 114.699C69.9609 117.467 67.8777 119.629 65.1001 119.629Z" fill="#E6E6E6"/>
<path d="M65.0999 92.728C63.1903 92.728 61.6279 91.171 61.6279 89.268C61.6279 87.365 63.1903 85.808 65.0999 85.808C67.0095 85.808 68.5719 87.365 68.5719 89.268C68.5719 91.171 67.0095 92.728 65.0999 92.728Z" fill="#E6E6E6"/>
<path d="M65.1005 67.989C63.0173 67.989 61.2812 66.259 61.2812 64.2695C61.2812 62.107 63.0173 60.4635 65.1005 60.4635C67.2705 60.4635 68.9197 62.1935 68.9197 64.2695C69.0065 66.3455 67.2705 67.989 65.1005 67.989Z" fill="#E6E6E6"/>
<path d="M69.8743 39.098C69.8743 41.7795 67.7911 43.8555 65.1003 43.8555C62.4963 43.8555 60.4131 41.7795 60.4131 39.098C60.4131 36.503 62.4963 34.427 65.1003 34.427C67.7911 34.5135 69.8743 36.503 69.8743 39.098Z" fill="#E6E6E6"/>
<path d="M70.8288 14.0995C70.8288 17.3 68.3116 19.8085 65.1 19.8085C61.9752 19.8085 59.458 17.3 59.458 14.0995C59.458 10.9855 61.9752 8.47699 65.1 8.47699C68.3116 8.56349 70.8288 11.072 70.8288 14.0995Z" fill="#E6E6E6"/>
<path d="M40.1018 141.773C38.5394 141.773 37.3242 140.562 37.3242 139.005C37.3242 137.535 38.5394 136.237 40.1018 136.237C41.5774 136.237 42.8794 137.448 42.8794 139.005C42.8794 140.562 41.5774 141.773 40.1018 141.773Z" fill="#E6E6E6"/>
<path d="M40.102 119.629C37.3244 119.629 35.2412 117.38 35.2412 114.699C35.2412 112.104 37.3244 109.941 40.102 109.941C42.7928 109.941 44.9628 112.19 44.9628 114.699C44.9628 117.467 42.7928 119.629 40.102 119.629Z" fill="#F7F7F7"/>
<path d="M40.102 94.0255C37.3244 94.0255 35.2412 91.7765 35.2412 89.1815C35.2412 86.5865 37.3244 84.3375 40.102 84.3375C42.7928 84.3375 44.9628 86.5865 44.9628 89.1815C44.9628 91.9495 42.7928 94.0255 40.102 94.0255Z" fill="#E6E6E6"/>
<path d="M40.1013 71.0165C36.2821 71.0165 33.2441 67.989 33.2441 64.2695C33.2441 60.4635 36.2821 57.3495 40.1013 57.3495C43.8337 57.3495 46.9585 60.4635 46.9585 64.2695C46.9585 67.989 43.9205 71.0165 40.1013 71.0165Z" fill="#F7F7F7"/>
<path d="M48.5217 39.098C48.5217 43.8555 44.7893 47.575 40.1021 47.575C35.4149 47.575 31.5957 43.8555 31.5957 39.098C31.5957 34.427 35.4149 30.7075 40.1021 30.7075C44.7893 30.7075 48.5217 34.5135 48.5217 39.098Z" fill="#E6E6E6"/>
<path d="M46.6985 14.186C46.6985 17.9055 43.7473 20.76 40.1017 20.76C36.3693 20.76 33.5049 17.819 33.5049 14.186C33.5049 10.4665 36.4561 7.612 40.1017 7.612C43.7473 7.612 46.6985 10.553 46.6985 14.186Z" fill="#E6E6E6"/>
<path d="M11.8916 138.919C11.8916 137.275 13.2804 135.805 15.0164 135.805C16.7524 135.805 18.1412 137.275 18.1412 138.919C18.1412 140.735 16.7524 142.119 15.0164 142.119C13.3672 142.206 11.8916 140.822 11.8916 138.919Z" fill="#E6E6E6"/>
<path d="M15.0164 119.37C12.4124 119.37 10.416 117.207 10.416 114.699C10.416 112.277 12.4124 110.114 15.0164 110.114C17.6204 110.114 19.7036 112.277 19.7036 114.699C19.7036 117.38 17.6204 119.37 15.0164 119.37Z" fill="#D5D5D5"/>
<path d="M15.0162 95.5825C11.5442 95.5825 8.7666 92.8145 8.7666 89.3545C8.7666 85.8945 11.5442 82.9535 15.0162 82.9535C18.575 82.9535 21.4394 85.8945 21.4394 89.3545C21.4394 92.8145 18.6618 95.5825 15.0162 95.5825Z" fill="#F7F7F7"/>
<path d="M15.0162 70.584C11.5442 70.584 8.7666 67.643 8.7666 64.183C8.7666 60.723 11.5442 57.782 15.0162 57.782C18.575 57.782 21.4394 60.723 21.4394 64.183C21.4394 67.643 18.6618 70.584 15.0162 70.584Z" fill="#E6E6E6"/>
<path d="M8.94043 39.098C8.94043 35.7245 11.718 32.9565 15.1032 32.9565C18.4884 32.9565 21.3528 35.7245 21.3528 39.098C21.3528 42.4715 18.5752 45.326 15.1032 45.326C11.718 45.326 8.94043 42.558 8.94043 39.098Z" fill="#F7F7F7"/>
<path d="M21.8738 14.0995C21.8738 17.819 18.8358 20.8465 15.1034 20.8465C11.371 20.8465 8.33301 17.819 8.33301 14.0995C8.33301 10.38 11.371 7.35249 15.1034 7.35249C18.9226 7.43899 21.8738 10.4665 21.8738 14.0995Z" fill="#E6E6E6"/>
</svg>
