<svg width="29" height="30" viewBox="0 0 29 30" fill="none" xmlns="http://www.w3.org/2000/svg">
<g clip-path="url(#clip0_1294_60910)">
<path d="M0.636973 18.0786C1.24762 19.9016 2.50484 21.0177 4.35474 21.5199C4.35474 21.6687 4.33678 24.4218 4.31882 25.6867C4.31882 26.3936 4.92947 26.8958 5.57604 26.7284C5.82748 26.6726 9.59913 23.4545 11.2694 22.0036C11.5927 21.7245 11.934 21.6129 12.347 21.6129H23.195C26.1225 21.6129 28.3316 19.3621 28.3316 16.3301V8.96379C28.2957 6.22935 26.1585 3.90414 23.5183 3.77393H5.41439C2.54076 3.77393 0.349609 6.06193 0.349609 9.0196C0.349609 14.1351 0.349609 11.2704 0.36757 16.3673C0.36757 16.9439 0.457371 17.5206 0.636973 18.0786Z" fill="#53565A"/>
</g>
<defs>
<clipPath id="clip0_1294_60910">
<rect width="28" height="29" fill="white" transform="translate(0.332031 0.5)"/>
</clipPath>
</defs>
</svg>
