<svg width="225" height="145" viewBox="0 0 225 145" fill="none" xmlns="http://www.w3.org/2000/svg">
<g clip-path="url(#clip0_1569_66756)">
<path d="M220.332 12.5026C220.332 9.84722 218.178 7.6942 215.594 7.6942C213.009 7.6942 210.784 9.91898 210.784 12.5026C210.784 15.158 213.009 17.2392 215.594 17.2392C218.178 17.311 220.332 15.158 220.332 12.5026Z" fill="#E6E6E6"/>
<path d="M199.513 12.5026C199.513 9.91899 197.431 7.83774 194.846 7.83774C192.262 7.83774 190.18 9.91899 190.18 12.5026C190.18 15.0862 192.262 17.1675 194.846 17.1675C197.359 17.1675 199.513 15.0862 199.513 12.5026Z" fill="#E6E6E6"/>
<path d="M192.261 33.1716C192.261 34.6069 193.41 35.827 194.846 35.827C196.281 35.827 197.502 34.6787 197.502 33.1716C197.502 31.7362 196.353 30.588 194.846 30.588C193.41 30.6597 192.261 31.808 192.261 33.1716Z" fill="#F7F7F7"/>
<path d="M179.482 12.4308C179.482 9.56014 177.113 7.19182 174.242 7.19182C171.37 7.19182 168.929 9.56014 168.929 12.4308C168.929 15.3733 171.298 17.7416 174.242 17.7416C177.113 17.8134 179.482 15.3733 179.482 12.4308Z" fill="#E6E6E6"/>
<path d="M178.692 33.2433C178.692 30.7315 176.754 28.722 174.241 28.722C171.728 28.722 169.79 30.7315 169.79 33.2433C169.79 35.6834 171.728 37.6929 174.241 37.6929C176.754 37.6929 178.692 35.6834 178.692 33.2433Z" fill="#E6E6E6"/>
<path d="M171.513 53.9841C171.513 55.4194 172.662 56.6395 174.17 56.6395C175.606 56.6395 176.826 55.4912 176.826 53.9841C176.826 52.5487 175.606 51.3287 174.17 51.3287C172.662 51.3287 171.513 52.5487 171.513 53.9841Z" fill="#F7F7F7"/>
<path d="M158.591 12.4308C158.591 9.63191 156.293 7.33536 153.422 7.33536C150.622 7.33536 148.324 9.63191 148.324 12.4308C148.324 15.2298 150.622 17.5981 153.422 17.5981C156.293 17.5981 158.591 15.3015 158.591 12.4308Z" fill="#F7F7F7"/>
<path d="M157.801 33.2433C157.801 30.875 155.862 28.9373 153.421 28.9373C150.98 28.9373 149.114 30.8032 149.114 33.2433C149.114 35.5399 151.052 37.5494 153.421 37.5494C155.862 37.5494 157.801 35.6117 157.801 33.2433Z" fill="#E6E6E6"/>
<path d="M153.493 51.3287C152.057 51.3287 150.837 52.5487 150.837 53.9841C150.837 55.4912 152.057 56.6395 153.493 56.6395C155.001 56.6395 156.149 55.4912 156.149 53.9841C156.149 52.5487 155.001 51.3287 153.493 51.3287Z" fill="#E6E6E6"/>
<path d="M136.837 12.5026C136.837 10.206 135.042 8.48363 132.888 8.48363C130.663 8.48363 128.868 10.3496 128.868 12.5026C128.868 14.6556 130.663 16.5216 132.817 16.5216C135.042 16.5216 136.837 14.7274 136.837 12.5026Z" fill="#D5D5D5"/>
<path d="M132.745 28.5785C130.16 28.5785 128.006 30.5879 128.006 33.2433C128.006 35.827 130.16 37.98 132.745 37.98C135.329 37.98 137.411 35.827 137.411 33.2433C137.411 30.6597 135.401 28.5785 132.745 28.5785Z" fill="#F7F7F7"/>
<path d="M107.043 12.5026C107.043 15.2297 109.34 17.5981 112.14 17.5981C114.94 17.5981 117.237 15.3015 117.237 12.5026C117.237 9.70367 115.012 7.40712 112.14 7.40712C109.268 7.47889 107.043 9.70367 107.043 12.5026Z" fill="#E6E6E6"/>
<path d="M112.069 29.942C110.202 29.942 108.838 31.3774 108.838 33.2433C108.838 35.1093 110.274 36.4729 112.069 36.4729C113.935 36.4729 115.371 35.0375 115.371 33.2433C115.371 31.4492 113.863 29.942 112.069 29.942Z" fill="#D5D5D5"/>
<path d="M112.068 50.1086C109.914 50.1086 108.191 51.9746 108.191 54.0558C108.191 56.2806 109.914 58.003 112.068 58.003C114.294 58.003 116.017 56.2806 116.017 54.0558C116.017 51.8311 114.222 50.1086 112.068 50.1086Z" fill="#F7F7F7"/>
<path d="M96.7764 12.5026C96.7764 9.56014 94.4072 7.12006 91.4637 7.12006C88.5202 7.12006 86.151 9.56014 86.151 12.5026C86.151 15.4451 88.5202 17.8134 91.4637 17.8134C94.3354 17.8134 96.7764 15.4451 96.7764 12.5026Z" fill="#E6E6E6"/>
<path d="M91.3924 30.2291C89.7412 30.2291 88.3053 31.5927 88.3053 33.3151C88.3053 34.9658 89.6694 36.4011 91.3924 36.4011C93.1154 36.4011 94.4795 35.0375 94.4795 33.3151C94.4077 31.5209 93.0436 30.2291 91.3924 30.2291Z" fill="#F7F7F7"/>
<path d="M91.3919 51.1134C89.8125 51.1134 88.5202 52.4052 88.5202 53.9841C88.5202 55.5629 89.8125 56.8548 91.3919 56.8548C92.9714 56.8548 94.2637 55.5629 94.2637 53.9841C94.2637 52.4052 93.0432 51.1134 91.3919 51.1134Z" fill="#F7F7F7"/>
<path d="M75.0947 12.5026C75.0947 10.0625 73.1563 8.1248 70.7154 8.1248C68.2744 8.1248 66.336 10.0625 66.336 12.5026C66.336 14.9427 68.2744 16.8804 70.7154 16.8804C73.1563 16.8804 75.0947 14.8709 75.0947 12.5026Z" fill="#D5D5D5"/>
<path d="M70.6435 35.7552C72.0794 35.7552 73.1562 34.6069 73.1562 33.2433C73.1562 31.808 72.0076 30.7315 70.6435 30.7315C69.2076 30.7315 68.1307 31.8798 68.1307 33.2433C68.2025 34.6069 69.2794 35.7552 70.6435 35.7552Z" fill="#E6E6E6"/>
<path d="M70.6438 51.6157C69.3515 51.6157 68.3464 52.6205 68.3464 53.9123C68.3464 55.2759 69.3515 56.3524 70.6438 56.3524C72.0078 56.3524 73.0847 55.3476 73.0847 53.9123C73.1565 52.6205 72.0078 51.6157 70.6438 51.6157Z" fill="#F7F7F7"/>
<path d="M49.9672 30.6597C48.5313 30.6597 47.3109 31.808 47.3109 33.3151C47.3109 34.7504 48.4595 35.8987 49.9672 35.8987C51.403 35.8987 52.5518 34.7504 52.5518 33.3151C52.5518 31.8798 51.4748 30.6597 49.9672 30.6597Z" fill="#F7F7F7"/>
<path d="M50.0392 52.4769C49.1059 52.4769 48.4598 53.1228 48.4598 53.9841C48.4598 54.917 49.1059 55.5629 50.0392 55.5629C50.9008 55.5629 51.5469 54.917 51.5469 53.9841C51.5469 53.1228 50.829 52.4769 50.0392 52.4769Z" fill="#F7F7F7"/>
<path d="M29.2913 10.6366C28.2862 10.6366 27.4247 11.4978 27.4247 12.5026C27.4247 13.5073 28.2862 14.3685 29.2913 14.3685C30.2964 14.3685 31.1579 13.5073 31.1579 12.5026C31.2297 11.4261 30.3682 10.6366 29.2913 10.6366Z" fill="#F7F7F7"/>
<path d="M8.61443 10.9237C7.75292 10.9237 7.1068 11.5696 7.1068 12.4308C7.10679 13.292 7.75292 13.9379 8.61443 13.9379C9.47595 13.9379 10.1221 13.2203 10.1221 12.4308C10.1221 11.6414 9.47595 10.9237 8.61443 10.9237Z" fill="#E6E6E6"/>
<path d="M49.9674 10.7802C49.1059 10.7802 48.3161 11.4979 48.3161 12.4308C48.3161 13.3638 49.0341 14.1532 49.9674 14.1532C50.9007 14.1532 51.6904 13.4356 51.6904 12.4308C51.6186 11.5696 50.9007 10.7802 49.9674 10.7802Z" fill="#E6E6E6"/>
<path d="M112.14 73.6483C111.494 73.6483 111.135 74.0789 111.135 74.653C111.135 75.2272 111.566 75.6578 112.14 75.6578C112.715 75.6578 113.146 75.0836 113.146 74.653C113.146 74.1507 112.643 73.6483 112.14 73.6483Z" fill="#F7F7F7"/>
<path d="M132.744 73.7918C132.17 73.7918 131.739 74.1507 131.739 74.7248C131.739 75.2989 132.17 75.7295 132.744 75.7295C133.319 75.7295 133.678 75.2989 133.678 74.7248C133.678 74.1507 133.319 73.7918 132.744 73.7918Z" fill="#F7F7F7"/>
<path d="M132.744 52.764C132.098 52.764 131.452 53.1946 131.452 53.9841C131.452 54.63 132.098 55.2041 132.744 55.2041C133.391 55.2041 133.965 54.5582 133.965 53.9841C134.037 53.2664 133.534 52.764 132.744 52.764Z" fill="#F7F7F7"/>
<path d="M153.421 94.7479C152.775 94.7479 152.201 95.322 152.201 95.9679C152.201 96.6138 152.847 97.2597 153.421 97.2597C154.139 97.2597 154.642 96.6138 154.642 95.9679C154.642 95.2502 154.211 94.7479 153.421 94.7479Z" fill="#F7F7F7"/>
<path d="M153.421 73.5765C152.775 73.5765 152.201 74.0071 152.201 74.7966C152.201 75.4425 152.847 76.0166 153.421 76.0166C154.139 76.0166 154.642 75.3707 154.642 74.7966C154.642 74.0071 154.211 73.5765 153.421 73.5765Z" fill="#D5D5D5"/>
<path d="M174.169 94.6761C173.451 94.6761 172.805 95.322 172.805 95.9679C172.805 96.6856 173.451 97.3315 174.169 97.3315C174.887 97.3315 175.533 96.6856 175.533 95.9679C175.461 95.2502 174.887 94.6761 174.169 94.6761Z" fill="#D5D5D5"/>
<path d="M174.17 72.8588C173.164 72.8588 172.303 73.7201 172.303 74.7248C172.303 75.7295 173.021 76.5907 174.17 76.5907C175.175 76.5907 176.036 75.7295 176.036 74.7248C175.964 73.7201 175.175 72.8588 174.17 72.8588Z" fill="#F7F7F7"/>
<path d="M194.918 94.7479C194.2 94.7479 193.626 95.3938 193.626 95.9679C193.626 96.6856 194.2 97.2597 194.918 97.2597C195.564 97.2597 196.139 96.6856 196.139 95.9679C196.139 95.322 195.493 94.7479 194.918 94.7479Z" fill="#F7F7F7"/>
<path d="M194.917 72.4282C193.553 72.4282 192.476 73.433 192.476 74.7248C192.476 76.0166 193.482 77.0213 194.917 77.0213C196.138 77.0213 197.215 76.0166 197.215 74.7248C197.143 73.5048 196.138 72.4282 194.917 72.4282Z" fill="#F7F7F7"/>
<path d="M194.917 51.544C193.553 51.544 192.333 52.6923 192.333 54.0558C192.333 55.4194 193.553 56.4959 194.917 56.4959C196.282 56.4959 197.358 55.4912 197.358 54.0558C197.358 52.6205 196.21 51.544 194.917 51.544Z" fill="#F7F7F7"/>
<path d="M218.179 74.7966C218.179 73.3612 216.958 72.1412 215.522 72.1412C214.087 72.1412 212.866 73.3612 212.866 74.7966C212.866 76.3037 214.087 77.452 215.522 77.452C216.958 77.452 218.179 76.3037 218.179 74.7966Z" fill="#F7F7F7"/>
<path d="M215.522 50.8981C213.727 50.8981 212.435 52.2616 212.435 53.9841C212.435 55.6347 213.799 56.9983 215.522 56.9983C217.245 56.9983 218.609 55.6347 218.609 53.9841C218.609 52.2616 217.245 50.8981 215.522 50.8981Z" fill="#F7F7F7"/>
<path d="M215.594 29.0808C213.297 29.0808 211.43 30.9468 211.43 33.1716C211.43 35.4681 213.297 37.3341 215.594 37.3341C217.892 37.3341 219.687 35.4681 219.687 33.1716C219.687 30.9468 217.82 29.0808 215.594 29.0808Z" fill="#E6E6E6"/>
</g>
<defs>
<clipPath id="clip0_1569_66756">
<rect width="143.534" height="225" fill="white" transform="translate(225 0.732773) rotate(90)"/>
</clipPath>
</defs>
</svg>
