<svg width="394" height="123" viewBox="0 0 394 123" fill="none" xmlns="http://www.w3.org/2000/svg">
<path d="M14.7748 11.808H0.246094V97.662H14.7748V11.808Z" fill="black"/>
<path d="M44.0786 61.008C45.3098 60.024 46.7873 59.04 48.2648 58.548C51.4661 57.564 54.1748 57.564 57.1298 58.548C58.6073 59.04 60.0848 60.024 61.3161 61.008C62.5473 61.992 63.7786 63.468 64.5173 64.944C65.5023 66.42 65.7486 68.388 65.7486 70.356V97.662H80.2773V70.356C80.2773 65.682 79.5386 61.5 77.8148 58.056C76.0911 54.612 73.6286 51.66 70.9198 49.446C68.2111 47.232 65.2561 45.51 61.8086 44.28C58.6073 43.296 55.4061 42.558 52.4511 42.558C49.4961 42.558 46.2948 43.05 43.0936 44.28C39.8923 45.264 36.9373 46.986 34.2286 49.2C31.5198 51.414 29.3036 54.366 27.5798 57.81C25.8561 61.254 24.8711 65.436 24.8711 70.11V97.416H39.3998V70.356C39.3998 68.388 39.8923 66.42 40.6311 64.944C41.6161 63.468 42.6011 61.992 44.0786 61.008Z" fill="black"/>
<path d="M135.683 43.788L119.431 74.784C118.692 76.506 116.23 76.506 115.491 74.784L99.2385 43.788H82.001L110.32 97.662H124.602L152.675 43.788H135.683Z" fill="black"/>
<path d="M175.33 43.788H160.801V97.662H175.33V43.788Z" fill="black"/>
<path d="M227.781 97.662H244.034L221.871 60.27L236.892 43.788H221.871L202.91 64.698V21.894H188.135V97.662H202.91V81.672L212.267 71.094L227.781 97.662Z" fill="black"/>
<path d="M255.115 83.394C256.592 86.838 258.316 89.79 260.532 92.004C262.748 94.218 265.211 95.94 268.166 96.924C270.875 97.908 273.583 98.4 276.292 98.646L276.538 83.64C273.83 83.394 271.613 82.41 270.136 80.442C268.412 78.228 267.427 75.276 267.427 71.094V57.318H276.292V43.788H267.427V29.274C267.427 25.338 264.226 22.14 260.286 22.14C256.346 22.14 253.145 25.338 253.145 29.274V43.788H243.787V57.318H252.898V71.094C252.898 75.768 253.637 79.95 255.115 83.394Z" fill="black"/>
<path d="M296.731 91.758C299.44 93.972 302.395 95.694 305.843 96.924C309.044 97.908 312.245 98.646 315.2 98.646C318.155 98.646 321.356 98.154 324.558 96.924C327.759 95.94 330.714 94.218 333.423 92.004C336.131 89.79 338.348 86.838 340.071 83.394C341.795 79.95 342.78 75.768 342.78 71.094V43.788H328.251V71.094C328.251 73.062 327.759 75.03 327.02 76.506C326.281 77.982 325.05 79.458 323.819 80.442C322.588 81.426 321.11 82.41 319.633 82.902C316.431 83.886 313.723 83.886 310.768 82.902C309.29 82.41 307.813 81.426 306.581 80.442C305.35 79.458 304.119 77.982 303.38 76.506C302.395 75.03 302.149 73.062 302.149 71.094V43.788H287.62V71.094C287.62 75.768 288.359 79.95 290.083 83.394C291.806 86.592 294.023 89.544 296.731 91.758Z" fill="black"/>
<path d="M380.702 96.924C383.165 96.432 385.135 95.694 387.105 94.464C389.075 93.234 390.552 91.512 391.784 89.298C393.015 87.084 393.754 84.132 393.754 80.442C393.754 78.228 393.015 76.014 391.784 74.292C390.552 72.57 388.829 70.848 386.859 69.372C384.889 67.896 382.672 66.666 380.456 65.682C377.994 64.698 375.777 63.96 373.807 63.222C371.837 62.484 370.114 61.746 368.882 61.254C367.159 60.516 366.42 60.024 366.42 59.04C366.174 58.056 366.666 57.564 367.651 57.318C368.144 57.072 369.129 57.072 370.36 57.072H390.799L391.045 42.558H370.114C364.204 42.558 359.771 44.034 357.062 47.232C354.107 50.43 352.63 54.366 352.63 59.04C352.63 61.5 353.369 63.468 354.6 65.436C355.831 67.158 357.555 68.88 359.525 70.356C361.495 71.832 363.711 73.062 366.174 74.046C368.636 75.03 370.852 76.014 372.822 76.752C374.792 77.49 376.516 78.228 377.994 78.72C379.717 79.458 380.456 80.196 380.456 80.934C380.702 81.672 380.21 82.41 379.471 82.902C378.732 83.394 377.747 83.394 376.024 83.394H352.63V97.416H374.3C376.024 97.662 378.24 97.416 380.702 96.924Z" fill="black"/>
<path d="M131.005 15.006L119.431 37.146C118.692 38.622 116.23 38.622 115.491 37.146L103.917 15.006C103.178 13.53 104.163 11.808 105.887 11.808H129.281C130.758 11.808 131.743 13.53 131.005 15.006Z" fill="#424497"/>
</svg>
