<svg width="102" height="101" viewBox="0 0 102 101" fill="none" xmlns="http://www.w3.org/2000/svg">
<path d="M5.26025 98C4.43183 98 3.76025 98.6716 3.76025 99.5C3.76025 100.328 4.43183 101 5.26025 101V98ZM95.2603 101C96.0887 101 96.7603 100.328 96.7603 99.5C96.7603 98.6716 96.0887 98 95.2603 98V101ZM43.7352 65.9499C43.7317 65.1214 43.0573 64.4527 42.2289 64.4562C41.4005 64.4596 40.7317 65.134 40.7352 65.9624L43.7352 65.9499ZM80.7603 99.5C80.7603 100.328 81.4318 101 82.2603 101C83.0887 101 83.7603 100.328 83.7603 99.5H80.7603ZM80.7601 83.5L82.0625 82.7558H82.0625L80.7601 83.5ZM59.7601 66.8799C59.7601 66.0515 59.0886 65.3799 58.2601 65.3799C57.4317 65.3799 56.7601 66.0515 56.7601 66.8799H59.7601ZM50.2601 99.5L49.197 100.558C49.7792 101.143 50.7245 101.148 51.3126 100.569L50.2601 99.5ZM42.2352 72.0085L42.7093 73.4315L42.7096 73.4315L42.2352 72.0085ZM21.26 83.5L22.2859 84.5942L21.26 83.5ZM6.26013 72L5.29985 70.8477L6.26013 72ZM2.26013 88L0.767574 88.1493C0.844254 88.9161 1.4895 89.5 2.26013 89.5V88ZM18.2605 99.5C18.2605 100.328 18.9321 101 19.7605 101C20.589 101 21.2605 100.328 21.2605 99.5H18.2605ZM98.7603 88V89.5H100.016L100.237 88.264L98.7603 88ZM75.2603 79.6102L74.5518 80.9323L75.2603 79.6102ZM23.7603 44.5L23.7269 45.9996L23.7603 44.5ZM17.7603 47.2832L17.2287 45.8806L17.7603 47.2832ZM29.6719 47.5L29.0966 48.8853L29.6719 47.5ZM59.2088 35.1619C59.8505 34.638 59.946 33.693 59.422 33.0513C58.8981 32.4096 57.9532 32.3142 57.3115 32.8381L59.2088 35.1619ZM35.2931 45.5L33.7945 45.434L35.2931 45.5ZM73.2603 47.2832L73.8467 48.6638L73.2603 47.2832ZM65.794 48.6606L64.296 48.5842L65.794 48.6606ZM82.7603 47.2832L82.22 48.6825L82.7603 47.2832ZM89.6333 50.1552C90.4587 50.2253 91.1848 49.613 91.2549 48.7875C91.325 47.9621 90.7127 47.2361 89.8872 47.166L89.6333 50.1552ZM51.7603 2C51.7603 1.17157 51.0887 0.5 50.2603 0.5C49.4318 0.5 48.7603 1.17157 48.7603 2H51.7603ZM48.7603 13C48.7603 13.8284 49.4318 14.5 50.2603 14.5C51.0887 14.5 51.7603 13.8284 51.7603 13H48.7603ZM28.7902 9.90948C28.1879 9.34066 27.2386 9.36779 26.6697 9.97006C26.1009 10.5723 26.128 11.5217 26.7303 12.0905L28.7902 9.90948ZM35.7303 20.5905C36.3326 21.1593 37.282 21.1322 37.8508 20.5299C38.4196 19.9277 38.3925 18.9783 37.7902 18.4095L35.7303 20.5905ZM62.7303 18.4095C62.128 18.9783 62.1009 19.9277 62.6697 20.5299C63.2386 21.1322 64.1879 21.1593 64.7902 20.5905L62.7303 18.4095ZM73.7902 12.0905C74.3925 11.5217 74.4196 10.5723 73.8508 9.97006C73.282 9.36779 72.3326 9.34066 71.7303 9.90948L73.7902 12.0905ZM5.26025 101H95.2603V98H5.26025V101ZM43.7605 71.9937L43.7352 65.9499L40.7352 65.9624L40.7605 72.0063L43.7605 71.9937ZM59.7601 72V66.8799H56.7601V72H59.7601ZM40.8202 72.419L48.8198 99.919L51.7004 99.081L43.7008 71.581L40.8202 72.419ZM51.7004 99.919L59.7004 72.419L56.8198 71.581L48.8198 99.081L51.7004 99.919ZM72.75 76.6511C67.9904 74.3363 62.401 72.0058 58.8054 70.6026L57.7148 73.3974C61.2644 74.7826 66.7743 77.0808 71.4379 79.3489L72.75 76.6511ZM51.3126 100.569L73.1464 79.0688L71.0415 76.9312L49.2077 98.4312L51.3126 100.569ZM29.6133 79.2973C35.6868 75.7722 41.7977 73.7353 42.7093 73.4315L41.7611 70.5854C40.8035 70.9044 34.4549 73.0185 28.1073 76.7027L29.6133 79.2973ZM42.7096 73.4315L42.7349 73.423L41.7861 70.577L41.7608 70.5854L42.7096 73.4315ZM51.3233 98.4418L29.9234 76.9418L27.7972 79.0582L49.197 100.558L51.3233 98.4418ZM42.8948 70.6407C41.5356 70.0064 39.0184 69.1297 36.508 68.4628C35.2439 68.127 33.9487 67.8355 32.7724 67.6536C31.6284 67.4766 30.4745 67.3827 29.5481 67.5151L29.9724 70.4849C30.446 70.4173 31.2421 70.4525 32.3138 70.6183C33.3531 70.7791 34.5392 71.0438 35.7377 71.3622C38.1524 72.0037 40.4853 72.8269 41.6262 73.3593L42.8948 70.6407ZM26.1194 81.5169C27.2529 80.7247 28.4301 79.984 29.6133 79.2973L28.1073 76.7027C26.8625 77.4252 25.613 78.2107 24.4008 79.0579L26.1194 81.5169ZM28.3669 68.4445L23.8668 79.7319L26.6535 80.8429L31.1536 69.5555L28.3669 68.4445ZM22.2859 84.5942C22.7429 84.1658 23.2205 83.7472 23.7153 83.3386L21.805 81.0254C21.2656 81.4708 20.7404 81.931 20.234 82.4058L22.2859 84.5942ZM23.7153 83.3386C24.4819 82.7055 25.2881 82.0979 26.1194 81.5169L24.4008 79.0579C23.5116 79.6795 22.6406 80.3354 21.805 81.0254L23.7153 83.3386ZM24.1955 81.7465L20.1955 68.5644L17.3248 69.4356L21.3248 82.6176L24.1955 81.7465ZM18.6813 67.5021C17.0416 67.5884 14.4443 67.8454 11.9323 68.3409C10.676 68.5887 9.41173 68.9018 8.28609 69.2947C7.18419 69.6794 6.10341 70.178 5.29985 70.8477L7.22041 73.1523C7.61685 72.822 8.30274 72.4665 9.2748 72.1271C10.2231 71.7961 11.3401 71.5155 12.5129 71.2841C14.8593 70.8213 17.312 70.5783 18.839 70.4979L18.6813 67.5021ZM5.29985 70.8477C3.62751 72.2413 2.17963 73.9736 1.32646 76.7464C0.492996 79.4551 0.258248 83.056 0.767574 88.1493L3.75269 87.8507C3.26201 82.944 3.52726 79.7949 4.1938 77.6286C4.84063 75.5264 5.89275 74.2587 7.22041 73.1523L5.29985 70.8477ZM21.2605 99.5C21.2605 97.0593 20.8213 92.0616 21.2458 88.1624L18.2635 87.8376C17.8182 91.9268 18.2605 97.5151 18.2605 99.5H21.2605ZM21.2458 88.1624C21.3502 87.2037 21.5024 86.3823 21.7055 85.7377C21.9164 85.0682 22.1384 84.7326 22.2859 84.5942L20.234 82.4058C19.5413 83.0553 19.1207 83.9584 18.8441 84.8362C18.5597 85.7391 18.3793 86.7737 18.2635 87.8376L21.2458 88.1624ZM2.26013 89.5H19.7546V86.5H2.26013V89.5ZM83.7603 99.5C83.7603 96.5673 83.8062 91.6605 83.3628 87.8276L80.3827 88.1724C80.8014 91.7916 80.7603 96.49 80.7603 99.5H83.7603ZM83.3628 87.8276C83.1413 85.9128 82.7738 84.0005 82.0625 82.7558L79.4578 84.2442C79.8335 84.9018 80.1607 86.2534 80.3827 88.1724L83.3628 87.8276ZM81.8728 89.5H98.7603V86.5H81.8728V89.5ZM98.7603 88C100.237 88.264 100.237 88.2638 100.237 88.2635C100.237 88.2634 100.237 88.2631 100.237 88.2629C100.237 88.2624 100.237 88.2617 100.237 88.261C100.238 88.2594 100.238 88.2574 100.238 88.2549C100.239 88.2498 100.241 88.2427 100.242 88.2337C100.245 88.2156 100.25 88.1897 100.256 88.1562C100.267 88.0894 100.283 87.9926 100.303 87.869C100.342 87.6219 100.397 87.2671 100.457 86.8296C100.578 85.9558 100.722 84.7451 100.819 83.3987C101.006 80.7916 101.041 77.3733 100.169 74.9858L97.3512 76.0142C97.9798 77.7369 98.0144 80.5686 97.8266 83.1839C97.7358 84.4488 97.5992 85.5924 97.4852 86.4202C97.4283 86.8334 97.3772 87.1661 97.3407 87.3939C97.3224 87.5077 97.3078 87.5952 97.298 87.6533C97.293 87.6823 97.2893 87.704 97.2868 87.7179C97.2856 87.7249 97.2848 87.7299 97.2842 87.7329C97.2839 87.7344 97.2838 87.7355 97.2837 87.736C97.2836 87.7362 97.2836 87.7364 97.2836 87.7364C97.2836 87.7364 97.2836 87.7363 97.2836 87.7363C97.2836 87.7362 97.2837 87.736 98.7603 88ZM100.169 74.9858C99.2575 72.4872 97.3979 70.5768 94.4302 69.3264C91.5258 68.1027 87.5454 67.5 82.2603 67.5V70.5C87.3752 70.5 90.8947 71.0922 93.2654 72.091C95.5726 73.0631 96.763 74.4026 97.3512 76.0142L100.169 74.9858ZM82.0625 82.7558C81.7308 82.1753 81.1866 81.6542 80.6353 81.2075C80.0564 80.7384 79.3433 80.2521 78.5484 79.7613L76.9721 82.3137C77.7072 82.7677 78.3034 83.1792 78.7466 83.5383C79.2175 83.9199 79.4083 84.1576 79.4578 84.2442L82.0625 82.7558ZM80.8552 68.4748L76.3552 80.5123L79.1653 81.5628L83.6653 69.5252L80.8552 68.4748ZM78.5484 79.7613C77.7753 79.2838 76.904 78.7892 75.9687 78.288L74.5518 80.9323C75.4494 81.4133 76.2649 81.877 76.9721 82.3137L78.5484 79.7613ZM75.9687 78.288C74.964 77.7496 73.8781 77.1997 72.75 76.6511L71.4379 79.3489C72.5393 79.8846 73.5891 80.4165 74.5518 80.9323L75.9687 78.288ZM76.6976 79.1812L73.5313 68.5711L70.6566 69.4289L73.8229 80.0391L76.6976 79.1812ZM71.9858 67.5039C69.6516 67.6726 66.138 68.0274 63.1873 68.5478C61.7229 68.8061 60.3292 69.1166 59.2745 69.4885C58.7569 69.6709 58.2302 69.8989 57.8049 70.1968C57.4403 70.4522 56.7601 71.035 56.7601 72H59.7601C59.7601 72.565 59.3682 72.7645 59.526 72.654C59.623 72.586 59.8529 72.4655 60.2719 72.3178C61.0906 72.0292 62.2907 71.7522 63.7084 71.5022C66.5217 71.006 69.925 70.6607 72.2021 70.4961L71.9858 67.5039ZM83.7603 69V65.2738H80.7603V69H83.7603ZM73.5939 69V64.9485H70.5939V69H73.5939ZM20.2601 69V65.0016H17.2601V69H20.2601ZM31.2603 69V64.7727H28.2603V69H31.2603ZM33.9396 50.5C33.9396 54.7172 32.9814 58.4068 31.2877 60.9916C29.6241 63.5302 27.27 65 24.2603 65V68C28.4302 68 31.6657 65.8881 33.7969 62.6359C35.8979 59.4297 36.9396 55.1193 36.9396 50.5H33.9396ZM24.2603 65C18.185 65 12.7603 58.8142 12.7603 50.5H9.76025C9.76025 59.8589 15.9761 68 24.2603 68V65ZM12.7603 50.5C12.7603 42.1858 18.185 36 24.2603 36V33C15.9761 33 9.76025 41.1411 9.76025 50.5H12.7603ZM24.2603 36C27.27 36 29.6241 37.4698 31.2877 40.0084C32.9814 42.5932 33.9396 46.2828 33.9396 50.5H36.9396C36.9396 45.8807 35.8979 41.5703 33.7969 38.3641C31.6657 35.1119 28.4302 33 24.2603 33V36ZM88.7603 50.5C88.7603 58.8142 83.3355 65 77.2603 65V68C85.5444 68 91.7603 59.8589 91.7603 50.5H88.7603ZM77.2603 65C74.2824 65 71.8368 63.4363 70.0728 60.7421C68.2898 58.0187 67.2603 54.1967 67.2603 50H64.2603C64.2603 54.6399 65.3909 59.0679 67.5629 62.3853C69.754 65.732 73.0584 68 77.2603 68V65ZM77.2603 36C83.3355 36 88.7603 42.1858 88.7603 50.5H91.7603C91.7603 41.1411 85.5444 33 77.2603 33V36ZM64.3803 47.5C64.3803 53.3481 62.9315 58.5428 60.4875 62.2272C58.0583 65.8893 54.7048 68 50.7603 68V71C55.9284 71 60.1349 68.1858 62.9875 63.8855C65.8254 59.6074 67.3803 53.8022 67.3803 47.5H64.3803ZM50.7603 68C46.8366 68 43.3805 65.7856 40.8413 61.9746C38.2961 58.1547 36.7603 52.8311 36.7603 47H33.7603C33.7603 53.3191 35.418 59.2455 38.3447 63.6381C41.2773 68.0395 45.5712 71 50.7603 71V68ZM11.2603 50.5C12.0608 51.7685 12.0607 51.7686 12.0606 51.7687C12.0606 51.7687 12.0605 51.7687 12.0604 51.7688C12.0603 51.7688 12.0603 51.7688 12.0603 51.7688C12.0603 51.7688 12.0605 51.7687 12.0609 51.7685C12.0616 51.768 12.0631 51.7671 12.0652 51.7657C12.0695 51.763 12.0767 51.7586 12.0866 51.7524C12.1063 51.7402 12.137 51.7211 12.1781 51.696C12.2604 51.6457 12.3839 51.571 12.5441 51.4765C12.8647 51.2874 13.3307 51.02 13.904 50.7117C15.0548 50.0928 16.6175 49.3204 18.2918 48.6859L17.2287 45.8806C15.3917 46.5767 13.7044 47.4127 12.483 48.0695C11.8702 48.3991 11.3696 48.6863 11.0201 48.8925C10.8452 48.9956 10.7079 49.0786 10.6129 49.1367C10.5654 49.1657 10.5285 49.1886 10.5028 49.2045C10.4899 49.2125 10.4799 49.2188 10.4727 49.2234C10.469 49.2256 10.4662 49.2274 10.464 49.2288C10.4629 49.2295 10.462 49.23 10.4613 49.2305C10.4609 49.2307 10.4606 49.2309 10.4604 49.2311C10.4602 49.2312 10.4601 49.2313 10.46 49.2313C10.4598 49.2314 10.4597 49.2315 11.2603 50.5ZM18.2918 48.6859C19.4464 48.2483 20.6817 47.4123 21.5697 46.8829C22.6215 46.2559 23.2778 45.9897 23.7269 45.9996L23.7936 43.0004C22.3717 42.9688 21.0186 43.7188 20.0335 44.306C18.8846 44.9909 18.0554 45.5673 17.2287 45.8806L18.2918 48.6859ZM23.7269 45.9996C24.1756 46.0096 24.8356 46.3087 25.8786 46.9777C26.758 47.5419 27.9694 48.4172 29.0966 48.8853L30.2472 46.1147C29.4463 45.7821 28.6292 45.178 27.4984 44.4526C26.5312 43.8321 25.1994 43.0316 23.7936 43.0004L23.7269 45.9996ZM29.0966 48.8853C30.6023 49.5106 31.9897 50.2316 33.0054 50.8C33.5116 51.0832 33.9213 51.3262 34.2026 51.4972C34.3431 51.5826 34.4513 51.6499 34.5231 51.695C34.559 51.7175 34.5858 51.7345 34.603 51.7455C34.6116 51.751 34.6178 51.7549 34.6215 51.7573C34.6234 51.7585 34.6246 51.7593 34.6252 51.7597C34.6255 51.7599 34.6257 51.76 34.6257 51.76C34.6257 51.76 34.6256 51.76 34.6255 51.7599C34.6255 51.7599 34.6254 51.7598 34.6254 51.7598C34.6253 51.7597 34.6252 51.7597 35.4396 50.5C36.2539 49.2403 36.2538 49.2402 36.2537 49.2402C36.2536 49.2401 36.2535 49.24 36.2533 49.2399C36.2531 49.2398 36.2528 49.2396 36.2525 49.2394C36.2519 49.239 36.2511 49.2385 36.2501 49.2378C36.2482 49.2366 36.2456 49.235 36.2424 49.2329C36.236 49.2288 36.2272 49.2231 36.2158 49.2159C36.1932 49.2014 36.1607 49.1808 36.1189 49.1546C36.0354 49.1022 35.9147 49.0271 35.7608 48.9336C35.4532 48.7466 35.0121 48.4851 34.4704 48.182C33.3903 47.5776 31.894 46.7986 30.2472 46.1147L29.0966 48.8853ZM36.7603 47C36.7603 46.5168 36.7708 46.0387 36.7916 45.566L33.7945 45.434C33.7718 45.951 33.7603 46.4732 33.7603 47H36.7603ZM36.7916 45.566C37.0325 40.1006 38.6424 35.4116 41.1348 32.1276C43.6117 28.864 46.9369 27 50.7603 27V24C45.8496 24 41.6926 26.4303 38.7452 30.3139C35.8132 34.1771 34.0565 39.488 33.7945 45.434L36.7916 45.566ZM57.3115 32.8381C55.8925 33.9967 54.0048 35.4396 51.9018 36.9074L53.6187 39.3675C55.7833 37.8567 57.7312 36.3684 59.2088 35.1619L57.3115 32.8381ZM51.9018 36.9074C48.943 38.9725 45.6043 41.0541 42.5707 42.4683C41.053 43.1758 39.6544 43.696 38.4463 43.9726C37.2144 44.2546 36.3239 44.2496 35.7384 44.0676L34.8478 46.9324C36.1593 47.3401 37.6523 47.232 39.1158 46.8969C40.6031 46.5564 42.2118 45.9456 43.8383 45.1874C47.0933 43.6699 50.5913 41.4805 53.6187 39.3675L51.9018 36.9074ZM50.7603 27C54.4365 27 57.5885 28.83 59.9659 32.0297C62.3606 35.2527 63.9304 39.8341 64.2977 45.1043L67.2904 44.8957C66.893 39.1928 65.1852 34.0242 62.3739 30.2405C59.5453 26.4335 55.5628 24 50.7603 24V27ZM64.2977 45.1043C64.3524 45.8897 64.3803 46.6891 64.3803 47.5H67.3803C67.3803 46.6203 67.35 45.7514 67.2904 44.8957L64.2977 45.1043ZM51.5727 39.0539C52.6735 40.4803 54.6613 42.5194 57.1332 44.1124C59.5894 45.6953 62.7139 46.9575 66.0072 46.4848L65.5809 43.5152C63.3012 43.8425 60.9201 42.9839 58.7583 41.5907C56.6121 40.2076 54.8695 38.4154 53.9478 37.221L51.5727 39.0539ZM77.7603 43C77.0692 43 76.4784 43.32 76.1139 43.5451C75.7115 43.7937 75.2933 44.1189 74.9252 44.4061C74.1202 45.0344 73.4075 45.5909 72.6738 45.9026L73.8467 48.6638C75.0149 48.1676 76.0516 47.3325 76.7709 46.7711C77.165 46.4636 77.4526 46.2444 77.6906 46.0974C77.9666 45.9269 77.9508 46 77.7603 46V43ZM67.2603 50C67.2603 49.5726 67.271 49.1514 67.2921 48.7369L64.296 48.5842C64.2722 49.0505 64.2603 49.5226 64.2603 50H67.2603ZM67.2921 48.7369C67.4888 44.8774 68.5849 41.6583 70.3119 39.4414C72.0108 37.2606 74.3483 36 77.2603 36V33C73.36 33 70.1725 34.7387 67.9453 37.5977C65.7463 40.4206 64.5153 44.2819 64.296 48.5842L67.2921 48.7369ZM72.6738 45.9026C71.5078 46.398 69.8121 46.7228 68.3093 46.9193C67.5775 47.0149 66.9262 47.076 66.4584 47.1131C66.225 47.1316 66.0383 47.144 65.9116 47.1517C65.8482 47.1556 65.7999 47.1583 65.7683 47.16C65.7524 47.1608 65.7408 47.1614 65.7335 47.1617C65.7299 47.1619 65.7273 47.162 65.7259 47.1621C65.7252 47.1621 65.7248 47.1622 65.7246 47.1622C65.7246 47.1622 65.7246 47.1622 65.7246 47.1622C65.7247 47.1622 65.7248 47.1622 65.7248 47.1622C65.7249 47.1622 65.725 47.1622 65.794 48.6606C65.863 50.159 65.8632 50.159 65.8634 50.159C65.8635 50.159 65.8637 50.159 65.8639 50.1589C65.8642 50.1589 65.8646 50.1589 65.8651 50.1589C65.8662 50.1588 65.8674 50.1588 65.869 50.1587C65.8722 50.1585 65.8765 50.1583 65.8819 50.1581C65.8927 50.1575 65.908 50.1568 65.9275 50.1557C65.9666 50.1536 66.0227 50.1505 66.0942 50.1461C66.2372 50.1374 66.442 50.1238 66.6953 50.1037C67.2011 50.0636 67.9046 49.9977 68.6982 49.894C70.2463 49.6916 72.2839 49.3277 73.8467 48.6638L72.6738 45.9026ZM77.7603 46C77.8025 46 77.9256 46.0138 78.1824 46.149C78.4455 46.2875 78.7458 46.4965 79.147 46.7942C79.8816 47.3395 80.9429 48.1895 82.22 48.6825L83.3005 45.8839C82.4928 45.572 81.8042 45.0304 80.935 44.3853C80.5342 44.0878 80.0691 43.7519 79.5799 43.4944C79.0843 43.2335 78.468 43 77.7603 43V46ZM82.22 48.6825C83.6789 49.2458 85.5634 49.609 87.0072 49.8308C87.7444 49.9441 88.3966 50.0247 88.8651 50.0772C89.0997 50.1034 89.2891 50.1227 89.4211 50.1355C89.487 50.1419 89.5387 50.1467 89.5746 50.15C89.5925 50.1516 89.6065 50.1529 89.6164 50.1537C89.6213 50.1542 89.6252 50.1545 89.628 50.1547C89.6294 50.1549 89.6306 50.155 89.6314 50.155C89.6319 50.1551 89.6323 50.1551 89.6326 50.1551C89.6327 50.1551 89.6329 50.1552 89.633 50.1552C89.6331 50.1552 89.6333 50.1552 89.7603 48.6606C89.8872 47.166 89.8873 47.166 89.8874 47.166C89.8874 47.166 89.8875 47.166 89.8875 47.166C89.8876 47.166 89.8875 47.166 89.8875 47.166C89.8873 47.166 89.8868 47.1659 89.8861 47.1659C89.8847 47.1657 89.8822 47.1655 89.8787 47.1652C89.8718 47.1646 89.8607 47.1636 89.8458 47.1623C89.8159 47.1596 89.7705 47.1553 89.7111 47.1496C89.5922 47.138 89.4175 47.1203 89.1989 47.0958C88.761 47.0468 88.1505 46.9713 87.4626 46.8656C86.0562 46.6496 84.4407 46.3241 83.3005 45.8839L82.22 48.6825ZM48.7603 2V13H51.7603V2H48.7603ZM26.7303 12.0905L35.7303 20.5905L37.7902 18.4095L28.7902 9.90948L26.7303 12.0905ZM64.7902 20.5905L73.7902 12.0905L71.7303 9.90948L62.7303 18.4095L64.7902 20.5905ZM50.2603 18.5C50.2603 18.5124 50.2596 18.5203 50.2591 18.5244C50.2586 18.5284 50.2583 18.5292 50.2587 18.5273C50.2592 18.5254 50.2602 18.5217 50.2622 18.5166C50.2641 18.5116 50.2666 18.506 50.2697 18.5001C50.276 18.4881 50.2829 18.4788 50.288 18.4729C50.2928 18.4674 50.2947 18.4665 50.2915 18.4689C50.2882 18.4715 50.2811 18.4763 50.2699 18.482C50.2586 18.4878 50.2462 18.493 50.234 18.497C50.2281 18.4989 50.2231 18.5004 50.2192 18.5014C50.2153 18.5023 50.2132 18.5027 50.2133 18.5027C50.2133 18.5027 50.2167 18.5021 50.2236 18.5015C50.2303 18.5009 50.2426 18.5 50.2603 18.5V21.5C50.8278 21.5 51.5231 21.2999 52.104 20.8595C52.7456 20.3731 53.2603 19.5753 53.2603 18.5H50.2603ZM50.2603 18.5C50.278 18.5 50.2902 18.5009 50.2969 18.5015C50.3038 18.5021 50.3072 18.5027 50.3072 18.5027C50.3073 18.5027 50.3052 18.5023 50.3013 18.5014C50.2974 18.5004 50.2924 18.4989 50.2865 18.497C50.2743 18.493 50.2619 18.4878 50.2506 18.482C50.2394 18.4763 50.2324 18.4715 50.229 18.4689C50.2258 18.4665 50.2277 18.4674 50.2325 18.4729C50.2376 18.4788 50.2445 18.4881 50.2508 18.5001C50.2539 18.506 50.2564 18.5116 50.2583 18.5166C50.2603 18.5217 50.2613 18.5254 50.2618 18.5273C50.2622 18.5292 50.2619 18.5284 50.2614 18.5244C50.2609 18.5203 50.2603 18.5124 50.2603 18.5H47.2603C47.2603 19.5753 47.7749 20.3731 48.4165 20.8595C48.9974 21.2999 49.6927 21.5 50.2603 21.5V18.5ZM50.2603 18.5C50.2603 18.4876 50.2609 18.4797 50.2614 18.4756C50.2619 18.4716 50.2622 18.4708 50.2618 18.4727C50.2613 18.4746 50.2603 18.4783 50.2583 18.4834C50.2564 18.4884 50.2539 18.494 50.2508 18.4999C50.2445 18.5119 50.2376 18.5212 50.2325 18.5271C50.2277 18.5326 50.2258 18.5335 50.229 18.5311C50.2324 18.5285 50.2394 18.5237 50.2506 18.518C50.2619 18.5122 50.2743 18.507 50.2865 18.503C50.2924 18.5011 50.2974 18.4996 50.3013 18.4986C50.3052 18.4977 50.3073 18.4973 50.3072 18.4973C50.3072 18.4973 50.3038 18.4979 50.2969 18.4985C50.2902 18.4991 50.278 18.5 50.2603 18.5V15.5C49.6927 15.5 48.9974 15.7001 48.4165 16.1405C47.7749 16.6269 47.2603 17.4247 47.2603 18.5H50.2603ZM50.2603 18.5C50.2426 18.5 50.2303 18.4991 50.2236 18.4985C50.2167 18.4979 50.2133 18.4973 50.2133 18.4973C50.2132 18.4973 50.2153 18.4977 50.2192 18.4986C50.2231 18.4996 50.2281 18.5011 50.234 18.503C50.2462 18.507 50.2586 18.5122 50.2699 18.518C50.2811 18.5237 50.2882 18.5285 50.2915 18.5311C50.2947 18.5335 50.2928 18.5326 50.288 18.5271C50.2829 18.5212 50.276 18.5119 50.2697 18.4999C50.2666 18.494 50.2641 18.4884 50.2622 18.4834C50.2602 18.4783 50.2592 18.4746 50.2587 18.4727C50.2583 18.4708 50.2586 18.4716 50.2591 18.4756C50.2596 18.4797 50.2603 18.4876 50.2603 18.5H53.2603C53.2603 17.4247 52.7456 16.6269 52.104 16.1405C51.5231 15.7001 50.8278 15.5 50.2603 15.5V18.5Z" fill="#53565A"/>
</svg>
