<svg width="102" height="102" viewBox="0 0 102 102" fill="none" xmlns="http://www.w3.org/2000/svg">
<path d="M42.0054 40.517C43.5054 41.6837 46.5054 44.317 46.5054 45.517V70.5171M46.5054 70.5171H56.5055M46.5054 70.5171H36.7554M56.5055 70.5171V45.517C56.5055 43.517 58.5055 41.3504 59.5055 40.517M56.5055 70.5171H66M37.0054 77.517H34.0054V70.5171H36.7554M37.0054 77.517V81.017M37.0054 77.517H64.5055M37.0054 81.017H34.0054V88.017H36.7554M37.0054 81.017H64.5055M64.5055 81.017H67.5055V88.017H64.5055M64.5055 81.017V77.517M64.5055 77.517H67.5055V70.5171H66M39.5054 88.017C40.6721 91.8504 45.5055 99.0171 51.5055 99.0171C57.5055 99.0171 59.8388 91.8504 61.5055 88.017M39.5054 88.017H61.5055M39.5054 88.017H36.7554M61.5055 88.017H64.5055M20 40.517C20 43.8307 17.3137 46.517 14 46.517C10.6863 46.517 8 43.8307 8 40.517C8 38.0955 9.43447 36.0091 11.5 35.0611M20 40.517C20 37.2033 17.3137 34.517 14 34.517C13.1078 34.517 12.2611 34.7118 11.5 35.0611M20 40.517C22.5 50.0181 30.6703 60.0161 36.7554 63.5161V70.5171M20 40.517C18.5 30.5178 20.7098 1.21606 51.5055 2.01606C82.3011 2.81606 85.6667 28.3495 83.5 41.0162C82.8325 43.3152 81.3531 46.9146 79 50.6953M83 6.88886C82.3609 8.1251 82 9.52843 82 11.0161C82 15.9866 86.0294 20.0161 91 20.0161C92.4368 20.0161 93.795 19.6794 95 19.0805M83 6.88886C84.4962 3.9945 87.5171 2.01606 91 2.01606C95.9706 2.01606 100 6.0455 100 11.0161C100 14.5498 97.9634 17.6078 95 19.0805M83 6.88886C77.0036 7.93126 62.3098 12.5161 51.5055 22.5161M51.5055 22.5161C38 35.0161 10.5 59.4279 7.5 82.722M51.5055 22.5161C61.1055 29.3161 76.5018 48.2179 83 56.8188M51.5055 22.5161C40.337 14.5161 16.6 0.516064 11 8.51606C5.4 16.5161 8.66667 29.7131 11.5 35.0611M7.5 82.722C4.26806 84.0875 2 87.2869 2 91.0161C2 95.9866 6.02944 100.016 11 100.016C14.5337 100.016 17.5918 97.9795 19.0645 95.0161M7.5 82.722C8.57589 82.2674 9.75859 82.0161 11 82.0161C15.9706 82.0161 20 86.0455 20 91.0161C20 92.4529 19.6633 93.8111 19.0645 95.0161M19.0645 95.0161C23.0466 94.5167 32.1597 92.4178 36.7554 88.017M64.5055 88.017C70.1703 91.6831 83.1 97.9153 89.5 93.5161C95.9 89.1168 92.1667 73.9324 89.5 66.89M89.5 66.89C91.0141 65.8008 92 64.0236 92 62.0161C92 58.7024 89.3137 56.0161 86 56.0161C84.9071 56.0161 83.8825 56.3082 83 56.8188M89.5 66.89C88.5149 67.5987 87.3062 68.0161 86 68.0161C82.6863 68.0161 80 65.3298 80 62.0161C80 59.7952 81.2066 57.8562 83 56.8188M66 70.5171V63.5161C71.7719 60.4077 76.0654 55.4105 79 50.6953M95 19.0805C92.8333 26.5112 86.6 43.2372 79 50.6953" stroke="#53565A" stroke-width="3" stroke-linecap="round" stroke-linejoin="round"/>
</svg>
