<svg width="107" height="100" viewBox="0 0 107 100" fill="none" xmlns="http://www.w3.org/2000/svg">
<path d="M53.1128 38.5C68.1128 38.5 71.6128 28 71.6128 21.75C71.6128 18 68.6128 4.5 53.1128 4.5C39.1128 4.5 35.1128 17 35.1128 21.75C35.1128 28.2237 40.1717 37.6867 51.6127 38.4506M53.1128 38.5C47.6128 38.5 35.5128 38.5 31.1128 38.5C25.6128 38.5 2.11273 65.5 2.11279 68C2.11288 71.3052 25.3171 92.7443 26.6128 93.5C32.6135 97 31.1128 85.5 31.1128 82M53.1128 38.5C52.6011 38.5 52.1011 38.4832 51.6127 38.4506M31.1128 82L19.1127 69.5L31.1128 55V82ZM31.1128 82V98.5H74.6127V82M74.6127 82V55L90.1127 69.5L74.6127 82ZM74.6127 82C73.1127 90.5 74.6127 96 81.6127 93.5C81.6127 93.5 105.113 73.5 105.113 69.5C105.113 65.5 79.0127 38.5 74.6127 38.5C70.2127 38.5 57.4461 38.4671 51.6127 38.4506M12.6136 2L21.1136 7.5M86.1136 30L94.6136 35.5M12.1121 35.5L21.1136 30M8.11507 18.5H19.1142M88.1151 18.5H99.1142M86.1136 7.5L95.1151 2" stroke="#53565A" stroke-width="3" stroke-linecap="round" stroke-linejoin="round"/>
</svg>
