<svg width="103" height="105" viewBox="0 0 103 105" fill="none" xmlns="http://www.w3.org/2000/svg">
<path d="M25.5 13L39.5 27M74.5 13L60.5 27M51.0503 11V28.1006M50.75 4.5C51.9926 4.5 52 3.25 52 3.25C52 3.25 51.9926 2 50.75 2M50.75 4.5C49.5074 4.5 49.3438 3.71875 49.3438 3.25C49.3438 3 49.5074 2 50.75 2M50.75 4.5C50.6667 3.67155 50.55 2.01173 50.75 2M33 33C30.2 32.2 24.1667 28 21.5 26L2 49.5L12 59M33 33C35.4595 33.7027 39.1535 35.1461 42 35.9422M33 33L12 59M70.5 33.5C69 33.5 61 33 56.5 33.5L42 35.9422M70.5 33.5C71.7 33.5 79.3333 28.5 83 26L100.5 48.5C98.1667 50.5 92.6203 54.8496 90.5 57.5M70.5 33.5L90.5 57.5M90.5 57.5C88.5 60 85.1667 67.5 84 71M84 71C87 75 87.4 78.6 85 81C82.6 83.4 80.5 82 78.5 81.5M84 71L59.5 45.6875C55.8333 45.4583 48.3 45 47.5 45C46.7 45 43.1667 53 41.5 57C40.6667 58.1667 38.2 60.2 35 59C31.8 57.8 32.3333 53.8333 33 52L42 35.9422M78.5 81.5C78.5 82.5 79 85.9 77 87.5C75 89.1 71.5 88.1667 70.5 88M78.5 81.5L61.5 65M70.5 88C70.6667 89.6667 70.5 93.2 68.5 94C66.5 94.8 63.6667 94.3333 62.5 94M70.5 88L59.5 77M62.5 94C64.5 96.5 64.2909 100.355 62 101.5C58 103.5 57 101 53.5 98.5M62.5 94L56 88M12 59L21.5 71M21.5 71C19 73.5 17 75.5 19.5 79.5C23 83.5 26 81.5 30 78.3047C33.1344 75.8009 33.3333 72 31 70C27.5 67 25 68.5 21.5 71ZM26.5 88C24 84 26.649 82.1644 29.149 79.6644C32.649 77.1644 36.0001 74.5 39.5001 77.5C41.8335 79.5 40.7834 84.4653 37.649 86.9691C33.649 90.1644 30 92 26.5 88ZM34.0054 95.8311C31.5054 91.8311 34.1544 89.9955 36.6544 87.4955C40.1544 84.9955 43.5055 82.3311 47.0055 85.3311C49.3388 87.3311 48.2887 92.2963 45.1544 94.8001C41.1544 97.9955 37.5054 99.8311 34.0054 95.8311ZM43.7242 101.381C41.9234 98.5473 43.8315 97.247 45.6322 95.4761C48.1532 93.7052 50.5669 91.8178 53.0879 93.9429C54.7686 95.3596 54.0122 98.8769 51.7546 100.651C48.8735 102.914 46.2451 104.214 43.7242 101.381Z" stroke="#53565A" stroke-width="3" stroke-linecap="round" stroke-linejoin="round"/>
</svg>
