<svg width="264" height="414" viewBox="0 0 264 414" fill="none" xmlns="http://www.w3.org/2000/svg">
<g clip-path="url(#clip0_2109_8494)">
<path d="M21.6448 8.58319C16.7608 8.58319 12.8008 12.5446 12.8008 17.2983C12.8008 22.052 16.8928 26.1455 21.6448 26.1455C26.5288 26.1455 30.3568 22.052 30.3568 17.2983C30.4888 12.5446 26.5288 8.58319 21.6448 8.58319Z" fill="#00AEC6"/>
<path d="M21.6503 46.8785C16.8983 46.8785 13.0703 50.7079 13.0703 55.4616C13.0703 60.2153 16.8983 64.0447 21.6503 64.0447C26.4023 64.0447 30.2303 60.2153 30.2303 55.4616C30.2303 50.84 26.4023 46.8785 21.6503 46.8785Z" fill="#00AEC6"/>
<path d="M59.6622 60.2093C62.3022 60.2093 64.5462 58.0965 64.5462 55.4555C64.5462 52.8146 62.4342 50.5698 59.6622 50.5698C57.0222 50.5698 54.9102 52.6825 54.9102 55.4555C55.0422 58.0965 57.1542 60.2093 59.6622 60.2093Z" fill="#537C8D"/>
<path d="M21.5149 83.7171C16.2349 83.7171 11.8789 88.0747 11.8789 93.3566C11.8789 98.6385 16.2349 103.128 21.5149 103.128C26.9269 103.128 31.2829 98.7705 31.2829 93.3566C31.4149 88.0747 26.9269 83.7171 21.5149 83.7171Z" fill="#00AEC6"/>
<path d="M59.7926 85.174C55.1726 85.174 51.4766 88.7392 51.4766 93.3609C51.4766 97.9825 55.1726 101.548 59.7926 101.548C64.2806 101.548 67.9766 97.9825 67.9766 93.3609C67.9766 88.7392 64.2806 85.174 59.7926 85.174Z" fill="#BEE041"/>
<path d="M97.9426 98.383C100.583 98.383 102.827 96.2702 102.827 93.4972C102.827 90.8562 100.715 88.6115 97.9426 88.6115C95.3026 88.6115 93.0586 90.8562 93.0586 93.4972C93.0586 96.2702 95.3026 98.383 97.9426 98.383Z" fill="#537C8D"/>
<path d="M21.5165 122.143C16.3685 122.143 12.1445 126.369 12.1445 131.651C12.1445 136.801 16.3685 141.026 21.5165 141.026C26.6645 141.026 31.0205 136.801 31.0205 131.651C31.0205 126.369 26.7965 122.143 21.5165 122.143Z" fill="#537C8D"/>
<path d="M59.7911 123.592C55.4351 123.592 51.8711 127.157 51.8711 131.647C51.8711 136.137 55.3031 139.57 59.7911 139.57C64.0151 139.57 67.7111 136.005 67.7111 131.647C67.7111 127.157 64.1471 123.592 59.7911 123.592Z" fill="#00AEC6"/>
<path d="M93.0586 131.522C93.0586 134.163 95.3026 136.408 97.9426 136.408C100.715 136.408 102.827 134.163 102.827 131.522C102.827 128.749 100.715 126.637 97.9426 126.637C95.3026 126.637 93.0586 128.749 93.0586 131.522Z" fill="#00AEC6"/>
<path d="M21.6459 162.158C17.4219 162.158 14.2539 165.459 14.2539 169.42C14.2539 173.514 17.6859 176.815 21.6459 176.815C25.6059 176.815 29.0379 173.514 29.0379 169.552C29.0379 165.459 25.7379 162.158 21.6459 162.158Z" fill="#D5D5D5"/>
<path d="M51.2148 169.685C51.2148 174.439 54.9108 178.4 59.7948 178.4C64.5468 178.4 68.5068 174.439 68.5068 169.685C68.5068 164.931 64.5468 161.102 59.7948 161.102C55.0428 161.102 51.2148 164.799 51.2148 169.685Z" fill="#537C8D"/>
<path d="M21.6415 216.953C26.6575 216.953 31.0135 212.727 31.0135 207.578C31.0135 202.428 26.7895 198.202 21.6415 198.202C16.4935 198.202 12.2695 202.296 12.2695 207.578C12.4015 212.859 16.4935 216.953 21.6415 216.953Z" fill="#00AEC6"/>
<path d="M53.7227 207.706C53.7227 211.139 56.3627 213.648 59.7947 213.648C63.2267 213.648 65.7347 211.007 65.7347 207.706C65.7347 204.273 63.0947 201.632 59.7947 201.632C56.4947 201.632 53.7227 204.405 53.7227 207.706Z" fill="#D5D5D5"/>
<path d="M90.8125 207.716C90.8125 211.677 94.2445 214.846 98.0725 214.846C102.165 214.846 105.333 211.677 105.333 207.716C105.333 203.622 102.165 200.453 98.0725 200.453C93.9805 200.453 90.8125 203.754 90.8125 207.716Z" fill="#537C8D"/>
<path d="M21.6461 235.843C16.2341 235.843 11.7461 240.2 11.7461 245.614C11.7461 251.028 16.2341 255.386 21.6461 255.386C27.0581 255.386 31.4141 251.028 31.4141 245.614C31.4141 240.332 27.0581 235.843 21.6461 235.843Z" fill="#BEE041"/>
<path d="M54.2539 245.744C54.2539 248.781 56.7619 251.422 59.9299 251.422C62.9659 251.422 65.6059 248.913 65.6059 245.744C65.6059 242.575 63.0979 240.066 59.9299 240.066C56.6299 240.198 54.2539 242.707 54.2539 245.744Z" fill="#537C8D"/>
<path d="M92.668 245.733C92.668 248.638 95.044 251.015 97.948 251.015C100.852 251.015 103.228 248.638 103.228 245.733C103.228 242.828 100.852 240.451 97.948 240.451C95.044 240.451 92.668 242.696 92.668 245.733Z" fill="#537C8D"/>
<path d="M21.6457 275.718C17.1577 275.718 13.5938 279.283 13.5938 283.773C13.5938 288.262 17.1577 291.828 21.6457 291.828C26.1337 291.828 29.6978 288.262 29.6978 283.773C29.6978 279.283 26.0017 275.718 21.6457 275.718Z" fill="#D5D5D5"/>
<path d="M64.4119 283.908C64.4119 281.267 62.2999 279.286 59.7919 279.286C57.1519 279.286 55.1719 281.399 55.1719 283.908C55.1719 286.549 57.2839 288.53 59.7919 288.53C62.2999 288.398 64.4119 286.417 64.4119 283.908Z" fill="#00AEC6"/>
<path d="M93.582 283.905C93.582 286.281 95.43 288.13 97.806 288.13C100.314 288.13 102.294 286.281 102.294 283.905C102.294 281.396 100.446 279.415 97.806 279.415C95.43 279.283 93.582 281.396 93.582 283.905Z" fill="#537C8D"/>
<path d="M55.043 321.934C55.043 324.575 57.155 326.82 59.927 326.82C62.567 326.82 64.679 324.707 64.679 321.934C64.679 319.293 62.567 317.181 59.927 317.181C57.287 317.181 55.043 319.161 55.043 321.934Z" fill="#E0E0E0"/>
<path d="M95.168 321.803C95.168 323.52 96.356 324.708 97.94 324.708C99.656 324.708 100.844 323.52 100.844 321.803C100.844 320.219 99.656 319.03 97.94 319.03C96.356 319.03 95.168 320.351 95.168 321.803Z" fill="#E0E0E0"/>
<path d="M18.2148 359.965C18.2148 361.813 19.7988 363.398 21.6468 363.398C23.4948 363.398 25.0788 361.813 25.0788 359.965C25.0788 358.116 23.4948 356.531 21.6468 356.531C19.6668 356.399 18.2148 357.984 18.2148 359.965Z" fill="#537C8D"/>
<path d="M18.7461 397.993C18.7461 399.578 19.9341 400.766 21.5181 400.766C23.1021 400.766 24.2901 399.578 24.2901 397.993C24.2901 396.408 22.9701 395.22 21.5181 395.22C20.0661 395.22 18.7461 396.408 18.7461 397.993Z" fill="#00AEC6"/>
<path d="M18.4766 321.929C18.4766 323.514 19.7966 324.967 21.5126 324.967C23.2286 324.967 24.6806 323.646 24.6806 321.929C24.6806 320.213 23.3606 318.76 21.5126 318.76C19.9286 318.892 18.4766 320.213 18.4766 321.929Z" fill="#00AEC6"/>
<path d="M134.109 207.572C134.109 208.761 134.901 209.421 135.957 209.421C137.013 209.421 137.805 208.629 137.805 207.572C137.805 206.516 136.749 205.724 135.957 205.724C135.033 205.724 134.109 206.648 134.109 207.572Z" fill="#537C8D"/>
<path d="M134.371 169.685C134.371 170.742 135.031 171.534 136.087 171.534C137.143 171.534 137.935 170.742 137.935 169.685C137.935 168.629 137.143 167.969 136.087 167.969C135.031 167.969 134.371 168.629 134.371 169.685Z" fill="#537C8D"/>
<path d="M95.6992 169.677C95.6992 170.866 96.4912 172.054 97.9432 172.054C99.1312 172.054 100.187 170.866 100.187 169.677C100.187 168.489 98.9992 167.433 97.9432 167.433C96.6232 167.301 95.6992 168.225 95.6992 169.677Z" fill="#537C8D"/>
<path d="M172.922 131.648C172.922 132.836 173.978 133.893 175.166 133.893C176.354 133.893 177.542 132.704 177.542 131.648C177.542 130.327 176.354 129.403 175.166 129.403C173.846 129.403 172.922 130.195 172.922 131.648Z" fill="#E0E0E0"/>
<path d="M133.977 131.648C133.977 132.836 134.769 133.893 136.221 133.893C137.409 133.893 138.465 132.704 138.465 131.648C138.465 130.327 137.277 129.403 136.221 129.403C134.769 129.403 133.977 130.195 133.977 131.648Z" fill="#D5D5D5"/>
<path d="M172.785 93.4939C172.785 94.8144 173.973 96.0028 175.161 96.0028C176.481 96.0028 177.669 94.8144 177.669 93.4939C177.669 92.1734 176.481 90.985 175.161 90.985C173.841 91.117 172.785 92.1734 172.785 93.4939Z" fill="#D5D5D5"/>
<path d="M132.66 93.4934C132.66 95.342 134.244 96.9266 136.092 96.9266C137.94 96.9266 139.524 95.6061 139.524 93.4934C139.524 91.6447 137.94 90.0601 136.092 90.0601C134.244 90.1922 132.66 91.6447 132.66 93.4934Z" fill="#537C8D"/>
<path d="M172.922 55.3273C172.922 56.6478 174.11 57.7041 175.166 57.7041C176.486 57.7041 177.542 56.6478 177.542 55.3273C177.542 54.1389 176.486 53.0825 175.166 53.0825C173.978 53.0825 172.922 54.2709 172.922 55.3273Z" fill="#537C8D"/>
<path d="M131.871 55.3273C131.871 57.8362 133.719 59.8169 136.095 59.8169C138.471 59.8169 140.319 57.9682 140.319 55.3273C140.319 53.0825 138.471 51.1017 136.095 51.1017C133.851 51.2338 131.871 53.0825 131.871 55.3273Z" fill="#537C8D"/>
<path d="M93.457 55.3295C93.457 57.8384 95.569 60.0832 98.077 60.0832C100.585 60.0832 102.565 57.8384 102.565 55.3295C102.565 52.8205 100.717 50.8398 98.077 50.8398C95.437 50.8398 93.457 52.9526 93.457 55.3295Z" fill="#537C8D"/>
<path d="M136.224 12.5445C133.584 12.5445 131.34 14.7893 131.34 17.4302C131.34 20.0712 133.584 22.316 136.224 22.316C138.996 22.316 141.108 20.0712 141.108 17.4302C141.108 14.7893 138.996 12.5445 136.224 12.5445Z" fill="#E0E0E0"/>
<path d="M92.2695 17.4286C92.2695 20.7298 94.7775 23.1067 97.9455 23.1067C100.982 23.1067 103.49 20.5978 103.49 17.4286C103.49 14.2595 100.982 11.7506 97.9455 11.7506C94.7775 11.7506 92.2695 14.2595 92.2695 17.4286Z" fill="#537C8D"/>
<path d="M52.1406 17.2967C52.1406 21.5222 55.5726 24.9554 59.6646 24.9554C63.8886 24.9554 67.3206 21.5222 67.3206 17.2967C67.3206 13.0712 63.8886 9.76996 59.6646 9.76996C55.5726 9.76996 52.1406 13.2032 52.1406 17.2967Z" fill="#00AEC6"/>
</g>
<defs>
<clipPath id="clip0_2109_8494">
<rect width="264" height="413.838" fill="white"/>
</clipPath>
</defs>
</svg>
