<svg width="155" height="243" viewBox="0 0 155 243" fill="none" xmlns="http://www.w3.org/2000/svg">
<g clip-path="url(#clip0_2109_8393)">
<path d="M142.209 237.801C145.075 237.801 147.398 235.476 147.398 232.687C147.398 229.897 144.997 227.495 142.209 227.495C139.343 227.495 137.097 229.897 137.097 232.687C137.019 235.476 139.343 237.801 142.209 237.801Z" fill="#BEE041"/>
<path d="M142.208 215.329C144.996 215.329 147.242 213.082 147.242 210.293C147.242 207.503 144.996 205.256 142.208 205.256C139.419 205.256 137.173 207.503 137.173 210.293C137.173 213.005 139.419 215.329 142.208 215.329Z" fill="#BEE041"/>
<path d="M119.903 207.501C118.354 207.501 117.037 208.74 117.037 210.29C117.037 211.84 118.276 213.157 119.903 213.157C121.452 213.157 122.691 211.917 122.691 210.29C122.614 208.74 121.375 207.501 119.903 207.501Z" fill="#E0E0E0"/>
<path d="M142.287 193.707C145.385 193.707 147.941 191.15 147.941 188.05C147.941 184.951 145.385 182.316 142.287 182.316C139.111 182.316 136.555 184.873 136.555 188.05C136.478 191.15 139.111 193.707 142.287 193.707Z" fill="#D5D5D5"/>
<path d="M119.823 192.858C122.534 192.858 124.703 190.766 124.703 188.054C124.703 185.342 122.534 183.25 119.823 183.25C117.19 183.25 115.021 185.342 115.021 188.054C115.021 190.766 117.19 192.858 119.823 192.858Z" fill="#BEE041"/>
<path d="M97.4388 185.105C95.8897 185.105 94.5729 186.345 94.5729 187.972C94.5729 189.522 95.8122 190.839 97.4388 190.839C98.9879 190.839 100.305 189.522 100.305 187.972C100.305 186.345 98.9879 185.105 97.4388 185.105Z" fill="#1CADC4"/>
<path d="M142.286 171.161C145.307 171.161 147.785 168.682 147.785 165.583C147.785 162.561 145.307 160.081 142.286 160.081C139.265 160.081 136.709 162.561 136.709 165.583C136.709 168.682 139.188 171.161 142.286 171.161Z" fill="#1CADC4"/>
<path d="M119.825 170.313C122.381 170.313 124.473 168.221 124.473 165.586C124.473 162.952 122.459 160.937 119.825 160.937C117.347 160.937 115.178 163.029 115.178 165.586C115.178 168.221 117.269 170.313 119.825 170.313Z" fill="#BEE041"/>
<path d="M100.305 165.661C100.305 164.111 98.9879 162.794 97.4388 162.794C95.8122 162.794 94.5729 164.111 94.5729 165.661C94.5729 167.288 95.8122 168.528 97.4388 168.528C98.9879 168.528 100.305 167.288 100.305 165.661Z" fill="#BEE041"/>
<path d="M142.209 147.681C144.688 147.681 146.547 145.744 146.547 143.419C146.547 141.017 144.533 139.08 142.209 139.08C139.886 139.08 137.872 141.017 137.872 143.342C137.872 145.744 139.808 147.681 142.209 147.681Z" fill="#385567"/>
<path d="M124.855 143.266C124.855 140.476 122.687 138.152 119.821 138.152C117.032 138.152 114.709 140.476 114.709 143.266C114.709 146.055 117.032 148.302 119.821 148.302C122.609 148.302 124.855 146.133 124.855 143.266Z" fill="#1CADC4"/>
<path d="M142.215 115.53C139.272 115.53 136.716 118.009 136.716 121.031C136.716 124.053 139.195 126.533 142.215 126.533C145.236 126.533 147.715 124.131 147.715 121.031C147.637 117.932 145.236 115.53 142.215 115.53Z" fill="#E0E0E0"/>
<path d="M123.387 120.95C123.387 118.935 121.838 117.463 119.824 117.463C117.81 117.463 116.338 119.013 116.338 120.95C116.338 122.964 117.887 124.514 119.824 124.514C121.76 124.514 123.387 122.887 123.387 120.95Z" fill="#385567"/>
<path d="M101.625 120.947C101.625 118.623 99.6111 116.763 97.3649 116.763C94.9638 116.763 93.1048 118.623 93.1048 120.947C93.1048 123.349 94.9638 125.209 97.3649 125.209C99.766 125.209 101.625 123.272 101.625 120.947Z" fill="#D5D5D5"/>
<path d="M142.206 104.442C145.382 104.442 148.016 101.885 148.016 98.7082C148.016 95.5313 145.382 92.9743 142.206 92.9743C139.031 92.9743 136.475 95.5313 136.475 98.7082C136.475 101.808 139.031 104.442 142.206 104.442Z" fill="#BEE041"/>
<path d="M123.074 98.6371C123.074 96.8549 121.603 95.3053 119.744 95.3052C117.962 95.3052 116.413 96.7774 116.413 98.6371C116.413 100.497 117.885 101.969 119.744 101.969C121.68 101.891 123.074 100.419 123.074 98.6371Z" fill="#1CADC4"/>
<path d="M100.535 98.6356C100.535 96.9309 99.1409 95.5362 97.4369 95.5362C95.7329 95.5362 94.3387 96.9309 94.3387 98.6356C94.3387 100.34 95.7329 101.735 97.4369 101.735C99.1409 101.735 100.535 100.418 100.535 98.6356Z" fill="#E0E0E0"/>
<path d="M142.209 81.0413C144.842 81.0413 146.934 78.9493 146.934 76.3148C146.934 73.6803 144.842 71.5883 142.209 71.5883C139.575 71.5883 137.484 73.6803 137.484 76.3148C137.484 78.9493 139.653 81.0413 142.209 81.0413Z" fill="#D5D5D5"/>
<path d="M117.117 76.244C117.117 77.7937 118.356 78.9559 119.828 78.9559C121.377 78.9559 122.539 77.7162 122.539 76.244C122.539 74.6943 121.3 73.532 119.828 73.532C118.356 73.6095 117.117 74.7718 117.117 76.244Z" fill="#BEE041"/>
<path d="M100 76.2445C100 74.8498 98.9156 73.765 97.5214 73.765C96.0497 73.765 94.8879 74.8498 94.8879 76.2445C94.8879 77.7167 95.9723 78.8789 97.5214 78.8789C98.9156 78.9564 100 77.7167 100 76.2445Z" fill="#1CADC4"/>
<path d="M122.613 53.9289C122.613 52.3792 121.374 51.062 119.747 51.062C118.198 51.062 116.959 52.3017 116.959 53.9289C116.959 55.4785 118.198 56.7183 119.747 56.7183C121.297 56.7183 122.613 55.556 122.613 53.9289Z" fill="#D5D5D5"/>
<path d="M99.0664 54.0017C99.0664 52.9944 98.3693 52.297 97.4398 52.297C96.4329 52.297 95.7358 52.9944 95.7358 54.0017C95.7358 54.9315 96.4329 55.6288 97.4398 55.6288C98.3693 55.6288 99.0664 54.854 99.0664 54.0017Z" fill="#1CADC4"/>
<path d="M144.223 31.6127C144.223 30.5279 143.293 29.5981 142.209 29.5981C141.124 29.5981 140.195 30.5279 140.195 31.6127C140.195 32.6975 141.124 33.6273 142.209 33.6273C143.371 33.7048 144.223 32.775 144.223 31.6127Z" fill="#E0E0E0"/>
<path d="M143.91 9.29247C143.91 8.36266 143.213 7.66532 142.284 7.66532C141.354 7.66532 140.657 8.36266 140.657 9.29247C140.657 10.2223 141.432 10.9196 142.284 10.9196C143.136 10.9196 143.91 10.2223 143.91 9.29247Z" fill="#385567"/>
<path d="M144.07 53.9296C144.07 52.9998 143.296 52.1475 142.289 52.1475C141.282 52.1475 140.43 52.9223 140.43 53.9296C140.43 54.9369 141.204 55.7892 142.289 55.7892C143.218 55.7118 144.07 54.9369 144.07 53.9296Z" fill="#BEE041"/>
<path d="M76.2188 121.036C76.2188 120.339 75.754 119.952 75.1344 119.952C74.5147 119.952 74.05 120.416 74.05 121.036C74.05 121.656 74.6696 122.121 75.1344 122.121C75.6766 122.121 76.2188 121.579 76.2188 121.036Z" fill="#1CADC4"/>
<path d="M76.0625 143.265C76.0625 142.645 75.6752 142.18 75.0556 142.18C74.4359 142.18 73.9712 142.645 73.9712 143.265C73.9712 143.884 74.4359 144.272 75.0556 144.272C75.6752 144.272 76.0625 143.884 76.0625 143.265Z" fill="#1CADC4"/>
<path d="M98.7578 143.268C98.7578 142.571 98.2931 141.873 97.4411 141.873C96.744 141.873 96.1243 142.571 96.1243 143.268C96.1243 143.965 96.8214 144.585 97.4411 144.585C98.2156 144.663 98.7578 144.12 98.7578 143.268Z" fill="#E0E0E0"/>
<path d="M53.4414 165.587C53.4414 164.889 52.8218 164.269 52.1247 164.269C51.4275 164.269 50.7304 164.967 50.7304 165.587C50.7304 166.361 51.4275 166.904 52.1247 166.904C52.8992 166.904 53.4414 166.439 53.4414 165.587Z" fill="#E0E0E0"/>
<path d="M76.293 165.587C76.293 164.889 75.8282 164.269 74.9762 164.269C74.2791 164.269 73.6595 164.967 73.6595 165.587C73.6595 166.361 74.3566 166.904 74.9762 166.904C75.8282 166.904 76.293 166.439 76.293 165.587Z" fill="#D5D5D5"/>
<path d="M53.5234 187.97C53.5234 187.195 52.8263 186.498 52.1292 186.498C51.3547 186.498 50.6575 187.195 50.6575 187.97C50.6575 188.745 51.3547 189.442 52.1292 189.442C52.9038 189.365 53.5234 188.745 53.5234 187.97Z" fill="#D5D5D5"/>
<path d="M77.0664 187.969C77.0664 186.884 76.1369 185.954 75.0525 185.954C73.9682 185.954 73.0387 186.729 73.0387 187.969C73.0387 189.054 73.9682 189.984 75.0525 189.984C76.1369 189.906 77.0664 189.054 77.0664 187.969Z" fill="#1CADC4"/>
<path d="M53.4414 210.369C53.4414 209.594 52.7443 208.975 52.1247 208.975C51.3501 208.975 50.7304 209.594 50.7304 210.369C50.7304 211.067 51.3501 211.687 52.1247 211.687C52.8218 211.687 53.4414 210.989 53.4414 210.369Z" fill="#385567"/>
<path d="M77.5313 210.37C77.5313 208.898 76.4469 207.736 75.0527 207.736C73.6584 207.736 72.574 208.82 72.574 210.37C72.574 211.687 73.6584 212.85 75.0527 212.85C76.3694 212.772 77.5313 211.687 77.5313 210.37Z" fill="#1CADC4"/>
<path d="M100.074 210.369C100.074 208.897 98.8349 207.579 97.3632 207.579C95.8916 207.579 94.7297 208.897 94.7297 210.369C94.7297 211.841 95.8141 213.003 97.3632 213.003C98.9124 213.003 100.074 211.764 100.074 210.369Z" fill="#1CADC4"/>
<path d="M74.9779 235.468C76.527 235.468 77.8438 234.151 77.8438 232.601C77.8438 231.052 76.527 229.734 74.9779 229.734C73.3513 229.734 72.112 231.052 72.112 232.601C72.112 234.151 73.3513 235.468 74.9779 235.468Z" fill="#E0E0E0"/>
<path d="M100.77 232.604C100.77 230.667 99.2979 229.272 97.4389 229.272C95.6574 229.272 94.1857 230.745 94.1857 232.604C94.1857 234.464 95.6574 235.936 97.4389 235.936C99.2979 235.936 100.77 234.464 100.77 232.604Z" fill="#385567"/>
<path d="M124.316 232.689C124.316 230.21 122.303 228.195 119.901 228.195C117.423 228.195 115.409 230.21 115.409 232.689C115.409 235.169 117.423 237.106 119.901 237.106C122.303 237.106 124.316 235.091 124.316 232.689Z" fill="#BEE041"/>
</g>
<defs>
<clipPath id="clip0_2109_8393">
<rect width="154.913" height="242.836" fill="white" transform="translate(154.914 242.836) rotate(-180)"/>
</clipPath>
</defs>
</svg>
