<svg width="72" height="319" viewBox="0 0 72 319" fill="none" xmlns="http://www.w3.org/2000/svg">
<g clip-path="url(#clip0_1635_70400)">
<path d="M3.11916 170.51C1.65766 170.51 0.472656 171.69 0.472656 173.106C0.472656 174.522 1.69716 175.741 3.11916 175.741C4.58066 175.741 5.72616 174.522 5.72616 173.106C5.76566 171.69 4.58066 170.51 3.11916 170.51Z" fill="#D5D5D5"/>
<path d="M3.12219 181.917C1.70019 181.917 0.554687 183.057 0.554687 184.473C0.554687 185.889 1.70019 187.03 3.12219 187.03C4.54419 187.03 5.68969 185.889 5.68969 184.473C5.68969 183.097 4.54419 181.917 3.12219 181.917Z" fill="#D5D5D5"/>
<path d="M14.4962 185.889C15.2862 185.889 15.9577 185.26 15.9577 184.473C15.9577 183.687 15.3257 183.018 14.4962 183.018C13.7062 183.018 13.0742 183.647 13.0742 184.473C13.1137 185.26 13.7457 185.889 14.4962 185.889Z" fill="#537C8D"/>
<path d="M3.08272 192.891C1.50272 192.891 0.199219 194.189 0.199218 195.762C0.199218 197.335 1.50272 198.673 3.08272 198.673C4.70222 198.673 6.00572 197.375 6.00572 195.762C6.04522 194.189 4.70222 192.891 3.08272 192.891Z" fill="#D5D5D5"/>
<path d="M14.5354 193.323C13.1529 193.323 12.0469 194.385 12.0469 195.762C12.0469 197.139 13.1529 198.201 14.5354 198.201C15.8784 198.201 16.9844 197.139 16.9844 195.762C16.9844 194.385 15.8784 193.323 14.5354 193.323Z" fill="#D5D5D5"/>
<path d="M25.9498 197.257C26.7398 197.257 27.4113 196.627 27.4113 195.801C27.4113 195.015 26.7793 194.346 25.9498 194.346C25.1598 194.346 24.4883 195.015 24.4883 195.801C24.4883 196.627 25.1598 197.257 25.9498 197.257Z" fill="#537C8D"/>
<path d="M3.08184 204.337C1.54134 204.337 0.277344 205.595 0.277344 207.169C0.277343 208.703 1.54134 209.961 3.08184 209.961C4.62234 209.961 5.92584 208.703 5.92584 207.169C5.92584 205.595 4.66184 204.337 3.08184 204.337Z" fill="#537C8D"/>
<path d="M14.5341 204.769C13.2306 204.769 12.1641 205.831 12.1641 207.169C12.1641 208.506 13.1911 209.529 14.5341 209.529C15.7981 209.529 16.9041 208.467 16.9041 207.169C16.9041 205.831 15.8376 204.769 14.5341 204.769Z" fill="#D5D5D5"/>
<path d="M24.4883 207.129C24.4883 207.916 25.1598 208.585 25.9498 208.585C26.7793 208.585 27.4113 207.916 27.4113 207.129C27.4113 206.303 26.7793 205.674 25.9498 205.674C25.1598 205.674 24.4883 206.303 24.4883 207.129Z" fill="#D5D5D5"/>
<path d="M3.12216 216.255C1.85816 216.255 0.910156 217.238 0.910156 218.418C0.910156 219.637 1.93716 220.621 3.12216 220.621C4.30716 220.621 5.33416 219.637 5.33416 218.457C5.33416 217.238 4.34666 216.255 3.12216 216.255Z" fill="#E335DC"/>
<path d="M11.9687 218.497C11.9687 219.913 13.0747 221.093 14.5362 221.093C15.9582 221.093 17.1433 219.913 17.1433 218.497C17.1433 217.081 15.9583 215.94 14.5363 215.94C13.1143 215.94 11.9687 217.041 11.9687 218.497Z" fill="#537C8D"/>
<path d="M3.12091 232.578C4.62191 232.578 5.92541 231.319 5.92541 229.785C5.92541 228.251 4.66141 226.993 3.12091 226.993C1.58041 226.993 0.316406 228.212 0.316406 229.785C0.355906 231.359 1.58041 232.578 3.12091 232.578Z" fill="#D5D5D5"/>
<path d="M12.7187 229.825C12.7187 230.847 13.5087 231.595 14.5357 231.595C15.5627 231.595 16.3132 230.808 16.3132 229.825C16.3132 228.802 15.5232 228.015 14.5357 228.015C13.5482 228.015 12.7187 228.841 12.7187 229.825Z" fill="#E335DC"/>
<path d="M23.8203 229.825C23.8203 231.005 24.8473 231.949 25.9928 231.949C27.2173 231.949 28.1653 231.005 28.1653 229.825C28.1653 228.605 27.2173 227.661 25.9928 227.661C24.7683 227.661 23.8203 228.645 23.8203 229.825Z" fill="#537C8D"/>
<path d="M3.11875 238.203C1.49925 238.203 0.15625 239.501 0.15625 241.113C0.15625 242.726 1.49925 244.024 3.11875 244.024C4.73825 244.024 6.04175 242.726 6.04175 241.113C6.04175 239.54 4.73825 238.203 3.11875 238.203Z" fill="#D5D5D5"/>
<path d="M12.8789 241.153C12.8789 242.057 13.6294 242.844 14.5774 242.844C15.4859 242.844 16.2759 242.097 16.2759 241.153C16.2759 240.209 15.5254 239.461 14.5774 239.461C13.5899 239.501 12.8789 240.248 12.8789 241.153Z" fill="#537C8D"/>
<path d="M24.3711 241.153C24.3711 242.018 25.0821 242.726 25.9511 242.726C26.8201 242.726 27.5311 242.018 27.5311 241.153C27.5311 240.287 26.8201 239.579 25.9511 239.579C25.0821 239.579 24.3711 240.248 24.3711 241.153Z" fill="#537C8D"/>
<path d="M3.12044 250.081C1.77744 250.081 0.710937 251.143 0.710937 252.481C0.710937 253.818 1.77744 254.88 3.12044 254.88C4.46344 254.88 5.52994 253.818 5.52994 252.481C5.52994 251.143 4.42394 250.081 3.12044 250.081Z" fill="#E335DC"/>
<path d="M15.9173 252.52C15.9173 251.733 15.2853 251.143 14.5348 251.143C13.7448 251.143 13.1523 251.773 13.1523 252.52C13.1523 253.307 13.7843 253.897 14.5348 253.897C15.2853 253.857 15.9173 253.267 15.9173 252.52Z" fill="#D5D5D5"/>
<path d="M24.6484 252.52C24.6484 253.228 25.2014 253.779 25.9124 253.779C26.6629 253.779 27.2554 253.228 27.2554 252.52C27.2554 251.773 26.7024 251.183 25.9124 251.183C25.2014 251.143 24.6484 251.773 24.6484 252.52Z" fill="#537C8D"/>
<path d="M13.1133 263.848C13.1133 264.635 13.7453 265.303 14.5748 265.303C15.3648 265.303 15.9968 264.674 15.9968 263.848C15.9968 263.061 15.3648 262.432 14.5748 262.432C13.7848 262.432 13.1133 263.022 13.1133 263.848Z" fill="#537C8D"/>
<path d="M25.1211 263.809C25.1211 264.32 25.4766 264.674 25.9506 264.674C26.4641 264.674 26.8196 264.32 26.8196 263.809C26.8196 263.337 26.4641 262.983 25.9506 262.983C25.4766 262.983 25.1211 263.376 25.1211 263.809Z" fill="#537C8D"/>
<path d="M2.09375 275.176C2.09375 275.727 2.56775 276.199 3.12075 276.199C3.67375 276.199 4.14775 275.727 4.14775 275.176C4.14775 274.625 3.67375 274.153 3.12075 274.153C2.52825 274.114 2.09375 274.586 2.09375 275.176Z" fill="#537C8D"/>
<path d="M2.25 286.504C2.25 286.976 2.6055 287.33 3.0795 287.33C3.5535 287.33 3.909 286.976 3.909 286.504C3.909 286.032 3.514 285.678 3.0795 285.678C2.645 285.678 2.25 286.032 2.25 286.504Z" fill="#D5D5D5"/>
<path d="M2.17187 263.848C2.17187 264.32 2.56687 264.753 3.08037 264.753C3.59387 264.753 4.02838 264.359 4.02838 263.848C4.02838 263.337 3.63337 262.904 3.08037 262.904C2.60637 262.943 2.17187 263.337 2.17187 263.848Z" fill="#D5D5D5"/>
<path d="M36.7734 229.785C36.7734 230.139 37.0104 230.336 37.3264 230.336C37.6424 230.336 37.8794 230.1 37.8794 229.785C37.8794 229.471 37.5634 229.235 37.3264 229.235C37.0499 229.235 36.7734 229.51 36.7734 229.785Z" fill="#537C8D"/>
<path d="M36.8516 218.497C36.8516 218.811 37.0491 219.047 37.3651 219.047C37.6811 219.047 37.9181 218.811 37.9181 218.497C37.9181 218.182 37.6811 217.985 37.3651 217.985C37.0491 217.985 36.8516 218.182 36.8516 218.497Z" fill="#537C8D"/>
<path d="M25.2812 218.497C25.2812 218.851 25.5182 219.205 25.9527 219.205C26.3082 219.205 26.6243 218.851 26.6243 218.497C26.6243 218.143 26.2687 217.828 25.9527 217.828C25.5577 217.789 25.2812 218.064 25.2812 218.497Z" fill="#537C8D"/>
<path d="M48.3867 207.169C48.3867 207.523 48.7027 207.837 49.0582 207.837C49.4137 207.837 49.7692 207.483 49.7692 207.169C49.7692 206.775 49.4137 206.5 49.0582 206.5C48.6632 206.5 48.3867 206.736 48.3867 207.169Z" fill="#537C8D"/>
<path d="M36.7344 207.169C36.7344 207.523 36.9714 207.837 37.4059 207.837C37.7614 207.837 38.0774 207.483 38.0774 207.169C38.0774 206.775 37.7219 206.5 37.4059 206.5C36.9714 206.5 36.7344 206.736 36.7344 207.169Z" fill="#E335DC"/>
<path d="M48.3477 195.801C48.3477 196.195 48.7032 196.549 49.0587 196.549C49.4537 196.549 49.8092 196.195 49.8092 195.801C49.8092 195.408 49.4537 195.054 49.0587 195.054C48.6637 195.093 48.3477 195.408 48.3477 195.801Z" fill="#E335DC"/>
<path d="M36.3398 195.801C36.3398 196.352 36.8138 196.824 37.3668 196.824C37.9198 196.824 38.3938 196.431 38.3938 195.801C38.3938 195.251 37.9198 194.779 37.3668 194.779C36.8138 194.818 36.3398 195.251 36.3398 195.801Z" fill="#537C8D"/>
<path d="M48.3867 184.434C48.3867 184.827 48.7422 185.142 49.0582 185.142C49.4532 185.142 49.7692 184.827 49.7692 184.434C49.7692 184.08 49.4532 183.765 49.0582 183.765C48.7027 183.765 48.3867 184.119 48.3867 184.434Z" fill="#537C8D"/>
<path d="M36.1016 184.434C36.1016 185.181 36.6546 185.771 37.3656 185.771C38.0766 185.771 38.6296 185.221 38.6296 184.434C38.6296 183.765 38.0766 183.175 37.3656 183.175C36.6941 183.215 36.1016 183.765 36.1016 184.434Z" fill="#537C8D"/>
<path d="M24.6094 184.434C24.6094 185.181 25.2414 185.85 25.9919 185.85C26.7424 185.85 27.3349 185.181 27.3349 184.434C27.3349 183.687 26.7819 183.097 25.9919 183.097C25.2019 183.097 24.6094 183.726 24.6094 184.434Z" fill="#537C8D"/>
<path d="M37.4068 171.69C36.6168 171.69 35.9453 172.359 35.9453 173.145C35.9453 173.932 36.6168 174.601 37.4068 174.601C38.2363 174.601 38.8683 173.932 38.8683 173.145C38.8683 172.359 38.2363 171.69 37.4068 171.69Z" fill="#537C8D"/>
<path d="M24.2539 173.145C24.2539 174.129 25.0044 174.837 25.9524 174.837C26.8609 174.837 27.6114 174.089 27.6114 173.145C27.6114 172.201 26.8609 171.454 25.9524 171.454C25.0044 171.454 24.2539 172.201 24.2539 173.145Z" fill="#537C8D"/>
<path d="M25.2812 161.817C25.2812 162.171 25.5972 162.486 25.9527 162.486C26.3477 162.486 26.6243 162.132 26.6243 161.817C26.6243 161.424 26.3872 161.109 25.9527 161.109C25.5972 161.109 25.2812 161.424 25.2812 161.817Z" fill="#537C8D"/>
<path d="M13.3125 161.817C13.3125 162.486 13.8655 163.076 14.5765 163.076C15.327 163.076 15.8405 162.525 15.8405 161.817C15.8405 161.109 15.327 160.559 14.5765 160.559C13.8655 160.598 13.3125 161.109 13.3125 161.817Z" fill="#537C8D"/>
<path d="M1.57812 161.817C1.57812 162.643 2.28912 163.312 3.11862 163.312C3.98762 163.312 4.65912 162.643 4.65912 161.817C4.65912 160.991 3.98762 160.283 3.11862 160.283C2.28912 160.283 1.57812 160.991 1.57812 161.817Z" fill="#537C8D"/>
<path d="M36.7344 150.45C36.7344 150.804 37.0504 151.119 37.4059 151.119C37.8009 151.119 38.0774 150.804 38.0774 150.45C38.0774 150.096 37.8404 149.781 37.4059 149.781C37.0109 149.781 36.7344 150.096 36.7344 150.45Z" fill="#537C8D"/>
<path d="M24.4883 150.45C24.4883 151.237 25.1598 151.866 25.9103 151.866C26.7398 151.866 27.3718 151.237 27.3718 150.45C27.3718 149.663 26.7398 149.034 25.9103 149.034C25.1598 149.073 24.4883 149.703 24.4883 150.45Z" fill="#537C8D"/>
<path d="M12.3242 150.45C12.3242 151.709 13.3512 152.653 14.5362 152.653C15.7212 152.653 16.7482 151.709 16.7482 150.45C16.7482 149.191 15.7212 148.247 14.5362 148.247C13.3117 148.287 12.3242 149.231 12.3242 150.45Z" fill="#E335DC"/>
<path d="M0.949219 150.45C0.949218 151.63 1.89722 152.613 3.12172 152.613C4.30672 152.613 5.29422 151.591 5.29422 150.45C5.29422 149.27 4.26722 148.287 3.12172 148.287C1.93672 148.326 0.949219 149.309 0.949219 150.45Z" fill="#537C8D"/>
<path d="M36.457 139.122C36.457 139.633 36.852 140.027 37.3655 140.027C37.879 140.027 38.274 139.633 38.274 139.122C38.274 138.611 37.879 138.217 37.3655 138.217C36.8915 138.217 36.457 138.611 36.457 139.122Z" fill="#537C8D"/>
<path d="M24.1328 139.122C24.1328 140.145 24.9228 140.931 25.9103 140.931C26.9373 140.931 27.7273 140.105 27.7273 139.122C27.7273 138.099 26.9373 137.352 25.9103 137.352C24.9623 137.313 24.1328 138.139 24.1328 139.122Z" fill="#D5D5D5"/>
<path d="M12.3242 139.083C12.3242 140.341 13.3512 141.325 14.5362 141.325C15.7212 141.325 16.7482 140.302 16.7482 139.083C16.7482 137.863 15.7212 136.919 14.5362 136.919C13.3512 136.919 12.3242 137.903 12.3242 139.083Z" fill="#537C8D"/>
<path d="M1.69922 139.122C1.69922 139.909 2.29172 140.499 3.08172 140.499C3.87172 140.499 4.46422 139.909 4.46422 139.122C4.46422 138.375 3.83222 137.745 3.08172 137.745C2.33122 137.706 1.69922 138.414 1.69922 139.122Z" fill="#D5D5D5"/>
<path d="M25.043 127.794C25.043 128.305 25.438 128.699 25.9515 128.699C26.465 128.699 26.86 128.305 26.86 127.794C26.86 127.283 26.465 126.889 25.9515 126.889C25.438 126.889 25.043 127.283 25.043 127.794Z" fill="#537C8D"/>
<path d="M16.2733 127.794C16.2733 126.771 15.4833 126.063 14.4958 126.063C13.5873 126.063 12.7578 126.811 12.7578 127.794C12.7578 128.738 13.5873 129.564 14.4958 129.564C15.5228 129.564 16.2733 128.738 16.2733 127.794Z" fill="#D5D5D5"/>
<path d="M0.554687 127.794C0.554687 129.21 1.73969 130.311 3.12219 130.311C4.54419 130.311 5.65019 129.21 5.65019 127.794C5.65019 126.378 4.54419 125.237 3.12219 125.237C1.73969 125.237 0.554687 126.378 0.554687 127.794Z" fill="#537C8D"/>
<path d="M13.5469 116.427C13.5469 116.977 14.0209 117.41 14.4949 117.41C15.0479 117.41 15.5219 117.017 15.5219 116.427C15.5219 115.876 15.0479 115.443 14.4949 115.443C14.0209 115.483 13.5469 115.915 13.5469 116.427Z" fill="#BEE041"/>
<path d="M12.2461 173.106C12.2461 174.365 13.2731 175.387 14.4976 175.387C15.7616 175.387 16.7886 174.365 16.7886 173.106C16.7886 171.847 15.7616 170.864 14.4976 170.864C13.2731 170.864 12.2461 171.887 12.2461 173.106Z" fill="#D5D5D5"/>
<path d="M70.0352 3.068C70.0352 3.61867 70.5092 4.05133 70.9832 4.05133C71.5362 4.05133 72.0102 3.658 72.0102 3.068C72.0102 2.51733 71.5362 2.04533 70.9832 2.04533C70.5092 2.08467 70.0352 2.51733 70.0352 3.068Z" fill="#E335DC"/>
<path d="M23.6992 105.138C23.6992 106.397 24.7262 107.38 25.9507 107.38C27.2147 107.38 28.2417 106.357 28.2417 105.138C28.2417 103.879 27.2147 102.817 25.9507 102.817C24.6867 102.817 23.6992 103.879 23.6992 105.138Z" fill="#D5D5D5"/>
<path d="M12.6797 105.099C12.6797 106.121 13.5092 106.908 14.4967 106.908C15.5237 106.908 16.3137 106.082 16.3137 105.099C16.3137 104.076 15.5237 103.25 14.4967 103.25C13.5487 103.25 12.6797 104.115 12.6797 105.099Z" fill="#D5D5D5"/>
<path d="M3.11953 103.132C2.01353 103.132 1.14453 104.037 1.14453 105.138C1.14453 106.2 2.01353 107.105 3.11953 107.105C4.18603 107.105 5.09453 106.2 5.09453 105.138C5.13403 103.997 4.22553 103.132 3.11953 103.132Z" fill="#BEE041"/>
<path d="M24.4492 93.7313C24.4492 94.5967 25.1207 95.2653 25.9502 95.2653C26.7797 95.2653 27.4907 94.5967 27.4907 93.7313C27.4907 92.9053 26.7797 92.2367 25.9502 92.2367C25.1207 92.2367 24.4492 92.9053 24.4492 93.7313Z" fill="#E335DC"/>
<path d="M11.7305 93.7313C11.7305 95.2653 12.9945 96.524 14.4955 96.524C16.0755 96.524 17.3395 95.2653 17.3395 93.7313C17.3395 92.2367 16.0755 90.978 14.4955 90.978C12.9945 90.978 11.7305 92.2367 11.7305 93.7313Z" fill="#D5D5D5"/>
<path d="M4.89919 93.7313C4.89919 92.748 4.10919 91.9613 3.08219 91.9613C2.05519 91.9613 1.30469 92.748 1.30469 93.7313C1.30469 94.754 2.09469 95.5407 3.08219 95.5407C4.06969 95.5407 4.89919 94.754 4.89919 93.7313Z" fill="#E335DC"/>
<path d="M24.4492 82.4033C24.4492 83.2293 25.1207 83.9373 25.9502 83.9373C26.7797 83.9373 27.4907 83.2293 27.4907 82.4033C27.4907 81.5773 26.7797 80.8693 25.9502 80.8693C25.1207 80.9087 24.4492 81.6167 24.4492 82.4033Z" fill="#D5D5D5"/>
<path d="M12.2461 82.4427C12.2461 83.7013 13.2731 84.6847 14.4976 84.6847C15.7616 84.6847 16.7886 83.662 16.7886 82.4427C16.7886 81.184 15.7616 80.1613 14.4976 80.1613C13.2731 80.1613 12.2461 81.2233 12.2461 82.4427Z" fill="#D5D5D5"/>
<path d="M3.07916 80.5547C2.05216 80.5547 1.22266 81.3807 1.22266 82.4033C1.22266 83.426 2.05216 84.252 3.07916 84.252C4.10616 84.252 4.97516 83.426 4.97516 82.4033C4.97516 81.3807 4.14566 80.5547 3.07916 80.5547Z" fill="#537C8D"/>
<path d="M35.8672 71.0753C35.8672 71.9407 36.5387 72.6093 37.3682 72.6093C38.1977 72.6093 38.9087 71.9407 38.9087 71.0753C38.9087 70.2493 38.1977 69.5807 37.3682 69.5807C36.5387 69.5807 35.8672 70.2493 35.8672 71.0753Z" fill="#537C8D"/>
<path d="M25.9507 68.8333C24.6867 68.8333 23.6992 69.856 23.6992 71.0753C23.6992 72.334 24.7262 73.3567 25.9507 73.3567C27.2147 73.3567 28.2417 72.334 28.2417 71.0753C28.2417 69.8167 27.2147 68.8333 25.9507 68.8333Z" fill="#537C8D"/>
<path d="M12.8359 71.0753C12.8359 72.0193 13.5864 72.7667 14.5344 72.7667C15.4824 72.7667 16.2329 71.98 16.2329 71.0753C16.2329 70.1313 15.4429 69.384 14.5344 69.384C13.5469 69.4233 12.8359 70.1313 12.8359 71.0753Z" fill="#E335DC"/>
<path d="M3.12041 73.1207C4.22641 73.1207 5.17441 72.216 5.17441 71.0753C5.17441 69.9347 4.22641 69.03 3.12041 69.03C1.97491 69.03 1.06641 69.9347 1.06641 71.0753C1.06641 72.216 1.93541 73.1207 3.12041 73.1207Z" fill="#D5D5D5"/>
<path d="M50.5602 59.7473C50.5602 58.9213 49.8887 58.2527 49.0592 58.2527C48.2297 58.2527 47.5977 58.9213 47.5977 59.7473C47.5977 60.534 48.2297 61.2027 49.0592 61.2027C49.8887 61.242 50.5602 60.5733 50.5602 59.7473Z" fill="#537C8D"/>
<path d="M40.0942 59.7473C40.0942 58.292 38.8697 57.112 37.4082 57.112C35.9862 57.112 34.7617 58.3313 34.7617 59.7473C34.7617 61.1633 36.0257 62.3827 37.4082 62.3827C38.8697 62.422 40.0942 61.2027 40.0942 59.7473Z" fill="#E335DC"/>
<path d="M27.7303 59.7473C27.7303 58.764 26.9403 58.0167 25.9528 58.0167C24.9653 58.0167 24.2148 58.8033 24.2148 59.7473C24.2148 60.7307 25.0048 61.478 25.9528 61.478C26.9403 61.5173 27.7303 60.7307 27.7303 59.7473Z" fill="#D5D5D5"/>
<path d="M14.5375 61.714C15.604 61.714 16.5125 60.8093 16.5125 59.7473C16.5125 58.646 15.604 57.7807 14.5375 57.7807C13.4315 57.7807 12.5625 58.646 12.5625 59.7473C12.5625 60.8093 13.4315 61.714 14.5375 61.714Z" fill="#D5D5D5"/>
<path d="M3.12044 62.186C4.46344 62.186 5.52994 61.124 5.52994 59.7867C5.52994 58.4493 4.46344 57.3873 3.12044 57.3873C1.77744 57.3873 0.710937 58.4493 0.710937 59.7867C0.710937 61.0847 1.77744 62.186 3.12044 62.186Z" fill="#D5D5D5"/>
<path d="M38.8687 48.38C38.8688 47.5933 38.1972 46.9247 37.3677 46.9247C36.5382 46.9247 35.9062 47.5933 35.9062 48.38C35.9062 49.206 36.5382 49.8747 37.3677 49.8747C38.1972 49.914 38.8687 49.2453 38.8687 48.38Z" fill="#D5D5D5"/>
<path d="M23.8203 48.38C23.8203 49.5993 24.8078 50.5433 25.9533 50.5433C27.2173 50.5433 28.1258 49.5993 28.1258 48.38C28.1258 47.2 27.2173 46.256 25.9533 46.256C24.7683 46.2953 23.8203 47.2 23.8203 48.38Z" fill="#BEE041"/>
<path d="M16.2733 48.38C16.2733 47.3967 15.4833 46.6493 14.4958 46.6493C13.5083 46.6493 12.7578 47.436 12.7578 48.38C12.7578 49.4027 13.5478 50.15 14.4958 50.15C15.5228 50.15 16.2733 49.4027 16.2733 48.38Z" fill="#D5D5D5"/>
<path d="M3.12077 50.386C4.18727 50.386 5.09577 49.5207 5.09577 48.4193C5.09577 47.3573 4.18727 46.492 3.12077 46.492C2.01477 46.492 1.14577 47.3573 1.14577 48.4193C1.10627 49.4813 2.01477 50.386 3.12077 50.386Z" fill="#537C8D"/>
<path d="M50.4807 37.052C50.4807 36.2653 49.8487 35.636 49.0587 35.636C48.3082 35.636 47.6367 36.2653 47.6367 37.052C47.6367 37.8387 48.3082 38.468 49.0587 38.468C49.8487 38.5073 50.4807 37.878 50.4807 37.052Z" fill="#D5D5D5"/>
<path d="M37.3674 34.928C36.1824 34.928 35.2344 35.872 35.2344 37.0913C35.2344 38.2713 36.2219 39.2547 37.3674 39.2547C38.6314 39.2547 39.5399 38.232 39.5399 37.0913C39.5399 35.872 38.6314 34.928 37.3674 34.928Z" fill="#537C8D"/>
<path d="M24.4102 37.0913C24.4102 37.9567 25.1212 38.6253 25.9507 38.6253C26.7802 38.6253 27.4912 37.9173 27.4912 37.0913C27.4912 36.2653 26.7802 35.5573 25.9507 35.5573C25.1212 35.518 24.4102 36.226 24.4102 37.0913Z" fill="#D5D5D5"/>
<path d="M14.5362 38.94C15.5632 38.94 16.3927 38.114 16.3927 37.0913C16.3927 36.0687 15.5632 35.2033 14.5362 35.2033C13.5092 35.2033 12.6797 36.0293 12.6797 37.0913C12.6797 38.114 13.5092 38.94 14.5362 38.94Z" fill="#BEE041"/>
<path d="M3.08266 39.2547C4.34666 39.2547 5.29466 38.2713 5.29466 37.0913C5.29466 35.872 4.26766 34.8887 3.08266 34.8887C1.89766 34.8887 0.910156 35.9113 0.910156 37.0913C0.910156 38.3107 1.89766 39.2547 3.08266 39.2547Z" fill="#D5D5D5"/>
<path d="M61.3835 25.724C61.3835 25.0553 60.8305 24.4653 60.1195 24.4653C59.448 24.4653 58.8555 25.016 58.8555 25.724C58.8555 26.432 59.4085 26.9827 60.1195 26.9827C60.8305 26.9827 61.3835 26.432 61.3835 25.724Z" fill="#537C8D"/>
<path d="M51.2717 25.724C51.2717 24.5047 50.2447 23.5213 49.0202 23.5213C47.8352 23.5213 46.8477 24.544 46.8477 25.724C46.8477 26.9827 47.8747 27.9267 49.0202 27.9267C50.2842 27.9267 51.2717 26.9827 51.2717 25.724Z" fill="#D5D5D5"/>
<path d="M38.9881 25.724C38.9881 24.8587 38.2771 24.1507 37.4081 24.1507C36.5391 24.1507 35.8281 24.8587 35.8281 25.724C35.8281 26.5893 36.5391 27.2973 37.4081 27.2973C38.2771 27.2973 38.9881 26.5893 38.9881 25.724Z" fill="#D5D5D5"/>
<path d="M27.6904 25.724C27.6904 24.78 26.9004 23.9933 25.9919 23.9933C25.0044 23.9933 24.2539 24.78 24.2539 25.724C24.2539 26.7073 25.0439 27.4547 25.9919 27.4547C26.9399 27.494 27.6904 26.7073 27.6904 25.724Z" fill="#D5D5D5"/>
<path d="M14.4963 27.8873C15.7208 27.8873 16.6688 26.9433 16.6688 25.724C16.6688 24.544 15.7208 23.6 14.4963 23.6C13.3113 23.6 12.3633 24.544 12.3633 25.724C12.4028 26.9433 13.3113 27.8873 14.4963 27.8873Z" fill="#D5D5D5"/>
<path d="M3.07922 28.32C4.54072 28.32 5.68622 27.1793 5.68622 25.724C5.68622 24.308 4.54072 23.1673 3.07922 23.1673C1.65722 23.1673 0.511719 24.308 0.511719 25.724C0.551218 27.1793 1.69672 28.32 3.07922 28.32Z" fill="#BEE041"/>
<path d="M61.3835 14.396C61.3835 13.688 60.8305 13.1373 60.1195 13.1373C59.448 13.1373 58.8555 13.688 58.8555 14.396C58.8555 15.0647 59.4085 15.6547 60.1195 15.6547C60.8305 15.6547 61.3835 15.0647 61.3835 14.396Z" fill="#BEE041"/>
<path d="M51.2717 14.396C51.2717 13.1373 50.2447 12.1933 49.0202 12.1933C47.8352 12.1933 46.8477 13.1373 46.8477 14.396C46.8477 15.6153 47.8747 16.5987 49.0202 16.5987C50.2842 16.5987 51.2717 15.6153 51.2717 14.396Z" fill="#537C8D"/>
<path d="M39.5802 14.396C39.5802 13.1373 38.5532 12.1933 37.3682 12.1933C36.1832 12.1933 35.1562 13.1373 35.1562 14.396C35.1562 15.6153 36.1832 16.5987 37.3682 16.5987C38.6322 16.5987 39.5802 15.6153 39.5802 14.396Z" fill="#D5D5D5"/>
<path d="M29.073 14.396C29.073 12.6653 27.6905 11.2887 25.992 11.2887C24.254 11.2887 22.832 12.6653 22.832 14.396C22.832 16.0873 24.254 17.5033 25.992 17.5033C27.6905 17.5033 29.073 16.1267 29.073 14.396Z" fill="#537C8D"/>
<path d="M14.4956 18.2113C16.6681 18.2113 18.3666 16.52 18.3666 14.396C18.3666 12.272 16.6681 10.5413 14.4956 10.5413C12.3626 10.5413 10.6641 12.272 10.6641 14.396C10.6641 16.52 12.4021 18.2113 14.4956 18.2113Z" fill="#D5D5D5"/>
<path d="M3.11919 17.3853C4.81769 17.3853 6.12119 16.048 6.12119 14.396C6.12119 12.7047 4.77819 11.4067 3.11919 11.4067C1.42069 11.4067 0.117187 12.744 0.117187 14.396C0.117187 16.048 1.46019 17.3853 3.11919 17.3853Z" fill="#BEE041"/>
<path d="M60.0783 1.61267C59.3278 1.61267 58.6562 2.242 58.6562 3.02867C58.6562 3.81534 59.3278 4.44467 60.0783 4.44467C60.9078 4.44467 61.5398 3.81534 61.5398 3.02867C61.5793 2.28134 60.9473 1.61267 60.0783 1.61267Z" fill="#D5D5D5"/>
<path d="M51.1523 3.02867C51.1523 1.84867 50.1648 0.944001 49.0193 0.944C47.9133 0.944 46.9258 1.84867 46.9258 3.02867C46.9258 4.20867 47.9133 5.15267 49.0193 5.15267C50.2438 5.15267 51.1523 4.20867 51.1523 3.02867Z" fill="#E335DC"/>
<path d="M40.2904 3.02867C40.2904 1.45534 39.0264 0.196671 37.4464 0.196671C35.8664 0.196671 34.5234 1.45534 34.5234 3.02867C34.5234 4.64134 35.8664 5.93934 37.4464 5.93934C39.0264 5.93934 40.2904 4.68067 40.2904 3.02867Z" fill="#537C8D"/>
<path d="M28.8733 3.02867C28.8733 1.45534 27.5303 0.196671 25.9503 0.196671C24.3703 0.196671 23.0273 1.45534 23.0273 3.02867C23.0273 4.64134 24.3703 5.93934 25.9503 5.93934C27.5303 5.93934 28.8733 4.68067 28.8733 3.02867Z" fill="#D5D5D5"/>
<path d="M14.4959 0.27533C12.9554 0.27533 11.6914 1.534 11.6914 3.068C11.6914 4.602 12.9554 5.9 14.4959 5.9C16.0364 5.9 17.3399 4.64133 17.3399 3.068C17.3399 1.534 16.0759 0.27533 14.4959 0.27533Z" fill="#537C8D"/>
<path d="M3.081 6.136C4.7795 6.136 6.162 4.75933 6.162 3.068C6.162 1.37667 4.7795 4.17057e-07 3.081 2.68847e-07C1.3825 1.20636e-07 -1.20577e-07 1.37667 -2.68715e-07 3.068C0.0394996 4.79867 1.422 6.136 3.081 6.136Z" fill="#D5D5D5"/>
</g>
<defs>
<clipPath id="clip0_1635_70400">
<rect width="72" height="319" fill="white"/>
</clipPath>
</defs>
</svg>
