<svg xmlns="http://www.w3.org/2000/svg" width="40" height="43" viewBox="0 0 40 43" fill="none">
<path d="M13.0604 7.45351C13.2237 6.68361 13.2937 5.98369 13.5037 5.33043C14.1803 3.34734 16.07 2.04083 18.1698 2.0175C19.3597 1.99417 20.5728 1.99417 21.7627 2.0175C24.609 2.04083 26.8254 4.2339 26.8721 7.08022C26.8721 7.19688 26.8721 7.31353 26.8721 7.47684C27.0354 7.47684 30.325 7.47684 31.8415 7.47684C34.1046 7.47684 35.8077 8.92334 36.0643 11.1631C36.1343 11.863 34.3379 26.1646 33.9879 28.5443C33.6846 30.6674 32.0048 32.0672 29.8351 32.0672C23.6991 32.0672 10.1908 32.1139 9.58416 32.0206C7.57773 31.7173 6.24789 30.2475 6.01458 28.1944C5.71129 25.5114 4.31146 14.6627 3.98483 11.9096C3.72819 9.64658 5.61797 7.52351 7.90436 7.47684C9.51417 7.43018 12.9904 7.45351 13.0604 7.45351ZM8.02101 10.2065C7.20444 10.2532 6.64451 10.9531 6.73783 11.7463C6.94781 13.5195 8.30098 24.2982 8.74426 27.8911C8.86091 28.8243 9.37418 29.2676 10.3074 29.2676C16.77 29.2676 23.2559 29.2676 29.7184 29.2676C30.675 29.2676 31.1882 28.801 31.2816 27.8444C31.3282 27.4944 33.2413 12.143 33.288 11.6997C33.3813 10.8364 32.7514 10.1832 31.7948 10.1832C27.8986 10.2065 8.16099 10.2065 8.02101 10.2065ZM15.9534 7.43018C18.6831 7.43018 21.3894 7.43018 24.0724 7.43018C24.2824 6.00702 23.2325 4.7705 21.786 4.74717C20.6662 4.72384 19.523 4.74717 18.4031 4.74717C16.8633 4.74717 15.8601 5.84371 15.9534 7.43018Z" fill="#53565A"/>
<path d="M18.6597 14.266C18.6597 13.5661 19.1963 13.0062 19.8495 12.9129C20.5261 12.8195 21.1561 13.2395 21.3427 13.9161C21.3894 14.0561 21.3894 14.196 21.3894 14.336C21.3894 17.9523 21.3894 21.5685 21.3894 25.1614C21.3894 25.8846 20.8994 26.4679 20.2228 26.5612C19.5462 26.6545 18.8697 26.2346 18.683 25.558C18.6364 25.3714 18.6364 25.1847 18.6364 24.9981C18.6364 23.2716 18.6364 16.0858 18.6597 14.266Z" fill="#53565A"/>
<path d="M13.1771 15.6425C13.1771 15.0126 13.5738 14.5226 14.157 14.336C14.717 14.1727 15.3469 14.3593 15.6502 14.8726C15.7902 15.1059 15.9068 15.3859 15.9068 15.6658C15.9301 18.3955 15.9301 21.1252 15.9068 23.8549C15.9068 24.6481 15.2769 25.2314 14.5303 25.2314C13.7604 25.2314 13.1771 24.6248 13.1538 23.8315C13.1538 22.4784 13.1538 17.019 13.1771 15.6425Z" fill="#53565A"/>
<path d="M26.8721 23.9015C26.8721 24.5781 26.3122 25.1614 25.659 25.2314C24.9824 25.3014 24.3524 24.8814 24.1658 24.2281C24.1425 24.1115 24.1191 23.9715 24.1191 23.8549C24.1191 21.1485 24.1191 18.4188 24.1191 15.7125C24.1191 14.9893 24.6324 14.406 25.309 14.3127C25.9856 14.2193 26.6155 14.6393 26.8022 15.3159C26.8488 15.4792 26.8488 15.6892 26.8488 15.8525C26.8721 17.1357 26.8955 22.525 26.8721 23.9015Z" fill="#53565A"/>
</svg>