<svg xmlns="http://www.w3.org/2000/svg" width="40" height="43" viewBox="0 0 40 43" fill="none">
<path d="M5.74725 31.993C3.10453 31.3002 1.30851 29.7608 0.436154 27.2463C0.17958 26.4766 0.0512922 25.6812 0.0512922 24.8859C0.0256348 17.8557 0.0256348 21.807 0.0256348 14.7512C0.0256348 10.6716 3.15585 7.51575 7.26104 7.51575C7.26104 7.51575 32.9955 7.51575 33.1238 7.51575C36.8954 7.69535 39.9487 10.9025 40 14.6742V24.8345C40 29.0167 36.8441 32.1213 32.6619 32.1213H17.1648C16.5747 32.1213 16.0872 32.2752 15.6254 32.6601C13.2392 34.6614 7.85116 39.1001 7.49196 39.1771C6.56829 39.408 5.69594 38.7152 5.69594 37.7403C5.72159 35.9955 5.74725 32.1982 5.74725 31.993ZM8.72352 34.5331C8.87746 34.4048 13.778 30.3509 13.778 30.3509C14.753 29.5042 15.882 29.145 17.1648 29.145H32.6106C35.2533 29.145 37.0237 27.3746 37.0237 24.7319V14.9051C37.0237 12.2367 35.2533 10.4664 32.585 10.4664L7.1071 10.5433C6.31172 10.5433 5.51633 10.7486 4.84924 11.2104C3.72031 11.9801 3.05322 13.263 3.05322 14.7768L3.02756 24.6293C3.0019 27.3746 5.08016 29.1707 7.23538 29.1707C8.10774 29.1707 8.69786 29.8378 8.72352 30.7101C8.74918 31.7877 8.72352 34.3022 8.72352 34.5331Z" fill="#53565A"/>
</svg>
