<svg width="170" height="53" viewBox="0 0 170 53" fill="none" xmlns="http://www.w3.org/2000/svg">
<g clip-path="url(#clip0_1029_878)">
<path d="M39.2063 38.478C39.3125 38.69 39.3125 39.008 39.3125 39.22C39.3125 40.386 38.3562 41.234 37.2937 41.234C36.55 41.234 35.7 40.704 35.3812 39.962L27.9437 25.016H17.6375C16.3625 25.016 15.4062 23.85 15.6187 22.578C15.8312 21.624 16.6813 20.988 17.7438 20.988H21.1437H25.925L19.55 8.69201L3.825 39.962C3.50625 40.704 2.65625 41.234 1.9125 41.234C0.85 41.234 0 40.28 0 39.22C0 39.008 0.10625 38.69 0.10625 38.478L17.85 2.22601C18.1687 1.48401 19.0188 0.95401 19.7625 0.95401C20.5063 0.95401 21.3562 1.48401 21.675 2.22601L39.2063 38.478Z" fill="#1D1D1B"/>
<path d="M66.1937 13.886C66.1937 14.204 66.0875 14.522 65.9812 14.84L53.4437 39.962C53.125 40.598 52.275 41.128 51.5312 41.128C50.7875 41.128 49.9375 40.598 49.6187 39.962L37.0812 14.84C36.975 14.628 36.8687 14.204 36.8687 13.886C36.8687 12.72 37.825 11.766 38.9937 11.766C39.7375 11.766 40.5875 12.296 40.9062 12.932L51.6375 34.45L62.475 12.932C62.7937 12.296 63.6437 11.766 64.3875 11.766C64.7062 11.766 65.025 11.872 65.3437 11.978C65.6625 12.402 66.1937 13.144 66.1937 13.886Z" fill="#1D1D1B"/>
<path d="M77.5625 13.886V39.22C77.5625 40.28 76.925 41.128 75.8625 41.34C74.5875 41.552 73.4187 40.598 73.4187 39.22V13.886C73.4187 12.72 74.375 11.766 75.5437 11.766C76.7125 11.766 77.5625 12.72 77.5625 13.886Z" fill="#1D1D1B"/>
<path d="M115.6 13.886V25.864C115.6 29.468 113.581 34.238 111.137 36.782C108.587 39.326 103.7 41.234 100.194 41.234C91.5875 41.234 84.6812 34.344 84.6812 25.758V13.992C84.6812 12.932 85.3188 12.084 86.3813 11.872C87.7625 11.66 88.9312 12.614 88.9312 13.886V25.546C88.9312 31.482 93.3937 36.57 99.45 36.994C106.037 37.524 111.669 32.224 111.669 25.758V13.886C111.669 12.72 112.625 11.766 113.794 11.766C114.644 11.766 115.6 12.72 115.6 13.886Z" fill="#1D1D1B"/>
<path d="M170 24.804V50.032C170 51.198 169.044 52.046 167.875 52.046C166.706 52.046 165.856 51.092 165.75 50.032V25.016C165.75 20.352 162.244 16.324 157.569 15.9C152.256 15.37 147.688 19.61 147.688 24.804V43.46C147.688 44.626 146.731 45.474 145.563 45.474C144.394 45.474 143.544 44.52 143.438 43.46V25.016C143.438 20.352 139.931 16.324 135.256 15.794C130.263 15.37 125.694 19.504 125.694 24.804V38.902C125.694 39.856 125.056 40.81 123.994 41.022C122.612 41.234 121.444 40.28 121.444 39.008V24.804C121.444 17.596 127.288 11.766 134.513 11.766C136.638 11.766 139.719 12.72 141.525 13.78C142.906 14.628 144.712 16.43 145.456 17.702C146.306 16.324 148.113 14.522 149.388 13.78C151.194 12.614 154.275 11.766 156.4 11.766C164.156 11.766 170 17.596 170 24.804Z" fill="#1D1D1B"/>
</g>
<defs>
<clipPath id="clip0_1029_878">
<rect width="170" height="53" fill="white"/>
</clipPath>
</defs>
</svg>
