<svg width="55" height="54" viewBox="0 0 55 54" fill="none" xmlns="http://www.w3.org/2000/svg">
<g filter="url(#filter0_di_2865_42140)">
<circle cx="27" cy="26" r="25" fill="#F5F5F5"/>
</g>
<path d="M26.3437 16.5312C25.2655 15.4531 23.6718 15.4062 22.7343 16.2969L17.3437 21.6875C16.4062 22.625 16.4999 24.2187 17.578 25.2969L27.7499 35.4687C28.2655 35.9844 28.8749 36.2656 29.5312 36.3125H29.7655C30.4218 36.3125 30.9374 36.0781 31.3593 35.6562L36.7499 30.2656C37.6874 29.3281 37.5937 27.7344 36.5155 26.6562L26.3437 16.5312ZM35.5312 29.0937L30.0937 34.4844C29.9062 34.6719 29.7187 34.6719 29.6249 34.625C29.3905 34.5781 29.1093 34.4375 28.9218 34.25L18.7499 24.125C18.3749 23.75 18.2812 23.1875 18.5155 22.9062L23.9062 17.5156C24.0468 17.375 24.1874 17.3281 24.328 17.3281H24.4218C24.6562 17.375 24.9374 17.5156 25.1249 17.7031L35.3437 27.875C35.7187 28.25 35.8124 28.8125 35.5312 29.0937ZM16.453 29.6562C16.9687 32.5625 19.1718 34.9531 21.9374 35.8437C21.6093 36.0781 21.4218 36.5937 21.703 36.9687C21.9374 37.3437 22.453 37.5312 22.828 37.25C23.3905 36.9219 23.953 36.5469 24.4218 36.1719C24.7968 35.9375 24.9843 35.4219 24.703 35.0469C24.3749 34.4844 23.9999 33.9219 23.6249 33.4531C23.3905 33.0781 22.8749 32.8906 22.4999 33.1719C22.1718 33.4062 21.9843 33.8281 22.1249 34.2031C22.078 34.2031 22.0312 34.1562 22.0312 34.1562C21.5624 33.9687 21.0937 33.7344 20.6718 33.4531C20.3437 33.2187 20.0155 32.9844 19.6874 32.6562C19.3593 32.3281 19.1718 32.0469 18.9374 31.6719C18.7499 31.3906 18.6093 31.0625 18.4687 30.7344C18.2812 30.2656 18.1405 29.7969 18.0468 29.3281C17.953 28.8594 17.3905 28.625 16.9687 28.7187C16.5937 28.7656 16.3593 29.2344 16.453 29.6562ZM30.6562 18.5469C30.8905 18.9219 31.4062 19.1094 31.7812 18.8281C32.1093 18.5937 32.2968 18.1719 32.1093 17.75C32.203 17.75 32.2968 17.7969 32.3437 17.7969C32.9999 17.9844 33.5624 18.2656 34.078 18.6406C34.4062 18.875 34.7343 19.1094 35.0624 19.4375C35.3905 19.7656 35.578 20.0469 35.8124 20.4219C36.2343 21.125 36.5624 21.9687 36.703 22.7656C36.7968 23.2344 37.3593 23.4687 37.7812 23.375C38.2499 23.2344 38.4374 22.7656 38.3905 22.2969C37.8749 19.2969 35.4374 16.7656 32.4843 16.0625C32.8124 15.8281 32.953 15.3594 32.7187 14.9375C32.4843 14.5625 31.9687 14.375 31.5937 14.6562C31.0312 14.9844 30.4687 15.3125 29.953 15.6875C29.578 15.9219 29.3905 16.4375 29.6718 16.8125C29.953 17.4687 30.2812 17.9844 30.6562 18.5469Z" fill="#53565A"/>
<defs>
<filter id="filter0_di_2865_42140" x="0.513812" y="0.405525" width="53.5669" height="53.5669" filterUnits="userSpaceOnUse" color-interpolation-filters="sRGB">
<feFlood flood-opacity="0" result="BackgroundImageFix"/>
<feColorMatrix in="SourceAlpha" type="matrix" values="0 0 0 0 0 0 0 0 0 0 0 0 0 0 0 0 0 0 127 0" result="hardAlpha"/>
<feOffset dx="0.297238" dy="1.18895"/>
<feGaussianBlur stdDeviation="0.891713"/>
<feComposite in2="hardAlpha" operator="out"/>
<feColorMatrix type="matrix" values="0 0 0 0 0.835294 0 0 0 0 0.835294 0 0 0 0 0.835294 0 0 0 1 0"/>
<feBlend mode="normal" in2="BackgroundImageFix" result="effect1_dropShadow_2865_42140"/>
<feBlend mode="normal" in="SourceGraphic" in2="effect1_dropShadow_2865_42140" result="shape"/>
<feColorMatrix in="SourceAlpha" type="matrix" values="0 0 0 0 0 0 0 0 0 0 0 0 0 0 0 0 0 0 127 0" result="hardAlpha"/>
<feOffset dx="0.297238" dy="0.594475"/>
<feGaussianBlur stdDeviation="0.445856"/>
<feComposite in2="hardAlpha" operator="arithmetic" k2="-1" k3="1"/>
<feColorMatrix type="matrix" values="0 0 0 0 1 0 0 0 0 1 0 0 0 0 1 0 0 0 0.2 0"/>
<feBlend mode="normal" in2="shape" result="effect2_innerShadow_2865_42140"/>
</filter>
</defs>
</svg>
